<?xml version="1.0" standalone="no"?>
<!DOCTYPE svg PUBLIC "-//W3C//DTD SVG 1.1//EN" "http://www.w3.org/Graphics/SVG/1.1/DTD/svg11.dtd" >
<svg>
<metadata>
Created by FontForge 20090914 at Mon Oct 31 05:15:48 2016
 By www-data
The digitally encoded machine readable software for producing the Typefaces licensed to you is copyrighted (c) 2005 Typotheque (Peter Bilak, Graphic and Type design). All rights reserved.
</metadata>
<defs>
<font id="FedraSansPro-Book" horiz-adv-x="600" >
  <font-face 
    font-family="Fedra Sans Pro Book"
    font-weight="350"
    font-stretch="normal"
    units-per-em="1000"
    panose-1="2 11 5 4 4 0 0 2 0 4"
    ascent="780"
    descent="-220"
    x-height="546"
    cap-height="707"
    bbox="-340 -284 1347 953"
    underline-thickness="50"
    underline-position="-50"
    stemh="65"
    stemv="78"
    unicode-range="U+0020-U+FB04"
  />
<missing-glyph horiz-adv-x="1000" 
 />
    <glyph glyph-name="f_k" unicode="fk" horiz-adv-x="895" 
d="M97 -214v696h-80v64h80v28c0 159 81 203 183 203c39 0 97 -9 151 -9c23 0 67 4 87 5v-773h-79v701c-54 -2 -106 6 -159 6c-82 0 -104 -53 -104 -134v-27h116v-64h-117v-696h-78zM857 -10c-37 2 -94 13 -164 101l-157 197l233 258h93l-233 -255l112 -138
c50 -61 102 -94 129 -102z" />
    <glyph glyph-name="f_h" unicode="fh" horiz-adv-x="978" 
d="M97 -213v695h-80v64h80v28c0 159 81 203 183 203c39 0 97 -9 151 -9c23 0 67 4 87 5v-286c42 27 92 73 189 73c162 0 172 -114 172 -208v-352h-79v337c0 85 -13 153 -112 153c-64 0 -146 -56 -170 -71v-419h-79v701c-54 -2 -106 6 -159 6c-82 0 -104 -53 -104 -134v-27
h116v-64h-117v-695h-78z" />
    <glyph glyph-name="f_j" unicode="fj" horiz-adv-x="617" 
d="M333 -220c-35 0 -55 6 -70 11l14 64s15 -5 58 -5c82 0 102 53 102 134c1 1 0 498 0 498h-262v-688h-78v688h-80v64h80v28c0 159 81 203 183 203c39 0 97 -6 151 -6c23 0 46 1 66 3l11 -60c-30 -11 -66 -14 -104 -14c-46 1 -92 7 -124 7c-82 0 -104 -53 -104 -135v-26h341
v-562c0 -160 -82 -204 -184 -204z" />
    <glyph glyph-name="f_f_j" unicode="ffj" horiz-adv-x="945" 
d="M676 -220c-30 0 -52 5 -67 10l14 65c9 -3 37 -7 53 -7c82 0 104 55 104 136v498h-262v-692h-78v692h-263v-692h-80v692h-80v64h80v49c0 147 105 182 208 182c77 0 162 -26 192 -38c27 21 64 38 126 38c38 0 96 -6 150 -6c22 0 47 2 66 3l12 -60c-30 -11 -67 -13 -103 -13
c-47 0 -94 6 -127 6c-82 0 -103 -53 -103 -134v-27h342v-563c-1 -159 -82 -203 -184 -203zM177 546h262v28c0 50 5 79 18 109c-34 10 -109 24 -154 24c-82 0 -126 -31 -126 -112v-49z" />
    <glyph glyph-name="aogonek_j" unicode="&#x105;j" horiz-adv-x="837" 
d="M495 -237c-94 0 -158 39 -158 115c0 53 39 97 91 128c-21 10 -38 33 -40 57c-26 -17 -82 -71 -190 -71c-98 0 -155 54 -155 154c0 133 120 162 209 163l130 3v75c0 87 -43 103 -140 103c-50 0 -112 -18 -135 -25l-17 62c25 10 94 32 175 32c110 0 194 -31 194 -145v-305
c0 -34 19 -50 51 -53l-5 -57c-52 -32 -93 -68 -93 -109c0 -48 46 -60 88 -60c102 0 163 49 163 175v541h80v-542c0 -156 -100 -241 -248 -241zM215 56c69 0 153 52 167 60v141l-131 -5c-93 -4 -131 -47 -131 -98c0 -73 35 -98 95 -98zM703 649l-65 67l65 66l67 -66z" />
    <glyph glyph-name="f_f" unicode="ff" horiz-adv-x="670" 
d="M97 -213v695h-80v64h80v49c0 154 120 182 222 182c72 0 144 -24 177 -37c36 32 89 37 138 37c34 0 110 -14 126 -20l-15 -63s-62 13 -105 13c-83 0 -123 -35 -123 -112v-49h118v-64h-118v-695h-77v695h-264v-695h-79zM176 546h264v50c0 33 3 62 16 86
c-34 12 -99 25 -153 25c-82 0 -127 -31 -127 -112v-49z" />
    <glyph glyph-name="fi" unicode="fi" horiz-adv-x="617" 
d="M97 -213v695h-80v64h80v35c0 159 82 195 185 195c38 0 96 -5 149 -6c24 0 47 2 67 4l12 -61c-30 -10 -68 -13 -104 -13c-47 1 -93 7 -126 7c-81 0 -104 -45 -104 -127v-34h343v-546h-80v482h-264v-695h-78z" />
    <glyph glyph-name="fl" unicode="fl" horiz-adv-x="617" 
d="M97 -214v696h-80v64h80v33c0 147 82 196 185 196c38 0 96 -7 149 -8c24 0 68 4 88 6v-773h-80v700c-53 -3 -105 7 -159 7c-81 0 -104 -51 -104 -123v-38h118v-64h-119v-696h-78z" />
    <glyph glyph-name="f_f_i" unicode="ffi" horiz-adv-x="959" 
d="M97 -213v695h-80v64h80v49c0 147 105 182 208 182c77 0 162 -26 192 -38c27 21 64 38 126 38c38 0 96 -6 150 -6c22 0 47 2 66 3l12 -60c-30 -11 -67 -13 -103 -13c-47 0 -94 6 -127 6c-82 0 -103 -53 -103 -134v-27h342v-546h-79v482h-263v-695h-78v695h-263v-695h-80z
M177 546h262v28c0 50 5 79 18 109c-34 10 -109 24 -154 24c-82 0 -126 -31 -126 -112v-49z" />
    <glyph glyph-name="f_f_l" unicode="ffl" horiz-adv-x="948" 
d="M97 -214v696h-80v64h80v49c0 154 120 182 222 182c63 0 137 -23 177 -38c33 28 77 38 125 38c38 0 97 -9 150 -9c25 0 58 4 78 5v-773h-80v701c-50 -1 -98 6 -148 6c-83 0 -104 -51 -104 -132v-29h116v-64h-116v-696h-79v696h-261v-696h-80zM177 546h261v28
c0 44 6 80 18 108c-37 12 -103 25 -153 25c-82 0 -126 -31 -126 -112v-49z" />
    <glyph glyph-name=".notdef" horiz-adv-x="1000" 
 />
    <glyph glyph-name="space" unicode=" " horiz-adv-x="211" 
 />
    <glyph glyph-name="exclam" unicode="!" horiz-adv-x="282" 
d="M99 172l-4 140v395h78v-395l-3 -140h-71zM89 0v87h90v-87h-90z" />
    <glyph glyph-name="quotedbl" unicode="&#x22;" horiz-adv-x="344" 
d="M54 515l-4 238h73l-6 -238h-63zM225 515l-4 238h74l-7 -238h-63z" />
    <glyph glyph-name="numbersign" unicode="#" horiz-adv-x="594" 
d="M124 0l8 151h-89v67h92l8 129h-100v67h105l7 153h75l-8 -153h168l8 153h75l-8 -153h84v-67h-89l-7 -129h96v-67h-99l-9 -151h-74l8 151h-169l-8 -151h-74zM210 218h169l7 129h-169z" />
    <glyph glyph-name="dollar" unicode="$" horiz-adv-x="530" 
d="M221 -99l2 94c-82 3 -139 23 -171 38l26 64c55 -20 106 -34 168 -34c69 0 135 15 135 85c0 48 -61 71 -107 89c-83 33 -197 68 -197 178c0 79 62 121 146 133l-2 96h71l-2 -93c68 -2 109 -13 150 -30l-21 -60c-51 15 -90 24 -144 24c-67 0 -117 -17 -117 -69
c0 -49 58 -74 104 -93c78 -34 201 -70 201 -170c0 -105 -79 -147 -173 -156l3 -96h-72z" />
    <glyph glyph-name="percent" unicode="%" horiz-adv-x="775" 
d="M193 387c-83 0 -151 45 -151 158c0 109 72 169 154 169c84 0 154 -39 154 -162c0 -105 -71 -165 -157 -165zM193 445c54 0 89 40 89 107c0 64 -27 106 -86 106c-46 0 -85 -35 -85 -113c0 -65 26 -100 82 -100zM576 -9c-83 0 -151 45 -151 158c0 110 72 169 154 169
c84 0 154 -38 154 -161c0 -106 -71 -166 -157 -166zM576 50c54 0 89 39 89 107c0 64 -27 105 -86 105c-47 0 -85 -35 -85 -113c0 -65 26 -99 82 -99zM132 58l-43 46l534 532l43 -45z" />
    <glyph glyph-name="ampersand" unicode="&#x26;" horiz-adv-x="684" 
d="M255 -8c-87 0 -192 33 -192 171c0 103 54 154 130 213c-21 54 -35 115 -35 173c0 81 46 160 160 160c103 0 144 -65 144 -136c0 -106 -108 -155 -189 -211c80 -174 255 -292 426 -302c-1 -9 -5 -55 -7 -64c-86 1 -170 27 -245 71c-53 -44 -95 -75 -192 -75zM265 58
c50 0 87 20 125 47c-76 56 -131 124 -172 209c-49 -42 -80 -83 -80 -145c0 -88 67 -111 127 -111zM249 420c50 35 144 84 144 148c0 49 -32 80 -78 80c-58 0 -87 -39 -87 -90c0 -45 8 -93 21 -138z" />
    <glyph glyph-name="quotesingle" unicode="'" horiz-adv-x="175" 
d="M54 515l-4 238h76l-7 -238h-65z" />
    <glyph glyph-name="parenleft" unicode="(" horiz-adv-x="346" 
d="M274 -222c0 0 -218 162 -218 507c0 346 218 484 218 484l48 -53s-186 -131 -186 -430c0 -301 186 -455 186 -455z" />
    <glyph glyph-name="parenright" unicode=")" horiz-adv-x="346" 
d="M72 -222l-48 53s187 154 187 455c0 299 -187 430 -187 430l48 53s218 -138 218 -484c0 -345 -218 -507 -218 -507z" />
    <glyph glyph-name="asterisk" unicode="*" horiz-adv-x="422" 
d="M76 466l-34 60l100 44l22 -39zM142 598l-100 45l35 60l89 -64zM177 408l12 108h47l11 -108h-70zM190 653l-12 109h70l-11 -109h-47zM349 465l-89 64l24 41l100 -43zM283 600l-23 38l89 65l35 -60z" />
    <glyph glyph-name="plus" unicode="+" 
d="M260 54v216h-215v66l215 -1v222h68l-1 -223l227 2v-66h-226v-216h-68z" />
    <glyph glyph-name="comma" unicode="," horiz-adv-x="313" 
d="M93 -125c10 30 25 72 25 117v91h83v-37c0 -81 -19 -130 -40 -171h-68z" />
    <glyph glyph-name="hyphen" unicode="-" horiz-adv-x="361" 
d="M31 252v69h298v-69h-298z" />
    <glyph glyph-name="hyphen" unicode="&#xad;" horiz-adv-x="361" 
d="M31 252v69h298v-69h-298z" />
    <glyph glyph-name="period" unicode="." horiz-adv-x="313" 
d="M112 0v90h94v-90h-94z" />
    <glyph glyph-name="slash" unicode="/" horiz-adv-x="386" 
d="M40 -62l233 831h73l-232 -831h-74z" />
    <glyph glyph-name="zero" unicode="0" horiz-adv-x="695" 
d="M346 -12c-167 0 -287 90 -287 284c0 191 121 288 291 288c169 0 286 -102 286 -284c0 -197 -125 -288 -290 -288zM347 57c116 0 208 76 208 218c0 133 -88 217 -207 217c-118 0 -207 -70 -207 -220c0 -139 91 -215 206 -215z" />
    <glyph glyph-name="one" unicode="1" horiz-adv-x="353" 
d="M161 0v491h-141v62l222 7v-560h-81z" />
    <glyph glyph-name="two" unicode="2" horiz-adv-x="495" 
d="M39 0v65c81 69 299 223 299 317c0 84 -45 109 -115 109c-56 0 -113 -25 -133 -37l-28 59c24 17 90 47 165 47c146 0 191 -82 191 -174c0 -122 -179 -251 -273 -319h299v-67h-405z" />
    <glyph glyph-name="three" unicode="3" horiz-adv-x="492" 
d="M207 -167c-103 0 -158 19 -181 29l19 65c34 -12 83 -26 152 -26c80 0 161 15 161 123c0 81 -66 133 -156 149c-13 2 -25 3 -38 4v61c12 1 23 2 34 4c71 17 129 74 129 141c0 83 -64 108 -128 108c-62 0 -110 -20 -114 -22l-23 58c31 15 79 32 147 32
c115 0 193 -60 193 -169c0 -95 -75 -158 -131 -174c66 -18 165 -78 165 -186c0 -140 -101 -197 -229 -197z" />
    <glyph glyph-name="four" unicode="4" horiz-adv-x="559" 
d="M335 -161v189h-315v66l267 452h128v-448h121v-70h-121v-189h-80zM99 98h236v401z" />
    <glyph glyph-name="five" unicode="5" horiz-adv-x="523" 
d="M237 -170c-76 0 -147 14 -172 22l19 71c39 -11 95 -20 152 -20c91 0 156 50 156 137c0 113 -69 151 -155 151c-49 0 -102 -5 -147 -10v365h356v-68h-280v-223c31 3 59 5 89 5c132 0 217 -79 217 -209c0 -144 -98 -221 -235 -221z" />
    <glyph glyph-name="six" unicode="6" horiz-adv-x="567" 
d="M292 -12c-149 0 -235 73 -235 315c0 275 125 412 305 412c49 0 81 -7 101 -14l-17 -66c-18 6 -42 10 -85 10c-186 0 -225 -187 -225 -348c0 -154 31 -241 163 -241c88 0 137 72 137 160c0 106 -60 152 -143 152c-28 0 -41 -2 -79 -9l-4 65c27 7 51 12 92 12
c145 0 212 -88 212 -210c0 -156 -92 -238 -222 -238z" />
    <glyph glyph-name="seven" unicode="7" horiz-adv-x="440" 
d="M123 -173l-71 27l300 619h-349v73h428v-68z" />
    <glyph glyph-name="eight" unicode="8" horiz-adv-x="566" 
d="M280 -12c-136 0 -228 66 -228 175c0 105 79 160 163 207c-72 45 -135 97 -135 181c0 104 81 165 211 165c131 0 197 -80 197 -159c0 -88 -67 -140 -143 -186c86 -48 168 -101 168 -197c0 -117 -89 -186 -233 -186zM286 53c90 0 146 40 146 126c0 69 -75 113 -155 158
c-76 -43 -145 -90 -145 -165c0 -74 59 -119 154 -119zM282 402c69 38 127 79 127 144c0 57 -32 108 -119 108s-132 -43 -132 -108c0 -63 56 -105 124 -144z" />
    <glyph glyph-name="nine" unicode="9" horiz-adv-x="572" 
d="M199 -165c-41 0 -73 6 -95 14l17 66c8 -2 45 -10 78 -10c217 0 235 167 235 352c0 118 -43 233 -160 233c-88 0 -137 -66 -137 -153c0 -128 60 -165 142 -165c30 0 56 5 82 11l6 -65c-21 -6 -57 -13 -103 -13c-132 0 -208 78 -208 224c0 151 97 231 225 231
c140 0 235 -109 235 -316c0 -303 -110 -409 -317 -409z" />
    <glyph glyph-name="colon" unicode=":" horiz-adv-x="313" 
d="M109 0v90h94v-90h-94zM109 456v90h94v-90h-94z" />
    <glyph glyph-name="semicolon" unicode=";" horiz-adv-x="313" 
d="M91 -125c13 33 26 87 26 132v76h85v-43c0 -78 -20 -126 -42 -165h-69zM110 456v90h94v-90h-94z" />
    <glyph glyph-name="less" unicode="&#x3c;" 
d="M488 64l-404 190v99l404 192v-74l-353 -168l353 -164v-75z" />
    <glyph glyph-name="equal" unicode="=" 
d="M52 166l-1 66h494l1 -66h-494zM52 376l-1 66h494l1 -66h-494z" />
    <glyph glyph-name="greater" unicode="&#x3e;" 
d="M84 64v75l352 164l-352 168v74l404 -192v-99z" />
    <glyph glyph-name="question" unicode="?" horiz-adv-x="390" 
d="M121 164c-8 23 -12 47 -12 71c0 134 152 183 152 268c0 87 -87 129 -180 138l16 68c120 -9 245 -64 245 -201c0 -123 -160 -181 -160 -274c0 -17 3 -45 6 -59zM115 0v87h90v-87h-90z" />
    <glyph glyph-name="at" unicode="@" horiz-adv-x="781" 
d="M360 -71c-207 0 -309 124 -309 335c0 324 188 453 410 453c158 0 266 -84 266 -286c0 -201 -117 -282 -221 -282c-50 0 -78 25 -76 66c-25 -30 -80 -60 -113 -60c-57 0 -96 28 -96 126c0 133 77 220 195 220c35 0 77 -8 107 -22l-27 -223c-2 -27 1 -46 19 -46
c58 0 140 42 140 220c0 169 -83 223 -198 223c-171 0 -332 -95 -332 -379c0 -203 93 -276 245 -276c50 0 106 8 151 17l12 -60c-58 -22 -105 -26 -173 -26zM331 218c41 0 82 36 99 54l20 168c-10 3 -20 5 -35 5c-85 0 -124 -68 -124 -158c0 -55 12 -69 40 -69z" />
    <glyph glyph-name="A" unicode="A" horiz-adv-x="671" 
d="M13 0l282 707h111l255 -707h-88l-93 264h-280l-104 -264h-83zM226 330h231l-110 319z" />
    <glyph glyph-name="B" unicode="B" horiz-adv-x="648" 
d="M111 0v707h194c160 0 229 -71 229 -174c0 -123 -96 -154 -97 -155v-3c3 0 148 -23 148 -174c0 -117 -68 -201 -250 -201h-224zM194 68h124c98 0 183 22 183 130c0 114 -82 132 -214 132h-93v-262zM194 396h107c109 0 149 38 149 122c0 96 -60 125 -166 125h-90v-247z" />
    <glyph glyph-name="C" unicode="C" horiz-adv-x="649" 
d="M422 -12c-233 0 -366 150 -366 361c0 223 131 368 362 368c128 0 189 -29 205 -36l-23 -66c-29 9 -81 30 -180 30c-147 0 -278 -80 -278 -286c0 -211 136 -300 298 -300c66 0 128 14 166 26l20 -66c-27 -11 -86 -31 -204 -31z" />
    <glyph glyph-name="D" unicode="D" horiz-adv-x="750" 
d="M111 0v707h190c228 0 392 -121 392 -351c0 -248 -150 -356 -386 -356h-196zM192 68h126c184 0 294 93 294 277c0 200 -125 294 -314 294h-106v-571z" />
    <glyph glyph-name="E" unicode="E" horiz-adv-x="580" 
d="M111 0v707h396v-67h-314v-251h292v-68h-292v-253h337v-68h-419z" />
    <glyph glyph-name="F" unicode="F" horiz-adv-x="559" 
d="M111 0v707h416v-67h-334v-271h312v-68h-312v-301h-82z" />
    <glyph glyph-name="G" unicode="G" horiz-adv-x="706" 
d="M422 -12c-233 0 -366 152 -366 361c0 223 131 368 362 368c125 0 176 -24 205 -36l-24 -67c-36 12 -79 31 -179 31c-147 0 -278 -80 -278 -286c0 -211 136 -300 298 -300c52 0 87 8 113 14v275h83v-328c-61 -18 -119 -32 -214 -32z" />
    <glyph glyph-name="H" unicode="H" horiz-adv-x="775" 
d="M111 0v707h82v-318h388v318h82v-707h-82v321h-388v-321h-82z" />
    <glyph glyph-name="I" unicode="I" horiz-adv-x="305" 
d="M111 0v707h82v-707h-82z" />
    <glyph glyph-name="J" unicode="J" horiz-adv-x="305" 
d="M1 -187l-35 60c121 67 145 148 145 278v556h83v-554c0 -152 -27 -266 -193 -340z" />
    <glyph glyph-name="K" unicode="K" horiz-adv-x="626" 
d="M515 0l-294 368v18l278 321h105l-294 -327l313 -380h-108zM111 0v707h82v-707h-82z" />
    <glyph glyph-name="L" unicode="L" horiz-adv-x="504" 
d="M111 0v707h82v-636h307v-71h-389z" />
    <glyph glyph-name="M" unicode="M" horiz-adv-x="952" 
d="M111 0v707h120l234 -658l260 658h116v-707h-82v506l3 109l-241 -615h-118l-216 616l6 -112v-504h-82z" />
    <glyph glyph-name="N" unicode="N" horiz-adv-x="782" 
d="M111 0v707h118l361 -637l-3 88v549h84v-707h-129l-353 628l4 -73v-555h-82z" />
    <glyph glyph-name="O" unicode="O" horiz-adv-x="821" 
d="M402 -12c-220 0 -346 151 -346 367c0 221 148 362 365 362c228 0 343 -158 343 -364c0 -216 -135 -365 -362 -365zM405 56c188 0 277 130 277 298s-96 295 -270 295c-182 0 -274 -127 -274 -293c0 -161 89 -300 267 -300z" />
    <glyph glyph-name="P" unicode="P" horiz-adv-x="590" 
d="M111 0v707h231c141 0 229 -78 229 -221c0 -126 -87 -231 -281 -231h-30v69h36c111 0 188 45 188 157c0 108 -53 159 -164 159h-126v-640h-83z" />
    <glyph glyph-name="Q" unicode="Q" horiz-adv-x="844" 
d="M785 -160c-59 0 -142 -5 -228 27c-61 20 -105 36 -161 36v64c77 0 123 -18 162 -30c91 -33 137 -29 227 -29v-68zM402 -12c-220 0 -346 151 -346 367c0 221 148 362 365 362c228 0 343 -158 343 -364c0 -216 -135 -365 -362 -365zM405 56c188 0 277 130 277 298
s-96 295 -270 295c-182 0 -274 -127 -274 -293c0 -161 89 -300 267 -300z" />
    <glyph glyph-name="R" unicode="R" horiz-adv-x="702" 
d="M669 -11c-39 3 -121 22 -182 108l-131 189c-17 -3 -45 -5 -66 -5h-96v-281h-83v707h231c135 0 229 -64 229 -207c0 -83 -39 -158 -133 -194l110 -157c48 -66 102 -85 139 -95zM194 350h102c110 0 188 33 188 144c0 108 -56 146 -164 146h-126v-290z" />
    <glyph glyph-name="S" unicode="S" horiz-adv-x="554" 
d="M250 -12c-103 0 -157 22 -197 43l28 66c52 -23 100 -37 167 -37c79 0 170 27 170 118c0 177 -346 136 -346 367c0 115 96 171 209 171c81 0 130 -16 172 -34l-23 -61c-42 15 -82 27 -147 27c-76 0 -133 -30 -133 -100c0 -158 349 -138 349 -364
c0 -135 -112 -196 -249 -196z" />
    <glyph glyph-name="T" unicode="T" horiz-adv-x="569" 
d="M243 0v637h-241v70h565v-70h-241v-637h-83z" />
    <glyph glyph-name="U" unicode="U" horiz-adv-x="770" 
d="M387 -12c-138 0 -285 53 -285 258v461h85v-454c0 -155 99 -194 200 -194c109 0 201 49 201 217v431h80v-434c0 -227 -155 -285 -281 -285z" />
    <glyph glyph-name="V" unicode="V" horiz-adv-x="650" 
d="M256 0l-255 707h89l225 -642l252 642h83l-280 -707h-114z" />
    <glyph glyph-name="W" unicode="W" horiz-adv-x="1011" 
d="M207 0l-196 707h84l177 -657l193 483l-59 174h83l221 -656l211 656h79l-232 -707h-119l-149 437l-173 -437h-120z" />
    <glyph glyph-name="X" unicode="X" horiz-adv-x="607" 
d="M6 0l249 374l-206 333h94l161 -267l172 267h89l-218 -331l234 -376h-96l-186 310l-199 -310h-94z" />
    <glyph glyph-name="Y" unicode="Y" horiz-adv-x="568" 
d="M236 0v268l-231 439h92l183 -366l195 366h89l-246 -439v-268h-82z" />
    <glyph glyph-name="Z" unicode="Z" horiz-adv-x="546" 
d="M30 0v71l373 565h-347v71h440v-65l-377 -571h398v-71h-487z" />
    <glyph glyph-name="bracketleft" unicode="[" horiz-adv-x="350" 
d="M108 -220v974h179v-67h-100v-840h100v-67h-179z" />
    <glyph glyph-name="backslash" unicode="\" horiz-adv-x="386" 
d="M272 -62l-232 831h73l233 -831h-74z" />
    <glyph glyph-name="bracketright" unicode="]" horiz-adv-x="350" 
d="M69 -220v67h100v840h-100v67h179v-974h-179z" />
    <glyph glyph-name="asciicircum" unicode="^" horiz-adv-x="521" 
d="M52 294l162 413h106l149 -413h-85l-118 357l-133 -357h-81z" />
    <glyph glyph-name="underscore" unicode="_" horiz-adv-x="503" 
d="M0 -165v69h503v-69h-503z" />
    <glyph glyph-name="grave" unicode="`" horiz-adv-x="568" 
d="M367 619l-193 120l36 60l189 -129z" />
    <glyph glyph-name="a" unicode="a" horiz-adv-x="570" 
d="M198 -8c-98 0 -155 54 -155 155c0 133 120 162 209 164l130 2v73c0 87 -43 104 -140 104c-50 0 -112 -18 -135 -25l-17 62c24 10 94 32 175 32c121 0 194 -39 194 -147v-303c0 -41 27 -50 51 -53l-5 -62h-14c-45 0 -97 20 -103 69c-26 -17 -82 -71 -190 -71zM218 56
c69 0 150 52 164 60v142l-131 -5c-85 -3 -132 -44 -132 -99c0 -73 39 -98 99 -98z" />
    <glyph glyph-name="b" unicode="b" horiz-adv-x="596" 
d="M283 -9c-119 0 -165 20 -190 27v736h79v-684c25 -6 55 -13 114 -13c119 0 179 101 179 223c0 112 -25 213 -156 213c-24 0 -49 -5 -66 -10l-9 59c18 8 53 14 89 14c142 0 222 -93 222 -260c0 -228 -125 -305 -262 -305z" />
    <glyph glyph-name="c" unicode="c" horiz-adv-x="498" 
d="M333 -9c-194 0 -278 83 -278 282c0 177 100 287 256 287c74 0 121 -16 149 -31l-24 -62c-29 12 -66 27 -127 27c-104 0 -173 -79 -173 -218c0 -148 47 -217 205 -217c44 0 84 11 105 14l13 -64c-20 -6 -70 -18 -126 -18z" />
    <glyph glyph-name="d" unicode="d" horiz-adv-x="595" 
d="M284 -10c-98 0 -229 39 -229 281c0 191 118 289 259 289c51 0 70 -3 109 -14v208h78v-754h-78v52c-31 -29 -80 -62 -139 -62zM290 57c54 0 110 44 133 61v360c-26 8 -55 17 -109 17c-130 0 -179 -112 -179 -227c0 -147 64 -211 155 -211z" />
    <glyph glyph-name="e" unicode="e" horiz-adv-x="543" 
d="M313 -12c-158 0 -258 66 -258 275c0 221 107 297 244 297c135 0 197 -92 197 -273v-29h-361c3 -174 89 -202 202 -202c40 0 111 16 135 23l14 -65c-18 -7 -84 -26 -173 -26zM136 317h277c0 110 -40 184 -126 184c-82 0 -141 -62 -151 -184z" />
    <glyph glyph-name="f" unicode="f" horiz-adv-x="339" 
d="M97 -214v696h-80v64h80v48c0 133 79 182 177 182c38 0 62 -4 84 -11l-14 -65c-15 3 -30 7 -69 7c-68 0 -99 -32 -99 -114v-47h117v-64h-117v-696h-79z" />
    <glyph glyph-name="g" unicode="g" horiz-adv-x="597" 
d="M278 -228c-81 0 -155 14 -178 20l15 69c23 -5 102 -19 145 -19c93 0 163 17 163 140v57c-32 -29 -71 -47 -125 -47c-114 0 -241 35 -241 279c0 195 117 289 260 289c69 0 127 -10 184 -21v-573c0 -133 -94 -194 -223 -194zM304 57c55 0 96 31 118 49v376
c-27 5 -55 11 -106 11c-133 0 -181 -101 -181 -225c0 -152 58 -211 169 -211z" />
    <glyph glyph-name="h" unicode="h" horiz-adv-x="618" 
d="M93 0v754h79v-270c38 27 106 76 190 76c161 0 168 -114 168 -208v-352h-75v337c0 95 -13 153 -113 153c-63 0 -146 -53 -170 -67v-423h-79z" />
    <glyph glyph-name="i" unicode="i" horiz-adv-x="267" 
d="M93 0v546h80v-546h-80zM132 649l-65 67l65 66l67 -66z" />
    <glyph glyph-name="j" unicode="j" horiz-adv-x="267" 
d="M-11 -223c-30 0 -56 6 -71 11l14 64c9 -2 40 -7 57 -7c82 0 104 54 104 137v564h80v-565c0 -160 -82 -204 -184 -204zM132 649l-65 67l65 66l67 -66z" />
    <glyph glyph-name="k" unicode="k" horiz-adv-x="551" 
d="M512 -8c-37 2 -94 13 -164 101l-154 195l230 258h91l-232 -255l112 -138c50 -61 100 -93 133 -102zM93 0v754h79v-754h-79z" />
    <glyph glyph-name="l" unicode="l" horiz-adv-x="267" 
d="M93 0v754h79v-754h-79z" />
    <glyph glyph-name="m" unicode="m" horiz-adv-x="951" 
d="M93 0v546h79v-64c44 35 109 77 176 77c87 0 130 -36 151 -81c43 34 110 81 196 81c160 0 170 -113 170 -207v-352h-79v337c0 85 -12 152 -111 152c-60 0 -117 -33 -163 -66c3 -23 6 -48 6 -71v-352h-78v337c0 85 -10 153 -110 153c-51 0 -114 -39 -158 -71v-419h-79z" />
    <glyph glyph-name="n" unicode="n" horiz-adv-x="619" 
d="M93 0v546h79v-62c50 35 110 76 190 76c161 0 170 -114 170 -208v-352h-77v337c0 94 -13 153 -113 153c-63 0 -127 -41 -170 -67v-423h-79z" />
    <glyph glyph-name="o" unicode="o" horiz-adv-x="604" 
d="M299 -12c-151 0 -244 100 -244 279c0 189 105 293 251 293c162 0 242 -104 242 -287c0 -192 -106 -285 -249 -285zM305 53c131 0 163 111 163 220c0 101 -31 222 -165 222c-132 0 -167 -120 -167 -223c0 -114 40 -219 169 -219z" />
    <glyph glyph-name="p" unicode="p" horiz-adv-x="601" 
d="M93 -220v766h79v-45c36 26 93 57 151 57c142 0 222 -99 222 -269c0 -228 -125 -300 -262 -300c-47 0 -84 5 -111 9v-218h-79zM286 55c119 0 179 93 179 214c0 115 -28 221 -158 221c-54 0 -118 -40 -135 -52v-372c24 -3 50 -11 114 -11z" />
    <glyph glyph-name="q" unicode="q" horiz-adv-x="597" 
d="M423 -220v242c-37 -20 -80 -32 -134 -32c-106 0 -234 45 -234 286c0 184 118 284 259 284c81 0 139 -14 187 -28v-752h-78zM294 57c56 0 104 18 129 32v390c-24 6 -57 15 -109 15c-133 0 -180 -106 -180 -221c0 -154 64 -216 160 -216z" />
    <glyph glyph-name="r" unicode="r" horiz-adv-x="390" 
d="M93 0v546h79v-73c24 41 79 85 156 85c32 0 54 -6 64 -9l-14 -67c-17 4 -32 7 -64 7c-66 0 -116 -47 -142 -87v-402h-79z" />
    <glyph glyph-name="s" unicode="s" horiz-adv-x="465" 
d="M212 -11c-73 0 -128 13 -160 23l14 65c35 -8 90 -23 139 -23c85 0 137 33 137 85c0 126 -275 84 -275 271c0 98 80 150 187 150c59 0 112 -17 132 -23l-14 -63c-25 7 -66 20 -126 20c-69 0 -102 -36 -102 -79c0 -126 273 -91 273 -269c0 -125 -115 -157 -205 -157z" />
    <glyph glyph-name="t" unicode="t" horiz-adv-x="416" 
d="M298 -11c-102 0 -185 3 -185 163v327h-80v67h80v112h77v-112h171v-67h-170v-326c0 -80 22 -95 104 -95c31 0 74 11 86 15l14 -66c-18 -6 -63 -18 -97 -18z" />
    <glyph glyph-name="u" unicode="u" horiz-adv-x="616" 
d="M253 -12c-153 0 -164 116 -164 210v348h79v-332c0 -86 6 -154 105 -154c69 0 150 53 175 68v418h76v-546h-76v64c-43 -27 -107 -76 -195 -76z" />
    <glyph glyph-name="v" unicode="v" horiz-adv-x="522" 
d="M196 0l-179 546h87l114 -375l35 -116l39 118l130 373h81l-196 -546h-111z" />
    <glyph glyph-name="w" unicode="w" horiz-adv-x="877" 
d="M187 0l-170 546h83l141 -489l148 489h102l130 -489l159 489h80l-188 -546h-107l-109 399l-18 75l-19 -74l-126 -400h-106z" />
    <glyph glyph-name="x" unicode="x" horiz-adv-x="507" 
d="M18 0l190 279l-179 267h92l132 -211l133 211h88l-176 -265l190 -281h-95l-140 224l-142 -224h-93z" />
    <glyph glyph-name="y" unicode="y" horiz-adv-x="517" 
d="M156 -220l75 220h-37l-177 546h86l119 -390l30 -98l32 96l135 392h81l-267 -766h-77z" />
    <glyph glyph-name="z" unicode="z" horiz-adv-x="496" 
d="M40 0v68l322 409h-296v69h387v-64l-326 -413h330v-69h-417z" />
    <glyph glyph-name="braceleft" unicode="{" horiz-adv-x="346" 
d="M298 -220c-106 0 -203 24 -187 166l21 198c5 41 -30 93 -82 93v72c51 0 87 49 82 93l-21 206c-14 130 78 165 187 165h22v-67h-25c-78 0 -114 -30 -106 -103l20 -182c10 -84 -26 -131 -83 -145v-2c55 -20 93 -62 83 -145l-20 -183c-7 -68 31 -99 106 -99h25v-67h-22z" />
    <glyph glyph-name="bar" unicode="|" horiz-adv-x="264" 
d="M92 -220v974h79v-974h-79z" />
    <glyph glyph-name="braceright" unicode="}" horiz-adv-x="346" 
d="M34 -220v67h25c75 0 114 31 106 99l-20 183c-9 83 28 124 84 145v2c-58 14 -93 61 -84 145l20 182c8 73 -28 102 -106 102h-25v68h22c109 0 202 -35 188 -165l-22 -206c-4 -44 31 -93 82 -93v-72c-52 0 -86 -52 -82 -93l22 -198c15 -142 -82 -166 -188 -166h-22z" />
    <glyph glyph-name="asciitilde" unicode="~" horiz-adv-x="525" 
d="M370 283c-100 0 -141 60 -217 60c-42 0 -69 -16 -89 -29l-37 55c29 26 77 54 132 54c101 0 127 -61 211 -61c33 0 58 10 88 33l41 -50c-34 -37 -78 -62 -129 -62z" />
    <glyph glyph-name="uni00A0" unicode="&#xa0;" horiz-adv-x="211" 
 />
    <glyph glyph-name="exclamdown" unicode="&#xa1;" horiz-adv-x="282" 
d="M95 -162v395l3 140h71l3 -140v-395h-77zM89 458v87h90v-87h-90z" />
    <glyph glyph-name="cent" unicode="&#xa2;" horiz-adv-x="502" 
d="M260 -45l3 78c-158 17 -205 103 -205 245c0 125 70 219 205 233l-3 82h82l-2 -80c38 -2 84 -17 104 -31l-23 -55c-31 12 -68 22 -120 22c-95 0 -162 -50 -162 -174s42 -179 192 -179c37 0 70 6 106 12l11 -61c-38 -10 -71 -15 -108 -17l3 -75h-83z" />
    <glyph glyph-name="sterling" unicode="&#xa3;" horiz-adv-x="472" 
d="M62 0v67c55 24 80 90 80 137h-95v67h97c1 37 -1 60 -1 88c0 168 113 191 253 195l6 -67c-108 -10 -185 -20 -180 -133c2 -33 2 -41 1 -83h178v-67h-183c-1 -61 -30 -108 -67 -137h287v-67h-376z" />
    <glyph glyph-name="currency" unicode="&#xa4;" horiz-adv-x="500" 
d="M76 139l-39 40l70 67c-21 25 -36 65 -36 106s13 81 35 106l-69 68l39 38l70 -70c28 17 67 32 104 32s74 -9 105 -30l68 69l40 -40l-68 -67c23 -25 35 -65 35 -106s-13 -82 -36 -107l67 -68l-37 -39l-70 69c-29 -16 -67 -28 -104 -28s-74 11 -102 30zM250 242
c77 0 111 49 111 110s-36 111 -111 111c-74 0 -111 -50 -111 -111s39 -110 111 -110z" />
    <glyph glyph-name="yen" unicode="&#xa5;" horiz-adv-x="591" 
d="M547 546l-127 -226h129v-68h-168l-52 -95v-10h220v-67h-221v-80h-78v80h-208v67h208v10l-49 95h-159v68h122l-120 226h88l160 -317l170 317h85z" />
    <glyph glyph-name="brokenbar" unicode="&#xa6;" horiz-adv-x="264" 
d="M92 -220v362h80v-362h-80zM92 392v361h80v-361h-80z" />
    <glyph glyph-name="section" unicode="&#xa7;" horiz-adv-x="495" 
d="M126 -216c-43 0 -80 13 -114 39l28 66s51 -37 88 -37c41 0 52 53 52 84c0 39 -7 80 -15 121l-65 351c-6 32 -10 67 -10 100c0 164 99 253 249 253c58 0 106 -15 145 -43c0 0 -31 -62 -33 -64c-22 14 -72 39 -118 39c-40 0 -49 -38 -49 -70c0 -25 2 -51 7 -74l72 -364
c9 -49 17 -107 17 -152c0 -140 -103 -249 -254 -249zM230 -134c48 36 77 89 77 155c0 35 -5 69 -11 103l-72 382c-6 31 -10 64 -10 97c0 24 2 52 13 77c-51 -32 -64 -97 -64 -149c0 -31 4 -64 9 -91l71 -382c5 -28 10 -72 10 -102c0 -42 -10 -61 -23 -90z" />
    <glyph glyph-name="dieresis" unicode="&#xa8;" horiz-adv-x="408" 
d="M98 659l-56 57l56 56l56 -56zM311 659l-56 57l56 56l56 -56z" />
    <glyph glyph-name="copyright" unicode="&#xa9;" horiz-adv-x="828" 
d="M439 73c-138 0 -210 88 -210 205c0 126 71 210 208 210c52 0 88 -9 120 -28l-20 -47c-35 14 -56 20 -99 20c-79 0 -148 -44 -148 -150s72 -154 160 -154c33 0 60 6 93 17l18 -49c-41 -17 -76 -24 -122 -24zM406 -91c-219 0 -345 150 -345 366c0 224 148 362 364 362
c227 0 343 -157 343 -364c0 -218 -136 -364 -362 -364zM409 -37c201 0 296 136 296 311c0 176 -104 309 -289 309c-194 0 -292 -133 -292 -307c0 -167 94 -313 285 -313z" />
    <glyph glyph-name="ordfeminine" unicode="&#xaa;" horiz-adv-x="418" 
d="M163 386c-59 0 -93 32 -93 92c0 78 69 94 123 94l70 2v38c0 45 -21 52 -74 52c-28 0 -54 -9 -82 -15l-12 45c19 8 60 21 107 21c64 0 117 -16 117 -89v-167c0 -20 14 -24 30 -24l-3 -47c-30 -2 -74 5 -80 38c-21 -17 -62 -40 -103 -40zM174 435c28 0 79 30 89 35v61
l-68 -3c-46 -2 -69 -18 -69 -46c0 -35 19 -47 48 -47zM60 300v52h298v-52h-298z" />
    <glyph glyph-name="guillemotleft" unicode="&#xab;" horiz-adv-x="439" 
d="M149 52l-107 220l106 220l63 -22l-87 -198l86 -195zM330 52l-106 220l107 220l62 -22l-87 -198l86 -195z" />
    <glyph glyph-name="logicalnot" unicode="&#xac;" 
d="M448 112v158h-403v67h475v-225h-72z" />
    <glyph glyph-name="registered" unicode="&#xae;" horiz-adv-x="828" 
d="M597 257c-28 2 -66 12 -107 62c-8 7 -76 97 -76 98c-9 -1 -20 -2 -30 -2h-47v-151h-59v408h135c81 0 135 -39 135 -126c0 -51 -24 -93 -75 -115c37 -43 79 -109 136 -127zM406 89c-219 0 -345 150 -345 366c0 224 148 362 363 362c228 0 344 -157 344 -364
c0 -218 -137 -364 -362 -364zM409 143c201 0 296 136 296 311c0 176 -104 309 -289 309c-194 0 -292 -133 -292 -307c0 -167 94 -313 285 -313zM337 466h51c60 0 98 19 98 76s-25 81 -85 81h-64v-157z" />
    <glyph glyph-name="macron" unicode="&#xaf;" horiz-adv-x="540" 
d="M118 669v65h299v-65h-299z" />
    <glyph glyph-name="macron" unicode="&#x2c9;" horiz-adv-x="540" 
d="M118 669v65h299v-65h-299z" />
    <glyph glyph-name="degree" unicode="&#xb0;" horiz-adv-x="325" 
d="M159 404c-99 0 -154 54 -154 158c0 92 67 155 158 155c96 0 157 -57 157 -155s-66 -158 -161 -158zM162 458c58 0 91 37 91 104c0 62 -34 101 -91 101s-91 -38 -91 -101c0 -70 38 -104 91 -104z" />
    <glyph glyph-name="plusminus" unicode="&#xb1;" 
d="M264 123v183h-183v67l183 -1v184h71l-1 -184l184 1v-67h-183v-183h-71zM81 0v68h437v-68h-437z" />
    <glyph glyph-name="twosuperior" unicode="&#xb2;" horiz-adv-x="307" 
d="M16 415v51c102 75 193 133 193 204c0 40 -29 59 -63 59c-33 0 -68 -13 -89 -34c-3 6 -26 36 -28 42c29 30 76 49 123 49c68 0 123 -39 123 -110c0 -95 -98 -156 -176 -205h181v-56h-264z" />
    <glyph glyph-name="threesuperior" unicode="&#xb3;" horiz-adv-x="301" 
d="M134 410c-54 0 -87 10 -107 16c1 6 12 45 13 51c25 -7 57 -13 88 -13c47 0 84 15 84 55c0 51 -41 63 -109 68v39c58 5 92 23 92 64c-1 30 -28 45 -61 45c-29 0 -52 -8 -71 -17c-1 6 -15 37 -17 43c28 15 67 26 98 26c65 0 116 -34 116 -89c0 -36 -22 -70 -61 -86
c52 -11 80 -49 80 -92c0 -82 -72 -110 -145 -110z" />
    <glyph glyph-name="acute" unicode="&#xb4;" horiz-adv-x="568" 
d="M209 619l-30 51l188 129l37 -60z" />
    <glyph glyph-name="mu" unicode="&#xb5;" horiz-adv-x="638" 
d="M93 -220v766h79v-336c0 -83 6 -150 105 -150c69 0 150 53 175 68v418h76v-437c0 -41 28 -50 51 -53l-5 -62c-7 0 -15 0 -23 1c-42 4 -86 22 -96 71c-43 -33 -110 -78 -198 -78c-38 0 -66 10 -85 26v-234h-79z" />
    <glyph glyph-name="paragraph" unicode="&#xb6;" horiz-adv-x="594" 
d="M315 -220c-35 0 -56 6 -72 12l15 68c10 -1 35 -6 58 -6c82 0 103 49 103 131v722h80v-723c0 -160 -81 -204 -184 -204zM249 269c-138 0 -221 70 -221 222c0 150 83 216 224 216h76v-438h-79z" />
    <glyph glyph-name="periodcentered" unicode="&#xb7;" horiz-adv-x="217" 
d="M107 289l-66 68l66 66l68 -66z" />
    <glyph glyph-name="cedilla" unicode="&#xb8;" horiz-adv-x="453" 
d="M196 -240l-26 45c42 26 59 51 59 77c0 21 -11 43 -24 67h77c11 -20 20 -44 20 -67c1 -44 -28 -89 -106 -122z" />
    <glyph glyph-name="onesuperior" unicode="&#xb9;" horiz-adv-x="253" 
d="M115 415v312h-89v53c13 0 142 4 156 4v-369h-67z" />
    <glyph glyph-name="ordmasculine" unicode="&#xba;" horiz-adv-x="418" 
d="M206 384c-93 0 -145 60 -145 163c0 108 61 170 149 170c101 0 148 -60 148 -167c0 -110 -65 -166 -152 -166zM210 435c69 0 85 55 85 115c0 56 -16 116 -86 116c-69 0 -86 -59 -86 -117c0 -62 19 -114 87 -114zM60 300v52h298v-52h-298z" />
    <glyph glyph-name="guillemotright" unicode="&#xbb;" horiz-adv-x="439" 
d="M104 52l-62 25l86 195l-87 198l63 22l107 -220zM286 52l-62 25l86 195l-87 198l63 22l106 -220z" />
    <glyph glyph-name="onequarter" unicode="&#xbc;" horiz-adv-x="737" 
d="M119 415v312h-89v53c13 0 142 4 156 4v-369h-67zM87 76l-39 40l527 535l37 -38zM581 0v88h-169v57l132 221h101v-226h62v-52h-62v-88h-64zM465 140h116v189z" />
    <glyph glyph-name="onehalf" unicode="&#xbd;" horiz-adv-x="723" 
d="M429 0v51c102 75 193 133 193 204c0 40 -29 59 -63 59c-33 0 -68 -13 -89 -34l-28 42c29 30 76 49 123 49c68 0 123 -39 123 -110c0 -95 -98 -156 -176 -205h181v-56h-264zM119 415v312h-89v53c13 0 142 4 156 4v-369h-67zM78 76l-39 40l527 535l37 -38z" />
    <glyph glyph-name="threequarters" unicode="&#xbe;" horiz-adv-x="736" 
d="M137 410c-54 0 -87 10 -107 16c1 6 12 45 13 51c25 -7 57 -13 88 -13c47 0 84 15 84 55c0 51 -41 63 -109 68v39c58 5 92 23 92 64c-1 30 -28 45 -61 45c-29 0 -52 -8 -71 -17c-1 6 -15 37 -17 43c28 15 67 26 98 26c65 0 116 -34 116 -89c0 -36 -22 -70 -61 -86
c52 -11 80 -49 80 -92c0 -82 -72 -110 -145 -110zM97 76l-39 40l527 535l37 -38zM580 0v88h-169v57l132 221h101v-226h62v-52h-62v-88h-64zM464 140h116v189z" />
    <glyph glyph-name="questiondown" unicode="&#xbf;" horiz-adv-x="390" 
d="M310 -164c-120 9 -245 65 -245 201c0 123 161 181 161 275c0 17 -4 44 -7 58l68 12c7 -24 12 -47 12 -72c0 -134 -153 -183 -153 -267c0 -88 87 -130 180 -139zM203 458v87h89v-87h-89z" />
    <glyph glyph-name="Agrave" unicode="&#xc0;" horiz-adv-x="671" 
d="M13 0l282 707h111l255 -707h-88l-93 264h-280l-104 -264h-83zM226 330h231l-110 319zM406 747l-224 65l22 71l221 -80z" />
    <glyph glyph-name="Aacute" unicode="&#xc1;" horiz-adv-x="671" 
d="M13 0l282 707h111l255 -707h-88l-93 264h-280l-104 -264h-83zM226 330h231l-110 319zM282 747l-18 56l221 80l23 -71z" />
    <glyph glyph-name="Acircumflex" unicode="&#xc2;" horiz-adv-x="671" 
d="M13 0l282 707h111l255 -707h-88l-93 264h-280l-104 -264h-83zM226 330h231l-110 319zM199 743l-28 55l180 78l172 -78l-27 -55l-145 61z" />
    <glyph glyph-name="Atilde" unicode="&#xc3;" horiz-adv-x="671" 
d="M13 0l282 707h111l255 -707h-88l-93 264h-280l-104 -264h-83zM226 330h231l-110 319zM407 754c-47 0 -81 37 -124 37c-31 0 -47 -7 -70 -24l-30 45c10 10 44 45 105 45c53 0 84 -36 123 -36c34 0 57 18 70 27l31 -44c-10 -11 -47 -50 -105 -50z" />
    <glyph glyph-name="Adieresis" unicode="&#xc4;" horiz-adv-x="671" 
d="M13 0l282 707h111l255 -707h-88l-93 264h-280l-104 -264h-83zM226 330h231l-110 319zM240 747l-58 58l58 58l57 -58zM452 747l-57 58l57 58l58 -58z" />
    <glyph glyph-name="Aring" unicode="&#xc5;" horiz-adv-x="671" 
d="M13 0l272 683c-32 15 -55 45 -55 91c0 74 58 111 119 111c52 0 120 -28 120 -109c0 -44 -22 -77 -55 -93l247 -683h-88l-93 264h-280l-104 -264h-83zM226 330h231l-62 176l-48 143zM350 713c40 0 65 24 65 62c0 39 -31 64 -66 64c-40 0 -65 -23 -65 -61
c0 -39 27 -65 66 -65z" />
    <glyph glyph-name="AE" unicode="&#xc6;" horiz-adv-x="918" 
d="M-3 0l376 707h471v-67h-313v-251h291v-68h-291v-253h337v-68h-420v311h-197l-161 -311h-93zM284 378h164v262h-28z" />
    <glyph glyph-name="Ccedilla" unicode="&#xc7;" horiz-adv-x="649" 
d="M422 -12c-233 0 -366 150 -366 361c0 223 131 368 362 368c128 0 189 -29 205 -36l-23 -66c-29 9 -81 30 -180 30c-147 0 -278 -80 -278 -286c0 -211 136 -300 298 -300c66 0 128 14 166 26l20 -66c-27 -11 -86 -31 -204 -31zM362 -240l-26 45c42 26 59 51 59 77
c0 21 -11 43 -24 67h77c11 -20 20 -44 20 -67c1 -44 -28 -89 -106 -122z" />
    <glyph glyph-name="Egrave" unicode="&#xc8;" horiz-adv-x="580" 
d="M111 0v707h396v-67h-314v-251h292v-68h-292v-253h337v-68h-419zM393 747l-224 65l22 71l221 -80z" />
    <glyph glyph-name="Eacute" unicode="&#xc9;" horiz-adv-x="580" 
d="M245 747l-18 56l221 80l23 -71zM111 0v707h396v-67h-314v-251h292v-68h-292v-253h337v-68h-419z" />
    <glyph glyph-name="Ecircumflex" unicode="&#xca;" horiz-adv-x="580" 
d="M162 743l-28 55l180 78l172 -78l-27 -55l-145 61zM111 0v707h396v-67h-314v-251h292v-68h-292v-253h337v-68h-419z" />
    <glyph glyph-name="Edieresis" unicode="&#xcb;" horiz-adv-x="580" 
d="M207 747l-58 58l58 58l57 -58zM419 747l-57 58l57 58l58 -58zM111 0v707h396v-67h-314v-251h292v-68h-292v-253h337v-68h-419z" />
    <glyph glyph-name="Igrave" unicode="&#xcc;" horiz-adv-x="305" 
d="M111 0v707h82v-707h-82zM199 747l-224 65l22 71l221 -80z" />
    <glyph glyph-name="Iacute" unicode="&#xcd;" horiz-adv-x="305" 
d="M111 0v707h82v-707h-82zM107 747l-18 56l221 80l23 -71z" />
    <glyph glyph-name="Icircumflex" unicode="&#xce;" horiz-adv-x="305" 
d="M111 0v707h82v-707h-82zM4 743l-28 55l180 78l172 -78l-27 -55l-145 61z" />
    <glyph glyph-name="Idieresis" unicode="&#xcf;" horiz-adv-x="305" 
d="M111 0v707h82v-707h-82zM46 747l-58 58l58 58l57 -58zM258 747l-57 58l57 58l58 -58z" />
    <glyph glyph-name="Eth" unicode="&#xd0;" horiz-adv-x="757" 
d="M693 356c0 -248 -150 -356 -386 -356h-196v320h-80v63h80v324h190c228 0 392 -121 392 -351zM612 345c0 200 -125 294 -314 294h-106v-256h168v-63h-168v-252h126c184 0 294 93 294 277z" />
    <glyph glyph-name="Ntilde" unicode="&#xd1;" horiz-adv-x="782" 
d="M111 0v707h118l361 -637l-3 88v549h84v-707h-129l-353 628l4 -73v-555h-82zM452 754c-47 0 -81 37 -124 37c-31 0 -47 -7 -70 -24l-30 45c10 10 44 45 105 45c53 0 84 -36 123 -36c34 0 57 18 70 27l31 -44c-10 -11 -47 -50 -105 -50z" />
    <glyph glyph-name="Ograve" unicode="&#xd2;" horiz-adv-x="821" 
d="M402 -12c-220 0 -346 151 -346 367c0 221 148 362 365 362c228 0 343 -158 343 -364c0 -216 -135 -365 -362 -365zM405 56c188 0 277 130 277 298s-96 295 -270 295c-182 0 -274 -127 -274 -293c0 -161 89 -300 267 -300zM491 747l-224 65l22 71l221 -80z" />
    <glyph glyph-name="Oacute" unicode="&#xd3;" horiz-adv-x="821" 
d="M321 747l-18 56l221 80l23 -71zM402 -12c-220 0 -346 151 -346 367c0 221 148 362 365 362c228 0 343 -158 343 -364c0 -216 -135 -365 -362 -365zM405 56c188 0 277 130 277 298s-96 295 -270 295c-182 0 -274 -127 -274 -293c0 -161 89 -300 267 -300z" />
    <glyph glyph-name="Ocircumflex" unicode="&#xd4;" horiz-adv-x="821" 
d="M262 743l-28 55l180 78l172 -78l-27 -55l-145 61zM402 -12c-220 0 -346 151 -346 367c0 221 148 362 365 362c228 0 343 -158 343 -364c0 -216 -135 -365 -362 -365zM405 56c188 0 277 130 277 298s-96 295 -270 295c-182 0 -274 -127 -274 -293c0 -161 89 -300 267 -300
z" />
    <glyph glyph-name="Otilde" unicode="&#xd5;" horiz-adv-x="821" 
d="M402 -12c-220 0 -346 151 -346 367c0 221 148 362 365 362c228 0 343 -158 343 -364c0 -216 -135 -365 -362 -365zM405 56c188 0 277 130 277 298s-96 295 -270 295c-182 0 -274 -127 -274 -293c0 -161 89 -300 267 -300zM471 754c-47 0 -81 37 -124 37
c-31 0 -47 -7 -70 -24l-30 45c10 10 44 45 105 45c53 0 84 -36 123 -36c34 0 57 18 70 27l31 -44c-10 -11 -47 -50 -105 -50z" />
    <glyph glyph-name="Odieresis" unicode="&#xd6;" horiz-adv-x="821" 
d="M299 747l-58 58l58 58l57 -58zM511 747l-57 58l57 58l58 -58zM402 -12c-220 0 -346 151 -346 367c0 221 148 362 365 362c228 0 343 -158 343 -364c0 -216 -135 -365 -362 -365zM405 56c188 0 277 130 277 298s-96 295 -270 295c-182 0 -274 -127 -274 -293
c0 -161 89 -300 267 -300z" />
    <glyph glyph-name="multiply" unicode="&#xd7;" horiz-adv-x="593" 
d="M474 81l-180 180l-173 -173l-48 48l173 173l-172 171l47 47l171 -172l176 176l49 -48l-178 -177l181 -179z" />
    <glyph glyph-name="Oslash" unicode="&#xd8;" horiz-adv-x="821" 
d="M72 -30l-38 39l97 100c-49 64 -75 148 -75 246c0 225 148 362 365 362c94 0 170 -28 226 -75l94 97l40 -37c1 -1 -47 -51 -94 -100c52 -64 77 -151 77 -249c0 -218 -135 -365 -362 -365c-97 0 -175 29 -233 81zM405 56c188 0 277 130 277 298c0 72 -19 137 -54 187
l-405 -415c44 -43 105 -70 182 -70zM189 170l402 415c-44 40 -105 64 -179 64c-182 0 -274 -127 -274 -293c0 -70 17 -135 51 -186z" />
    <glyph glyph-name="Ugrave" unicode="&#xd9;" horiz-adv-x="770" 
d="M387 -12c-138 0 -285 53 -285 258v461h85v-454c0 -155 99 -194 200 -194c109 0 201 49 201 217v431h80v-434c0 -227 -155 -285 -281 -285zM452 747l-224 65l22 71l221 -80z" />
    <glyph glyph-name="Uacute" unicode="&#xda;" horiz-adv-x="770" 
d="M322 747l-18 56l221 80l23 -71zM387 -12c-138 0 -285 53 -285 258v461h85v-454c0 -155 99 -194 200 -194c109 0 201 49 201 217v431h80v-434c0 -227 -155 -285 -281 -285z" />
    <glyph glyph-name="Ucircumflex" unicode="&#xdb;" horiz-adv-x="770" 
d="M242 743l-28 55l180 78l172 -78l-27 -55l-145 61zM387 -12c-138 0 -285 53 -285 258v461h85v-454c0 -155 99 -194 200 -194c109 0 201 49 201 217v431h80v-434c0 -227 -155 -285 -281 -285z" />
    <glyph glyph-name="Udieresis" unicode="&#xdc;" horiz-adv-x="770" 
d="M281 747l-58 58l58 58l57 -58zM493 747l-57 58l57 58l58 -58zM387 -12c-138 0 -285 53 -285 258v461h85v-454c0 -155 99 -194 200 -194c109 0 201 49 201 217v431h80v-434c0 -227 -155 -285 -281 -285z" />
    <glyph glyph-name="Yacute" unicode="&#xdd;" horiz-adv-x="568" 
d="M236 0v268l-231 439h92l183 -366l195 366h89l-246 -439v-268h-82zM216 747l-18 56l221 80l23 -71z" />
    <glyph glyph-name="Thorn" unicode="&#xde;" horiz-adv-x="570" 
d="M99 0v707h83v-130h149c140 0 229 -67 229 -216c0 -126 -87 -223 -281 -223h-19v69h25c108 0 187 38 187 149c0 108 -52 154 -163 154h-126v-510h-84z" />
    <glyph glyph-name="germandbls" unicode="&#xdf;" horiz-adv-x="620" 
d="M95 -213v785c0 149 76 202 196 202c66 0 173 -25 173 -151c0 -102 -119 -156 -119 -219c0 -117 225 -113 225 -267c0 -112 -92 -146 -171 -146c-74 0 -135 15 -151 22l14 64c31 -6 79 -18 122 -18c63 0 111 16 111 69c0 114 -227 100 -227 274c0 94 113 133 113 223
c0 59 -42 82 -90 82c-97 0 -117 -55 -117 -136v-784h-79z" />
    <glyph glyph-name="agrave" unicode="&#xe0;" horiz-adv-x="570" 
d="M198 -8c-98 0 -155 54 -155 155c0 133 120 162 209 164l130 2v73c0 87 -43 104 -140 104c-50 0 -112 -18 -135 -25l-17 62c24 10 94 32 175 32c121 0 194 -39 194 -147v-303c0 -41 27 -50 51 -53l-5 -62h-14c-45 0 -97 20 -103 69c-26 -17 -82 -71 -190 -71zM218 56
c69 0 150 52 164 60v142l-131 -5c-85 -3 -132 -44 -132 -99c0 -73 39 -98 99 -98zM334 619l-193 120l36 60l189 -129z" />
    <glyph glyph-name="aacute" unicode="&#xe1;" horiz-adv-x="570" 
d="M198 -8c-98 0 -155 54 -155 155c0 133 120 162 209 164l130 2v73c0 87 -43 104 -140 104c-50 0 -112 -18 -135 -25l-17 62c24 10 94 32 175 32c121 0 194 -39 194 -147v-303c0 -41 27 -50 51 -53l-5 -62h-14c-45 0 -97 20 -103 69c-26 -17 -82 -71 -190 -71zM218 56
c69 0 150 52 164 60v142l-131 -5c-85 -3 -132 -44 -132 -99c0 -73 39 -98 99 -98zM212 619l-30 51l188 129l37 -60z" />
    <glyph glyph-name="acircumflex" unicode="&#xe2;" horiz-adv-x="570" 
d="M198 -8c-98 0 -155 54 -155 155c0 133 120 162 209 164l130 2v73c0 87 -43 104 -140 104c-50 0 -112 -18 -135 -25l-17 62c24 10 94 32 175 32c121 0 194 -39 194 -147v-303c0 -41 27 -50 51 -53l-5 -62h-14c-45 0 -97 20 -103 69c-26 -17 -82 -71 -190 -71zM218 56
c69 0 150 52 164 60v142l-131 -5c-85 -3 -132 -44 -132 -99c0 -73 39 -98 99 -98zM415 627l-148 85l-148 -84l-33 49l181 110l179 -112z" />
    <glyph glyph-name="atilde" unicode="&#xe3;" horiz-adv-x="570" 
d="M198 -8c-98 0 -155 54 -155 155c0 133 120 162 209 164l130 2v73c0 87 -43 104 -140 104c-50 0 -112 -18 -135 -25l-17 62c24 10 94 32 175 32c121 0 194 -39 194 -147v-303c0 -41 27 -50 51 -53l-5 -62h-14c-45 0 -97 20 -103 69c-26 -17 -82 -71 -190 -71zM218 56
c69 0 150 52 164 60v142l-131 -5c-85 -3 -132 -44 -132 -99c0 -73 39 -98 99 -98zM331 645c-47 0 -80 37 -124 37c-31 0 -46 -6 -69 -25l-31 46c11 10 44 45 105 45c53 0 84 -37 123 -37c34 0 58 19 71 28l30 -44c-9 -11 -46 -50 -105 -50z" />
    <glyph glyph-name="adieresis" unicode="&#xe4;" horiz-adv-x="570" 
d="M198 -8c-98 0 -155 54 -155 155c0 133 120 162 209 164l130 2v73c0 87 -43 104 -140 104c-50 0 -112 -18 -135 -25l-17 62c24 10 94 32 175 32c121 0 194 -39 194 -147v-303c0 -41 27 -50 51 -53l-5 -62h-14c-45 0 -97 20 -103 69c-26 -17 -82 -71 -190 -71zM218 56
c69 0 150 52 164 60v142l-131 -5c-85 -3 -132 -44 -132 -99c0 -73 39 -98 99 -98zM163 659l-56 57l56 56l56 -56zM376 659l-56 57l56 56l56 -56z" />
    <glyph glyph-name="aring" unicode="&#xe5;" horiz-adv-x="570" 
d="M198 -8c-98 0 -155 54 -155 155c0 133 120 162 209 164l130 2v73c0 87 -43 104 -140 104c-50 0 -112 -18 -135 -25l-17 62c24 10 94 32 175 32c121 0 194 -39 194 -147v-303c0 -41 27 -50 51 -53l-5 -62h-14c-45 0 -97 20 -103 69c-26 -17 -82 -71 -190 -71zM218 56
c69 0 150 52 164 60v142l-131 -5c-85 -3 -132 -44 -132 -99c0 -73 39 -98 99 -98zM284 606c-61 0 -120 31 -120 106c0 72 58 110 118 110c52 0 119 -28 119 -108c0 -69 -52 -108 -117 -108zM283 650c40 0 65 24 66 63c0 39 -32 64 -67 64c-40 0 -66 -23 -66 -62
s28 -65 67 -65z" />
    <glyph glyph-name="ae" unicode="&#xe6;" horiz-adv-x="865" 
d="M638 -9c-102 0 -177 28 -221 95c-29 -22 -119 -94 -219 -94c-97 0 -154 54 -154 154c0 133 120 161 209 163c0 0 123 3 129 3v75c0 91 -42 104 -139 104c-50 0 -113 -19 -136 -24l-16 60c24 10 94 32 174 32c78 0 146 -14 177 -78c44 55 107 78 182 78
c128 0 193 -90 193 -261v-29l-359 -14c3 -171 87 -196 204 -196c39 0 111 14 134 19l14 -64c-31 -13 -92 -23 -172 -23zM216 57c48 0 146 51 181 73c-10 32 -16 79 -17 124l-126 -4c-98 -2 -135 -45 -135 -96c0 -78 41 -97 97 -97zM461 316l275 13c0 102 -44 171 -124 171
c-74 0 -144 -52 -151 -184z" />
    <glyph glyph-name="ccedilla" unicode="&#xe7;" horiz-adv-x="498" 
d="M333 -9c-194 0 -278 83 -278 282c0 177 100 287 256 287c74 0 121 -16 149 -31l-24 -62c-29 12 -66 27 -127 27c-104 0 -173 -79 -173 -218c0 -148 47 -217 205 -217c44 0 84 11 105 14l13 -64c-20 -6 -70 -18 -126 -18zM255 -240l-26 45c42 26 59 51 59 77
c0 21 -11 43 -24 67h77c11 -20 20 -44 20 -67c1 -44 -28 -89 -106 -122z" />
    <glyph glyph-name="egrave" unicode="&#xe8;" horiz-adv-x="543" 
d="M313 -12c-158 0 -258 66 -258 275c0 221 107 297 244 297c135 0 197 -92 197 -273v-29h-361c3 -174 89 -202 202 -202c40 0 111 16 135 23l14 -65c-18 -7 -84 -26 -173 -26zM136 317h277c0 110 -40 184 -126 184c-82 0 -141 -62 -151 -184zM348 619l-193 120l36 60
l189 -129z" />
    <glyph glyph-name="eacute" unicode="&#xe9;" horiz-adv-x="543" 
d="M226 619l-30 51l188 129l37 -60zM313 -12c-158 0 -258 66 -258 275c0 221 107 297 244 297c135 0 197 -92 197 -273v-29h-361c3 -174 89 -202 202 -202c40 0 111 16 135 23l14 -65c-18 -7 -84 -26 -173 -26zM136 317h277c0 110 -40 184 -126 184
c-82 0 -141 -62 -151 -184z" />
    <glyph glyph-name="ecircumflex" unicode="&#xea;" horiz-adv-x="543" 
d="M430 627l-148 85l-148 -84l-33 49l181 110l179 -112zM313 -12c-158 0 -258 66 -258 275c0 221 107 297 244 297c135 0 197 -92 197 -273v-29h-361c3 -174 89 -202 202 -202c40 0 111 16 135 23l14 -65c-18 -7 -84 -26 -173 -26zM136 317h277c0 110 -40 184 -126 184
c-82 0 -141 -62 -151 -184z" />
    <glyph glyph-name="edieresis" unicode="&#xeb;" horiz-adv-x="543" 
d="M174 659l-56 57l56 56l56 -56zM387 659l-56 57l56 56l56 -56zM313 -12c-158 0 -258 66 -258 275c0 221 107 297 244 297c135 0 197 -92 197 -273v-29h-361c3 -174 89 -202 202 -202c40 0 111 16 135 23l14 -65c-18 -7 -84 -26 -173 -26zM136 317h277
c0 110 -40 184 -126 184c-82 0 -141 -62 -151 -184z" />
    <glyph glyph-name="igrave" unicode="&#xec;" horiz-adv-x="267" 
d="M92 0v546h81v-546h-81zM174 619l-193 120l36 60l189 -129z" />
    <glyph glyph-name="iacute" unicode="&#xed;" horiz-adv-x="267" 
d="M78 619l-30 51l188 129l37 -60zM92 0v546h81v-546h-81z" />
    <glyph glyph-name="icircumflex" unicode="&#xee;" horiz-adv-x="267" 
d="M285 627l-148 85l-148 -84l-33 49l181 110l179 -112zM92 0v546h81v-546h-81z" />
    <glyph glyph-name="idieresis" unicode="&#xef;" horiz-adv-x="267" 
d="M27 659l-56 57l56 56l56 -56zM240 659l-56 57l56 56l56 -56zM92 0v546h81v-546h-81z" />
    <glyph glyph-name="eth" unicode="&#xf0;" horiz-adv-x="604" 
d="M299 -9c-151 0 -244 95 -244 274c0 185 108 281 249 281c48 0 86 -13 119 -35c-26 53 -63 96 -99 127l-94 -65l-32 40l84 58c-31 22 -60 37 -82 47l43 53c25 -11 61 -28 100 -55l95 66l32 -40l-84 -58c83 -73 162 -190 162 -402c0 -174 -83 -291 -249 -291zM305 56
c130 0 163 105 163 213s-36 212 -167 212c-130 0 -165 -108 -165 -211c0 -114 40 -214 169 -214z" />
    <glyph glyph-name="ntilde" unicode="&#xf1;" horiz-adv-x="619" 
d="M93 0v546h79v-62c50 35 110 76 190 76c161 0 170 -114 170 -208v-352h-77v337c0 94 -13 153 -113 153c-63 0 -127 -41 -170 -67v-423h-79zM375 645c-47 0 -80 37 -124 37c-31 0 -46 -6 -69 -25l-31 46c11 10 44 45 105 45c53 0 84 -37 123 -37c34 0 58 19 71 28l30 -44
c-9 -11 -46 -50 -105 -50z" />
    <glyph glyph-name="ograve" unicode="&#xf2;" horiz-adv-x="604" 
d="M299 -12c-151 0 -244 100 -244 279c0 189 105 293 251 293c162 0 242 -104 242 -287c0 -192 -106 -285 -249 -285zM305 53c131 0 163 111 163 220c0 101 -31 222 -165 222c-132 0 -167 -120 -167 -223c0 -114 40 -219 169 -219zM371 619l-193 120l36 60l189 -129z" />
    <glyph glyph-name="oacute" unicode="&#xf3;" horiz-adv-x="604" 
d="M234 619l-30 51l188 129l37 -60zM299 -12c-151 0 -244 100 -244 279c0 189 105 293 251 293c162 0 242 -104 242 -287c0 -192 -106 -285 -249 -285zM305 53c131 0 163 111 163 220c0 101 -31 222 -165 222c-132 0 -167 -120 -167 -223c0 -114 40 -219 169 -219z" />
    <glyph glyph-name="ocircumflex" unicode="&#xf4;" horiz-adv-x="604" 
d="M451 627l-148 85l-148 -84l-33 49l181 110l179 -112zM299 -12c-151 0 -244 100 -244 279c0 189 105 293 251 293c162 0 242 -104 242 -287c0 -192 -106 -285 -249 -285zM305 53c131 0 163 111 163 220c0 101 -31 222 -165 222c-132 0 -167 -120 -167 -223
c0 -114 40 -219 169 -219z" />
    <glyph glyph-name="otilde" unicode="&#xf5;" horiz-adv-x="604" 
d="M299 -12c-151 0 -244 100 -244 279c0 189 105 293 251 293c162 0 242 -104 242 -287c0 -192 -106 -285 -249 -285zM305 53c131 0 163 111 163 220c0 101 -31 222 -165 222c-132 0 -167 -120 -167 -223c0 -114 40 -219 169 -219zM360 645c-47 0 -80 37 -124 37
c-31 0 -46 -6 -69 -25l-31 46c11 10 44 45 105 45c53 0 84 -37 123 -37c34 0 58 19 71 28l30 -44c-9 -11 -46 -50 -105 -50z" />
    <glyph glyph-name="odieresis" unicode="&#xf6;" horiz-adv-x="604" 
d="M195 659l-56 57l56 56l56 -56zM408 659l-56 57l56 56l56 -56zM299 -12c-151 0 -244 100 -244 279c0 189 105 293 251 293c162 0 242 -104 242 -287c0 -192 -106 -285 -249 -285zM305 53c131 0 163 111 163 220c0 101 -31 222 -165 222c-132 0 -167 -120 -167 -223
c0 -114 40 -219 169 -219z" />
    <glyph glyph-name="divide" unicode="&#xf7;" 
d="M254 68v78h80v-78h-80zM45 270v66h509v-66h-509zM254 461v79h80v-79h-80z" />
    <glyph glyph-name="oslash" unicode="&#xf8;" horiz-adv-x="604" 
d="M70 -31l-35 34l69 80c-32 46 -49 107 -49 184c0 189 105 291 251 291c69 0 123 -19 163 -55l59 69l36 -33l-63 -73c31 -47 47 -112 47 -193c0 -192 -106 -282 -249 -282c-67 0 -122 19 -163 55zM305 56c131 0 163 108 163 217c0 43 -6 91 -25 129l-257 -300
c27 -28 65 -46 119 -46zM160 146l258 300c-26 29 -63 48 -115 48c-132 0 -167 -119 -167 -222c0 -45 6 -90 24 -126z" />
    <glyph glyph-name="ugrave" unicode="&#xf9;" horiz-adv-x="616" 
d="M253 -12c-153 0 -164 116 -164 210v348h79v-332c0 -86 6 -154 105 -154c69 0 150 53 175 68v418h76v-546h-76v64c-43 -27 -107 -76 -195 -76zM358 619l-193 120l36 60l189 -129z" />
    <glyph glyph-name="uacute" unicode="&#xfa;" horiz-adv-x="616" 
d="M262 620l-30 51l188 129l37 -60zM253 -12c-153 0 -164 116 -164 210v348h79v-332c0 -86 6 -154 105 -154c69 0 150 53 175 68v418h76v-546h-76v64c-43 -27 -107 -76 -195 -76z" />
    <glyph glyph-name="ucircumflex" unicode="&#xfb;" horiz-adv-x="616" 
d="M460 627l-148 85l-148 -84l-33 49l181 110l179 -112zM253 -12c-153 0 -164 116 -164 210v348h79v-332c0 -86 6 -154 105 -154c69 0 150 53 175 68v418h76v-546h-76v64c-43 -27 -107 -76 -195 -76z" />
    <glyph glyph-name="udieresis" unicode="&#xfc;" horiz-adv-x="616" 
d="M201 659l-56 57l56 56l56 -56zM414 659l-56 57l56 56l56 -56zM253 -12c-153 0 -164 116 -164 210v348h79v-332c0 -86 6 -154 105 -154c69 0 150 53 175 68v418h76v-546h-76v64c-43 -27 -107 -76 -195 -76z" />
    <glyph glyph-name="yacute" unicode="&#xfd;" horiz-adv-x="517" 
d="M156 -220l75 220h-37l-177 546h86l119 -390l30 -98l32 96l135 392h81l-267 -766h-77zM209 619l-30 51l188 129l37 -60z" />
    <glyph glyph-name="thorn" unicode="&#xfe;" horiz-adv-x="601" 
d="M93 -220v974h77v-253c36 26 95 54 153 54c142 0 222 -96 222 -266c0 -228 -125 -299 -262 -299c-47 0 -86 4 -113 8v-218h-77zM286 55c119 0 177 93 177 214c0 115 -26 218 -156 218c-54 0 -120 -37 -137 -49v-372c25 -3 52 -11 116 -11z" />
    <glyph glyph-name="ydieresis" unicode="&#xff;" horiz-adv-x="517" 
d="M156 -220l75 220h-37l-177 546h86l119 -390l30 -98l32 96l135 392h81l-267 -766h-77zM147 659l-56 57l56 56l56 -56zM360 659l-56 57l56 56l56 -56z" />
    <glyph glyph-name="Amacron" unicode="&#x100;" horiz-adv-x="671" 
d="M13 0l282 707h111l255 -707h-88l-93 264h-280l-104 -264h-83zM226 330h231l-110 319zM199 786v65h299v-65h-299z" />
    <glyph glyph-name="amacron" unicode="&#x101;" horiz-adv-x="570" 
d="M198 -8c-98 0 -155 54 -155 155c0 133 120 162 209 164l130 2v73c0 87 -43 104 -140 104c-50 0 -112 -18 -135 -25l-17 62c24 10 94 32 175 32c121 0 194 -39 194 -147v-303c0 -41 27 -50 51 -53l-5 -62h-14c-45 0 -97 20 -103 69c-26 -17 -82 -71 -190 -71zM218 56
c69 0 150 52 164 60v142l-131 -5c-85 -3 -132 -44 -132 -99c0 -73 39 -98 99 -98zM132 669v65h299v-65h-299z" />
    <glyph glyph-name="Abreve" unicode="&#x102;" horiz-adv-x="671" 
d="M13 0l282 707h111l255 -707h-88l-93 264h-280l-104 -264h-83zM226 330h231l-110 319zM346 753c-107 0 -152 65 -165 85l43 38c12 -14 55 -59 125 -59c71 0 110 42 124 59l41 -36c-10 -16 -54 -87 -168 -87z" />
    <glyph glyph-name="abreve" unicode="&#x103;" horiz-adv-x="570" 
d="M198 -8c-98 0 -155 54 -155 155c0 133 120 162 209 164l130 2v73c0 87 -43 104 -140 104c-50 0 -112 -18 -135 -25l-17 62c24 10 94 32 175 32c121 0 194 -39 194 -147v-303c0 -41 27 -50 51 -53l-5 -62h-14c-45 0 -97 20 -103 69c-26 -17 -82 -71 -190 -71zM218 56
c69 0 150 52 164 60v142l-131 -5c-85 -3 -132 -44 -132 -99c0 -73 39 -98 99 -98zM280 644c-107 0 -152 65 -165 85l43 38c12 -14 55 -59 125 -59c71 0 110 42 124 59l41 -36c-10 -16 -54 -87 -168 -87z" />
    <glyph glyph-name="Aogonek" unicode="&#x104;" horiz-adv-x="671" 
d="M682 -210c-15 -8 -29 -16 -82 -16c-94 0 -121 46 -121 102c0 50 46 94 92 130l-91 258h-280l-104 -264h-83l282 707h111l255 -707c-37 -23 -104 -72 -104 -114c0 -39 26 -47 62 -47c20 0 39 5 45 8zM457 330l-63 182l-47 137l-52 -140l-69 -179h231z" />
    <glyph glyph-name="aogonek" unicode="&#x105;" horiz-adv-x="570" 
d="M529 -210c-14 -8 -29 -16 -82 -16c-94 0 -117 49 -117 102s51 99 98 130c-21 10 -38 33 -40 57c-26 -17 -82 -71 -190 -71c-98 0 -155 54 -155 154c0 133 120 162 209 163l130 3v75c0 87 -43 103 -140 103c-50 0 -112 -18 -135 -25l-17 62c25 10 94 32 175 32
c110 0 194 -31 194 -145v-305c0 -34 19 -50 51 -53l-5 -57c-34 -25 -101 -72 -101 -113c0 -39 26 -47 62 -47c21 0 39 5 45 8zM382 116v141l-131 -5c-93 -4 -131 -47 -131 -98c0 -73 35 -98 95 -98c69 0 153 52 167 60z" />
    <glyph glyph-name="Cacute" unicode="&#x106;" horiz-adv-x="649" 
d="M325 747l-18 56l221 80l23 -71zM422 -12c-233 0 -366 150 -366 361c0 223 131 368 362 368c128 0 189 -29 205 -36l-23 -66c-29 9 -81 30 -180 30c-147 0 -278 -80 -278 -286c0 -211 136 -300 298 -300c66 0 128 14 166 26l20 -66c-27 -11 -86 -31 -204 -31z" />
    <glyph glyph-name="cacute" unicode="&#x107;" horiz-adv-x="498" 
d="M232 619l-30 51l188 129l37 -60zM333 -9c-194 0 -278 83 -278 282c0 177 100 287 256 287c74 0 121 -16 149 -31l-24 -62c-29 12 -66 27 -127 27c-104 0 -173 -79 -173 -218c0 -148 47 -217 205 -217c44 0 84 11 105 14l13 -64c-20 -6 -70 -18 -126 -18z" />
    <glyph glyph-name="Ccircumflex" unicode="&#x108;" horiz-adv-x="649" 
d="M272 743l-28 55l180 78l172 -78l-27 -55l-145 61zM422 -12c-233 0 -366 150 -366 361c0 223 131 368 362 368c128 0 189 -29 205 -36l-23 -66c-29 9 -81 30 -180 30c-147 0 -278 -80 -278 -286c0 -211 136 -300 298 -300c66 0 128 14 166 26l20 -66
c-27 -11 -86 -31 -204 -31z" />
    <glyph glyph-name="ccircumflex" unicode="&#x109;" horiz-adv-x="498" 
d="M453 627l-148 85l-148 -84l-33 49l181 110l179 -112zM333 -9c-194 0 -278 83 -278 282c0 177 100 287 256 287c74 0 121 -16 149 -31l-24 -62c-29 12 -66 27 -127 27c-104 0 -173 -79 -173 -218c0 -148 47 -217 205 -217c44 0 84 11 105 14l13 -64
c-20 -6 -70 -18 -126 -18z" />
    <glyph glyph-name="Cdotaccent" unicode="&#x10a;" horiz-adv-x="649" 
d="M422 -12c-233 0 -366 150 -366 361c0 223 131 368 362 368c128 0 189 -29 205 -36l-23 -66c-29 9 -81 30 -180 30c-147 0 -278 -80 -278 -286c0 -211 136 -300 298 -300c66 0 128 14 166 26l20 -66c-27 -11 -86 -31 -204 -31zM480 824l-63 -63l-62 63l62 62z" />
    <glyph glyph-name="cdotaccent" unicode="&#x10b;" horiz-adv-x="498" 
d="M333 -9c-194 0 -278 83 -278 282c0 177 100 287 256 287c74 0 121 -16 149 -31l-24 -62c-29 12 -66 27 -127 27c-104 0 -173 -79 -173 -218c0 -148 47 -217 205 -217c44 0 84 11 105 14l13 -64c-20 -6 -70 -18 -126 -18zM309 649l-65 67l65 66l67 -66z" />
    <glyph glyph-name="Ccaron" unicode="&#x10c;" horiz-adv-x="649" 
d="M597 824l-179 -78l-172 79l27 56l146 -62l150 60zM422 -12c-233 0 -366 150 -366 361c0 223 131 368 362 368c128 0 189 -29 205 -36l-23 -66c-29 9 -81 30 -180 30c-147 0 -278 -80 -278 -286c0 -211 136 -300 298 -300c66 0 128 14 166 26l20 -66
c-27 -11 -86 -31 -204 -31z" />
    <glyph glyph-name="ccaron" unicode="&#x10d;" horiz-adv-x="498" 
d="M295 620l-177 111l32 47l145 -83l148 83l33 -47zM333 -9c-194 0 -278 83 -278 282c0 177 100 287 256 287c74 0 121 -16 149 -31l-24 -62c-29 12 -66 27 -127 27c-104 0 -173 -79 -173 -218c0 -148 47 -217 205 -217c44 0 84 11 105 14l13 -64c-20 -6 -70 -18 -126 -18z
" />
    <glyph glyph-name="Dcaron" unicode="&#x10e;" horiz-adv-x="750" 
d="M504 824l-179 -78l-172 79l27 56l146 -62l150 60zM111 0v707h190c228 0 392 -121 392 -351c0 -248 -150 -356 -386 -356h-196zM192 68h126c184 0 294 93 294 277c0 200 -125 294 -314 294h-106v-571z" />
    <glyph glyph-name="dcaron" unicode="&#x10f;" horiz-adv-x="645" 
d="M654 754l-39 -203h-59l21 203h77zM284 -10c-98 0 -229 39 -229 281c0 191 118 289 259 289c51 0 70 -3 109 -14v208h78v-754h-78v52c-31 -29 -80 -62 -139 -62zM290 57c54 0 110 44 133 61v360c-26 8 -55 17 -109 17c-130 0 -179 -112 -179 -227c0 -147 64 -211 155 -211
z" />
    <glyph glyph-name="Dcroat" unicode="&#x110;" horiz-adv-x="757" 
d="M693 356c0 -248 -150 -356 -386 -356h-196v320h-80v63h80v324h190c228 0 392 -121 392 -351zM612 345c0 200 -125 294 -314 294h-106v-256h168v-63h-168v-252h126c184 0 294 93 294 277z" />
    <glyph glyph-name="dcroat" unicode="&#x111;" horiz-adv-x="595" 
d="M501 0h-78v52c-31 -29 -80 -60 -139 -60c-98 0 -229 37 -229 279c0 191 118 290 259 290c51 0 70 -4 109 -14v75h-146v51h146v81h78v-81h75v-51h-75v-622zM423 118v360c-26 9 -55 18 -109 18c-130 0 -179 -113 -179 -228c0 -147 64 -209 155 -209c54 0 110 42 133 59z
" />
    <glyph glyph-name="Emacron" unicode="&#x112;" horiz-adv-x="580" 
d="M111 0v707h396v-67h-314v-251h292v-68h-292v-253h337v-68h-419zM159 786v65h299v-65h-299z" />
    <glyph glyph-name="emacron" unicode="&#x113;" horiz-adv-x="543" 
d="M313 -12c-158 0 -258 66 -258 275c0 221 107 297 244 297c135 0 197 -92 197 -273v-29h-361c3 -174 89 -202 202 -202c40 0 111 16 135 23l14 -65c-18 -7 -84 -26 -173 -26zM136 317h277c0 110 -40 184 -126 184c-82 0 -141 -62 -151 -184zM136 669v65h299v-65h-299z" />
    <glyph glyph-name="Ebreve" unicode="&#x114;" horiz-adv-x="580" 
d="M111 0v707h396v-67h-314v-251h292v-68h-292v-253h337v-68h-419zM308 753c-107 0 -152 65 -165 85l43 38c12 -14 55 -59 125 -59c71 0 110 42 124 59l41 -36c-10 -16 -54 -87 -168 -87z" />
    <glyph glyph-name="ebreve" unicode="&#x115;" horiz-adv-x="543" 
d="M313 -12c-158 0 -258 66 -258 275c0 221 107 297 244 297c135 0 197 -92 197 -273v-29h-361c3 -174 89 -202 202 -202c40 0 111 16 135 23l14 -65c-18 -7 -84 -26 -173 -26zM136 317h277c0 110 -40 184 -126 184c-82 0 -141 -62 -151 -184zM288 644
c-107 0 -152 65 -165 85l43 38c12 -14 55 -59 125 -59c71 0 110 42 124 59l41 -36c-10 -16 -54 -87 -168 -87z" />
    <glyph glyph-name="Edotaccent" unicode="&#x116;" horiz-adv-x="580" 
d="M111 0v707h396v-67h-314v-251h292v-68h-292v-253h337v-68h-419zM382 824l-63 -63l-62 63l62 62z" />
    <glyph glyph-name="edotaccent" unicode="&#x117;" horiz-adv-x="543" 
d="M313 -12c-158 0 -258 66 -258 275c0 221 107 297 244 297c135 0 197 -92 197 -273v-29h-361c3 -174 89 -202 202 -202c40 0 111 16 135 23l14 -65c-18 -7 -84 -26 -173 -26zM136 317h277c0 110 -40 184 -126 184c-82 0 -141 -62 -151 -184zM292 649l-65 67l65 66l67 -66z
" />
    <glyph glyph-name="Eogonek" unicode="&#x118;" horiz-adv-x="580" 
d="M548 -210c-15 -8 -30 -16 -83 -16c-93 0 -117 48 -117 100c0 53 50 97 91 126h-328v707h396v-67h-314v-251h292v-68h-292v-253h337v-68c-37 -24 -108 -72 -108 -114c0 -39 27 -47 63 -47c20 0 38 5 45 8z" />
    <glyph glyph-name="eogonek" unicode="&#x119;" horiz-adv-x="543" 
d="M404 -226c-92 0 -118 47 -118 103c0 45 36 86 75 116c-17 -1 -35 -2 -53 -2c-155 0 -253 67 -253 272c0 221 107 296 244 296c135 0 197 -91 197 -272v-29h-361c3 -174 89 -200 202 -200c40 0 111 14 135 20l14 -64c-25 -15 -123 -74 -123 -128c0 -39 26 -47 62 -47
c20 0 39 5 45 8l18 -57c-15 -8 -31 -16 -84 -16zM136 317h277c0 111 -40 183 -126 183c-81 0 -141 -61 -151 -183z" />
    <glyph glyph-name="Ecaron" unicode="&#x11a;" horiz-adv-x="580" 
d="M480 824l-179 -78l-172 79l27 56l146 -62l150 60zM111 0v707h396v-67h-314v-251h292v-68h-292v-253h337v-68h-419z" />
    <glyph glyph-name="ecaron" unicode="&#x11b;" horiz-adv-x="543" 
d="M287 620l-177 111l32 47l145 -83l148 83l33 -47zM313 -12c-158 0 -258 66 -258 275c0 221 107 297 244 297c135 0 197 -92 197 -273v-29h-361c3 -174 89 -202 202 -202c40 0 111 16 135 23l14 -65c-18 -7 -84 -26 -173 -26zM136 317h277c0 110 -40 184 -126 184
c-82 0 -141 -62 -151 -184z" />
    <glyph glyph-name="Gcircumflex" unicode="&#x11c;" horiz-adv-x="706" 
d="M277 743l-28 55l180 78l172 -78l-27 -55l-145 61zM422 -12c-233 0 -366 152 -366 361c0 223 131 368 362 368c125 0 176 -24 205 -36l-24 -67c-36 12 -79 31 -179 31c-147 0 -278 -80 -278 -286c0 -211 136 -300 298 -300c52 0 87 8 113 14v275h83v-328
c-61 -18 -119 -32 -214 -32z" />
    <glyph glyph-name="gcircumflex" unicode="&#x11d;" horiz-adv-x="597" 
d="M472 627l-148 85l-148 -84l-33 49l181 110l179 -112zM278 -228c-81 0 -155 14 -178 20l15 69c23 -5 102 -19 145 -19c93 0 163 17 163 140v57c-32 -29 -71 -47 -125 -47c-114 0 -241 35 -241 279c0 195 117 289 260 289c69 0 127 -10 184 -21v-573
c0 -133 -94 -194 -223 -194zM304 57c55 0 96 31 118 49v376c-27 5 -55 11 -106 11c-133 0 -181 -101 -181 -225c0 -152 58 -211 169 -211z" />
    <glyph glyph-name="Gbreve" unicode="&#x11e;" horiz-adv-x="706" 
d="M422 -12c-233 0 -366 152 -366 361c0 223 131 368 362 368c125 0 176 -24 205 -36l-24 -67c-36 12 -79 31 -179 31c-147 0 -278 -80 -278 -286c0 -211 136 -300 298 -300c52 0 87 8 113 14v275h83v-328c-61 -18 -119 -32 -214 -32zM410 753c-107 0 -152 65 -165 85l43 38
c12 -14 55 -59 125 -59c71 0 110 42 124 59l41 -36c-10 -16 -54 -87 -168 -87z" />
    <glyph glyph-name="gbreve" unicode="&#x11f;" horiz-adv-x="597" 
d="M278 -228c-81 0 -155 14 -178 20l15 69c23 -5 102 -19 145 -19c93 0 163 17 163 140v57c-32 -29 -71 -47 -125 -47c-114 0 -241 35 -241 279c0 195 117 289 260 289c69 0 127 -10 184 -21v-573c0 -133 -94 -194 -223 -194zM304 57c55 0 96 31 118 49v376
c-27 5 -55 11 -106 11c-133 0 -181 -101 -181 -225c0 -152 58 -211 169 -211zM315 644c-107 0 -152 65 -165 85l43 38c12 -14 55 -59 125 -59c71 0 110 42 124 59l41 -36c-10 -16 -54 -87 -168 -87z" />
    <glyph glyph-name="Gdotaccent" unicode="&#x120;" horiz-adv-x="706" 
d="M422 -12c-233 0 -366 152 -366 361c0 223 131 368 362 368c125 0 176 -24 205 -36l-24 -67c-36 12 -79 31 -179 31c-147 0 -278 -80 -278 -286c0 -211 136 -300 298 -300c52 0 87 8 113 14v275h83v-328c-61 -18 -119 -32 -214 -32zM485 824l-63 -63l-62 63l62 62z" />
    <glyph glyph-name="gdotaccent" unicode="&#x121;" horiz-adv-x="597" 
d="M278 -228c-81 0 -155 14 -178 20l15 69c23 -5 102 -19 145 -19c93 0 163 17 163 140v57c-32 -29 -71 -47 -125 -47c-114 0 -241 35 -241 279c0 195 117 289 260 289c69 0 127 -10 184 -21v-573c0 -133 -94 -194 -223 -194zM304 57c55 0 96 31 118 49v376
c-27 5 -55 11 -106 11c-133 0 -181 -101 -181 -225c0 -152 58 -211 169 -211zM328 649l-65 67l65 66l67 -66z" />
    <glyph glyph-name="Gcommaaccent" unicode="&#x122;" horiz-adv-x="706" 
d="M461 -58l-39 -203h-59l21 203h77zM422 -12c-233 0 -366 152 -366 361c0 223 131 368 362 368c125 0 176 -24 205 -36l-24 -67c-36 12 -79 31 -179 31c-147 0 -278 -80 -278 -286c0 -211 136 -300 298 -300c52 0 87 8 113 14v275h83v-328c-61 -18 -119 -32 -214 -32z" />
    <glyph glyph-name="gcommaaccent" unicode="&#x123;" horiz-adv-x="597" 
d="M276 607l41 198h62l-23 -198h-80zM278 -228c-81 0 -155 14 -178 20l15 69c23 -5 102 -19 145 -19c93 0 163 17 163 140v57c-32 -29 -71 -47 -125 -47c-114 0 -241 35 -241 279c0 195 117 289 260 289c69 0 127 -10 184 -21v-573c0 -133 -94 -194 -223 -194zM304 57
c55 0 96 31 118 49v376c-27 5 -55 11 -106 11c-133 0 -181 -101 -181 -225c0 -152 58 -211 169 -211z" />
    <glyph glyph-name="Hcircumflex" unicode="&#x124;" horiz-adv-x="775" 
d="M232 743l-28 55l180 78l172 -78l-27 -55l-145 61zM111 0v707h82v-318h388v318h82v-707h-82v321h-388v-321h-82z" />
    <glyph glyph-name="hcircumflex" unicode="&#x125;" horiz-adv-x="618" 
d="M-15 748l-28 55l180 78l172 -78l-27 -55l-145 61zM93 0v754h79v-270c38 27 106 76 190 76c161 0 168 -114 168 -208v-352h-75v337c0 95 -13 153 -113 153c-63 0 -146 -53 -170 -67v-423h-79z" />
    <glyph glyph-name="Hbar" unicode="&#x126;" horiz-adv-x="775" 
d="M111 0v512h-77v55h77v140h82v-140h388v140h82v-140h75v-55h-75v-512h-82v321h-388v-321h-82zM193 389h388v123h-388v-123z" />
    <glyph glyph-name="hbar" unicode="&#x127;" horiz-adv-x="618" 
d="M93 0v622h-68v51h68v81h79v-81h151v-51h-151v-138c38 27 100 75 190 75c161 0 168 -113 168 -207v-352h-75v337c0 95 -13 152 -113 152c-63 0 -146 -52 -170 -66v-423h-79z" />
    <glyph glyph-name="Itilde" unicode="&#x128;" horiz-adv-x="305" 
d="M111 0v707h82v-707h-82zM211 754c-47 0 -81 37 -124 37c-31 0 -47 -7 -70 -24l-30 45c10 10 44 45 105 45c53 0 84 -36 123 -36c34 0 57 18 70 27l31 -44c-10 -11 -47 -50 -105 -50z" />
    <glyph glyph-name="itilde" unicode="&#x129;" horiz-adv-x="267" 
d="M92 0v546h81v-546h-81zM192 645c-47 0 -80 37 -124 37c-31 0 -46 -6 -69 -25l-31 46c11 10 44 45 105 45c53 0 84 -37 123 -37c34 0 58 19 71 28l30 -44c-9 -11 -46 -50 -105 -50z" />
    <glyph glyph-name="Imacron" unicode="&#x12a;" horiz-adv-x="305" 
d="M111 0v707h82v-707h-82zM1 786v65h299v-65h-299z" />
    <glyph glyph-name="imacron" unicode="&#x12b;" horiz-adv-x="267" 
d="M92 0v546h81v-546h-81zM-16 669v65h299v-65h-299z" />
    <glyph glyph-name="Ibreve" unicode="&#x12c;" horiz-adv-x="305" 
d="M111 0v707h82v-707h-82zM150 753c-107 0 -152 65 -165 85l43 38c12 -14 55 -59 125 -59c71 0 110 42 124 59l41 -36c-10 -16 -54 -87 -168 -87z" />
    <glyph glyph-name="ibreve" unicode="&#x12d;" horiz-adv-x="267" 
d="M92 0v546h81v-546h-81zM131 644c-107 0 -152 65 -165 85l43 38c12 -14 55 -59 125 -59c71 0 110 42 124 59l41 -36c-10 -16 -54 -87 -168 -87z" />
    <glyph glyph-name="Iogonek" unicode="&#x12e;" horiz-adv-x="305" 
d="M216 -210c-14 -8 -29 -16 -82 -16c-93 0 -118 48 -118 105c0 52 51 97 95 127v701h82v-707c-37 -23 -102 -72 -102 -114c0 -39 26 -47 62 -47c21 0 39 5 46 8z" />
    <glyph glyph-name="iogonek" unicode="&#x12f;" horiz-adv-x="267" 
d="M113 -226c-93 0 -118 48 -118 105c0 53 53 100 98 129v538h80v-546c-38 -23 -106 -72 -106 -114c0 -39 27 -48 64 -48c22 0 40 6 47 9l17 -57c-14 -8 -29 -16 -82 -16zM131 649l-65 67l65 66l67 -66z" />
    <glyph glyph-name="Idotaccent" unicode="&#x130;" horiz-adv-x="305" 
d="M111 0v707h82v-707h-82zM214 824l-63 -63l-62 63l62 62z" />
    <glyph glyph-name="dotlessi" unicode="&#x131;" horiz-adv-x="267" 
d="M92 0v546h81v-546h-81z" />
    <glyph glyph-name="IJ" unicode="&#x132;" horiz-adv-x="595" 
d="M111 0v707h82v-707h-82zM291 -187l-35 60c121 67 145 148 145 278v556h83v-554c0 -152 -27 -266 -193 -340z" />
    <glyph glyph-name="ij" unicode="&#x133;" horiz-adv-x="541" 
d="M262 -220c-30 0 -56 6 -71 11l14 64c9 -2 40 -7 57 -7c82 0 104 55 104 137v561h80v-562c0 -160 -82 -204 -184 -204zM92 0v546h81v-546h-81zM131 649l-65 67l65 66l67 -66zM404 649l-65 67l65 66l67 -66z" />
    <glyph glyph-name="Jcircumflex" unicode="&#x134;" horiz-adv-x="305" 
d="M4 743l-28 55l180 78l172 -78l-27 -55l-145 61zM1 -187l-35 60c121 67 145 148 145 278v556h83v-554c0 -152 -27 -266 -193 -340z" />
    <glyph glyph-name="jcircumflex" unicode="&#x135;" horiz-adv-x="267" 
d="M-11 -220c-30 0 -56 6 -71 11l14 64c9 -2 40 -7 57 -7c82 0 104 55 104 137v561h80v-562c0 -160 -82 -204 -184 -204zM281 627l-148 85l-148 -84l-33 49l181 110l179 -112z" />
    <glyph glyph-name="Kcommaaccent" unicode="&#x136;" horiz-adv-x="626" 
d="M376 -58l-39 -203h-59l21 203h77zM515 0l-294 368v18l278 321h105l-294 -327l313 -380h-108zM111 0v707h82v-707h-82z" />
    <glyph glyph-name="kcommaaccent" unicode="&#x137;" horiz-adv-x="551" 
d="M334 -58l-39 -203h-59l21 203h77zM512 -8c-37 2 -94 13 -164 101l-154 195l230 258h91l-232 -255l112 -138c50 -61 100 -93 133 -102zM93 0v754h79v-754h-79z" />
    <glyph glyph-name="Lacute" unicode="&#x139;" horiz-adv-x="504" 
d="M114 747l-18 56l221 80l23 -71zM111 0v707h82v-636h307v-71h-389z" />
    <glyph glyph-name="lacute" unicode="&#x13a;" horiz-adv-x="267" 
d="M96 784l-18 56l221 80l23 -71zM93 0v754h79v-754h-79z" />
    <glyph glyph-name="Lcommaaccent" unicode="&#x13b;" horiz-adv-x="504" 
d="M350 -58l-39 -203h-59l21 203h77zM111 0v707h82v-636h307v-71h-389z" />
    <glyph glyph-name="lcommaaccent" unicode="&#x13c;" horiz-adv-x="267" 
d="M173 -58l-39 -203h-59l21 203h77zM93 0v754h79v-754h-79z" />
    <glyph glyph-name="Lcaron" unicode="&#x13d;" horiz-adv-x="504" 
d="M399 762l-39 -203h-59l21 203h77zM111 0v707h82v-636h307v-71h-389z" />
    <glyph glyph-name="lcaron" unicode="&#x13e;" horiz-adv-x="289" 
d="M326 753l-39 -203h-59l21 203h77zM93 0v754h79v-754h-79z" />
    <glyph glyph-name="Ldot" unicode="&#x13f;" horiz-adv-x="504" 
d="M111 0v707h82v-636h307v-71h-389zM395 304l-66 68l66 66l68 -66z" />
    <glyph glyph-name="ldot" unicode="&#x140;" horiz-adv-x="319" 
d="M93 0v754h79v-754h-79zM286 289l-66 68l66 66l68 -66z" />
    <glyph glyph-name="Lslash" unicode="&#x141;" horiz-adv-x="504" 
d="M500 0h-389v310l-75 -43l-1 64l76 44v332h82v-285l130 74v-65l-130 -74v-286h307v-71z" />
    <glyph glyph-name="lslash" unicode="&#x142;" horiz-adv-x="264" 
d="M260 427l-90 -52v-375h-77v331l-81 -46v64l81 46v359h77v-314l90 51v-64z" />
    <glyph glyph-name="Nacute" unicode="&#x143;" horiz-adv-x="782" 
d="M323 747l-18 56l221 80l23 -71zM111 0v707h118l361 -637l-3 88v549h84v-707h-129l-353 628l4 -73v-555h-82z" />
    <glyph glyph-name="nacute" unicode="&#x144;" horiz-adv-x="619" 
d="M260 619l-30 51l188 129l37 -60zM93 0v546h79v-62c50 35 110 76 190 76c161 0 170 -114 170 -208v-352h-77v337c0 94 -13 153 -113 153c-63 0 -127 -41 -170 -67v-423h-79z" />
    <glyph glyph-name="Ncommaaccent" unicode="&#x145;" horiz-adv-x="782" 
d="M435 -58l-39 -203h-59l21 203h77zM111 0v707h118l361 -637l-3 88v549h84v-707h-129l-353 628l4 -73v-555h-82z" />
    <glyph glyph-name="ncommaaccent" unicode="&#x146;" horiz-adv-x="619" 
d="M362 -58l-39 -203h-59l21 203h77zM93 0v546h79v-62c50 35 110 76 190 76c161 0 170 -114 170 -208v-352h-77v337c0 94 -13 153 -113 153c-63 0 -127 -41 -170 -67v-423h-79z" />
    <glyph glyph-name="Ncaron" unicode="&#x147;" horiz-adv-x="782" 
d="M564 824l-179 -78l-172 79l27 56l146 -62l150 60zM111 0v707h118l361 -637l-3 88v549h84v-707h-129l-353 628l4 -73v-555h-82z" />
    <glyph glyph-name="ncaron" unicode="&#x148;" horiz-adv-x="619" 
d="M306 620l-177 111l32 47l145 -83l148 83l33 -47zM93 0v546h79v-62c50 35 110 76 190 76c161 0 170 -114 170 -208v-352h-77v337c0 94 -13 153 -113 153c-63 0 -127 -41 -170 -67v-423h-79z" />
    <glyph glyph-name="napostrophe" unicode="&#x149;" horiz-adv-x="651" 
d="M-4 554c14 31 27 84 27 123v78h76v-40c0 -78 -17 -123 -40 -161h-63zM124 0v546h79v-62c50 35 110 76 190 76c161 0 170 -114 170 -208v-352h-77v337c0 94 -13 153 -113 153c-63 0 -127 -41 -170 -67v-423h-79z" />
    <glyph glyph-name="Eng" unicode="&#x14a;" horiz-adv-x="782" 
d="M487 -220c-29 0 -55 6 -70 11l14 64c8 -2 40 -7 57 -7c80 0 104 54 104 132v20h-50l-353 628l4 -73v-555h-82v707h118l361 -637l-3 88v549h84l-1 -724c0 -159 -80 -203 -183 -203z" />
    <glyph glyph-name="eng" unicode="&#x14b;" horiz-adv-x="619" 
d="M532 -16c0 -160 -80 -204 -183 -204c-30 0 -56 6 -70 11l13 64c9 -2 41 -7 57 -7c82 0 106 55 106 137v351c0 96 -13 153 -113 153c-63 0 -146 -52 -170 -66v-423h-79v546h79v-62c38 27 106 75 190 75c161 0 170 -113 170 -207v-368z" />
    <glyph glyph-name="Omacron" unicode="&#x14c;" horiz-adv-x="821" 
d="M260 786v65h299v-65h-299zM402 -12c-220 0 -346 151 -346 367c0 221 148 362 365 362c228 0 343 -158 343 -364c0 -216 -135 -365 -362 -365zM405 56c188 0 277 130 277 298s-96 295 -270 295c-182 0 -274 -127 -274 -293c0 -161 89 -300 267 -300z" />
    <glyph glyph-name="omacron" unicode="&#x14d;" horiz-adv-x="604" 
d="M150 669v65h299v-65h-299zM299 -12c-151 0 -244 100 -244 279c0 189 105 293 251 293c162 0 242 -104 242 -287c0 -192 -106 -285 -249 -285zM305 53c131 0 163 111 163 220c0 101 -31 222 -165 222c-132 0 -167 -120 -167 -223c0 -114 40 -219 169 -219z" />
    <glyph glyph-name="Obreve" unicode="&#x14e;" horiz-adv-x="821" 
d="M402 -12c-220 0 -346 151 -346 367c0 221 148 362 365 362c228 0 343 -158 343 -364c0 -216 -135 -365 -362 -365zM405 56c188 0 277 130 277 298s-96 295 -270 295c-182 0 -274 -127 -274 -293c0 -161 89 -300 267 -300zM410 753c-107 0 -152 65 -165 85l43 38
c12 -14 55 -59 125 -59c71 0 110 42 124 59l41 -36c-10 -16 -54 -87 -168 -87z" />
    <glyph glyph-name="obreve" unicode="&#x14f;" horiz-adv-x="604" 
d="M299 -12c-151 0 -244 100 -244 279c0 189 105 293 251 293c162 0 242 -104 242 -287c0 -192 -106 -285 -249 -285zM305 53c131 0 163 111 163 220c0 101 -31 222 -165 222c-132 0 -167 -120 -167 -223c0 -114 40 -219 169 -219zM299 644c-107 0 -152 65 -165 85l43 38
c12 -14 55 -59 125 -59c71 0 110 42 124 59l41 -36c-10 -16 -54 -87 -168 -87z" />
    <glyph glyph-name="Ohungarumlaut" unicode="&#x150;" horiz-adv-x="821" 
d="M451 861l-186 -122l-36 49l177 133zM687 802l-215 -60l-18 56l210 75zM402 -12c-220 0 -346 151 -346 367c0 221 148 362 365 362c228 0 343 -158 343 -364c0 -216 -135 -365 -362 -365zM405 56c188 0 277 130 277 298s-96 295 -270 295c-182 0 -274 -127 -274 -293
c0 -161 89 -300 267 -300z" />
    <glyph glyph-name="ohungarumlaut" unicode="&#x151;" horiz-adv-x="604" 
d="M158 614l-34 48l183 141l43 -60zM383 618l-32 49l191 132l41 -61zM299 -12c-151 0 -244 100 -244 279c0 189 105 293 251 293c162 0 242 -104 242 -287c0 -192 -106 -285 -249 -285zM305 53c131 0 163 111 163 220c0 101 -31 222 -165 222c-132 0 -167 -120 -167 -223
c0 -114 40 -219 169 -219z" />
    <glyph glyph-name="OE" unicode="&#x152;" horiz-adv-x="1087" 
d="M402 -12c-220 0 -346 151 -346 367c0 225 147 363 365 363c79 0 145 -22 196 -57v46h396v-67h-312v-251h290v-68h-290v-253h337v-68h-421v53c-56 -37 -109 -65 -215 -65zM405 59c98 0 168 35 212 92v403c-44 58 -113 92 -205 92c-180 0 -271 -126 -271 -290
c0 -159 88 -297 264 -297z" />
    <glyph glyph-name="oe" unicode="&#x153;" horiz-adv-x="954" 
d="M299 -12c-151 0 -244 100 -244 279c0 189 105 293 251 293c98 0 166 -41 202 -116c41 83 116 116 203 116c135 0 197 -92 197 -273v-29h-361c3 -172 85 -202 201 -202c39 0 112 15 136 23l14 -65c-18 -7 -84 -25 -173 -25c-104 0 -183 30 -222 112
c-42 -76 -116 -113 -204 -113zM305 53c131 0 163 111 163 220c0 101 -31 222 -165 222c-132 0 -167 -120 -167 -223c0 -114 40 -219 169 -219zM548 317h277c0 111 -41 184 -126 184c-82 0 -141 -62 -151 -184z" />
    <glyph glyph-name="Racute" unicode="&#x154;" horiz-adv-x="702" 
d="M239 747l-18 56l221 80l23 -71zM669 -11c-39 3 -121 22 -182 108l-131 189c-17 -3 -45 -5 -66 -5h-96v-281h-83v707h231c135 0 229 -64 229 -207c0 -83 -39 -158 -133 -194l110 -157c48 -66 102 -85 139 -95zM194 350h102c110 0 188 33 188 144c0 108 -56 146 -164 146
h-126v-290z" />
    <glyph glyph-name="racute" unicode="&#x155;" horiz-adv-x="390" 
d="M182 619l-30 51l188 129l37 -60zM93 0v546h79v-73c24 41 79 85 156 85c32 0 54 -6 64 -9l-14 -67c-17 4 -32 7 -64 7c-66 0 -116 -47 -142 -87v-402h-79z" />
    <glyph glyph-name="Rcommaaccent" unicode="&#x156;" horiz-adv-x="702" 
d="M410 -58l-39 -203h-59l21 203h77zM669 -11c-39 3 -121 22 -182 108l-131 189c-17 -3 -45 -5 -66 -5h-96v-281h-83v707h231c135 0 229 -64 229 -207c0 -83 -39 -158 -133 -194l110 -157c48 -66 102 -85 139 -95zM194 350h102c110 0 188 33 188 144c0 108 -56 146 -164 146
h-126v-290z" />
    <glyph glyph-name="rcommaaccent" unicode="&#x157;" horiz-adv-x="390" 
d="M173 -58l-39 -203h-59l21 203h77zM93 0v546h79v-73c24 41 79 85 156 85c32 0 54 -6 64 -9l-14 -67c-17 4 -32 7 -64 7c-66 0 -116 -47 -142 -87v-402h-79z" />
    <glyph glyph-name="Rcaron" unicode="&#x158;" horiz-adv-x="702" 
d="M478 824l-179 -78l-172 79l27 56l146 -62l150 60zM669 -11c-39 3 -121 22 -182 108l-131 189c-17 -3 -45 -5 -66 -5h-96v-281h-83v707h231c135 0 229 -64 229 -207c0 -83 -39 -158 -133 -194l110 -157c48 -66 102 -85 139 -95zM194 350h102c110 0 188 33 188 144
c0 108 -56 146 -164 146h-126v-290z" />
    <glyph glyph-name="rcaron" unicode="&#x159;" horiz-adv-x="390" 
d="M228 620l-177 111l32 47l145 -83l148 83l33 -47zM93 0v546h79v-73c24 41 79 85 156 85c32 0 54 -6 64 -9l-14 -67c-17 4 -32 7 -64 7c-66 0 -116 -47 -142 -87v-402h-79z" />
    <glyph glyph-name="Sacute" unicode="&#x15a;" horiz-adv-x="554" 
d="M204 747l-18 56l221 80l23 -71zM250 -12c-103 0 -157 22 -197 43l28 66c52 -23 100 -37 167 -37c79 0 170 27 170 118c0 177 -346 136 -346 367c0 115 96 171 209 171c81 0 130 -16 172 -34l-23 -61c-42 15 -82 27 -147 27c-76 0 -133 -30 -133 -100
c0 -158 349 -138 349 -364c0 -135 -112 -196 -249 -196z" />
    <glyph glyph-name="sacute" unicode="&#x15b;" horiz-adv-x="465" 
d="M173 619l-30 51l188 129l37 -60zM212 -11c-73 0 -128 13 -160 23l14 65c35 -8 90 -23 139 -23c85 0 137 33 137 85c0 126 -275 84 -275 271c0 98 80 150 187 150c59 0 112 -17 132 -23l-14 -63c-25 7 -66 20 -126 20c-69 0 -102 -36 -102 -79c0 -126 273 -91 273 -269
c0 -125 -115 -157 -205 -157z" />
    <glyph glyph-name="Scircumflex" unicode="&#x15c;" horiz-adv-x="554" 
d="M137 743l-28 55l180 78l172 -78l-27 -55l-145 61zM250 -12c-103 0 -157 22 -197 43l28 66c52 -23 100 -37 167 -37c79 0 170 27 170 118c0 177 -346 136 -346 367c0 115 96 171 209 171c81 0 130 -16 172 -34l-23 -61c-42 15 -82 27 -147 27c-76 0 -133 -30 -133 -100
c0 -158 349 -138 349 -364c0 -135 -112 -196 -249 -196z" />
    <glyph glyph-name="scircumflex" unicode="&#x15d;" horiz-adv-x="465" 
d="M381 627l-148 85l-148 -84l-33 49l181 110l179 -112zM212 -11c-73 0 -128 13 -160 23l14 65c35 -8 90 -23 139 -23c85 0 137 33 137 85c0 126 -275 84 -275 271c0 98 80 150 187 150c59 0 112 -17 132 -23l-14 -63c-25 7 -66 20 -126 20c-69 0 -102 -36 -102 -79
c0 -126 273 -91 273 -269c0 -125 -115 -157 -205 -157z" />
    <glyph glyph-name="Scedilla" unicode="&#x15e;" horiz-adv-x="554" 
d="M250 -12c-103 0 -157 22 -197 43l28 66c52 -23 100 -37 167 -37c79 0 170 27 170 118c0 177 -346 136 -346 367c0 115 96 171 209 171c81 0 130 -16 172 -34l-23 -61c-42 15 -82 27 -147 27c-76 0 -133 -30 -133 -100c0 -158 349 -138 349 -364
c0 -135 -112 -196 -249 -196zM215 -240l-26 45c42 26 59 51 59 77c0 21 -11 43 -24 67h77c11 -20 20 -44 20 -67c1 -44 -28 -89 -106 -122z" />
    <glyph glyph-name="scedilla" unicode="&#x15f;" horiz-adv-x="465" 
d="M212 -11c-73 0 -128 13 -160 23l14 65c35 -8 90 -23 139 -23c85 0 137 33 137 85c0 126 -275 84 -275 271c0 98 80 150 187 150c59 0 112 -17 132 -23l-14 -63c-25 7 -66 20 -126 20c-69 0 -102 -36 -102 -79c0 -126 273 -91 273 -269c0 -125 -115 -157 -205 -157z
M190 -240l-26 45c42 26 59 51 59 77c0 21 -11 43 -24 67h77c11 -20 20 -44 20 -67c1 -44 -28 -89 -106 -122z" />
    <glyph glyph-name="Scaron" unicode="&#x160;" horiz-adv-x="554" 
d="M453 824l-179 -78l-172 79l27 56l146 -62l150 60zM250 -12c-103 0 -157 22 -197 43l28 66c52 -23 100 -37 167 -37c79 0 170 27 170 118c0 177 -346 136 -346 367c0 115 96 171 209 171c81 0 130 -16 172 -34l-23 -61c-42 15 -82 27 -147 27c-76 0 -133 -30 -133 -100
c0 -158 349 -138 349 -364c0 -135 -112 -196 -249 -196z" />
    <glyph glyph-name="scaron" unicode="&#x161;" horiz-adv-x="465" 
d="M231 620l-177 111l32 47l145 -83l148 83l33 -47zM212 -11c-73 0 -128 13 -160 23l14 65c35 -8 90 -23 139 -23c85 0 137 33 137 85c0 126 -275 84 -275 271c0 98 80 150 187 150c59 0 112 -17 132 -23l-14 -63c-25 7 -66 20 -126 20c-69 0 -102 -36 -102 -79
c0 -126 273 -91 273 -269c0 -125 -115 -157 -205 -157z" />
    <glyph glyph-name="Tcommaaccent" unicode="&#x162;" horiz-adv-x="569" 
d="M329 -58l-39 -203h-59l21 203h77zM243 0v637h-241v70h565v-70h-241v-637h-83z" />
    <glyph glyph-name="tcommaaccent" unicode="&#x163;" horiz-adv-x="416" 
d="M305 -58l-39 -203h-59l21 203h77zM298 -11c-102 0 -185 3 -185 163v327h-80v67h80v112h77v-112h171v-67h-170v-326c0 -80 22 -95 104 -95c31 0 74 11 86 15l14 -66c-18 -6 -63 -18 -97 -18z" />
    <glyph glyph-name="Tcaron" unicode="&#x164;" horiz-adv-x="569" 
d="M458 824l-179 -78l-172 79l27 56l146 -62l150 60zM243 0v637h-241v70h565v-70h-241v-637h-83z" />
    <glyph glyph-name="tcaron" unicode="&#x165;" horiz-adv-x="426" 
d="M356 814l-39 -203h-59l21 203h77zM298 -11c-102 0 -185 3 -185 163v327h-80v67h80v112h77v-112h171v-67h-170v-326c0 -80 22 -95 104 -95c31 0 74 11 86 15l14 -66c-18 -6 -63 -18 -97 -18z" />
    <glyph glyph-name="Tbar" unicode="&#x166;" horiz-adv-x="569" 
d="M243 0v346h-145v53h145v238h-241v70h565v-70h-241v-238h146v-53h-146v-346h-83z" />
    <glyph glyph-name="tbar" unicode="&#x167;" horiz-adv-x="416" 
d="M298 -9c-102 0 -185 1 -185 161v145h-70v50h70v132h-80v67h80v112h77v-112h171v-67h-170v-132h137v-50h-137v-144c0 -80 22 -92 104 -92c31 0 74 8 86 12l14 -66c-18 -6 -63 -16 -97 -16z" />
    <glyph glyph-name="Utilde" unicode="&#x168;" horiz-adv-x="770" 
d="M387 -12c-138 0 -285 53 -285 258v461h85v-454c0 -155 99 -194 200 -194c109 0 201 49 201 217v431h80v-434c0 -227 -155 -285 -281 -285zM439 754c-47 0 -81 37 -124 37c-31 0 -47 -7 -70 -24l-30 45c10 10 44 45 105 45c53 0 84 -36 123 -36c34 0 57 18 70 27l31 -44
c-10 -11 -47 -50 -105 -50z" />
    <glyph glyph-name="utilde" unicode="&#x169;" horiz-adv-x="616" 
d="M253 -12c-153 0 -164 116 -164 210v348h79v-332c0 -86 6 -154 105 -154c69 0 150 53 175 68v418h76v-546h-76v64c-43 -27 -107 -76 -195 -76zM366 645c-47 0 -80 37 -124 37c-31 0 -46 -6 -69 -25l-31 46c11 10 44 45 105 45c53 0 84 -37 123 -37c34 0 58 19 71 28
l30 -44c-9 -11 -46 -50 -105 -50z" />
    <glyph glyph-name="Umacron" unicode="&#x16a;" horiz-adv-x="770" 
d="M387 -12c-138 0 -285 53 -285 258v461h85v-454c0 -155 99 -194 200 -194c109 0 201 49 201 217v431h80v-434c0 -227 -155 -285 -281 -285zM234 786v65h299v-65h-299z" />
    <glyph glyph-name="umacron" unicode="&#x16b;" horiz-adv-x="616" 
d="M253 -12c-153 0 -164 116 -164 210v348h79v-332c0 -86 6 -154 105 -154c69 0 150 53 175 68v418h76v-546h-76v64c-43 -27 -107 -76 -195 -76zM159 669v65h299v-65h-299z" />
    <glyph glyph-name="Ubreve" unicode="&#x16c;" horiz-adv-x="770" 
d="M387 -12c-138 0 -285 53 -285 258v461h85v-454c0 -155 99 -194 200 -194c109 0 201 49 201 217v431h80v-434c0 -227 -155 -285 -281 -285zM388 753c-107 0 -152 65 -165 85l43 38c12 -14 55 -59 125 -59c71 0 110 42 124 59l41 -36c-10 -16 -54 -87 -168 -87z" />
    <glyph glyph-name="ubreve" unicode="&#x16d;" horiz-adv-x="616" 
d="M253 -12c-153 0 -164 116 -164 210v348h79v-332c0 -86 6 -154 105 -154c69 0 150 53 175 68v418h76v-546h-76v64c-43 -27 -107 -76 -195 -76zM306 644c-107 0 -152 65 -165 85l43 38c12 -14 55 -59 125 -59c71 0 110 42 124 59l41 -36c-10 -16 -54 -87 -168 -87z" />
    <glyph glyph-name="Uring" unicode="&#x16e;" horiz-adv-x="770" 
d="M387 704c-61 0 -120 31 -120 106c0 72 58 110 118 110c52 0 119 -28 119 -108c0 -69 -52 -108 -117 -108zM386 748c40 0 65 24 66 63c0 39 -32 64 -67 64c-40 0 -66 -23 -66 -62s28 -65 67 -65zM387 -12c-138 0 -285 53 -285 258v461h85v-454c0 -155 99 -194 200 -194
c109 0 201 49 201 217v431h80v-434c0 -227 -155 -285 -281 -285z" />
    <glyph glyph-name="uring" unicode="&#x16f;" horiz-adv-x="616" 
d="M309 606c-61 0 -120 31 -120 106c0 72 58 110 118 110c52 0 119 -28 119 -108c0 -69 -52 -108 -117 -108zM308 650c40 0 65 24 66 63c0 39 -32 64 -67 64c-40 0 -66 -23 -66 -62s28 -65 67 -65zM253 -12c-153 0 -164 116 -164 210v348h79v-332c0 -86 6 -154 105 -154
c69 0 150 53 175 68v418h76v-546h-76v64c-43 -27 -107 -76 -195 -76z" />
    <glyph glyph-name="Uhungarumlaut" unicode="&#x170;" horiz-adv-x="770" 
d="M387 -12c-138 0 -285 53 -285 258v461h85v-454c0 -155 99 -194 200 -194c109 0 201 49 201 217v431h80v-434c0 -227 -155 -285 -281 -285zM415 861l-186 -122l-36 49l177 133zM651 802l-215 -60l-18 56l210 75z" />
    <glyph glyph-name="uhungarumlaut" unicode="&#x171;" horiz-adv-x="616" 
d="M253 -12c-153 0 -164 116 -164 210v348h79v-332c0 -86 6 -154 105 -154c69 0 150 53 175 68v418h76v-546h-76v64c-43 -27 -107 -76 -195 -76zM169 614l-34 48l183 141l43 -60zM394 618l-32 49l191 132l41 -61z" />
    <glyph glyph-name="Uogonek" unicode="&#x172;" horiz-adv-x="770" 
d="M429 -226c-91 0 -119 47 -119 104c0 42 34 83 71 110h-8c-132 0 -271 57 -271 253v466h85v-459c0 -155 99 -189 200 -189c109 0 201 44 201 212v436h80v-439c0 -168 -85 -242 -180 -268c-39 -22 -104 -71 -104 -113c0 -39 27 -49 64 -49c21 0 39 6 45 9l18 -57
c-14 -8 -29 -16 -82 -16z" />
    <glyph glyph-name="uogonek" unicode="&#x173;" horiz-adv-x="616" 
d="M547 -210c-14 -8 -29 -16 -82 -16c-94 0 -120 46 -120 102c0 55 57 104 103 134v54c-43 -27 -107 -76 -195 -76c-153 0 -164 116 -164 209v349h79v-333c0 -86 6 -153 105 -153c69 0 150 53 175 68v418h76v-546c-38 -23 -105 -72 -105 -114c0 -39 26 -48 63 -48
c23 0 41 6 47 9z" />
    <glyph glyph-name="Wcircumflex" unicode="&#x174;" horiz-adv-x="1011" 
d="M352 743l-28 55l180 78l172 -78l-27 -55l-145 61zM207 0l-196 707h84l177 -657l193 483l-59 174h83l221 -656l211 656h79l-232 -707h-119l-149 437l-173 -437h-120z" />
    <glyph glyph-name="wcircumflex" unicode="&#x175;" horiz-adv-x="877" 
d="M589 627l-148 85l-148 -84l-33 49l181 110l179 -112zM187 0l-170 546h83l141 -489l148 489h102l130 -489l159 489h80l-188 -546h-107l-109 399l-18 75l-19 -74l-126 -400h-106z" />
    <glyph glyph-name="Ycircumflex" unicode="&#x176;" horiz-adv-x="568" 
d="M236 0v268l-231 439h92l183 -366l195 366h89l-246 -439v-268h-82zM133 743l-28 55l180 78l172 -78l-27 -55l-145 61z" />
    <glyph glyph-name="ycircumflex" unicode="&#x177;" horiz-adv-x="517" 
d="M156 -220l75 220h-37l-177 546h86l119 -390l30 -98l32 96l135 392h81l-267 -766h-77zM407 627l-148 85l-148 -84l-33 49l181 110l179 -112z" />
    <glyph glyph-name="Ydieresis" unicode="&#x178;" horiz-adv-x="568" 
d="M236 0v268l-231 439h92l183 -366l195 366h89l-246 -439v-268h-82zM172 747l-58 58l58 58l57 -58zM384 747l-57 58l57 58l58 -58z" />
    <glyph glyph-name="Zacute" unicode="&#x179;" horiz-adv-x="546" 
d="M205 747l-18 56l221 80l23 -71zM30 0v71l373 565h-347v71h440v-65l-377 -571h398v-71h-487z" />
    <glyph glyph-name="zacute" unicode="&#x17a;" horiz-adv-x="496" 
d="M198 619l-30 51l188 129l37 -60zM40 0v68l322 409h-296v69h387v-64l-326 -413h330v-69h-417z" />
    <glyph glyph-name="Zdotaccent" unicode="&#x17b;" horiz-adv-x="546" 
d="M30 0v71l373 565h-347v71h440v-65l-377 -571h398v-71h-487zM343 824l-63 -63l-62 63l62 62z" />
    <glyph glyph-name="zdotaccent" unicode="&#x17c;" horiz-adv-x="496" 
d="M40 0v68l322 409h-296v69h387v-64l-326 -413h330v-69h-417zM261 649l-65 67l65 66l67 -66z" />
    <glyph glyph-name="Zcaron" unicode="&#x17d;" horiz-adv-x="546" 
d="M450 824l-179 -78l-172 79l27 56l146 -62l150 60zM30 0v71l373 565h-347v71h440v-65l-377 -571h398v-71h-487z" />
    <glyph glyph-name="zcaron" unicode="&#x17e;" horiz-adv-x="496" 
d="M247 620l-177 111l32 47l145 -83l148 83l33 -47zM40 0v68l322 409h-296v69h387v-64l-326 -413h330v-69h-417z" />
    <glyph glyph-name="florin" unicode="&#x192;" horiz-adv-x="455" 
d="M10 -21l-3 66c89 6 173 1 176 130l2 77h-104v68h106v48c2 167 118 199 245 199l4 -68c-91 -8 -169 -7 -170 -133l-1 -46h112v-68h-114l-1 -80c-3 -164 -124 -193 -252 -193z" />
    <glyph glyph-name="uni01D4" unicode="&#x1d4;" horiz-adv-x="616" 
d="M253 -12c-153 0 -164 116 -164 210v348h79v-332c0 -86 6 -154 105 -154c69 0 150 53 175 68v418h76v-546h-76v64c-43 -27 -107 -76 -195 -76zM312 620l-177 111l32 47l145 -83l148 83l33 -47z" />
    <glyph glyph-name="AEmacron" unicode="&#x1e2;" horiz-adv-x="918" 
d="M-3 0l376 707h471v-67h-313v-251h291v-68h-291v-253h337v-68h-420v311h-197l-161 -311h-93zM284 378h164v262h-28zM441 786v65h299v-65h-299z" />
    <glyph glyph-name="aemacron" unicode="&#x1e3;" horiz-adv-x="865" 
d="M638 -9c-102 0 -177 28 -221 95c-29 -22 -119 -94 -219 -94c-97 0 -154 54 -154 154c0 133 120 161 209 163c0 0 123 3 129 3v75c0 91 -42 104 -139 104c-50 0 -113 -19 -136 -24l-16 60c24 10 94 32 174 32c78 0 146 -14 177 -78c44 55 107 78 182 78
c128 0 193 -90 193 -261v-29l-359 -14c3 -171 87 -196 204 -196c39 0 111 14 134 19l14 -64c-31 -13 -92 -23 -172 -23zM216 57c48 0 146 51 181 73c-10 32 -16 79 -17 124l-126 -4c-98 -2 -135 -45 -135 -96c0 -78 41 -97 97 -97zM461 316l275 13c0 102 -44 171 -124 171
c-74 0 -144 -52 -151 -184zM282 669v65h299v-65h-299z" />
    <glyph glyph-name="AEacute" unicode="&#x1fc;" horiz-adv-x="918" 
d="M511 747l-18 56l221 80l23 -71zM-3 0l376 707h471v-67h-313v-251h291v-68h-291v-253h337v-68h-420v311h-197l-161 -311h-93zM284 378h164v262h-28z" />
    <glyph glyph-name="aeacute" unicode="&#x1fd;" horiz-adv-x="865" 
d="M383 619l-30 51l188 129l37 -60zM638 -9c-102 0 -177 28 -221 95c-29 -22 -119 -94 -219 -94c-97 0 -154 54 -154 154c0 133 120 161 209 163c0 0 123 3 129 3v75c0 91 -42 104 -139 104c-50 0 -113 -19 -136 -24l-16 60c24 10 94 32 174 32c78 0 146 -14 177 -78
c44 55 107 78 182 78c128 0 193 -90 193 -261v-29l-359 -14c3 -171 87 -196 204 -196c39 0 111 14 134 19l14 -64c-31 -13 -92 -23 -172 -23zM216 57c48 0 146 51 181 73c-10 32 -16 79 -17 124l-126 -4c-98 -2 -135 -45 -135 -96c0 -78 41 -97 97 -97zM461 316l275 13
c0 102 -44 171 -124 171c-74 0 -144 -52 -151 -184z" />
    <glyph glyph-name="Oslashacute" unicode="&#x1fe;" horiz-adv-x="821" 
d="M72 -30l-38 39l97 100c-49 64 -75 148 -75 246c0 225 148 362 365 362c94 0 170 -28 226 -75l94 97l40 -37c1 -1 -47 -51 -94 -100c52 -64 77 -151 77 -249c0 -218 -135 -365 -362 -365c-97 0 -175 29 -233 81zM405 56c188 0 277 130 277 298c0 72 -19 137 -54 187
l-405 -415c44 -43 105 -70 182 -70zM189 170l402 415c-44 40 -105 64 -179 64c-182 0 -274 -127 -274 -293c0 -70 17 -135 51 -186zM329 747l-18 56l221 80l23 -71z" />
    <glyph glyph-name="oslashacute" unicode="&#x1ff;" horiz-adv-x="604" 
d="M70 -31l-35 34l69 80c-32 46 -49 107 -49 184c0 189 105 291 251 291c69 0 123 -19 163 -55l59 69l36 -33l-63 -73c31 -47 47 -112 47 -193c0 -192 -106 -282 -249 -282c-67 0 -122 19 -163 55zM305 56c131 0 163 108 163 217c0 43 -6 91 -25 129l-257 -300
c27 -28 65 -46 119 -46zM160 146l258 300c-26 29 -63 48 -115 48c-132 0 -167 -119 -167 -222c0 -45 6 -90 24 -126zM237 619l-30 51l188 129l37 -60z" />
    <glyph glyph-name="Scommaaccent" unicode="&#x218;" horiz-adv-x="554" 
d="M306 -58l-39 -203h-59l21 203h77zM250 -12c-103 0 -157 22 -197 43l28 66c52 -23 100 -37 167 -37c79 0 170 27 170 118c0 177 -346 136 -346 367c0 115 96 171 209 171c81 0 130 -16 172 -34l-23 -61c-42 15 -82 27 -147 27c-76 0 -133 -30 -133 -100
c0 -158 349 -138 349 -364c0 -135 -112 -196 -249 -196z" />
    <glyph glyph-name="scommaaccent" unicode="&#x219;" horiz-adv-x="465" 
d="M274 -58l-39 -203h-59l21 203h77zM212 -11c-73 0 -128 13 -160 23l14 65c35 -8 90 -23 139 -23c85 0 137 33 137 85c0 126 -275 84 -275 271c0 98 80 150 187 150c59 0 112 -17 132 -23l-14 -63c-25 7 -66 20 -126 20c-69 0 -102 -36 -102 -79c0 -126 273 -91 273 -269
c0 -125 -115 -157 -205 -157z" />
    <glyph glyph-name="uni021A" unicode="&#x21a;" horiz-adv-x="569" 
d="M329 -58l-39 -203h-59l21 203h77zM243 0v637h-241v70h565v-70h-241v-637h-83z" />
    <glyph glyph-name="uni021B" unicode="&#x21b;" horiz-adv-x="416" 
d="M305 -58l-39 -203h-59l21 203h77zM298 -11c-102 0 -185 3 -185 163v327h-80v67h80v112h77v-112h171v-67h-170v-326c0 -80 22 -95 104 -95c31 0 74 11 86 15l14 -66c-18 -6 -63 -18 -97 -18z" />
    <glyph glyph-name="dotlessj" unicode="&#x237;" horiz-adv-x="267" 
d="M-11 -220c-30 0 -56 6 -71 11l14 64c9 -2 40 -7 57 -7c82 0 104 55 104 137v561h80v-562c0 -160 -82 -204 -184 -204z" />
    <glyph glyph-name="schwa" unicode="&#x259;" horiz-adv-x="543" 
d="M230 560c158 0 258 -66 258 -275c0 -221 -107 -297 -244 -297c-135 0 -197 92 -197 273v29h361c-3 174 -89 202 -202 202c-40 0 -111 -16 -135 -23l-14 65c18 7 84 26 173 26zM407 231h-277c0 -110 40 -184 126 -184c82 0 141 62 151 184z" />
    <glyph glyph-name="circumflex" unicode="&#x2c6;" horiz-adv-x="540" 
d="M386 627l-148 85l-148 -84l-33 49l181 110l179 -112z" />
    <glyph glyph-name="caron" unicode="&#x2c7;" horiz-adv-x="540" 
d="M268 620l-177 111l32 47l145 -83l148 83l33 -47z" />
    <glyph glyph-name="breve" unicode="&#x2d8;" horiz-adv-x="500" 
d="M268 644c-107 0 -152 65 -165 85l43 38c12 -14 55 -59 125 -59c71 0 110 42 124 59l41 -36c-10 -16 -54 -87 -168 -87z" />
    <glyph glyph-name="dotaccent" unicode="&#x2d9;" horiz-adv-x="277" 
d="M138 649l-65 67l65 66l67 -66z" />
    <glyph glyph-name="ring" unicode="&#x2da;" horiz-adv-x="536" 
d="M270 606c-61 0 -120 31 -120 106c0 72 58 110 118 110c52 0 119 -28 119 -108c0 -69 -52 -108 -117 -108zM269 650c40 0 65 24 66 63c0 39 -32 64 -67 64c-40 0 -66 -23 -66 -62s28 -65 67 -65z" />
    <glyph glyph-name="ogonek" unicode="&#x2db;" horiz-adv-x="565" 
d="M401 -226c-93 0 -117 52 -117 109c0 82 122 148 162 170l34 -42c-24 -12 -122 -74 -122 -125c0 -39 26 -47 62 -47c19 0 35 3 46 6l17 -55c-14 -8 -37 -16 -82 -16z" />
    <glyph glyph-name="tilde" unicode="&#x2dc;" horiz-adv-x="540" 
d="M329 645c-47 0 -80 37 -124 37c-31 0 -46 -6 -69 -25l-31 46c11 10 44 45 105 45c53 0 84 -37 123 -37c34 0 58 19 71 28l30 -44c-9 -11 -46 -50 -105 -50z" />
    <glyph glyph-name="hungarumlaut" unicode="&#x2dd;" horiz-adv-x="571" 
d="M90 614l-34 48l183 141l43 -60zM315 618l-32 49l191 132l41 -61z" />
    <glyph glyph-name="uni0374" unicode="&#x374;" horiz-adv-x="147" 
d="M30 554c14 31 27 68 27 107v94h80v-40c0 -78 -18 -123 -40 -161h-67z" />
    <glyph glyph-name="uni0375" unicode="&#x375;" horiz-adv-x="179" 
d="M73 -122c12 32 26 69 26 107v95h81v-41c0 -77 -20 -123 -41 -161h-66z" />
    <glyph glyph-name="uni037E" unicode="&#x37e;" horiz-adv-x="300" 
d="M204 456h-94v90h94v-90zM202 40c0 -78 -20 -126 -42 -165h-69c13 33 26 72 26 110v98h85v-43z" />
    <glyph glyph-name="tonos" unicode="&#x384;" horiz-adv-x="474" 
d="M342 631l76 158h80l-89 -158h-67z" />
    <glyph glyph-name="dieresistonos" unicode="&#x385;" horiz-adv-x="459" 
d="M90 628l-53 54l53 53l53 -53zM163 623l76 158h80l-88 -158h-68zM365 628l-53 54l53 53l54 -53z" />
    <glyph glyph-name="Alphatonos" unicode="&#x386;" horiz-adv-x="671" 
d="M13 0l282 707h111l255 -707h-88l-93 264h-280l-104 -264h-83zM226 330h231l-110 319zM19 549l76 158h80l-89 -158h-67z" />
    <glyph glyph-name="anoteleia" unicode="&#x387;" horiz-adv-x="270" 
d="M136 292l-63 65l63 64l65 -64z" />
    <glyph glyph-name="Epsilontonos" unicode="&#x388;" horiz-adv-x="580" 
d="M-111 549l76 158h81l-89 -158h-68zM111 0v707h396v-67h-314v-251h292v-68h-292v-253h337v-68h-419z" />
    <glyph glyph-name="Etatonos" unicode="&#x389;" horiz-adv-x="775" 
d="M-111 549l76 158h81l-89 -158h-68zM111 0v707h82v-318h388v318h82v-707h-82v321h-388v-321h-82z" />
    <glyph glyph-name="Iotatonos" unicode="&#x38a;" horiz-adv-x="305" 
d="M-111 549l76 158h81l-89 -158h-68zM111 0v707h82v-707h-82z" />
    <glyph glyph-name="Omicrontonos" unicode="&#x38c;" horiz-adv-x="821" 
d="M-92 549l76 158h80l-88 -158h-68zM402 -12c-220 0 -346 151 -346 367c0 221 148 362 365 362c228 0 343 -158 343 -364c0 -216 -135 -365 -362 -365zM405 56c188 0 277 130 277 298s-96 295 -270 295c-182 0 -274 -127 -274 -293c0 -161 89 -300 267 -300z" />
    <glyph glyph-name="Upsilontonos" unicode="&#x38e;" horiz-adv-x="568" 
d="M-194 549l76 158h81l-89 -158h-68zM236 0v268l-231 439h92l183 -366l195 366h89l-246 -439v-268h-82z" />
    <glyph glyph-name="Omegatonos" unicode="&#x38f;" horiz-adv-x="826" 
d="M-90 549l76 158h80l-88 -158h-68zM35 0v72h214c-87 40 -179 147 -179 294c0 221 135 352 352 352c228 0 337 -153 337 -355c0 -126 -90 -243 -184 -291h217v-72h-303v71c105 77 185 176 185 293c0 165 -89 282 -261 282c-180 0 -258 -116 -258 -280
c0 -153 92 -218 180 -295v-71h-300z" />
    <glyph glyph-name="iotadieresistonos" unicode="&#x390;" horiz-adv-x="266" 
d="M-1 628l-53 54l53 53l53 -53zM72 623l76 158h80l-88 -158h-68zM274 628l-53 54l53 53l54 -53zM92 0v546h80v-546h-80z" />
    <glyph glyph-name="Alpha" unicode="&#x391;" horiz-adv-x="671" 
d="M13 0l282 707h111l255 -707h-88l-93 264h-280l-104 -264h-83zM226 330h231l-110 319z" />
    <glyph glyph-name="Beta" unicode="&#x392;" horiz-adv-x="648" 
d="M111 0v707h194c160 0 229 -71 229 -174c0 -123 -96 -154 -97 -155v-3c3 0 148 -23 148 -174c0 -117 -68 -201 -250 -201h-224zM194 68h124c98 0 183 22 183 130c0 114 -82 132 -214 132h-93v-262zM194 396h107c109 0 149 38 149 122c0 96 -60 125 -166 125h-90v-247z" />
    <glyph glyph-name="Gamma" unicode="&#x393;" horiz-adv-x="515" 
d="M111 0v707h402v-67h-320v-640h-82z" />
    <glyph glyph-name="Delta" unicode="&#x394;" horiz-adv-x="682" 
d="M116 71h451l-163 436l-51 142l-59 -148zM4 0l296 707h111l271 -707h-678z" />
    <glyph glyph-name="Epsilon" unicode="&#x395;" horiz-adv-x="580" 
d="M111 0v707h396v-67h-314v-251h292v-68h-292v-253h337v-68h-419z" />
    <glyph glyph-name="Zeta" unicode="&#x396;" horiz-adv-x="546" 
d="M30 0v71l373 565h-347v71h440v-65l-377 -571h398v-71h-487z" />
    <glyph glyph-name="Eta" unicode="&#x397;" horiz-adv-x="775" 
d="M111 0v707h82v-318h388v318h82v-707h-82v321h-388v-321h-82z" />
    <glyph glyph-name="Theta" unicode="&#x398;" horiz-adv-x="821" 
d="M254 311l-17 53c12 9 45 28 108 28c56 0 92 -16 135 -16c34 0 69 8 87 17l17 -53c-13 -9 -51 -27 -109 -27c-53 0 -88 16 -135 16c-35 0 -68 -9 -86 -18zM402 -12c-220 0 -346 151 -346 367c0 225 148 362 365 362c228 0 343 -156 343 -364c0 -218 -135 -365 -362 -365z
M405 56c188 0 277 130 277 298s-96 295 -270 295c-182 0 -274 -127 -274 -293c0 -161 89 -300 267 -300z" />
    <glyph glyph-name="Iota" unicode="&#x399;" horiz-adv-x="305" 
d="M111 0v707h82v-707h-82z" />
    <glyph glyph-name="Kappa" unicode="&#x39a;" horiz-adv-x="626" 
d="M515 0l-294 368v18l278 321h105l-294 -327l313 -380h-108zM111 0v707h82v-707h-82z" />
    <glyph glyph-name="Lambda" unicode="&#x39b;" horiz-adv-x="652" 
d="M18 0l267 707h111l241 -707h-87l-161 484l-51 161l-60 -163l-179 -482h-81z" />
    <glyph glyph-name="Mu" unicode="&#x39c;" horiz-adv-x="952" 
d="M111 0v707h120l234 -658l260 658h116v-707h-82v506l3 109l-241 -615h-118l-216 616l6 -112v-504h-82z" />
    <glyph glyph-name="Nu" unicode="&#x39d;" horiz-adv-x="782" 
d="M111 0v707h118l361 -637l-3 88v549h84v-707h-129l-353 628l4 -73v-555h-82z" />
    <glyph glyph-name="Xi" unicode="&#x39e;" horiz-adv-x="572" 
d="M50 0v73h471v-73h-471zM83 319v72h406v-72h-406zM61 634v73h450v-73h-450z" />
    <glyph glyph-name="Omicron" unicode="&#x39f;" horiz-adv-x="821" 
d="M402 -12c-220 0 -346 151 -346 367c0 221 148 362 365 362c228 0 343 -158 343 -364c0 -216 -135 -365 -362 -365zM405 56c188 0 277 130 277 298s-96 295 -270 295c-182 0 -274 -127 -274 -293c0 -161 89 -300 267 -300z" />
    <glyph glyph-name="Pi" unicode="&#x3a0;" horiz-adv-x="761" 
d="M111 0v707h538v-707h-82v636h-374v-636h-82z" />
    <glyph glyph-name="Rho" unicode="&#x3a1;" horiz-adv-x="590" 
d="M111 0v707h231c141 0 229 -78 229 -221c0 -126 -87 -231 -281 -231h-30v69h36c111 0 188 45 188 157c0 108 -53 159 -164 159h-126v-640h-83z" />
    <glyph glyph-name="Sigma" unicode="&#x3a3;" horiz-adv-x="541" 
d="M34 0v71l213 287l-209 277v72h469v-67h-380l209 -279l-214 -291h389v-70h-477z" />
    <glyph glyph-name="Tau" unicode="&#x3a4;" horiz-adv-x="569" 
d="M243 0v637h-241v70h565v-70h-241v-637h-83z" />
    <glyph glyph-name="Upsilon" unicode="&#x3a5;" horiz-adv-x="568" 
d="M236 0v268l-231 439h92l183 -366l195 366h89l-246 -439v-268h-82z" />
    <glyph glyph-name="Phi" unicode="&#x3a6;" horiz-adv-x="827" 
d="M372 0v85c-183 0 -316 93 -316 288s133 288 316 288v76h82v-76c184 0 316 -93 316 -288s-132 -288 -316 -288v-85h-82zM454 151c145 0 234 79 234 222c0 144 -89 222 -234 222v-444zM372 151v444c-144 0 -234 -78 -234 -222c0 -143 90 -222 234 -222z" />
    <glyph glyph-name="Chi" unicode="&#x3a7;" horiz-adv-x="607" 
d="M6 0l249 374l-206 333h94l161 -267l172 267h89l-218 -331l234 -376h-96l-186 310l-199 -310h-94z" />
    <glyph glyph-name="Psi" unicode="&#x3a8;" horiz-adv-x="722" 
d="M323 0v162c-132 9 -279 62 -279 253v292h84v-287c0 -138 105 -178 195 -188v475h82v-475c95 12 195 60 195 211v264h79v-266c0 -208 -151 -267 -274 -279v-162h-82z" />
    <glyph glyph-name="Omega" unicode="&#x3a9;" horiz-adv-x="824" 
d="M35 0v72h214c-87 40 -179 147 -179 294c0 221 135 352 352 352c228 0 337 -153 337 -355c0 -126 -90 -243 -184 -291h217v-72h-303v71c105 77 185 176 185 293c0 165 -89 282 -261 282c-180 0 -258 -116 -258 -280c0 -153 92 -218 180 -295v-71h-300z" />
    <glyph glyph-name="Iotadieresis" unicode="&#x3aa;" horiz-adv-x="305" 
d="M111 0v707h82v-707h-82zM49 747l-58 58l58 58l57 -58zM261 747l-57 58l57 58l58 -58z" />
    <glyph glyph-name="Upsilondieresis" unicode="&#x3ab;" horiz-adv-x="568" 
d="M236 0v268l-231 439h92l183 -366l195 366h89l-246 -439v-268h-82zM173 747l-58 58l58 58l57 -58zM385 747l-57 58l57 58l58 -58z" />
    <glyph glyph-name="alphatonos" unicode="&#x3ac;" horiz-adv-x="615" 
d="M277 631l76 158h80l-89 -158h-67zM250 -8c-76 0 -195 32 -195 256c0 198 118 312 259 312c79 0 139 -15 187 -35v-412c0 -41 18 -56 52 -57l-6 -62c-14 1 -32 2 -44 6c-54 15 -74 48 -75 122c-23 -70 -103 -130 -178 -130zM258 59c71 0 153 66 165 197v217
c-24 10 -57 21 -109 21c-131 0 -179 -119 -179 -244c0 -134 51 -191 123 -191z" />
    <glyph glyph-name="epsilontonos" unicode="&#x3ad;" horiz-adv-x="508" 
d="M230 631l76 158h80l-89 -158h-67zM276 -11c-151 0 -223 57 -223 159c0 65 38 122 113 146c-55 18 -89 56 -89 119c0 75 66 147 213 147c95 0 147 -22 177 -36l-24 -62c-23 9 -87 33 -158 33c-84 0 -129 -32 -129 -86c0 -73 56 -84 88 -84h124v-61h-127
c-40 0 -106 -29 -106 -108c0 -56 45 -100 150 -100c64 0 115 14 164 34l24 -58c-38 -18 -107 -43 -197 -43z" />
    <glyph glyph-name="etatonos" unicode="&#x3ae;" horiz-adv-x="634" 
d="M304 631l76 158h80l-89 -158h-67zM470 -220v557c0 95 -13 153 -113 153c-64 0 -147 -53 -171 -67v-423h-78v445c0 40 -27 49 -51 52l5 62c13 0 29 -1 43 -5c39 -8 73 -29 81 -71c38 28 107 77 191 77c161 0 170 -114 170 -208v-572h-77z" />
    <glyph glyph-name="iotatonos" unicode="&#x3af;" horiz-adv-x="266" 
d="M87 631l76 158h80l-89 -158h-67zM92 0v546h80v-546h-80z" />
    <glyph glyph-name="upsilondieresistonos" unicode="&#x3b0;" horiz-adv-x="613" 
d="M179 628l-53 54l53 53l53 -53zM252 623l76 158h80l-88 -158h-68zM454 628l-53 54l53 53l54 -53zM309 -12c-115 0 -220 46 -220 202v356h76v-349c0 -117 72 -144 142 -144c78 0 141 33 141 160v333h76v-335c0 -172 -111 -223 -215 -223z" />
    <glyph glyph-name="alpha" unicode="&#x3b1;" horiz-adv-x="615" 
d="M250 -8c-76 0 -195 32 -195 256c0 198 118 312 259 312c79 0 139 -15 187 -35v-412c0 -41 18 -56 52 -57l-6 -62c-14 1 -32 2 -44 6c-54 15 -74 48 -75 122c-23 -70 -103 -130 -178 -130zM258 59c71 0 153 66 165 197v217c-24 10 -57 21 -109 21
c-131 0 -179 -119 -179 -244c0 -134 51 -191 123 -191z" />
    <glyph glyph-name="beta" unicode="&#x3b2;" horiz-adv-x="612" 
d="M93 -220v758c0 133 80 234 220 234c117 0 200 -71 200 -176c0 -73 -49 -152 -125 -175c102 -23 172 -86 172 -198c0 -155 -106 -235 -245 -235c-50 0 -107 9 -143 23v-231h-79zM313 55c101 0 167 52 167 162c0 113 -96 158 -187 164v60c78 7 143 74 143 148
s-55 118 -128 118c-92 0 -136 -72 -136 -161v-466c41 -12 97 -25 141 -25z" />
    <glyph glyph-name="gamma" unicode="&#x3b3;" horiz-adv-x="514" 
d="M209 -220v220l-190 546h87l116 -355l28 -99l33 101l131 353h81l-208 -546v-220h-78z" />
    <glyph glyph-name="delta" unicode="&#x3b4;" horiz-adv-x="602" 
d="M299 -11c-138 0 -244 78 -244 257c0 135 83 218 177 262c-61 30 -108 64 -108 132c0 89 98 133 195 133c73 0 139 -12 187 -28l-14 -63c-37 10 -95 23 -171 23c-67 0 -122 -22 -122 -66c0 -66 97 -86 190 -138c81 -45 158 -117 158 -250c0 -191 -119 -262 -248 -262z
M304 54c124 0 164 91 164 198c0 135 -89 183 -174 223c-115 -36 -159 -143 -159 -223c0 -112 47 -198 169 -198z" />
    <glyph glyph-name="epsilon" unicode="&#x3b5;" horiz-adv-x="508" 
d="M276 -11c-151 0 -223 57 -223 159c0 65 38 122 113 146c-55 18 -89 56 -89 119c0 75 66 147 213 147c95 0 147 -22 177 -36l-24 -62c-23 9 -87 33 -158 33c-84 0 -129 -32 -129 -86c0 -73 56 -84 88 -84h124v-61h-127c-40 0 -106 -29 -106 -108c0 -56 45 -100 150 -100
c64 0 115 14 164 34l24 -58c-38 -18 -107 -43 -197 -43z" />
    <glyph glyph-name="zeta" unicode="&#x3b6;" horiz-adv-x="471" 
d="M395 -202l-47 33c16 19 50 61 50 86c0 49 -75 55 -156 71c-93 19 -186 55 -186 181c0 192 171 412 326 520h-285v65h379v-66c-149 -105 -339 -320 -339 -507c0 -96 69 -118 141 -132c89 -17 189 -22 189 -116c0 -50 -43 -104 -72 -135z" />
    <glyph glyph-name="eta" unicode="&#x3b7;" horiz-adv-x="634" 
d="M470 -220v557c0 95 -13 153 -113 153c-64 0 -147 -53 -171 -67v-423h-78v445c0 40 -27 49 -51 52l5 62c13 0 29 -1 43 -5c39 -8 73 -29 81 -71c38 28 107 77 191 77c161 0 170 -114 170 -208v-572h-77z" />
    <glyph glyph-name="theta" unicode="&#x3b8;" horiz-adv-x="613" 
d="M305 -12c-185 0 -230 161 -230 384c0 238 58 400 236 400c194 0 227 -176 227 -394c0 -227 -54 -390 -233 -390zM154 422h306c-3 167 -28 285 -152 285c-121 0 -150 -116 -154 -285zM310 53c120 0 149 118 150 307h-306c1 -194 31 -307 156 -307z" />
    <glyph glyph-name="iota" unicode="&#x3b9;" horiz-adv-x="266" 
d="M92 0v546h80v-546h-80z" />
    <glyph glyph-name="kappa" unicode="&#x3ba;" horiz-adv-x="551" 
d="M516 -8c-37 2 -92 15 -164 101l-157 190l221 263h92l-225 -259l116 -134c52 -60 100 -93 133 -102zM93 0v546h79v-546h-79z" />
    <glyph glyph-name="lambda" unicode="&#x3bb;" horiz-adv-x="524" 
d="M512 -10c-84 6 -109 45 -130 115l-92 283l-28 89l-29 -92l-126 -385h-87l191 546h28l-17 54c-19 61 -44 106 -102 106c-33 0 -58 -5 -81 -15l-18 59c27 12 63 20 103 20c99 0 135 -51 166 -144l162 -489c21 -64 44 -79 70 -85z" />
    <glyph glyph-name="mugreek" unicode="&#x3bc;" horiz-adv-x="638" 
d="M93 -220v766h79v-336c0 -83 6 -150 105 -150c69 0 150 53 175 68v418h76v-437c0 -41 28 -50 51 -53l-5 -62c-7 0 -15 0 -23 1c-42 4 -86 22 -96 71c-43 -33 -110 -78 -198 -78c-38 0 -66 10 -85 26v-234h-79z" />
    <glyph glyph-name="nu" unicode="&#x3bd;" horiz-adv-x="500" 
d="M194 0l-177 546h87l112 -375l35 -113l41 116l62 175c24 66 30 107 30 140c0 20 -4 44 -7 57h81c3 -14 7 -36 7 -55c0 -32 -8 -79 -32 -145l-127 -346h-112z" />
    <glyph glyph-name="xi" unicode="&#x3be;" horiz-adv-x="480" 
d="M392 -201l-46 32c16 20 47 65 47 91c0 36 -50 50 -106 62c-106 24 -236 56 -236 200c0 121 127 206 244 227c-82 8 -198 53 -198 161c0 124 97 195 256 195c34 0 75 -5 111 -12l-9 -64c-35 7 -76 11 -107 11c-114 0 -176 -39 -176 -126c0 -101 119 -129 239 -135v-62
c-110 -11 -280 -63 -280 -184c0 -101 84 -124 166 -144c83 -19 166 -33 166 -117c0 -50 -42 -103 -71 -135z" />
    <glyph glyph-name="omicron" unicode="&#x3bf;" horiz-adv-x="604" 
d="M299 -12c-151 0 -244 100 -244 279c0 189 105 293 251 293c162 0 242 -104 242 -287c0 -192 -106 -285 -249 -285zM305 53c131 0 163 111 163 220c0 101 -31 222 -165 222c-132 0 -167 -120 -167 -223c0 -114 40 -219 169 -219z" />
    <glyph glyph-name="pi" unicode="&#x3c0;" horiz-adv-x="602" 
d="M93 0v546h416v-546h-78v478h-259v-478h-79z" />
    <glyph glyph-name="rho" unicode="&#x3c1;" horiz-adv-x="573" 
d="M65 -220v495c0 191 84 283 229 283c163 0 224 -108 224 -291c0 -193 -98 -276 -246 -276c-24 0 -53 5 -74 11l9 64c20 -6 48 -10 69 -10c131 0 161 95 161 211c0 101 -17 227 -146 227c-125 0 -147 -111 -147 -214v-500h-79z" />
    <glyph glyph-name="sigma1" unicode="&#x3c2;" horiz-adv-x="498" 
d="M372 -201l-47 33c16 21 46 63 46 89c0 44 -45 56 -95 67c-97 23 -221 53 -221 287c0 157 84 285 256 285c53 0 107 -9 149 -31l-24 -62c-43 18 -79 27 -127 27c-119 0 -173 -96 -173 -216c0 -175 81 -205 158 -224c75 -21 150 -27 150 -121c0 -50 -44 -103 -72 -134z" />
    <glyph glyph-name="sigma" unicode="&#x3c3;" horiz-adv-x="621" 
d="M299 -9c-151 0 -244 94 -244 272c0 170 95 288 280 288c41 0 71 -2 250 -7v-65l-107 3c41 -49 70 -125 70 -209c0 -192 -106 -282 -249 -282zM305 56c131 0 163 108 163 217c0 60 -17 154 -83 211l-47 2c-129 1 -203 -69 -202 -214c0 -114 40 -216 169 -216z" />
    <glyph glyph-name="tau" unicode="&#x3c4;" horiz-adv-x="484" 
d="M203 0v478h-170v68h418v-68h-170v-478h-78z" />
    <glyph glyph-name="upsilon" unicode="&#x3c5;" horiz-adv-x="613" 
d="M309 -12c-115 0 -220 46 -220 202v356h76v-349c0 -117 72 -144 142 -144c78 0 141 33 141 160v333h76v-335c0 -172 -111 -223 -215 -223z" />
    <glyph glyph-name="phi" unicode="&#x3c6;" horiz-adv-x="735" 
d="M328 -220v212c-177 9 -273 104 -273 275c0 178 105 277 273 291v100h78v-99c188 -9 274 -109 274 -286c0 -181 -107 -271 -274 -281v-212h-78zM328 55v440c-150 -14 -192 -115 -192 -223c0 -110 47 -203 192 -217zM406 55c153 11 194 103 194 218c0 106 -39 209 -194 222
v-440z" />
    <glyph glyph-name="chi" unicode="&#x3c7;" horiz-adv-x="501" 
d="M497 -225c-77 6 -99 33 -135 111l-104 224l-148 -330h-89l201 404l-119 240c-23 45 -48 66 -79 73l16 65c77 -10 101 -46 134 -114l92 -191l128 289h90l-182 -364l128 -265c27 -55 43 -72 75 -78z" />
    <glyph glyph-name="psi" unicode="&#x3c8;" horiz-adv-x="742" 
d="M332 -220v218c-154 6 -247 70 -247 238v310h76v-304c0 -132 66 -174 171 -179v595h78v-595c112 5 170 55 170 197v286h76v-289c0 -185 -101 -252 -246 -259v-218h-78z" />
    <glyph glyph-name="omega" unicode="&#x3c9;" horiz-adv-x="766" 
d="M239 -9c-122 0 -184 106 -184 246c0 111 23 203 132 309h91c-93 -80 -143 -181 -143 -301c0 -64 16 -184 117 -184c57 0 92 54 92 148v151h78v-148c0 -100 34 -151 92 -151c100 0 117 120 117 184c0 113 -53 222 -146 301h98c98 -96 127 -193 127 -304
c0 -130 -66 -251 -194 -251c-56 0 -120 38 -135 110c-25 -77 -86 -110 -142 -110z" />
    <glyph glyph-name="iotadieresis" unicode="&#x3ca;" horiz-adv-x="266" 
d="M25 659l-56 57l56 56l56 -56zM238 659l-56 57l56 56l56 -56zM92 0v546h80v-546h-80z" />
    <glyph glyph-name="upsilondieresis" unicode="&#x3cb;" horiz-adv-x="613" 
d="M200 659l-56 57l56 56l56 -56zM413 659l-56 57l56 56l56 -56zM309 -12c-115 0 -220 46 -220 202v356h76v-349c0 -117 72 -144 142 -144c78 0 141 33 141 160v333h76v-335c0 -172 -111 -223 -215 -223z" />
    <glyph glyph-name="omicrontonos" unicode="&#x3cc;" horiz-adv-x="604" 
d="M259 631l76 158h80l-89 -158h-67zM299 -12c-151 0 -244 100 -244 279c0 189 105 293 251 293c162 0 242 -104 242 -287c0 -192 -106 -285 -249 -285zM305 53c131 0 163 111 163 220c0 101 -31 222 -165 222c-132 0 -167 -120 -167 -223c0 -114 40 -219 169 -219z" />
    <glyph glyph-name="upsilontonos" unicode="&#x3cd;" horiz-adv-x="613" 
d="M272 631l76 158h80l-89 -158h-67zM309 -12c-115 0 -220 46 -220 202v356h76v-349c0 -117 72 -144 142 -144c78 0 141 33 141 160v333h76v-335c0 -172 -111 -223 -215 -223z" />
    <glyph glyph-name="omegatonos" unicode="&#x3ce;" horiz-adv-x="766" 
d="M335 631l76 158h80l-89 -158h-67zM239 -9c-122 0 -184 106 -184 246c0 111 23 203 132 309h91c-93 -80 -143 -181 -143 -301c0 -64 16 -184 117 -184c57 0 92 54 92 148v151h78v-148c0 -100 34 -151 92 -151c100 0 117 120 117 184c0 113 -53 222 -146 301h98
c98 -96 127 -193 127 -304c0 -130 -66 -251 -194 -251c-56 0 -120 38 -135 110c-25 -77 -86 -110 -142 -110z" />
    <glyph glyph-name="beta1" unicode="&#x3d0;" horiz-adv-x="602" 
d="M303 -8c-141 0 -228 94 -228 338v88c0 198 77 357 252 357c137 0 188 -75 188 -144c0 -67 -48 -117 -131 -159c98 -14 170 -82 170 -223c0 -136 -86 -257 -251 -257zM308 56c106 0 163 76 163 199c0 105 -57 170 -139 170c-68 0 -126 -29 -175 -58v-59
c0 -167 45 -252 151 -252zM157 423c41 24 77 36 113 52c104 45 161 86 161 143s-51 93 -113 93c-98 0 -161 -88 -161 -261v-27z" />
    <glyph glyph-name="uni03D8" unicode="&#x3d8;" horiz-adv-x="800" 
d="M357 -166v157c-140 18 -277 108 -277 364c0 267 148 369 320 369c180 0 320 -116 320 -367c0 -259 -135 -348 -278 -365v-158h-85zM401 57c121 0 240 68 240 299c0 182 -77 300 -241 300s-241 -118 -241 -299c0 -231 122 -300 242 -300z" />
    <glyph glyph-name="uni03D9" unicode="&#x3d9;" horiz-adv-x="623" 
d="M272 -190v215c-131 13 -217 110 -217 262c0 178 113 273 258 273c155 0 254 -99 254 -266c0 -159 -92 -250 -214 -267v-217h-81zM312 85c118 0 179 92 179 205c0 106 -49 205 -181 205c-134 0 -179 -105 -179 -202c0 -109 48 -208 181 -208z" />
    <glyph glyph-name="uni03DA" unicode="&#x3da;" horiz-adv-x="554" 
d="M541 665l-27 -64c-63 29 -116 44 -193 44c-137 0 -182 -89 -182 -221c0 -322 346 -155 346 -367c0 -130 -181 -186 -278 -205l-18 59c102 30 220 61 220 140c0 128 -354 13 -354 362c0 188 90 303 262 303c82 0 159 -13 224 -51z" />
    <glyph glyph-name="uni03DB" unicode="&#x3db;" horiz-adv-x="508" 
d="M460 510l-26 -62c-54 22 -97 33 -159 33c-111 0 -147 -97 -147 -205c0 -103 39 -173 136 -187c88 -10 145 -38 145 -118c0 -88 -87 -131 -226 -133v61c116 1 155 30 155 68c0 36 -31 49 -99 58c-103 12 -186 72 -186 253c0 158 73 270 219 270c58 0 122 -8 188 -38z" />
    <glyph glyph-name="uni03DC" unicode="&#x3dc;" horiz-adv-x="559" 
d="M527 640h-334v-271h312v-68h-312v-301h-82v707h416v-67z" />
    <glyph glyph-name="uni03DD" unicode="&#x3dd;" horiz-adv-x="488" 
d="M447 758l-14 -65c-11 2 -57 12 -100 12c-82 0 -127 -25 -127 -113v-218h117v-66h-117v-528h-79v528h-80v66h80v220c0 149 103 180 205 180c38 0 93 -8 115 -16z" />
    <glyph glyph-name="uni03DE" unicode="&#x3de;" horiz-adv-x="765" 
d="M439 -109l-83 -20l143 385h-347l158 442l84 10l-133 -378h346z" />
    <glyph glyph-name="uni03DF" unicode="&#x3df;" horiz-adv-x="529" 
d="M314 -46l-86 -18l149 347h-335l176 391l85 9l-148 -328h333z" />
    <glyph glyph-name="uni03E0" unicode="&#x3e0;" horiz-adv-x="800" 
d="M550 -64l-42 53c96 75 132 168 134 251c0 11 -1 31 -3 42l-397 -257l-32 51l414 269c-14 37 -33 70 -61 98c-32 -22 -420 -274 -444 -290l-32 52l421 272c-41 31 -105 47 -159 47c-62 0 -124 -19 -179 -52l-32 57c61 44 134 63 217 63c215 0 358 -160 358 -337
c0 -143 -81 -259 -163 -319z" />
    <glyph glyph-name="uni03E1" unicode="&#x3e1;" horiz-adv-x="721" 
d="M506 -74c-8 9 -33 39 -41 49c97 73 132 165 134 244c0 10 0 31 -1 40l-388 -252l-34 53l405 265c-14 31 -37 72 -58 94l-435 -285l-35 54l411 266c-39 23 -100 40 -149 40c-61 0 -120 -19 -175 -49l-32 51c62 43 132 66 213 66c212 0 347 -152 347 -328
c0 -153 -96 -261 -162 -308z" />
    <glyph glyph-name="uni0400" unicode="&#x400;" horiz-adv-x="580" 
d="M111 0v707h396v-67h-314v-251h292v-68h-292v-253h337v-68h-419zM386 747l-224 65l22 71l221 -80z" />
    <glyph glyph-name="afii10023" unicode="&#x401;" horiz-adv-x="580" 
d="M206 747l-58 58l58 58l57 -58zM418 747l-57 58l57 58l58 -58zM111 0v707h396v-67h-314v-251h292v-68h-292v-253h337v-68h-419z" />
    <glyph glyph-name="afii10051" unicode="&#x402;" horiz-adv-x="763" 
d="M484 -220l-49 58c28 22 181 152 181 373c0 97 -51 155 -142 155c-52 0 -125 -17 -180 -46v-320h-82v637h-210v70h550v-70h-258v-245c62 23 127 42 200 42c149 0 205 -101 205 -219c0 -174 -85 -315 -215 -435z" />
    <glyph glyph-name="afii10052" unicode="&#x403;" horiz-adv-x="559" 
d="M226 747l-18 56l221 80l23 -71zM111 0v707h416v-67h-334v-640h-82z" />
    <glyph glyph-name="afii10053" unicode="&#x404;" horiz-adv-x="649" 
d="M422 -10c-233 0 -366 148 -366 359c0 223 131 366 362 366c128 0 189 -27 205 -34l-23 -66c-29 9 -81 28 -180 28c-140 1 -265 -71 -277 -254h374v-67h-373c15 -185 144 -261 296 -261c66 0 128 12 166 24l20 -66c-27 -11 -86 -29 -204 -29z" />
    <glyph glyph-name="afii10054" unicode="&#x405;" horiz-adv-x="554" 
d="M250 -12c-103 0 -157 22 -197 43l28 66c52 -23 100 -37 167 -37c79 0 170 27 170 118c0 177 -346 136 -346 367c0 115 96 171 209 171c81 0 130 -16 172 -34l-23 -61c-42 15 -82 27 -147 27c-76 0 -133 -30 -133 -100c0 -158 349 -138 349 -364
c0 -135 -112 -196 -249 -196z" />
    <glyph glyph-name="afii10055" unicode="&#x406;" horiz-adv-x="305" 
d="M111 0v707h82v-707h-82z" />
    <glyph glyph-name="afii10056" unicode="&#x407;" horiz-adv-x="305" 
d="M111 0v707h82v-707h-82zM47 747l-58 58l58 58l57 -58zM259 747l-57 58l57 58l58 -58z" />
    <glyph glyph-name="afii10057" unicode="&#x408;" horiz-adv-x="305" 
d="M1 -187l-35 60c121 67 145 148 145 278v556h83v-554c0 -152 -27 -266 -193 -340z" />
    <glyph glyph-name="afii10058" unicode="&#x409;" horiz-adv-x="1001" 
d="M42 -22l-36 75c52 24 104 65 124 107c32 65 58 253 73 547h378v-640h126c110 0 164 57 164 149c0 110 -77 147 -188 147h-67v69h66c178 0 276 -73 276 -220c0 -125 -85 -212 -234 -212h-225v640h-221c-21 -251 -35 -425 -82 -524c-29 -62 -84 -106 -154 -138z" />
    <glyph glyph-name="afii10059" unicode="&#x40a;" horiz-adv-x="1038" 
d="M111 0v707h82v-298h344v298h83v-640h125c109 0 163 51 163 138c0 104 -77 136 -187 136h-67v68h66c178 0 275 -69 275 -209c0 -118 -85 -200 -234 -200h-224v341h-344v-341h-82z" />
    <glyph glyph-name="afii10060" unicode="&#x40b;" horiz-adv-x="775" 
d="M212 0v637h-210v70h550v-70h-258v-245c62 25 135 42 200 42c170 0 205 -90 205 -186v-248h-82v249c0 109 -95 117 -154 117c-43 0 -110 -15 -169 -47v-319h-82z" />
    <glyph glyph-name="afii10061" unicode="&#x40c;" horiz-adv-x="626" 
d="M260 758l-18 56l221 80l23 -71zM515 0l-294 368v18l278 321h105l-294 -327l313 -380h-108zM111 0v707h82v-707h-82z" />
    <glyph glyph-name="uni040D" unicode="&#x40d;" horiz-adv-x="790" 
d="M111 0v707h82v-496l-3 -106l63 105l344 497h82v-707h-82v496l3 106l-42 -70l-365 -532h-82zM473 747l-224 65l22 71l221 -80z" />
    <glyph glyph-name="afii10062" unicode="&#x40e;" horiz-adv-x="579" 
d="M296 757c-72 0 -132 32 -172 87l43 42c43 -48 94 -59 129 -59s86 11 129 59l43 -42c-40 -55 -100 -87 -172 -87zM162 -9l-29 72c61 20 105 43 140 125l15 32h-37l-244 487h91l214 -430l170 430h90l-226 -527c-59 -135 -101 -158 -184 -189z" />
    <glyph glyph-name="afii10145" unicode="&#x40f;" horiz-adv-x="764" 
d="M341 -153v153h-230v707h82v-639h377v639h82v-707h-229v-153h-82z" />
    <glyph glyph-name="afii10017" unicode="&#x410;" horiz-adv-x="671" 
d="M13 0l282 707h111l255 -707h-88l-93 264h-280l-104 -264h-83zM226 330h231l-110 319z" />
    <glyph glyph-name="afii10018" unicode="&#x411;" horiz-adv-x="643" 
d="M111 0v707h424v-67h-341v-573h134c111 0 165 55 165 145c0 109 -77 145 -189 145h-79v68h78c179 0 277 -69 277 -217c0 -124 -85 -208 -235 -208h-234z" />
    <glyph glyph-name="afii10019" unicode="&#x412;" horiz-adv-x="648" 
d="M111 0v707h194c160 0 229 -71 229 -174c0 -123 -96 -154 -97 -155v-3c3 0 148 -23 148 -174c0 -117 -68 -201 -250 -201h-224zM194 68h124c98 0 183 22 183 130c0 114 -82 132 -214 132h-93v-262zM194 396h107c109 0 149 38 149 122c0 96 -60 125 -166 125h-90v-247z" />
    <glyph glyph-name="afii10020" unicode="&#x413;" horiz-adv-x="559" 
d="M111 0v707h416v-67h-334v-640h-82z" />
    <glyph glyph-name="afii10021" unicode="&#x414;" horiz-adv-x="727" 
d="M13 -153v221h62c36 66 67 142 84 189c18 53 50 220 61 450h371v-639h93v-221h-80v153h-511v-153h-80zM167 68h342v572h-215c-17 -215 -44 -349 -55 -389c-18 -58 -36 -105 -72 -183z" />
    <glyph glyph-name="afii10022" unicode="&#x415;" horiz-adv-x="580" 
d="M111 0v707h396v-67h-314v-251h292v-68h-292v-253h337v-68h-419z" />
    <glyph glyph-name="afii10024" unicode="&#x416;" horiz-adv-x="897" 
d="M2 0l285 375l-260 332h102l252 -328v-17l-272 -362h-107zM787 0l-271 362v17l251 328h102l-260 -332l285 -375h-107zM407 0v707h83v-707h-83z" />
    <glyph glyph-name="afii10025" unicode="&#x417;" horiz-adv-x="539" 
d="M227 -8c-101 0 -166 24 -207 44l29 66c47 -22 107 -39 173 -39c92 0 170 35 170 133c0 95 -79 126 -182 126h-73v67h74c91 0 151 48 151 131c0 80 -52 123 -138 123c-63 0 -111 -19 -149 -33l-26 59c43 20 101 42 183 42c138 0 214 -75 214 -174
c0 -114 -79 -161 -110 -176v-2c33 -8 140 -39 140 -162c0 -95 -61 -205 -249 -205z" />
    <glyph glyph-name="afii10026" unicode="&#x418;" horiz-adv-x="790" 
d="M111 0v707h82v-496l-3 -106l63 105l344 497h82v-707h-82v496l3 106l-42 -70l-365 -532h-82z" />
    <glyph glyph-name="afii10027" unicode="&#x419;" horiz-adv-x="790" 
d="M396 757c-72 0 -132 32 -172 87l43 42c43 -48 94 -59 129 -59s86 11 129 59l43 -42c-40 -55 -100 -87 -172 -87zM111 0v707h82v-496l-3 -106l63 105l344 497h82v-707h-82v496l3 106l-42 -70l-365 -532h-82z" />
    <glyph glyph-name="afii10028" unicode="&#x41a;" horiz-adv-x="626" 
d="M515 0l-294 368v18l278 321h105l-294 -327l313 -380h-108zM111 0v707h82v-707h-82z" />
    <glyph glyph-name="afii10029" unicode="&#x41b;" horiz-adv-x="692" 
d="M42 -22l-36 75c52 24 104 65 124 107c32 65 58 253 73 547h378v-707h-82v640h-221c-23 -251 -35 -425 -82 -524c-29 -62 -84 -106 -154 -138z" />
    <glyph glyph-name="afii10030" unicode="&#x41c;" horiz-adv-x="952" 
d="M111 0v707h120l234 -658l260 658h116v-707h-82v506l3 107l-241 -613h-118l-216 613l6 -109v-504h-82z" />
    <glyph glyph-name="afii10031" unicode="&#x41d;" horiz-adv-x="775" 
d="M111 0v707h82v-318h388v318h82v-707h-82v321h-388v-321h-82z" />
    <glyph glyph-name="afii10032" unicode="&#x41e;" horiz-adv-x="821" 
d="M402 -12c-220 0 -346 151 -346 367c0 225 148 362 365 362c228 0 343 -156 343 -364c0 -218 -135 -365 -362 -365zM405 56c188 0 277 130 277 298s-96 295 -270 295c-182 0 -274 -127 -274 -293c0 -161 89 -300 267 -300z" />
    <glyph glyph-name="afii10033" unicode="&#x41f;" horiz-adv-x="765" 
d="M111 0v707h542v-707h-82v639h-378v-639h-82z" />
    <glyph glyph-name="afii10034" unicode="&#x420;" horiz-adv-x="590" 
d="M111 0v707h231c141 0 229 -78 229 -221c0 -126 -87 -231 -281 -231h-30v69h36c111 0 188 45 188 157c0 108 -53 159 -164 159h-126v-640h-83z" />
    <glyph glyph-name="afii10035" unicode="&#x421;" horiz-adv-x="649" 
d="M422 -10c-233 0 -366 148 -366 359c0 223 131 366 362 366c128 0 189 -27 205 -34l-23 -66c-29 9 -81 28 -180 28c-147 1 -278 -78 -278 -284c0 -211 136 -298 298 -298c66 0 128 12 166 24l20 -66c-27 -11 -86 -29 -204 -29z" />
    <glyph glyph-name="afii10036" unicode="&#x422;" horiz-adv-x="569" 
d="M243 0v637h-241v70h565v-70h-241v-637h-83z" />
    <glyph glyph-name="afii10037" unicode="&#x423;" horiz-adv-x="579" 
d="M162 -9l-29 72c61 20 105 43 140 125l15 32h-37l-244 487h91l214 -430l170 430h90l-226 -527c-59 -135 -101 -158 -184 -189z" />
    <glyph glyph-name="afii10038" unicode="&#x424;" horiz-adv-x="827" 
d="M372 0v85c-183 0 -316 93 -316 288s133 288 316 288v76h82v-76c184 0 316 -93 316 -288s-132 -288 -316 -288v-85h-82zM454 151c145 0 234 79 234 222c0 144 -89 222 -234 222v-444zM372 151v444c-144 0 -234 -78 -234 -222c0 -143 90 -222 234 -222z" />
    <glyph glyph-name="afii10039" unicode="&#x425;" horiz-adv-x="607" 
d="M6 0l249 374l-206 333h94l161 -267l172 267h89l-218 -331l234 -376h-96l-186 310l-199 -310h-94z" />
    <glyph glyph-name="afii10040" unicode="&#x426;" horiz-adv-x="780" 
d="M657 -153v153h-546v707h82v-639h369v639h83v-639h92v-221h-80z" />
    <glyph glyph-name="afii10041" unicode="&#x427;" horiz-adv-x="682" 
d="M488 0v323c-61 -25 -138 -42 -203 -42c-170 0 -210 90 -210 186v240h83v-241c0 -109 99 -117 157 -117c43 0 115 15 173 47v311h83v-707h-83z" />
    <glyph glyph-name="afii10042" unicode="&#x428;" horiz-adv-x="1020" 
d="M111 0v707h82v-639h276v639h82v-639h276v639h82v-707h-798z" />
    <glyph glyph-name="afii10043" unicode="&#x429;" horiz-adv-x="1044" 
d="M922 -153v153h-811v707h82v-639h276v639h82v-639h276v639h82v-639h93v-221h-80z" />
    <glyph glyph-name="afii10044" unicode="&#x42a;" horiz-adv-x="700" 
d="M198 0v638h-196v69h279v-640h126c109 0 164 57 164 149c0 110 -78 147 -189 147h-69v69h69c178 0 275 -73 275 -220c0 -125 -85 -212 -234 -212h-225z" />
    <glyph glyph-name="afii10045" unicode="&#x42b;" horiz-adv-x="873" 
d="M111 0v707h82v-640h126c110 0 164 57 164 149c0 110 -77 147 -188 147h-69v69h68c178 0 276 -73 276 -220c0 -125 -85 -212 -234 -212h-225zM680 0v707h82v-707h-82z" />
    <glyph glyph-name="afii10046" unicode="&#x42c;" horiz-adv-x="613" 
d="M111 0v707h82v-640h126c110 0 164 58 164 150c0 110 -77 146 -188 146h-69v69h68c178 0 276 -72 276 -219c0 -124 -85 -213 -234 -213h-225z" />
    <glyph glyph-name="afii10047" unicode="&#x42d;" horiz-adv-x="649" 
d="M227 -10c-118 0 -177 18 -204 29l20 66c38 -12 100 -24 166 -24c153 0 283 77 296 261h-373v67h373c-14 185 -138 254 -276 254c-99 0 -152 -19 -180 -28l-23 66c16 7 77 34 205 34c231 0 361 -135 361 -358c0 -211 -132 -367 -365 -367z" />
    <glyph glyph-name="afii10048" unicode="&#x42e;" horiz-adv-x="1098" 
d="M679 -12c-208 0 -332 135 -345 333h-141v-321h-82v707h82v-318h142c14 204 157 328 363 328c228 0 344 -156 344 -364c0 -218 -136 -365 -363 -365zM682 56c188 0 277 130 277 298s-96 295 -270 295c-182 0 -274 -127 -274 -293c0 -161 89 -300 267 -300z" />
    <glyph glyph-name="afii10049" unicode="&#x42f;" horiz-adv-x="674" 
d="M51 -11l-15 67c67 20 91 39 144 133l64 113c-88 22 -141 93 -141 188c0 139 98 217 229 217h231v-707h-84v281h-95c-21 0 -41 1 -58 3l-86 -152c-52 -92 -104 -133 -189 -143zM378 347h101v293h-123c-104 0 -166 -50 -166 -150c0 -106 78 -143 188 -143z" />
    <glyph glyph-name="afii10065" unicode="&#x430;" horiz-adv-x="570" 
d="M198 -8c-98 0 -155 54 -155 155c0 133 120 162 209 164l130 2v73c0 87 -43 104 -140 104c-50 0 -112 -18 -135 -25l-17 62c24 10 94 32 175 32c121 0 194 -39 194 -147v-303c0 -41 27 -50 51 -53l-5 -62h-14c-45 0 -97 20 -103 69c-26 -17 -82 -71 -190 -71zM218 56
c69 0 150 52 164 60v142l-131 -5c-85 -3 -132 -44 -132 -99c0 -73 39 -98 99 -98z" />
    <glyph glyph-name="afii10066" unicode="&#x431;" horiz-adv-x="604" 
d="M296 -9c-146 0 -233 94 -233 319c0 107 20 285 77 342c52 54 192 84 363 119l14 -73c-152 -28 -290 -54 -323 -90c-29 -31 -41 -104 -47 -154c46 26 112 53 188 53c127 0 213 -64 213 -234c0 -194 -109 -282 -252 -282zM303 56c130 0 166 111 166 215
c0 96 -40 173 -148 173c-71 0 -122 -25 -178 -54c-1 -20 -2 -44 -2 -64c0 -183 51 -270 162 -270z" />
    <glyph glyph-name="afii10067" unicode="&#x432;" horiz-adv-x="559" 
d="M93 0v546h198c121 0 184 -52 184 -137c0 -59 -34 -104 -79 -121c55 -8 108 -55 108 -131c0 -93 -69 -157 -203 -157h-208zM172 65h111c72 0 140 15 140 91c0 74 -58 96 -156 96h-95v-187zM172 310h111c79 0 114 35 114 89c0 64 -50 82 -129 82h-96v-171z" />
    <glyph glyph-name="afii10068" unicode="&#x433;" horiz-adv-x="470" 
d="M93 0v546h340v-67h-261v-479h-79z" />
    <glyph glyph-name="afii10069" unicode="&#x434;" horiz-adv-x="616" 
d="M14 -147v213h54c36 57 52 103 71 171c13 43 30 182 34 309h330v-480h78v-213h-74v147h-419v-147h-74zM154 66h270v414h-181c-12 -130 -21 -217 -36 -275c-11 -47 -26 -84 -53 -139z" />
    <glyph glyph-name="afii10070" unicode="&#x435;" horiz-adv-x="543" 
d="M313 -12c-158 0 -258 66 -258 275c0 221 107 297 244 297c135 0 197 -92 197 -273v-29h-361c3 -174 89 -202 202 -202c40 0 111 16 135 23l14 -65c-18 -7 -84 -26 -173 -26zM136 317h277c0 110 -40 184 -126 184c-82 0 -141 -62 -151 -184z" />
    <glyph glyph-name="afii10072" unicode="&#x436;" horiz-adv-x="773" 
d="M734 -8c-37 2 -82 12 -150 101l-144 189l206 264h91l-206 -260l100 -133c47 -64 92 -93 122 -102zM39 -8l-18 59c29 9 74 38 122 102l100 133l-207 260h91l206 -264l-144 -189c-68 -89 -112 -99 -150 -101zM347 0v546h79v-546h-79z" />
    <glyph glyph-name="afii10073" unicode="&#x437;" horiz-adv-x="458" 
d="M203 -9c-61 0 -122 12 -178 40l26 63c45 -23 95 -37 150 -37c66 0 120 31 120 100c0 72 -63 92 -135 92h-59v62h57c84 0 114 51 114 96c0 49 -33 85 -102 85c-51 0 -91 -14 -126 -28l-21 59c45 23 107 35 158 35c123 0 171 -70 171 -138c0 -66 -39 -112 -87 -132
c50 -11 112 -50 112 -135c0 -76 -54 -162 -200 -162z" />
    <glyph glyph-name="afii10074" unicode="&#x438;" horiz-adv-x="647" 
d="M93 0v546h79v-373l-2 -69l42 70l263 372h79v-546h-79v372l2 69l-42 -70l-263 -371h-79z" />
    <glyph glyph-name="afii10075" unicode="&#x439;" horiz-adv-x="647" 
d="M324 648c-69 0 -128 36 -164 90l40 43c41 -48 84 -63 124 -63s83 15 124 63l40 -43c-36 -54 -95 -90 -164 -90zM93 0v546h79v-373l-2 -69l42 70l263 372h79v-546h-79v372l2 69l-42 -70l-263 -371h-79z" />
    <glyph glyph-name="afii10076" unicode="&#x43a;" horiz-adv-x="551" 
d="M516 -8c-37 2 -92 15 -164 101l-157 190l221 263h92l-225 -259l116 -134c52 -60 100 -93 133 -102zM93 0v546h79v-546h-79z" />
    <glyph glyph-name="afii10077" unicode="&#x43b;" horiz-adv-x="587" 
d="M32 -17l-26 68c37 16 77 37 102 84c34 65 53 223 59 411h327v-546h-78v480h-177c-14 -195 -31 -314 -68 -386c-29 -56 -73 -90 -139 -111z" />
    <glyph glyph-name="afii10078" unicode="&#x43c;" horiz-adv-x="765" 
d="M93 0v546h109l172 -493l191 493h106v-546h-76v365l3 89l-172 -454h-106l-156 455l5 -90v-365h-76z" />
    <glyph glyph-name="afii10079" unicode="&#x43d;" horiz-adv-x="627" 
d="M93 0v546h79v-239h283v239h79v-546h-79v240h-283v-240h-79z" />
    <glyph glyph-name="afii10080" unicode="&#x43e;" horiz-adv-x="604" 
d="M299 -12c-151 0 -244 100 -244 279c0 189 105 293 251 293c162 0 242 -104 242 -287c0 -192 -106 -285 -249 -285zM305 53c131 0 163 111 163 220c0 101 -31 222 -165 222c-132 0 -167 -120 -167 -223c0 -114 40 -219 169 -219z" />
    <glyph glyph-name="afii10081" unicode="&#x43f;" horiz-adv-x="617" 
d="M93 0v546h431v-546h-79v480h-273v-480h-79z" />
    <glyph glyph-name="afii10082" unicode="&#x440;" horiz-adv-x="601" 
d="M93 -220v766h79v-45c36 26 93 57 151 57c142 0 222 -99 222 -269c0 -228 -125 -300 -262 -300c-47 0 -84 5 -111 9v-218h-79zM286 55c119 0 179 93 179 214c0 115 -28 221 -158 221c-54 0 -118 -40 -135 -52v-372c24 -3 50 -11 114 -11z" />
    <glyph glyph-name="afii10083" unicode="&#x441;" horiz-adv-x="498" 
d="M333 -9c-194 0 -278 83 -278 282c0 177 100 287 256 287c74 0 121 -16 149 -31l-24 -62c-29 12 -66 27 -127 27c-104 0 -173 -79 -173 -218c0 -148 47 -217 205 -217c44 0 84 11 105 14l13 -64c-20 -6 -70 -18 -126 -18z" />
    <glyph glyph-name="afii10084" unicode="&#x442;" horiz-adv-x="505" 
d="M214 0v479h-186v67h450v-67h-186v-479h-78z" />
    <glyph glyph-name="afii10085" unicode="&#x443;" horiz-adv-x="517" 
d="M156 -220l75 220h-37l-177 546h86l119 -390l30 -98l32 96l135 392h81l-267 -766h-77z" />
    <glyph glyph-name="afii10086" unicode="&#x444;" horiz-adv-x="765" 
d="M344 -220v212c-166 0 -289 80 -289 282s126 283 289 284v196h77v-196c167 0 289 -81 289 -283c0 -205 -129 -282 -289 -283v-212h-77zM344 55v438c-146 0 -208 -85 -208 -219s63 -219 208 -219zM421 56c145 0 209 85 209 219c0 132 -64 217 -209 218v-437z" />
    <glyph glyph-name="afii10087" unicode="&#x445;" horiz-adv-x="507" 
d="M18 0l190 279l-179 267h92l132 -211l133 211h88l-176 -265l190 -281h-95l-140 224l-142 -224h-93z" />
    <glyph glyph-name="afii10088" unicode="&#x446;" horiz-adv-x="636" 
d="M526 -147v147h-433v546h79v-480h272v480h78v-480h78v-213h-74z" />
    <glyph glyph-name="afii10089" unicode="&#x447;" horiz-adv-x="564" 
d="M392 0v239c-49 -14 -98 -28 -164 -28c-134 0 -167 62 -167 160v175h78v-166c0 -61 14 -102 116 -102c55 0 99 14 137 27v241h79v-546h-79z" />
    <glyph glyph-name="afii10090" unicode="&#x448;" horiz-adv-x="861" 
d="M93 0v546h79v-480h219v480h79v-480h219v480h79v-546h-675z" />
    <glyph glyph-name="afii10091" unicode="&#x449;" horiz-adv-x="882" 
d="M772 -147v147h-679v546h79v-480h219v480h79v-480h219v480h79v-480h78v-213h-74z" />
    <glyph glyph-name="afii10092" unicode="&#x44a;" horiz-adv-x="599" 
d="M164 0v479h-160v67h238v-479h120c74 0 120 37 120 105c0 78 -61 107 -141 107h-65v67h71c136 0 215 -60 215 -175c0 -98 -67 -171 -173 -171h-225z" />
    <glyph glyph-name="afii10093" unicode="&#x44b;" horiz-adv-x="748" 
d="M93 0v546h79v-479h120c73 0 117 37 117 105c0 78 -58 107 -139 107h-64v67h71c136 0 213 -60 213 -175c0 -98 -65 -171 -171 -171h-226zM574 0v546h81v-546h-81z" />
    <glyph glyph-name="afii10094" unicode="&#x44c;" horiz-adv-x="529" 
d="M93 0v546h79v-479h120c73 0 119 37 119 105c0 78 -60 107 -141 107h-64v67h71c136 0 215 -60 215 -175c0 -98 -67 -171 -173 -171h-226z" />
    <glyph glyph-name="afii10095" unicode="&#x44d;" horiz-adv-x="502" 
d="M192 -11c-69 0 -123 20 -155 36l25 61c25 -12 65 -32 126 -32c120 0 172 86 177 190h-228v66h228c-7 92 -48 184 -164 184c-61 0 -106 -19 -131 -29l-25 62c37 17 89 32 158 32c161 0 243 -99 243 -285c0 -183 -109 -285 -254 -285z" />
    <glyph glyph-name="afii10096" unicode="&#x44e;" horiz-adv-x="834" 
d="M530 -9c-144 0 -234 87 -243 249h-115v-240h-79v546h79v-239h116c14 163 114 251 248 251c163 0 243 -102 243 -285c0 -192 -106 -282 -249 -282zM535 56c132 0 164 108 164 217c0 101 -31 221 -166 221c-131 0 -167 -119 -167 -222c0 -114 40 -216 169 -216z" />
    <glyph glyph-name="afii10097" unicode="&#x44f;" horiz-adv-x="576" 
d="M55 -6l-12 63c54 12 79 32 116 86c2 1 43 70 45 73c-65 20 -107 75 -107 149c0 113 85 181 197 181h189v-546h-79v197h-81c-11 0 -30 0 -39 1l-71 -108c-57 -82 -112 -94 -158 -96zM315 258h89v221h-105c-79 0 -121 -41 -121 -115c0 -76 61 -106 137 -106z" />
    <glyph glyph-name="uni0450" unicode="&#x450;" horiz-adv-x="543" 
d="M313 -12c-158 0 -258 66 -258 275c0 221 107 297 244 297c135 0 197 -92 197 -273v-29h-361c3 -174 89 -202 202 -202c40 0 111 16 135 23l14 -65c-18 -7 -84 -26 -173 -26zM136 317h277c0 110 -40 184 -126 184c-82 0 -141 -62 -151 -184zM329 619l-193 120l36 60
l189 -129z" />
    <glyph glyph-name="afii10071" unicode="&#x451;" horiz-adv-x="543" 
d="M170 659l-56 57l56 56l56 -56zM383 659l-56 57l56 56l56 -56zM313 -12c-158 0 -258 66 -258 275c0 221 107 297 244 297c135 0 197 -92 197 -273v-29h-361c3 -174 89 -202 202 -202c40 0 111 16 135 23l14 -65c-18 -7 -84 -26 -173 -26zM136 317h277
c0 110 -40 184 -126 184c-82 0 -141 -62 -151 -184z" />
    <glyph glyph-name="afii10099" unicode="&#x452;" horiz-adv-x="627" 
d="M367 -220l-50 51c86 78 164 212 164 397c0 108 -35 180 -124 180c-79 0 -151 -51 -175 -66v-342h-78v574h-107v65h107v115h78v-115h191v-65h-191v-170c38 26 108 75 190 75c142 0 190 -116 190 -242c0 -230 -114 -389 -195 -457z" />
    <glyph glyph-name="afii10100" unicode="&#x453;" horiz-adv-x="470" 
d="M183 619l-30 51l188 129l37 -60zM93 0v546h340v-67h-261v-479h-79z" />
    <glyph glyph-name="afii10101" unicode="&#x454;" horiz-adv-x="498" 
d="M333 -11c-194 0 -278 85 -278 284c0 177 100 287 256 287c74 0 121 -16 149 -31l-24 -62c-29 12 -66 27 -127 27c-93 0 -158 -66 -170 -178h230v-67h-232c6 -130 57 -191 205 -191c43 0 83 10 104 13l13 -64c-20 -5 -69 -18 -126 -18z" />
    <glyph glyph-name="afii10102" unicode="&#x455;" horiz-adv-x="465" 
d="M212 -11c-73 0 -128 13 -160 23l14 65c35 -8 90 -23 139 -23c85 0 137 33 137 85c0 126 -275 84 -275 271c0 98 80 150 187 150c59 0 112 -17 132 -23l-14 -63c-25 7 -66 20 -126 20c-69 0 -102 -36 -102 -79c0 -126 273 -91 273 -269c0 -125 -115 -157 -205 -157z" />
    <glyph glyph-name="afii10103" unicode="&#x456;" horiz-adv-x="267" 
d="M93 0v546h80v-546h-80zM132 649l-65 67l65 66l67 -66z" />
    <glyph glyph-name="afii10104" unicode="&#x457;" horiz-adv-x="267" 
d="M93 0v546h80v-546h-80zM26 659l-56 57l56 56l56 -56zM239 659l-56 57l56 56l56 -56z" />
    <glyph glyph-name="afii10105" unicode="&#x458;" horiz-adv-x="267" 
d="M-11 -220c-30 0 -56 6 -71 11l14 64c9 -2 40 -7 57 -7c82 0 104 55 104 137v561h79v-562c0 -160 -81 -204 -183 -204zM131 649l-65 67l65 66l67 -66z" />
    <glyph glyph-name="afii10106" unicode="&#x459;" horiz-adv-x="852" 
d="M32 -17l-26 68c37 15 78 37 102 84c34 65 53 223 59 411h327v-479h120c74 0 120 37 120 105c0 78 -61 107 -141 107h-65v67h71c136 0 215 -60 215 -175c0 -98 -66 -171 -173 -171h-225v480h-177c-15 -190 -31 -309 -66 -382c-29 -58 -74 -93 -141 -115z" />
    <glyph glyph-name="afii10107" unicode="&#x45a;" horiz-adv-x="878" 
d="M93 0v546h79v-222h273v222h79v-479h118c72 0 117 32 117 95c0 72 -59 95 -138 95h-63v67h71c134 0 212 -55 212 -163c0 -92 -66 -161 -171 -161h-225v257h-273v-257h-79z" />
    <glyph glyph-name="afii10108" unicode="&#x45b;" horiz-adv-x="628" 
d="M104 0v574h-107v65h107v115h78v-115h191v-65h-191v-170c38 27 100 75 191 75c160 0 168 -113 168 -207v-272h-75v267c0 95 -13 142 -114 142c-63 0 -146 -52 -170 -67v-342h-78z" />
    <glyph glyph-name="afii10109" unicode="&#x45c;" horiz-adv-x="551" 
d="M213 619l-30 51l188 129l37 -60zM516 -8c-37 2 -92 15 -164 101l-157 190l221 263h92l-225 -259l116 -134c52 -60 100 -93 133 -102zM93 0v546h79v-546h-79z" />
    <glyph glyph-name="uni045D" unicode="&#x45d;" horiz-adv-x="647" 
d="M93 0v546h79v-373l-2 -69l42 70l263 372h79v-546h-79v372l2 69l-42 -70l-263 -371h-79zM371 619l-193 120l36 60l189 -129z" />
    <glyph glyph-name="afii10110" unicode="&#x45e;" horiz-adv-x="517" 
d="M156 -220l75 220h-37l-177 546h86l119 -390l30 -98l32 96l135 392h81l-267 -766h-77zM258 657c-68 0 -126 35 -162 89l39 42c41 -48 83 -62 123 -62s83 14 123 62l39 -42c-35 -54 -94 -89 -162 -89z" />
    <glyph glyph-name="afii10193" unicode="&#x45f;" horiz-adv-x="618" 
d="M272 -147v147h-179v546h79v-480h274v480h78v-546h-178v-147h-74z" />
    <glyph glyph-name="afii10146" unicode="&#x462;" horiz-adv-x="631" 
d="M152 0v533h-191v68h191v106h82v-106h223v-67h-223v-467h126c110 0 164 46 164 136c0 107 -77 135 -188 135h-69v68h70c178 0 274 -64 274 -207c0 -121 -85 -199 -235 -199h-224z" />
    <glyph glyph-name="afii10194" unicode="&#x463;" horiz-adv-x="555" 
d="M121 0v479h-171v67h171v161h79v-161h195v-67h-195v-412h120c73 0 119 35 119 102c0 76 -60 104 -141 104h-64v66h71c136 0 215 -56 215 -171c0 -98 -67 -168 -173 -168h-226z" />
    <glyph glyph-name="afii10147" unicode="&#x472;" horiz-adv-x="821" 
d="M402 -12c-220 0 -346 151 -346 367c0 221 148 362 365 362c228 0 343 -158 343 -364c0 -216 -135 -365 -362 -365zM405 56c177 0 266 116 275 270h-541c10 -148 99 -270 266 -270zM140 386h540c-12 151 -106 263 -268 263c-171 0 -262 -112 -272 -263z" />
    <glyph glyph-name="afii10195" unicode="&#x473;" horiz-adv-x="604" 
d="M299 -12c-151 0 -244 100 -244 279c0 189 105 293 251 293c162 0 242 -104 242 -287c0 -192 -106 -285 -249 -285zM305 53c119 0 157 94 162 192h-331c6 -102 49 -192 169 -192zM136 303h331c-6 91 -43 192 -164 192c-120 0 -160 -99 -167 -192z" />
    <glyph glyph-name="afii10148" unicode="&#x474;" horiz-adv-x="653" 
d="M256 0l-255 707h89l225 -642l180 460c48 121 88 176 134 206l59 -47c-39 -26 -74 -69 -112 -167l-206 -517h-114z" />
    <glyph glyph-name="afii10196" unicode="&#x475;" horiz-adv-x="522" 
d="M196 0l-179 546h87l114 -375l35 -116l39 118l67 193c33 97 79 168 124 198l58 -46c-45 -32 -83 -92 -116 -186l-118 -332h-111z" />
    <glyph glyph-name="afii10050" unicode="&#x490;" horiz-adv-x="559" 
d="M111 0v707h328v161h80v-228h-326v-640h-82z" />
    <glyph glyph-name="afii10098" unicode="&#x491;" horiz-adv-x="470" 
d="M93 0v546h264v114h75l1 -181h-261v-479h-79z" />
    <glyph glyph-name="afii10798" unicode="&#x4d8;" horiz-adv-x="756" 
d="M364 -12c-212 0 -311 140 -317 344v56h568c-10 150 -93 261 -254 261c-108 0 -204 -42 -252 -67l-26 61c63 35 167 74 290 74c224 0 326 -158 326 -364c0 -216 -110 -365 -335 -365zM367 56c177 0 240 115 248 268h-485c9 -147 71 -268 237 -268z" />
    <glyph glyph-name="afii10846" unicode="&#x4d9;" horiz-adv-x="543" 
d="M230 560c158 0 258 -66 258 -275c0 -221 -107 -297 -244 -297c-135 0 -197 92 -197 273v29h361c-3 174 -89 202 -202 202c-40 0 -111 -16 -135 -23l-14 65c18 7 84 26 173 26zM407 231h-277c0 -110 40 -184 126 -184c82 0 141 62 151 184z" />
    <glyph glyph-name="uni1E47" unicode="&#x1e47;" horiz-adv-x="619" 
d="M93 0v546h79v-62c50 35 110 76 190 76c161 0 170 -114 170 -208v-352h-77v337c0 94 -13 153 -113 153c-63 0 -127 -41 -170 -67v-423h-79zM317 -215l-65 67l65 66l67 -66z" />
    <glyph glyph-name="uni1E63" unicode="&#x1e63;" horiz-adv-x="465" 
d="M212 -11c-73 0 -128 13 -160 23l14 65c35 -8 90 -23 139 -23c85 0 137 33 137 85c0 126 -275 84 -275 271c0 98 80 150 187 150c59 0 112 -17 132 -23l-14 -63c-25 7 -66 20 -126 20c-69 0 -102 -36 -102 -79c0 -126 273 -91 273 -269c0 -125 -115 -157 -205 -157z
M220 -215l-65 67l65 66l67 -66z" />
    <glyph glyph-name="Wgrave" unicode="&#x1e80;" horiz-adv-x="1011" 
d="M207 0l-196 707h84l177 -657l193 483l-59 174h83l221 -656l211 656h79l-232 -707h-119l-149 437l-173 -437h-120zM570 747l-224 65l22 71l221 -80z" />
    <glyph glyph-name="wgrave" unicode="&#x1e81;" horiz-adv-x="877" 
d="M187 0l-170 546h83l141 -489l148 489h102l130 -489l159 489h80l-188 -546h-107l-109 399l-18 75l-19 -74l-126 -400h-106zM505 619l-193 120l36 60l189 -129z" />
    <glyph glyph-name="Wacute" unicode="&#x1e82;" horiz-adv-x="1011" 
d="M415 747l-18 56l221 80l23 -71zM207 0l-196 707h84l177 -657l193 483l-59 174h83l221 -656l211 656h79l-232 -707h-119l-149 437l-173 -437h-120z" />
    <glyph glyph-name="wacute" unicode="&#x1e83;" horiz-adv-x="877" 
d="M382 619l-30 51l188 129l37 -60zM187 0l-170 546h83l141 -489l148 489h102l130 -489l159 489h80l-188 -546h-107l-109 399l-18 75l-19 -74l-126 -400h-106z" />
    <glyph glyph-name="Wdieresis" unicode="&#x1e84;" horiz-adv-x="1011" 
d="M394 747l-58 58l58 58l57 -58zM606 747l-57 58l57 58l58 -58zM207 0l-196 707h84l177 -657l193 483l-59 174h83l221 -656l211 656h79l-232 -707h-119l-149 437l-173 -437h-120z" />
    <glyph glyph-name="wdieresis" unicode="&#x1e85;" horiz-adv-x="877" 
d="M330 659l-56 57l56 56l56 -56zM543 659l-56 57l56 56l56 -56zM187 0l-170 546h83l141 -489l148 489h102l130 -489l159 489h80l-188 -546h-107l-109 399l-18 75l-19 -74l-126 -400h-106z" />
    <glyph glyph-name="uni1EBD" unicode="&#x1ebd;" horiz-adv-x="543" 
d="M313 -12c-158 0 -258 66 -258 275c0 221 107 297 244 297c135 0 197 -92 197 -273v-29h-361c3 -174 89 -202 202 -202c40 0 111 16 135 23l14 -65c-18 -7 -84 -26 -173 -26zM136 317h277c0 110 -40 184 -126 184c-82 0 -141 -62 -151 -184zM347 645c-47 0 -80 37 -124 37
c-31 0 -46 -6 -69 -25l-31 46c11 10 44 45 105 45c53 0 84 -37 123 -37c34 0 58 19 71 28l30 -44c-9 -11 -46 -50 -105 -50z" />
    <glyph glyph-name="Ygrave" unicode="&#x1ef2;" horiz-adv-x="568" 
d="M236 0v268l-231 439h92l183 -366l195 366h89l-246 -439v-268h-82zM352 747l-224 65l22 71l221 -80z" />
    <glyph glyph-name="ygrave" unicode="&#x1ef3;" horiz-adv-x="517" 
d="M156 -220l75 220h-37l-177 546h86l119 -390l30 -98l32 96l135 392h81l-267 -766h-77zM321 619l-193 120l36 60l189 -129z" />
    <glyph glyph-name="uni1F00" unicode="&#x1f00;" horiz-adv-x="615" 
d="M278 630c0 0 33 50 33 109c0 18 -4 34 -10 50h73c9 -20 13 -39 13 -57c0 -41 -19 -76 -43 -102h-66zM250 -8c-76 0 -195 32 -195 256c0 198 118 312 259 312c79 0 139 -15 187 -35v-412c0 -41 18 -56 52 -57l-6 -62c-14 1 -32 2 -44 6c-54 15 -74 48 -75 122
c-23 -70 -103 -130 -178 -130zM258 59c71 0 153 66 165 197v217c-24 10 -57 21 -109 21c-131 0 -179 -119 -179 -244c0 -134 51 -191 123 -191z" />
    <glyph glyph-name="uni1F01" unicode="&#x1f01;" horiz-adv-x="615" 
d="M250 -8c-76 0 -195 32 -195 256c0 198 118 312 259 312c79 0 139 -15 187 -35v-412c0 -41 18 -56 52 -57l-6 -62c-14 1 -32 2 -44 6c-54 15 -74 48 -75 122c-23 -70 -103 -130 -178 -130zM258 59c71 0 153 66 165 197v217c-24 10 -57 21 -109 21
c-131 0 -179 -119 -179 -244c0 -134 51 -191 123 -191zM327 630c-25 26 -44 61 -44 102c0 18 4 37 13 57h74c-7 -16 -11 -32 -11 -50c0 -59 33 -109 33 -109h-65z" />
    <glyph glyph-name="uni1F02" unicode="&#x1f02;" horiz-adv-x="615" 
d="M250 -8c-76 0 -195 32 -195 256c0 198 118 312 259 312c79 0 139 -15 187 -35v-412c0 -41 18 -56 52 -57l-6 -62c-14 1 -32 2 -44 6c-54 15 -74 48 -75 122c-23 -70 -103 -130 -178 -130zM258 59c71 0 153 66 165 197v217c-24 10 -57 21 -109 21
c-131 0 -179 -119 -179 -244c0 -134 51 -191 123 -191zM197 630c0 0 33 50 33 109c0 18 -3 34 -10 50h74c9 -20 13 -39 13 -57c0 -41 -20 -76 -44 -102h-66zM410 630l-88 159h80l76 -159h-68z" />
    <glyph glyph-name="uni1F03" unicode="&#x1f03;" horiz-adv-x="615" 
d="M250 -8c-76 0 -195 32 -195 256c0 198 118 312 259 312c79 0 139 -15 187 -35v-412c0 -41 18 -56 52 -57l-6 -62c-14 1 -32 2 -44 6c-54 15 -74 48 -75 122c-23 -70 -103 -130 -178 -130zM258 59c71 0 153 66 165 197v217c-24 10 -57 21 -109 21
c-131 0 -179 -119 -179 -244c0 -134 51 -191 123 -191zM235 630c-25 26 -44 61 -44 102c0 18 4 37 13 57h74c-7 -16 -10 -32 -10 -50c0 -59 32 -109 32 -109h-65zM384 630l-88 159h80l76 -159h-68z" />
    <glyph glyph-name="uni1F04" unicode="&#x1f04;" horiz-adv-x="615" 
d="M250 -8c-76 0 -195 32 -195 256c0 198 118 312 259 312c79 0 139 -15 187 -35v-412c0 -41 18 -56 52 -57l-6 -62c-14 1 -32 2 -44 6c-54 15 -74 48 -75 122c-23 -70 -103 -130 -178 -130zM258 59c71 0 153 66 165 197v217c-24 10 -57 21 -109 21
c-131 0 -179 -119 -179 -244c0 -134 51 -191 123 -191zM225 630c0 0 33 50 33 109c0 18 -3 34 -10 50h74c8 -20 13 -39 13 -57c0 -41 -20 -76 -44 -102h-66zM331 630l77 159h80l-89 -159h-68z" />
    <glyph glyph-name="uni1F05" unicode="&#x1f05;" horiz-adv-x="615" 
d="M250 -8c-76 0 -195 32 -195 256c0 198 118 312 259 312c79 0 139 -15 187 -35v-412c0 -41 18 -56 52 -57l-6 -62c-14 1 -32 2 -44 6c-54 15 -74 48 -75 122c-23 -70 -103 -130 -178 -130zM258 59c71 0 153 66 165 197v217c-24 10 -57 21 -109 21
c-131 0 -179 -119 -179 -244c0 -134 51 -191 123 -191zM259 630c-25 26 -44 61 -44 102c0 18 4 37 13 57h74c-7 -16 -10 -32 -10 -50c0 -59 32 -109 32 -109h-65zM346 630l76 159h81l-89 -159h-68z" />
    <glyph glyph-name="uni1F06" unicode="&#x1f06;" horiz-adv-x="615" 
d="M250 -8c-76 0 -195 32 -195 256c0 198 118 312 259 312c79 0 139 -15 187 -35v-412c0 -41 18 -56 52 -57l-6 -62c-14 1 -32 2 -44 6c-54 15 -74 48 -75 122c-23 -70 -103 -130 -178 -130zM258 59c71 0 153 66 165 197v217c-24 10 -57 21 -109 21
c-131 0 -179 -119 -179 -244c0 -134 51 -191 123 -191zM397 800c-47 0 -84 37 -125 37c-33 0 -48 -9 -70 -25l-31 48c11 10 44 44 108 44c50 0 82 -36 120 -36c33 0 58 18 71 28l30 -47c-8 -12 -45 -49 -103 -49zM279 616c0 0 33 50 33 109c0 17 -3 34 -10 50h74
c8 -20 13 -39 13 -57c0 -42 -20 -76 -44 -102h-66z" />
    <glyph glyph-name="uni1F07" unicode="&#x1f07;" horiz-adv-x="615" 
d="M250 -8c-76 0 -195 32 -195 256c0 198 118 312 259 312c79 0 139 -15 187 -35v-412c0 -41 18 -56 52 -57l-6 -62c-14 1 -32 2 -44 6c-54 15 -74 48 -75 122c-23 -70 -103 -130 -178 -130zM258 59c71 0 153 66 165 197v217c-24 10 -57 21 -109 21
c-131 0 -179 -119 -179 -244c0 -134 51 -191 123 -191zM378 800c-47 0 -84 37 -125 37c-33 0 -47 -9 -70 -25l-31 48c11 10 44 44 108 44c51 0 82 -36 120 -36c34 0 58 18 71 28l30 -47c-8 -12 -45 -49 -103 -49zM309 616c-25 26 -44 60 -44 102c0 18 4 37 13 57h74
c-7 -16 -10 -33 -10 -50c0 -59 33 -109 33 -109h-66z" />
    <glyph glyph-name="uni1F08" unicode="&#x1f08;" horiz-adv-x="671" 
d="M55 549c0 0 33 50 33 109c0 18 -4 34 -10 50h73c9 -20 13 -39 13 -57c0 -41 -19 -76 -43 -102h-66zM13 0l282 707h111l255 -707h-88l-93 264h-280l-104 -264h-83zM226 330h231l-110 319z" />
    <glyph glyph-name="uni1F09" unicode="&#x1f09;" horiz-adv-x="671" 
d="M13 0l282 707h111l255 -707h-88l-93 264h-280l-104 -264h-83zM226 330h231l-110 319zM82 549c-25 26 -44 61 -44 102c0 18 4 37 13 57h74c-7 -16 -11 -32 -11 -50c0 -59 33 -109 33 -109h-65z" />
    <glyph glyph-name="uni1F0A" unicode="&#x1f0a;" horiz-adv-x="671" 
d="M13 0l282 707h111l255 -707h-88l-93 264h-280l-104 -264h-83zM226 330h231l-110 319zM-82 549c0 0 33 50 33 109c0 18 -3 34 -10 50h74c9 -20 13 -39 13 -57c0 -41 -20 -76 -44 -102h-66zM131 549l-88 159h80l76 -159h-68z" />
    <glyph glyph-name="uni1F0B" unicode="&#x1f0b;" horiz-adv-x="671" 
d="M13 0l282 707h111l255 -707h-88l-93 264h-280l-104 -264h-83zM226 330h231l-110 319zM-55 549c-25 26 -44 61 -44 102c0 18 4 37 13 57h74c-7 -16 -10 -32 -10 -50c0 -59 32 -109 32 -109h-65zM94 549l-88 159h80l76 -159h-68z" />
    <glyph glyph-name="uni1F0C" unicode="&#x1f0c;" horiz-adv-x="671" 
d="M13 0l282 707h111l255 -707h-88l-93 264h-280l-104 -264h-83zM226 330h231l-110 319zM-37 549c0 0 33 50 33 109c0 18 -3 34 -10 50h74c8 -20 13 -39 13 -57c0 -41 -20 -76 -44 -102h-66zM69 549l77 159h80l-89 -159h-68z" />
    <glyph glyph-name="uni1F0D" unicode="&#x1f0d;" horiz-adv-x="671" 
d="M13 0l282 707h111l255 -707h-88l-93 264h-280l-104 -264h-83zM226 330h231l-110 319zM-28 549c-25 26 -44 61 -44 102c0 18 4 37 13 57h74c-7 -16 -10 -32 -10 -50c0 -59 32 -109 32 -109h-65zM59 549l76 159h81l-89 -159h-68z" />
    <glyph glyph-name="uni1F0E" unicode="&#x1f0e;" horiz-adv-x="671" 
d="M13 0l282 707h111l255 -707h-88l-93 264h-280l-104 -264h-83zM226 330h231l-110 319zM118 608c-47 0 -84 37 -125 37c-33 0 -48 -9 -70 -25l-31 48c11 10 44 44 108 44c50 0 82 -36 120 -36c33 0 58 18 71 28l30 -47c-8 -12 -45 -49 -103 -49zM0 424c0 0 33 50 33 109
c0 17 -3 34 -10 50h74c8 -20 13 -39 13 -57c0 -42 -20 -76 -44 -102h-66z" />
    <glyph glyph-name="uni1F0F" unicode="&#x1f0f;" horiz-adv-x="671" 
d="M13 0l282 707h111l255 -707h-88l-93 264h-280l-104 -264h-83zM226 330h231l-110 319zM102 616c-47 0 -84 37 -125 37c-33 0 -47 -9 -70 -25l-31 48c11 10 44 44 108 44c51 0 82 -36 120 -36c34 0 58 18 71 28l30 -47c-8 -12 -45 -49 -103 -49zM33 432
c-25 26 -44 60 -44 102c0 18 4 37 13 57h74c-7 -16 -10 -33 -10 -50c0 -59 33 -109 33 -109h-66z" />
    <glyph glyph-name="uni1F10" unicode="&#x1f10;" horiz-adv-x="508" 
d="M255 630c0 0 33 50 33 109c0 18 -4 34 -10 50h73c9 -20 13 -39 13 -57c0 -41 -19 -76 -43 -102h-66zM276 -11c-151 0 -223 57 -223 159c0 65 38 122 113 146c-55 18 -89 56 -89 119c0 75 66 147 213 147c95 0 147 -22 177 -36l-24 -62c-23 9 -87 33 -158 33
c-84 0 -129 -32 -129 -86c0 -73 56 -84 88 -84h124v-61h-127c-40 0 -106 -29 -106 -108c0 -56 45 -100 150 -100c64 0 115 14 164 34l24 -58c-38 -18 -107 -43 -197 -43z" />
    <glyph glyph-name="uni1F11" unicode="&#x1f11;" horiz-adv-x="508" 
d="M276 -11c-151 0 -223 57 -223 159c0 65 38 122 113 146c-55 18 -89 56 -89 119c0 75 66 147 213 147c95 0 147 -22 177 -36l-24 -62c-23 9 -87 33 -158 33c-84 0 -129 -32 -129 -86c0 -73 56 -84 88 -84h124v-61h-127c-40 0 -106 -29 -106 -108c0 -56 45 -100 150 -100
c64 0 115 14 164 34l24 -58c-38 -18 -107 -43 -197 -43zM283 630c-25 26 -44 61 -44 102c0 18 4 37 13 57h74c-7 -16 -11 -32 -11 -50c0 -59 33 -109 33 -109h-65z" />
    <glyph glyph-name="uni1F12" unicode="&#x1f12;" horiz-adv-x="508" 
d="M276 -11c-151 0 -223 57 -223 159c0 65 38 122 113 146c-55 18 -89 56 -89 119c0 75 66 147 213 147c95 0 147 -22 177 -36l-24 -62c-23 9 -87 33 -158 33c-84 0 -129 -32 -129 -86c0 -73 56 -84 88 -84h124v-61h-127c-40 0 -106 -29 -106 -108c0 -56 45 -100 150 -100
c64 0 115 14 164 34l24 -58c-38 -18 -107 -43 -197 -43zM157 630c0 0 33 50 33 109c0 18 -3 34 -10 50h74c9 -20 13 -39 13 -57c0 -41 -20 -76 -44 -102h-66zM370 630l-88 159h80l76 -159h-68z" />
    <glyph glyph-name="uni1F13" unicode="&#x1f13;" horiz-adv-x="508" 
d="M276 -11c-151 0 -223 57 -223 159c0 65 38 122 113 146c-55 18 -89 56 -89 119c0 75 66 147 213 147c95 0 147 -22 177 -36l-24 -62c-23 9 -87 33 -158 33c-84 0 -129 -32 -129 -86c0 -73 56 -84 88 -84h124v-61h-127c-40 0 -106 -29 -106 -108c0 -56 45 -100 150 -100
c64 0 115 14 164 34l24 -58c-38 -18 -107 -43 -197 -43zM195 630c-25 26 -44 61 -44 102c0 18 4 37 13 57h74c-7 -16 -10 -32 -10 -50c0 -59 32 -109 32 -109h-65zM344 630l-88 159h80l76 -159h-68z" />
    <glyph glyph-name="uni1F14" unicode="&#x1f14;" horiz-adv-x="508" 
d="M276 -11c-151 0 -223 57 -223 159c0 65 38 122 113 146c-55 18 -89 56 -89 119c0 75 66 147 213 147c95 0 147 -22 177 -36l-24 -62c-23 9 -87 33 -158 33c-84 0 -129 -32 -129 -86c0 -73 56 -84 88 -84h124v-61h-127c-40 0 -106 -29 -106 -108c0 -56 45 -100 150 -100
c64 0 115 14 164 34l24 -58c-38 -18 -107 -43 -197 -43zM193 630c0 0 33 50 33 109c0 18 -3 34 -10 50h74c8 -20 13 -39 13 -57c0 -41 -20 -76 -44 -102h-66zM299 630l77 159h80l-89 -159h-68z" />
    <glyph glyph-name="uni1F15" unicode="&#x1f15;" horiz-adv-x="508" 
d="M276 -11c-151 0 -223 57 -223 159c0 65 38 122 113 146c-55 18 -89 56 -89 119c0 75 66 147 213 147c95 0 147 -22 177 -36l-24 -62c-23 9 -87 33 -158 33c-84 0 -129 -32 -129 -86c0 -73 56 -84 88 -84h124v-61h-127c-40 0 -106 -29 -106 -108c0 -56 45 -100 150 -100
c64 0 115 14 164 34l24 -58c-38 -18 -107 -43 -197 -43zM216 630c-25 26 -44 61 -44 102c0 18 4 37 13 57h74c-7 -16 -10 -32 -10 -50c0 -59 32 -109 32 -109h-65zM303 630l76 159h81l-89 -159h-68z" />
    <glyph glyph-name="uni1F18" unicode="&#x1f18;" horiz-adv-x="580" 
d="M-54 549c0 0 33 50 33 109c0 18 -4 34 -10 50h73c9 -20 13 -39 13 -57c0 -41 -19 -76 -43 -102h-66zM111 0v707h396v-67h-314v-251h292v-68h-292v-253h337v-68h-419z" />
    <glyph glyph-name="uni1F19" unicode="&#x1f19;" horiz-adv-x="580" 
d="M111 0v707h396v-67h-314v-251h292v-68h-292v-253h337v-68h-419zM9 549c-25 26 -44 61 -44 102c0 18 4 37 13 57h74c-7 -16 -11 -32 -11 -50c0 -59 33 -109 33 -109h-65z" />
    <glyph glyph-name="uni1F1A" unicode="&#x1f1a;" horiz-adv-x="580" 
d="M111 0v707h396v-67h-314v-251h292v-68h-292v-253h337v-68h-419zM-203 549c0 0 33 50 33 109c0 18 -3 34 -10 50h74c9 -20 13 -39 13 -57c0 -41 -20 -76 -44 -102h-66zM10 549l-88 159h80l76 -159h-68z" />
    <glyph glyph-name="uni1F1B" unicode="&#x1f1b;" horiz-adv-x="580" 
d="M-154 549c-25 26 -44 61 -44 102c0 18 4 37 13 57h74c-7 -16 -10 -32 -10 -50c0 -59 32 -109 32 -109h-65zM-5 549l-88 159h80l76 -159h-68zM111 0v707h396v-67h-314v-251h292v-68h-292v-253h337v-68h-419z" />
    <glyph glyph-name="uni1F1C" unicode="&#x1f1c;" horiz-adv-x="580" 
d="M-187 549c0 0 33 50 33 109c0 18 -3 34 -10 50h74c8 -20 13 -39 13 -57c0 -41 -20 -76 -44 -102h-66zM-81 549l77 159h80l-89 -159h-68zM111 0v707h396v-67h-314v-251h292v-68h-292v-253h337v-68h-419z" />
    <glyph glyph-name="uni1F1D" unicode="&#x1f1d;" horiz-adv-x="580" 
d="M111 0v707h396v-67h-314v-251h292v-68h-292v-253h337v-68h-419zM-173 549c-25 26 -44 61 -44 102c0 18 4 37 13 57h74c-7 -16 -10 -32 -10 -50c0 -59 32 -109 32 -109h-65zM-86 549l76 159h81l-89 -159h-68z" />
    <glyph glyph-name="uni1F20" unicode="&#x1f20;" horiz-adv-x="634" 
d="M293 630c0 0 33 50 33 109c0 18 -4 34 -10 50h73c9 -20 13 -39 13 -57c0 -41 -19 -76 -43 -102h-66zM470 -220v557c0 95 -13 153 -113 153c-64 0 -147 -53 -171 -67v-423h-78v445c0 40 -27 49 -51 52l5 62c13 0 29 -1 43 -5c39 -8 73 -29 81 -71c38 28 107 77 191 77
c161 0 170 -114 170 -208v-572h-77z" />
    <glyph glyph-name="uni1F21" unicode="&#x1f21;" horiz-adv-x="634" 
d="M470 -220v557c0 95 -13 153 -113 153c-64 0 -147 -53 -171 -67v-423h-78v445c0 40 -27 49 -51 52l5 62c13 0 29 -1 43 -5c39 -8 73 -29 81 -71c38 28 107 77 191 77c161 0 170 -114 170 -208v-572h-77zM322 630c-25 26 -44 61 -44 102c0 18 4 37 13 57h74
c-7 -16 -11 -32 -11 -50c0 -59 33 -109 33 -109h-65z" />
    <glyph glyph-name="uni1F22" unicode="&#x1f22;" horiz-adv-x="634" 
d="M470 -220v557c0 95 -13 153 -113 153c-64 0 -147 -53 -171 -67v-423h-78v445c0 40 -27 49 -51 52l5 62c13 0 29 -1 43 -5c39 -8 73 -29 81 -71c38 28 107 77 191 77c161 0 170 -114 170 -208v-572h-77zM189 630c0 0 33 50 33 109c0 18 -3 34 -10 50h74
c9 -20 13 -39 13 -57c0 -41 -20 -76 -44 -102h-66zM402 630l-88 159h80l76 -159h-68z" />
    <glyph glyph-name="uni1F23" unicode="&#x1f23;" horiz-adv-x="634" 
d="M470 -220v557c0 95 -13 153 -113 153c-64 0 -147 -53 -171 -67v-423h-78v445c0 40 -27 49 -51 52l5 62c13 0 29 -1 43 -5c39 -8 73 -29 81 -71c38 28 107 77 191 77c161 0 170 -114 170 -208v-572h-77zM237 630c-25 26 -44 61 -44 102c0 18 4 37 13 57h74
c-7 -16 -10 -32 -10 -50c0 -59 32 -109 32 -109h-65zM386 630l-88 159h80l76 -159h-68z" />
    <glyph glyph-name="uni1F24" unicode="&#x1f24;" horiz-adv-x="634" 
d="M470 -220v557c0 95 -13 153 -113 153c-64 0 -147 -53 -171 -67v-423h-78v445c0 40 -27 49 -51 52l5 62c13 0 29 -1 43 -5c39 -8 73 -29 81 -71c38 28 107 77 191 77c161 0 170 -114 170 -208v-572h-77zM229 630c0 0 33 50 33 109c0 18 -3 34 -10 50h74
c8 -20 13 -39 13 -57c0 -41 -20 -76 -44 -102h-66zM335 630l77 159h80l-89 -159h-68z" />
    <glyph glyph-name="uni1F25" unicode="&#x1f25;" horiz-adv-x="634" 
d="M470 -220v557c0 95 -13 153 -113 153c-64 0 -147 -53 -171 -67v-423h-78v445c0 40 -27 49 -51 52l5 62c13 0 29 -1 43 -5c39 -8 73 -29 81 -71c38 28 107 77 191 77c161 0 170 -114 170 -208v-572h-77zM251 630c-25 26 -44 61 -44 102c0 18 4 37 13 57h74
c-7 -16 -10 -32 -10 -50c0 -59 32 -109 32 -109h-65zM338 630l76 159h81l-89 -159h-68z" />
    <glyph glyph-name="uni1F26" unicode="&#x1f26;" horiz-adv-x="634" 
d="M470 -220v557c0 95 -13 153 -113 153c-64 0 -147 -53 -171 -67v-423h-78v445c0 40 -27 49 -51 52l5 62c13 0 29 -1 43 -5c39 -8 73 -29 81 -71c38 28 107 77 191 77c161 0 170 -114 170 -208v-572h-77zM393 800c-47 0 -84 37 -125 37c-33 0 -48 -9 -70 -25l-31 48
c11 10 44 44 108 44c50 0 82 -36 120 -36c33 0 58 18 71 28l30 -47c-8 -12 -45 -49 -103 -49zM275 616c0 0 33 50 33 109c0 17 -3 34 -10 50h74c8 -20 13 -39 13 -57c0 -42 -20 -76 -44 -102h-66z" />
    <glyph glyph-name="uni1F27" unicode="&#x1f27;" horiz-adv-x="634" 
d="M470 -220v557c0 95 -13 153 -113 153c-64 0 -147 -53 -171 -67v-423h-78v445c0 40 -27 49 -51 52l5 62c13 0 29 -1 43 -5c39 -8 73 -29 81 -71c38 28 107 77 191 77c161 0 170 -114 170 -208v-572h-77zM387 800c-47 0 -84 37 -125 37c-33 0 -47 -9 -70 -25l-31 48
c11 10 44 44 108 44c51 0 82 -36 120 -36c34 0 58 18 71 28l30 -47c-8 -12 -45 -49 -103 -49zM318 616c-25 26 -44 60 -44 102c0 18 4 37 13 57h74c-7 -16 -10 -33 -10 -50c0 -59 33 -109 33 -109h-66z" />
    <glyph glyph-name="uni1F28" unicode="&#x1f28;" horiz-adv-x="775" 
d="M-41 549c0 0 33 50 33 109c0 18 -4 34 -10 50h73c9 -20 13 -39 13 -57c0 -41 -19 -76 -43 -102h-66zM111 0v707h82v-318h388v318h82v-707h-82v321h-388v-321h-82z" />
    <glyph glyph-name="uni1F29" unicode="&#x1f29;" horiz-adv-x="775" 
d="M111 0v707h82v-318h388v318h82v-707h-82v321h-388v-321h-82zM-4 549c-25 26 -44 61 -44 102c0 18 4 37 13 57h74c-7 -16 -11 -32 -11 -50c0 -59 33 -109 33 -109h-65z" />
    <glyph glyph-name="uni1F2A" unicode="&#x1f2a;" horiz-adv-x="775" 
d="M111 0v707h82v-318h388v318h82v-707h-82v321h-388v-321h-82zM-215 549c0 0 33 50 33 109c0 18 -3 34 -10 50h74c9 -20 13 -39 13 -57c0 -41 -20 -76 -44 -102h-66zM-2 549l-88 159h80l76 -159h-68z" />
    <glyph glyph-name="uni1F2B" unicode="&#x1f2b;" horiz-adv-x="775" 
d="M111 0v707h82v-318h388v318h82v-707h-82v321h-388v-321h-82zM-138 549c-25 26 -44 61 -44 102c0 18 4 37 13 57h74c-7 -16 -10 -32 -10 -50c0 -59 32 -109 32 -109h-65zM11 549l-88 159h80l76 -159h-68z" />
    <glyph glyph-name="uni1F2C" unicode="&#x1f2c;" horiz-adv-x="775" 
d="M111 0v707h82v-318h388v318h82v-707h-82v321h-388v-321h-82zM-190 549c0 0 33 50 33 109c0 18 -3 34 -10 50h74c8 -20 13 -39 13 -57c0 -41 -20 -76 -44 -102h-66zM-84 549l77 159h80l-89 -159h-68z" />
    <glyph glyph-name="uni1F2D" unicode="&#x1f2d;" horiz-adv-x="775" 
d="M111 0v707h82v-318h388v318h82v-707h-82v321h-388v-321h-82zM-175 549c-25 26 -44 61 -44 102c0 18 4 37 13 57h74c-7 -16 -10 -32 -10 -50c0 -59 32 -109 32 -109h-65zM-88 549l76 159h81l-89 -159h-68z" />
    <glyph glyph-name="uni1F2E" unicode="&#x1f2e;" horiz-adv-x="775" 
d="M111 0v707h82v-318h388v318h82v-707h-82v321h-388v-321h-82zM-30 608c-47 0 -84 37 -125 37c-33 0 -48 -9 -70 -25l-31 48c11 10 44 44 108 44c50 0 82 -36 120 -36c33 0 58 18 71 28l30 -47c-8 -12 -45 -49 -103 -49zM-148 424c0 0 33 50 33 109c0 17 -3 34 -10 50h74
c8 -20 13 -39 13 -57c0 -42 -20 -76 -44 -102h-66z" />
    <glyph glyph-name="uni1F2F" unicode="&#x1f2f;" horiz-adv-x="775" 
d="M111 0v707h82v-318h388v318h82v-707h-82v321h-388v-321h-82zM-38 609c-47 0 -84 37 -125 37c-33 0 -47 -9 -70 -25l-31 48c11 10 44 44 108 44c51 0 82 -36 120 -36c34 0 58 18 71 28l30 -47c-8 -12 -45 -49 -103 -49zM-107 425c-25 26 -44 60 -44 102c0 18 4 37 13 57
h74c-7 -16 -10 -33 -10 -50c0 -59 33 -109 33 -109h-66z" />
    <glyph glyph-name="uni1F30" unicode="&#x1f30;" horiz-adv-x="266" 
d="M90 630c0 0 33 50 33 109c0 18 -4 34 -10 50h73c9 -20 13 -39 13 -57c0 -41 -19 -76 -43 -102h-66zM92 0v546h80v-546h-80z" />
    <glyph glyph-name="uni1F31" unicode="&#x1f31;" horiz-adv-x="266" 
d="M92 0v546h80v-546h-80zM120 630c-25 26 -44 61 -44 102c0 18 4 37 13 57h74c-7 -16 -11 -32 -11 -50c0 -59 33 -109 33 -109h-65z" />
    <glyph glyph-name="uni1F32" unicode="&#x1f32;" horiz-adv-x="266" 
d="M92 0v546h80v-546h-80zM-6 630c0 0 33 50 33 109c0 18 -3 34 -10 50h74c9 -20 13 -39 13 -57c0 -41 -20 -76 -44 -102h-66zM207 630l-88 159h80l76 -159h-68z" />
    <glyph glyph-name="uni1F33" unicode="&#x1f33;" horiz-adv-x="266" 
d="M43 630c-25 26 -44 61 -44 102c0 18 4 37 13 57h74c-7 -16 -10 -32 -10 -50c0 -59 32 -109 32 -109h-65zM192 630l-88 159h80l76 -159h-68zM92 0v546h80v-546h-80z" />
    <glyph glyph-name="uni1F34" unicode="&#x1f34;" horiz-adv-x="266" 
d="M37 630c0 0 33 50 33 109c0 18 -3 34 -10 50h74c8 -20 13 -39 13 -57c0 -41 -20 -76 -44 -102h-66zM143 630l77 159h80l-89 -159h-68zM92 0v546h80v-546h-80z" />
    <glyph glyph-name="uni1F35" unicode="&#x1f35;" horiz-adv-x="266" 
d="M92 0v546h80v-546h-80zM60 630c-25 26 -44 61 -44 102c0 18 4 37 13 57h74c-7 -16 -10 -32 -10 -50c0 -59 32 -109 32 -109h-65zM147 630l76 159h81l-89 -159h-68z" />
    <glyph glyph-name="uni1F36" unicode="&#x1f36;" horiz-adv-x="266" 
d="M92 0v546h80v-546h-80zM207 800c-47 0 -84 37 -125 37c-33 0 -48 -9 -70 -25l-31 48c11 10 44 44 108 44c50 0 82 -36 120 -36c33 0 58 18 71 28l30 -47c-8 -12 -45 -49 -103 -49zM89 616c0 0 33 50 33 109c0 17 -3 34 -10 50h74c8 -20 13 -39 13 -57
c0 -42 -20 -76 -44 -102h-66z" />
    <glyph glyph-name="uni1F37" unicode="&#x1f37;" horiz-adv-x="266" 
d="M92 0v546h80v-546h-80zM179 800c-47 0 -84 37 -125 37c-33 0 -47 -9 -70 -25l-31 48c11 10 44 44 108 44c51 0 82 -36 120 -36c34 0 58 18 71 28l30 -47c-8 -12 -45 -49 -103 -49zM110 616c-25 26 -44 60 -44 102c0 18 4 37 13 57h74c-7 -16 -10 -33 -10 -50
c0 -59 33 -109 33 -109h-66z" />
    <glyph glyph-name="uni1F38" unicode="&#x1f38;" horiz-adv-x="305" 
d="M-36 549c0 0 33 50 33 109c0 18 -4 34 -10 50h73c9 -20 13 -39 13 -57c0 -41 -19 -76 -43 -102h-66zM111 0v707h82v-707h-82z" />
    <glyph glyph-name="uni1F39" unicode="&#x1f39;" horiz-adv-x="305" 
d="M111 0v707h82v-707h-82zM11 549c-25 26 -44 61 -44 102c0 18 4 37 13 57h74c-7 -16 -11 -32 -11 -50c0 -59 33 -109 33 -109h-65z" />
    <glyph glyph-name="uni1F3A" unicode="&#x1f3a;" horiz-adv-x="305" 
d="M111 0v707h82v-707h-82zM-205 549c0 0 33 50 33 109c0 18 -3 34 -10 50h74c9 -20 13 -39 13 -57c0 -41 -20 -76 -44 -102h-66zM8 549l-88 159h80l76 -159h-68z" />
    <glyph glyph-name="uni1F3B" unicode="&#x1f3b;" horiz-adv-x="305" 
d="M111 0v707h82v-707h-82zM-137 549c-25 26 -44 61 -44 102c0 18 4 37 13 57h74c-7 -16 -10 -32 -10 -50c0 -59 32 -109 32 -109h-65zM12 549l-88 159h80l76 -159h-68z" />
    <glyph glyph-name="uni1F3C" unicode="&#x1f3c;" horiz-adv-x="305" 
d="M111 0v707h82v-707h-82zM-190 549c0 0 33 50 33 109c0 18 -3 34 -10 50h74c8 -20 13 -39 13 -57c0 -41 -20 -76 -44 -102h-66zM-84 549l77 159h80l-89 -159h-68z" />
    <glyph glyph-name="uni1F3D" unicode="&#x1f3d;" horiz-adv-x="305" 
d="M111 0v707h82v-707h-82zM-171 548c-25 26 -44 61 -44 102c0 18 4 37 13 57h74c-7 -16 -10 -32 -10 -50c0 -59 32 -109 32 -109h-65zM-84 548l76 159h81l-89 -159h-68z" />
    <glyph glyph-name="uni1F3E" unicode="&#x1f3e;" horiz-adv-x="305" 
d="M111 0v707h82v-707h-82zM-36 608c-47 0 -84 37 -125 37c-33 0 -48 -9 -70 -25l-31 48c11 10 44 44 108 44c50 0 82 -36 120 -36c33 0 58 18 71 28l30 -47c-8 -12 -45 -49 -103 -49zM-154 424c0 0 33 50 33 109c0 17 -3 34 -10 50h74c8 -20 13 -39 13 -57
c0 -42 -20 -76 -44 -102h-66z" />
    <glyph glyph-name="uni1F3F" unicode="&#x1f3f;" horiz-adv-x="305" 
d="M111 0v707h82v-707h-82zM-32 609c-47 0 -84 37 -125 37c-33 0 -47 -9 -70 -25l-31 48c11 10 44 44 108 44c51 0 82 -36 120 -36c34 0 58 18 71 28l30 -47c-8 -12 -45 -49 -103 -49zM-101 425c-25 26 -44 60 -44 102c0 18 4 37 13 57h74c-7 -16 -10 -33 -10 -50
c0 -59 33 -109 33 -109h-66z" />
    <glyph glyph-name="uni1F40" unicode="&#x1f40;" horiz-adv-x="604" 
d="M253 630c0 0 33 50 33 109c0 18 -4 34 -10 50h73c9 -20 13 -39 13 -57c0 -41 -19 -76 -43 -102h-66zM299 -12c-151 0 -244 100 -244 279c0 189 105 293 251 293c162 0 242 -104 242 -287c0 -192 -106 -285 -249 -285zM305 53c131 0 163 111 163 220
c0 101 -31 222 -165 222c-132 0 -167 -120 -167 -223c0 -114 40 -219 169 -219z" />
    <glyph glyph-name="uni1F41" unicode="&#x1f41;" horiz-adv-x="604" 
d="M299 -12c-151 0 -244 100 -244 279c0 189 105 293 251 293c162 0 242 -104 242 -287c0 -192 -106 -285 -249 -285zM305 53c131 0 163 111 163 220c0 101 -31 222 -165 222c-132 0 -167 -120 -167 -223c0 -114 40 -219 169 -219zM294 630c-25 26 -44 61 -44 102
c0 18 4 37 13 57h74c-7 -16 -11 -32 -11 -50c0 -59 33 -109 33 -109h-65z" />
    <glyph glyph-name="uni1F42" unicode="&#x1f42;" horiz-adv-x="604" 
d="M165 630c0 0 33 50 33 109c0 18 -3 34 -10 50h74c9 -20 13 -39 13 -57c0 -41 -20 -76 -44 -102h-66zM378 630l-88 159h80l76 -159h-68zM299 -12c-151 0 -244 100 -244 279c0 189 105 293 251 293c162 0 242 -104 242 -287c0 -192 -106 -285 -249 -285zM305 53
c131 0 163 111 163 220c0 101 -31 222 -165 222c-132 0 -167 -120 -167 -223c0 -114 40 -219 169 -219z" />
    <glyph glyph-name="uni1F43" unicode="&#x1f43;" horiz-adv-x="604" 
d="M216 630c-25 26 -44 61 -44 102c0 18 4 37 13 57h74c-7 -16 -10 -32 -10 -50c0 -59 32 -109 32 -109h-65zM365 630l-88 159h80l76 -159h-68zM299 -12c-151 0 -244 100 -244 279c0 189 105 293 251 293c162 0 242 -104 242 -287c0 -192 -106 -285 -249 -285zM305 53
c131 0 163 111 163 220c0 101 -31 222 -165 222c-132 0 -167 -120 -167 -223c0 -114 40 -219 169 -219z" />
    <glyph glyph-name="uni1F44" unicode="&#x1f44;" horiz-adv-x="604" 
d="M212 630c0 0 33 50 33 109c0 18 -3 34 -10 50h74c8 -20 13 -39 13 -57c0 -41 -20 -76 -44 -102h-66zM318 630l77 159h80l-89 -159h-68zM299 -12c-151 0 -244 100 -244 279c0 189 105 293 251 293c162 0 242 -104 242 -287c0 -192 -106 -285 -249 -285zM305 53
c131 0 163 111 163 220c0 101 -31 222 -165 222c-132 0 -167 -120 -167 -223c0 -114 40 -219 169 -219z" />
    <glyph glyph-name="uni1F45" unicode="&#x1f45;" horiz-adv-x="604" 
d="M233 630c-25 26 -44 61 -44 102c0 18 4 37 13 57h74c-7 -16 -10 -32 -10 -50c0 -59 32 -109 32 -109h-65zM320 630l76 159h81l-89 -159h-68zM299 -12c-151 0 -244 100 -244 279c0 189 105 293 251 293c162 0 242 -104 242 -287c0 -192 -106 -285 -249 -285zM305 53
c131 0 163 111 163 220c0 101 -31 222 -165 222c-132 0 -167 -120 -167 -223c0 -114 40 -219 169 -219z" />
    <glyph glyph-name="uni1F48" unicode="&#x1f48;" horiz-adv-x="821" 
d="M-55 549c0 0 33 50 33 109c0 18 -4 34 -10 50h73c9 -20 13 -39 13 -57c0 -41 -19 -76 -43 -102h-66zM402 -12c-220 0 -346 151 -346 367c0 221 148 362 365 362c228 0 343 -158 343 -364c0 -216 -135 -365 -362 -365zM405 56c188 0 277 130 277 298s-96 295 -270 295
c-182 0 -274 -127 -274 -293c0 -161 89 -300 267 -300z" />
    <glyph glyph-name="uni1F49" unicode="&#x1f49;" horiz-adv-x="821" 
d="M402 -12c-220 0 -346 151 -346 367c0 221 148 362 365 362c228 0 343 -158 343 -364c0 -216 -135 -365 -362 -365zM405 56c188 0 277 130 277 298s-96 295 -270 295c-182 0 -274 -127 -274 -293c0 -161 89 -300 267 -300zM-20 549c-25 26 -44 61 -44 102c0 18 4 37 13 57
h74c-7 -16 -11 -32 -11 -50c0 -59 33 -109 33 -109h-65z" />
    <glyph glyph-name="uni1F4A" unicode="&#x1f4a;" horiz-adv-x="821" 
d="M-234 549c0 0 33 50 33 109c0 18 -3 34 -10 50h74c9 -20 13 -39 13 -57c0 -41 -20 -76 -44 -102h-66zM-21 549l-88 159h80l76 -159h-68zM402 -12c-220 0 -346 151 -346 367c0 221 148 362 365 362c228 0 343 -158 343 -364c0 -216 -135 -365 -362 -365zM405 56
c188 0 277 130 277 298s-96 295 -270 295c-182 0 -274 -127 -274 -293c0 -161 89 -300 267 -300z" />
    <glyph glyph-name="uni1F4B" unicode="&#x1f4b;" horiz-adv-x="821" 
d="M-169 549c-25 26 -44 61 -44 102c0 18 4 37 13 57h74c-7 -16 -10 -32 -10 -50c0 -59 32 -109 32 -109h-65zM-20 549l-88 159h80l76 -159h-68zM402 -12c-220 0 -346 151 -346 367c0 221 148 362 365 362c228 0 343 -158 343 -364c0 -216 -135 -365 -362 -365zM405 56
c188 0 277 130 277 298s-96 295 -270 295c-182 0 -274 -127 -274 -293c0 -161 89 -300 267 -300z" />
    <glyph glyph-name="uni1F4C" unicode="&#x1f4c;" horiz-adv-x="821" 
d="M-155 549c0 0 33 50 33 109c0 18 -3 34 -10 50h74c8 -20 13 -39 13 -57c0 -41 -20 -76 -44 -102h-66zM-49 549l77 159h80l-89 -159h-68zM402 -12c-220 0 -346 151 -346 367c0 221 148 362 365 362c228 0 343 -158 343 -364c0 -216 -135 -365 -362 -365zM405 56
c188 0 277 130 277 298s-96 295 -270 295c-182 0 -274 -127 -274 -293c0 -161 89 -300 267 -300z" />
    <glyph glyph-name="uni1F4D" unicode="&#x1f4d;" horiz-adv-x="821" 
d="M-151 549c-25 26 -44 61 -44 102c0 18 4 37 13 57h74c-7 -16 -10 -32 -10 -50c0 -59 32 -109 32 -109h-65zM-64 549l76 159h81l-89 -159h-68zM402 -12c-220 0 -346 151 -346 367c0 221 148 362 365 362c228 0 343 -158 343 -364c0 -216 -135 -365 -362 -365zM405 56
c188 0 277 130 277 298s-96 295 -270 295c-182 0 -274 -127 -274 -293c0 -161 89 -300 267 -300z" />
    <glyph glyph-name="uni1F50" unicode="&#x1f50;" horiz-adv-x="613" 
d="M259 630c0 0 33 50 33 109c0 18 -4 34 -10 50h73c9 -20 13 -39 13 -57c0 -41 -19 -76 -43 -102h-66zM309 -12c-115 0 -220 46 -220 202v356h76v-349c0 -117 72 -144 142 -144c78 0 141 33 141 160v333h76v-335c0 -172 -111 -223 -215 -223z" />
    <glyph glyph-name="uni1F51" unicode="&#x1f51;" horiz-adv-x="613" 
d="M309 -12c-115 0 -220 46 -220 202v356h76v-349c0 -117 72 -144 142 -144c78 0 141 33 141 160v333h76v-335c0 -172 -111 -223 -215 -223zM281 630c-25 26 -44 61 -44 102c0 18 4 37 13 57h74c-7 -16 -11 -32 -11 -50c0 -59 33 -109 33 -109h-65z" />
    <glyph glyph-name="uni1F52" unicode="&#x1f52;" horiz-adv-x="613" 
d="M309 -12c-115 0 -220 46 -220 202v356h76v-349c0 -117 72 -144 142 -144c78 0 141 33 141 160v333h76v-335c0 -172 -111 -223 -215 -223zM169 630c0 0 33 50 33 109c0 18 -3 34 -10 50h74c9 -20 13 -39 13 -57c0 -41 -20 -76 -44 -102h-66zM382 630l-88 159h80l76 -159
h-68z" />
    <glyph glyph-name="uni1F53" unicode="&#x1f53;" horiz-adv-x="613" 
d="M309 -12c-115 0 -220 46 -220 202v356h76v-349c0 -117 72 -144 142 -144c78 0 141 33 141 160v333h76v-335c0 -172 -111 -223 -215 -223zM207 630c-25 26 -44 61 -44 102c0 18 4 37 13 57h74c-7 -16 -10 -32 -10 -50c0 -59 32 -109 32 -109h-65zM356 630l-88 159h80
l76 -159h-68z" />
    <glyph glyph-name="uni1F54" unicode="&#x1f54;" horiz-adv-x="613" 
d="M309 -12c-115 0 -220 46 -220 202v356h76v-349c0 -117 72 -144 142 -144c78 0 141 33 141 160v333h76v-335c0 -172 -111 -223 -215 -223zM202 630c0 0 33 50 33 109c0 18 -3 34 -10 50h74c8 -20 13 -39 13 -57c0 -41 -20 -76 -44 -102h-66zM308 630l77 159h80l-89 -159
h-68z" />
    <glyph glyph-name="uni1F55" unicode="&#x1f55;" horiz-adv-x="613" 
d="M309 -12c-115 0 -220 46 -220 202v356h76v-349c0 -117 72 -144 142 -144c78 0 141 33 141 160v333h76v-335c0 -172 -111 -223 -215 -223zM223 630c-25 26 -44 61 -44 102c0 18 4 37 13 57h74c-7 -16 -10 -32 -10 -50c0 -59 32 -109 32 -109h-65zM310 630l76 159h81
l-89 -159h-68z" />
    <glyph glyph-name="uni1F56" unicode="&#x1f56;" horiz-adv-x="613" 
d="M309 -12c-115 0 -220 46 -220 202v356h76v-349c0 -117 72 -144 142 -144c78 0 141 33 141 160v333h76v-335c0 -172 -111 -223 -215 -223zM379 800c-47 0 -84 37 -125 37c-33 0 -48 -9 -70 -25l-31 48c11 10 44 44 108 44c50 0 82 -36 120 -36c33 0 58 18 71 28l30 -47
c-8 -12 -45 -49 -103 -49zM261 616c0 0 33 50 33 109c0 17 -3 34 -10 50h74c8 -20 13 -39 13 -57c0 -42 -20 -76 -44 -102h-66z" />
    <glyph glyph-name="uni1F57" unicode="&#x1f57;" horiz-adv-x="613" 
d="M309 -12c-115 0 -220 46 -220 202v356h76v-349c0 -117 72 -144 142 -144c78 0 141 33 141 160v333h76v-335c0 -172 -111 -223 -215 -223zM359 800c-47 0 -84 37 -125 37c-33 0 -47 -9 -70 -25l-31 48c11 10 44 44 108 44c51 0 82 -36 120 -36c34 0 58 18 71 28l30 -47
c-8 -12 -45 -49 -103 -49zM290 616c-25 26 -44 60 -44 102c0 18 4 37 13 57h74c-7 -16 -10 -33 -10 -50c0 -59 33 -109 33 -109h-66z" />
    <glyph glyph-name="uni1F59" unicode="&#x1f59;" horiz-adv-x="568" 
d="M236 0v268l-231 439h92l183 -366l195 366h89l-246 -439v-268h-82zM-84 549c-25 26 -44 61 -44 102c0 18 4 37 13 57h74c-7 -16 -11 -32 -11 -50c0 -59 33 -109 33 -109h-65z" />
    <glyph glyph-name="uni1F5B" unicode="&#x1f5b;" horiz-adv-x="568" 
d="M236 0v268l-231 439h92l183 -366l195 366h89l-246 -439v-268h-82zM-198 549c-25 26 -44 61 -44 102c0 18 4 37 13 57h74c-7 -16 -10 -32 -10 -50c0 -59 32 -109 32 -109h-65zM-49 549l-88 159h80l76 -159h-68z" />
    <glyph glyph-name="uni1F5D" unicode="&#x1f5d;" horiz-adv-x="568" 
d="M236 0v268l-231 439h92l183 -366l195 366h89l-246 -439v-268h-82zM-279 549c-25 26 -44 61 -44 102c0 18 4 37 13 57h74c-7 -16 -10 -32 -10 -50c0 -59 32 -109 32 -109h-65zM-192 549l76 159h81l-89 -159h-68z" />
    <glyph glyph-name="uni1F5F" unicode="&#x1f5f;" horiz-adv-x="568" 
d="M236 0v268l-231 439h92l183 -366l195 366h89l-246 -439v-268h-82zM-114 610c-47 0 -84 37 -125 37c-33 0 -47 -9 -70 -25l-31 48c11 10 44 44 108 44c51 0 82 -36 120 -36c34 0 58 18 71 28l30 -47c-8 -12 -45 -49 -103 -49zM-183 426c-25 26 -44 60 -44 102
c0 18 4 37 13 57h74c-7 -16 -10 -33 -10 -50c0 -59 33 -109 33 -109h-66z" />
    <glyph glyph-name="uni1F60" unicode="&#x1f60;" horiz-adv-x="766" 
d="M348 630c0 0 33 50 33 109c0 18 -4 34 -10 50h73c9 -20 13 -39 13 -57c0 -41 -19 -76 -43 -102h-66zM239 -9c-122 0 -184 106 -184 246c0 111 23 203 132 309h91c-93 -80 -143 -181 -143 -301c0 -64 16 -184 117 -184c57 0 92 54 92 148v151h78v-148
c0 -100 34 -151 92 -151c100 0 117 120 117 184c0 113 -53 222 -146 301h98c98 -96 127 -193 127 -304c0 -130 -66 -251 -194 -251c-56 0 -120 38 -135 110c-25 -77 -86 -110 -142 -110z" />
    <glyph glyph-name="uni1F61" unicode="&#x1f61;" horiz-adv-x="766" 
d="M239 -9c-122 0 -184 106 -184 246c0 111 23 203 132 309h91c-93 -80 -143 -181 -143 -301c0 -64 16 -184 117 -184c57 0 92 54 92 148v151h78v-148c0 -100 34 -151 92 -151c100 0 117 120 117 184c0 113 -53 222 -146 301h98c98 -96 127 -193 127 -304
c0 -130 -66 -251 -194 -251c-56 0 -120 38 -135 110c-25 -77 -86 -110 -142 -110zM357 630c-25 26 -44 61 -44 102c0 18 4 37 13 57h74c-7 -16 -11 -32 -11 -50c0 -59 33 -109 33 -109h-65z" />
    <glyph glyph-name="uni1F62" unicode="&#x1f62;" horiz-adv-x="766" 
d="M239 -9c-122 0 -184 106 -184 246c0 111 23 203 132 309h91c-93 -80 -143 -181 -143 -301c0 -64 16 -184 117 -184c57 0 92 54 92 148v151h78v-148c0 -100 34 -151 92 -151c100 0 117 120 117 184c0 113 -53 222 -146 301h98c98 -96 127 -193 127 -304
c0 -130 -66 -251 -194 -251c-56 0 -120 38 -135 110c-25 -77 -86 -110 -142 -110zM241 630c0 0 33 50 33 109c0 18 -3 34 -10 50h74c9 -20 13 -39 13 -57c0 -41 -20 -76 -44 -102h-66zM454 630l-88 159h80l76 -159h-68z" />
    <glyph glyph-name="uni1F63" unicode="&#x1f63;" horiz-adv-x="766" 
d="M239 -9c-122 0 -184 106 -184 246c0 111 23 203 132 309h91c-93 -80 -143 -181 -143 -301c0 -64 16 -184 117 -184c57 0 92 54 92 148v151h78v-148c0 -100 34 -151 92 -151c100 0 117 120 117 184c0 113 -53 222 -146 301h98c98 -96 127 -193 127 -304
c0 -130 -66 -251 -194 -251c-56 0 -120 38 -135 110c-25 -77 -86 -110 -142 -110zM287 630c-25 26 -44 61 -44 102c0 18 4 37 13 57h74c-7 -16 -10 -32 -10 -50c0 -59 32 -109 32 -109h-65zM436 630l-88 159h80l76 -159h-68z" />
    <glyph glyph-name="uni1F64" unicode="&#x1f64;" horiz-adv-x="766" 
d="M239 -9c-122 0 -184 106 -184 246c0 111 23 203 132 309h91c-93 -80 -143 -181 -143 -301c0 -64 16 -184 117 -184c57 0 92 54 92 148v151h78v-148c0 -100 34 -151 92 -151c100 0 117 120 117 184c0 113 -53 222 -146 301h98c98 -96 127 -193 127 -304
c0 -130 -66 -251 -194 -251c-56 0 -120 38 -135 110c-25 -77 -86 -110 -142 -110zM290 630c0 0 33 50 33 109c0 18 -3 34 -10 50h74c8 -20 13 -39 13 -57c0 -41 -20 -76 -44 -102h-66zM396 630l77 159h80l-89 -159h-68z" />
    <glyph glyph-name="uni1F65" unicode="&#x1f65;" horiz-adv-x="766" 
d="M239 -9c-122 0 -184 106 -184 246c0 111 23 203 132 309h91c-93 -80 -143 -181 -143 -301c0 -64 16 -184 117 -184c57 0 92 54 92 148v151h78v-148c0 -100 34 -151 92 -151c100 0 117 120 117 184c0 113 -53 222 -146 301h98c98 -96 127 -193 127 -304
c0 -130 -66 -251 -194 -251c-56 0 -120 38 -135 110c-25 -77 -86 -110 -142 -110zM309 630c-25 26 -44 61 -44 102c0 18 4 37 13 57h74c-7 -16 -10 -32 -10 -50c0 -59 32 -109 32 -109h-65zM396 630l76 159h81l-89 -159h-68z" />
    <glyph glyph-name="uni1F66" unicode="&#x1f66;" horiz-adv-x="766" 
d="M239 -9c-122 0 -184 106 -184 246c0 111 23 203 132 309h91c-93 -80 -143 -181 -143 -301c0 -64 16 -184 117 -184c57 0 92 54 92 148v151h78v-148c0 -100 34 -151 92 -151c100 0 117 120 117 184c0 113 -53 222 -146 301h98c98 -96 127 -193 127 -304
c0 -130 -66 -251 -194 -251c-56 0 -120 38 -135 110c-25 -77 -86 -110 -142 -110zM462 800c-47 0 -84 37 -125 37c-33 0 -48 -9 -70 -25l-31 48c11 10 44 44 108 44c50 0 82 -36 120 -36c33 0 58 18 71 28l30 -47c-8 -12 -45 -49 -103 -49zM344 616c0 0 33 50 33 109
c0 17 -3 34 -10 50h74c8 -20 13 -39 13 -57c0 -42 -20 -76 -44 -102h-66z" />
    <glyph glyph-name="uni1F67" unicode="&#x1f67;" horiz-adv-x="766" 
d="M239 -9c-122 0 -184 106 -184 246c0 111 23 203 132 309h91c-93 -80 -143 -181 -143 -301c0 -64 16 -184 117 -184c57 0 92 54 92 148v151h78v-148c0 -100 34 -151 92 -151c100 0 117 120 117 184c0 113 -53 222 -146 301h98c98 -96 127 -193 127 -304
c0 -130 -66 -251 -194 -251c-56 0 -120 38 -135 110c-25 -77 -86 -110 -142 -110zM423 800c-47 0 -84 37 -125 37c-33 0 -47 -9 -70 -25l-31 48c11 10 44 44 108 44c51 0 82 -36 120 -36c34 0 58 18 71 28l30 -47c-8 -12 -45 -49 -103 -49zM354 616c-25 26 -44 60 -44 102
c0 18 4 37 13 57h74c-7 -16 -10 -33 -10 -50c0 -59 33 -109 33 -109h-66z" />
    <glyph glyph-name="uni1F68" unicode="&#x1f68;" horiz-adv-x="826" 
d="M-34 549c0 0 33 50 33 109c0 18 -4 34 -10 50h73c9 -20 13 -39 13 -57c0 -41 -19 -76 -43 -102h-66zM35 0v72h214c-87 40 -179 147 -179 294c0 221 135 352 352 352c228 0 337 -153 337 -355c0 -126 -90 -243 -184 -291h217v-72h-303v71c105 77 185 176 185 293
c0 165 -89 282 -261 282c-180 0 -258 -116 -258 -280c0 -153 92 -218 180 -295v-71h-300z" />
    <glyph glyph-name="uni1F69" unicode="&#x1f69;" horiz-adv-x="826" 
d="M35 0v72h214c-87 40 -179 147 -179 294c0 221 135 352 352 352c228 0 337 -153 337 -355c0 -126 -90 -243 -184 -291h217v-72h-303v71c105 77 185 176 185 293c0 165 -89 282 -261 282c-180 0 -258 -116 -258 -280c0 -153 92 -218 180 -295v-71h-300zM-26 549
c-25 26 -44 61 -44 102c0 18 4 37 13 57h74c-7 -16 -11 -32 -11 -50c0 -59 33 -109 33 -109h-65z" />
    <glyph glyph-name="uni1F6A" unicode="&#x1f6a;" horiz-adv-x="826" 
d="M35 0v72h214c-87 40 -179 147 -179 294c0 221 135 352 352 352c228 0 337 -153 337 -355c0 -126 -90 -243 -184 -291h217v-72h-303v71c105 77 185 176 185 293c0 165 -89 282 -261 282c-180 0 -258 -116 -258 -280c0 -153 92 -218 180 -295v-71h-300zM-233 549
c0 0 33 50 33 109c0 18 -3 34 -10 50h74c9 -20 13 -39 13 -57c0 -41 -20 -76 -44 -102h-66zM-20 549l-88 159h80l76 -159h-68z" />
    <glyph glyph-name="uni1F6B" unicode="&#x1f6b;" horiz-adv-x="826" 
d="M35 0v72h214c-87 40 -179 147 -179 294c0 221 135 352 352 352c228 0 337 -153 337 -355c0 -126 -90 -243 -184 -291h217v-72h-303v71c105 77 185 176 185 293c0 165 -89 282 -261 282c-180 0 -258 -116 -258 -280c0 -153 92 -218 180 -295v-71h-300zM-167 549
c-25 26 -44 61 -44 102c0 18 4 37 13 57h74c-7 -16 -10 -32 -10 -50c0 -59 32 -109 32 -109h-65zM-18 549l-88 159h80l76 -159h-68z" />
    <glyph glyph-name="uni1F6C" unicode="&#x1f6c;" horiz-adv-x="826" 
d="M35 0v72h214c-87 40 -179 147 -179 294c0 221 135 352 352 352c228 0 337 -153 337 -355c0 -126 -90 -243 -184 -291h217v-72h-303v71c105 77 185 176 185 293c0 165 -89 282 -261 282c-180 0 -258 -116 -258 -280c0 -153 92 -218 180 -295v-71h-300zM-158 549
c0 0 33 50 33 109c0 18 -3 34 -10 50h74c8 -20 13 -39 13 -57c0 -41 -20 -76 -44 -102h-66zM-52 549l77 159h80l-89 -159h-68z" />
    <glyph glyph-name="uni1F6D" unicode="&#x1f6d;" horiz-adv-x="826" 
d="M35 0v72h214c-87 40 -179 147 -179 294c0 221 135 352 352 352c228 0 337 -153 337 -355c0 -126 -90 -243 -184 -291h217v-72h-303v71c105 77 185 176 185 293c0 165 -89 282 -261 282c-180 0 -258 -116 -258 -280c0 -153 92 -218 180 -295v-71h-300zM-131 549
c-25 26 -44 61 -44 102c0 18 4 37 13 57h74c-7 -16 -10 -32 -10 -50c0 -59 32 -109 32 -109h-65zM-44 549l76 159h81l-89 -159h-68z" />
    <glyph glyph-name="uni1F6E" unicode="&#x1f6e;" horiz-adv-x="826" 
d="M35 0v72h214c-87 40 -179 147 -179 294c0 221 135 352 352 352c228 0 337 -153 337 -355c0 -126 -90 -243 -184 -291h217v-72h-303v71c105 77 185 176 185 293c0 165 -89 282 -261 282c-180 0 -258 -116 -258 -280c0 -153 92 -218 180 -295v-71h-300zM6 610
c-47 0 -84 37 -125 37c-33 0 -48 -9 -70 -25l-31 48c11 10 44 44 108 44c50 0 82 -36 120 -36c33 0 58 18 71 28l30 -47c-8 -12 -45 -49 -103 -49zM-112 426c0 0 33 50 33 109c0 17 -3 34 -10 50h74c8 -20 13 -39 13 -57c0 -42 -20 -76 -44 -102h-66z" />
    <glyph glyph-name="uni1F6F" unicode="&#x1f6f;" horiz-adv-x="826" 
d="M35 0v72h214c-87 40 -179 147 -179 294c0 221 135 352 352 352c228 0 337 -153 337 -355c0 -126 -90 -243 -184 -291h217v-72h-303v71c105 77 185 176 185 293c0 165 -89 282 -261 282c-180 0 -258 -116 -258 -280c0 -153 92 -218 180 -295v-71h-300zM-4 610
c-47 0 -84 37 -125 37c-33 0 -47 -9 -70 -25l-31 48c11 10 44 44 108 44c51 0 82 -36 120 -36c34 0 58 18 71 28l30 -47c-8 -12 -45 -49 -103 -49zM-73 426c-25 26 -44 60 -44 102c0 18 4 37 13 57h74c-7 -16 -10 -33 -10 -50c0 -59 33 -109 33 -109h-66z" />
    <glyph glyph-name="uni1F70" unicode="&#x1f70;" horiz-adv-x="615" 
d="M250 -8c-76 0 -195 32 -195 256c0 198 118 312 259 312c79 0 139 -15 187 -35v-412c0 -41 18 -56 52 -57l-6 -62c-14 1 -32 2 -44 6c-54 15 -74 48 -75 122c-23 -70 -103 -130 -178 -130zM258 59c71 0 153 66 165 197v217c-24 10 -57 21 -109 21
c-131 0 -179 -119 -179 -244c0 -134 51 -191 123 -191zM320 630l-88 158h80l76 -158h-68z" />
    <glyph glyph-name="uni1F71" unicode="&#x1f71;" horiz-adv-x="615" 
d="M304 631l76 158h80l-89 -158h-67zM250 -8c-76 0 -195 32 -195 256c0 198 118 312 259 312c79 0 139 -15 187 -35v-412c0 -41 18 -56 52 -57l-6 -62c-14 1 -32 2 -44 6c-54 15 -74 48 -75 122c-23 -70 -103 -130 -178 -130zM258 59c71 0 153 66 165 197v217
c-24 10 -57 21 -109 21c-131 0 -179 -119 -179 -244c0 -134 51 -191 123 -191z" />
    <glyph glyph-name="uni1F72" unicode="&#x1f72;" horiz-adv-x="508" 
d="M276 -11c-151 0 -223 57 -223 159c0 65 38 122 113 146c-55 18 -89 56 -89 119c0 75 66 147 213 147c95 0 147 -22 177 -36l-24 -62c-23 9 -87 33 -158 33c-84 0 -129 -32 -129 -86c0 -73 56 -84 88 -84h124v-61h-127c-40 0 -106 -29 -106 -108c0 -56 45 -100 150 -100
c64 0 115 14 164 34l24 -58c-38 -18 -107 -43 -197 -43zM267 630l-88 158h80l76 -158h-68z" />
    <glyph glyph-name="uni1F73" unicode="&#x1f73;" horiz-adv-x="508" 
d="M237 631l76 158h80l-89 -158h-67zM276 -11c-151 0 -223 57 -223 159c0 65 38 122 113 146c-55 18 -89 56 -89 119c0 75 66 147 213 147c95 0 147 -22 177 -36l-24 -62c-23 9 -87 33 -158 33c-84 0 -129 -32 -129 -86c0 -73 56 -84 88 -84h124v-61h-127
c-40 0 -106 -29 -106 -108c0 -56 45 -100 150 -100c64 0 115 14 164 34l24 -58c-38 -18 -107 -43 -197 -43z" />
    <glyph glyph-name="uni1F74" unicode="&#x1f74;" horiz-adv-x="634" 
d="M470 -220v557c0 95 -13 153 -113 153c-64 0 -147 -53 -171 -67v-423h-78v445c0 40 -27 49 -51 52l5 62c13 0 29 -1 43 -5c39 -8 73 -29 81 -71c38 28 107 77 191 77c161 0 170 -114 170 -208v-572h-77zM314 630l-88 158h80l76 -158h-68z" />
    <glyph glyph-name="uni1F75" unicode="&#x1f75;" horiz-adv-x="634" 
d="M297 631l76 158h80l-89 -158h-67zM470 -220v557c0 95 -13 153 -113 153c-64 0 -147 -53 -171 -67v-423h-78v445c0 40 -27 49 -51 52l5 62c13 0 29 -1 43 -5c39 -8 73 -29 81 -71c38 28 107 77 191 77c161 0 170 -114 170 -208v-572h-77z" />
    <glyph glyph-name="uni1F76" unicode="&#x1f76;" horiz-adv-x="266" 
d="M92 0v546h80v-546h-80zM96 630l-88 158h80l76 -158h-68z" />
    <glyph glyph-name="uni1F77" unicode="&#x1f77;" horiz-adv-x="266" 
d="M95 631l76 158h80l-89 -158h-67zM92 0v546h80v-546h-80z" />
    <glyph glyph-name="uni1F78" unicode="&#x1f78;" horiz-adv-x="604" 
d="M272 630l-88 158h80l76 -158h-68zM299 -12c-151 0 -244 100 -244 279c0 189 105 293 251 293c162 0 242 -104 242 -287c0 -192 -106 -285 -249 -285zM305 53c131 0 163 111 163 220c0 101 -31 222 -165 222c-132 0 -167 -120 -167 -223c0 -114 40 -219 169 -219z" />
    <glyph glyph-name="uni1F79" unicode="&#x1f79;" horiz-adv-x="604" 
d="M260 629l76 158h80l-89 -158h-67zM299 -12c-151 0 -244 100 -244 279c0 189 105 293 251 293c162 0 242 -104 242 -287c0 -192 -106 -285 -249 -285zM305 53c131 0 163 111 163 220c0 101 -31 222 -165 222c-132 0 -167 -120 -167 -223c0 -114 40 -219 169 -219z" />
    <glyph glyph-name="uni1F7A" unicode="&#x1f7a;" horiz-adv-x="613" 
d="M309 -12c-115 0 -220 46 -220 202v356h76v-349c0 -117 72 -144 142 -144c78 0 141 33 141 160v333h76v-335c0 -172 -111 -223 -215 -223zM283 630l-88 158h80l76 -158h-68z" />
    <glyph glyph-name="uni1F7B" unicode="&#x1f7b;" horiz-adv-x="613" 
d="M266 631l76 158h80l-89 -158h-67zM309 -12c-115 0 -220 46 -220 202v356h76v-349c0 -117 72 -144 142 -144c78 0 141 33 141 160v333h76v-335c0 -172 -111 -223 -215 -223z" />
    <glyph glyph-name="uni1F7C" unicode="&#x1f7c;" horiz-adv-x="766" 
d="M239 -9c-122 0 -184 106 -184 246c0 111 23 203 132 309h91c-93 -80 -143 -181 -143 -301c0 -64 16 -184 117 -184c57 0 92 54 92 148v151h78v-148c0 -100 34 -151 92 -151c100 0 117 120 117 184c0 113 -53 222 -146 301h98c98 -96 127 -193 127 -304
c0 -130 -66 -251 -194 -251c-56 0 -120 38 -135 110c-25 -77 -86 -110 -142 -110zM363 630l-88 158h80l76 -158h-68z" />
    <glyph glyph-name="uni1F7D" unicode="&#x1f7d;" horiz-adv-x="766" 
d="M340 631l76 158h80l-89 -158h-67zM239 -9c-122 0 -184 106 -184 246c0 111 23 203 132 309h91c-93 -80 -143 -181 -143 -301c0 -64 16 -184 117 -184c57 0 92 54 92 148v151h78v-148c0 -100 34 -151 92 -151c100 0 117 120 117 184c0 113 -53 222 -146 301h98
c98 -96 127 -193 127 -304c0 -130 -66 -251 -194 -251c-56 0 -120 38 -135 110c-25 -77 -86 -110 -142 -110z" />
    <glyph glyph-name="uni1F80" unicode="&#x1f80;" horiz-adv-x="615" 
d="M278 630c0 0 33 50 33 109c0 18 -4 34 -10 50h73c9 -20 13 -39 13 -57c0 -41 -19 -76 -43 -102h-66zM250 -8c-76 0 -195 32 -195 256c0 198 118 312 259 312c79 0 139 -15 187 -35v-412c0 -41 18 -56 52 -57l-6 -62c-14 1 -32 2 -44 6c-54 15 -74 48 -75 122
c-23 -70 -103 -130 -178 -130zM258 59c71 0 153 66 165 197v217c-24 10 -57 21 -109 21c-131 0 -179 -119 -179 -244c0 -134 51 -191 123 -191zM382 -242c-80 2 -101 27 -101 116v54h60v-52c0 -49 8 -65 47 -71z" />
    <glyph glyph-name="uni1F81" unicode="&#x1f81;" horiz-adv-x="615" 
d="M250 -8c-76 0 -195 32 -195 256c0 198 118 312 259 312c79 0 139 -15 187 -35v-412c0 -41 18 -56 52 -57l-6 -62c-14 1 -32 2 -44 6c-54 15 -74 48 -75 122c-23 -70 -103 -130 -178 -130zM258 59c71 0 153 66 165 197v217c-24 10 -57 21 -109 21
c-131 0 -179 -119 -179 -244c0 -134 51 -191 123 -191zM372 -242c-80 2 -101 27 -101 116v54h60v-52c0 -49 8 -65 47 -71zM307 630c-25 26 -44 61 -44 102c0 18 4 37 13 57h74c-7 -16 -11 -32 -11 -50c0 -59 33 -109 33 -109h-65z" />
    <glyph glyph-name="uni1F82" unicode="&#x1f82;" horiz-adv-x="615" 
d="M250 -8c-76 0 -195 32 -195 256c0 198 118 312 259 312c79 0 139 -15 187 -35v-412c0 -41 18 -56 52 -57l-6 -62c-14 1 -32 2 -44 6c-54 15 -74 48 -75 122c-23 -70 -103 -130 -178 -130zM258 59c71 0 153 66 165 197v217c-24 10 -57 21 -109 21
c-131 0 -179 -119 -179 -244c0 -134 51 -191 123 -191zM372 -242c-80 2 -101 27 -101 116v54h60v-52c0 -49 8 -65 47 -71zM181 630c0 0 33 50 33 109c0 18 -3 34 -10 50h74c9 -20 13 -39 13 -57c0 -41 -20 -76 -44 -102h-66zM394 630l-88 159h80l76 -159h-68z" />
    <glyph glyph-name="uni1F83" unicode="&#x1f83;" horiz-adv-x="615" 
d="M250 -8c-76 0 -195 32 -195 256c0 198 118 312 259 312c79 0 139 -15 187 -35v-412c0 -41 18 -56 52 -57l-6 -62c-14 1 -32 2 -44 6c-54 15 -74 48 -75 122c-23 -70 -103 -130 -178 -130zM258 59c71 0 153 66 165 197v217c-24 10 -57 21 -109 21
c-131 0 -179 -119 -179 -244c0 -134 51 -191 123 -191zM382 -242c-80 2 -101 27 -101 116v54h60v-52c0 -49 8 -65 47 -71zM227 630c-25 26 -44 61 -44 102c0 18 4 37 13 57h74c-7 -16 -10 -32 -10 -50c0 -59 32 -109 32 -109h-65zM376 630l-88 159h80l76 -159h-68z" />
    <glyph glyph-name="uni1F84" unicode="&#x1f84;" horiz-adv-x="615" 
d="M250 -8c-76 0 -195 32 -195 256c0 198 118 312 259 312c79 0 139 -15 187 -35v-412c0 -41 18 -56 52 -57l-6 -62c-14 1 -32 2 -44 6c-54 15 -74 48 -75 122c-23 -70 -103 -130 -178 -130zM258 59c71 0 153 66 165 197v217c-24 10 -57 21 -109 21
c-131 0 -179 -119 -179 -244c0 -134 51 -191 123 -191zM376 -242c-80 2 -101 27 -101 116v54h60v-52c0 -49 8 -65 47 -71zM210 630c0 0 33 50 33 109c0 18 -3 34 -10 50h74c8 -20 13 -39 13 -57c0 -41 -20 -76 -44 -102h-66zM316 630l77 159h80l-89 -159h-68z" />
    <glyph glyph-name="uni1F85" unicode="&#x1f85;" horiz-adv-x="615" 
d="M250 -8c-76 0 -195 32 -195 256c0 198 118 312 259 312c79 0 139 -15 187 -35v-412c0 -41 18 -56 52 -57l-6 -62c-14 1 -32 2 -44 6c-54 15 -74 48 -75 122c-23 -70 -103 -130 -178 -130zM258 59c71 0 153 66 165 197v217c-24 10 -57 21 -109 21
c-131 0 -179 -119 -179 -244c0 -134 51 -191 123 -191zM392 -242c-80 2 -101 27 -101 116v54h60v-52c0 -49 8 -65 47 -71zM249 630c-25 26 -44 61 -44 102c0 18 4 37 13 57h74c-7 -16 -10 -32 -10 -50c0 -59 32 -109 32 -109h-65zM336 630l76 159h81l-89 -159h-68z" />
    <glyph glyph-name="uni1F86" unicode="&#x1f86;" horiz-adv-x="615" 
d="M250 -8c-76 0 -195 32 -195 256c0 198 118 312 259 312c79 0 139 -15 187 -35v-412c0 -41 18 -56 52 -57l-6 -62c-14 1 -32 2 -44 6c-54 15 -74 48 -75 122c-23 -70 -103 -130 -178 -130zM258 59c71 0 153 66 165 197v217c-24 10 -57 21 -109 21
c-131 0 -179 -119 -179 -244c0 -134 51 -191 123 -191zM382 -242c-80 2 -101 27 -101 116v54h60v-52c0 -49 8 -65 47 -71zM381 800c-47 0 -84 37 -125 37c-33 0 -48 -9 -70 -25l-31 48c11 10 44 44 108 44c50 0 82 -36 120 -36c33 0 58 18 71 28l30 -47
c-8 -12 -45 -49 -103 -49zM263 616c0 0 33 50 33 109c0 17 -3 34 -10 50h74c8 -20 13 -39 13 -57c0 -42 -20 -76 -44 -102h-66z" />
    <glyph glyph-name="uni1F87" unicode="&#x1f87;" horiz-adv-x="615" 
d="M250 -8c-76 0 -195 32 -195 256c0 198 118 312 259 312c79 0 139 -15 187 -35v-412c0 -41 18 -56 52 -57l-6 -62c-14 1 -32 2 -44 6c-54 15 -74 48 -75 122c-23 -70 -103 -130 -178 -130zM258 59c71 0 153 66 165 197v217c-24 10 -57 21 -109 21
c-131 0 -179 -119 -179 -244c0 -134 51 -191 123 -191zM392 -242c-80 2 -101 27 -101 116v54h60v-52c0 -49 8 -65 47 -71zM368 800c-47 0 -84 37 -125 37c-33 0 -47 -9 -70 -25l-31 48c11 10 44 44 108 44c51 0 82 -36 120 -36c34 0 58 18 71 28l30 -47
c-8 -12 -45 -49 -103 -49zM299 616c-25 26 -44 60 -44 102c0 18 4 37 13 57h74c-7 -16 -10 -33 -10 -50c0 -59 33 -109 33 -109h-66z" />
    <glyph glyph-name="uni1F88" unicode="&#x1f88;" horiz-adv-x="671" 
d="M51 549c0 0 33 50 33 109c0 18 -4 34 -10 50h73c9 -20 13 -39 13 -57c0 -41 -19 -76 -43 -102h-66zM13 0l282 707h111l255 -707h-88l-93 264h-280l-104 -264h-83zM226 330h231l-110 319zM412 -242c-80 2 -101 27 -101 116v54h60v-52c0 -49 8 -65 47 -71z" />
    <glyph glyph-name="uni1F89" unicode="&#x1f89;" horiz-adv-x="671" 
d="M13 0l282 707h111l255 -707h-88l-93 264h-280l-104 -264h-83zM226 330h231l-110 319zM412 -242c-80 2 -101 27 -101 116v54h60v-52c0 -49 8 -65 47 -71zM106 549c-25 26 -44 61 -44 102c0 18 4 37 13 57h74c-7 -16 -11 -32 -11 -50c0 -59 33 -109 33 -109h-65z" />
    <glyph glyph-name="uni1F8A" unicode="&#x1f8a;" horiz-adv-x="671" 
d="M13 0l282 707h111l255 -707h-88l-93 264h-280l-104 -264h-83zM226 330h231l-110 319zM412 -242c-80 2 -101 27 -101 116v54h60v-52c0 -49 8 -65 47 -71zM-91 549c0 0 33 50 33 109c0 18 -3 34 -10 50h74c9 -20 13 -39 13 -57c0 -41 -20 -76 -44 -102h-66zM122 549
l-88 159h80l76 -159h-68z" />
    <glyph glyph-name="uni1F8B" unicode="&#x1f8b;" horiz-adv-x="671" 
d="M13 0l282 707h111l255 -707h-88l-93 264h-280l-104 -264h-83zM226 330h231l-110 319zM412 -242c-80 2 -101 27 -101 116v54h60v-52c0 -49 8 -65 47 -71zM-61 549c-25 26 -44 61 -44 102c0 18 4 37 13 57h74c-7 -16 -10 -32 -10 -50c0 -59 32 -109 32 -109h-65zM88 549
l-88 159h80l76 -159h-68z" />
    <glyph glyph-name="uni1F8C" unicode="&#x1f8c;" horiz-adv-x="671" 
d="M13 0l282 707h111l255 -707h-88l-93 264h-280l-104 -264h-83zM226 330h231l-110 319zM412 -242c-80 2 -101 27 -101 116v54h60v-52c0 -49 8 -65 47 -71zM-50 549c0 0 33 50 33 109c0 18 -3 34 -10 50h74c8 -20 13 -39 13 -57c0 -41 -20 -76 -44 -102h-66zM56 549l77 159
h80l-89 -159h-68z" />
    <glyph glyph-name="uni1F8D" unicode="&#x1f8d;" horiz-adv-x="671" 
d="M13 0l282 707h111l255 -707h-88l-93 264h-280l-104 -264h-83zM226 330h231l-110 319zM412 -242c-80 2 -101 27 -101 116v54h60v-52c0 -49 8 -65 47 -71zM-34 549c-25 26 -44 61 -44 102c0 18 4 37 13 57h74c-7 -16 -10 -32 -10 -50c0 -59 32 -109 32 -109h-65zM53 549
l76 159h81l-89 -159h-68z" />
    <glyph glyph-name="uni1F8E" unicode="&#x1f8e;" horiz-adv-x="671" 
d="M13 0l282 707h111l255 -707h-88l-93 264h-280l-104 -264h-83zM226 330h231l-110 319zM412 -242c-80 2 -101 27 -101 116v54h60v-52c0 -49 8 -65 47 -71zM120 613c-47 0 -84 37 -125 37c-33 0 -48 -9 -70 -25l-31 48c11 10 44 44 108 44c50 0 82 -36 120 -36
c33 0 58 18 71 28l30 -47c-8 -12 -45 -49 -103 -49zM2 429c0 0 33 50 33 109c0 17 -3 34 -10 50h74c8 -20 13 -39 13 -57c0 -42 -20 -76 -44 -102h-66z" />
    <glyph glyph-name="uni1F8F" unicode="&#x1f8f;" horiz-adv-x="671" 
d="M13 0l282 707h111l255 -707h-88l-93 264h-280l-104 -264h-83zM226 330h231l-110 319zM412 -242c-80 2 -101 27 -101 116v54h60v-52c0 -49 8 -65 47 -71zM102 613c-47 0 -84 37 -125 37c-33 0 -47 -9 -70 -25l-31 48c11 10 44 44 108 44c51 0 82 -36 120 -36
c34 0 58 18 71 28l30 -47c-8 -12 -45 -49 -103 -49zM33 429c-25 26 -44 60 -44 102c0 18 4 37 13 57h74c-7 -16 -10 -33 -10 -50c0 -59 33 -109 33 -109h-66z" />
    <glyph glyph-name="uni1F90" unicode="&#x1f90;" horiz-adv-x="634" 
d="M302 630c0 0 33 50 33 109c0 18 -4 34 -10 50h73c9 -20 13 -39 13 -57c0 -41 -19 -76 -43 -102h-66zM470 -220v557c0 95 -13 153 -113 153c-64 0 -147 -53 -171 -67v-423h-78v445c0 40 -27 49 -51 52l5 62c13 0 29 -1 43 -5c39 -8 73 -29 81 -71c38 28 107 77 191 77
c161 0 170 -114 170 -208v-572h-77zM214 -242c-80 2 -101 27 -101 116v54h60v-52c0 -49 8 -65 47 -71z" />
    <glyph glyph-name="uni1F91" unicode="&#x1f91;" horiz-adv-x="634" 
d="M470 -220v557c0 95 -13 153 -113 153c-64 0 -147 -53 -171 -67v-423h-78v445c0 40 -27 49 -51 52l5 62c13 0 29 -1 43 -5c39 -8 73 -29 81 -71c38 28 107 77 191 77c161 0 170 -114 170 -208v-572h-77zM214 -242c-80 2 -101 27 -101 116v54h60v-52c0 -49 8 -65 47 -71z
M324 630c-25 26 -44 61 -44 102c0 18 4 37 13 57h74c-7 -16 -11 -32 -11 -50c0 -59 33 -109 33 -109h-65z" />
    <glyph glyph-name="uni1F92" unicode="&#x1f92;" horiz-adv-x="634" 
d="M470 -220v557c0 95 -13 153 -113 153c-64 0 -147 -53 -171 -67v-423h-78v445c0 40 -27 49 -51 52l5 62c13 0 29 -1 43 -5c39 -8 73 -29 81 -71c38 28 107 77 191 77c161 0 170 -114 170 -208v-572h-77zM211 630c0 0 33 50 33 109c0 18 -3 34 -10 50h74
c9 -20 13 -39 13 -57c0 -41 -20 -76 -44 -102h-66zM424 630l-88 159h80l76 -159h-68zM214 -242c-80 2 -101 27 -101 116v54h60v-52c0 -49 8 -65 47 -71z" />
    <glyph glyph-name="uni1F93" unicode="&#x1f93;" horiz-adv-x="634" 
d="M470 -220v557c0 95 -13 153 -113 153c-64 0 -147 -53 -171 -67v-423h-78v445c0 40 -27 49 -51 52l5 62c13 0 29 -1 43 -5c39 -8 73 -29 81 -71c38 28 107 77 191 77c161 0 170 -114 170 -208v-572h-77zM243 630c-25 26 -44 61 -44 102c0 18 4 37 13 57h74
c-7 -16 -10 -32 -10 -50c0 -59 32 -109 32 -109h-65zM392 630l-88 159h80l76 -159h-68zM213 -242c-80 2 -101 27 -101 116v54h60v-52c0 -49 8 -65 47 -71z" />
    <glyph glyph-name="uni1F94" unicode="&#x1f94;" horiz-adv-x="634" 
d="M470 -220v557c0 95 -13 153 -113 153c-64 0 -147 -53 -171 -67v-423h-78v445c0 40 -27 49 -51 52l5 62c13 0 29 -1 43 -5c39 -8 73 -29 81 -71c38 28 107 77 191 77c161 0 170 -114 170 -208v-572h-77zM239 630c0 0 33 50 33 109c0 18 -3 34 -10 50h74
c8 -20 13 -39 13 -57c0 -41 -20 -76 -44 -102h-66zM345 630l77 159h80l-89 -159h-68zM214 -242c-80 2 -101 27 -101 116v54h60v-52c0 -49 8 -65 47 -71z" />
    <glyph glyph-name="uni1F95" unicode="&#x1f95;" horiz-adv-x="634" 
d="M470 -220v557c0 95 -13 153 -113 153c-64 0 -147 -53 -171 -67v-423h-78v445c0 40 -27 49 -51 52l5 62c13 0 29 -1 43 -5c39 -8 73 -29 81 -71c38 28 107 77 191 77c161 0 170 -114 170 -208v-572h-77zM258 630c-25 26 -44 61 -44 102c0 18 4 37 13 57h74
c-7 -16 -10 -32 -10 -50c0 -59 32 -109 32 -109h-65zM345 630l76 159h81l-89 -159h-68zM213 -242c-80 2 -101 27 -101 116v54h60v-52c0 -49 8 -65 47 -71z" />
    <glyph glyph-name="uni1F96" unicode="&#x1f96;" horiz-adv-x="634" 
d="M470 -220v557c0 95 -13 153 -113 153c-64 0 -147 -53 -171 -67v-423h-78v445c0 40 -27 49 -51 52l5 62c13 0 29 -1 43 -5c39 -8 73 -29 81 -71c38 28 107 77 191 77c161 0 170 -114 170 -208v-572h-77zM214 -242c-80 2 -101 27 -101 116v54h60v-52c0 -49 8 -65 47 -71z
M411 800c-47 0 -84 37 -125 37c-33 0 -48 -9 -70 -25l-31 48c11 10 44 44 108 44c50 0 82 -36 120 -36c33 0 58 18 71 28l30 -47c-8 -12 -45 -49 -103 -49zM293 616c0 0 33 50 33 109c0 17 -3 34 -10 50h74c8 -20 13 -39 13 -57c0 -42 -20 -76 -44 -102h-66z" />
    <glyph glyph-name="uni1F97" unicode="&#x1f97;" horiz-adv-x="634" 
d="M470 -220v557c0 95 -13 153 -113 153c-64 0 -147 -53 -171 -67v-423h-78v445c0 40 -27 49 -51 52l5 62c13 0 29 -1 43 -5c39 -8 73 -29 81 -71c38 28 107 77 191 77c161 0 170 -114 170 -208v-572h-77zM397 800c-47 0 -84 37 -125 37c-33 0 -47 -9 -70 -25l-31 48
c11 10 44 44 108 44c51 0 82 -36 120 -36c34 0 58 18 71 28l30 -47c-8 -12 -45 -49 -103 -49zM328 616c-25 26 -44 60 -44 102c0 18 4 37 13 57h74c-7 -16 -10 -33 -10 -50c0 -59 33 -109 33 -109h-66zM213 -242c-80 2 -101 27 -101 116v54h60v-52c0 -49 8 -65 47 -71z" />
    <glyph glyph-name="uni1F98" unicode="&#x1f98;" horiz-adv-x="775" 
d="M-50 549c0 0 33 50 33 109c0 18 -4 34 -10 50h73c9 -20 13 -39 13 -57c0 -41 -19 -76 -43 -102h-66zM111 0v707h82v-318h388v318h82v-707h-82v321h-388v-321h-82zM452 -242c-80 2 -101 27 -101 116v54h60v-52c0 -49 8 -65 47 -71z" />
    <glyph glyph-name="uni1F99" unicode="&#x1f99;" horiz-adv-x="775" 
d="M111 0v707h82v-318h388v318h82v-707h-82v321h-388v-321h-82zM452 -242c-80 2 -101 27 -101 116v54h60v-52c0 -49 8 -65 47 -71zM-27 549c-25 26 -44 61 -44 102c0 18 4 37 13 57h74c-7 -16 -11 -32 -11 -50c0 -59 33 -109 33 -109h-65z" />
    <glyph glyph-name="uni1F9A" unicode="&#x1f9a;" horiz-adv-x="775" 
d="M111 0v707h82v-318h388v318h82v-707h-82v321h-388v-321h-82zM452 -242c-80 2 -101 27 -101 116v54h60v-52c0 -49 8 -65 47 -71zM-211 549c0 0 33 50 33 109c0 18 -3 34 -10 50h74c9 -20 13 -39 13 -57c0 -41 -20 -76 -44 -102h-66zM2 549l-88 159h80l76 -159h-68z" />
    <glyph glyph-name="uni1F9B" unicode="&#x1f9b;" horiz-adv-x="775" 
d="M111 0v707h82v-318h388v318h82v-707h-82v321h-388v-321h-82zM452 -242c-80 2 -101 27 -101 116v54h60v-52c0 -49 8 -65 47 -71zM-149 549c-25 26 -44 61 -44 102c0 18 4 37 13 57h74c-7 -16 -10 -32 -10 -50c0 -59 32 -109 32 -109h-65zM0 549l-88 159h80l76 -159h-68z
" />
    <glyph glyph-name="uni1F9C" unicode="&#x1f9c;" horiz-adv-x="775" 
d="M111 0v707h82v-318h388v318h82v-707h-82v321h-388v-321h-82zM452 -242c-80 2 -101 27 -101 116v54h60v-52c0 -49 8 -65 47 -71zM-191 549c0 0 33 50 33 109c0 18 -3 34 -10 50h74c8 -20 13 -39 13 -57c0 -41 -20 -76 -44 -102h-66zM-85 549l77 159h80l-89 -159h-68z" />
    <glyph glyph-name="uni1F9D" unicode="&#x1f9d;" horiz-adv-x="775" 
d="M111 0v707h82v-318h388v318h82v-707h-82v321h-388v-321h-82zM452 -242c-80 2 -101 27 -101 116v54h60v-52c0 -49 8 -65 47 -71zM-176 549c-25 26 -44 61 -44 102c0 18 4 37 13 57h74c-7 -16 -10 -32 -10 -50c0 -59 32 -109 32 -109h-65zM-89 549l76 159h81l-89 -159h-68z
" />
    <glyph glyph-name="uni1F9E" unicode="&#x1f9e;" horiz-adv-x="775" 
d="M111 0v707h82v-318h388v318h82v-707h-82v321h-388v-321h-82zM452 -242c-80 2 -101 27 -101 116v54h60v-52c0 -49 8 -65 47 -71zM-28 610c-47 0 -84 37 -125 37c-33 0 -48 -9 -70 -25l-31 48c11 10 44 44 108 44c50 0 82 -36 120 -36c33 0 58 18 71 28l30 -47
c-8 -12 -45 -49 -103 -49zM-146 426c0 0 33 50 33 109c0 17 -3 34 -10 50h74c8 -20 13 -39 13 -57c0 -42 -20 -76 -44 -102h-66z" />
    <glyph glyph-name="uni1F9F" unicode="&#x1f9f;" horiz-adv-x="775" 
d="M111 0v707h82v-318h388v318h82v-707h-82v321h-388v-321h-82zM452 -242c-80 2 -101 27 -101 116v54h60v-52c0 -49 8 -65 47 -71zM-41 607c-47 0 -84 37 -125 37c-33 0 -47 -9 -70 -25l-31 48c11 10 44 44 108 44c51 0 82 -36 120 -36c34 0 58 18 71 28l30 -47
c-8 -12 -45 -49 -103 -49zM-110 423c-25 26 -44 60 -44 102c0 18 4 37 13 57h74c-7 -16 -10 -33 -10 -50c0 -59 33 -109 33 -109h-66z" />
    <glyph glyph-name="uni1FA0" unicode="&#x1fa0;" horiz-adv-x="766" 
d="M335 630c0 0 33 50 33 109c0 18 -4 34 -10 50h73c9 -20 13 -39 13 -57c0 -41 -19 -76 -43 -102h-66zM462 -242c-80 2 -101 27 -101 116v54h60v-52c0 -49 8 -65 47 -71zM239 -9c-122 0 -184 106 -184 246c0 111 23 203 132 309h91c-93 -80 -143 -181 -143 -301
c0 -64 16 -184 117 -184c57 0 92 54 92 148v151h78v-148c0 -100 34 -151 92 -151c100 0 117 120 117 184c0 113 -53 222 -146 301h98c98 -96 127 -193 127 -304c0 -130 -66 -251 -194 -251c-56 0 -120 38 -135 110c-25 -77 -86 -110 -142 -110z" />
    <glyph glyph-name="uni1FA1" unicode="&#x1fa1;" horiz-adv-x="766" 
d="M462 -242c-80 2 -101 27 -101 116v54h60v-52c0 -49 8 -65 47 -71zM239 -9c-122 0 -184 106 -184 246c0 111 23 203 132 309h91c-93 -80 -143 -181 -143 -301c0 -64 16 -184 117 -184c57 0 92 54 92 148v151h78v-148c0 -100 34 -151 92 -151c100 0 117 120 117 184
c0 113 -53 222 -146 301h98c98 -96 127 -193 127 -304c0 -130 -66 -251 -194 -251c-56 0 -120 38 -135 110c-25 -77 -86 -110 -142 -110zM367 630c-25 26 -44 61 -44 102c0 18 4 37 13 57h74c-7 -16 -11 -32 -11 -50c0 -59 33 -109 33 -109h-65z" />
    <glyph glyph-name="uni1FA2" unicode="&#x1fa2;" horiz-adv-x="766" 
d="M462 -242c-80 2 -101 27 -101 116v54h60v-52c0 -49 8 -65 47 -71zM239 -9c-122 0 -184 106 -184 246c0 111 23 203 132 309h91c-93 -80 -143 -181 -143 -301c0 -64 16 -184 117 -184c57 0 92 54 92 148v151h78v-148c0 -100 34 -151 92 -151c100 0 117 120 117 184
c0 113 -53 222 -146 301h98c98 -96 127 -193 127 -304c0 -130 -66 -251 -194 -251c-56 0 -120 38 -135 110c-25 -77 -86 -110 -142 -110zM249 630c0 0 33 50 33 109c0 18 -3 34 -10 50h74c9 -20 13 -39 13 -57c0 -41 -20 -76 -44 -102h-66zM462 630l-88 159h80l76 -159h-68z
" />
    <glyph glyph-name="uni1FA3" unicode="&#x1fa3;" horiz-adv-x="766" 
d="M239 -9c-122 0 -184 106 -184 246c0 111 23 203 132 309h91c-93 -80 -143 -181 -143 -301c0 -64 16 -184 117 -184c57 0 92 54 92 148v151h78v-148c0 -100 34 -151 92 -151c100 0 117 120 117 184c0 113 -53 222 -146 301h98c98 -96 127 -193 127 -304
c0 -130 -66 -251 -194 -251c-56 0 -120 38 -135 110c-25 -77 -86 -110 -142 -110zM462 -242c-80 2 -101 27 -101 116v54h60v-52c0 -49 8 -65 47 -71zM287 630c-25 26 -44 61 -44 102c0 18 4 37 13 57h74c-7 -16 -10 -32 -10 -50c0 -59 32 -109 32 -109h-65zM436 630l-88 159
h80l76 -159h-68z" />
    <glyph glyph-name="uni1FA4" unicode="&#x1fa4;" horiz-adv-x="766" 
d="M239 -9c-122 0 -184 106 -184 246c0 111 23 203 132 309h91c-93 -80 -143 -181 -143 -301c0 -64 16 -184 117 -184c57 0 92 54 92 148v151h78v-148c0 -100 34 -151 92 -151c100 0 117 120 117 184c0 113 -53 222 -146 301h98c98 -96 127 -193 127 -304
c0 -130 -66 -251 -194 -251c-56 0 -120 38 -135 110c-25 -77 -86 -110 -142 -110zM462 -242c-80 2 -101 27 -101 116v54h60v-52c0 -49 8 -65 47 -71zM284 630c0 0 33 50 33 109c0 18 -3 34 -10 50h74c8 -20 13 -39 13 -57c0 -41 -20 -76 -44 -102h-66zM390 630l77 159h80
l-89 -159h-68z" />
    <glyph glyph-name="uni1FA5" unicode="&#x1fa5;" horiz-adv-x="766" 
d="M462 -242c-80 2 -101 27 -101 116v54h60v-52c0 -49 8 -65 47 -71zM239 -9c-122 0 -184 106 -184 246c0 111 23 203 132 309h91c-93 -80 -143 -181 -143 -301c0 -64 16 -184 117 -184c57 0 92 54 92 148v151h78v-148c0 -100 34 -151 92 -151c100 0 117 120 117 184
c0 113 -53 222 -146 301h98c98 -96 127 -193 127 -304c0 -130 -66 -251 -194 -251c-56 0 -120 38 -135 110c-25 -77 -86 -110 -142 -110zM313 629c-25 26 -44 61 -44 102c0 18 4 37 13 57h74c-7 -16 -10 -32 -10 -50c0 -59 32 -109 32 -109h-65zM400 629l76 159h81l-89 -159
h-68z" />
    <glyph glyph-name="uni1FA6" unicode="&#x1fa6;" horiz-adv-x="766" 
d="M462 -242c-80 2 -101 27 -101 116v54h60v-52c0 -49 8 -65 47 -71zM239 -9c-122 0 -184 106 -184 246c0 111 23 203 132 309h91c-93 -80 -143 -181 -143 -301c0 -64 16 -184 117 -184c57 0 92 54 92 148v151h78v-148c0 -100 34 -151 92 -151c100 0 117 120 117 184
c0 113 -53 222 -146 301h98c98 -96 127 -193 127 -304c0 -130 -66 -251 -194 -251c-56 0 -120 38 -135 110c-25 -77 -86 -110 -142 -110zM458 800c-47 0 -84 37 -125 37c-33 0 -48 -9 -70 -25l-31 48c11 10 44 44 108 44c50 0 82 -36 120 -36c33 0 58 18 71 28l30 -47
c-8 -12 -45 -49 -103 -49zM340 616c0 0 33 50 33 109c0 17 -3 34 -10 50h74c8 -20 13 -39 13 -57c0 -42 -20 -76 -44 -102h-66z" />
    <glyph glyph-name="uni1FA7" unicode="&#x1fa7;" horiz-adv-x="766" 
d="M462 -242c-80 2 -101 27 -101 116v54h60v-52c0 -49 8 -65 47 -71zM239 -9c-122 0 -184 106 -184 246c0 111 23 203 132 309h91c-93 -80 -143 -181 -143 -301c0 -64 16 -184 117 -184c57 0 92 54 92 148v151h78v-148c0 -100 34 -151 92 -151c100 0 117 120 117 184
c0 113 -53 222 -146 301h98c98 -96 127 -193 127 -304c0 -130 -66 -251 -194 -251c-56 0 -120 38 -135 110c-25 -77 -86 -110 -142 -110zM433 800c-47 0 -84 37 -125 37c-33 0 -47 -9 -70 -25l-31 48c11 10 44 44 108 44c51 0 82 -36 120 -36c34 0 58 18 71 28l30 -47
c-8 -12 -45 -49 -103 -49zM364 616c-25 26 -44 60 -44 102c0 18 4 37 13 57h74c-7 -16 -10 -33 -10 -50c0 -59 33 -109 33 -109h-66z" />
    <glyph glyph-name="uni1FA8" unicode="&#x1fa8;" horiz-adv-x="826" 
d="M-47 549c0 0 33 50 33 109c0 18 -4 34 -10 50h73c9 -20 13 -39 13 -57c0 -41 -19 -76 -43 -102h-66zM484 -242c-80 2 -101 27 -101 116v54h60v-52c0 -49 8 -65 47 -71zM35 0v72h214c-87 40 -179 147 -179 294c0 221 135 352 352 352c228 0 337 -153 337 -355
c0 -126 -90 -243 -184 -291h217v-72h-303v71c105 77 185 176 185 293c0 165 -89 282 -261 282c-180 0 -258 -116 -258 -280c0 -153 92 -218 180 -295v-71h-300z" />
    <glyph glyph-name="uni1FA9" unicode="&#x1fa9;" horiz-adv-x="826" 
d="M484 -242c-80 2 -101 27 -101 116v54h60v-52c0 -49 8 -65 47 -71zM35 0v72h214c-87 40 -179 147 -179 294c0 221 135 352 352 352c228 0 337 -153 337 -355c0 -126 -90 -243 -184 -291h217v-72h-303v71c105 77 185 176 185 293c0 165 -89 282 -261 282
c-180 0 -258 -116 -258 -280c0 -153 92 -218 180 -295v-71h-300zM-14 549c-25 26 -44 61 -44 102c0 18 4 37 13 57h74c-7 -16 -11 -32 -11 -50c0 -59 33 -109 33 -109h-65z" />
    </font>
</defs>
</svg>
