<?xml version="1.0" standalone="no"?>
<!DOCTYPE svg PUBLIC "-//W3C//DTD SVG 1.1//EN" "http://www.w3.org/Graphics/SVG/1.1/DTD/svg11.dtd" >
<svg>
<metadata>
Created by FontForge 20090914 at Fri Oct 28 12:29:53 2016
 By www-data
The digitally encoded machine readable software for producing the Typefaces licensed to you is copyrighted (c) 2006 Typotheque V.O.F. All rights reserved.
</metadata>
<defs>
<font id="FedraSerifAPro-BookItalic" horiz-adv-x="600" >
  <font-face 
    font-family="Fedra Serif A Pro Book"
    font-weight="350"
    font-style="italic"
    font-stretch="normal"
    units-per-em="1000"
    panose-1="2 0 5 3 4 0 0 9 0 4"
    ascent="780"
    descent="-220"
    x-height="552"
    cap-height="707"
    bbox="-509 -1247 2301 984"
    underline-thickness="50"
    underline-position="-50"
    stemh="69"
    stemv="88"
    unicode-range="U+0020-U+FE69"
  />
<missing-glyph horiz-adv-x="712" 
d="M305 375v27h27v-27h-27zM380 525v27h27v-27h-27zM305 525v27h27v-27h-27zM230 525v27h27v-27h-27zM80 0v27h27v-27h-27zM155 0v27h27v-27h-27zM230 0v27h27v-27h-27zM305 0v27h27v-27h-27zM380 0v27h27v-27h-27zM80 75v27h27v-27h-27zM80 150v27h27v-27h-27zM80 225v27
h27v-27h-27zM80 300v27h27v-27h-27zM80 375v27h27v-27h-27zM80 450v27h27v-27h-27zM80 525v27h27v-27h-27zM80 600v27h27v-27h-27zM80 675v27h27v-27h-27zM155 675v27h27v-27h-27zM230 675v27h27v-27h-27zM305 675v27h27v-27h-27zM380 675v27h27v-27h-27zM455 675v27h27v-27
h-27zM530 675v27h27v-27h-27zM530 0v27h27v-27h-27zM455 0v27h27v-27h-27zM605 0v27h27v-27h-27zM605 675v27h27v-27h-27zM305 300v27h27v-27h-27zM305 150v27h27v-27h-27zM380 375v27h27v-27h-27zM455 375v27h27v-27h-27zM455 450v27h27v-27h-27zM455 525v27h27v-27h-27z
M605 600v27h27v-27h-27zM605 525v27h27v-27h-27zM605 375v27h27v-27h-27zM605 300v27h27v-27h-27zM605 150v27h27v-27h-27zM605 75v27h27v-27h-27zM605 225v27h27v-27h-27zM605 450v27h27v-27h-27z" />
    <glyph glyph-name="f_f" unicode="ff" horiz-adv-x="628" 
d="M44 -220l75 707h-84l7 59h83l3 30c11 115 87 190 218 190c66 0 133 -19 168 -36c35 23 79 36 132 36c34 0 99 -8 122 -27c0 -25 -15 -74 -31 -92c-29 23 -97 59 -132 59c-66 0 -86 -46 -94 -126l-4 -34h119l-7 -59h-119l-61 -582v-125h-95l75 707h-219l-60 -579v-128h-96
zM206 546h219l3 30c3 29 10 56 22 79c-38 22 -108 51 -145 51c-63 0 -87 -46 -95 -126z" />
    <glyph glyph-name="fi" unicode="fi" horiz-adv-x="587" 
d="M44 -220l75 707h-84l7 59h83l3 30c11 115 87 190 218 190c56 0 129 -14 156 -30c0 -25 -17 -76 -34 -93c-28 22 -128 63 -163 63c-63 0 -87 -46 -95 -126l-4 -34h120l-7 -59h-119l-60 -579v-128h-96zM420 -12c-28 0 -43 14 -43 40c0 19 5 51 7 69l35 432l83 34l-40 -483
h86v-21c-35 -35 -80 -71 -128 -71z" />
    <glyph glyph-name="fl" unicode="fl" horiz-adv-x="569" 
d="M44 -220l75 707h-84l7 59h83l3 30c11 115 87 190 218 190c74 0 153 -26 177 -37l-64 -649h83v-21c-34 -34 -79 -70 -128 -70c-27 0 -43 13 -43 40c0 18 5 50 7 69l58 564c-42 21 -105 44 -131 44c-64 0 -87 -46 -95 -126l-4 -34h120l-7 -59h-119l-60 -579v-128h-96z" />
    <glyph glyph-name="f_f_i" unicode="ffi" horiz-adv-x="880" 
d="M44 -220l75 707h-84l7 59h83l3 30c11 115 87 190 218 190c68 0 134 -18 168 -36c35 23 80 36 132 36c34 0 99 -8 122 -27c0 -25 -15 -74 -31 -92c-29 23 -97 59 -132 59c-66 0 -86 -46 -94 -126l-4 -34h119l-7 -59h-119l-61 -582v-125h-95l75 707h-219l-60 -579v-128h-96
zM710 -12c-28 0 -43 14 -43 40c0 19 5 51 7 69l35 432l83 34l-40 -483h86v-21c-35 -35 -80 -71 -128 -71zM206 546h219l3 30c3 29 10 55 22 79c-39 22 -105 51 -145 51c-63 0 -87 -46 -95 -126z" />
    <glyph glyph-name="f_f_l" unicode="ffl" horiz-adv-x="880" 
d="M44 -220l75 707h-84l7 59h83l3 30c11 115 87 190 218 190c67 0 133 -18 167 -36c35 23 81 36 133 36c74 0 153 -26 177 -37l-64 -649h83v-21c-34 -34 -79 -70 -128 -70c-27 0 -43 13 -43 40c0 18 5 50 7 69l58 564c-42 21 -105 44 -131 44c-64 0 -87 -46 -95 -126l-4 -34
h120l-7 -59h-119l-60 -579v-128h-96l75 707h-219l-60 -579v-128h-96zM206 546h219l3 30c3 29 10 56 21 79c-39 23 -112 51 -144 51c-64 0 -87 -46 -95 -126z" />
    <glyph glyph-name="f_h" unicode="fh" horiz-adv-x="859" 
d="M44 -220l75 707h-84l7 59h83l3 30c11 115 87 190 218 190c76 0 138 -25 178 -41l-32 -299c60 63 158 127 224 127c49 0 66 -17 66 -61c0 -12 -1 -25 -3 -41l-49 -369h86v-21c-35 -35 -80 -73 -128 -73c-27 0 -43 13 -43 40c0 18 2 33 6 61l49 364c-6 2 -14 4 -22 4
c-63 0 -164 -65 -190 -89l-23 -207v-161h-97l69 662c-41 21 -91 44 -132 44c-63 0 -87 -46 -95 -126l-4 -34h125l-7 -59h-124l-60 -579v-128h-96z" />
    <glyph glyph-name="f_b" unicode="fb" horiz-adv-x="818" 
d="M44 -220l75 707h-84l7 59h83l3 30c11 115 87 190 218 190c70 0 138 -20 178 -40l-33 -294c43 47 118 121 187 121c104 0 112 -57 112 -150c0 -169 -73 -416 -281 -416c-48 0 -100 18 -140 44l69 630c-40 21 -95 45 -133 45c-63 0 -87 -46 -95 -126l-4 -34h125l-7 -59
h-124l-60 -579v-128h-96zM536 54c157 0 166 308 166 416c-11 3 -22 5 -34 5c-67 0 -133 -60 -181 -102l-30 -295c25 -13 50 -24 79 -24z" />
    <glyph glyph-name="f_j" unicode="fj" horiz-adv-x="587" 
d="M67 0l52 487h-84l7 59h83l3 30c11 115 87 190 218 190c56 0 128 -13 156 -29c0 -25 -17 -77 -34 -94c-28 22 -128 63 -163 63c-63 0 -87 -46 -95 -126l-4 -34h120l-7 -59h-119l-36 -360v-127h-97zM239 -224c-38 0 -71 10 -84 15c3 28 11 60 22 79c18 -6 49 -15 74 -15
c84 0 111 28 119 129l42 542l85 35l-46 -578c-9 -105 -123 -207 -212 -207z" />
    <glyph glyph-name="f_k" unicode="fk" horiz-adv-x="795" 
d="M44 -220l75 707h-84l7 59h83l3 30c11 115 87 190 218 190c79 0 153 -28 177 -39l-56 -575v-152h-100l69 662c-42 21 -93 44 -131 44c-63 0 -87 -46 -95 -126l-4 -34h124l-7 -59h-123l-60 -579v-128h-96zM712 -27c-110 95 -140 173 -206 299l137 180c24 31 -11 55 -34 66
l4 28h160l11 -25l-202 -235c47 -80 94 -148 188 -244c-18 -39 -35 -52 -58 -69z" />
    <glyph glyph-name="f_t" unicode="ft" horiz-adv-x="702" 
d="M44 -220l74 707h-83l7 59h83l3 30c12 113 89 190 218 190c69 0 159 -28 207 -53l-17 -167h151l-7 -59h-152l-41 -405c16 -6 25 -9 42 -9c36 0 78 18 121 34l20 -41c-66 -49 -112 -76 -174 -76c-53 0 -95 6 -95 78c0 9 1 20 2 32l46 387h-249l-61 -582v-125h-95zM207 546
h249l11 98c-37 27 -110 62 -163 62c-65 0 -85 -46 -93 -126z" />
    <glyph glyph-name="f_idieresis" unicode="f&#xef;" horiz-adv-x="584" 
d="M44 -220l74 707h-83l7 59h83l3 30c12 113 89 191 218 190h6c10 8 19 13 23 13c12 0 57 -49 56 -62c-1 -10 -55 -62 -69 -62c-11 0 -40 32 -51 51h-7c-65 1 -85 -46 -93 -126l-4 -34h119l-7 -59h-119l-61 -582v-125h-95zM420 -12c-28 0 -43 14 -43 40c0 19 5 51 7 69
l35 432l83 34l-40 -483h86v-21c-35 -35 -80 -71 -128 -71zM600 655c-13 0 -57 50 -55 62c1 14 56 62 68 62s57 -49 56 -62c-1 -10 -55 -62 -69 -62z" />
    <glyph glyph-name="f_f_j" unicode="ffj" horiz-adv-x="880" 
d="M67 0l52 487h-84l7 59h83l3 30c11 115 87 190 218 190c68 0 134 -18 168 -36c35 23 80 36 132 36c34 0 99 -8 122 -27c0 -25 -15 -74 -31 -92c-29 23 -97 59 -132 59c-66 0 -86 -46 -94 -126l-4 -34h119l-7 -59h-119l-38 -362v-125h-95l52 487h-219l-37 -359v-128h-96z
M533 -224c-38 0 -71 10 -84 15c3 28 11 60 22 79c18 -6 49 -15 74 -15c84 0 111 28 119 129l42 542l85 35l-46 -578c-9 -105 -123 -207 -212 -207zM206 546h219l3 30c3 29 10 55 22 79c-39 22 -105 51 -145 51c-63 0 -87 -46 -95 -126z" />
    <glyph glyph-name="f_f_b" unicode="ffb" horiz-adv-x="1118" 
d="M44 -220l75 707h-84l7 59h83l3 30c11 115 87 190 218 190c66 0 132 -19 167 -36c35 23 79 36 133 36c70 0 138 -20 178 -40l-33 -294c43 47 118 121 187 121c104 0 112 -57 112 -150c0 -169 -73 -416 -281 -416c-48 0 -100 18 -140 44l69 630c-40 21 -95 45 -133 45
c-63 0 -87 -46 -95 -126l-4 -34h125l-7 -59h-124l-60 -579v-128h-96l75 707h-219l-60 -579v-128h-96zM836 54c157 0 166 308 166 416c-11 3 -22 5 -34 5c-67 0 -133 -60 -181 -102l-30 -295c25 -13 50 -24 79 -24zM206 546h219l3 30c4 36 16 72 21 79
c-38 22 -107 51 -144 51c-63 0 -87 -46 -95 -126z" />
    <glyph glyph-name="f_f_h" unicode="ffh" horiz-adv-x="1159" 
d="M44 -220l75 707h-84l7 59h83l3 30c11 115 87 190 218 190c66 0 132 -19 167 -36c35 23 79 36 133 36c76 0 138 -25 178 -41l-32 -299c60 63 158 127 224 127c49 0 66 -17 66 -61c0 -12 -1 -25 -3 -41l-49 -369h86v-21c-35 -35 -80 -73 -128 -73c-27 0 -43 13 -43 40
c0 18 2 33 6 61l49 364c-6 2 -14 4 -22 4c-63 0 -164 -65 -190 -89l-23 -207v-161h-97l69 662c-41 21 -91 44 -132 44c-63 0 -87 -46 -95 -126l-4 -34h125l-7 -59h-124l-60 -579v-128h-96l75 707h-219l-60 -579v-128h-96zM206 546h219l3 30c4 36 16 72 21 79
c-38 22 -107 51 -144 51c-63 0 -87 -46 -95 -126z" />
    <glyph glyph-name="f_f_k" unicode="ffk" horiz-adv-x="1096" 
d="M44 -220l75 707h-84l7 59h83l3 30c11 115 87 190 218 190c66 0 132 -19 167 -36c35 23 79 36 133 36c76 0 138 -25 178 -41l-56 -573v-152h-100l69 662c-41 21 -91 44 -132 44c-63 0 -87 -46 -95 -126l-4 -34h125l-7 -59h-124l-60 -579v-128h-96l75 707h-219l-60 -579
v-128h-96zM1013 -27c-110 95 -140 173 -206 299l137 180c24 31 -11 55 -34 66l4 28h160l11 -25l-202 -235c47 -80 94 -148 188 -244c-18 -39 -35 -52 -58 -69zM206 546h219l3 30c4 36 16 72 21 79c-38 22 -107 51 -144 51c-63 0 -87 -46 -95 -126z" />
    <glyph glyph-name="aogonek_j" unicode="&#x105;j" horiz-adv-x="779" 
d="M400 -223c-58 0 -139 10 -139 77c0 37 26 92 75 137c-15 6 -23 17 -23 36s5 55 8 82c-58 -61 -124 -122 -205 -122c-63 0 -78 32 -78 92c0 179 62 473 292 473c52 0 86 -12 118 -27l-48 -444l84 1v-24l-60 -50c-58 -50 -76 -86 -83 -145c11 -13 50 -20 79 -22
c95 0 159 55 166 143l42 542l85 35l-46 -578c-7 -84 -117 -206 -267 -206zM147 68c59 0 142 74 181 103l34 292c-18 11 -44 18 -79 18c-125 0 -160 -311 -160 -409c8 -3 16 -4 24 -4zM674 649c-14 0 -61 55 -61 69c0 13 63 69 76 69s62 -54 62 -68c0 -12 -64 -70 -77 -70z
" />
    <glyph glyph-name=".notdef" horiz-adv-x="712" 
d="M305 375v27h27v-27h-27zM380 525v27h27v-27h-27zM305 525v27h27v-27h-27zM230 525v27h27v-27h-27zM80 0v27h27v-27h-27zM155 0v27h27v-27h-27zM230 0v27h27v-27h-27zM305 0v27h27v-27h-27zM380 0v27h27v-27h-27zM80 75v27h27v-27h-27zM80 150v27h27v-27h-27zM80 225v27
h27v-27h-27zM80 300v27h27v-27h-27zM80 375v27h27v-27h-27zM80 450v27h27v-27h-27zM80 525v27h27v-27h-27zM80 600v27h27v-27h-27zM80 675v27h27v-27h-27zM155 675v27h27v-27h-27zM230 675v27h27v-27h-27zM305 675v27h27v-27h-27zM380 675v27h27v-27h-27zM455 675v27h27v-27
h-27zM530 675v27h27v-27h-27zM530 0v27h27v-27h-27zM455 0v27h27v-27h-27zM605 0v27h27v-27h-27zM605 675v27h27v-27h-27zM305 300v27h27v-27h-27zM305 150v27h27v-27h-27zM380 375v27h27v-27h-27zM455 375v27h27v-27h-27zM455 450v27h27v-27h-27zM455 525v27h27v-27h-27z
M605 600v27h27v-27h-27zM605 525v27h27v-27h-27zM605 375v27h27v-27h-27zM605 300v27h27v-27h-27zM605 150v27h27v-27h-27zM605 75v27h27v-27h-27zM605 225v27h27v-27h-27zM605 450v27h27v-27h-27z" />
    <glyph glyph-name="space" unicode=" " horiz-adv-x="180" 
 />
    <glyph glyph-name="exclam" unicode="!" horiz-adv-x="328" 
d="M124 -43c-15 0 -68 62 -68 78c0 14 70 76 85 76s69 -60 69 -76c0 -12 -71 -78 -86 -78zM108 180l36 527l61 30l56 -30l-76 -527h-77z" />
    <glyph glyph-name="quotedbl" unicode="&#x22;" horiz-adv-x="437" 
d="M68 515l25 240h97l-51 -240h-71zM258 515l25 240h97l-51 -240h-71z" />
    <glyph glyph-name="numbersign" unicode="#" horiz-adv-x="614" 
d="M111 -23l26 166h-91l7 65h94l24 148h-102l6 64h105l25 154h65l-23 -154h163l25 154h65l-25 -154h93l-7 -64h-96l-23 -148h104l-7 -65h-108l-25 -166h-65l25 166h-164l-26 -166h-65zM214 208h162l23 148h-163z" />
    <glyph glyph-name="dollar" unicode="$" horiz-adv-x="485" 
d="M165 -168l15 153c-47 2 -117 23 -117 67c0 32 14 49 28 70c70 -44 92 -62 177 -62c19 0 45 12 45 33c0 84 -192 193 -192 323c0 80 48 123 118 137l17 149h59l-16 -144c51 -1 124 -10 124 -57c0 -40 -18 -49 -36 -65c-48 39 -85 64 -149 64c-23 0 -45 -19 -45 -38
c0 -111 195 -209 195 -322c0 -89 -70 -137 -148 -151l-16 -157h-59z" />
    <glyph glyph-name="percent" unicode="%" horiz-adv-x="700" 
d="M214 368c-64 0 -102 30 -102 105c0 79 80 138 138 138c65 0 111 -25 111 -106c0 -72 -73 -137 -147 -137zM227 420c35 0 67 23 67 76c0 43 -13 63 -52 63c-40 0 -64 -29 -64 -80c0 -43 12 -59 49 -59zM455 -19c-64 0 -102 30 -102 105c0 79 80 138 138 138
c65 0 111 -25 111 -106c0 -72 -73 -137 -147 -137zM468 33c35 0 67 23 67 76c0 43 -13 63 -52 63c-40 0 -64 -29 -64 -80c0 -43 12 -59 49 -59zM97 62l-33 52l536 405l34 -51z" />
    <glyph glyph-name="ampersand" unicode="&#x26;" horiz-adv-x="620" 
d="M192 -13c-116 0 -157 56 -157 201c0 236 120 372 261 372c73 0 128 -15 128 -76c0 -78 -47 -135 -102 -163v-2c29 4 41 7 71 7h138c38 0 79 20 96 48l39 -31c-15 -33 -58 -92 -122 -92h-63c-29 -140 -138 -264 -289 -264zM218 60c89 0 158 68 182 191h-182l-7 50
c49 30 122 77 122 136c0 18 -1 32 -3 45c-20 11 -49 21 -76 21c-69 0 -130 -141 -130 -264c0 -97 3 -88 11 -152c17 -11 56 -27 83 -27z" />
    <glyph glyph-name="quotesingle" unicode="'" horiz-adv-x="247" 
d="M68 515l25 240h97l-52 -240h-70z" />
    <glyph glyph-name="parenleft" unicode="(" horiz-adv-x="353" 
d="M220 -223c-30 28 -158 194 -158 452c0 279 124 481 269 601l35 -39c-121 -112 -239 -307 -239 -553c0 -230 108 -392 136 -422z" />
    <glyph glyph-name="parenright" unicode=")" horiz-adv-x="353" 
d="M20 -223l-34 39c114 121 241 324 241 575c0 226 -108 373 -139 400l43 39c30 -24 160 -175 160 -433c0 -282 -148 -512 -271 -620z" />
    <glyph glyph-name="asterisk" unicode="*" horiz-adv-x="427" 
d="M208 406l19 140s-67 -74 -119 -66c-14 2 -26 8 -34 12l-6 14l129 66s-93 18 -106 65c-4 14 -3 28 -3 37l11 15l113 -75s-9 33 -9 68c0 25 5 50 20 65c11 11 24 16 32 21h16l-17 -140s72 86 125 70c12 -4 21 -11 29 -14l5 -14l-131 -68s92 -17 106 -63c4 -13 3 -28 4 -36
l-12 -16l-112 71s7 -29 7 -61c0 -25 -4 -52 -19 -68c-10 -11 -22 -17 -31 -23h-17z" />
    <glyph glyph-name="plus" unicode="+" horiz-adv-x="475" 
d="M177 121l21 200h-198l7 65h198l21 200h72l-21 -200h198l-7 -65h-198l-21 -200h-72z" />
    <glyph glyph-name="comma" unicode="," horiz-adv-x="280" 
d="M79 -180l-32 27c30 42 46 82 55 114c-15 23 -35 60 -35 91c0 28 78 42 105 42c9 -10 27 -52 27 -68c0 -50 -39 -137 -120 -206z" />
    <glyph glyph-name="hyphen" unicode="-" horiz-adv-x="381" 
d="M46 255l7 66l283 16l-9 -82h-281z" />
    <glyph glyph-name="hyphen" unicode="&#xad;" horiz-adv-x="381" 
d="M46 255l7 66l283 16l-9 -82h-281z" />
    <glyph glyph-name="period" unicode="." horiz-adv-x="280" 
d="M118 -43c-15 0 -68 62 -68 78c0 14 70 76 85 76s69 -60 69 -76c0 -12 -71 -78 -86 -78z" />
    <glyph glyph-name="slash" unicode="/" horiz-adv-x="367" 
d="M-13 -62l325 831h68l-325 -831h-68z" />
    <glyph glyph-name="zero" unicode="0" horiz-adv-x="488" 
d="M247 61c109 0 118 206 118 281c0 36 -1 77 -12 112c-27 23 -75 32 -111 32c-108 0 -113 -191 -113 -267c0 -43 2 -88 9 -131c27 -23 75 -27 109 -27zM218 -13c-136 0 -178 76 -178 202c0 135 44 367 217 367c135 0 197 -71 197 -203c0 -142 -60 -366 -236 -366z" />
    <glyph glyph-name="one" unicode="1" horiz-adv-x="328" 
d="M102 0l51 478h-123l6 57l212 29l-41 -403v-161h-105z" />
    <glyph glyph-name="two" unicode="2" horiz-adv-x="438" 
d="M24 0l-10 49c133 115 275 288 275 396c-28 32 -55 42 -104 42c-29 0 -55 -6 -95 -17l8 62c36 15 87 26 122 26c94 0 156 -51 156 -129c0 -123 -148 -264 -260 -356l257 19l-8 -92h-341z" />
    <glyph glyph-name="three" unicode="3" horiz-adv-x="377" 
d="M57 -167c-47 0 -101 10 -143 29c6 31 21 59 36 86c39 -23 103 -42 148 -42c82 0 142 75 142 154c0 80 -54 113 -127 127l-16 40c56 37 155 155 156 225c-21 25 -55 35 -87 35c-40 0 -79 -9 -116 -24l9 65c43 21 93 30 140 30c70 0 137 -35 137 -113
c0 -71 -88 -160 -150 -200c71 -15 141 -74 141 -151c0 -137 -136 -261 -270 -261z" />
    <glyph glyph-name="four" unicode="4" horiz-adv-x="498" 
d="M233 -161l23 186h-257l-15 40l263 481h56l-227 -439h189l46 439h86l-46 -439h113l-9 -82h-113l-14 -186h-95z" />
    <glyph glyph-name="five" unicode="5" horiz-adv-x="442" 
d="M102 -168c-52 0 -94 11 -142 30c12 43 28 69 38 85c47 -24 93 -42 146 -42c97 0 140 59 140 154c0 128 -115 182 -218 218l56 269h292l-17 -93l-229 15l-26 -126c97 -27 234 -121 234 -238c0 -139 -115 -272 -274 -272z" />
    <glyph glyph-name="six" unicode="6" horiz-adv-x="513" 
d="M207 -13c-107 0 -164 53 -164 183c0 233 120 550 330 550c34 0 68 -3 100 -15c-5 -30 -16 -57 -28 -78c-25 8 -51 15 -77 15c-157 0 -214 -190 -229 -399c-4 -44 -5 -89 -5 -133c22 -26 50 -53 105 -53c103 0 120 166 120 286c-24 20 -36 29 -85 29c-22 0 -32 1 -52 -2
l2 56c26 7 46 12 86 12c127 0 142 -59 142 -135c0 -146 -92 -316 -245 -316z" />
    <glyph glyph-name="seven" unicode="7" horiz-adv-x="424" 
d="M64 -192l-64 29l331 617l-288 -6c1 54 6 77 16 98h349l21 -46z" />
    <glyph glyph-name="eight" unicode="8" horiz-adv-x="527" 
d="M223 -14c-107 0 -183 29 -183 144c0 105 95 185 165 244c-50 47 -92 98 -92 158c0 101 85 186 198 186c94 0 156 -43 156 -121c0 -82 -69 -153 -141 -210c65 -56 129 -112 129 -179c0 -129 -103 -222 -232 -222zM258 44c61 0 103 57 103 140c0 57 -64 108 -127 164
c-50 -62 -108 -175 -108 -252c30 -32 79 -52 132 -52zM297 412c45 58 87 142 87 206c-22 26 -57 43 -99 43c-52 0 -89 -35 -89 -94c0 -58 47 -107 101 -155z" />
    <glyph glyph-name="nine" unicode="9" horiz-adv-x="513" 
d="M129 -175c-33 0 -67 3 -99 15c5 30 16 57 28 78c25 -7 51 -15 77 -15c157 0 214 191 229 399c4 44 5 89 5 133c-22 26 -50 54 -105 54c-103 0 -120 -167 -120 -287c24 -20 36 -29 85 -29c22 0 31 0 52 3l-2 -57c-26 -7 -46 -11 -86 -11c-127 0 -142 59 -142 134
c0 147 92 316 244 316c108 0 165 -53 165 -183c0 -233 -120 -550 -331 -550z" />
    <glyph glyph-name="colon" unicode=":" horiz-adv-x="280" 
d="M105 -43c-15 0 -68 62 -68 78c0 14 70 76 85 76s69 -60 69 -76c0 -12 -71 -78 -86 -78zM151 407c-15 0 -68 62 -68 78c0 14 70 76 85 76s69 -60 69 -76c0 -12 -71 -78 -86 -78z" />
    <glyph glyph-name="semicolon" unicode=";" horiz-adv-x="280" 
d="M54 -180l-31 27c30 42 46 82 55 114c-15 23 -35 60 -35 91c0 28 78 42 105 42c9 -10 27 -52 27 -68c0 -50 -40 -137 -121 -206zM146 406c-15 0 -68 62 -68 78c0 14 70 76 84 76c15 0 70 -60 70 -76c0 -12 -72 -78 -86 -78z" />
    <glyph glyph-name="less" unicode="&#x3c;" horiz-adv-x="438" 
d="M367 160l-355 156l8 75l388 156l17 -59l-336 -135l308 -134z" />
    <glyph glyph-name="equal" unicode="=" horiz-adv-x="529" 
d="M57 226l7 66h389l-7 -66h-389zM76 413l7 66h390l-7 -66h-390z" />
    <glyph glyph-name="greater" unicode="&#x3e;" horiz-adv-x="438" 
d="M60 160l-17 59l336 134l-308 135l30 59l355 -156l-8 -75z" />
    <glyph glyph-name="question" unicode="?" horiz-adv-x="434" 
d="M142 165c-20 24 -36 37 -36 70c0 94 184 240 244 325c-10 46 -100 70 -146 70c-39 0 -79 -3 -116 -13c-10 15 -17 42 -17 68c47 19 111 28 164 28c78 0 189 -36 189 -134c0 -110 -217 -232 -245 -312c6 -17 25 -46 33 -60zM168 -43c-15 0 -68 62 -68 78c0 14 70 76 85 76
s69 -60 69 -76c0 -12 -71 -78 -86 -78z" />
    <glyph glyph-name="at" unicode="@" horiz-adv-x="740" 
d="M305 -137c-175 0 -265 104 -265 276c0 274 156 511 448 511c151 0 232 -79 232 -231s-68 -335 -246 -335c-42 0 -73 27 -67 73c-33 -28 -90 -65 -127 -65c-62 0 -76 19 -76 76c0 130 70 270 209 270c31 0 79 -7 107 -22l-38 -224c-1 -8 -3 -16 -3 -25c0 -10 2 -20 14 -20
c130 0 168 165 168 266c0 123 -59 183 -181 183c-261 0 -378 -213 -378 -452c0 -150 69 -223 219 -223c50 0 101 6 149 18l7 -50c-56 -23 -112 -26 -172 -26zM298 167c36 0 80 24 113 41l27 169c-11 4 -22 5 -33 5c-97 0 -127 -124 -127 -208c6 -4 12 -7 20 -7z" />
    <glyph glyph-name="A" unicode="A" horiz-adv-x="655" 
d="M-40 0c-1 14 -1 28 0 40c30 23 70 58 83 81l314 579l91 25l94 -592c9 -52 42 -66 83 -93c-1 -9 -3 -29 -7 -40h-261c-1 14 -1 27 0 40l60 20c25 8 34 39 34 66c0 11 -2 24 -4 38l-18 124h-229l-83 -158c-4 -8 -5 -16 -5 -23c0 -22 19 -42 49 -52l49 -15
c-1 -10 0 -30 -4 -40h-246zM232 349h189l-30 211l-6 69h-11l-31 -67z" />
    <glyph glyph-name="B" unicode="B" horiz-adv-x="628" 
d="M8 0c-2 14 0 29 1 44c13 3 23 5 35 8c39 9 73 23 76 71l36 481c2 16 -5 36 -23 42l-65 26c0 12 2 24 7 35h250c106 0 223 -29 223 -149c0 -68 -42 -132 -108 -171v-2c82 -20 136 -81 136 -158c0 -135 -128 -227 -271 -227h-297zM209 61h92c107 0 187 43 187 142
c0 76 -60 131 -149 133l-112 3zM230 394l79 3c101 3 140 56 140 144c0 80 -74 105 -136 108l-67 3z" />
    <glyph glyph-name="C" unicode="C" horiz-adv-x="616" 
d="M363 -13c-227 0 -316 123 -316 335c0 227 149 397 375 397c67 0 130 -15 182 -42l-11 -150h-36c-14 86 -69 128 -140 128c-181 0 -268 -140 -268 -311s54 -282 242 -282c51 0 103 12 148 31l20 -61c-56 -29 -133 -45 -196 -45z" />
    <glyph glyph-name="D" unicode="D" horiz-adv-x="718" 
d="M10 0c-2 14 -2 29 0 44c22 6 45 11 68 18c31 8 43 42 45 71l36 475c1 16 -7 33 -24 38l-70 24c0 13 1 25 6 37l260 5c206 4 351 -94 351 -320c0 -262 -144 -392 -394 -392h-278zM211 61l73 2c206 6 293 119 293 319c0 169 -79 263 -253 263h-79z" />
    <glyph glyph-name="E" unicode="E" horiz-adv-x="591" 
d="M10 0c-2 14 -2 33 0 45l68 18c25 6 42 31 44 60l36 481c2 16 -5 36 -22 42l-72 26c0 8 2 23 7 35h474l-11 -157c-13 -2 -36 -1 -47 0c-8 59 -25 89 -76 91l-164 6l-18 -261l252 5l-5 -72l-251 5l-13 -263l170 4c74 1 118 57 137 103l39 -6l-29 -162h-519z" />
    <glyph glyph-name="F" unicode="F" horiz-adv-x="545" 
d="M20 0c-2 14 -2 28 -1 40l58 18c25 7 43 37 45 65l36 481c2 16 -5 36 -22 42l-72 26c0 8 2 23 7 35h484l-12 -169c-11 -1 -28 0 -35 3c-9 47 -30 89 -94 94l-168 12l-19 -281l262 5l-5 -76l-261 9l-10 -194c-1 -19 0 -32 21 -36l110 -23c-1 -11 -4 -40 -7 -51h-317z" />
    <glyph glyph-name="G" unicode="G" horiz-adv-x="665" 
d="M373 -10c-227 0 -326 111 -326 332c0 227 149 397 375 397c61 0 140 -13 187 -42l-10 -150h-36c-19 83 -71 128 -146 128c-181 0 -268 -140 -268 -311s54 -281 242 -281c35 0 69 6 104 14l15 227h86l-16 -263c-47 -25 -136 -51 -207 -51z" />
    <glyph glyph-name="H" unicode="H" horiz-adv-x="781" 
d="M8 0c-2 14 -2 28 -1 40l59 21c30 11 48 53 50 83l32 438c4 43 -8 62 -32 69l-65 19c1 10 3 27 7 37h267c2 -14 2 -29 1 -41l-55 -13c-29 -7 -34 -16 -36 -43l-15 -224h355l12 186c2 25 -8 70 -37 81l-46 17c1 12 0 26 4 37h257c-1 -13 -1 -28 -5 -41l-52 -12
c-22 -5 -31 -12 -32 -41l-32 -503c-2 -24 4 -39 18 -42l81 -19c-1 -11 -4 -38 -7 -49h-283c-2 14 -2 32 0 44l41 11c45 13 60 67 63 97l13 172h-355l-11 -213c-1 -25 4 -35 22 -40l92 -25c-1 -10 -4 -35 -7 -46h-303z" />
    <glyph glyph-name="I" unicode="I" horiz-adv-x="336" 
d="M12 0c-2 14 -2 28 -1 40l54 21c27 10 41 41 44 72l32 441c3 33 -5 66 -46 82l-37 14c-1 9 0 27 4 37h257c2 -14 1 -29 0 -41l-40 -8c-34 -8 -49 -48 -51 -81l-30 -476c-2 -25 2 -34 24 -39l77 -16c-1 -11 -4 -35 -7 -46h-280z" />
    <glyph glyph-name="J" unicode="J" horiz-adv-x="338" 
d="M-13 -186l-28 55c109 64 154 135 164 276l30 433c2 28 -12 66 -45 78l-41 14c1 9 3 27 7 37h258c1 -14 1 -28 0 -40l-48 -11c-31 -8 -40 -17 -42 -47l-37 -523c-10 -146 -95 -211 -218 -272z" />
    <glyph glyph-name="K" unicode="K" horiz-adv-x="673" 
d="M4 0c-2 15 -3 31 -1 44l68 23c26 9 40 37 42 67l34 449c1 24 -6 54 -26 62l-58 21c-1 9 0 30 4 41h262c1 -15 3 -26 1 -39l-51 -19c-27 -10 -40 -44 -42 -71l-30 -470c-2 -25 4 -32 18 -36l63 -21c0 -9 -3 -40 -7 -51h-277zM657 -22c-20 0 -121 4 -168 64l-229 300l3 41
l197 205c14 15 23 27 24 38c0 13 -7 23 -18 27l-45 14c0 10 3 29 6 40h230l-3 -41l-306 -277l196 -257c47 -63 101 -90 127 -101z" />
    <glyph glyph-name="L" unicode="L" horiz-adv-x="523" 
d="M7 0c-1 14 -1 32 0 44l64 18c25 6 41 32 43 60l35 462c2 25 -5 57 -27 65l-60 21c1 9 3 27 6 37h258c1 -14 2 -28 1 -40l-48 -11c-28 -7 -40 -16 -42 -42l-33 -550l137 5c70 10 111 55 130 99l39 -6l-30 -162h-473z" />
    <glyph glyph-name="M" unicode="M" horiz-adv-x="964" 
d="M393 -20l-109 588h-11l-5 -52l-133 -408c-6 -18 -2 -32 11 -36l90 -29c-1 -10 -3 -32 -7 -43h-252c-2 14 -2 28 -1 40l36 18c30 14 50 49 60 80l147 452c8 24 -7 52 -27 59l-60 21c1 9 3 27 7 37h201l83 -394l27 -152h7l70 147l195 399h185c1 -12 3 -23 1 -35l-48 -16
c-26 -9 -44 -37 -43 -82l8 -458c0 -23 17 -44 33 -53l42 -21c0 -9 -3 -31 -6 -42h-254c-1 14 -2 28 0 40l43 13c45 13 44 75 45 113l1 348l1 56h-10l-269 -570z" />
    <glyph glyph-name="N" unicode="N" horiz-adv-x="802" 
d="M576 -21l-351 614h-11l4 -83l-26 -399c-1 -24 0 -32 23 -40l81 -29c0 -10 -3 -31 -6 -42h-278c-2 14 -2 28 -1 40l58 18c33 10 53 54 55 86l30 451c1 23 -9 47 -27 54l-54 21c1 12 1 26 5 37h198l319 -547h11l-3 109l22 313c1 26 -12 59 -35 67l-59 21c1 9 3 27 6 37h258
c1 -11 2 -23 1 -35l-58 -16c-27 -8 -46 -42 -48 -72l-41 -583z" />
    <glyph glyph-name="O" unicode="O" horiz-adv-x="726" 
d="M338 -11c-193 0 -293 133 -293 322c0 213 137 409 361 409c186 0 284 -141 284 -321c0 -213 -123 -410 -352 -410zM357 59c151 0 233 174 233 314c0 138 -55 278 -207 278c-158 0 -236 -170 -236 -314c0 -139 51 -278 210 -278z" />
    <glyph glyph-name="P" unicode="P" horiz-adv-x="566" 
d="M13 0c-1 13 -2 27 -1 40c20 6 39 11 58 18c28 8 43 38 45 64l36 482c2 17 -3 36 -22 42l-71 26c-1 12 2 24 6 35h292c126 0 210 -55 210 -190c0 -130 -96 -221 -230 -221c-15 0 -30 1 -46 3l6 56h24c77 0 143 28 143 142c0 142 -112 146 -223 150l-34 -544
c-1 -16 5 -27 22 -32l98 -26c-1 -15 -3 -31 -7 -45h-306z" />
    <glyph glyph-name="Q" unicode="Q" horiz-adv-x="726" 
d="M338 -11c-193 0 -293 133 -293 322c0 213 137 409 361 409c186 0 284 -141 284 -321c0 -169 -78 -328 -225 -387l63 -48c47 -36 86 -45 125 -45c36 0 47 -1 83 8l13 -41c-38 -30 -79 -42 -112 -42c-40 0 -88 9 -130 44l-125 104c-15 -2 -29 -3 -44 -3zM357 59
c151 0 233 174 233 314c0 138 -55 278 -207 278c-158 0 -236 -170 -236 -314c0 -139 51 -278 210 -278z" />
    <glyph glyph-name="R" unicode="R" horiz-adv-x="653" 
d="M643 -23c-9 0 -18 0 -26 1c-120 20 -167 82 -226 191l-65 127h-107l-13 -193c-1 -16 5 -27 22 -32l98 -26c-1 -15 -3 -31 -7 -45h-306c-1 13 -2 27 -1 40l58 18c28 8 43 38 45 64l36 482c2 17 -3 36 -22 42l-71 26c-1 12 2 24 6 35h292c126 0 210 -55 210 -190
c0 -98 -54 -173 -141 -206c17 -30 36 -66 58 -102c49 -81 91 -155 168 -191zM222 356h98c78 0 143 27 143 141c0 142 -112 146 -223 150z" />
    <glyph glyph-name="S" unicode="S" horiz-adv-x="496" 
d="M214 -13c-69 0 -156 19 -214 59c12 47 27 93 41 139h25c19 -84 71 -138 159 -138c60 0 131 35 131 106c0 120 -267 193 -267 385c0 102 106 175 201 175c57 0 126 -8 176 -38c-4 -42 -10 -85 -19 -126h-32c-17 63 -73 101 -137 101c-51 0 -108 -27 -108 -85
c0 -144 278 -219 278 -397c0 -129 -126 -181 -234 -181z" />
    <glyph glyph-name="T" unicode="T" horiz-adv-x="632" 
d="M133 0c-1 14 -1 33 0 45l74 19c25 6 45 43 47 71l39 509h-120c-50 0 -77 -43 -93 -101c-10 -1 -28 -1 -40 2l11 162h579l-11 -162c-13 -3 -26 -3 -41 -2c-8 62 -33 101 -89 101h-110l-34 -543c-1 -23 1 -34 21 -39l92 -17c-1 -11 -3 -34 -7 -45h-318z" />
    <glyph glyph-name="U" unicode="U" horiz-adv-x="768" 
d="M344 -13c-128 0 -234 43 -234 217c0 11 0 23 1 35l24 356c2 22 -8 47 -27 54l-59 21c0 9 2 27 6 38h278c1 -14 0 -30 -2 -43l-66 -11c-21 -4 -29 -15 -30 -34l-26 -374c-11 -159 68 -194 170 -194c111 0 175 46 186 218l20 317c1 25 -3 57 -50 71l-40 12c0 12 2 26 3 38
h264c1 -14 0 -28 -1 -40l-59 -16c-15 -4 -30 -11 -32 -42l-24 -343c-14 -214 -151 -280 -302 -280z" />
    <glyph glyph-name="V" unicode="V" horiz-adv-x="664" 
d="M261 -19l-155 600c-5 20 -12 53 -31 64l-52 29c0 9 2 23 6 34h257c1 -14 1 -32 0 -44l-50 -10c-27 -6 -40 -19 -33 -50l110 -485l198 441c4 8 6 20 6 33c0 23 -7 49 -24 57l-44 22c1 9 3 25 7 36h218c1 -14 0 -24 -2 -36l-19 -16c-23 -18 -47 -48 -61 -79l-264 -577z" />
    <glyph glyph-name="W" unicode="W" horiz-adv-x="993" 
d="M639 -20l-138 464l-219 -444l-64 -17l-130 616c-8 35 -34 51 -59 74c0 9 2 24 6 34h226c1 -12 2 -24 0 -36l-50 -17c-27 -9 -33 -45 -27 -75l90 -460l202 411l-22 88c-9 31 -33 51 -38 55c-1 12 -1 21 1 34h191c1 -12 2 -24 0 -36l-22 -16c-23 -15 -37 -44 -29 -74
l132 -467l170 463c3 10 6 22 6 34c0 15 -4 28 -16 34l-54 27c0 9 2 25 6 35h204c1 -12 2 -24 0 -36l-17 -16c-19 -17 -40 -40 -52 -71l-228 -586z" />
    <glyph glyph-name="X" unicode="X" horiz-adv-x="697" 
d="M-11 0c-1 14 -2 28 0 40l37 18c36 16 66 49 93 79l194 220l-126 225c-21 38 -62 61 -97 84c-2 7 -1 30 2 41h240c1 -14 2 -29 0 -41l-41 -18c-15 -6 -19 -28 -5 -52l93 -164l141 158c15 17 18 47 1 55l-41 22c1 12 1 28 4 40h231c1 -13 -2 -27 -4 -40
c-41 -11 -95 -44 -124 -78l-179 -208l142 -249c28 -49 51 -62 105 -92c-1 -9 -3 -29 -6 -40h-251c-1 14 -2 28 0 40l42 23c11 6 16 15 16 26c0 9 -3 19 -9 29l-105 187l-153 -179c-8 -10 -12 -22 -12 -33c0 -12 4 -22 13 -26l55 -27c-1 -9 -3 -29 -6 -40h-250z" />
    <glyph glyph-name="Y" unicode="Y" horiz-adv-x="623" 
d="M132 0c-1 14 -2 34 0 46l70 18c25 6 40 31 43 59l16 185l-166 289c-13 21 -26 36 -39 48c-11 11 -23 19 -33 28c0 11 0 24 4 34h237c1 -13 1 -24 0 -36l-50 -19c-13 -4 -18 -18 -18 -33c0 -12 3 -26 10 -39l113 -211l150 216c14 20 8 51 -10 60l-52 27c0 11 1 25 4 35
h233c1 -12 1 -23 1 -35c-33 -13 -58 -26 -83 -61l-215 -303l-11 -187c-2 -23 7 -51 27 -57l81 -22c-1 -10 -4 -31 -7 -42h-305z" />
    <glyph glyph-name="Z" unicode="Z" horiz-adv-x="575" 
d="M20 0l-13 55l416 593l-216 -10c-49 -7 -76 -42 -91 -100c-13 -1 -30 0 -41 2l11 167h449l13 -42l-424 -598l235 9c73 3 116 56 135 101l39 -6l-30 -171h-483z" />
    <glyph glyph-name="bracketleft" unicode="[" horiz-adv-x="347" 
d="M60 -220l109 1044h158l-6 -59h-90l-97 -926h90l-6 -59h-158z" />
    <glyph glyph-name="backslash" unicode="\" horiz-adv-x="367" 
d="M225 -62l-151 831h68l152 -831h-69z" />
    <glyph glyph-name="bracketright" unicode="]" horiz-adv-x="347" 
d="M19 -220l6 59h90l97 926h-90l6 59h158l-109 -1044h-158z" />
    <glyph glyph-name="asciicircum" unicode="^" horiz-adv-x="542" 
d="M42 294l218 413h78l113 -413h-74l-85 346l-181 -346h-69z" />
    <glyph glyph-name="underscore" unicode="_" horiz-adv-x="500" 
d="M0 -163v66h500v-66h-500z" />
    <glyph glyph-name="grave" unicode="`" horiz-adv-x="568" 
d="M353 615c-73 62 -106 97 -162 154c20 25 28 34 52 50c46 -62 95 -121 142 -175c-7 -13 -20 -22 -32 -29z" />
    <glyph glyph-name="a" unicode="a" horiz-adv-x="528" 
d="M116 -13c-63 0 -78 32 -78 92c0 179 62 473 292 473c52 0 86 -12 118 -27l-48 -444l84 1v-24c-35 -35 -79 -70 -128 -70c-27 0 -43 13 -43 39c0 19 5 55 8 82c-58 -61 -124 -122 -205 -122zM147 68c59 0 142 74 181 103l34 292c-18 11 -44 18 -79 18
c-125 0 -160 -311 -160 -409c8 -3 16 -4 24 -4z" />
    <glyph glyph-name="b" unicode="b" horiz-adv-x="496" 
d="M187 -13c-48 0 -100 18 -140 44l72 658h-94v45c44 12 93 26 139 26c20 0 41 -6 38 -30l-33 -298c43 47 118 121 187 121c103 0 112 -57 112 -150c0 -169 -74 -416 -281 -416zM214 54c157 0 166 308 166 416c-11 3 -23 5 -34 5c-67 0 -134 -60 -181 -102l-30 -295
c25 -13 50 -24 79 -24z" />
    <glyph glyph-name="c" unicode="c" horiz-adv-x="418" 
d="M133 -13c-64 0 -96 32 -96 91c0 180 23 477 253 477c53 0 88 -9 118 -27c-1 -28 -12 -67 -25 -84c-27 17 -84 40 -137 40c-125 0 -119 -320 -119 -406c15 -8 33 -10 47 -10c42 0 135 42 181 65l22 -43c-57 -50 -164 -103 -244 -103z" />
    <glyph glyph-name="d" unicode="d" horiz-adv-x="512" 
d="M116 -13c-63 0 -78 31 -78 92c0 179 62 472 292 472c14 0 26 0 41 -2l15 140h-98v51c37 9 107 20 150 20c26 0 36 -8 33 -31l-72 -648h85v-22c-35 -36 -79 -71 -128 -71c-27 0 -43 13 -43 40c0 18 5 53 8 80c-58 -60 -124 -121 -205 -121zM123 72c31 -13 72 5 109 28
c38 24 74 53 96 69l33 299c-27 14 -51 14 -78 14c-124 0 -160 -313 -160 -410z" />
    <glyph glyph-name="e" unicode="e" horiz-adv-x="434" 
d="M150 -13c-80 0 -109 34 -109 172c0 168 48 399 265 399c74 0 120 -32 120 -87c0 -131 -91 -199 -293 -234c-4 -53 -4 -108 -4 -152c15 -7 38 -14 53 -14c41 0 121 31 169 53l21 -44c-56 -50 -142 -93 -222 -93zM138 290c163 33 191 71 191 155c0 31 -20 49 -70 49
c-76 0 -107 -97 -121 -204z" />
    <glyph glyph-name="f" unicode="f" horiz-adv-x="328" 
d="M44 -220l74 707h-83l7 59h83l3 30c12 113 89 190 218 190c34 0 99 -8 122 -27c0 -25 -15 -74 -31 -92c-29 23 -97 59 -133 59c-65 0 -85 -46 -93 -126l-4 -34h119l-7 -59h-119l-61 -582v-125h-95z" />
    <glyph glyph-name="g" unicode="g" horiz-adv-x="490" 
d="M127 -226c-76 0 -131 13 -152 19c1 34 13 68 19 84c39 -9 77 -20 118 -20c107 0 180 8 192 124l14 129c-58 -60 -124 -122 -205 -122c-63 0 -78 31 -78 92c0 179 63 471 293 471c52 0 86 -12 118 -26l-60 -560c-13 -125 -165 -191 -259 -191zM142 69c59 0 136 68 183 102
l35 294c-22 13 -54 16 -79 16c-126 0 -161 -316 -161 -408c7 -3 15 -4 22 -4z" />
    <glyph glyph-name="h" unicode="h" horiz-adv-x="544" 
d="M373 -12c-27 0 -42 13 -42 40c0 18 1 33 5 61l50 364c-7 2 -15 4 -23 4c-63 0 -164 -65 -190 -89l-23 -207v-161h-97l72 689h-99v51c37 9 107 20 150 20c24 0 34 -6 34 -24v-7l-33 -303c60 63 159 127 224 127c49 0 66 -17 66 -61c0 -12 -1 -25 -3 -41l-49 -369h86v-21
c-34 -35 -79 -73 -128 -73z" />
    <glyph glyph-name="i" unicode="i" horiz-adv-x="259" 
d="M91 -12c-28 0 -43 14 -43 40c0 19 5 51 7 69l43 432l83 34l-48 -483h86v-21c-35 -35 -80 -71 -128 -71zM145 649c-14 0 -61 55 -61 69c0 13 63 69 76 69s62 -54 62 -68c0 -12 -64 -70 -77 -70z" />
    <glyph glyph-name="j" unicode="j" horiz-adv-x="254" 
d="M-70 -224c-38 0 -70 10 -84 15c3 28 12 60 22 79c18 -6 49 -15 74 -15c85 0 111 28 119 129l42 542l85 35l-46 -578c-8 -105 -123 -207 -212 -207zM149 649c-14 0 -61 55 -61 69c0 13 63 69 76 69s62 -54 62 -68c0 -12 -64 -70 -77 -70z" />
    <glyph glyph-name="k" unicode="k" horiz-adv-x="480" 
d="M396 -27c-110 95 -140 173 -206 299l137 180c24 31 -10 55 -34 66l4 28h160l11 -25l-202 -235c47 -80 94 -148 189 -244c-18 -39 -36 -52 -59 -69zM50 0l73 689h-98v51c37 9 107 20 150 20c26 0 36 -8 33 -31l-60 -571v-158h-98z" />
    <glyph glyph-name="l" unicode="l" horiz-adv-x="283" 
d="M97 -11c-27 0 -43 13 -43 40c0 18 5 50 7 69l70 591h-98v51c37 9 107 20 150 20c26 0 36 -8 33 -31l-74 -649h83v-21c-34 -34 -79 -70 -128 -70z" />
    <glyph glyph-name="m" unicode="m" horiz-adv-x="819" 
d="M646 -13c-27 0 -43 13 -43 40c0 18 3 40 9 75l59 353c-7 3 -16 4 -24 4c-64 0 -163 -67 -189 -90l-34 -235v-134h-99l61 455c-8 3 -16 4 -24 4c-64 0 -163 -67 -189 -91l-23 -207v-161h-97l55 527l85 35l-14 -134c60 63 155 125 222 125c50 0 68 -17 68 -63
c0 -10 0 -21 -2 -34l-4 -28c60 63 156 125 223 125c49 0 67 -17 67 -60c0 -12 -1 -26 -4 -42l-60 -367h87v-21c-35 -35 -81 -76 -130 -76z" />
    <glyph glyph-name="n" unicode="n" horiz-adv-x="544" 
d="M369 -12c-27 0 -42 13 -42 40c0 18 1 33 5 61l50 364c-7 2 -14 4 -22 4c-63 0 -164 -65 -190 -89l-24 -207v-161h-97l55 527l85 35l-13 -134c59 63 155 125 221 125c49 0 66 -17 66 -61c0 -12 -1 -25 -3 -41l-49 -369h86v-21c-34 -35 -79 -73 -128 -73z" />
    <glyph glyph-name="o" unicode="o" horiz-adv-x="480" 
d="M243 61c80 0 110 179 110 302c0 35 -3 66 -7 87c-21 19 -55 36 -107 36c-94 0 -112 -176 -112 -298c0 -41 2 -75 4 -95c24 -23 61 -32 112 -32zM206 -12c-114 0 -166 50 -166 164c0 148 49 403 214 403c131 0 186 -63 186 -174c0 -148 -64 -393 -234 -393z" />
    <glyph glyph-name="p" unicode="p" horiz-adv-x="498" 
d="M17 -220l82 746l83 34l-14 -131c48 51 121 120 193 120c82 0 105 -28 105 -149c0 -212 -98 -410 -276 -410c-24 0 -41 3 -64 9l-12 -114v-105h-97zM211 57c168 0 170 332 170 412c-10 3 -20 5 -31 5c-76 0 -161 -84 -188 -112l-29 -282c27 -12 47 -23 78 -23z" />
    <glyph glyph-name="q" unicode="q" horiz-adv-x="490" 
d="M282 -220l34 325c-57 -59 -122 -116 -200 -116c-63 0 -78 31 -78 92c0 179 62 471 292 471c52 0 87 -13 118 -27l-65 -617v-128h-101zM144 70c60 0 144 72 184 101l34 295c-26 15 -52 15 -79 15c-124 0 -162 -310 -162 -407c7 -3 15 -4 23 -4z" />
    <glyph glyph-name="r" unicode="r" horiz-adv-x="341" 
d="M48 0l55 529l86 33l-12 -102c41 43 94 95 161 95c8 0 9 0 18 -1l-14 -89c-6 1 -13 1 -22 1c-51 0 -102 -23 -148 -53l-26 -252v-161h-98z" />
    <glyph glyph-name="s" unicode="s" horiz-adv-x="385" 
d="M141 -10c-47 0 -95 8 -138 26c7 38 12 54 29 87c65 -24 114 -37 187 -37c19 0 45 12 45 33c0 84 -197 193 -197 322c0 99 78 134 177 134c51 0 86 -8 124 -24c0 -45 -12 -67 -28 -89c-49 34 -87 55 -151 55c-23 0 -45 -19 -45 -38c0 -111 195 -200 195 -313
c0 -108 -103 -156 -198 -156z" />
    <glyph glyph-name="t" unicode="t" horiz-adv-x="372" 
d="M166 -10c-53 0 -95 7 -95 80c0 9 1 19 2 30l44 387h-83l7 59h86l12 110l82 41l-15 -151h151l-7 -59h-152l-41 -405c16 -6 25 -9 42 -9c36 0 78 18 121 34l20 -41c-66 -49 -112 -76 -174 -76z" />
    <glyph glyph-name="u" unicode="u" horiz-adv-x="531" 
d="M117 -13c-41 0 -73 20 -66 103l40 437l84 33l-41 -490s10 -5 20 -5c48 0 165 100 187 123l37 339l85 33l-54 -479h90v-20c-35 -36 -79 -71 -128 -71c-27 0 -42 13 -42 40c0 6 0 14 1 24l7 79c-56 -75 -120 -146 -220 -146z" />
    <glyph glyph-name="v" unicode="v" horiz-adv-x="459" 
d="M137 -26l-68 425l-49 123c25 16 73 33 117 33l65 -512l135 317c5 11 7 20 9 33v153h105c1 -7 1 -20 1 -26c0 -63 -17 -115 -41 -167l-160 -350z" />
    <glyph glyph-name="w" unicode="w" horiz-adv-x="763" 
d="M118 -32l-40 431l-47 126c22 15 63 29 125 30l28 -503l188 349l-18 133l87 23l56 -502l138 305c7 14 14 28 17 44v142h109c0 -8 1 -23 0 -29c0 -53 -26 -111 -52 -164l-172 -350l-110 -29l-41 318l-162 -290z" />
    <glyph glyph-name="x" unicode="x" horiz-adv-x="466" 
d="M359 -10c-32 0 -46 14 -58 41l-83 188l-101 -137v-82h-111l-11 32l202 236l-64 142l-84 92c28 34 66 51 104 51l102 -217l93 107v103h102l1 -20c0 -37 -25 -79 -50 -105l-124 -132l101 -216h77l6 -33c-30 -25 -63 -50 -102 -50z" />
    <glyph glyph-name="y" unicode="y" horiz-adv-x="458" 
d="M68 -220l108 220h-52l-47 390l-57 127c34 18 81 38 123 38l63 -515l135 320c5 11 7 20 9 33v153h100c1 -7 1 -23 1 -29c0 -63 -23 -113 -45 -165l-247 -572h-91z" />
    <glyph glyph-name="z" unicode="z" horiz-adv-x="418" 
d="M23 0l-21 44l324 433l-5 5c-79 -17 -199 -33 -262 -33c0 35 5 75 21 103c53 -6 110 -9 166 -9c55 0 109 2 156 3l16 -38l-317 -429l4 -6c82 10 219 23 284 27c1 -5 1 -11 1 -19c0 -27 -5 -66 -10 -81h-357z" />
    <glyph glyph-name="braceleft" unicode="{" horiz-adv-x="360" 
d="M233 -221c-95 -4 -178 25 -178 123c0 14 2 29 5 45l45 228c3 12 4 24 4 34c0 41 -21 67 -72 67l6 54c62 0 89 41 89 102l4 235c1 121 89 158 195 156l35 -1l-6 -55h-26c-88 0 -134 -25 -133 -104l-3 -221c1 -84 -35 -122 -81 -138c33 -13 55 -49 55 -98
c0 -12 -1 -25 -4 -38l-45 -222c-3 -13 -4 -24 -4 -34c0 -52 35 -76 117 -76h26l-5 -56z" />
    <glyph glyph-name="bar" unicode="|" horiz-adv-x="262" 
d="M73 -220l103 974h68l-103 -974h-68z" />
    <glyph glyph-name="braceright" unicode="}" horiz-adv-x="361" 
d="M-5 -221l6 57h26c97 0 135 34 135 110l3 222c0 69 33 121 79 136c-33 13 -58 39 -58 91c0 14 2 29 6 47l44 221c2 12 4 22 4 31c0 54 -40 73 -115 73h-26l3 55h35c95 2 169 -26 169 -114c0 -12 -2 -26 -5 -41l-46 -235c-2 -11 -3 -22 -3 -32c0 -43 22 -70 72 -70l-6 -54
c-64 0 -89 -43 -90 -101l-2 -228c-1 -135 -102 -173 -208 -168h-23z" />
    <glyph glyph-name="asciitilde" unicode="~" horiz-adv-x="376" 
d="M233 284c-22 0 -100 45 -111 45c-43 0 -67 -23 -98 -39l-24 41c25 22 105 74 137 74c41 0 88 -42 106 -42c33 0 74 16 106 38l27 -37c-36 -38 -115 -80 -143 -80z" />
    <glyph glyph-name="uni00A0" unicode="&#xa0;" horiz-adv-x="180" 
 />
    <glyph glyph-name="exclamdown" unicode="&#xa1;" horiz-adv-x="328" 
d="M184 427c-15 0 -69 60 -69 75c0 13 72 78 86 78c15 0 68 -61 68 -77c0 -14 -70 -76 -85 -76zM120 -199l-56 30l76 527h77l-36 -527z" />
    <glyph glyph-name="cent" unicode="&#xa2;" horiz-adv-x="431" 
d="M173 -167l17 162c-20 -5 -39 -8 -57 -8c-64 0 -96 32 -96 91c0 168 20 439 212 473l16 156h59l-16 -153h8c39 -2 67 -11 92 -26c-1 -28 -12 -67 -25 -84c-27 17 -84 40 -137 40c-125 0 -119 -320 -119 -406c15 -8 33 -10 47 -10c42 0 135 42 181 65l22 -43
c-32 -27 -77 -55 -126 -75l-18 -182h-60z" />
    <glyph glyph-name="sterling" unicode="&#xa3;" horiz-adv-x="556" 
d="M17 0c-4 18 -4 33 -4 49l60 17c28 8 35 26 39 65l18 163h-68l3 55h71l6 62c11 106 88 201 202 201c38 0 103 -4 140 -33c0 -31 -16 -71 -32 -89c-35 26 -96 58 -133 58c-72 0 -87 -63 -95 -141l-5 -58h181l-3 -55h-184l-23 -220l186 11c36 2 54 16 77 38l44 -40
c-24 -43 -55 -83 -125 -83h-355z" />
    <glyph glyph-name="currency" unicode="&#xa4;" horiz-adv-x="496" 
d="M408 61l-65 70c-30 -17 -70 -30 -107 -30s-75 11 -101 32l-77 -70l-31 34l77 70c-17 24 -28 64 -25 104c2 40 17 80 39 104l-66 71l35 32l65 -70c29 18 70 34 107 34s75 -9 103 -32l74 70l32 -35l-75 -70c20 -24 27 -64 25 -104c-3 -40 -18 -82 -42 -106l65 -70zM239 148
c84 0 127 54 132 123s-33 124 -115 124c-81 0 -128 -55 -132 -124c-5 -69 36 -123 115 -123z" />
    <glyph glyph-name="yen" unicode="&#xa5;" horiz-adv-x="662" 
d="M235 0l21 106l3 31h-197l6 53h197l1 14c-10 26 -23 58 -39 91h-148l5 53h116c-18 36 -38 72 -58 104c-15 24 -32 34 -57 41l1 35c44 13 89 24 118 24c26 -36 103 -236 123 -301c47 70 152 224 208 293c19 -1 76 -9 105 -22l-17 -36c-18 -3 -39 -9 -50 -22l-98 -116h113
l-6 -53h-149l-72 -93l-1 -12h211l-5 -53h-212l-3 -33l-1 -104h-115z" />
    <glyph glyph-name="brokenbar" unicode="&#xa6;" horiz-adv-x="277" 
d="M82 -220l38 362h67l-38 -362h-67zM146 392l38 361h67l-38 -361h-67z" />
    <glyph glyph-name="section" unicode="&#xa7;" horiz-adv-x="441" 
d="M94 -82c-43 0 -89 15 -118 44c6 26 27 60 49 77c28 -34 52 -57 79 -57c45 0 62 62 62 105c0 37 -79 217 -79 286c0 144 135 231 276 231c36 0 90 -7 115 -39c-6 -25 -18 -65 -39 -82c-23 31 -61 60 -103 60c-41 0 -59 -47 -59 -84c0 -66 87 -227 85 -290
c-5 -176 -126 -251 -268 -251zM209 -7c61 33 86 73 86 127c0 92 -83 261 -83 320c0 24 7 67 24 88l-2 3c-56 -31 -79 -66 -79 -139c0 -59 86 -258 80 -314c-3 -27 -8 -60 -26 -83v-2z" />
    <glyph glyph-name="dieresis" unicode="&#xa8;" horiz-adv-x="408" 
d="M89 655c-13 0 -57 50 -55 62c1 14 56 62 68 62s57 -49 56 -62c-1 -10 -55 -62 -69 -62zM307 655c-13 0 -57 50 -55 62c1 14 56 62 68 62s57 -49 56 -62c-1 -10 -55 -62 -69 -62z" />
    <glyph glyph-name="copyright" unicode="&#xa9;" horiz-adv-x="761" 
d="M394 101c-114 0 -180 54 -180 175c0 103 64 182 178 182c42 0 62 -5 100 -20v-81c-11 -2 -23 -2 -34 -1c-12 36 -28 57 -68 57c-66 0 -116 -37 -116 -132c0 -93 54 -130 128 -130c31 0 53 2 82 9l14 -44c-34 -11 -68 -15 -104 -15zM383 -20c-134 0 -303 71 -303 289
c0 187 133 294 301 294c145 0 300 -81 300 -294c0 -185 -131 -289 -298 -289zM389 24c137 0 240 86 240 245c0 173 -122 249 -246 249c-134 0 -249 -71 -249 -244c0 -215 172 -250 255 -250z" />
    <glyph glyph-name="ordfeminine" unicode="&#xaa;" horiz-adv-x="418" 
d="M122 381c-40 0 -49 22 -49 57c0 100 34 272 170 272c30 0 50 -7 72 -17l-27 -249h47v-20c-22 -22 -48 -43 -78 -43c-17 0 -29 9 -29 28c0 7 3 23 4 36c-30 -31 -67 -64 -110 -64zM139 437c31 0 74 34 97 51l19 166c-8 5 -25 6 -39 6c-67 0 -84 -165 -85 -222
c2 -1 5 -1 8 -1zM48 289l6 52h278l-6 -52h-278z" />
    <glyph glyph-name="guillemotleft" unicode="&#xab;" horiz-adv-x="513" 
d="M156 50c-14 58 -56 149 -96 222c66 78 123 161 153 220c0 0 33 -7 57 -13c-27 -64 -70 -152 -115 -207c25 -61 54 -149 64 -209c0 0 -39 -7 -63 -13zM362 61c-14 58 -52 138 -92 211c66 78 116 147 146 206c0 0 33 -7 58 -13c-28 -64 -64 -138 -109 -193
c25 -61 50 -138 60 -198c0 0 -39 -7 -63 -13z" />
    <glyph glyph-name="logicalnot" unicode="&#xac;" horiz-adv-x="468" 
d="M364 121l16 149h-312l7 65h388l-23 -214h-76z" />
    <glyph glyph-name="registered" unicode="&#xae;" horiz-adv-x="614" 
d="M422 421c-31 0 -58 7 -76 27c-22 22 -43 54 -53 70c-6 -1 -9 -1 -15 -1h-9l2 -91h-50l2 93v145h86c48 0 79 -22 79 -72c0 -31 -15 -55 -46 -68c9 -12 27 -36 43 -51c15 -16 25 -22 41 -29zM309 314c-102 0 -229 54 -229 218c0 142 100 222 228 222
c109 0 226 -60 226 -222c0 -140 -99 -218 -225 -218zM314 354c99 0 174 62 174 178c0 127 -89 182 -179 182c-98 0 -181 -52 -181 -178c0 -157 125 -182 186 -182zM269 549h16c35 0 54 10 54 41c0 30 -12 42 -49 42h-21v-83z" />
    <glyph glyph-name="macron" unicode="&#xaf;" horiz-adv-x="540" 
d="M114 685l8 69h298l-8 -69h-298z" />
    <glyph glyph-name="macron" unicode="&#x2c9;" horiz-adv-x="540" 
d="M114 685l8 69h298l-8 -69h-298z" />
    <glyph glyph-name="degree" unicode="&#xb0;" horiz-adv-x="411" 
d="M250 455c-87 0 -139 36 -130 122c9 82 85 141 161 141c80 0 141 -39 132 -121c-8 -82 -84 -142 -163 -142zM257 502c48 0 77 30 83 85c6 51 -18 83 -65 83s-77 -31 -83 -83c-6 -57 18 -85 65 -85z" />
    <glyph glyph-name="plusminus" unicode="&#xb1;" 
d="M278 141l22 192l-196 -2l7 64l196 -2l18 193h72l-22 -193l196 2l-7 -64l-196 2l-18 -192h-72zM60 0l6 65h480l-6 -65h-480z" />
    <glyph glyph-name="twosuperior" unicode="&#xb2;" horiz-adv-x="307" 
d="M71 415l5 52c63 51 187 145 187 219c0 24 -12 37 -45 37c-38 0 -66 -12 -85 -24l-23 51c21 14 63 36 117 36c84 0 111 -43 111 -92c0 -85 -97 -167 -174 -218h164l-6 -61h-251z" />
    <glyph glyph-name="threesuperior" unicode="&#xb3;" horiz-adv-x="300" 
d="M174 411c-62 0 -96 13 -110 19l22 58c17 -6 57 -15 90 -15c51 0 74 17 74 54c0 41 -25 49 -94 54l6 51c54 3 89 20 89 66c0 20 -13 28 -44 28c-37 0 -70 -13 -70 -13l-21 51c33 18 59 25 103 25c62 0 105 -28 105 -79c0 -48 -32 -80 -55 -96c30 -11 55 -42 55 -76
c0 -90 -73 -127 -150 -127z" />
    <glyph glyph-name="acute" unicode="&#xb4;" horiz-adv-x="568" 
d="M243 615c-12 7 -25 16 -32 29c47 54 96 113 142 175c24 -16 32 -25 52 -50c-56 -57 -89 -92 -162 -154z" />
    <glyph glyph-name="mu" unicode="&#xb5;" horiz-adv-x="554" 
d="M100 -236c-26 23 -71 65 -71 149c0 14 1 30 4 47l35 221l32 346l84 33l-41 -487s14 -5 24 -5c60 0 161 101 183 123l37 336l85 33l-54 -479h90v-20c-35 -36 -79 -71 -128 -71c-27 0 -42 13 -42 40c0 6 0 15 1 24l8 85c-56 -74 -115 -149 -221 -149c-8 0 -15 0 -26 3
c-2 -73 44 -135 87 -185z" />
    <glyph glyph-name="paragraph" unicode="&#xb6;" horiz-adv-x="657" 
d="M230 -226c-41 0 -85 10 -128 41c8 30 27 77 50 92c14 -13 90 -61 108 -61c48 0 63 73 69 129l80 732h75l-75 -710c-5 -49 -7 -87 -43 -124l2 -3c64 14 92 67 98 129l75 708h75l-74 -700c-14 -140 -182 -233 -312 -233zM265 270c-122 0 -201 55 -201 184
c0 170 91 253 257 253l-46 -437h-10z" />
    <glyph glyph-name="periodcentered" unicode="&#xb7;" horiz-adv-x="277" 
d="M173 282c-16 0 -69 60 -67 75c2 16 69 74 83 74s68 -59 66 -74c-1 -12 -65 -75 -82 -75z" />
    <glyph glyph-name="cedilla" unicode="&#xb8;" horiz-adv-x="453" 
d="M188 -267c-22 0 -44 5 -64 15l15 46c20 -4 40 -6 60 -6c17 0 61 1 61 26c0 37 -73 50 -73 84c0 51 50 88 94 126l71 16c-18 -10 -107 -91 -107 -104c0 -20 94 -38 94 -97c0 -61 -100 -106 -151 -106z" />
    <glyph glyph-name="onesuperior" unicode="&#xb9;" horiz-adv-x="235" 
d="M147 415l33 306h-72l6 58l145 3l-39 -367h-73z" />
    <glyph glyph-name="ordmasculine" unicode="&#xba;" horiz-adv-x="418" 
d="M195 381c-79 0 -99 29 -99 103c0 82 33 227 132 227c77 0 110 -44 110 -109c0 -82 -41 -221 -143 -221zM216 427c42 0 62 112 62 183c0 16 -1 30 -3 40c-11 9 -40 15 -56 15c-53 0 -63 -106 -63 -175c0 -19 1 -36 2 -46c12 -10 31 -17 58 -17zM48 289l6 52h278l-6 -52
h-278z" />
    <glyph glyph-name="guillemotright" unicode="&#xbb;" horiz-adv-x="513" 
d="M107 61c-23 6 -60 13 -60 13c22 60 63 137 101 198c-33 55 -54 129 -68 193c26 6 60 13 60 13c18 -59 54 -128 103 -206c-55 -73 -110 -153 -136 -211zM311 50c-23 6 -60 13 -60 13c22 60 69 148 107 209c-33 55 -58 143 -71 207c25 6 59 13 59 13
c18 -59 58 -142 107 -220c-55 -73 -116 -164 -142 -222z" />
    <glyph glyph-name="onequarter" unicode="&#xbc;" horiz-adv-x="763" 
d="M177 94l-40 40l533 532l39 -39zM157 415l33 306h-72l6 58l145 3l-39 -367h-73zM630 0l9 90h-151l7 68l142 209h104l-23 -216h65l-7 -61h-65l-9 -90h-72zM559 151h87l17 156z" />
    <glyph glyph-name="onehalf" unicode="&#xbd;" horiz-adv-x="767" 
d="M166 94l-40 40l533 532l39 -39zM157 415l33 306h-72l6 58l145 3l-39 -367h-73zM521 0l5 52c63 51 187 145 187 219c0 24 -12 37 -45 37c-38 0 -66 -12 -85 -24l-23 51c21 14 63 36 117 36c84 0 111 -43 111 -92c0 -85 -97 -167 -174 -218h164l-6 -61h-251z" />
    <glyph glyph-name="threequarters" unicode="&#xbe;" horiz-adv-x="785" 
d="M204 94l-40 40l533 532l39 -39zM196 411c-62 0 -96 13 -110 19l22 58c17 -6 57 -15 90 -15c51 0 74 17 74 54c0 41 -25 49 -94 54l6 51c54 3 89 20 89 66c0 20 -13 28 -44 28c-37 0 -70 -13 -70 -13l-21 51c33 18 59 25 103 25c62 0 105 -28 105 -79
c0 -48 -32 -80 -55 -96c30 -11 55 -42 55 -76c0 -90 -73 -127 -150 -127zM652 0l9 90h-151l7 68l142 209h104l-23 -216h65l-7 -61h-65l-9 -90h-72zM581 151h87l17 156z" />
    <glyph glyph-name="questiondown" unicode="&#xbf;" horiz-adv-x="434" 
d="M207 -175c-78 0 -189 36 -189 134c0 110 217 232 245 312c-6 17 -25 46 -33 60l70 42c20 -24 36 -37 36 -70c0 -94 -184 -240 -244 -325c10 -46 100 -70 146 -70c39 0 79 3 116 13c10 -15 17 -42 17 -68c-47 -19 -111 -28 -164 -28zM257 427c-15 0 -69 60 -69 76
c0 12 71 77 86 77s68 -61 68 -77c0 -14 -70 -76 -85 -76z" />
    <glyph glyph-name="Agrave" unicode="&#xc0;" horiz-adv-x="655" 
d="M-40 0c-1 14 -1 28 0 40c30 23 70 58 83 81l314 579l91 25l94 -592c9 -52 42 -66 83 -93c-1 -9 -3 -29 -7 -40h-261c-1 14 -1 27 0 40l60 20c25 8 34 39 34 66c0 11 -2 24 -4 38l-18 124h-229l-83 -158c-4 -8 -5 -16 -5 -23c0 -22 19 -42 49 -52l49 -15
c-1 -10 0 -30 -4 -40h-246zM232 349h189l-30 211l-6 69h-11l-31 -67zM433 740c-62 13 -148 36 -207 60c8 27 16 47 28 63c65 -33 131 -61 192 -84c-3 -14 -7 -28 -13 -39z" />
    <glyph glyph-name="Aacute" unicode="&#xc1;" horiz-adv-x="655" 
d="M-40 0c-1 14 -1 28 0 40c30 23 70 58 83 81l314 579l91 25l94 -592c9 -52 42 -66 83 -93c-1 -9 -3 -29 -7 -40h-261c-1 14 -1 27 0 40l60 20c25 8 34 39 34 66c0 11 -2 24 -4 38l-18 124h-229l-83 -158c-4 -8 -5 -16 -5 -23c0 -22 19 -42 49 -52l49 -15
c-1 -10 0 -30 -4 -40h-246zM232 349h189l-30 211l-6 69h-11l-31 -67zM336 740c-6 11 -10 25 -13 39c61 23 127 51 192 84c12 -16 20 -36 28 -63c-59 -24 -145 -47 -207 -60z" />
    <glyph glyph-name="Acircumflex" unicode="&#xc2;" horiz-adv-x="655" 
d="M-40 0c-1 14 -1 28 0 40c30 23 70 58 83 81l314 579l91 25l94 -592c9 -52 42 -66 83 -93c-1 -9 -3 -29 -7 -40h-261c-1 14 -1 27 0 40l60 20c25 8 34 39 34 66c0 11 -2 24 -4 38l-18 124h-229l-83 -158c-4 -8 -5 -16 -5 -23c0 -22 19 -42 49 -52l49 -15
c-1 -10 0 -30 -4 -40h-246zM232 349h189l-30 211l-6 69h-11l-31 -67zM535 733c-66 24 -100 46 -137 78c-33 -25 -81 -49 -145 -72c-10 14 -14 24 -18 37c94 52 126 74 175 118c32 -39 97 -77 161 -110c-10 -18 -21 -35 -36 -51z" />
    <glyph glyph-name="Atilde" unicode="&#xc3;" horiz-adv-x="655" 
d="M-40 0c-1 14 -1 28 0 40c30 23 70 58 83 81l314 579l91 25l94 -592c9 -52 42 -66 83 -93c-1 -9 -3 -29 -7 -40h-261c-1 14 -1 27 0 40l60 20c25 8 34 39 34 66c0 11 -2 24 -4 38l-18 124h-229l-83 -158c-4 -8 -5 -16 -5 -23c0 -22 19 -42 49 -52l49 -15
c-1 -10 0 -30 -4 -40h-246zM232 349h189l-30 211l-6 69h-11l-31 -67zM464 752c-27 0 -88 36 -114 36c-21 0 -64 -15 -103 -33l-22 33c51 33 114 76 141 76c37 0 105 -39 129 -39c16 0 28 11 46 26l29 -30c-31 -31 -76 -69 -106 -69z" />
    <glyph glyph-name="Adieresis" unicode="&#xc4;" horiz-adv-x="655" 
d="M-40 0c-1 14 -1 28 0 40c30 23 70 58 83 81l314 579l91 25l94 -592c9 -52 42 -66 83 -93c-1 -9 -3 -29 -7 -40h-261c-1 14 -1 27 0 40l60 20c25 8 34 39 34 66c0 11 -2 24 -4 38l-18 124h-229l-83 -158c-4 -8 -5 -16 -5 -23c0 -22 19 -42 49 -52l49 -15
c-1 -10 0 -30 -4 -40h-246zM232 349h189l-30 211l-6 69h-11l-31 -67zM287 741c-13 0 -57 50 -55 62c1 14 56 62 68 62c13 0 58 -49 57 -62c-2 -10 -55 -62 -70 -62zM505 741c-13 0 -57 50 -55 62c1 14 56 62 68 62c13 0 58 -49 57 -62c-2 -10 -55 -62 -70 -62z" />
    <glyph glyph-name="Aring" unicode="&#xc5;" horiz-adv-x="655" 
d="M-40 0c-1 14 -1 28 -1 40c30 23 71 58 83 81l304 560c-36 8 -63 28 -63 74c0 71 50 138 124 138c64 0 112 -20 112 -92c0 -51 -29 -96 -73 -115l96 -553c8 -48 49 -74 82 -93c-1 -9 -3 -29 -6 -40h-261c-2 14 -2 27 -1 40l61 20c24 8 33 39 33 66c0 4 0 9 -1 13l-20 149
h-230l-82 -158c-4 -8 -6 -16 -6 -23c0 -21 19 -42 49 -52l49 -15c-1 -10 0 -30 -3 -40h-246zM419 723c40 0 43 58 42 85v21c-23 15 -40 18 -69 18c-43 0 -50 -64 -49 -95v-12c18 -14 51 -17 76 -17zM231 349h189l-29 211l-7 69h-11l-30 -67z" />
    <glyph glyph-name="AE" unicode="&#xc6;" horiz-adv-x="820" 
d="M-76 0c0 14 0 31 4 44c42 32 60 50 82 80l431 583h365l-11 -160c-13 -4 -41 -1 -51 -1c-8 60 -24 88 -74 90l-131 6l-18 -254l221 5l-5 -76l-221 5l-13 -256l138 3c74 2 117 58 135 103l44 -7l-30 -165h-493c-2 15 -2 36 -1 49l70 18c24 6 41 30 43 58l15 198h-186
l-136 -193c-6 -8 -10 -16 -10 -24c0 -19 13 -36 39 -46l42 -16c0 -10 -1 -31 -7 -44h-242zM284 388h145l13 172l5 65h-5l-52 -86z" />
    <glyph glyph-name="Ccedilla" unicode="&#xc7;" horiz-adv-x="616" 
d="M308 -267c-22 0 -44 5 -64 15l15 46c20 -4 40 -6 60 -6c17 0 61 1 61 26c0 37 -73 50 -73 84c0 35 22 63 51 89c-224 2 -311 124 -311 335c0 227 149 397 375 397c67 0 130 -15 182 -42l-11 -150h-36c-14 86 -69 128 -140 128c-181 0 -268 -140 -268 -311
s54 -282 242 -282c51 0 103 12 148 31l20 -61c-42 -22 -96 -36 -147 -42c-25 -23 -47 -47 -47 -54c0 -20 94 -38 94 -97c0 -61 -100 -106 -151 -106z" />
    <glyph glyph-name="Egrave" unicode="&#xc8;" horiz-adv-x="591" 
d="M10 0c-2 14 -2 33 0 45l68 18c25 6 42 31 44 60l36 481c2 16 -5 36 -22 42l-72 26c0 8 2 23 7 35h474l-11 -157c-13 -2 -36 -1 -47 0c-8 59 -25 89 -76 91l-164 6l-18 -261l252 5l-5 -72l-251 5l-13 -263l170 4c74 1 118 57 137 103l39 -6l-29 -162h-519zM401 740
c-62 13 -148 36 -207 60c8 27 16 47 28 63c65 -33 131 -61 192 -84c-3 -14 -7 -28 -13 -39z" />
    <glyph glyph-name="Eacute" unicode="&#xc9;" horiz-adv-x="591" 
d="M10 0c-2 14 -2 33 0 45l68 18c25 6 42 31 44 60l36 481c2 16 -5 36 -22 42l-72 26c0 8 2 23 7 35h474l-11 -157c-13 -2 -36 -1 -47 0c-8 59 -25 89 -76 91l-164 6l-18 -261l252 5l-5 -72l-251 5l-13 -263l170 4c74 1 118 57 137 103l39 -6l-29 -162h-519zM289 740
c-6 11 -10 25 -13 39c61 23 127 51 192 84c12 -16 20 -36 28 -63c-59 -24 -145 -47 -207 -60z" />
    <glyph glyph-name="Ecircumflex" unicode="&#xca;" horiz-adv-x="591" 
d="M10 0c-2 14 -2 33 0 45l68 18c25 6 42 31 44 60l36 481c2 16 -5 36 -22 42l-72 26c0 8 2 23 7 35h474l-11 -157c-13 -2 -36 -1 -47 0c-8 59 -25 89 -76 91l-164 6l-18 -261l252 5l-5 -72l-251 5l-13 -263l170 4c74 1 118 57 137 103l39 -6l-29 -162h-519zM484 733
c-66 24 -100 46 -137 78c-33 -25 -81 -49 -145 -72c-10 14 -14 24 -18 37c94 52 126 74 175 118c32 -39 97 -77 161 -110c-10 -18 -21 -35 -36 -51z" />
    <glyph glyph-name="Edieresis" unicode="&#xcb;" horiz-adv-x="591" 
d="M10 0c-2 14 -2 33 0 45l68 18c25 6 42 31 44 60l36 481c2 16 -5 36 -22 42l-72 26c0 8 2 23 7 35h474l-11 -157c-13 -2 -36 -1 -47 0c-8 59 -25 89 -76 91l-164 6l-18 -261l252 5l-5 -72l-251 5l-13 -263l170 4c74 1 118 57 137 103l39 -6l-29 -162h-519zM226 741
c-13 0 -57 50 -55 62c1 14 56 62 68 62c13 0 58 -49 57 -62c-2 -10 -55 -62 -70 -62zM444 741c-13 0 -57 50 -55 62c1 14 56 62 68 62c13 0 58 -49 57 -62c-2 -10 -55 -62 -70 -62z" />
    <glyph glyph-name="Igrave" unicode="&#xcc;" horiz-adv-x="336" 
d="M12 0c-2 14 -2 28 -1 40l54 21c27 10 41 41 44 72l32 441c3 33 -5 66 -46 82l-37 14c-1 9 0 27 4 37h257c2 -14 1 -29 0 -41l-40 -8c-34 -8 -49 -48 -51 -81l-30 -476c-2 -25 2 -34 24 -39l77 -16c-1 -11 -4 -35 -7 -46h-280zM234 740c-62 13 -148 36 -207 60
c8 27 16 47 28 63c65 -33 131 -61 192 -84c-3 -14 -7 -28 -13 -39z" />
    <glyph glyph-name="Iacute" unicode="&#xcd;" horiz-adv-x="336" 
d="M12 0c-2 14 -2 28 -1 40l54 21c27 10 41 41 44 72l32 441c3 33 -5 66 -46 82l-37 14c-1 9 0 27 4 37h257c2 -14 1 -29 0 -41l-40 -8c-34 -8 -49 -48 -51 -81l-30 -476c-2 -25 2 -34 24 -39l77 -16c-1 -11 -4 -35 -7 -46h-280zM122 740c-6 11 -10 25 -13 39
c61 23 127 51 192 84c12 -16 20 -36 28 -63c-59 -24 -145 -47 -207 -60z" />
    <glyph glyph-name="Icircumflex" unicode="&#xce;" horiz-adv-x="336" 
d="M12 0c-2 14 -2 28 -1 40l54 21c27 10 41 41 44 72l32 441c3 33 -5 66 -46 82l-37 14c-1 9 0 27 4 37h257c2 -14 1 -29 0 -41l-40 -8c-34 -8 -49 -48 -51 -81l-30 -476c-2 -25 2 -34 24 -39l77 -16c-1 -11 -4 -35 -7 -46h-280zM336 733c-66 24 -100 46 -137 78
c-33 -25 -81 -49 -145 -72c-10 14 -14 24 -18 37c94 52 126 74 175 118c32 -39 97 -77 161 -110c-10 -18 -21 -35 -36 -51z" />
    <glyph glyph-name="Idieresis" unicode="&#xcf;" horiz-adv-x="336" 
d="M12 0c-2 14 -2 28 -1 40l54 21c27 10 41 41 44 72l32 441c3 33 -5 66 -46 82l-37 14c-1 9 0 27 4 37h257c2 -14 1 -29 0 -41l-40 -8c-34 -8 -49 -48 -51 -81l-30 -476c-2 -25 2 -34 24 -39l77 -16c-1 -11 -4 -35 -7 -46h-280zM77 741c-13 0 -57 50 -55 62
c1 14 56 62 68 62c13 0 58 -49 57 -62c-2 -10 -55 -62 -70 -62zM295 741c-13 0 -57 50 -55 62c1 14 56 62 68 62c13 0 58 -49 57 -62c-2 -10 -55 -62 -70 -62z" />
    <glyph glyph-name="Eth" unicode="&#xd0;" horiz-adv-x="718" 
d="M10 0c-1 16 -3 31 -3 48l70 18c30 8 41 41 43 68l16 204h-92l4 59h92l16 209c1 15 -6 31 -21 36l-72 24c0 14 2 27 7 41l261 5c207 4 354 -94 354 -320c0 -262 -145 -392 -397 -392h-278zM213 66l71 2c204 6 290 116 290 314c0 166 -77 258 -250 258h-76l-15 -243h172
l-4 -59h-171z" />
    <glyph glyph-name="Ntilde" unicode="&#xd1;" horiz-adv-x="802" 
d="M576 -21l-351 614h-11l4 -83l-26 -399c-1 -24 0 -32 23 -40l81 -29c0 -10 -3 -31 -6 -42h-278c-2 14 -2 28 -1 40l58 18c33 10 53 54 55 86l30 451c1 23 -9 47 -27 54l-54 21c1 12 1 26 5 37h198l319 -547h11l-3 109l22 313c1 26 -12 59 -35 67l-59 21c1 9 3 27 6 37h258
c1 -11 2 -23 1 -35l-58 -16c-27 -8 -46 -42 -48 -72l-41 -583zM532 752c-27 0 -88 36 -114 36c-21 0 -64 -15 -103 -33l-22 33c51 33 114 76 141 76c37 0 105 -39 129 -39c16 0 28 11 46 26l29 -30c-31 -31 -76 -69 -106 -69z" />
    <glyph glyph-name="Ograve" unicode="&#xd2;" horiz-adv-x="726" 
d="M338 -11c-193 0 -293 133 -293 322c0 213 137 409 361 409c186 0 284 -141 284 -321c0 -213 -123 -410 -352 -410zM357 59c151 0 233 174 233 314c0 138 -55 278 -207 278c-158 0 -236 -170 -236 -314c0 -139 51 -278 210 -278zM431 740c-62 13 -148 36 -207 60
c8 27 16 47 28 63c65 -33 131 -61 192 -84c-3 -14 -7 -28 -13 -39z" />
    <glyph glyph-name="Oacute" unicode="&#xd3;" horiz-adv-x="726" 
d="M338 -11c-193 0 -293 133 -293 322c0 213 137 409 361 409c186 0 284 -141 284 -321c0 -213 -123 -410 -352 -410zM357 59c151 0 233 174 233 314c0 138 -55 278 -207 278c-158 0 -236 -170 -236 -314c0 -139 51 -278 210 -278zM314 740c-6 11 -10 25 -13 39
c61 23 127 51 192 84c12 -16 20 -36 28 -63c-59 -24 -145 -47 -207 -60z" />
    <glyph glyph-name="Ocircumflex" unicode="&#xd4;" horiz-adv-x="726" 
d="M338 -11c-193 0 -293 133 -293 322c0 213 137 409 361 409c186 0 284 -141 284 -321c0 -213 -123 -410 -352 -410zM357 59c151 0 233 174 233 314c0 138 -55 278 -207 278c-158 0 -236 -170 -236 -314c0 -139 51 -278 210 -278zM549 733c-66 24 -100 46 -137 78
c-33 -25 -81 -49 -145 -72c-10 14 -14 24 -18 37c94 52 126 74 175 118c32 -39 97 -77 161 -110c-10 -18 -21 -35 -36 -51z" />
    <glyph glyph-name="Otilde" unicode="&#xd5;" horiz-adv-x="726" 
d="M338 -11c-193 0 -293 133 -293 322c0 213 137 409 361 409c186 0 284 -141 284 -321c0 -213 -123 -410 -352 -410zM357 59c151 0 233 174 233 314c0 138 -55 278 -207 278c-158 0 -236 -170 -236 -314c0 -139 51 -278 210 -278zM470 752c-27 0 -88 36 -114 36
c-21 0 -64 -15 -103 -33l-22 33c51 33 114 76 141 76c37 0 105 -39 129 -39c16 0 28 11 46 26l29 -30c-31 -31 -76 -69 -106 -69z" />
    <glyph glyph-name="Odieresis" unicode="&#xd6;" horiz-adv-x="726" 
d="M338 -11c-193 0 -293 133 -293 322c0 213 137 409 361 409c186 0 284 -141 284 -321c0 -213 -123 -410 -352 -410zM357 59c151 0 233 174 233 314c0 138 -55 278 -207 278c-158 0 -236 -170 -236 -314c0 -139 51 -278 210 -278zM278 741c-13 0 -57 50 -55 62
c1 14 56 62 68 62c13 0 58 -49 57 -62c-2 -10 -55 -62 -70 -62zM496 741c-13 0 -57 50 -55 62c1 14 56 62 68 62c13 0 58 -49 57 -62c-2 -10 -55 -62 -70 -62z" />
    <glyph glyph-name="multiply" unicode="&#xd7;" 
d="M106 40l-43 44l224 219l-177 218l52 44l174 -215l220 215l42 -44l-224 -218l179 -219l-51 -44l-176 215z" />
    <glyph glyph-name="Oslash" unicode="&#xd8;" horiz-adv-x="726" 
d="M14 -22l-36 34l112 109c-30 52 -45 117 -45 190c0 213 137 409 361 409c82 0 147 -27 194 -73l85 95l36 -33l-89 -100c38 -56 58 -129 58 -210c0 -213 -123 -410 -352 -410c-97 0 -170 34 -219 91zM357 59c151 0 233 174 233 314c0 56 -9 112 -30 159l-370 -382
c32 -54 85 -91 167 -91zM168 199l367 378c-33 45 -83 74 -152 74c-158 0 -236 -170 -236 -314c0 -48 7 -96 21 -138z" />
    <glyph glyph-name="Ugrave" unicode="&#xd9;" horiz-adv-x="768" 
d="M344 -13c-128 0 -234 43 -234 217c0 11 0 23 1 35l24 356c2 22 -8 47 -27 54l-59 21c0 9 2 27 6 38h278c1 -14 0 -30 -2 -43l-66 -11c-21 -4 -29 -15 -30 -34l-26 -374c-11 -159 68 -194 170 -194c111 0 175 46 186 218l20 317c1 25 -3 57 -50 71l-40 12c0 12 2 26 3 38
h264c1 -14 0 -28 -1 -40l-59 -16c-15 -4 -30 -11 -32 -42l-24 -343c-14 -214 -151 -280 -302 -280zM449 740c-62 13 -148 36 -207 60c8 27 16 47 28 63c65 -33 131 -61 192 -84c-3 -14 -7 -28 -13 -39z" />
    <glyph glyph-name="Uacute" unicode="&#xda;" horiz-adv-x="768" 
d="M344 -13c-128 0 -234 43 -234 217c0 11 0 23 1 35l24 356c2 22 -8 47 -27 54l-59 21c0 9 2 27 6 38h278c1 -14 0 -30 -2 -43l-66 -11c-21 -4 -29 -15 -30 -34l-26 -374c-11 -159 68 -194 170 -194c111 0 175 46 186 218l20 317c1 25 -3 57 -50 71l-40 12c0 12 2 26 3 38
h264c1 -14 0 -28 -1 -40l-59 -16c-15 -4 -30 -11 -32 -42l-24 -343c-14 -214 -151 -280 -302 -280zM361 740c-6 11 -10 25 -13 39c61 23 127 51 192 84c12 -16 20 -36 28 -63c-59 -24 -145 -47 -207 -60z" />
    <glyph glyph-name="Ucircumflex" unicode="&#xdb;" horiz-adv-x="768" 
d="M344 -13c-128 0 -234 43 -234 217c0 11 0 23 1 35l24 356c2 22 -8 47 -27 54l-59 21c0 9 2 27 6 38h278c1 -14 0 -30 -2 -43l-66 -11c-21 -4 -29 -15 -30 -34l-26 -374c-11 -159 68 -194 170 -194c111 0 175 46 186 218l20 317c1 25 -3 57 -50 71l-40 12c0 12 2 26 3 38
h264c1 -14 0 -28 -1 -40l-59 -16c-15 -4 -30 -11 -32 -42l-24 -343c-14 -214 -151 -280 -302 -280zM568 733c-66 24 -100 46 -137 78c-33 -25 -81 -49 -145 -72c-10 14 -14 24 -18 37c94 52 126 74 175 118c32 -39 97 -77 161 -110c-10 -18 -21 -35 -36 -51z" />
    <glyph glyph-name="Udieresis" unicode="&#xdc;" horiz-adv-x="768" 
d="M344 -13c-128 0 -234 43 -234 217c0 11 0 23 1 35l24 356c2 22 -8 47 -27 54l-59 21c0 9 2 27 6 38h278c1 -14 0 -30 -2 -43l-66 -11c-21 -4 -29 -15 -30 -34l-26 -374c-11 -159 68 -194 170 -194c111 0 175 46 186 218l20 317c1 25 -3 57 -50 71l-40 12c0 12 2 26 3 38
h264c1 -14 0 -28 -1 -40l-59 -16c-15 -4 -30 -11 -32 -42l-24 -343c-14 -214 -151 -280 -302 -280zM306 741c-13 0 -57 50 -55 62c1 14 56 62 68 62c13 0 58 -49 57 -62c-2 -10 -55 -62 -70 -62zM524 741c-13 0 -57 50 -55 62c1 14 56 62 68 62c13 0 58 -49 57 -62
c-2 -10 -55 -62 -70 -62z" />
    <glyph glyph-name="Yacute" unicode="&#xdd;" horiz-adv-x="623" 
d="M132 0c-1 14 -2 34 0 46l70 18c25 6 40 31 43 59l16 185l-166 289c-13 21 -26 36 -39 48c-11 11 -23 19 -33 28c0 11 0 24 4 34h237c1 -13 1 -24 0 -36l-50 -19c-13 -4 -18 -18 -18 -33c0 -12 3 -26 10 -39l113 -211l150 216c14 20 8 51 -10 60l-52 27c0 11 1 25 4 35
h233c1 -12 1 -23 1 -35c-33 -13 -58 -26 -83 -61l-215 -303l-11 -187c-2 -23 7 -51 27 -57l81 -22c-1 -10 -4 -31 -7 -42h-305zM300 740c-6 11 -10 25 -13 39c61 23 127 51 192 84c12 -16 20 -36 28 -63c-59 -24 -145 -47 -207 -60z" />
    <glyph glyph-name="Thorn" unicode="&#xde;" horiz-adv-x="566" 
d="M20 0c-1 14 -2 28 0 40l53 21c27 10 42 41 44 72l33 441c2 33 -5 66 -46 82l-38 14c0 9 1 27 4 37h258c1 -14 1 -29 -1 -41l-40 -8c-35 -8 -49 -51 -51 -82h104c126 0 209 -55 209 -190c0 -130 -95 -221 -230 -221c-15 0 -30 1 -45 3l5 56h25c77 0 143 28 143 142
c0 138 -107 146 -215 149l-26 -414c-2 -25 2 -34 25 -39l76 -16c-1 -11 -3 -35 -7 -46h-280z" />
    <glyph glyph-name="germandbls" unicode="&#xdf;" horiz-adv-x="546" 
d="M43 -220l65 707h-79l6 59h79l2 24c10 114 96 198 219 198c57 0 164 -24 164 -107c0 -126 -132 -180 -132 -212c0 -111 157 -190 157 -303c0 -108 -104 -156 -198 -156c-47 0 -75 8 -118 26c7 38 12 54 29 87c67 -22 93 -37 167 -37c19 0 45 12 45 33
c0 84 -163 192 -163 322c0 70 136 119 136 241c-27 39 -94 46 -129 46c-65 0 -87 -54 -94 -134l-61 -666v-128h-95z" />
    <glyph glyph-name="agrave" unicode="&#xe0;" horiz-adv-x="528" 
d="M116 -13c-63 0 -78 32 -78 92c0 179 62 473 292 473c52 0 86 -12 118 -27l-48 -444l84 1v-24c-35 -35 -79 -70 -128 -70c-27 0 -43 13 -43 39c0 19 5 55 8 82c-58 -61 -124 -122 -205 -122zM147 68c59 0 142 74 181 103l34 292c-18 11 -44 18 -79 18
c-125 0 -160 -311 -160 -409c8 -3 16 -4 24 -4zM347 615c-73 62 -106 97 -162 154c20 25 28 34 52 50c46 -62 95 -121 142 -175c-7 -13 -20 -22 -32 -29z" />
    <glyph glyph-name="aacute" unicode="&#xe1;" horiz-adv-x="528" 
d="M116 -13c-63 0 -78 32 -78 92c0 179 62 473 292 473c52 0 86 -12 118 -27l-48 -444l84 1v-24c-35 -35 -79 -70 -128 -70c-27 0 -43 13 -43 39c0 19 5 55 8 82c-58 -61 -124 -122 -205 -122zM147 68c59 0 142 74 181 103l34 292c-18 11 -44 18 -79 18
c-125 0 -160 -311 -160 -409c8 -3 16 -4 24 -4zM318 615c-12 7 -25 16 -32 29c47 54 96 113 142 175c24 -16 32 -25 52 -50c-56 -57 -89 -92 -162 -154z" />
    <glyph glyph-name="acircumflex" unicode="&#xe2;" horiz-adv-x="528" 
d="M116 -13c-63 0 -78 32 -78 92c0 179 62 473 292 473c52 0 86 -12 118 -27l-48 -444l84 1v-24c-35 -35 -79 -70 -128 -70c-27 0 -43 13 -43 39c0 19 5 55 8 82c-58 -61 -124 -122 -205 -122zM147 68c59 0 142 74 181 103l34 292c-18 11 -44 18 -79 18
c-125 0 -160 -311 -160 -409c8 -3 16 -4 24 -4zM440 607c-30 32 -62 66 -95 111c-43 -37 -82 -65 -140 -102c-12 12 -16 20 -25 39c74 46 114 84 179 155c49 -67 82 -102 133 -157c-18 -20 -35 -36 -52 -46z" />
    <glyph glyph-name="atilde" unicode="&#xe3;" horiz-adv-x="528" 
d="M116 -13c-63 0 -78 32 -78 92c0 179 62 473 292 473c52 0 86 -12 118 -27l-48 -444l84 1v-24c-35 -35 -79 -70 -128 -70c-27 0 -43 13 -43 39c0 19 5 55 8 82c-58 -61 -124 -122 -205 -122zM147 68c59 0 142 74 181 103l34 292c-18 11 -44 18 -79 18
c-125 0 -160 -311 -160 -409c8 -3 16 -4 24 -4zM404 655c-27 0 -88 36 -114 36c-21 0 -64 -15 -103 -33l-22 33c51 33 114 76 141 76c37 0 105 -39 129 -39c16 0 28 11 46 26l29 -30c-31 -31 -76 -69 -106 -69z" />
    <glyph glyph-name="adieresis" unicode="&#xe4;" horiz-adv-x="528" 
d="M116 -13c-63 0 -78 32 -78 92c0 179 62 473 292 473c52 0 86 -12 118 -27l-48 -444l84 1v-24c-35 -35 -79 -70 -128 -70c-27 0 -43 13 -43 39c0 19 5 55 8 82c-58 -61 -124 -122 -205 -122zM147 68c59 0 142 74 181 103l34 292c-18 11 -44 18 -79 18
c-125 0 -160 -311 -160 -409c8 -3 16 -4 24 -4zM222 655c-13 0 -57 50 -55 62c1 14 56 62 68 62s57 -49 56 -62c-1 -10 -55 -62 -69 -62zM440 655c-13 0 -57 50 -55 62c1 14 56 62 68 62s57 -49 56 -62c-1 -10 -55 -62 -69 -62z" />
    <glyph glyph-name="aring" unicode="&#xe5;" horiz-adv-x="528" 
d="M116 -13c-63 0 -78 32 -78 92c0 179 62 473 292 473c52 0 86 -12 118 -27l-48 -444l84 1v-24c-35 -35 -79 -70 -128 -70c-27 0 -43 13 -43 39c0 19 5 55 8 82c-58 -61 -124 -122 -205 -122zM147 68c59 0 142 74 181 103l34 292c-18 11 -44 18 -79 18
c-125 0 -160 -311 -160 -409c8 -3 16 -4 24 -4zM357 662c40 0 43 58 42 85v21c-23 15 -40 18 -69 18c-43 0 -50 -64 -49 -95v-12c18 -14 51 -17 76 -17zM337 615c-60 0 -116 13 -116 79c0 71 50 138 124 138c64 0 112 -20 112 -92c0 -67 -52 -125 -120 -125z" />
    <glyph glyph-name="ae" unicode="&#xe6;" horiz-adv-x="687" 
d="M119 -13c-66 0 -77 34 -77 95c0 178 64 474 297 474c46 0 72 -12 100 -25c31 17 69 27 114 27c74 0 120 -32 120 -87c0 -131 -91 -199 -293 -234c-4 -53 -4 -108 -4 -152c15 -7 38 -14 53 -14c41 0 121 31 169 53l21 -44c-56 -50 -142 -93 -222 -93c-61 0 -92 19 -104 88
c-47 -45 -105 -88 -174 -88zM148 68c41 0 98 41 140 74v17c0 100 20 225 79 308c-23 12 -51 18 -76 18c-121 0 -167 -316 -167 -413c7 -3 17 -4 24 -4zM385 290c163 33 191 71 191 155c0 31 -20 49 -70 49c-76 0 -107 -97 -121 -204z" />
    <glyph glyph-name="ccedilla" unicode="&#xe7;" horiz-adv-x="418" 
d="M140 -267c-22 0 -44 5 -64 15l15 46c20 -4 40 -6 60 -6c17 0 61 1 61 26c0 37 -73 50 -73 84c0 39 29 70 63 100c-24 -7 -48 -11 -69 -11c-64 0 -96 32 -96 91c0 180 23 477 253 477c53 0 88 -9 118 -27c-1 -28 -12 -67 -25 -84c-27 17 -84 40 -137 40
c-125 0 -119 -320 -119 -406c15 -8 33 -10 47 -10c42 0 135 42 181 65l22 -43c-20 -18 -46 -35 -75 -51c-20 -13 -105 -90 -105 -103c0 -20 94 -38 94 -97c0 -61 -100 -106 -151 -106z" />
    <glyph glyph-name="egrave" unicode="&#xe8;" horiz-adv-x="434" 
d="M150 -13c-80 0 -109 34 -109 172c0 168 48 399 265 399c74 0 120 -32 120 -87c0 -131 -91 -199 -293 -234c-4 -53 -4 -108 -4 -152c15 -7 38 -14 53 -14c41 0 121 31 169 53l21 -44c-56 -50 -142 -93 -222 -93zM138 290c163 33 191 71 191 155c0 31 -20 49 -70 49
c-76 0 -107 -97 -121 -204zM312 615c-73 62 -106 97 -162 154c20 25 28 34 52 50c46 -62 95 -121 142 -175c-7 -13 -20 -22 -32 -29z" />
    <glyph glyph-name="eacute" unicode="&#xe9;" horiz-adv-x="434" 
d="M150 -13c-80 0 -109 34 -109 172c0 168 48 399 265 399c74 0 120 -32 120 -87c0 -131 -91 -199 -293 -234c-4 -53 -4 -108 -4 -152c15 -7 38 -14 53 -14c41 0 121 31 169 53l21 -44c-56 -50 -142 -93 -222 -93zM138 290c163 33 191 71 191 155c0 31 -20 49 -70 49
c-76 0 -107 -97 -121 -204zM263 615c-12 7 -25 16 -32 29c47 54 96 113 142 175c24 -16 32 -25 52 -50c-56 -57 -89 -92 -162 -154z" />
    <glyph glyph-name="ecircumflex" unicode="&#xea;" horiz-adv-x="434" 
d="M150 -13c-80 0 -109 34 -109 172c0 168 48 399 265 399c74 0 120 -32 120 -87c0 -131 -91 -199 -293 -234c-4 -53 -4 -108 -4 -152c15 -7 38 -14 53 -14c41 0 121 31 169 53l21 -44c-56 -50 -142 -93 -222 -93zM138 290c163 33 191 71 191 155c0 31 -20 49 -70 49
c-76 0 -107 -97 -121 -204zM397 607c-30 32 -62 66 -95 111c-43 -37 -82 -65 -140 -102c-12 12 -16 20 -25 39c74 46 114 84 179 155c49 -67 82 -102 133 -157c-18 -20 -35 -36 -52 -46z" />
    <glyph glyph-name="edieresis" unicode="&#xeb;" horiz-adv-x="434" 
d="M150 -13c-80 0 -109 34 -109 172c0 168 48 399 265 399c74 0 120 -32 120 -87c0 -131 -91 -199 -293 -234c-4 -53 -4 -108 -4 -152c15 -7 38 -14 53 -14c41 0 121 31 169 53l21 -44c-56 -50 -142 -93 -222 -93zM138 290c163 33 191 71 191 155c0 31 -20 49 -70 49
c-76 0 -107 -97 -121 -204zM186 655c-13 0 -57 50 -55 62c1 14 56 62 68 62s57 -49 56 -62c-1 -10 -55 -62 -69 -62zM404 655c-13 0 -57 50 -55 62c1 14 56 62 68 62s57 -49 56 -62c-1 -10 -55 -62 -69 -62z" />
    <glyph glyph-name="igrave" unicode="&#xec;" horiz-adv-x="259" 
d="M91 -12c-28 0 -43 14 -43 40c0 19 5 51 7 69l43 432l83 34l-48 -483h86v-21c-35 -35 -80 -71 -128 -71zM147 615c-73 62 -106 97 -162 154c20 25 28 34 52 50c46 -62 95 -121 142 -175c-7 -13 -20 -22 -32 -29z" />
    <glyph glyph-name="iacute" unicode="&#xed;" horiz-adv-x="259" 
d="M91 -12c-28 0 -43 14 -43 40c0 19 5 51 7 69l43 432l83 34l-48 -483h86v-21c-35 -35 -80 -71 -128 -71zM146 615c-12 7 -25 16 -32 29c47 54 96 113 142 175c24 -16 32 -25 52 -50c-56 -57 -89 -92 -162 -154z" />
    <glyph glyph-name="icircumflex" unicode="&#xee;" horiz-adv-x="259" 
d="M91 -12c-28 0 -43 14 -43 40c0 19 5 51 7 69l43 432l83 34l-48 -483h86v-21c-35 -35 -80 -71 -128 -71zM267 607c-30 32 -62 66 -95 111c-43 -37 -82 -65 -140 -102c-12 12 -16 20 -25 39c74 46 114 84 179 155c49 -67 82 -102 133 -157c-18 -20 -35 -36 -52 -46z" />
    <glyph glyph-name="idieresis" unicode="&#xef;" horiz-adv-x="259" 
d="M91 -12c-28 0 -43 14 -43 40c0 19 5 51 7 69l43 432l83 34l-48 -483h86v-21c-35 -35 -80 -71 -128 -71zM41 655c-13 0 -57 50 -55 62c1 14 56 62 68 62s57 -49 56 -62c-1 -10 -55 -62 -69 -62zM259 655c-13 0 -57 50 -55 62c1 14 56 62 68 62s57 -49 56 -62
c-1 -10 -55 -62 -69 -62z" />
    <glyph glyph-name="eth" unicode="&#xf0;" horiz-adv-x="488" 
d="M206 -12c-135 0 -166 46 -166 174c0 148 59 393 224 393c26 0 49 -3 69 -8c-10 31 -22 61 -35 90l-83 -36l-19 49l78 33c-12 19 -33 48 -47 63l43 42c22 -18 53 -51 70 -77l82 36l20 -47l-75 -33c53 -93 83 -208 83 -296c0 -148 -74 -383 -244 -383zM243 61
c83 0 119 194 119 317c0 29 -2 54 -6 72c-21 19 -77 36 -107 36c-101 0 -120 -204 -120 -325c0 -29 1 -53 2 -68c24 -23 61 -32 112 -32z" />
    <glyph glyph-name="ntilde" unicode="&#xf1;" horiz-adv-x="544" 
d="M369 -12c-27 0 -42 13 -42 40c0 18 1 33 5 61l50 364c-7 2 -14 4 -22 4c-63 0 -164 -65 -190 -89l-24 -207v-161h-97l55 527l85 35l-13 -134c59 63 155 125 221 125c49 0 66 -17 66 -61c0 -12 -1 -25 -3 -41l-49 -369h86v-21c-34 -35 -79 -73 -128 -73zM393 655
c-27 0 -88 36 -114 36c-21 0 -64 -15 -103 -33l-22 33c51 33 114 76 141 76c37 0 105 -39 129 -39c16 0 28 11 46 26l29 -30c-31 -31 -76 -69 -106 -69z" />
    <glyph glyph-name="ograve" unicode="&#xf2;" horiz-adv-x="480" 
d="M243 61c80 0 110 179 110 302c0 35 -3 66 -7 87c-21 19 -55 36 -107 36c-94 0 -112 -176 -112 -298c0 -41 2 -75 4 -95c24 -23 61 -32 112 -32zM206 -12c-114 0 -166 50 -166 164c0 148 49 403 214 403c131 0 186 -63 186 -174c0 -148 -64 -393 -234 -393zM295 615
c-73 62 -106 97 -162 154c20 25 28 34 52 50c46 -62 95 -121 142 -175c-7 -13 -20 -22 -32 -29z" />
    <glyph glyph-name="oacute" unicode="&#xf3;" horiz-adv-x="480" 
d="M243 61c80 0 110 179 110 302c0 35 -3 66 -7 87c-21 19 -55 36 -107 36c-94 0 -112 -176 -112 -298c0 -41 2 -75 4 -95c24 -23 61 -32 112 -32zM206 -12c-114 0 -166 50 -166 164c0 148 49 403 214 403c131 0 186 -63 186 -174c0 -148 -64 -393 -234 -393zM249 615
c-12 7 -25 16 -32 29c47 54 96 113 142 175c24 -16 32 -25 52 -50c-56 -57 -89 -92 -162 -154z" />
    <glyph glyph-name="ocircumflex" unicode="&#xf4;" horiz-adv-x="480" 
d="M243 61c80 0 110 179 110 302c0 35 -3 66 -7 87c-21 19 -55 36 -107 36c-94 0 -112 -176 -112 -298c0 -41 2 -75 4 -95c24 -23 61 -32 112 -32zM206 -12c-114 0 -166 50 -166 164c0 148 49 403 214 403c131 0 186 -63 186 -174c0 -148 -64 -393 -234 -393zM385 607
c-30 32 -62 66 -95 111c-43 -37 -82 -65 -140 -102c-12 12 -16 20 -25 39c74 46 114 84 179 155c49 -67 82 -102 133 -157c-18 -20 -35 -36 -52 -46z" />
    <glyph glyph-name="otilde" unicode="&#xf5;" horiz-adv-x="480" 
d="M243 61c80 0 110 179 110 302c0 35 -3 66 -7 87c-21 19 -55 36 -107 36c-94 0 -112 -176 -112 -298c0 -41 2 -75 4 -95c24 -23 61 -32 112 -32zM206 -12c-114 0 -166 50 -166 164c0 148 49 403 214 403c131 0 186 -63 186 -174c0 -148 -64 -393 -234 -393zM354 655
c-27 0 -88 36 -114 36c-21 0 -64 -15 -103 -33l-22 33c51 33 114 76 141 76c37 0 105 -39 129 -39c16 0 28 11 46 26l29 -30c-31 -31 -76 -69 -106 -69z" />
    <glyph glyph-name="odieresis" unicode="&#xf6;" horiz-adv-x="480" 
d="M243 61c80 0 110 179 110 302c0 35 -3 66 -7 87c-21 19 -55 36 -107 36c-94 0 -112 -176 -112 -298c0 -41 2 -75 4 -95c24 -23 61 -32 112 -32zM206 -12c-114 0 -166 50 -166 164c0 148 49 403 214 403c131 0 186 -63 186 -174c0 -148 -64 -393 -234 -393zM175 655
c-13 0 -57 50 -55 62c1 14 56 62 68 62s57 -49 56 -62c-1 -10 -55 -62 -69 -62zM393 655c-13 0 -57 50 -55 62c1 14 56 62 68 62s57 -49 56 -62c-1 -10 -55 -62 -69 -62z" />
    <glyph glyph-name="divide" unicode="&#xf7;" 
d="M308 36c-13 0 -58 53 -57 66c2 13 59 64 71 64c13 0 60 -51 58 -64c-1 -11 -57 -66 -72 -66zM348 427c-13 0 -58 53 -57 66c2 13 59 64 71 64c13 0 60 -51 58 -64c-1 -11 -57 -66 -72 -66zM88 270l7 65h480l-7 -65h-480z" />
    <glyph glyph-name="oslash" unicode="&#xf8;" horiz-adv-x="488" 
d="M-7 -36l-38 32l90 97c-4 20 -5 43 -5 69c0 148 59 393 224 393c64 0 110 -17 140 -48l63 78l37 -32l-71 -89c11 -26 17 -58 17 -93c0 -148 -74 -383 -244 -383c-76 0 -119 15 -142 51zM243 61c83 0 119 195 119 317l-232 -267l1 -18c24 -23 61 -32 112 -32zM129 188
l227 262c-4 3 -8 6 -13 9c-26 15 -69 27 -94 27c-94 0 -117 -176 -120 -298z" />
    <glyph glyph-name="ugrave" unicode="&#xf9;" horiz-adv-x="531" 
d="M117 -13c-41 0 -73 20 -66 103l40 437l84 33l-41 -490s10 -5 20 -5c48 0 165 100 187 123l37 339l85 33l-54 -479h90v-20c-35 -36 -79 -71 -128 -71c-27 0 -42 13 -42 40c0 6 0 14 1 24l7 79c-56 -75 -120 -146 -220 -146zM315 615c-73 62 -106 97 -162 154
c20 25 28 34 52 50c46 -62 95 -121 142 -175c-7 -13 -20 -22 -32 -29z" />
    <glyph glyph-name="uacute" unicode="&#xfa;" horiz-adv-x="531" 
d="M117 -13c-41 0 -73 20 -66 103l40 437l84 33l-41 -490s10 -5 20 -5c48 0 165 100 187 123l37 339l85 33l-54 -479h90v-20c-35 -36 -79 -71 -128 -71c-27 0 -42 13 -42 40c0 6 0 14 1 24l7 79c-56 -75 -120 -146 -220 -146zM308 615c-12 7 -25 16 -32 29
c47 54 96 113 142 175c24 -16 32 -25 52 -50c-56 -57 -89 -92 -162 -154z" />
    <glyph glyph-name="ucircumflex" unicode="&#xfb;" horiz-adv-x="531" 
d="M117 -13c-41 0 -73 20 -66 103l40 437l84 33l-41 -490s10 -5 20 -5c48 0 165 100 187 123l37 339l85 33l-54 -479h90v-20c-35 -36 -79 -71 -128 -71c-27 0 -42 13 -42 40c0 6 0 14 1 24l7 79c-56 -75 -120 -146 -220 -146zM395 607c-30 32 -62 66 -95 111
c-43 -37 -82 -65 -140 -102c-12 12 -16 20 -25 39c74 46 114 84 179 155c49 -67 82 -102 133 -157c-18 -20 -35 -36 -52 -46z" />
    <glyph glyph-name="udieresis" unicode="&#xfc;" horiz-adv-x="531" 
d="M117 -13c-41 0 -73 20 -66 103l40 437l84 33l-41 -490s10 -5 20 -5c48 0 165 100 187 123l37 339l85 33l-54 -479h90v-20c-35 -36 -79 -71 -128 -71c-27 0 -42 13 -42 40c0 6 0 14 1 24l7 79c-56 -75 -120 -146 -220 -146zM177 655c-13 0 -57 50 -55 62c1 14 56 62 68 62
s57 -49 56 -62c-1 -10 -55 -62 -69 -62zM395 655c-13 0 -57 50 -55 62c1 14 56 62 68 62s57 -49 56 -62c-1 -10 -55 -62 -69 -62z" />
    <glyph glyph-name="yacute" unicode="&#xfd;" horiz-adv-x="458" 
d="M68 -220l108 220h-52l-47 390l-57 127c34 18 81 38 123 38l63 -515l135 320c5 11 7 20 9 33v153h100c1 -7 1 -23 1 -29c0 -63 -23 -113 -45 -165l-247 -572h-91zM276 615c-12 7 -25 16 -32 29c47 54 96 113 142 175c24 -16 32 -25 52 -50c-56 -57 -89 -92 -162 -154z" />
    <glyph glyph-name="thorn" unicode="&#xfe;" horiz-adv-x="498" 
d="M17 -220l99 909h-98v51c37 9 107 20 150 20c26 0 36 -8 33 -31l-32 -298c48 51 120 118 192 118c82 0 105 -28 105 -149c0 -212 -98 -410 -276 -410c-24 0 -41 3 -64 9l-12 -114v-105h-97zM211 57c168 0 170 332 170 412c-10 3 -20 5 -31 5c-68 0 -144 -66 -188 -112
l-29 -282c27 -12 47 -23 78 -23z" />
    <glyph glyph-name="ydieresis" unicode="&#xff;" horiz-adv-x="458" 
d="M68 -220l108 220h-52l-47 390l-57 127c34 18 81 38 123 38l63 -515l135 320c5 11 7 20 9 33v153h100c1 -7 1 -23 1 -29c0 -63 -23 -113 -45 -165l-247 -572h-91zM161 655c-13 0 -57 50 -55 62c1 14 56 62 68 62s57 -49 56 -62c-1 -10 -55 -62 -69 -62zM379 655
c-13 0 -57 50 -55 62c1 14 56 62 68 62s57 -49 56 -62c-1 -10 -55 -62 -69 -62z" />
    <glyph glyph-name="Amacron" unicode="&#x100;" horiz-adv-x="655" 
d="M-40 0c-1 14 -1 28 0 40c30 23 70 58 83 81l314 579l91 25l94 -592c9 -52 42 -66 83 -93c-1 -9 -3 -29 -7 -40h-261c-1 14 -1 27 0 40l60 20c25 8 34 39 34 66c0 11 -2 24 -4 38l-18 124h-229l-83 -158c-4 -8 -5 -16 -5 -23c0 -22 19 -42 49 -52l49 -15
c-1 -10 0 -30 -4 -40h-246zM232 349h189l-30 211l-6 69h-11l-31 -67zM259 775l4 69h298l-4 -69h-298z" />
    <glyph glyph-name="amacron" unicode="&#x101;" horiz-adv-x="528" 
d="M116 -13c-63 0 -78 32 -78 92c0 179 62 473 292 473c52 0 86 -12 118 -27l-48 -444l84 1v-24c-35 -35 -79 -70 -128 -70c-27 0 -43 13 -43 39c0 19 5 55 8 82c-58 -61 -124 -122 -205 -122zM147 68c59 0 142 74 181 103l34 292c-18 11 -44 18 -79 18
c-125 0 -160 -311 -160 -409c8 -3 16 -4 24 -4zM178 685l8 69h298l-8 -69h-298z" />
    <glyph glyph-name="Abreve" unicode="&#x102;" horiz-adv-x="655" 
d="M-40 0c-1 14 -1 28 0 40c30 23 70 58 83 81l314 579l91 25l94 -592c9 -52 42 -66 83 -93c-1 -9 -3 -29 -7 -40h-261c-1 14 -1 27 0 40l60 20c25 8 34 39 34 66c0 11 -2 24 -4 38l-18 124h-229l-83 -158c-4 -8 -5 -16 -5 -23c0 -22 19 -42 49 -52l49 -15
c-1 -10 0 -30 -4 -40h-246zM232 349h189l-30 211l-6 69h-11l-31 -67zM401 757c-91 0 -136 46 -164 84l54 51c20 -27 63 -66 124 -66c73 0 120 47 129 58l28 -27c-7 -12 -63 -100 -171 -100z" />
    <glyph glyph-name="abreve" unicode="&#x103;" horiz-adv-x="528" 
d="M116 -13c-63 0 -78 32 -78 92c0 179 62 473 292 473c52 0 86 -12 118 -27l-48 -444l84 1v-24c-35 -35 -79 -70 -128 -70c-27 0 -43 13 -43 39c0 19 5 55 8 82c-58 -61 -124 -122 -205 -122zM147 68c59 0 142 74 181 103l34 292c-18 11 -44 18 -79 18
c-125 0 -160 -311 -160 -409c8 -3 16 -4 24 -4zM329 636c-91 0 -136 46 -164 84l54 51c20 -27 63 -66 124 -66c73 0 120 47 129 58l28 -27c-7 -12 -63 -100 -171 -100z" />
    <glyph glyph-name="Aogonek" unicode="&#x104;" horiz-adv-x="655" 
d="M365 -251c-58 0 -122 10 -122 77c0 66 91 150 164 198c24 16 44 51 44 102c0 11 -2 24 -4 38l-18 124h-229l-83 -158c-4 -8 -5 -16 -5 -23c0 -22 19 -42 49 -52l49 -15c-1 -10 0 -30 -4 -40h-246c-1 14 -1 28 0 40c30 23 70 58 83 81l314 579l92 25l93 -592
c9 -52 42 -66 83 -93c-1 -9 -3 -29 -7 -40h-70c-65 0 -115 -19 -151 -45c-47 -35 -69 -82 -70 -121c13 -15 38 -27 68 -27c17 0 24 1 42 5l13 -47c-27 -11 -54 -16 -85 -16zM232 349h189l-30 211l-6 69h-11l-31 -67z" />
    <glyph glyph-name="aogonek" unicode="&#x105;" horiz-adv-x="528" 
d="M338 -251c-58 0 -122 10 -122 77c0 54 59 117 120 165c-15 6 -23 17 -23 36s5 55 8 82c-58 -61 -124 -122 -205 -122c-63 0 -78 32 -78 92c0 179 62 473 292 473c52 0 86 -12 118 -27l-48 -444l84 1v-24l-60 -50c-58 -50 -121 -114 -128 -173c13 -15 42 -28 72 -28
c17 0 24 1 42 5l13 -47c-27 -11 -54 -16 -85 -16zM147 68c59 0 142 74 181 103l34 292c-18 11 -44 18 -79 18c-125 0 -160 -311 -160 -409c8 -3 16 -4 24 -4z" />
    <glyph glyph-name="Cacute" unicode="&#x106;" horiz-adv-x="616" 
d="M363 -13c-227 0 -316 123 -316 335c0 227 149 397 375 397c67 0 130 -15 182 -42l-11 -150h-36c-14 86 -69 128 -140 128c-181 0 -268 -140 -268 -311s54 -282 242 -282c51 0 103 12 148 31l20 -61c-56 -29 -133 -45 -196 -45zM316 740c-6 11 -10 25 -13 39
c61 23 127 51 192 84c12 -16 20 -36 28 -63c-59 -24 -145 -47 -207 -60z" />
    <glyph glyph-name="cacute" unicode="&#x107;" horiz-adv-x="418" 
d="M133 -13c-64 0 -96 32 -96 91c0 180 23 477 253 477c53 0 88 -9 118 -27c-1 -28 -12 -67 -25 -84c-27 17 -84 40 -137 40c-125 0 -119 -320 -119 -406c15 -8 33 -10 47 -10c42 0 135 42 181 65l22 -43c-57 -50 -164 -103 -244 -103zM268 615c-12 7 -25 16 -32 29
c47 54 96 113 142 175c24 -16 32 -25 52 -50c-56 -57 -89 -92 -162 -154z" />
    <glyph glyph-name="Ccircumflex" unicode="&#x108;" horiz-adv-x="616" 
d="M363 -13c-227 0 -316 123 -316 335c0 227 149 397 375 397c67 0 130 -15 182 -42l-11 -150h-36c-14 86 -69 128 -140 128c-181 0 -268 -140 -268 -311s54 -282 242 -282c51 0 103 12 148 31l20 -61c-56 -29 -133 -45 -196 -45zM558 733c-66 24 -100 46 -137 78
c-33 -25 -81 -49 -145 -72c-10 14 -14 24 -18 37c94 52 126 74 175 118c32 -39 97 -77 161 -110c-10 -18 -21 -35 -36 -51z" />
    <glyph glyph-name="ccircumflex" unicode="&#x109;" horiz-adv-x="418" 
d="M133 -13c-64 0 -96 32 -96 91c0 180 23 477 253 477c53 0 88 -9 118 -27c-1 -28 -12 -67 -25 -84c-27 17 -84 40 -137 40c-125 0 -119 -320 -119 -406c15 -8 33 -10 47 -10c42 0 135 42 181 65l22 -43c-57 -50 -164 -103 -244 -103zM396 607c-30 32 -62 66 -95 111
c-43 -37 -82 -65 -140 -102c-12 12 -16 20 -25 39c74 46 114 84 179 155c49 -67 82 -102 133 -157c-18 -20 -35 -36 -52 -46z" />
    <glyph glyph-name="Cdotaccent" unicode="&#x10a;" horiz-adv-x="616" 
d="M363 -13c-227 0 -316 123 -316 335c0 227 149 397 375 397c67 0 130 -15 182 -42l-11 -150h-36c-14 86 -69 128 -140 128c-181 0 -268 -140 -268 -311s54 -282 242 -282c51 0 103 12 148 31l20 -61c-56 -29 -133 -45 -196 -45zM406 757c-13 0 -60 53 -58 66
c1 15 59 65 71 65c13 0 61 -51 60 -65c-2 -11 -58 -66 -73 -66z" />
    <glyph glyph-name="cdotaccent" unicode="&#x10b;" horiz-adv-x="418" 
d="M133 -13c-64 0 -96 32 -96 91c0 180 23 477 253 477c53 0 88 -9 118 -27c-1 -28 -12 -67 -25 -84c-27 17 -84 40 -137 40c-125 0 -119 -320 -119 -406c15 -8 33 -10 47 -10c42 0 135 42 181 65l22 -43c-57 -50 -164 -103 -244 -103zM277 650c-14 0 -60 53 -58 66
c1 14 58 65 71 65s61 -51 60 -65c-2 -11 -58 -66 -73 -66z" />
    <glyph glyph-name="Ccaron" unicode="&#x10c;" horiz-adv-x="616" 
d="M363 -13c-227 0 -316 123 -316 335c0 227 149 397 375 397c67 0 130 -15 182 -42l-11 -150h-36c-14 86 -69 128 -140 128c-181 0 -268 -140 -268 -311s54 -282 242 -282c51 0 103 12 148 31l20 -61c-56 -29 -133 -45 -196 -45zM381 741c-32 39 -97 77 -161 110
c10 18 21 35 36 51c64 -28 96 -47 137 -78c38 26 84 50 145 72c10 -14 14 -24 18 -37c-79 -43 -123 -74 -175 -118z" />
    <glyph glyph-name="ccaron" unicode="&#x10d;" horiz-adv-x="418" 
d="M133 -13c-64 0 -96 32 -96 91c0 180 23 477 253 477c53 0 88 -9 118 -27c-1 -28 -12 -67 -25 -84c-27 17 -84 40 -137 40c-125 0 -119 -320 -119 -406c15 -8 33 -10 47 -10c42 0 135 42 181 65l22 -43c-57 -50 -164 -103 -244 -103zM270 616c-49 67 -82 102 -133 157
c18 20 35 36 52 46c30 -32 62 -66 95 -111c43 37 82 65 140 102c12 -12 16 -20 25 -39c-74 -46 -114 -84 -179 -155z" />
    <glyph glyph-name="Dcaron" unicode="&#x10e;" horiz-adv-x="718" 
d="M10 0c-2 14 -2 29 0 44c22 6 45 11 68 18c31 8 43 42 45 71l36 475c1 16 -7 33 -24 38l-70 24c0 13 1 25 6 37l260 5c206 4 351 -94 351 -320c0 -262 -144 -392 -394 -392h-278zM211 61l73 2c206 6 293 119 293 319c0 169 -79 263 -253 263h-79zM331 741
c-32 39 -97 77 -161 110c10 18 21 35 36 51c64 -28 96 -47 137 -78c38 26 84 50 145 72c10 -14 14 -24 18 -37c-79 -43 -123 -74 -175 -118z" />
    <glyph glyph-name="dcaron" unicode="&#x10f;" horiz-adv-x="603" 
d="M116 -13c-63 0 -78 31 -78 92c0 179 62 472 292 472c14 0 26 0 41 -2l15 140h-98v51c37 9 107 20 150 20c26 0 36 -8 33 -31l-72 -648h85v-22c-35 -36 -79 -71 -128 -71c-27 0 -43 13 -43 40c0 18 5 53 8 80c-58 -60 -124 -121 -205 -121zM123 72c31 -13 72 5 109 28
c38 24 74 53 96 69l33 299c-27 14 -51 14 -78 14c-124 0 -160 -313 -160 -410zM563 596l-47 10c18 83 30 147 30 236l81 -5c-4 -88 -28 -175 -64 -241z" />
    <glyph glyph-name="Dcroat" unicode="&#x110;" horiz-adv-x="718" 
d="M10 0c-1 16 -3 31 -3 48l70 18c30 8 41 41 43 68l16 204h-92l4 59h92l16 209c1 15 -6 31 -21 36l-72 24c0 14 2 27 7 41l261 5c207 4 354 -94 354 -320c0 -262 -145 -392 -397 -392h-278zM213 66l71 2c204 6 290 116 290 314c0 166 -77 258 -250 258h-76l-15 -243h172
l-4 -59h-171z" />
    <glyph glyph-name="dcroat" unicode="&#x111;" horiz-adv-x="512" 
d="M116 -13c-63 0 -78 31 -78 92c0 179 62 472 292 472c14 0 26 0 41 -2l7 73h-172l7 62h172l7 63l84 20l-10 -83h80l-7 -62h-80l-60 -541h85v-22c-35 -36 -79 -71 -128 -71c-27 0 -43 13 -43 40c0 18 5 53 8 80c-58 -60 -124 -121 -205 -121zM232 100c38 24 74 53 96 69
l33 298c-27 14 -52 15 -78 15c-124 0 -160 -313 -160 -410c31 -13 72 5 109 28z" />
    <glyph glyph-name="Emacron" unicode="&#x112;" horiz-adv-x="591" 
d="M10 0c-2 14 -2 33 0 45l68 18c25 6 42 31 44 60l36 481c2 16 -5 36 -22 42l-72 26c0 8 2 23 7 35h474l-11 -157c-13 -2 -36 -1 -47 0c-8 59 -25 89 -76 91l-164 6l-18 -261l252 5l-5 -72l-251 5l-13 -263l170 4c74 1 118 57 137 103l39 -6l-29 -162h-519zM190 775l4 69
h298l-4 -69h-298z" />
    <glyph glyph-name="emacron" unicode="&#x113;" horiz-adv-x="434" 
d="M150 -13c-80 0 -109 34 -109 172c0 168 48 399 265 399c74 0 120 -32 120 -87c0 -131 -91 -199 -293 -234c-4 -53 -4 -108 -4 -152c15 -7 38 -14 53 -14c41 0 121 31 169 53l21 -44c-56 -50 -142 -93 -222 -93zM138 290c163 33 191 71 191 155c0 31 -20 49 -70 49
c-76 0 -107 -97 -121 -204zM136 685l8 69h298l-8 -69h-298z" />
    <glyph glyph-name="Ebreve" unicode="&#x114;" horiz-adv-x="591" 
d="M10 0c-2 14 -2 33 0 45l68 18c25 6 42 31 44 60l36 481c2 16 -5 36 -22 42l-72 26c0 8 2 23 7 35h474l-11 -157c-13 -2 -36 -1 -47 0c-8 59 -25 89 -76 91l-164 6l-18 -261l252 5l-5 -72l-251 5l-13 -263l170 4c74 1 118 57 137 103l39 -6l-29 -162h-519zM346 757
c-91 0 -136 46 -164 84l54 51c20 -27 63 -66 124 -66c73 0 120 47 129 58l28 -27c-7 -12 -63 -100 -171 -100z" />
    <glyph glyph-name="ebreve" unicode="&#x115;" horiz-adv-x="434" 
d="M150 -13c-80 0 -109 34 -109 172c0 168 48 399 265 399c74 0 120 -32 120 -87c0 -131 -91 -199 -293 -234c-4 -53 -4 -108 -4 -152c15 -7 38 -14 53 -14c41 0 121 31 169 53l21 -44c-56 -50 -142 -93 -222 -93zM138 290c163 33 191 71 191 155c0 31 -20 49 -70 49
c-76 0 -107 -97 -121 -204zM292 636c-91 0 -136 46 -164 84l54 51c20 -27 63 -66 124 -66c73 0 120 47 129 58l28 -27c-7 -12 -63 -100 -171 -100z" />
    <glyph glyph-name="Edotaccent" unicode="&#x116;" horiz-adv-x="591" 
d="M10 0c-2 14 -2 33 0 45l68 18c25 6 42 31 44 60l36 481c2 16 -5 36 -22 42l-72 26c0 8 2 23 7 35h474l-11 -157c-13 -2 -36 -1 -47 0c-8 59 -25 89 -76 91l-164 6l-18 -261l252 5l-5 -72l-251 5l-13 -263l170 4c74 1 118 57 137 103l39 -6l-29 -162h-519zM343 757
c-13 0 -60 53 -58 66c1 15 59 65 71 65c13 0 61 -51 60 -65c-2 -11 -58 -66 -73 -66z" />
    <glyph glyph-name="edotaccent" unicode="&#x117;" horiz-adv-x="434" 
d="M150 -13c-80 0 -109 34 -109 172c0 168 48 399 265 399c74 0 120 -32 120 -87c0 -131 -91 -199 -293 -234c-4 -53 -4 -108 -4 -152c15 -7 38 -14 53 -14c41 0 121 31 169 53l21 -44c-56 -50 -142 -93 -222 -93zM138 290c163 33 191 71 191 155c0 31 -20 49 -70 49
c-76 0 -107 -97 -121 -204zM283 650c-14 0 -60 53 -58 66c1 14 58 65 71 65s61 -51 60 -65c-2 -11 -58 -66 -73 -66z" />
    <glyph glyph-name="Eogonek" unicode="&#x118;" horiz-adv-x="591" 
d="M452 -251c-58 0 -122 10 -122 77c0 57 66 125 131 174h-451c-2 14 -2 33 0 45l68 18c25 6 42 31 44 60l36 481c2 16 -5 36 -22 42l-72 26c0 8 2 23 7 35h474l-11 -157c-13 -2 -36 -1 -47 0c-8 59 -25 89 -76 91l-164 6l-18 -261l252 5l-5 -72l-251 5l-13 -263l170 4
c74 1 118 57 137 103l39 -6l-30 -162c-50 -43 -117 -117 -118 -165c13 -15 42 -28 72 -28c17 0 24 1 42 5l13 -47c-27 -11 -54 -16 -85 -16z" />
    <glyph glyph-name="eogonek" unicode="&#x119;" horiz-adv-x="434" 
d="M204 -251c-58 0 -122 10 -122 77c0 53 64 119 129 169c-20 -5 -41 -8 -61 -8c-80 0 -109 34 -109 172c0 168 48 399 265 399c74 0 120 -32 120 -87c0 -131 -91 -199 -293 -234c-4 -53 -4 -108 -4 -152c15 -7 38 -14 53 -14c41 0 121 31 169 53l21 -44
c-18 -16 -38 -31 -60 -44c-53 -40 -149 -147 -150 -201c13 -15 42 -28 72 -28c17 0 24 1 42 5l13 -47c-27 -11 -54 -16 -85 -16zM138 290c163 33 191 71 191 155c0 31 -20 49 -70 49c-76 0 -107 -97 -121 -204z" />
    <glyph glyph-name="Ecaron" unicode="&#x11a;" horiz-adv-x="591" 
d="M10 0c-2 14 -2 33 0 45l68 18c25 6 42 31 44 60l36 481c2 16 -5 36 -22 42l-72 26c0 8 2 23 7 35h474l-11 -157c-13 -2 -36 -1 -47 0c-8 59 -25 89 -76 91l-164 6l-18 -261l252 5l-5 -72l-251 5l-13 -263l170 4c74 1 118 57 137 103l39 -6l-29 -162h-519zM338 741
c-32 39 -97 77 -161 110c10 18 21 35 36 51c64 -28 96 -47 137 -78c38 26 84 50 145 72c10 -14 14 -24 18 -37c-79 -43 -123 -74 -175 -118z" />
    <glyph glyph-name="ecaron" unicode="&#x11b;" horiz-adv-x="434" 
d="M150 -13c-80 0 -109 34 -109 172c0 168 48 399 265 399c74 0 120 -32 120 -87c0 -131 -91 -199 -293 -234c-4 -53 -4 -108 -4 -152c15 -7 38 -14 53 -14c41 0 121 31 169 53l21 -44c-56 -50 -142 -93 -222 -93zM138 290c163 33 191 71 191 155c0 31 -20 49 -70 49
c-76 0 -107 -97 -121 -204zM273 616c-49 67 -82 102 -133 157c18 20 35 36 52 46c30 -32 62 -66 95 -111c43 37 82 65 140 102c12 -12 16 -20 25 -39c-74 -46 -114 -84 -179 -155z" />
    <glyph glyph-name="Gcircumflex" unicode="&#x11c;" horiz-adv-x="665" 
d="M373 -10c-227 0 -326 111 -326 332c0 227 149 397 375 397c61 0 140 -13 187 -42l-10 -150h-36c-19 83 -71 128 -146 128c-181 0 -268 -140 -268 -311s54 -281 242 -281c35 0 69 6 104 14l15 227h86l-16 -263c-47 -25 -136 -51 -207 -51zM557 733c-66 24 -100 46 -137 78
c-33 -25 -81 -49 -145 -72c-10 14 -14 24 -18 37c94 52 126 74 175 118c32 -39 97 -77 161 -110c-10 -18 -21 -35 -36 -51z" />
    <glyph glyph-name="gcircumflex" unicode="&#x11d;" horiz-adv-x="490" 
d="M127 -226c-76 0 -131 13 -152 19c1 34 13 68 19 84c39 -9 77 -20 118 -20c107 0 180 8 192 124l14 129c-58 -60 -124 -122 -205 -122c-63 0 -78 31 -78 92c0 179 63 471 293 471c52 0 86 -12 118 -26l-60 -560c-13 -125 -165 -191 -259 -191zM142 69c59 0 136 68 183 102
l35 294c-22 13 -54 16 -79 16c-126 0 -161 -316 -161 -408c7 -3 15 -4 22 -4zM433 607c-30 32 -62 66 -95 111c-43 -37 -82 -65 -140 -102c-12 12 -16 20 -25 39c74 46 114 84 179 155c49 -67 82 -102 133 -157c-18 -20 -35 -36 -52 -46z" />
    <glyph glyph-name="Gbreve" unicode="&#x11e;" horiz-adv-x="665" 
d="M373 -10c-227 0 -326 111 -326 332c0 227 149 397 375 397c61 0 140 -13 187 -42l-10 -150h-36c-19 83 -71 128 -146 128c-181 0 -268 -140 -268 -311s54 -281 242 -281c35 0 69 6 104 14l15 227h86l-16 -263c-47 -25 -136 -51 -207 -51zM404 757c-91 0 -136 46 -164 84
l54 51c20 -27 63 -66 124 -66c73 0 120 47 129 58l28 -27c-7 -12 -63 -100 -171 -100z" />
    <glyph glyph-name="gbreve" unicode="&#x11f;" horiz-adv-x="490" 
d="M127 -226c-76 0 -131 13 -152 19c1 34 13 68 19 84c39 -9 77 -20 118 -20c107 0 180 8 192 124l14 129c-58 -60 -124 -122 -205 -122c-63 0 -78 31 -78 92c0 179 63 471 293 471c52 0 86 -12 118 -26l-60 -560c-13 -125 -165 -191 -259 -191zM142 69c59 0 136 68 183 102
l35 294c-22 13 -54 16 -79 16c-126 0 -161 -316 -161 -408c7 -3 15 -4 22 -4zM323 636c-91 0 -136 46 -164 84l54 51c20 -27 63 -66 124 -66c73 0 120 47 129 58l28 -27c-7 -12 -63 -100 -171 -100z" />
    <glyph glyph-name="Gdotaccent" unicode="&#x120;" horiz-adv-x="665" 
d="M373 -10c-227 0 -326 111 -326 332c0 227 149 397 375 397c61 0 140 -13 187 -42l-10 -150h-36c-19 83 -71 128 -146 128c-181 0 -268 -140 -268 -311s54 -281 242 -281c35 0 69 6 104 14l15 227h86l-16 -263c-47 -25 -136 -51 -207 -51zM409 757c-13 0 -60 53 -58 66
c1 15 59 65 71 65c13 0 61 -51 60 -65c-2 -11 -58 -66 -73 -66z" />
    <glyph glyph-name="gdotaccent" unicode="&#x121;" horiz-adv-x="490" 
d="M127 -226c-76 0 -131 13 -152 19c1 34 13 68 19 84c39 -9 77 -20 118 -20c107 0 180 8 192 124l14 129c-58 -60 -124 -122 -205 -122c-63 0 -78 31 -78 92c0 179 63 471 293 471c52 0 86 -12 118 -26l-60 -560c-13 -125 -165 -191 -259 -191zM142 69c59 0 136 68 183 102
l35 294c-22 13 -54 16 -79 16c-126 0 -161 -316 -161 -408c7 -3 15 -4 22 -4zM323 650c-14 0 -60 53 -58 66c1 14 58 65 71 65s61 -51 60 -65c-2 -11 -58 -66 -73 -66z" />
    <glyph glyph-name="Gcommaaccent" unicode="&#x122;" horiz-adv-x="665" 
d="M373 -10c-227 0 -326 111 -326 332c0 227 149 397 375 397c61 0 140 -13 187 -42l-10 -150h-36c-19 83 -71 128 -146 128c-181 0 -268 -140 -268 -311s54 -281 242 -281c35 0 69 6 104 14l15 227h86l-16 -263c-47 -25 -136 -51 -207 -51zM336 -307l-47 10
c18 83 30 147 30 236l81 -5c-4 -88 -28 -175 -64 -241z" />
    <glyph glyph-name="gcommaaccent" unicode="&#x123;" horiz-adv-x="490" 
d="M127 -226c-76 0 -131 13 -152 19c1 34 13 68 19 84c39 -9 77 -20 118 -20c107 0 180 8 192 124l14 129c-58 -60 -124 -122 -205 -122c-63 0 -78 31 -78 92c0 179 63 471 293 471c52 0 86 -12 118 -26l-60 -560c-13 -125 -165 -191 -259 -191zM142 69c59 0 136 68 183 102
l35 294c-22 13 -54 16 -79 16c-126 0 -161 -316 -161 -408c7 -3 15 -4 22 -4zM349 854l47 -10c-18 -83 -30 -147 -30 -236l-81 5c4 88 28 175 64 241z" />
    <glyph glyph-name="Hcircumflex" unicode="&#x124;" horiz-adv-x="781" 
d="M8 0c-2 14 -2 28 -1 40l59 21c30 11 48 53 50 83l32 438c4 43 -8 62 -32 69l-65 19c1 10 3 27 7 37h267c2 -14 2 -29 1 -41l-55 -13c-29 -7 -34 -16 -36 -43l-15 -224h355l12 186c2 25 -8 70 -37 81l-46 17c1 12 0 26 4 37h257c-1 -13 -1 -28 -5 -41l-52 -12
c-22 -5 -31 -12 -32 -41l-32 -503c-2 -24 4 -39 18 -42l81 -19c-1 -11 -4 -38 -7 -49h-283c-2 14 -2 32 0 44l41 11c45 13 60 67 63 97l13 172h-355l-11 -213c-1 -25 4 -35 22 -40l92 -25c-1 -10 -4 -35 -7 -46h-303zM565 733c-66 24 -100 46 -137 78
c-33 -25 -81 -49 -145 -72c-10 14 -14 24 -18 37c94 52 126 74 175 118c32 -39 97 -77 161 -110c-10 -18 -21 -35 -36 -51z" />
    <glyph glyph-name="hcircumflex" unicode="&#x125;" horiz-adv-x="544" 
d="M373 -12c-27 0 -42 13 -42 40c0 18 1 33 5 61l50 364c-7 2 -15 4 -23 4c-63 0 -164 -65 -190 -89l-23 -207v-161h-97l72 689h-99v51c37 9 107 20 150 20c24 0 34 -6 34 -24v-7l-33 -303c60 63 159 127 224 127c49 0 66 -17 66 -61c0 -12 -1 -25 -3 -41l-49 -369h86v-21
c-34 -35 -79 -73 -128 -73zM304 760c-66 24 -100 46 -137 78c-33 -25 -81 -49 -145 -72c-10 14 -14 24 -18 37c94 52 126 74 175 118c32 -39 97 -77 161 -110c-10 -18 -21 -35 -36 -51z" />
    <glyph glyph-name="Hbar" unicode="&#x126;" horiz-adv-x="781" 
d="M8 0c-2 14 -2 28 -1 40l59 21c30 11 48 53 50 83l24 337h-84l4 57h84l4 44c4 43 -8 62 -32 69l-65 19c1 10 3 27 7 37h267c2 -14 2 -29 1 -41l-55 -13c-29 -7 -34 -16 -36 -43l-5 -72h355l2 34c2 25 -8 70 -37 81l-46 17c1 12 0 26 4 37h257c-1 -13 -1 -28 -5 -41
l-52 -12c-22 -5 -31 -12 -32 -41l-5 -75h82l-4 -57h-82l-23 -371c-2 -24 4 -39 18 -42l81 -19c-1 -11 -4 -38 -7 -49h-283c-2 14 -2 32 0 44l41 11c45 13 60 67 63 97l13 172h-355l-11 -213c-1 -25 4 -35 22 -40l92 -25c-1 -10 -4 -35 -7 -46h-303zM220 386h355l6 95h-355z
" />
    <glyph glyph-name="hbar" unicode="&#x127;" horiz-adv-x="544" 
d="M373 -12c-27 0 -42 13 -42 40c0 18 1 33 5 61l50 364c-7 2 -15 4 -23 4c-63 0 -164 -65 -190 -89l-23 -207v-161h-97l65 622h-69l7 62h68l7 63l84 20l-10 -83h184l-7 -62h-184l-21 -196c60 63 159 127 224 127c49 0 66 -17 66 -61c0 -12 -1 -25 -3 -41l-49 -369h86v-21
c-34 -35 -79 -73 -128 -73z" />
    <glyph glyph-name="Itilde" unicode="&#x128;" horiz-adv-x="336" 
d="M12 0c-2 14 -2 28 -1 40l54 21c27 10 41 41 44 72l32 441c3 33 -5 66 -46 82l-37 14c-1 9 0 27 4 37h257c2 -14 1 -29 0 -41l-40 -8c-34 -8 -49 -48 -51 -81l-30 -476c-2 -25 2 -34 24 -39l77 -16c-1 -11 -4 -35 -7 -46h-280zM248 752c-27 0 -88 36 -114 36
c-21 0 -64 -15 -103 -33l-22 33c51 33 114 76 141 76c37 0 105 -39 129 -39c16 0 28 11 46 26l29 -30c-31 -31 -76 -69 -106 -69z" />
    <glyph glyph-name="itilde" unicode="&#x129;" horiz-adv-x="259" 
d="M91 -12c-28 0 -43 14 -43 40c0 19 5 51 7 69l43 432l83 34l-48 -483h86v-21c-35 -35 -80 -71 -128 -71zM224 655c-27 0 -88 36 -114 36c-21 0 -64 -15 -103 -33l-22 33c51 33 114 76 141 76c37 0 105 -39 129 -39c16 0 28 11 46 26l29 -30c-31 -31 -76 -69 -106 -69z" />
    <glyph glyph-name="Imacron" unicode="&#x12a;" horiz-adv-x="336" 
d="M12 0c-2 14 -2 28 -1 40l54 21c27 10 41 41 44 72l32 441c3 33 -5 66 -46 82l-37 14c-1 9 0 27 4 37h257c2 -14 1 -29 0 -41l-40 -8c-34 -8 -49 -48 -51 -81l-30 -476c-2 -25 2 -34 24 -39l77 -16c-1 -11 -4 -35 -7 -46h-280zM47 775l4 69h298l-4 -69h-298z" />
    <glyph glyph-name="imacron" unicode="&#x12b;" horiz-adv-x="259" 
d="M91 -12c-28 0 -43 14 -43 40c0 19 5 51 7 69l43 432l83 34l-48 -483h86v-21c-35 -35 -80 -71 -128 -71zM5 685l8 69h298l-8 -69h-298z" />
    <glyph glyph-name="Ibreve" unicode="&#x12c;" horiz-adv-x="336" 
d="M12 0c-2 14 -2 28 -1 40l54 21c27 10 41 41 44 72l32 441c3 33 -5 66 -46 82l-37 14c-1 9 0 27 4 37h257c2 -14 1 -29 0 -41l-40 -8c-34 -8 -49 -48 -51 -81l-30 -476c-2 -25 2 -34 24 -39l77 -16c-1 -11 -4 -35 -7 -46h-280zM200 757c-91 0 -136 46 -164 84l54 51
c20 -27 63 -66 124 -66c73 0 120 47 129 58l28 -27c-7 -12 -63 -100 -171 -100z" />
    <glyph glyph-name="ibreve" unicode="&#x12d;" horiz-adv-x="259" 
d="M91 -12c-28 0 -43 14 -43 40c0 19 5 51 7 69l43 432l83 34l-48 -483h86v-21c-35 -35 -80 -71 -128 -71zM153 636c-91 0 -136 46 -164 84l54 51c20 -27 63 -66 124 -66c73 0 120 47 129 58l28 -27c-7 -12 -63 -100 -171 -100z" />
    <glyph glyph-name="Iogonek" unicode="&#x12e;" horiz-adv-x="336" 
d="M77 -246c-48 0 -124 19 -124 86c0 53 21 123 117 192c35 25 36 70 39 101l32 441c3 33 -5 66 -46 82l-37 14c-1 9 0 27 4 37h257c2 -14 1 -29 0 -41l-40 -8c-34 -8 -49 -48 -51 -81l-30 -476c-2 -25 2 -34 24 -39l77 -16c-1 -11 -4 -35 -7 -46h-60
c-137 0 -189 -37 -204 -162c13 -15 49 -26 79 -26c17 0 24 1 42 5l13 -47c-27 -11 -54 -16 -85 -16z" />
    <glyph glyph-name="iogonek" unicode="&#x12f;" horiz-adv-x="259" 
d="M92 -251c-58 0 -122 10 -122 77c0 54 39 117 100 165c-14 6 -22 18 -22 37s5 51 7 69l43 432l83 34l-48 -483h86v-21c-16 -16 -35 -33 -54 -46c-51 -39 -114 -125 -115 -178c13 -15 42 -28 72 -28c17 0 24 1 42 5l13 -47c-27 -11 -54 -16 -85 -16zM145 649
c-14 0 -61 55 -61 69c0 13 63 69 76 69s62 -54 62 -68c0 -12 -64 -70 -77 -70z" />
    <glyph glyph-name="Idotaccent" unicode="&#x130;" horiz-adv-x="336" 
d="M12 0c-2 14 -2 28 -1 40l54 21c27 10 41 41 44 72l32 441c3 33 -5 66 -46 82l-37 14c-1 9 0 27 4 37h257c2 -14 1 -29 0 -41l-40 -8c-34 -8 -49 -48 -51 -81l-30 -476c-2 -25 2 -34 24 -39l77 -16c-1 -11 -4 -35 -7 -46h-280zM195 757c-13 0 -60 53 -58 66
c1 15 59 65 71 65c13 0 61 -51 60 -65c-2 -11 -58 -66 -73 -66z" />
    <glyph glyph-name="dotlessi" unicode="&#x131;" horiz-adv-x="259" 
d="M91 -12c-28 0 -43 14 -43 40c0 19 5 51 7 69l43 432l83 34l-48 -483h86v-21c-35 -35 -80 -71 -128 -71z" />
    <glyph glyph-name="IJ" unicode="&#x132;" horiz-adv-x="674" 
d="M12 0c-2 14 -2 28 -1 40l54 21c27 10 41 41 44 72l32 441c3 33 -5 66 -46 82l-37 14c-1 9 0 27 4 37h257c2 -14 1 -29 0 -41l-40 -8c-34 -8 -49 -48 -51 -81l-30 -476c-2 -25 2 -34 24 -39l77 -16c-1 -11 -4 -35 -7 -46h-280zM323 -186l-28 55c109 64 154 135 164 276
l30 433c2 28 -12 66 -45 78l-41 14c1 9 3 27 7 37h258c1 -14 1 -28 0 -40l-48 -11c-31 -8 -40 -17 -42 -47l-37 -523c-10 -146 -95 -211 -218 -272z" />
    <glyph glyph-name="ij" unicode="&#x133;" horiz-adv-x="513" 
d="M91 -12c-28 0 -43 14 -43 40c0 19 5 51 7 69l43 432l83 34l-48 -483h86v-21c-35 -35 -80 -71 -128 -71zM145 649c-14 0 -61 55 -61 69c0 13 63 69 76 69s62 -54 62 -68c0 -12 -64 -70 -77 -70zM189 -224c-38 0 -70 10 -84 15c3 28 12 60 22 79c18 -6 49 -15 74 -15
c85 0 111 28 119 129l42 542l85 35l-46 -578c-8 -105 -123 -207 -212 -207zM408 649c-14 0 -61 55 -61 69c0 13 63 69 76 69s62 -54 62 -68c0 -12 -64 -70 -77 -70z" />
    <glyph glyph-name="Jcircumflex" unicode="&#x134;" horiz-adv-x="338" 
d="M-13 -186l-28 55c109 64 154 135 164 276l30 433c2 28 -12 66 -45 78l-41 14c1 9 3 27 7 37h258c1 -14 1 -28 0 -40l-48 -11c-31 -8 -40 -17 -42 -47l-37 -523c-10 -146 -95 -211 -218 -272zM349 733c-66 24 -100 46 -137 78c-33 -25 -81 -49 -145 -72
c-10 14 -14 24 -18 37c94 52 126 74 175 118c32 -39 97 -77 161 -110c-10 -18 -21 -35 -36 -51z" />
    <glyph glyph-name="jcircumflex" unicode="&#x135;" horiz-adv-x="254" 
d="M-70 -224c-38 0 -70 10 -84 15c3 28 12 60 22 79c18 -6 49 -15 74 -15c85 0 111 28 119 129l42 542l85 35l-46 -578c-8 -105 -123 -207 -212 -207zM266 607c-30 32 -62 66 -95 111c-43 -37 -82 -65 -140 -102c-12 12 -16 20 -25 39c74 46 114 84 179 155
c49 -67 82 -102 133 -157c-18 -20 -35 -36 -52 -46z" />
    <glyph glyph-name="Kcommaaccent" unicode="&#x136;" horiz-adv-x="673" 
d="M4 0c-2 15 -3 31 -1 44l68 23c26 9 40 37 42 67l34 449c1 24 -6 54 -26 62l-58 21c-1 9 0 30 4 41h262c1 -15 3 -26 1 -39l-51 -19c-27 -10 -40 -44 -42 -71l-30 -470c-2 -25 4 -32 18 -36l63 -21c0 -9 -3 -40 -7 -51h-277zM657 -22c-20 0 -121 4 -168 64l-229 300l3 41
l197 205c14 15 23 27 24 38c0 13 -7 23 -18 27l-45 14c0 10 3 29 6 40h230l-3 -41l-306 -277l196 -257c47 -63 101 -90 127 -101zM336 -307l-47 10c18 83 30 147 30 236l81 -5c-4 -88 -28 -175 -64 -241z" />
    <glyph glyph-name="kcommaaccent" unicode="&#x137;" horiz-adv-x="480" 
d="M396 -27c-110 95 -140 173 -206 299l137 180c24 31 -10 55 -34 66l4 28h160l11 -25l-202 -235c47 -80 94 -148 189 -244c-18 -39 -36 -52 -59 -69zM50 0l73 689h-98v51c37 9 107 20 150 20c26 0 36 -8 33 -31l-60 -571v-158h-98zM220 -307l-47 10c18 83 30 147 30 236
l81 -5c-4 -88 -28 -175 -64 -241z" />
    <glyph glyph-name="Lacute" unicode="&#x139;" horiz-adv-x="523" 
d="M7 0c-1 14 -1 32 0 44l64 18c25 6 41 32 43 60l35 462c2 25 -5 57 -27 65l-60 21c1 9 3 27 6 37h258c1 -14 2 -28 1 -40l-48 -11c-28 -7 -40 -16 -42 -42l-33 -550l137 5c70 10 111 55 130 99l39 -6l-30 -162h-473zM128 740c-6 11 -10 25 -13 39c61 23 127 51 192 84
c12 -16 20 -36 28 -63c-59 -24 -145 -47 -207 -60z" />
    <glyph glyph-name="lacute" unicode="&#x13a;" horiz-adv-x="283" 
d="M97 -11c-27 0 -43 13 -43 40c0 18 5 50 7 69l70 591h-98v51c37 9 107 20 150 20c26 0 36 -8 33 -31l-74 -649h83v-21c-34 -34 -79 -70 -128 -70zM108 784c-6 11 -10 25 -13 39c61 23 127 51 192 84c12 -16 20 -36 28 -63c-59 -24 -145 -47 -207 -60z" />
    <glyph glyph-name="Lcommaaccent" unicode="&#x13b;" horiz-adv-x="523" 
d="M7 0c-1 14 -1 32 0 44l64 18c25 6 41 32 43 60l35 462c2 25 -5 57 -27 65l-60 21c1 9 3 27 6 37h258c1 -14 2 -28 1 -40l-48 -11c-28 -7 -40 -16 -42 -42l-33 -550l137 5c70 10 111 55 130 99l39 -6l-30 -162h-473zM251 -307l-47 10c18 83 30 147 30 236l81 -5
c-4 -88 -28 -175 -64 -241z" />
    <glyph glyph-name="lcommaaccent" unicode="&#x13c;" horiz-adv-x="283" 
d="M97 -11c-27 0 -43 13 -43 40c0 18 5 50 7 69l70 591h-98v51c37 9 107 20 150 20c26 0 36 -8 33 -31l-74 -649h83v-21c-34 -34 -79 -70 -128 -70zM79 -307l-47 10c18 83 30 147 30 236l81 -5c-4 -88 -28 -175 -64 -241z" />
    <glyph glyph-name="Lcaron" unicode="&#x13d;" horiz-adv-x="523" 
d="M7 0c-1 14 -1 32 0 44l64 18c25 6 41 32 43 60l35 462c2 25 -5 57 -27 65l-60 21c1 9 3 27 6 37h258c1 -14 2 -28 1 -40l-48 -11c-28 -7 -40 -16 -42 -42l-33 -550l137 5c70 10 111 55 130 99l39 -6l-30 -162h-473zM442 597l-47 10c18 83 30 147 30 236l81 -5
c-4 -88 -28 -175 -64 -241z" />
    <glyph glyph-name="lcaron" unicode="&#x13e;" horiz-adv-x="357" 
d="M97 -11c-27 0 -43 13 -43 40c0 18 5 50 7 69l70 591h-98v51c37 9 107 20 150 20c26 0 36 -8 33 -31l-74 -649h83v-21c-34 -34 -79 -70 -128 -70zM305 596l-47 10c18 83 30 147 30 236l81 -5c-4 -88 -28 -175 -64 -241z" />
    <glyph glyph-name="Ldot" unicode="&#x13f;" horiz-adv-x="523" 
d="M7 0c-1 14 -1 32 0 44l64 18c25 6 41 32 43 60l35 462c2 25 -5 57 -27 65l-60 21c1 9 3 27 6 37h258c1 -14 2 -28 1 -40l-48 -11c-28 -7 -40 -16 -42 -42l-33 -550l137 5c70 10 111 55 130 99l39 -6l-30 -162h-473zM445 312c-16 0 -69 60 -67 75c2 16 69 74 83 74
s68 -59 66 -74c-1 -12 -65 -75 -82 -75z" />
    <glyph glyph-name="ldot" unicode="&#x140;" horiz-adv-x="358" 
d="M97 -11c-27 0 -43 13 -43 40c0 18 5 50 7 69l70 591h-98v51c37 9 107 20 150 20c26 0 36 -8 33 -31l-74 -649h83v-21c-34 -34 -79 -70 -128 -70zM297 282c-16 0 -69 60 -67 75c2 16 69 74 83 74s68 -59 66 -74c-1 -12 -65 -75 -82 -75z" />
    <glyph glyph-name="Lslash" unicode="&#x141;" horiz-adv-x="523" 
d="M8 0c-2 15 -2 32 0 45l65 18c24 6 39 31 41 58l15 195l-88 -48v63l92 47l16 209c2 24 -6 55 -26 62l-61 21c0 9 3 26 7 37h258c2 -15 2 -27 1 -40l-50 -12c-26 -6 -38 -9 -40 -39l-11 -185l112 64v-63l-116 -63l-18 -304l135 4c69 10 110 55 128 99l42 -7l-30 -161h-472z
" />
    <glyph glyph-name="lslash" unicode="&#x142;" horiz-adv-x="283" 
d="M97 -11c-27 0 -43 13 -43 40c0 18 5 50 7 69l24 231l-73 -39v59l80 43l31 297h-98v51c37 9 107 20 150 20c26 0 36 -8 33 -31l-31 -291l88 47v-59l-95 -51l-31 -295h86v-21c-34 -34 -79 -70 -128 -70z" />
    <glyph glyph-name="Nacute" unicode="&#x143;" horiz-adv-x="802" 
d="M576 -21l-351 614h-11l4 -83l-26 -399c-1 -24 0 -32 23 -40l81 -29c0 -10 -3 -31 -6 -42h-278c-2 14 -2 28 -1 40l58 18c33 10 53 54 55 86l30 451c1 23 -9 47 -27 54l-54 21c1 12 1 26 5 37h198l319 -547h11l-3 109l22 313c1 26 -12 59 -35 67l-59 21c1 9 3 27 6 37h258
c1 -11 2 -23 1 -35l-58 -16c-27 -8 -46 -42 -48 -72l-41 -583zM366 740c-6 11 -10 25 -13 39c61 23 127 51 192 84c12 -16 20 -36 28 -63c-59 -24 -145 -47 -207 -60z" />
    <glyph glyph-name="nacute" unicode="&#x144;" horiz-adv-x="544" 
d="M369 -12c-27 0 -42 13 -42 40c0 18 1 33 5 61l50 364c-7 2 -14 4 -22 4c-63 0 -164 -65 -190 -89l-24 -207v-161h-97l55 527l85 35l-13 -134c59 63 155 125 221 125c49 0 66 -17 66 -61c0 -12 -1 -25 -3 -41l-49 -369h86v-21c-34 -35 -79 -73 -128 -73zM303 615
c-12 7 -25 16 -32 29c47 54 96 113 142 175c24 -16 32 -25 52 -50c-56 -57 -89 -92 -162 -154z" />
    <glyph glyph-name="Ncommaaccent" unicode="&#x145;" horiz-adv-x="802" 
d="M576 -21l-351 614h-11l4 -83l-26 -399c-1 -24 0 -32 23 -40l81 -29c0 -10 -3 -31 -6 -42h-278c-2 14 -2 28 -1 40l58 18c33 10 53 54 55 86l30 451c1 23 -9 47 -27 54l-54 21c1 12 1 26 5 37h198l319 -547h11l-3 109l22 313c1 26 -12 59 -35 67l-59 21c1 9 3 27 6 37h258
c1 -11 2 -23 1 -35l-58 -16c-27 -8 -46 -42 -48 -72l-41 -583zM381 -307l-47 10c18 83 30 147 30 236l81 -5c-4 -88 -28 -175 -64 -241z" />
    <glyph glyph-name="ncommaaccent" unicode="&#x146;" horiz-adv-x="544" 
d="M369 -12c-27 0 -42 13 -42 40c0 18 1 33 5 61l50 364c-7 2 -14 4 -22 4c-63 0 -164 -65 -190 -89l-24 -207v-161h-97l55 527l85 35l-13 -134c59 63 155 125 221 125c49 0 66 -17 66 -61c0 -12 -1 -25 -3 -41l-49 -369h86v-21c-34 -35 -79 -73 -128 -73zM215 -307l-47 10
c18 83 30 147 30 236l81 -5c-4 -88 -28 -175 -64 -241z" />
    <glyph glyph-name="Ncaron" unicode="&#x147;" horiz-adv-x="802" 
d="M576 -21l-351 614h-11l4 -83l-26 -399c-1 -24 0 -32 23 -40l81 -29c0 -10 -3 -31 -6 -42h-278c-2 14 -2 28 -1 40l58 18c33 10 53 54 55 86l30 451c1 23 -9 47 -27 54l-54 21c1 12 1 26 5 37h198l319 -547h11l-3 109l22 313c1 26 -12 59 -35 67l-59 21c1 9 3 27 6 37h258
c1 -11 2 -23 1 -35l-58 -16c-27 -8 -46 -42 -48 -72l-41 -583zM431 741c-32 39 -97 77 -161 110c10 18 21 35 36 51c64 -28 96 -47 137 -78c38 26 84 50 145 72c10 -14 14 -24 18 -37c-79 -43 -123 -74 -175 -118z" />
    <glyph glyph-name="ncaron" unicode="&#x148;" horiz-adv-x="544" 
d="M369 -12c-27 0 -42 13 -42 40c0 18 1 33 5 61l50 364c-7 2 -14 4 -22 4c-63 0 -164 -65 -190 -89l-24 -207v-161h-97l55 527l85 35l-13 -134c59 63 155 125 221 125c49 0 66 -17 66 -61c0 -12 -1 -25 -3 -41l-49 -369h86v-21c-34 -35 -79 -73 -128 -73zM297 616
c-49 67 -82 102 -133 157c18 20 35 36 52 46c30 -32 62 -66 95 -111c43 37 82 65 140 102c12 -12 16 -20 25 -39c-74 -46 -114 -84 -179 -155z" />
    <glyph glyph-name="napostrophe" unicode="&#x149;" horiz-adv-x="611" 
d="M436 -12c-27 0 -42 13 -42 40c0 18 1 33 5 61l50 364c-7 2 -14 4 -22 4c-63 0 -164 -65 -190 -89l-24 -207v-161h-97l55 527l85 35l-13 -134c59 63 155 125 221 125c49 0 66 -17 66 -61c0 -12 -1 -25 -3 -41l-49 -369h86v-21c-34 -35 -79 -73 -128 -73zM28 489l-32 27
c30 43 47 82 55 114c-15 23 -30 61 -30 91c0 29 64 42 90 42c9 -10 27 -52 27 -68c0 -49 -29 -137 -110 -206z" />
    <glyph glyph-name="Eng" unicode="&#x14a;" horiz-adv-x="802" 
d="M433 -224c-38 0 -70 10 -84 15c3 28 12 60 22 79c18 -6 49 -15 74 -15c85 0 110 28 120 143l-340 595h-11l4 -83l-26 -399c-1 -24 0 -32 23 -40l81 -29c0 -10 -3 -31 -6 -42h-278c-2 14 -2 28 -1 40l58 18c33 10 53 54 55 86l30 451c1 23 -9 47 -27 54l-54 21
c1 12 1 26 5 37h198l319 -547h11l-3 109l22 313c1 26 -12 59 -35 67l-59 21c1 9 3 27 6 37h258c1 -11 2 -23 1 -35l-58 -16c-27 -8 -46 -42 -48 -72l-45 -601c-9 -105 -123 -207 -212 -207z" />
    <glyph glyph-name="eng" unicode="&#x14b;" horiz-adv-x="544" 
d="M201 -224c-38 0 -70 10 -84 15c3 28 12 60 22 79c18 -6 49 -15 74 -15c85 0 108 28 119 129l50 469c-7 2 -14 4 -22 4c-63 0 -164 -65 -190 -89l-24 -207v-161h-97l55 527l85 35l-13 -134c59 63 155 125 221 125c49 0 66 -17 66 -61c0 -12 -1 -25 -3 -41l-47 -468
c-9 -105 -123 -207 -212 -207z" />
    <glyph glyph-name="Omacron" unicode="&#x14c;" horiz-adv-x="726" 
d="M338 -11c-193 0 -293 133 -293 322c0 213 137 409 361 409c186 0 284 -141 284 -321c0 -213 -123 -410 -352 -410zM357 59c151 0 233 174 233 314c0 138 -55 278 -207 278c-158 0 -236 -170 -236 -314c0 -139 51 -278 210 -278zM254 775l4 69h298l-4 -69h-298z" />
    <glyph glyph-name="omacron" unicode="&#x14d;" horiz-adv-x="480" 
d="M243 61c80 0 110 179 110 302c0 35 -3 66 -7 87c-21 19 -55 36 -107 36c-94 0 -112 -176 -112 -298c0 -41 2 -75 4 -95c24 -23 61 -32 112 -32zM206 -12c-114 0 -166 50 -166 164c0 148 49 403 214 403c131 0 186 -63 186 -174c0 -148 -64 -393 -234 -393zM136 685l8 69
h298l-8 -69h-298z" />
    <glyph glyph-name="Obreve" unicode="&#x14e;" horiz-adv-x="726" 
d="M338 -11c-193 0 -293 133 -293 322c0 213 137 409 361 409c186 0 284 -141 284 -321c0 -213 -123 -410 -352 -410zM357 59c151 0 233 174 233 314c0 138 -55 278 -207 278c-158 0 -236 -170 -236 -314c0 -139 51 -278 210 -278zM393 757c-91 0 -136 46 -164 84l54 51
c20 -27 63 -66 124 -66c73 0 120 47 129 58l28 -27c-7 -12 -63 -100 -171 -100z" />
    <glyph glyph-name="obreve" unicode="&#x14f;" horiz-adv-x="480" 
d="M243 61c80 0 110 179 110 302c0 35 -3 66 -7 87c-21 19 -55 36 -107 36c-94 0 -112 -176 -112 -298c0 -41 2 -75 4 -95c24 -23 61 -32 112 -32zM206 -12c-114 0 -166 50 -166 164c0 148 49 403 214 403c131 0 186 -63 186 -174c0 -148 -64 -393 -234 -393zM287 636
c-91 0 -136 46 -164 84l54 51c20 -27 63 -66 124 -66c73 0 120 47 129 58l28 -27c-7 -12 -63 -100 -171 -100z" />
    <glyph glyph-name="Ohungarumlaut" unicode="&#x150;" horiz-adv-x="726" 
d="M338 -11c-193 0 -293 133 -293 322c0 213 137 409 361 409c186 0 284 -141 284 -321c0 -213 -123 -410 -352 -410zM357 59c151 0 233 174 233 314c0 138 -55 278 -207 278c-158 0 -236 -170 -236 -314c0 -139 51 -278 210 -278zM285 747c-8 9 -16 22 -22 35
c54 37 112 79 167 127c15 -13 28 -31 42 -55c-52 -37 -130 -80 -187 -107zM483 747c-6 11 -10 25 -13 39c61 23 127 51 192 84c12 -16 20 -36 28 -63c-59 -24 -145 -47 -207 -60z" />
    <glyph glyph-name="ohungarumlaut" unicode="&#x151;" horiz-adv-x="480" 
d="M243 61c80 0 110 179 110 302c0 35 -3 66 -7 87c-21 19 -55 36 -107 36c-94 0 -112 -176 -112 -298c0 -41 2 -75 4 -95c24 -23 61 -32 112 -32zM206 -12c-114 0 -166 50 -166 164c0 148 49 403 214 403c131 0 186 -63 186 -174c0 -148 -64 -393 -234 -393zM198 613
c-13 5 -27 12 -36 24c38 60 77 126 113 194c26 -12 35 -19 59 -41c-47 -65 -74 -105 -136 -177zM385 615c-12 7 -25 16 -32 29c47 54 96 113 142 175c24 -16 32 -25 52 -50c-56 -57 -89 -92 -162 -154z" />
    <glyph glyph-name="OE" unicode="&#x152;" horiz-adv-x="938" 
d="M338 -11c-193 0 -293 133 -293 322c0 213 137 409 361 409c35 0 67 -4 95 -13h392l-11 -157c-13 -2 -36 -1 -47 0c-8 59 -25 89 -76 91l-164 6l-18 -261l252 5l-5 -72l-251 5l-13 -263l170 4c74 1 118 57 137 103l39 -6l-29 -162h-453c-26 -7 -55 -11 -86 -11zM357 64
c40 0 76 12 107 33c3 8 6 17 6 26l36 473v8c-31 26 -71 42 -123 42c-158 0 -236 -165 -236 -309c0 -139 51 -273 210 -273z" />
    <glyph glyph-name="oe" unicode="&#x153;" horiz-adv-x="687" 
d="M403 -13c-51 0 -81 14 -96 59c-39 -42 -94 -57 -139 -57c-69 0 -128 34 -128 177c0 147 58 392 227 392c69 0 109 -23 137 -56c38 35 89 56 155 56c74 0 120 -32 120 -87c0 -131 -91 -199 -293 -234c-4 -53 -4 -108 -4 -152c15 -7 38 -14 53 -14c41 0 121 31 169 53
l21 -44c-56 -50 -142 -93 -222 -93zM246 68c12 0 30 8 51 22c-2 19 -3 42 -3 69c0 96 16 212 69 295c-22 15 -60 29 -111 29c-98 0 -117 -199 -117 -318c0 -28 1 -51 2 -67c22 -21 58 -30 109 -30zM391 290c163 33 191 71 191 155c0 31 -20 49 -70 49
c-76 0 -107 -97 -121 -204z" />
    <glyph glyph-name="Racute" unicode="&#x154;" horiz-adv-x="653" 
d="M643 -23c-9 0 -18 0 -26 1c-120 20 -167 82 -226 191l-65 127h-107l-13 -193c-1 -16 5 -27 22 -32l98 -26c-1 -15 -3 -31 -7 -45h-306c-1 13 -2 27 -1 40l58 18c28 8 43 38 45 64l36 482c2 17 -3 36 -22 42l-71 26c-1 12 2 24 6 35h292c126 0 210 -55 210 -190
c0 -98 -54 -173 -141 -206c17 -30 36 -66 58 -102c49 -81 91 -155 168 -191zM222 356h98c78 0 143 27 143 141c0 142 -112 146 -223 150zM241 740c-6 11 -10 25 -13 39c61 23 127 51 192 84c12 -16 20 -36 28 -63c-59 -24 -145 -47 -207 -60z" />
    <glyph glyph-name="racute" unicode="&#x155;" horiz-adv-x="341" 
d="M48 0l55 529l86 33l-12 -102c41 43 94 95 161 95c8 0 9 0 18 -1l-14 -89c-6 1 -13 1 -22 1c-51 0 -102 -23 -148 -53l-26 -252v-161h-98zM254 615c-12 7 -25 16 -32 29c47 54 96 113 142 175c24 -16 32 -25 52 -50c-56 -57 -89 -92 -162 -154z" />
    <glyph glyph-name="Rcommaaccent" unicode="&#x156;" horiz-adv-x="653" 
d="M643 -23c-9 0 -18 0 -26 1c-120 20 -167 82 -226 191l-65 127h-107l-13 -193c-1 -16 5 -27 22 -32l98 -26c-1 -15 -3 -31 -7 -45h-306c-1 13 -2 27 -1 40l58 18c28 8 43 38 45 64l36 482c2 17 -3 36 -22 42l-71 26c-1 12 2 24 6 35h292c126 0 210 -55 210 -190
c0 -98 -54 -173 -141 -206c17 -30 36 -66 58 -102c49 -81 91 -155 168 -191zM222 356h98c78 0 143 27 143 141c0 142 -112 146 -223 150zM351 -307l-47 10c18 83 30 147 30 236l81 -5c-4 -88 -28 -175 -64 -241z" />
    <glyph glyph-name="rcommaaccent" unicode="&#x157;" horiz-adv-x="341" 
d="M48 0l55 529l86 33l-12 -102c41 43 94 95 161 95c8 0 9 0 18 -1l-14 -89c-6 1 -13 1 -22 1c-51 0 -102 -23 -148 -53l-26 -252v-161h-98zM62 -307l-47 10c18 83 30 147 30 236l81 -5c-4 -88 -28 -175 -64 -241z" />
    <glyph glyph-name="Rcaron" unicode="&#x158;" horiz-adv-x="653" 
d="M643 -23c-9 0 -18 0 -26 1c-120 20 -167 82 -226 191l-65 127h-107l-13 -193c-1 -16 5 -27 22 -32l98 -26c-1 -15 -3 -31 -7 -45h-306c-1 13 -2 27 -1 40l58 18c28 8 43 38 45 64l36 482c2 17 -3 36 -22 42l-71 26c-1 12 2 24 6 35h292c126 0 210 -55 210 -190
c0 -98 -54 -173 -141 -206c17 -30 36 -66 58 -102c49 -81 91 -155 168 -191zM222 356h98c78 0 143 27 143 141c0 142 -112 146 -223 150zM323 741c-32 39 -97 77 -161 110c10 18 21 35 36 51c64 -28 96 -47 137 -78c38 26 84 50 145 72c10 -14 14 -24 18 -37
c-79 -43 -123 -74 -175 -118z" />
    <glyph glyph-name="rcaron" unicode="&#x159;" horiz-adv-x="341" 
d="M48 0l55 529l86 33l-12 -102c41 43 94 95 161 95c8 0 9 0 18 -1l-14 -89c-6 1 -13 1 -22 1c-51 0 -102 -23 -148 -53l-26 -252v-161h-98zM240 616c-49 67 -82 102 -133 157c18 20 35 36 52 46c30 -32 62 -66 95 -111c43 37 82 65 140 102c12 -12 16 -20 25 -39
c-74 -46 -114 -84 -179 -155z" />
    <glyph glyph-name="Sacute" unicode="&#x15a;" horiz-adv-x="496" 
d="M214 -13c-69 0 -156 19 -214 59c12 47 27 93 41 139h25c19 -84 71 -138 159 -138c60 0 131 35 131 106c0 120 -267 193 -267 385c0 102 106 175 201 175c57 0 126 -8 176 -38c-4 -42 -10 -85 -19 -126h-32c-17 63 -73 101 -137 101c-51 0 -108 -27 -108 -85
c0 -144 278 -219 278 -397c0 -129 -126 -181 -234 -181zM234 740c-6 11 -10 25 -13 39c61 23 127 51 192 84c12 -16 20 -36 28 -63c-59 -24 -145 -47 -207 -60z" />
    <glyph glyph-name="sacute" unicode="&#x15b;" horiz-adv-x="385" 
d="M141 -10c-47 0 -95 8 -138 26c7 38 12 54 29 87c65 -24 114 -37 187 -37c19 0 45 12 45 33c0 84 -197 193 -197 322c0 99 78 134 177 134c51 0 86 -8 124 -24c0 -45 -12 -67 -28 -89c-49 34 -87 55 -151 55c-23 0 -45 -19 -45 -38c0 -111 195 -200 195 -313
c0 -108 -103 -156 -198 -156zM233 615c-12 7 -25 16 -32 29c47 54 96 113 142 175c24 -16 32 -25 52 -50c-56 -57 -89 -92 -162 -154z" />
    <glyph glyph-name="Scircumflex" unicode="&#x15c;" horiz-adv-x="496" 
d="M214 -13c-69 0 -156 19 -214 59c12 47 27 93 41 139h25c19 -84 71 -138 159 -138c60 0 131 35 131 106c0 120 -267 193 -267 385c0 102 106 175 201 175c57 0 126 -8 176 -38c-4 -42 -10 -85 -19 -126h-32c-17 63 -73 101 -137 101c-51 0 -108 -27 -108 -85
c0 -144 278 -219 278 -397c0 -129 -126 -181 -234 -181zM442 733c-66 24 -100 46 -137 78c-33 -25 -81 -49 -145 -72c-10 14 -14 24 -18 37c94 52 126 74 175 118c32 -39 97 -77 161 -110c-10 -18 -21 -35 -36 -51z" />
    <glyph glyph-name="scircumflex" unicode="&#x15d;" horiz-adv-x="385" 
d="M141 -10c-47 0 -95 8 -138 26c7 38 12 54 29 87c65 -24 114 -37 187 -37c19 0 45 12 45 33c0 84 -197 193 -197 322c0 99 78 134 177 134c51 0 86 -8 124 -24c0 -45 -12 -67 -28 -89c-49 34 -87 55 -151 55c-23 0 -45 -19 -45 -38c0 -111 195 -200 195 -313
c0 -108 -103 -156 -198 -156zM347 607c-30 32 -62 66 -95 111c-43 -37 -82 -65 -140 -102c-12 12 -16 20 -25 39c74 46 114 84 179 155c49 -67 82 -102 133 -157c-18 -20 -35 -36 -52 -46z" />
    <glyph glyph-name="Scedilla" unicode="&#x15e;" horiz-adv-x="496" 
d="M154 -267c-22 0 -44 5 -64 15l15 46c20 -4 40 -6 60 -6c17 0 61 1 61 26c0 37 -73 50 -73 84c0 35 22 63 51 89c-67 2 -149 21 -204 59c12 47 27 93 41 139h25c19 -84 71 -138 159 -138c60 0 131 35 131 106c0 120 -267 193 -267 385c0 102 106 175 201 175
c57 0 126 -8 176 -38c-4 -42 -10 -85 -19 -126h-32c-17 63 -73 101 -137 101c-51 0 -108 -27 -108 -85c0 -144 278 -219 278 -397c0 -112 -94 -166 -190 -178c-25 -23 -47 -47 -47 -54c0 -20 94 -38 94 -97c0 -61 -100 -106 -151 -106z" />
    <glyph glyph-name="scedilla" unicode="&#x15f;" horiz-adv-x="385" 
d="M77 -267c-22 0 -44 5 -64 15l15 46c20 -4 40 -6 60 -6c17 0 61 1 61 26c0 37 -73 50 -73 84c0 36 24 65 54 92c-43 1 -87 10 -127 26c7 38 12 54 29 87c65 -24 114 -37 187 -37c19 0 45 12 45 33c0 84 -197 193 -197 322c0 99 78 134 177 134c51 0 86 -8 124 -24
c0 -45 -12 -67 -28 -89c-49 34 -87 55 -151 55c-23 0 -45 -19 -45 -38c0 -111 195 -200 195 -313c0 -91 -74 -140 -154 -152c-26 -25 -51 -51 -51 -58c0 -20 94 -38 94 -97c0 -61 -100 -106 -151 -106z" />
    <glyph glyph-name="Scaron" unicode="&#x160;" horiz-adv-x="496" 
d="M214 -13c-69 0 -156 19 -214 59c12 47 27 93 41 139h25c19 -84 71 -138 159 -138c60 0 131 35 131 106c0 120 -267 193 -267 385c0 102 106 175 201 175c57 0 126 -8 176 -38c-4 -42 -10 -85 -19 -126h-32c-17 63 -73 101 -137 101c-51 0 -108 -27 -108 -85
c0 -144 278 -219 278 -397c0 -129 -126 -181 -234 -181zM289 741c-32 39 -97 77 -161 110c10 18 21 35 36 51c64 -28 96 -47 137 -78c38 26 84 50 145 72c10 -14 14 -24 18 -37c-79 -43 -123 -74 -175 -118z" />
    <glyph glyph-name="scaron" unicode="&#x161;" horiz-adv-x="385" 
d="M141 -10c-47 0 -95 8 -138 26c7 38 12 54 29 87c65 -24 114 -37 187 -37c19 0 45 12 45 33c0 84 -197 193 -197 322c0 99 78 134 177 134c51 0 86 -8 124 -24c0 -45 -12 -67 -28 -89c-49 34 -87 55 -151 55c-23 0 -45 -19 -45 -38c0 -111 195 -200 195 -313
c0 -108 -103 -156 -198 -156zM218 616c-49 67 -82 102 -133 157c18 20 35 36 52 46c30 -32 62 -66 95 -111c43 37 82 65 140 102c12 -12 16 -20 25 -39c-74 -46 -114 -84 -179 -155z" />
    <glyph glyph-name="Tcommaaccent" unicode="&#x162;" horiz-adv-x="632" 
d="M133 0c-1 14 -1 33 0 45l74 19c25 6 45 43 47 71l39 509h-120c-50 0 -77 -43 -93 -101c-10 -1 -28 -1 -40 2l11 162h579l-11 -162c-13 -3 -26 -3 -41 -2c-8 62 -33 101 -89 101h-110l-34 -543c-1 -23 1 -34 21 -39l92 -17c-1 -11 -3 -34 -7 -45h-318zM257 -307l-47 10
c18 83 30 147 30 236l81 -5c-4 -88 -28 -175 -64 -241z" />
    <glyph glyph-name="tcommaaccent" unicode="&#x163;" horiz-adv-x="372" 
d="M166 -10c-53 0 -95 7 -95 80c0 9 1 19 2 30l44 387h-83l7 59h86l12 110l82 41l-15 -151h151l-7 -59h-152l-41 -405c16 -6 25 -9 42 -9c36 0 78 18 121 34l20 -41c-66 -49 -112 -76 -174 -76zM134 -307l-47 10c18 83 30 147 30 236l81 -5c-4 -88 -28 -175 -64 -241z" />
    <glyph glyph-name="tcommaaccent" unicode="&#x21b;" horiz-adv-x="372" 
d="M166 -10c-53 0 -95 7 -95 80c0 9 1 19 2 30l44 387h-83l7 59h86l12 110l82 41l-15 -151h151l-7 -59h-152l-41 -405c16 -6 25 -9 42 -9c36 0 78 18 121 34l20 -41c-66 -49 -112 -76 -174 -76zM134 -307l-47 10c18 83 30 147 30 236l81 -5c-4 -88 -28 -175 -64 -241z" />
    <glyph glyph-name="Tcaron" unicode="&#x164;" horiz-adv-x="632" 
d="M133 0c-1 14 -1 33 0 45l74 19c25 6 45 43 47 71l39 509h-120c-50 0 -77 -43 -93 -101c-10 -1 -28 -1 -40 2l11 162h579l-11 -162c-13 -3 -26 -3 -41 -2c-8 62 -33 101 -89 101h-110l-34 -543c-1 -23 1 -34 21 -39l92 -17c-1 -11 -3 -34 -7 -45h-318zM340 741
c-32 39 -97 77 -161 110c10 18 21 35 36 51c64 -28 96 -47 137 -78c38 26 84 50 145 72c10 -14 14 -24 18 -37c-79 -43 -123 -74 -175 -118z" />
    <glyph glyph-name="tcaron" unicode="&#x165;" horiz-adv-x="421" 
d="M166 -10c-53 0 -95 7 -95 80c0 9 1 19 2 30l44 387h-83l7 59h86l12 110l82 41l-15 -151h151l-7 -59h-152l-41 -405c16 -6 25 -9 42 -9c36 0 78 18 121 34l20 -41c-66 -49 -112 -76 -174 -76zM335 632l-47 10c18 83 30 147 30 236l81 -5c-4 -88 -28 -175 -64 -241z" />
    <glyph glyph-name="Tbar" unicode="&#x166;" horiz-adv-x="632" 
d="M133 0c-1 14 -1 33 0 45l74 19c25 6 45 43 47 71l14 191h-126l4 62h127l20 256h-120c-50 0 -77 -43 -93 -101c-10 -1 -28 -1 -40 2l11 162h579l-11 -162c-13 -3 -26 -3 -41 -2c-8 62 -33 101 -89 101h-110l-16 -256h124l-4 -62h-124l-14 -225c-1 -23 1 -34 21 -39l92 -17
c-1 -11 -3 -34 -7 -45h-318z" />
    <glyph glyph-name="tbar" unicode="&#x167;" horiz-adv-x="372" 
d="M166 -10c-53 0 -95 7 -95 80c0 9 1 19 2 30l20 175h-54l7 62h54l17 150h-79l7 59h82l12 110l82 41l-15 -151h155l-7 -59h-156l-15 -150h154l-7 -62h-154l-19 -193c16 -6 25 -9 42 -9c36 0 78 18 121 34l20 -41c-66 -49 -112 -76 -174 -76z" />
    <glyph glyph-name="Utilde" unicode="&#x168;" horiz-adv-x="768" 
d="M344 -13c-128 0 -234 43 -234 217c0 11 0 23 1 35l24 356c2 22 -8 47 -27 54l-59 21c0 9 2 27 6 38h278c1 -14 0 -30 -2 -43l-66 -11c-21 -4 -29 -15 -30 -34l-26 -374c-11 -159 68 -194 170 -194c111 0 175 46 186 218l20 317c1 25 -3 57 -50 71l-40 12c0 12 2 26 3 38
h264c1 -14 0 -28 -1 -40l-59 -16c-15 -4 -30 -11 -32 -42l-24 -343c-14 -214 -151 -280 -302 -280zM494 752c-27 0 -88 36 -114 36c-21 0 -64 -15 -103 -33l-22 33c51 33 114 76 141 76c37 0 105 -39 129 -39c16 0 28 11 46 26l29 -30c-31 -31 -76 -69 -106 -69z" />
    <glyph glyph-name="utilde" unicode="&#x169;" horiz-adv-x="531" 
d="M117 -13c-41 0 -73 20 -66 103l40 437l84 33l-41 -490s10 -5 20 -5c48 0 165 100 187 123l37 339l85 33l-54 -479h90v-20c-35 -36 -79 -71 -128 -71c-27 0 -42 13 -42 40c0 6 0 14 1 24l7 79c-56 -75 -120 -146 -220 -146zM370 655c-27 0 -88 36 -114 36
c-21 0 -64 -15 -103 -33l-22 33c51 33 114 76 141 76c37 0 105 -39 129 -39c16 0 28 11 46 26l29 -30c-31 -31 -76 -69 -106 -69z" />
    <glyph glyph-name="Umacron" unicode="&#x16a;" horiz-adv-x="768" 
d="M344 -13c-128 0 -234 43 -234 217c0 11 0 23 1 35l24 356c2 22 -8 47 -27 54l-59 21c0 9 2 27 6 38h278c1 -14 0 -30 -2 -43l-66 -11c-21 -4 -29 -15 -30 -34l-26 -374c-11 -159 68 -194 170 -194c111 0 175 46 186 218l20 317c1 25 -3 57 -50 71l-40 12c0 12 2 26 3 38
h264c1 -14 0 -28 -1 -40l-59 -16c-15 -4 -30 -11 -32 -42l-24 -343c-14 -214 -151 -280 -302 -280zM274 775l4 69h298l-4 -69h-298z" />
    <glyph glyph-name="umacron" unicode="&#x16b;" horiz-adv-x="531" 
d="M117 -13c-41 0 -73 20 -66 103l40 437l84 33l-41 -490s10 -5 20 -5c48 0 165 100 187 123l37 339l85 33l-54 -479h90v-20c-35 -36 -79 -71 -128 -71c-27 0 -42 13 -42 40c0 6 0 14 1 24l7 79c-56 -75 -120 -146 -220 -146zM146 685l8 69h298l-8 -69h-298z" />
    <glyph glyph-name="Ubreve" unicode="&#x16c;" horiz-adv-x="768" 
d="M344 -13c-128 0 -234 43 -234 217c0 11 0 23 1 35l24 356c2 22 -8 47 -27 54l-59 21c0 9 2 27 6 38h278c1 -14 0 -30 -2 -43l-66 -11c-21 -4 -29 -15 -30 -34l-26 -374c-11 -159 68 -194 170 -194c111 0 175 46 186 218l20 317c1 25 -3 57 -50 71l-40 12c0 12 2 26 3 38
h264c1 -14 0 -28 -1 -40l-59 -16c-15 -4 -30 -11 -32 -42l-24 -343c-14 -214 -151 -280 -302 -280zM420 757c-91 0 -136 46 -164 84l54 51c20 -27 63 -66 124 -66c73 0 120 47 129 58l28 -27c-7 -12 -63 -100 -171 -100z" />
    <glyph glyph-name="ubreve" unicode="&#x16d;" horiz-adv-x="531" 
d="M117 -13c-41 0 -73 20 -66 103l40 437l84 33l-41 -490s10 -5 20 -5c48 0 165 100 187 123l37 339l85 33l-54 -479h90v-20c-35 -36 -79 -71 -128 -71c-27 0 -42 13 -42 40c0 6 0 14 1 24l7 79c-56 -75 -120 -146 -220 -146zM304 636c-91 0 -136 46 -164 84l54 51
c20 -27 63 -66 124 -66c73 0 120 47 129 58l28 -27c-7 -12 -63 -100 -171 -100z" />
    <glyph glyph-name="Uring" unicode="&#x16e;" horiz-adv-x="768" 
d="M344 -13c-128 0 -234 43 -234 217c0 11 0 23 1 35l24 356c2 22 -8 47 -27 54l-59 21c0 9 2 27 6 38h242c1 -14 0 -30 -2 -43l-30 -11c-21 -4 -29 -15 -30 -34l-26 -374c-11 -159 68 -194 170 -194c111 0 177 46 186 218l20 377c-34 -22 -62 -29 -106 -29
c-67 0 -119 45 -119 104c0 93 67 181 164 181c84 0 148 -26 148 -120c0 -8 1 -7 0 -15h-77l1 52c-30 20 -55 24 -92 24c-58 0 -67 -86 -66 -128v-16c24 -18 36 -21 71 -21c25 0 65 14 117 34l46 -4l-26 -442c-14 -214 -151 -280 -302 -280z" />
    <glyph glyph-name="uring" unicode="&#x16f;" horiz-adv-x="531" 
d="M117 -13c-41 0 -73 20 -66 103l40 437l84 33l-41 -490s10 -5 20 -5c48 0 165 100 187 123l37 339l85 33l-54 -479h90v-20c-35 -36 -79 -71 -128 -71c-27 0 -42 13 -42 40c0 6 0 14 1 24l7 79c-56 -75 -120 -146 -220 -146zM292 611c-64 0 -107 19 -107 89
c0 69 63 138 121 138c66 0 118 -19 118 -92l-67 -24c6 23 3 47 3 57c-14 11 -34 16 -58 16c-46 0 -55 -62 -55 -95c0 -8 0 -16 1 -23c13 -11 30 -17 55 -17c27 0 53 13 66 27c22 0 46 -3 46 -3c-23 -30 -70 -73 -123 -73z" />
    <glyph glyph-name="Uhungarumlaut" unicode="&#x170;" horiz-adv-x="768" 
d="M344 -13c-128 0 -234 43 -234 217c0 11 0 23 1 35l24 356c2 22 -8 47 -27 54l-59 21c0 9 2 27 6 38h278c1 -14 0 -30 -2 -43l-66 -11c-21 -4 -29 -15 -30 -34l-26 -374c-11 -159 68 -194 170 -194c111 0 175 46 186 218l20 317c1 25 -3 57 -50 71l-40 12c0 12 2 26 3 38
h264c1 -14 0 -28 -1 -40l-59 -16c-15 -4 -30 -11 -32 -42l-24 -343c-14 -214 -151 -280 -302 -280zM304 747c-8 9 -16 22 -22 35c54 37 112 79 167 127c15 -13 28 -31 42 -55c-52 -37 -130 -80 -187 -107zM502 747c-6 11 -10 25 -13 39c61 23 127 51 192 84
c12 -16 20 -36 28 -63c-59 -24 -145 -47 -207 -60z" />
    <glyph glyph-name="uhungarumlaut" unicode="&#x171;" horiz-adv-x="531" 
d="M117 -13c-41 0 -73 20 -66 103l40 437l84 33l-41 -490s10 -5 20 -5c48 0 165 100 187 123l37 339l85 33l-54 -479h90v-20c-35 -36 -79 -71 -128 -71c-27 0 -42 13 -42 40c0 6 0 14 1 24l7 79c-56 -75 -120 -146 -220 -146zM218 613c-13 5 -27 12 -36 24
c38 60 77 126 113 194c26 -12 35 -19 59 -41c-47 -65 -74 -105 -136 -177zM405 615c-12 7 -25 16 -32 29c47 54 96 113 142 175c24 -16 32 -25 52 -50c-56 -57 -89 -92 -162 -154z" />
    <glyph glyph-name="Uogonek" unicode="&#x172;" horiz-adv-x="768" 
d="M400 -251c-58 0 -122 10 -122 77c0 54 58 116 118 164c-17 -2 -35 -3 -52 -3c-128 0 -234 43 -234 217c0 11 0 23 1 35l24 356c2 22 -8 47 -27 54l-59 21c0 9 2 27 6 38h278c1 -14 0 -30 -2 -43l-66 -11c-21 -4 -29 -15 -30 -34l-26 -374c-11 -159 68 -194 170 -194
c111 0 175 46 186 218l20 317c1 25 -3 57 -50 71l-40 12c0 12 2 26 3 38h264c1 -14 0 -28 -1 -40l-59 -16c-15 -4 -30 -11 -32 -42l-24 -343c-9 -137 -68 -213 -149 -250c-50 -37 -138 -127 -139 -182c13 -15 42 -28 72 -28c17 0 24 1 42 5l13 -47c-27 -11 -54 -16 -85 -16z
" />
    <glyph glyph-name="uogonek" unicode="&#x173;" horiz-adv-x="531" 
d="M349 -251c-58 0 -122 10 -122 77c0 55 61 119 123 168c-14 5 -21 17 -21 36c0 6 0 14 1 24l7 79c-56 -75 -120 -146 -220 -146c-41 0 -73 20 -66 103l40 437l84 33l-41 -490s10 -5 20 -5c48 0 165 100 187 123l37 339l85 33l-54 -479h90v-20c-65 -53 -183 -143 -192 -226
c13 -15 42 -28 72 -28c17 0 24 1 42 5l13 -47c-27 -11 -54 -16 -85 -16z" />
    <glyph glyph-name="Wcircumflex" unicode="&#x174;" horiz-adv-x="993" 
d="M639 -20l-138 464l-219 -444l-64 -17l-130 616c-8 35 -34 51 -59 74c0 9 2 24 6 34h226c1 -12 2 -24 0 -36l-50 -17c-27 -9 -33 -45 -27 -75l90 -460l202 411l-22 88c-9 31 -33 51 -38 55c-1 12 -1 21 1 34h191c1 -12 2 -24 0 -36l-22 -16c-23 -15 -37 -44 -29 -74
l132 -467l170 463c3 10 6 22 6 34c0 15 -4 28 -16 34l-54 27c0 9 2 25 6 35h204c1 -12 2 -24 0 -36l-17 -16c-19 -17 -40 -40 -52 -71l-228 -586zM655 733c-66 24 -100 46 -137 78c-33 -25 -81 -49 -145 -72c-10 14 -14 24 -18 37c94 52 126 74 175 118
c32 -39 97 -77 161 -110c-10 -18 -21 -35 -36 -51z" />
    <glyph glyph-name="wcircumflex" unicode="&#x175;" horiz-adv-x="763" 
d="M118 -32l-40 431l-47 126c22 15 63 29 125 30l28 -503l188 349l-18 133l87 23l56 -502l138 305c7 14 14 28 17 44v142h109c0 -8 1 -23 0 -29c0 -53 -26 -111 -52 -164l-172 -350l-110 -29l-41 318l-162 -290zM536 607c-30 32 -62 66 -95 111c-43 -37 -82 -65 -140 -102
c-12 12 -16 20 -25 39c74 46 114 84 179 155c49 -67 82 -102 133 -157c-18 -20 -35 -36 -52 -46z" />
    <glyph glyph-name="Ycircumflex" unicode="&#x176;" horiz-adv-x="623" 
d="M132 0c-1 14 -2 34 0 46l70 18c25 6 40 31 43 59l16 185l-166 289c-13 21 -26 36 -39 48c-11 11 -23 19 -33 28c0 11 0 24 4 34h237c1 -13 1 -24 0 -36l-50 -19c-13 -4 -18 -18 -18 -33c0 -12 3 -26 10 -39l113 -211l150 216c14 20 8 51 -10 60l-52 27c0 11 1 25 4 35
h233c1 -12 1 -23 1 -35c-33 -13 -58 -26 -83 -61l-215 -303l-11 -187c-2 -23 7 -51 27 -57l81 -22c-1 -10 -4 -31 -7 -42h-305zM491 733c-66 24 -100 46 -137 78c-33 -25 -81 -49 -145 -72c-10 14 -14 24 -18 37c94 52 126 74 175 118c32 -39 97 -77 161 -110
c-10 -18 -21 -35 -36 -51z" />
    <glyph glyph-name="ycircumflex" unicode="&#x177;" horiz-adv-x="458" 
d="M68 -220l108 220h-52l-47 390l-57 127c34 18 81 38 123 38l63 -515l135 320c5 11 7 20 9 33v153h100c1 -7 1 -23 1 -29c0 -63 -23 -113 -45 -165l-247 -572h-91zM374 607c-30 32 -62 66 -95 111c-43 -37 -82 -65 -140 -102c-12 12 -16 20 -25 39c74 46 114 84 179 155
c49 -67 82 -102 133 -157c-18 -20 -35 -36 -52 -46z" />
    <glyph glyph-name="Ydieresis" unicode="&#x178;" horiz-adv-x="623" 
d="M132 0c-1 14 -2 34 0 46l70 18c25 6 40 31 43 59l16 185l-166 289c-13 21 -26 36 -39 48c-11 11 -23 19 -33 28c0 11 0 24 4 34h237c1 -13 1 -24 0 -36l-50 -19c-13 -4 -18 -18 -18 -33c0 -12 3 -26 10 -39l113 -211l150 216c14 20 8 51 -10 60l-52 27c0 11 1 25 4 35
h233c1 -12 1 -23 1 -35c-33 -13 -58 -26 -83 -61l-215 -303l-11 -187c-2 -23 7 -51 27 -57l81 -22c-1 -10 -4 -31 -7 -42h-305zM244 741c-13 0 -57 50 -55 62c1 14 56 62 68 62c13 0 58 -49 57 -62c-2 -10 -55 -62 -70 -62zM462 741c-13 0 -57 50 -55 62c1 14 56 62 68 62
c13 0 58 -49 57 -62c-2 -10 -55 -62 -70 -62z" />
    <glyph glyph-name="Zacute" unicode="&#x179;" horiz-adv-x="575" 
d="M20 0l-13 55l416 593l-216 -10c-49 -7 -76 -42 -91 -100c-13 -1 -30 0 -41 2l11 167h449l13 -42l-424 -598l235 9c73 3 116 56 135 101l39 -6l-30 -171h-483zM246 740c-6 11 -10 25 -13 39c61 23 127 51 192 84c12 -16 20 -36 28 -63c-59 -24 -145 -47 -207 -60z" />
    <glyph glyph-name="zacute" unicode="&#x17a;" horiz-adv-x="418" 
d="M23 0l-21 44l324 433l-5 5c-79 -17 -199 -33 -262 -33c0 35 5 75 21 103c53 -6 110 -9 166 -9c55 0 109 2 156 3l16 -38l-317 -429l4 -6c82 10 219 23 284 27c1 -5 1 -11 1 -19c0 -27 -5 -66 -10 -81h-357zM247 615c-12 7 -25 16 -32 29c47 54 96 113 142 175
c24 -16 32 -25 52 -50c-56 -57 -89 -92 -162 -154z" />
    <glyph glyph-name="Zdotaccent" unicode="&#x17b;" horiz-adv-x="575" 
d="M20 0l-13 55l416 593l-216 -10c-49 -7 -76 -42 -91 -100c-13 -1 -30 0 -41 2l11 167h449l13 -42l-424 -598l235 9c73 3 116 56 135 101l39 -6l-30 -171h-483zM326 757c-13 0 -60 53 -58 66c1 15 59 65 71 65c13 0 61 -51 60 -65c-2 -11 -58 -66 -73 -66z" />
    <glyph glyph-name="zdotaccent" unicode="&#x17c;" horiz-adv-x="418" 
d="M23 0l-21 44l324 433l-5 5c-79 -17 -199 -33 -262 -33c0 35 5 75 21 103c53 -6 110 -9 166 -9c55 0 109 2 156 3l16 -38l-317 -429l4 -6c82 10 219 23 284 27c1 -5 1 -11 1 -19c0 -27 -5 -66 -10 -81h-357zM252 650c-14 0 -60 53 -58 66c1 14 58 65 71 65s61 -51 60 -65
c-2 -11 -58 -66 -73 -66z" />
    <glyph glyph-name="Zcaron" unicode="&#x17d;" horiz-adv-x="575" 
d="M20 0l-13 55l416 593l-216 -10c-49 -7 -76 -42 -91 -100c-13 -1 -30 0 -41 2l11 167h449l13 -42l-424 -598l235 9c73 3 116 56 135 101l39 -6l-30 -171h-483zM320 741c-32 39 -97 77 -161 110c10 18 21 35 36 51c64 -28 96 -47 137 -78c38 26 84 50 145 72
c10 -14 14 -24 18 -37c-79 -43 -123 -74 -175 -118z" />
    <glyph glyph-name="zcaron" unicode="&#x17e;" horiz-adv-x="418" 
d="M23 0l-21 44l324 433l-5 5c-79 -17 -199 -33 -262 -33c0 35 5 75 21 103c53 -6 110 -9 166 -9c55 0 109 2 156 3l16 -38l-317 -429l4 -6c82 10 219 23 284 27c1 -5 1 -11 1 -19c0 -27 -5 -66 -10 -81h-357zM248 616c-49 67 -82 102 -133 157c18 20 35 36 52 46
c30 -32 62 -66 95 -111c43 37 82 65 140 102c12 -12 16 -20 25 -39c-74 -46 -114 -84 -179 -155z" />
    <glyph glyph-name="longs" unicode="&#x17f;" horiz-adv-x="327" 
d="M-54 -224c-34 0 -78 8 -102 27c2 24 19 70 32 88c29 -22 71 -55 103 -55c43 0 74 45 83 126l45 614c11 113 89 190 218 190c34 0 78 -8 102 -27c0 -25 -16 -74 -31 -92c-30 27 -74 59 -110 59c-65 0 -88 -46 -97 -126l-45 -614c-11 -113 -94 -190 -198 -190z" />
    <glyph glyph-name="uni018F" unicode="&#x18f;" horiz-adv-x="726" 
d="M338 -11c-193 0 -293 121 -293 351v23h545c0 177 -65 287 -217 287c-115 0 -179 -43 -226 -72c-1 -1 -36 61 -36 61c69 41 148 81 285 81c186 0 294 -116 294 -321c0 -213 -123 -410 -352 -410zM357 59c128 0 206 125 227 248h-436c4 -127 65 -248 209 -248z" />
    <glyph glyph-name="florin" unicode="&#x192;" horiz-adv-x="412" 
d="M29 -96c-34 0 -61 12 -90 27c2 24 19 70 32 88c28 -29 59 -55 91 -55c31 0 64 40 68 98l14 195h-93l3 52h93l10 129c6 93 86 167 191 167c34 0 61 -4 85 -23c0 -25 -14 -68 -29 -86c-30 27 -59 49 -95 49c-54 0 -65 -35 -70 -103l-10 -133h126l-3 -52h-127l-13 -191
c-6 -84 -90 -162 -183 -162z" />
    <glyph glyph-name="uni01D3" unicode="&#x1d3;" horiz-adv-x="768" 
d="M344 -13c-128 0 -234 43 -234 217c0 11 0 23 1 35l24 356c2 22 -8 47 -27 54l-59 21c0 9 2 27 6 38h278c1 -14 0 -30 -2 -43l-66 -11c-21 -4 -29 -15 -30 -34l-26 -374c-11 -159 68 -194 170 -194c111 0 175 46 186 218l20 317c1 25 -3 57 -50 71l-40 12c0 12 2 26 3 38
h264c1 -14 0 -28 -1 -40l-59 -16c-15 -4 -30 -11 -32 -42l-24 -343c-14 -214 -151 -280 -302 -280zM413 741c-32 39 -97 77 -161 110c10 18 21 35 36 51c64 -28 96 -47 137 -78c38 26 84 50 145 72c10 -14 14 -24 18 -37c-79 -43 -123 -74 -175 -118z" />
    <glyph glyph-name="uni01D4" unicode="&#x1d4;" horiz-adv-x="531" 
d="M117 -13c-41 0 -73 20 -66 103l40 437l84 33l-41 -490s10 -5 20 -5c48 0 165 100 187 123l37 339l85 33l-54 -479h90v-20c-35 -36 -79 -71 -128 -71c-27 0 -42 13 -42 40c0 6 0 14 1 24l7 79c-56 -75 -120 -146 -220 -146zM284 616c-49 67 -82 102 -133 157
c18 20 35 36 52 46c30 -32 62 -66 95 -111c43 37 82 65 140 102c12 -12 16 -20 25 -39c-74 -46 -114 -84 -179 -155z" />
    <glyph glyph-name="AEmacron" unicode="&#x1e2;" horiz-adv-x="820" 
d="M468 775l4 69h298l-4 -69h-298zM-76 0c0 14 0 31 4 44c42 32 60 50 82 80l431 583h365l-11 -160c-13 -4 -41 -1 -51 -1c-8 60 -24 88 -74 90l-131 6l-18 -254l221 5l-5 -76l-221 5l-13 -256l138 3c74 2 117 58 135 103l44 -7l-30 -165h-493c-2 15 -2 36 -1 49l70 18
c24 6 41 30 43 58l15 198h-186l-136 -193c-6 -8 -10 -16 -10 -24c0 -19 13 -36 39 -46l42 -16c0 -10 -1 -31 -7 -44h-242zM284 388h145l13 172l5 65h-5l-52 -86z" />
    <glyph glyph-name="aemacron" unicode="&#x1e3;" horiz-adv-x="687" 
d="M119 -13c-66 0 -77 34 -77 95c0 178 64 474 297 474c46 0 72 -12 100 -25c31 17 69 27 114 27c74 0 120 -32 120 -87c0 -131 -91 -199 -293 -234c-4 -53 -4 -108 -4 -152c15 -7 38 -14 53 -14c41 0 121 31 169 53l21 -44c-56 -50 -142 -93 -222 -93c-61 0 -92 19 -104 88
c-47 -45 -105 -88 -174 -88zM148 68c41 0 98 41 140 74v17c0 100 20 225 79 308c-23 12 -51 18 -76 18c-121 0 -167 -316 -167 -413c7 -3 17 -4 24 -4zM385 290c163 33 191 71 191 155c0 31 -20 49 -70 49c-76 0 -107 -97 -121 -204zM273 685l8 69h298l-8 -69h-298z" />
    <glyph glyph-name="AEacute" unicode="&#x1fc;" horiz-adv-x="820" 
d="M529 740c-6 11 -10 25 -13 39c61 23 127 51 192 84c12 -16 20 -36 28 -63c-59 -24 -145 -47 -207 -60zM-76 0c0 14 0 31 4 44c42 32 60 50 82 80l431 583h365l-11 -160c-13 -4 -41 -1 -51 -1c-8 60 -24 88 -74 90l-131 6l-18 -254l221 5l-5 -76l-221 5l-13 -256l138 3
c74 2 117 58 135 103l44 -7l-30 -165h-493c-2 15 -2 36 -1 49l70 18c24 6 41 30 43 58l15 198h-186l-136 -193c-6 -8 -10 -16 -10 -24c0 -19 13 -36 39 -46l42 -16c0 -10 -1 -31 -7 -44h-242zM284 388h145l13 172l5 65h-5l-52 -86z" />
    <glyph glyph-name="aeacute" unicode="&#x1fd;" horiz-adv-x="687" 
d="M119 -13c-66 0 -77 34 -77 95c0 178 64 474 297 474c46 0 72 -12 100 -25c31 17 69 27 114 27c74 0 120 -32 120 -87c0 -131 -91 -199 -293 -234c-4 -53 -4 -108 -4 -152c15 -7 38 -14 53 -14c41 0 121 31 169 53l21 -44c-56 -50 -142 -93 -222 -93c-61 0 -92 19 -104 88
c-47 -45 -105 -88 -174 -88zM148 68c41 0 98 41 140 74v17c0 100 20 225 79 308c-23 12 -51 18 -76 18c-121 0 -167 -316 -167 -413c7 -3 17 -4 24 -4zM385 290c163 33 191 71 191 155c0 31 -20 49 -70 49c-76 0 -107 -97 -121 -204zM431 615c-12 7 -25 16 -32 29
c47 54 96 113 142 175c24 -16 32 -25 52 -50c-56 -57 -89 -92 -162 -154z" />
    <glyph glyph-name="Oslashacute" unicode="&#x1fe;" horiz-adv-x="726" 
d="M14 -22l-36 34l112 109c-30 52 -45 117 -45 190c0 213 137 409 361 409c82 0 147 -27 194 -73l85 95l36 -33l-89 -100c38 -56 58 -129 58 -210c0 -213 -123 -410 -352 -410c-97 0 -170 34 -219 91zM357 59c151 0 233 174 233 314c0 56 -9 112 -30 159l-370 -382
c32 -54 85 -91 167 -91zM168 199l367 378c-33 45 -83 74 -152 74c-158 0 -236 -170 -236 -314c0 -48 7 -96 21 -138zM313 740c-6 11 -10 25 -13 39c61 23 127 51 192 84c12 -16 20 -36 28 -63c-59 -24 -145 -47 -207 -60z" />
    <glyph glyph-name="oslashacute" unicode="&#x1ff;" horiz-adv-x="488" 
d="M-7 -36l-38 32l90 97c-4 20 -5 43 -5 69c0 148 59 393 224 393c64 0 110 -17 140 -48l63 78l37 -32l-71 -89c11 -26 17 -58 17 -93c0 -148 -74 -383 -244 -383c-76 0 -119 15 -142 51zM243 61c83 0 119 195 119 317l-232 -267l1 -18c24 -23 61 -32 112 -32zM129 188
l227 262c-4 3 -8 6 -13 9c-26 15 -69 27 -94 27c-94 0 -117 -176 -120 -298zM279 615c-12 7 -25 16 -32 29c47 54 96 113 142 175c24 -16 32 -25 52 -50c-56 -57 -89 -92 -162 -154z" />
    <glyph glyph-name="Scommaaccent" unicode="&#x218;" horiz-adv-x="496" 
d="M214 -13c-69 0 -156 19 -214 59c12 47 27 93 41 139h25c19 -84 71 -138 159 -138c60 0 131 35 131 106c0 120 -267 193 -267 385c0 102 106 175 201 175c57 0 126 -8 176 -38c-4 -42 -10 -85 -19 -126h-32c-17 63 -73 101 -137 101c-51 0 -108 -27 -108 -85
c0 -144 278 -219 278 -397c0 -129 -126 -181 -234 -181zM205 -307l-47 10c18 83 30 147 30 236l81 -5c-4 -88 -28 -175 -64 -241z" />
    <glyph glyph-name="scommaaccent" unicode="&#x219;" horiz-adv-x="385" 
d="M141 -10c-47 0 -95 8 -138 26c7 38 12 54 29 87c65 -24 114 -37 187 -37c19 0 45 12 45 33c0 84 -197 193 -197 322c0 99 78 134 177 134c51 0 86 -8 124 -24c0 -45 -12 -67 -28 -89c-49 34 -87 55 -151 55c-23 0 -45 -19 -45 -38c0 -111 195 -200 195 -313
c0 -108 -103 -156 -198 -156zM137 -307l-47 10c18 83 30 147 30 236l81 -5c-4 -88 -28 -175 -64 -241z" />
    <glyph glyph-name="uni021A" unicode="&#x21a;" horiz-adv-x="632" 
d="M133 0c-1 14 -1 33 0 45l74 19c25 6 45 43 47 71l39 509h-120c-50 0 -77 -43 -93 -101c-10 -1 -28 -1 -40 2l11 162h579l-11 -162c-13 -3 -26 -3 -41 -2c-8 62 -33 101 -89 101h-110l-34 -543c-1 -23 1 -34 21 -39l92 -17c-1 -11 -3 -34 -7 -45h-318zM260 -307l-47 10
c18 83 30 147 30 236l81 -5c-4 -88 -28 -175 -64 -241z" />
    <glyph glyph-name="Ymacron" unicode="&#x232;" horiz-adv-x="623" 
d="M132 0c-1 14 -2 34 0 46l70 18c25 6 40 31 43 59l16 185l-166 289c-13 21 -26 36 -39 48c-11 11 -23 19 -33 28c0 11 0 24 4 34h237c1 -13 1 -24 0 -36l-50 -19c-13 -4 -18 -18 -18 -33c0 -12 3 -26 10 -39l113 -211l150 216c14 20 8 51 -10 60l-52 27c0 11 1 25 4 35
h233c1 -12 1 -23 1 -35c-33 -13 -58 -26 -83 -61l-215 -303l-11 -187c-2 -23 7 -51 27 -57l81 -22c-1 -10 -4 -31 -7 -42h-305zM198 775l4 69h298l-4 -69h-298z" />
    <glyph glyph-name="ymacron" unicode="&#x233;" horiz-adv-x="458" 
d="M68 -220l108 220h-52l-47 390l-57 127c34 18 81 38 123 38l63 -515l135 320c5 11 7 20 9 33v153h100c1 -7 1 -23 1 -29c0 -63 -23 -113 -45 -165l-247 -572h-91zM113 685l8 69h298l-8 -69h-298z" />
    <glyph glyph-name="schwa" unicode="&#x259;" horiz-adv-x="434" 
d="M290 564c80 0 109 -34 109 -172c0 -168 -48 -399 -265 -399c-74 0 -120 32 -120 87c0 131 91 199 293 234c4 53 4 108 4 152c-15 7 -38 14 -53 14c-41 0 -121 -31 -169 -53l-21 44c56 50 142 93 222 93zM302 261c-163 -33 -191 -71 -191 -155c0 -31 20 -49 70 -49
c76 0 107 97 121 204z" />
    <glyph glyph-name="h.superior" unicode="&#x2b0;" horiz-adv-x="402" 
d="M273 406c-18 0 -30 10 -30 29c0 13 2 19 4 39l31 235c-4 2 -11 3 -16 3c-38 0 -113 -34 -129 -48l-16 -142v-108h-80l48 460h-61v38c25 6 78 14 107 14c18 0 25 -6 25 -21v-5l-20 -197c40 42 121 83 166 83c34 0 47 -12 47 -43c0 -8 0 -16 -2 -25l-31 -244h55v-17
c-24 -22 -58 -51 -98 -51z" />
    <glyph glyph-name="j.superior" unicode="&#x2b2;" horiz-adv-x="206" 
d="M-39 266c-21 0 -37 4 -51 9c2 22 8 41 16 61c12 -3 29 -7 44 -7c53 0 68 15 73 76l29 363l73 23l-32 -372c-6 -77 -79 -153 -152 -153zM111 848c-10 0 -45 42 -45 51c0 10 46 50 56 50s45 -40 45 -49s-45 -52 -56 -52z" />
    <glyph glyph-name="r.superior" unicode="&#x2b3;" horiz-adv-x="268" 
d="M35 414l36 356l74 22l-8 -72c24 30 81 67 125 67c6 0 9 0 14 -1l-10 -72c-5 2 -13 2 -19 2c-33 0 -85 -11 -114 -30l-17 -164v-108h-81z" />
    <glyph glyph-name="w.superior" unicode="&#x2b7;" horiz-adv-x="544" 
d="M80 394l-28 286l-33 85c21 12 50 22 97 22l21 -326l120 215l-13 96l73 17l36 -326l92 188l10 32v98h85c2 -7 2 -17 2 -23c0 -36 -17 -72 -36 -111l-124 -232l-86 -19l-28 198l-105 -179z" />
    <glyph glyph-name="y.superior" unicode="&#x2b8;" horiz-adv-x="341" 
d="M43 265l77 149h-35l-35 264l-36 85c21 11 66 24 95 24l40 -331l99 196c4 7 5 13 7 22v107h82c1 -4 1 -15 1 -19c0 -42 -15 -76 -30 -112l-194 -385h-71z" />
    <glyph glyph-name="circumflex" unicode="&#x2c6;" horiz-adv-x="540" 
d="M415 607c-30 32 -62 66 -95 111c-43 -37 -82 -65 -140 -102c-12 12 -16 20 -25 39c74 46 114 84 179 155c49 -67 82 -102 133 -157c-18 -20 -35 -36 -52 -46z" />
    <glyph glyph-name="caron" unicode="&#x2c7;" horiz-adv-x="540" 
d="M266 616c-49 67 -82 102 -133 157c18 20 35 36 52 46c30 -32 62 -66 95 -111c43 37 82 65 140 102c12 -12 16 -20 25 -39c-74 -46 -114 -84 -179 -155z" />
    <glyph glyph-name="breve" unicode="&#x2d8;" horiz-adv-x="500" 
d="M258 636c-91 0 -136 46 -164 84l54 51c20 -27 63 -66 124 -66c73 0 120 47 129 58l28 -27c-7 -12 -63 -100 -171 -100z" />
    <glyph glyph-name="dotaccent" unicode="&#x2d9;" horiz-adv-x="348" 
d="M167 650c-14 0 -60 53 -58 66c1 14 58 65 71 65s61 -51 60 -65c-2 -11 -58 -66 -73 -66z" />
    <glyph glyph-name="ring" unicode="&#x2da;" horiz-adv-x="444" 
d="M230 662c40 0 43 58 42 85v21c-23 15 -40 18 -69 18c-43 0 -50 -64 -49 -95v-12c18 -14 51 -17 76 -17zM210 615c-60 0 -116 13 -116 79c0 71 50 138 124 138c64 0 112 -20 112 -92c0 -67 -52 -125 -120 -125z" />
    <glyph glyph-name="ogonek" unicode="&#x2db;" horiz-adv-x="565" 
d="M383 -251c-58 0 -122 10 -122 77c0 83 141 189 212 226l19 -27c-47 -31 -150 -131 -151 -190c13 -15 42 -28 72 -28c17 0 24 1 42 5l13 -47c-27 -11 -54 -16 -85 -16z" />
    <glyph glyph-name="tilde" unicode="&#x2dc;" horiz-adv-x="540" 
d="M340 655c-27 0 -88 36 -114 36c-21 0 -64 -15 -103 -33l-22 33c51 33 114 76 141 76c37 0 105 -39 129 -39c16 0 28 11 46 26l29 -30c-31 -31 -76 -69 -106 -69z" />
    <glyph glyph-name="hungarumlaut" unicode="&#x2dd;" horiz-adv-x="568" 
d="M154 613c-13 5 -27 12 -36 24c38 60 77 126 113 194c26 -12 35 -19 59 -41c-47 -65 -74 -105 -136 -177zM341 615c-12 7 -25 16 -32 29c47 54 96 113 142 175c24 -16 32 -25 52 -50c-56 -57 -89 -92 -162 -154z" />
    <glyph glyph-name="x.superior" unicode="&#x2e3;" horiz-adv-x="351" 
d="M263 407c-21 0 -31 10 -39 28l-60 113l-76 -79v-55h-80l-11 25l146 151l-52 100l-56 61c23 23 55 35 85 35l74 -141l65 67v69h81v-13c0 -24 -17 -53 -34 -71l-90 -94l71 -133h53l4 -22c-22 -19 -47 -41 -81 -41z" />
    <glyph glyph-name="uni0374" unicode="&#x374;" horiz-adv-x="226" 
d="M109 489l-32 27c30 43 47 82 55 114c-15 23 -30 61 -30 91c0 29 64 42 90 42c9 -10 27 -52 27 -68c0 -49 -29 -137 -110 -206z" />
    <glyph glyph-name="uni0375" unicode="&#x375;" horiz-adv-x="226" 
d="M37 -182l-31 27c30 43 46 82 55 114c-15 23 -35 61 -35 91c0 29 78 42 105 42c9 -10 27 -52 27 -68c0 -49 -40 -137 -121 -206z" />
    <glyph glyph-name="uni037E" unicode="&#x37e;" horiz-adv-x="280" 
d="M54 -180l-31 27c30 42 46 82 55 114c-15 23 -35 60 -35 91c0 28 78 42 105 42c9 -10 27 -52 27 -68c0 -50 -40 -137 -121 -206zM146 406c-15 0 -68 62 -68 78c0 14 70 76 84 76c15 0 70 -60 70 -76c0 -12 -72 -78 -86 -78z" />
    <glyph glyph-name="tonos" unicode="&#x384;" horiz-adv-x="500" 
d="M326 603l-43 31c51 70 95 144 132 222l76 -49c-48 -73 -105 -140 -165 -204z" />
    <glyph glyph-name="dieresistonos" unicode="&#x385;" horiz-adv-x="500" 
d="M49 635c-13 0 -56 48 -56 62c0 12 57 62 69 62c13 0 56 -48 56 -62c0 -12 -57 -62 -69 -62zM317 635c-13 0 -56 48 -56 62c0 12 57 62 69 62c13 0 56 -48 56 -62c0 -12 -57 -62 -69 -62zM160 623l-43 31c51 70 95 144 132 222l76 -49c-48 -73 -105 -140 -165 -204z" />
    <glyph glyph-name="Alphatonos" unicode="&#x386;" horiz-adv-x="655" 
d="M-40 0c-1 14 -1 28 0 40c30 23 70 58 83 81l314 579l91 25l94 -592c9 -52 42 -66 83 -93c-1 -9 -3 -29 -7 -40h-261c-1 14 -1 27 0 40l60 20c25 8 34 39 34 66c0 11 -2 24 -4 38l-18 124h-229l-83 -158c-4 -8 -5 -16 -5 -23c0 -22 19 -42 49 -52l49 -15
c-1 -10 0 -30 -4 -40h-246zM232 349h189l-30 211l-6 69h-11l-31 -67zM22 472l-43 31c51 70 95 144 132 222l76 -49c-48 -73 -105 -140 -165 -204z" />
    <glyph glyph-name="anoteleia" unicode="&#x387;" horiz-adv-x="277" 
d="M173 282c-16 0 -69 60 -67 75c2 16 69 74 83 74s68 -59 66 -74c-1 -12 -65 -75 -82 -75z" />
    <glyph glyph-name="Epsilontonos" unicode="&#x388;" horiz-adv-x="591" 
d="M-140 472l-43 31c51 70 95 144 132 222l76 -49c-48 -73 -105 -140 -165 -204zM10 0c-2 14 -2 33 0 45l68 18c25 6 42 31 44 60l36 481c2 16 -5 36 -22 42l-72 26c0 8 2 23 7 35h474l-11 -157c-13 -2 -36 -1 -47 0c-8 59 -25 89 -76 91l-164 6l-18 -261l252 5l-5 -72
l-251 5l-13 -263l170 4c74 1 118 57 137 103l39 -6l-29 -162h-519z" />
    <glyph glyph-name="Etatonos" unicode="&#x389;" horiz-adv-x="783" 
d="M-140 472l-43 31c51 70 95 144 132 222l76 -49c-48 -73 -105 -140 -165 -204zM8 0c-2 14 -2 28 -1 40l59 21c30 11 48 53 50 83l32 438c4 43 -8 62 -32 69l-65 19c1 10 3 27 7 37h267c2 -14 2 -29 1 -41l-55 -13c-29 -7 -34 -16 -36 -43l-15 -224h355l12 186
c2 25 -8 70 -37 81l-46 17c1 12 0 26 4 37h257c-1 -13 -1 -28 -5 -41l-52 -12c-22 -5 -31 -12 -32 -41l-32 -503c-2 -24 4 -39 18 -42l81 -19c-1 -11 -4 -38 -7 -49h-283c-2 14 -2 32 0 44l41 11c45 13 60 67 63 97l13 172h-355l-11 -213c-1 -25 4 -35 22 -40l92 -25
c-1 -10 -4 -35 -7 -46h-303z" />
    <glyph glyph-name="Iotatonos" unicode="&#x38a;" horiz-adv-x="336" 
d="M-140 472l-43 31c51 70 95 144 132 222l76 -49c-48 -73 -105 -140 -165 -204zM12 0c-2 14 -2 28 -1 40l54 21c27 10 41 41 44 72l32 441c3 33 -5 66 -46 82l-37 14c-1 9 0 27 4 37h257c2 -14 1 -29 0 -41l-40 -8c-34 -8 -49 -48 -51 -81l-30 -476c-2 -25 2 -34 24 -39
l77 -16c-1 -11 -4 -35 -7 -46h-280z" />
    <glyph glyph-name="Omicrontonos" unicode="&#x38c;" horiz-adv-x="726" 
d="M-90 472l-43 31c51 70 95 144 132 222l76 -49c-48 -73 -105 -140 -165 -204zM338 -11c-193 0 -293 133 -293 322c0 213 137 409 361 409c186 0 284 -141 284 -321c0 -213 -123 -410 -352 -410zM357 59c151 0 233 174 233 314c0 138 -55 278 -207 278
c-158 0 -236 -170 -236 -314c0 -139 51 -278 210 -278z" />
    <glyph glyph-name="Upsilontonos" unicode="&#x38e;" horiz-adv-x="623" 
d="M-173 472l-43 31c51 70 95 144 132 222l76 -49c-48 -73 -105 -140 -165 -204zM671 710l-12 -56c-6 1 -14 1 -20 1c-151 0 -290 -351 -298 -475l-4 -63c-2 -22 10 -48 28 -53l83 -23c-1 -9 -3 -30 -7 -41h-309c-2 15 -3 32 -1 45l71 18c25 6 42 29 44 57l6 70
c13 156 -104 470 -215 470c-10 0 -20 -1 -27 -2l-6 30c27 17 79 31 111 31c92 0 170 -116 200 -383h5c73 287 200 383 299 382c19 0 45 -3 52 -8z" />
    <glyph glyph-name="Omegatonos" unicode="&#x38f;" horiz-adv-x="712" 
d="M-90 472l-43 31c51 70 95 144 132 222l76 -49c-48 -73 -105 -140 -165 -204zM23 0l8 86l181 -23l1 2c-103 44 -156 168 -156 273c0 195 126 382 340 382c192 0 280 -126 280 -308c0 -133 -75 -287 -198 -347l1 -2l188 23l-9 -86h-256l5 69c115 84 169 191 169 334
c0 129 -52 248 -192 248c-175 0 -228 -174 -228 -304c0 -121 50 -191 134 -270l-5 -77h-263z" />
    <glyph glyph-name="iotadieresistonos" unicode="&#x390;" horiz-adv-x="259" 
d="M49 635c-13 0 -56 48 -56 62c0 12 57 62 69 62c13 0 56 -48 56 -62c0 -12 -57 -62 -69 -62zM317 635c-13 0 -56 48 -56 62c0 12 57 62 69 62c13 0 56 -48 56 -62c0 -12 -57 -62 -69 -62zM160 623l-43 31c51 70 95 144 132 222l76 -49c-48 -73 -105 -140 -165 -204z
M91 -12c-28 0 -43 14 -43 40c0 19 5 51 7 69l43 432l83 34l-48 -483h86v-21c-35 -35 -80 -71 -128 -71z" />
    <glyph glyph-name="Alpha" unicode="&#x391;" horiz-adv-x="655" 
d="M-40 0c-1 14 -1 28 0 40c30 23 70 58 83 81l314 579l91 25l94 -592c9 -52 42 -66 83 -93c-1 -9 -3 -29 -7 -40h-261c-1 14 -1 27 0 40l60 20c25 8 34 39 34 66c0 11 -2 24 -4 38l-18 124h-229l-83 -158c-4 -8 -5 -16 -5 -23c0 -22 19 -42 49 -52l49 -15
c-1 -10 0 -30 -4 -40h-246zM232 349h189l-30 211l-6 69h-11l-31 -67z" />
    <glyph glyph-name="Beta" unicode="&#x392;" horiz-adv-x="628" 
d="M8 0c-2 14 0 29 1 44c13 3 23 5 35 8c39 9 73 23 76 71l36 481c2 16 -5 36 -23 42l-65 26c0 12 2 24 7 35h250c106 0 223 -29 223 -149c0 -68 -42 -132 -108 -171v-2c82 -20 136 -81 136 -158c0 -135 -128 -227 -271 -227h-297zM209 61h92c107 0 187 43 187 142
c0 76 -60 131 -149 133l-112 3zM230 394l79 3c101 3 140 56 140 144c0 80 -74 105 -136 108l-67 3z" />
    <glyph glyph-name="Gamma" unicode="&#x393;" horiz-adv-x="534" 
d="M20 0c-1 15 -2 28 -1 40l58 18c25 8 42 37 45 65l13 149l23 332c1 17 -3 35 -22 42l-72 26c0 8 2 23 7 35h474l-14 -194c-11 -3 -28 -1 -36 3c-5 61 -20 114 -95 119l-154 11l-24 -373l-9 -163c-1 -20 0 -32 21 -36l110 -23c-1 -11 -3 -40 -7 -51h-317z" />
    <glyph glyph-name="uni0394" unicode="&#x394;" horiz-adv-x="628" 
d="M-19 0c-1 14 -2 28 -1 40l359 659l85 26l139 -685c-1 -10 -2 -29 -6 -40h-576zM71 68l387 6l-81 484l-9 84h-7l-37 -82z" />
    <glyph glyph-name="Epsilon" unicode="&#x395;" horiz-adv-x="591" 
d="M10 0c-2 14 -2 33 0 45l68 18c25 6 42 31 44 60l36 481c2 16 -5 36 -22 42l-72 26c0 8 2 23 7 35h474l-11 -157c-13 -2 -36 -1 -47 0c-8 59 -25 89 -76 91l-164 6l-18 -261l252 5l-5 -72l-251 5l-13 -263l170 4c74 1 118 57 137 103l39 -6l-29 -162h-519z" />
    <glyph glyph-name="Zeta" unicode="&#x396;" horiz-adv-x="575" 
d="M20 0l-13 55l416 593l-216 -10c-49 -7 -76 -42 -91 -100c-13 -1 -30 0 -41 2l11 167h449l13 -42l-424 -598l235 9c73 3 116 56 135 101l39 -6l-30 -171h-483z" />
    <glyph glyph-name="Eta" unicode="&#x397;" horiz-adv-x="783" 
d="M8 0c-2 14 -2 28 -1 40l59 21c30 11 48 53 50 83l32 438c4 43 -8 62 -32 69l-65 19c1 10 3 27 7 37h267c2 -14 2 -29 1 -41l-55 -13c-29 -7 -34 -16 -36 -43l-15 -224h355l12 186c2 25 -8 70 -37 81l-46 17c1 12 0 26 4 37h257c-1 -13 -1 -28 -5 -41l-52 -12
c-22 -5 -31 -12 -32 -41l-32 -503c-2 -24 4 -39 18 -42l81 -19c-1 -11 -4 -38 -7 -49h-283c-2 14 -2 32 0 44l41 11c45 13 60 67 63 97l13 172h-355l-11 -213c-1 -25 4 -35 22 -40l92 -25c-1 -10 -4 -35 -7 -46h-303z" />
    <glyph glyph-name="Theta" unicode="&#x398;" horiz-adv-x="726" 
d="M510 319l-289 5l3 62l291 5zM338 -11c-193 0 -293 133 -293 322c0 213 137 409 361 409c186 0 284 -141 284 -321c0 -213 -123 -410 -352 -410zM357 59c151 0 233 174 233 314c0 138 -55 278 -207 278c-158 0 -236 -170 -236 -314c0 -139 51 -278 210 -278z" />
    <glyph glyph-name="Iota" unicode="&#x399;" horiz-adv-x="336" 
d="M12 0c-2 14 -2 28 -1 40l54 21c27 10 41 41 44 72l32 441c3 33 -5 66 -46 82l-37 14c-1 9 0 27 4 37h257c2 -14 1 -29 0 -41l-40 -8c-34 -8 -49 -48 -51 -81l-30 -476c-2 -25 2 -34 24 -39l77 -16c-1 -11 -4 -35 -7 -46h-280z" />
    <glyph glyph-name="Kappa" unicode="&#x39a;" horiz-adv-x="673" 
d="M4 0c-2 15 -3 31 -1 44l68 23c26 9 40 37 42 67l34 449c1 24 -6 54 -26 62l-58 21c-1 9 0 30 4 41h262c1 -15 3 -26 1 -39l-51 -19c-27 -10 -40 -44 -42 -71l-30 -470c-2 -25 4 -32 18 -36l63 -21c0 -9 -3 -40 -7 -51h-277zM657 -22c-20 0 -121 4 -168 64l-229 300l3 41
l197 205c14 15 23 27 24 38c0 13 -7 23 -18 27l-45 14c0 10 3 29 6 40h230l-3 -41l-306 -277l196 -257c47 -63 101 -90 127 -101z" />
    <glyph glyph-name="Lambda" unicode="&#x39b;" horiz-adv-x="609" 
d="M-50 0c-1 15 -2 28 -1 40c30 24 72 57 83 81l292 578l85 26l93 -592c8 -48 48 -74 83 -93c-1 -11 -3 -29 -7 -40h-261c-1 14 -1 27 0 40l60 20c28 9 37 48 33 79l-6 48l-48 372l-6 71h-7l-30 -70l-179 -373l-27 -57c-15 -32 3 -63 43 -75l49 -15c-1 -11 1 -29 -3 -40
h-246z" />
    <glyph glyph-name="Mu" unicode="&#x39c;" horiz-adv-x="964" 
d="M393 -20l-109 588h-11l-5 -52l-133 -408c-6 -18 -2 -32 11 -36l90 -29c-1 -10 -3 -32 -7 -43h-252c-2 14 -2 28 -1 40l36 18c30 14 50 49 60 80l147 452c8 24 -7 52 -27 59l-60 21c1 9 3 27 7 37h201l83 -394l27 -152h7l70 147l195 399h185c1 -12 3 -23 1 -35l-48 -16
c-26 -9 -44 -37 -43 -82l8 -458c0 -23 17 -44 33 -53l42 -21c0 -9 -3 -31 -6 -42h-254c-1 14 -2 28 0 40l43 13c45 13 44 75 45 113l1 348l1 56h-10l-269 -570z" />
    <glyph glyph-name="Nu" unicode="&#x39d;" horiz-adv-x="802" 
d="M576 -21l-351 614h-11l4 -83l-26 -399c-1 -24 0 -32 23 -40l81 -29c0 -10 -3 -31 -6 -42h-278c-2 14 -2 28 -1 40l58 18c33 10 53 54 55 86l30 451c1 23 -9 47 -27 54l-54 21c1 12 1 26 5 37h198l319 -547h11l-3 109l22 313c1 26 -12 59 -35 67l-59 21c1 9 3 27 6 37h258
c1 -11 2 -23 1 -35l-58 -16c-27 -8 -46 -42 -48 -72l-41 -583z" />
    <glyph glyph-name="Xi" unicode="&#x39e;" horiz-adv-x="615" 
d="M41 0l-6 174c13 6 27 8 41 7c14 -46 28 -103 101 -103l236 4c73 0 97 59 115 103c17 0 24 0 40 -7l-31 -178h-496zM107 531c-15 -3 -30 0 -42 3l13 173h502l-12 -169c-12 -3 -28 -6 -43 -3c-7 59 -28 100 -76 99l-262 -4c-48 -1 -65 -40 -80 -99zM480 320l-336 7l5 70
l337 7z" />
    <glyph glyph-name="Omicron" unicode="&#x39f;" horiz-adv-x="726" 
d="M338 -11c-193 0 -293 133 -293 322c0 213 137 409 361 409c186 0 284 -141 284 -321c0 -213 -123 -410 -352 -410zM357 59c151 0 233 174 233 314c0 138 -55 278 -207 278c-158 0 -236 -170 -236 -314c0 -139 51 -278 210 -278z" />
    <glyph glyph-name="Pi" unicode="&#x3a0;" horiz-adv-x="758" 
d="M8 0c-1 15 -4 27 -1 40l61 22c28 11 45 53 48 84l10 127l22 308c3 28 -2 60 -26 68l-71 21c1 9 3 26 7 37h682c-1 -16 -1 -29 -5 -41l-53 -12c-21 -5 -29 -15 -32 -43l-22 -338l-10 -161c-1 -24 4 -41 17 -44l82 -19c0 -7 -3 -40 -8 -49h-282c-1 15 -3 31 0 44l43 12
c44 14 58 68 61 98l9 119l26 369h-328l-25 -369l-9 -164c-1 -24 4 -33 20 -37l94 -26c-1 -9 -4 -35 -8 -46h-302z" />
    <glyph glyph-name="Rho" unicode="&#x3a1;" horiz-adv-x="566" 
d="M13 0c-1 13 -2 27 -1 40c20 6 39 11 58 18c28 8 43 38 45 64l36 482c2 17 -3 36 -22 42l-71 26c-1 12 2 24 6 35h292c126 0 210 -55 210 -190c0 -130 -96 -221 -230 -221c-15 0 -30 1 -46 3l6 56h24c77 0 143 28 143 142c0 142 -112 146 -223 150l-34 -544
c-1 -16 5 -27 22 -32l98 -26c-1 -15 -3 -31 -7 -45h-306z" />
    <glyph glyph-name="Sigma" unicode="&#x3a3;" horiz-adv-x="582" 
d="M20 0l-13 53l239 313l-182 296l14 45h477l-13 -167c-13 -3 -27 -4 -41 -2c-7 59 -30 97 -77 100l-237 9l155 -254l-240 -309l268 4c73 0 98 65 116 109c17 0 24 0 40 -7l-35 -190h-471z" />
    <glyph glyph-name="Tau" unicode="&#x3a4;" horiz-adv-x="632" 
d="M133 0c-1 14 -1 33 0 45l74 19c25 6 45 43 47 71l39 509h-120c-50 0 -77 -43 -93 -101c-10 -1 -28 -1 -40 2l11 162h579l-11 -162c-13 -3 -26 -3 -41 -2c-8 62 -33 101 -89 101h-110l-34 -543c-1 -23 1 -34 21 -39l92 -17c-1 -11 -3 -34 -7 -45h-318z" />
    <glyph glyph-name="Upsilon" unicode="&#x3a5;" horiz-adv-x="623" 
d="M671 710l-12 -56c-6 1 -14 1 -20 1c-151 0 -290 -351 -298 -475l-4 -63c-2 -22 10 -48 28 -53l83 -23c-1 -9 -3 -30 -7 -41h-309c-2 15 -3 32 -1 45l71 18c25 6 42 29 44 57l6 70c13 156 -104 470 -215 470c-10 0 -20 -1 -27 -2l-6 30c27 17 79 31 111 31
c92 0 170 -116 200 -383h5c73 287 200 383 299 382c19 0 45 -3 52 -8z" />
    <glyph glyph-name="Phi" unicode="&#x3a6;" horiz-adv-x="703" 
d="M192 0c-1 15 -4 28 -1 40l56 22c21 8 38 29 40 53c-132 0 -252 61 -252 209c0 159 124 273 287 278l1 14c1 13 -17 29 -41 38l-44 16c-1 9 1 26 4 37h258c1 -13 2 -28 -1 -41l-42 -9c-21 -4 -44 -26 -47 -47l-1 -6c132 0 259 -53 259 -206c0 -168 -125 -276 -290 -281
v-14c0 -31 5 -38 21 -41l80 -16c-1 -11 -3 -35 -7 -46h-280zM381 169c126 11 187 113 187 209c0 108 -55 174 -162 175zM291 168l29 384c-123 -11 -185 -108 -185 -207c0 -104 53 -173 156 -177z" />
    <glyph glyph-name="Chi" unicode="&#x3a7;" horiz-adv-x="697" 
d="M-11 0c-1 14 -2 28 0 40l37 18c36 16 66 49 93 79l194 220l-126 225c-21 38 -62 61 -97 84c-2 7 -1 30 2 41h240c1 -14 2 -29 0 -41l-41 -18c-15 -6 -19 -28 -5 -52l93 -164l141 158c15 17 18 47 1 55l-41 22c1 12 1 28 4 40h231c1 -13 -2 -27 -4 -40
c-41 -11 -95 -44 -124 -78l-179 -208l142 -249c28 -49 51 -62 105 -92c-1 -9 -3 -29 -6 -40h-251c-1 14 -2 28 0 40l42 23c11 6 16 15 16 26c0 9 -3 19 -9 29l-105 187l-153 -179c-8 -10 -12 -22 -12 -33c0 -12 4 -22 13 -26l55 -27c-1 -9 -3 -29 -6 -40h-250z" />
    <glyph glyph-name="Psi" unicode="&#x3a8;" horiz-adv-x="819" 
d="M265 0c-1 15 -4 28 -1 40l55 21c28 11 40 46 43 74l5 72c-148 5 -257 60 -257 225c0 56 11 113 11 166c0 17 -7 44 -26 51l-61 21c1 12 2 25 6 37h185c-17 -247 -18 -261 -18 -269c0 -108 59 -160 166 -165l21 316c0 43 -16 58 -45 71c-8 3 -16 7 -25 10c-1 13 0 26 4 37
h232c1 1 2 -24 0 -41l-29 -6c-35 -8 -47 -51 -50 -81l-19 -306c133 5 189 91 197 218l15 216h154c1 -15 0 -27 -1 -39l-50 -16c-21 -7 -29 -23 -30 -44l-9 -121c-12 -171 -110 -272 -281 -280c-3 -37 -6 -75 -6 -112c0 -19 4 -28 23 -32l79 -17c-1 -11 -3 -35 -7 -46h-281z
" />
    <glyph glyph-name="uni03A9" unicode="&#x3a9;" horiz-adv-x="712" 
d="M23 0l8 86l181 -23l1 2c-103 44 -156 168 -156 273c0 195 126 382 340 382c192 0 280 -126 280 -308c0 -133 -75 -287 -198 -347l1 -2l188 23l-9 -86h-256l5 69c115 84 169 191 169 334c0 129 -52 248 -192 248c-175 0 -228 -174 -228 -304c0 -121 50 -191 134 -270
l-5 -77h-263z" />
    <glyph glyph-name="Iotadieresis" unicode="&#x3aa;" horiz-adv-x="336" 
d="M84 741c-12 0 -57 50 -57 62c0 14 55 62 67 62s58 -50 58 -62c0 -10 -55 -62 -68 -62zM302 741c-12 0 -57 50 -57 62c0 14 55 62 67 62s58 -50 58 -62c0 -10 -55 -62 -68 -62zM12 0c-2 14 -2 28 -1 40l54 21c27 10 41 41 44 72l32 441c3 33 -5 66 -46 82l-37 14
c-1 9 0 27 4 37h257c2 -14 1 -29 0 -41l-40 -8c-34 -8 -49 -48 -51 -81l-30 -476c-2 -25 2 -34 24 -39l77 -16c-1 -11 -4 -35 -7 -46h-280z" />
    <glyph glyph-name="Upsilondieresis" unicode="&#x3ab;" horiz-adv-x="623" 
d="M671 710l-12 -56c-6 1 -14 1 -20 1c-151 0 -290 -351 -298 -475l-4 -63c-2 -22 10 -48 28 -53l83 -23c-1 -9 -3 -30 -7 -41h-309c-2 15 -3 32 -1 45l71 18c25 6 42 29 44 57l6 70c13 156 -104 470 -215 470c-10 0 -20 -1 -27 -2l-6 30c27 17 79 31 111 31
c92 0 170 -116 200 -383h5c73 287 200 383 299 382c19 0 45 -3 52 -8zM241 741c-12 0 -57 50 -57 62c0 14 55 62 67 62s58 -50 58 -62c0 -10 -55 -62 -68 -62zM459 741c-12 0 -57 50 -57 62c0 14 55 62 67 62s58 -50 58 -62c0 -10 -55 -62 -68 -62z" />
    <glyph glyph-name="alphatonos" unicode="&#x3ac;" horiz-adv-x="564" 
d="M108 -12c-63 0 -78 32 -78 92c0 263 100 473 246 473c61 0 92 -51 117 -158c19 45 37 96 54 151h99c-49 -104 -92 -189 -132 -259l28 -180c5 -34 14 -43 35 -43c12 0 27 3 47 5l11 -35c-28 -26 -71 -45 -110 -45c-27 0 -59 12 -62 58l-18 128
c-96 -143 -170 -187 -237 -187zM139 73c53 0 124 66 193 191c-23 146 -40 207 -63 228c-101 0 -154 -221 -154 -415c8 -3 16 -4 24 -4zM318 603l-43 31c51 70 95 144 132 222l76 -49c-48 -73 -105 -140 -165 -204z" />
    <glyph glyph-name="epsilontonos" unicode="&#x3ad;" horiz-adv-x="425" 
d="M171 -13c-81 0 -145 38 -145 114s45 159 110 194c-41 15 -68 52 -68 97c0 105 100 165 195 165c64 0 107 -9 144 -30c0 -24 -9 -57 -22 -78c-41 30 -83 48 -134 48c-67 0 -101 -34 -101 -101c0 -41 24 -56 61 -63c15 3 70 10 86 7c3 -9 4 -19 4 -28
c-1 -18 -7 -34 -15 -50c-15 -3 -80 1 -97 8c-49 -25 -82 -92 -73 -177c23 -17 53 -24 85 -24c66 0 138 27 177 57l25 -44c-67 -63 -157 -95 -232 -95zM276 603l-43 31c51 70 95 144 132 222l76 -49c-48 -73 -105 -140 -165 -204z" />
    <glyph glyph-name="etatonos" unicode="&#x3ae;" horiz-adv-x="504" 
d="M301 -220l79 673c-6 3 -14 4 -23 4c-54 0 -136 -49 -179 -81l-24 -198l2 -178h-97l51 482c-18 0 -42 -5 -69 -10l-7 46c41 17 113 37 157 37c4 -18 3 -50 -3 -96l-3 -22c48 48 140 116 210 116c47 0 66 -15 66 -63c0 -13 -2 -26 -59 -549v-161h-101zM286 603l-43 31
c51 70 95 144 132 222l76 -49c-48 -73 -105 -140 -165 -204z" />
    <glyph glyph-name="iotatonos" unicode="&#x3af;" horiz-adv-x="259" 
d="M91 -12c-28 0 -43 14 -43 40c0 19 5 51 7 69l43 432l83 34l-48 -483h86v-21c-35 -35 -80 -71 -128 -71zM138 603l-43 31c51 70 95 144 132 222l76 -49c-48 -73 -105 -140 -165 -204z" />
    <glyph glyph-name="upsilondieresistonos" unicode="&#x3b0;" horiz-adv-x="500" 
d="M149 635c-13 0 -56 48 -56 62c0 12 57 62 69 62c13 0 56 -48 56 -62c0 -12 -57 -62 -69 -62zM417 635c-13 0 -56 48 -56 62c0 12 57 62 69 62c13 0 56 -48 56 -62c0 -12 -57 -62 -69 -62zM260 623l-43 31c51 70 95 144 132 222l76 -49c-48 -73 -105 -140 -165 -204z
M228 -12c-113 0 -158 41 -158 150c0 35 28 344 28 344c-18 0 -43 -5 -70 -10l-7 46c41 17 113 37 157 37c1 -13 3 -29 3 -51c0 -13 -1 -27 -2 -45l-22 -259c-2 -21 -3 -42 -3 -63c0 -15 0 -30 3 -44c27 -27 70 -32 106 -32c84 0 109 219 109 281c0 71 -27 121 -79 168l78 52
c60 -47 89 -123 89 -198c0 -127 -67 -376 -232 -376z" />
    <glyph glyph-name="alpha" unicode="&#x3b1;" horiz-adv-x="564" 
d="M108 -12c-63 0 -78 32 -78 92c0 263 100 473 246 473c61 0 92 -51 117 -158c19 45 37 96 54 151h99c-49 -104 -92 -189 -132 -259l28 -180c5 -34 14 -43 35 -43c12 0 27 3 47 5l11 -35c-28 -26 -71 -45 -110 -45c-27 0 -59 12 -62 58l-18 128
c-96 -143 -170 -187 -237 -187zM139 73c53 0 124 66 193 191c-23 146 -40 207 -63 228c-101 0 -154 -221 -154 -415c8 -3 16 -4 24 -4z" />
    <glyph glyph-name="beta" unicode="&#x3b2;" horiz-adv-x="512" 
d="M234 -10c-119 0 -184 72 -184 264c0 388 132 513 286 513c73 0 129 -42 129 -114c0 -86 -44 -183 -123 -225c77 -11 127 -57 127 -134c0 -137 -77 -304 -235 -304zM272 62c86 0 109 142 109 230c0 16 -4 31 -5 47c-15 18 -80 38 -130 35l-4 56c107 29 145 121 145 224
l-1 25c-13 13 -63 28 -91 28c-78 0 -161 -141 -161 -393c0 -78 9 -185 9 -185c24 -44 65 -67 129 -67z" />
    <glyph glyph-name="gamma" unicode="&#x3b3;" horiz-adv-x="457" 
d="M75 -220l65 235l-62 386l-58 121c32 20 86 35 125 35l57 -466l133 269c5 11 6 20 9 33v153h105c1 -3 1 -8 1 -13v-13c0 -61 -23 -136 -41 -167l-193 -345l-29 -212z" />
    <glyph glyph-name="delta" unicode="&#x3b4;" horiz-adv-x="484" 
d="M206 -12c-134 0 -166 45 -166 174c0 128 48 300 196 327c-35 35 -98 96 -98 148c0 98 88 129 172 129c43 0 115 -13 178 -41c0 -33 -8 -62 -28 -89c-58 42 -138 74 -191 74c-32 0 -54 -12 -54 -41c0 -96 229 -210 229 -364c0 -117 -75 -317 -238 -317zM243 61
c90 0 114 193 114 266c-15 37 -37 68 -62 99l-30 33c-110 -32 -138 -193 -138 -292c0 -25 1 -49 4 -74c29 -27 73 -32 112 -32z" />
    <glyph glyph-name="epsilon" unicode="&#x3b5;" horiz-adv-x="425" 
d="M171 -13c-81 0 -145 38 -145 114s45 159 110 194c-41 15 -68 52 -68 97c0 105 100 165 195 165c64 0 107 -9 144 -30c0 -24 -9 -57 -22 -78c-41 30 -83 48 -134 48c-67 0 -101 -34 -101 -101c0 -41 24 -56 61 -63c15 3 70 10 86 7c3 -9 4 -19 4 -28
c-1 -18 -7 -34 -15 -50c-15 -3 -80 1 -97 8c-49 -25 -82 -92 -73 -177c23 -17 53 -24 85 -24c66 0 138 27 177 57l25 -44c-67 -63 -157 -95 -232 -95z" />
    <glyph glyph-name="zeta" unicode="&#x3b6;" horiz-adv-x="422" 
d="M293 -160l-37 24c27 48 54 104 53 164c-45 -20 -107 -40 -158 -40c-73 0 -111 24 -111 97c0 184 167 452 274 549h-73c-73 0 -124 43 -138 76c8 24 39 60 59 74c23 -44 59 -77 152 -77h111c3 -7 4 -15 4 -23c0 -11 -3 -23 -10 -34c-140 -115 -289 -358 -289 -534
c0 -24 0 -30 1 -35c15 -8 32 -9 48 -9c55 0 115 34 158 34c33 0 44 -24 44 -53c0 -66 -51 -160 -88 -213z" />
    <glyph glyph-name="eta" unicode="&#x3b7;" horiz-adv-x="504" 
d="M301 -220l79 673c-6 3 -14 4 -23 4c-54 0 -136 -49 -179 -81l-24 -198l2 -178h-97l51 482c-18 0 -42 -5 -69 -10l-7 46c41 17 113 37 157 37c4 -18 3 -50 -3 -96l-3 -22c48 48 140 116 210 116c47 0 66 -15 66 -63c0 -13 -2 -26 -59 -549v-161h-101z" />
    <glyph glyph-name="theta" unicode="&#x3b8;" horiz-adv-x="517" 
d="M230 -13c-100 0 -151 42 -151 143c0 11 1 23 2 34l14 158c-18 0 -43 -5 -70 -10l-7 46c41 17 114 37 158 37c4 -18 1 -48 -2 -96l-9 -129c-1 -12 -1 -22 -1 -33c0 -13 1 -27 3 -44c25 -27 57 -32 92 -32c100 0 129 293 133 405c-38 -12 -75 -21 -118 -21
c-70 0 -137 22 -137 107c0 108 74 214 185 214c132 0 160 -182 160 -283c0 -146 -57 -496 -252 -496zM307 513c29 0 59 4 86 9c-3 127 -29 185 -100 185c-60 0 -77 -72 -77 -125c0 -19 1 -37 6 -54c24 -11 54 -15 85 -15z" />
    <glyph glyph-name="iota" unicode="&#x3b9;" horiz-adv-x="259" 
d="M91 -12c-28 0 -43 14 -43 40c0 19 5 51 7 69l43 432l83 34l-48 -483h86v-21c-35 -35 -80 -71 -128 -71z" />
    <glyph glyph-name="kappa" unicode="&#x3ba;" horiz-adv-x="482" 
d="M416 -18c-92 55 -171 172 -220 273l-44 -54l-4 -43v-158h-98l52 482c-18 0 -43 -5 -70 -10l-7 46c41 17 113 37 157 37c4 -18 3 -50 -3 -96l-17 -160l83 111c73 99 119 145 223 145c12 0 26 -3 29 -4c0 -32 -6 -65 -17 -95c-23 7 -47 11 -71 11c-54 0 -89 -46 -118 -86
l-42 -58c51 -99 128 -200 222 -265c-11 -31 -30 -56 -55 -76z" />
    <glyph glyph-name="lambda" unicode="&#x3bb;" horiz-adv-x="440" 
d="M183 768c44 -17 74 -60 88 -147l86 -517c5 -32 14 -43 35 -43c12 0 27 2 47 5l11 -35c-28 -26 -72 -43 -111 -43c-27 0 -50 12 -57 58l-60 404l-142 -450h-93l200 530h21l-21 106c-7 34 -28 54 -54 62c-8 2 -16 4 -24 4l46 73c10 -2 19 -4 28 -7z" />
    <glyph glyph-name="uni03BC" unicode="&#x3bc;" horiz-adv-x="554" 
d="M100 -236c-26 23 -71 65 -71 149c0 14 1 30 4 47l35 221l32 346l84 33l-41 -487s14 -5 24 -5c60 0 161 101 183 123l37 336l85 33l-54 -479h90v-20c-35 -36 -79 -71 -128 -71c-27 0 -42 13 -42 40c0 6 0 15 1 24l8 85c-56 -74 -115 -149 -221 -149c-8 0 -15 0 -26 3
c-2 -73 44 -135 87 -185z" />
    <glyph glyph-name="nu" unicode="&#x3bd;" horiz-adv-x="459" 
d="M137 -26l-68 425l-49 123c25 16 73 33 117 33l65 -512c105 140 135 268 135 384v119h105c1 -7 1 -20 1 -26c0 -164 -56 -339 -198 -517z" />
    <glyph glyph-name="xi" unicode="&#x3be;" horiz-adv-x="412" 
d="M286 -160l-37 24c27 48 53 104 53 164c-45 -20 -100 -40 -151 -40c-91 0 -111 50 -111 131c0 117 38 236 137 308c-51 15 -77 65 -77 114c0 137 80 225 220 225c35 0 99 -6 128 -27c-1 -29 -13 -69 -32 -92c-31 23 -100 59 -139 59c-85 0 -92 -96 -92 -160
c0 -49 23 -68 70 -76c15 5 70 9 85 9c3 -8 4 -16 4 -25c0 -21 -7 -44 -20 -63c-17 0 -76 5 -92 12c-91 -35 -104 -169 -104 -253c0 -23 1 -46 3 -69c15 -8 32 -9 48 -9c55 0 109 34 151 34c33 0 44 -24 44 -53c0 -66 -51 -160 -88 -213z" />
    <glyph glyph-name="omicron" unicode="&#x3bf;" horiz-adv-x="480" 
d="M243 61c80 0 110 179 110 302c0 35 -3 66 -7 87c-21 19 -55 36 -107 36c-94 0 -112 -176 -112 -298c0 -41 2 -75 4 -95c24 -23 61 -32 112 -32zM206 -12c-114 0 -166 50 -166 164c0 148 49 403 214 403c131 0 186 -63 186 -174c0 -148 -64 -393 -234 -393z" />
    <glyph glyph-name="pi" unicode="&#x3c0;" horiz-adv-x="554" 
d="M373 -11c-26 0 -43 11 -43 39c0 23 5 46 7 69l38 366l-180 -11l-32 -293v-159h-97l51 448l-81 -5c0 31 6 77 17 103l486 1c1 -20 -1 -49 -5 -74l-79 -5l-40 -388h86v-21c-33 -34 -78 -70 -128 -70z" />
    <glyph glyph-name="rho" unicode="&#x3c1;" horiz-adv-x="480" 
d="M3 -220l57 504c13 118 73 271 214 271c115 0 166 -76 166 -184c0 -47 -6 -94 -18 -140c-27 -100 -96 -241 -216 -241c-33 0 -68 7 -96 26l-18 -236h-89zM227 57c98 0 124 246 124 318c0 25 -1 50 -6 75c-24 23 -56 38 -89 38c-93 0 -109 -130 -117 -206l-20 -186
c38 -27 59 -39 108 -39z" />
    <glyph glyph-name="sigma1" unicode="&#x3c2;" horiz-adv-x="419" 
d="M275 -161l-37 24c27 48 53 104 53 164c-45 -20 -96 -39 -147 -39c-98 0 -107 43 -107 127c0 167 40 440 254 440c41 0 82 -6 118 -27c-1 -29 -9 -59 -25 -84c-39 24 -90 40 -137 40c-111 0 -121 -256 -121 -336c0 -23 1 -46 3 -68c15 -8 32 -9 48 -9c55 0 99 34 142 34
c33 0 44 -24 44 -53c0 -66 -51 -160 -88 -213z" />
    <glyph glyph-name="sigma" unicode="&#x3c3;" horiz-adv-x="494" 
d="M207 -12c-148 0 -167 92 -167 165c0 177 73 404 236 404c101 0 213 -11 213 -11l-13 -85s-33 3 -74 6c22 -33 36 -71 36 -115c0 -112 -56 -364 -231 -364zM238 61c98 0 115 220 115 312c0 24 -1 62 -5 98c-32 2 -63 3 -91 3c-110 0 -130 -235 -130 -313
c0 -23 1 -45 5 -68c31 -27 67 -32 106 -32z" />
    <glyph glyph-name="tau" unicode="&#x3c4;" horiz-adv-x="431" 
d="M216 -12c-60 0 -94 17 -94 96c0 97 31 244 61 372l-163 -12c4 42 13 80 22 102h377c0 -18 0 -49 -5 -72l-161 -12l-39 -380c16 -7 25 -9 42 -9c36 0 78 15 121 34l20 -41c-58 -52 -118 -78 -181 -78z" />
    <glyph glyph-name="upsilon" unicode="&#x3c5;" horiz-adv-x="500" 
d="M228 -12c-113 0 -158 41 -158 150c0 35 28 344 28 344c-18 0 -43 -5 -70 -10l-7 46c41 17 113 37 157 37c1 -13 3 -29 3 -51c0 -13 -1 -27 -2 -45l-22 -259c-2 -21 -3 -42 -3 -63c0 -15 0 -30 3 -44c27 -27 70 -32 106 -32c84 0 109 219 109 281c0 71 -27 121 -79 168
l78 52c60 -47 89 -123 89 -198c0 -127 -67 -376 -232 -376z" />
    <glyph glyph-name="phi" unicode="&#x3c6;" horiz-adv-x="617" 
d="M213 -220l24 209c-140 3 -197 35 -197 173c0 127 61 336 189 389l29 -31c-97 -65 -129 -243 -129 -352c0 -14 -1 -29 -1 -43c0 -11 1 -21 2 -32c23 -15 65 -26 116 -29l33 279c11 93 49 212 166 212c112 0 132 -89 132 -186c0 -211 -92 -364 -259 -375l-20 -214h-85z
M324 62c147 8 164 152 164 335c0 31 -4 65 -17 93c-15 4 -30 6 -47 6c-56 0 -68 -74 -73 -143z" />
    <glyph glyph-name="chi" unicode="&#x3c7;" horiz-adv-x="423" 
d="M325 -230c-27 0 -44 16 -57 58l-78 261l-151 -309h-99l227 384l-75 240l-79 98c33 33 71 50 110 51l95 -299l106 198v94h92c1 -7 2 -19 2 -26c0 -19 -5 -53 -27 -90l-151 -248l96 -296c10 -30 17 -43 38 -43c12 0 31 2 51 5l11 -35c-28 -26 -72 -43 -111 -43z" />
    <glyph glyph-name="psi" unicode="&#x3c8;" horiz-adv-x="603" 
d="M212 -220l20 208c-112 1 -162 41 -162 150c0 55 28 344 28 344c-18 0 -43 -5 -70 -10l-7 46c41 17 112 37 156 37c1 -14 4 -31 4 -56c0 -11 -1 -25 -2 -40l-22 -259c-2 -21 -3 -42 -3 -63c0 -15 0 -30 3 -44c23 -23 53 -28 84 -31l70 685l62 15l-56 -703
c125 19 158 179 158 283c0 71 -19 120 -72 167l71 47c62 -49 89 -131 89 -207c0 -151 -86 -334 -250 -358l-16 -211h-85z" />
    <glyph glyph-name="omega" unicode="&#x3c9;" horiz-adv-x="632" 
d="M182 -12c-110 0 -142 53 -142 174c0 127 61 336 189 389l29 -31c-97 -65 -129 -243 -129 -352c0 -25 1 -50 3 -75c19 -15 42 -30 67 -30c48 0 74 51 87 91c-10 61 -12 105 -12 153v41c10 9 28 13 47 13c20 0 40 -5 49 -13c0 -52 -20 -146 -39 -194c5 -38 29 -90 74 -90
c80 0 98 160 98 219c0 80 -18 182 -79 237l61 31c78 -59 107 -165 107 -259c0 -113 -53 -304 -194 -304c-53 0 -82 50 -95 95c-24 -45 -65 -95 -121 -95z" />
    <glyph glyph-name="iotadieresis" unicode="&#x3ca;" horiz-adv-x="259" 
d="M65 635c-13 0 -56 48 -56 62c0 12 57 62 69 62c13 0 56 -48 56 -62c0 -12 -57 -62 -69 -62zM252 635c-13 0 -56 48 -56 62c0 12 57 62 69 62c13 0 56 -48 56 -62c0 -12 -57 -62 -69 -62zM91 -12c-28 0 -43 14 -43 40c0 19 5 51 7 69l43 432l83 34l-48 -483h86v-21
c-35 -35 -80 -71 -128 -71z" />
    <glyph glyph-name="upsilondieresis" unicode="&#x3cb;" horiz-adv-x="500" 
d="M175 635c-13 0 -56 48 -56 62c0 12 57 62 69 62c13 0 56 -48 56 -62c0 -12 -57 -62 -69 -62zM362 635c-13 0 -56 48 -56 62c0 12 57 62 69 62c13 0 56 -48 56 -62c0 -12 -57 -62 -69 -62zM228 -12c-113 0 -158 41 -158 150c0 35 28 344 28 344c-18 0 -43 -5 -70 -10
l-7 46c41 17 113 37 157 37c1 -13 3 -29 3 -51c0 -13 -1 -27 -2 -45l-22 -259c-2 -21 -3 -42 -3 -63c0 -15 0 -30 3 -44c27 -27 70 -32 106 -32c84 0 109 219 109 281c0 71 -27 121 -79 168l78 52c60 -47 89 -123 89 -198c0 -127 -67 -376 -232 -376z" />
    <glyph glyph-name="omicrontonos" unicode="&#x3cc;" horiz-adv-x="480" 
d="M243 61c80 0 110 179 110 302c0 35 -3 66 -7 87c-21 19 -55 36 -107 36c-94 0 -112 -176 -112 -298c0 -41 2 -75 4 -95c24 -23 61 -32 112 -32zM206 -12c-114 0 -166 50 -166 164c0 148 49 403 214 403c131 0 186 -63 186 -174c0 -148 -64 -393 -234 -393zM276 603
l-43 31c51 70 95 144 132 222l76 -49c-48 -73 -105 -140 -165 -204z" />
    <glyph glyph-name="upsilontonos" unicode="&#x3cd;" horiz-adv-x="500" 
d="M266 603l-43 31c51 70 95 144 132 222l76 -49c-48 -73 -105 -140 -165 -204zM228 -12c-113 0 -158 41 -158 150c0 35 28 344 28 344c-18 0 -43 -5 -70 -10l-7 46c41 17 113 37 157 37c1 -13 3 -29 3 -51c0 -13 -1 -27 -2 -45l-22 -259c-2 -21 -3 -42 -3 -63
c0 -15 0 -30 3 -44c27 -27 70 -32 106 -32c84 0 109 219 109 281c0 71 -27 121 -79 168l78 52c60 -47 89 -123 89 -198c0 -127 -67 -376 -232 -376z" />
    <glyph glyph-name="omegatonos" unicode="&#x3ce;" horiz-adv-x="632" 
d="M356 603l-43 31c51 70 95 144 132 222l76 -49c-48 -73 -105 -140 -165 -204zM182 -12c-110 0 -142 53 -142 174c0 127 61 336 189 389l29 -31c-97 -65 -129 -243 -129 -352c0 -25 1 -50 3 -75c19 -15 42 -30 67 -30c48 0 74 51 87 91c-10 61 -12 105 -12 153v41
c10 9 28 13 47 13c20 0 40 -5 49 -13c0 -52 -20 -146 -39 -194c5 -38 29 -90 74 -90c80 0 98 160 98 219c0 80 -18 182 -79 237l61 31c78 -59 107 -165 107 -259c0 -113 -53 -304 -194 -304c-53 0 -82 50 -95 95c-24 -45 -65 -95 -121 -95z" />
    <glyph glyph-name="beta.alt" unicode="&#x3d0;" horiz-adv-x="506" 
d="M17 -220l82 755c13 126 104 232 231 232c73 0 129 -42 129 -114c0 -86 -44 -183 -123 -225c77 -11 127 -57 127 -134c0 -137 -77 -304 -235 -304c-36 0 -70 5 -103 16l-11 -98v-128h-97zM267 66c99 0 108 138 108 226c0 16 -4 31 -5 47c-15 18 -80 38 -130 35l-4 56
c107 29 145 121 145 224l-1 25c-13 13 -63 28 -91 28c-78 0 -103 -104 -108 -165l-47 -445c51 -24 75 -31 133 -31z" />
    <glyph glyph-name="theta.alt" unicode="&#x3d1;" horiz-adv-x="517" 
d="M252 61c52 0 90 143 109 290l-218 5c-5 -59 -7 -118 -7 -168c0 -41 2 -75 4 -95c24 -23 61 -32 112 -32zM147 401l220 7c6 58 9 114 9 160c0 35 -3 66 -7 87c-21 19 -55 36 -107 36c-63 0 -98 -140 -115 -290zM215 -12c-114 0 -166 50 -166 164c0 293 63 608 228 608
c131 0 186 -63 186 -174c0 -262 -78 -598 -248 -598z" />
    <glyph glyph-name="phi.alt" unicode="&#x3d5;" horiz-adv-x="652" 
d="M229 -219l24 209c-136 7 -213 54 -213 176c0 241 91 377 277 392l23 188l68 16l-20 -203c143 -7 224 -57 224 -176c0 -242 -93 -372 -271 -391l-17 -211h-95zM346 53c124 11 178 106 178 297c0 35 -3 61 -8 82c-24 20 -65 50 -133 60zM260 58l50 435
c-130 -14 -186 -116 -186 -300c0 -27 -1 -56 4 -77c20 -19 71 -46 132 -58z" />
    <glyph glyph-name="uni03D7" unicode="&#x3d7;" horiz-adv-x="716" 
d="M355 -225c-237 0 -345 173 -345 363c0 151 69 314 195 408h60c-103 -80 -156 -225 -156 -363c0 -175 86 -337 269 -337c96 0 194 63 240 129c-89 59 -172 176 -223 279l-40 -49l-7 -47v-158h-98l59 546h83l-29 -246l102 137c53 71 122 118 194 118c11 0 22 -1 33 -3
c3 -31 -2 -72 -12 -96c-19 7 -39 12 -58 12c-42 0 -83 -20 -121 -73l-52 -72c62 -132 203 -255 263 -310c-55 -132 -206 -238 -357 -238z" />
    <glyph glyph-name="uni03D8" unicode="&#x3d8;" horiz-adv-x="726" 
d="M272 -221l28 212c-168 16 -255 144 -255 320c0 213 137 409 361 409c186 0 284 -141 284 -321c0 -197 -105 -380 -301 -407l-17 -213h-100zM357 59c151 0 233 174 233 314c0 138 -55 278 -207 278c-158 0 -236 -170 -236 -314c0 -139 51 -278 210 -278z" />
    <glyph glyph-name="uni03D9" unicode="&#x3d9;" horiz-adv-x="480" 
d="M139 -221l25 212c-85 11 -124 62 -124 161c0 148 49 403 214 403c131 0 186 -63 186 -174c0 -134 -52 -346 -187 -386l-14 -216h-100zM243 61c80 0 110 179 110 302c0 35 -3 66 -7 87c-21 19 -55 36 -107 36c-94 0 -112 -176 -112 -298c0 -41 2 -75 4 -95
c24 -23 61 -32 112 -32z" />
    <glyph glyph-name="uni03DA" unicode="&#x3da;" horiz-adv-x="513" 
d="M350 -148l-37 24c27 48 53 104 53 164c-46 -19 -136 -40 -188 -40c-122 0 -138 12 -138 144c0 142 90 402 256 402h117c51 0 71 33 95 71c0 0 26 -22 23 -65c-8 -64 -70 -107 -133 -107h-125c-119 0 -143 -235 -143 -332c0 -15 0 -19 1 -25c14 -2 28 -2 42 -2
c21 0 41 1 63 1c55 0 115 34 158 34c33 0 44 -24 44 -53c0 -66 -51 -163 -88 -216z" />
    <glyph glyph-name="uni03DB" unicode="&#x3db;" horiz-adv-x="513" 
d="M350 -148l-37 24c27 48 53 104 53 164c-46 -19 -136 -40 -188 -40c-122 0 -138 12 -138 144c0 142 90 402 256 402h117c51 0 71 33 95 71c0 0 26 -22 23 -65c-8 -64 -70 -107 -133 -107h-125c-119 0 -143 -235 -143 -332c0 -15 0 -19 1 -25c14 -2 28 -2 42 -2
c21 0 41 1 63 1c55 0 115 34 158 34c33 0 44 -24 44 -53c0 -66 -51 -163 -88 -216z" />
    <glyph glyph-name="uni03DC" unicode="&#x3dc;" horiz-adv-x="539" 
d="M573 624l-322 18l-19 -274l283 9l-6 -80l-282 5l-16 -302h-100l57 707h411z" />
    <glyph glyph-name="uni03DD" unicode="&#x3dd;" horiz-adv-x="439" 
d="M466 462l-221 18l-29 -274l183 9l-8 -80l-182 5l-34 -359h-100l89 764h311z" />
    <glyph glyph-name="uni03DE" unicode="&#x3de;" horiz-adv-x="454" 
d="M261 -28c-12 0 -50 56 -48 69l163 323l-305 -77l-19 25l147 319c-8 -5 -21 -14 -30 -14c-11 0 -48 56 -46 69c1 13 61 54 74 54c12 0 49 -56 48 -69c-1 -8 -7 -29 -11 -40l-88 -234l304 77l30 -33l-190 -347c14 -7 46 -56 45 -68c-1 -13 -61 -54 -74 -54z" />
    <glyph glyph-name="uni03DF" unicode="&#x3df;" horiz-adv-x="405" 
d="M437 499l-315 -568l-106 33l344 509l-263 -24l-19 25l122 233c-8 -5 -21 -14 -30 -14c-11 0 -48 56 -46 69c1 13 61 54 74 54c12 0 49 -56 48 -69c-1 -8 -15 -30 -19 -41l-64 -171l249 19z" />
    <glyph glyph-name="uni03E0" unicode="&#x3e0;" horiz-adv-x="744" 
d="M700 -77c-5 -51 -7 -67 -9 -84h-84l4 46c5 54 9 105 9 155c0 63 -6 125 -24 185l-315 -240l-31 38l330 248c-17 45 -42 87 -73 124l-335 -250l-28 38l330 246c-93 86 -216 123 -354 130c-18 1 -37 1 -55 1l4 37c34 4 59 8 84 8c382 0 551 -249 551 -588
c0 -31 -1 -62 -4 -94z" />
    <glyph glyph-name="uni03E1" unicode="&#x3e1;" horiz-adv-x="539" 
d="M349 -305l-43 15c59 138 95 253 93 388l-245 -92l-16 47l261 95c-2 50 -11 99 -28 145l-266 -96l-13 47l260 93c-65 128 -143 194 -288 245l15 35c275 -54 406 -242 406 -488c0 -25 -1 -51 -4 -78c-17 -162 -132 -356 -132 -356z" />
    <glyph glyph-name="uni03F0" unicode="&#x3f0;" horiz-adv-x="611" 
d="M98 -13c-57 5 -82 49 -76 72l101 74c25 81 48 185 48 251c0 58 -13 92 -67 92c-22 0 -41 -6 -71 -18l-16 46c36 27 79 51 135 51c62 0 100 -50 100 -109c0 -71 -27 -165 -54 -239l310 351c26 1 73 -10 76 -65l-92 -67c-22 -81 -51 -195 -51 -260c0 -58 7 -99 61 -99
c22 0 41 6 71 18l16 -46c-36 -27 -79 -51 -135 -51c-62 0 -94 57 -94 116c0 70 24 164 48 236z" />
    <glyph glyph-name="uni0400" unicode="&#x400;" horiz-adv-x="591" 
d="M10 0c-2 14 -2 33 0 45l68 18c25 6 42 31 44 60l36 481c2 16 -5 36 -22 42l-72 26c0 8 2 23 7 35h474l-11 -157c-13 -2 -36 -1 -47 0c-8 59 -25 89 -76 91l-164 6l-18 -261l252 5l-5 -72l-251 5l-13 -263l170 4c74 1 118 57 137 103l39 -6l-29 -162h-519zM430 740
c-62 13 -148 36 -207 60c8 27 16 47 28 63c65 -33 131 -61 192 -84c-3 -14 -7 -28 -13 -39z" />
    <glyph glyph-name="afii10023" unicode="&#x401;" horiz-adv-x="591" 
d="M226 741c-13 0 -57 50 -55 62c1 14 56 62 68 62c13 0 58 -49 57 -62c-2 -10 -55 -62 -70 -62zM444 741c-13 0 -57 50 -55 62c1 14 56 62 68 62c13 0 58 -49 57 -62c-2 -10 -55 -62 -70 -62zM10 0c-2 14 -2 33 0 45l68 18c25 6 42 31 44 60l36 481c2 16 -5 36 -22 42
l-72 26c0 8 2 23 7 35h474l-11 -157c-13 -2 -36 -1 -47 0c-8 59 -25 89 -76 91l-164 6l-18 -261l252 5l-5 -72l-251 5l-13 -263l170 4c74 1 118 57 137 103l39 -6l-29 -162h-519z" />
    <glyph glyph-name="afii10051" unicode="&#x402;" horiz-adv-x="723" 
d="M450 -220l-42 49c84 77 188 230 188 379c0 121 -59 155 -147 155c-41 0 -77 -7 -136 -36l-14 -226c-1 -23 1 -34 21 -39l92 -17c-1 -11 -3 -34 -7 -45h-318c-1 14 -1 33 0 45l74 19c25 6 45 43 47 71l39 509h-90c-50 0 -77 -43 -93 -101c-10 -1 -28 -1 -40 2l11 162h562
l-11 -162c-13 -3 -26 -3 -41 -2c-8 62 -33 101 -89 101h-123l-16 -248c48 19 88 42 180 42c121 0 200 -59 200 -214c0 -189 -177 -392 -247 -444z" />
    <glyph glyph-name="afii10052" unicode="&#x403;" horiz-adv-x="583" 
d="M20 0c-2 14 -2 28 -1 40l58 18c25 7 43 37 45 65l36 481c2 16 -5 36 -22 42l-72 26c0 8 2 23 7 35h484l-12 -169c-11 -1 -38 0 -45 3c-9 47 -20 89 -84 94l-168 12l-33 -537c-1 -19 0 -32 21 -36l110 -23c-1 -11 -4 -40 -7 -51h-317zM233 740c-6 11 -10 25 -13 39
c61 23 127 51 192 84c12 -16 20 -36 28 -63c-59 -24 -145 -47 -207 -60z" />
    <glyph glyph-name="afii10053" unicode="&#x404;" horiz-adv-x="616" 
d="M363 -13c-227 0 -316 123 -316 335c0 227 149 397 375 397c67 0 130 -15 182 -42l-11 -150h-36c-14 86 -69 128 -140 128c-164 0 -250 -114 -266 -262l312 5l-5 -76l-309 9c0 -162 59 -269 242 -269c51 0 103 12 148 31l20 -61c-56 -29 -133 -45 -196 -45z" />
    <glyph glyph-name="afii10054" unicode="&#x405;" horiz-adv-x="496" 
d="M214 -13c-69 0 -156 19 -214 59c12 47 27 93 41 139h25c19 -84 71 -138 159 -138c60 0 131 35 131 106c0 120 -267 193 -267 385c0 102 106 175 201 175c57 0 126 -8 176 -38c-4 -42 -10 -85 -19 -126h-32c-17 63 -73 101 -137 101c-51 0 -108 -27 -108 -85
c0 -144 278 -219 278 -397c0 -129 -126 -181 -234 -181z" />
    <glyph glyph-name="afii10055" unicode="&#x406;" horiz-adv-x="336" 
d="M12 0c-2 14 -2 28 -1 40l54 21c27 10 41 41 44 72l32 441c3 33 -5 66 -46 82l-37 14c-1 9 0 27 4 37h257c2 -14 1 -29 0 -41l-40 -8c-34 -8 -49 -48 -51 -81l-30 -476c-2 -25 2 -34 24 -39l77 -16c-1 -11 -4 -35 -7 -46h-280z" />
    <glyph glyph-name="afii10056" unicode="&#x407;" horiz-adv-x="336" 
d="M12 0c-2 14 -2 28 -1 40l54 21c27 10 41 41 44 72l32 441c3 33 -5 66 -46 82l-37 14c-1 9 0 27 4 37h257c2 -14 1 -29 0 -41l-40 -8c-34 -8 -49 -48 -51 -81l-30 -476c-2 -25 2 -34 24 -39l77 -16c-1 -11 -4 -35 -7 -46h-280zM77 741c-13 0 -57 50 -55 62
c1 14 56 62 68 62c13 0 58 -49 57 -62c-2 -10 -55 -62 -70 -62zM295 741c-13 0 -57 50 -55 62c1 14 56 62 68 62c13 0 58 -49 57 -62c-2 -10 -55 -62 -70 -62z" />
    <glyph glyph-name="afii10057" unicode="&#x408;" horiz-adv-x="338" 
d="M-13 -186l-28 55c109 64 154 135 164 276l30 433c2 28 -12 66 -45 78l-41 14c1 9 3 27 7 37h258c1 -14 1 -28 0 -40l-48 -11c-31 -8 -40 -17 -42 -47l-37 -523c-10 -146 -95 -211 -218 -272z" />
    <glyph glyph-name="afii10058" unicode="&#x409;" horiz-adv-x="880" 
d="M12 -22l-38 100c62 13 128 52 142 80c48 96 109 405 109 445c0 15 -1 38 -22 45l-56 22c0 9 3 26 6 37h502c2 -16 -2 -33 -5 -41l-52 -12c-22 -6 -30 -12 -32 -39l-13 -197h104c119 0 207 -61 207 -195c0 -143 -134 -223 -274 -223h-246c-2 12 -3 24 -1 44l42 12
c44 12 58 35 62 97l35 486h-183l-11 -63c-32 -171 -54 -333 -110 -447c-37 -75 -87 -129 -166 -151zM530 62h64c91 2 178 37 178 145c0 102 -58 142 -150 144l-73 2z" />
    <glyph glyph-name="afii10059" unicode="&#x40a;" horiz-adv-x="991" 
d="M8 0c-2 14 -2 28 -1 40l59 21c30 11 48 53 50 83l32 438c4 43 -8 62 -32 69l-65 19c1 10 3 27 7 37h267c2 -14 2 -29 1 -41l-55 -13c-29 -7 -34 -16 -36 -43l-14 -208h355l11 170c2 25 -8 70 -37 81l-46 17c1 12 0 26 4 37h257c-1 -13 -1 -28 -5 -41l-52 -12
c-22 -5 -31 -12 -32 -41l-13 -211h105c119 0 207 -53 207 -187c0 -133 -134 -215 -274 -215h-248c-2 14 -2 32 0 44l41 11c45 13 60 67 63 97l14 188h-355l-12 -229c-1 -25 4 -35 22 -40l92 -25c-1 -10 -4 -35 -7 -46h-303zM641 62h64c91 2 178 39 178 137
c0 102 -58 134 -150 136l-74 2z" />
    <glyph glyph-name="afii10060" unicode="&#x40b;" horiz-adv-x="822" 
d="M87 0c-1 14 -1 33 0 45l74 19c25 6 45 43 47 71l39 509h-90c-50 0 -77 -43 -93 -101c-10 -1 -28 -1 -40 2l11 162h562l-11 -162c-13 -3 -26 -3 -41 -2c-8 62 -33 101 -89 101h-123l-15 -248c49 19 116 42 198 42c151 0 173 -77 173 -154c0 -51 -7 -132 -10 -183
c-1 -23 1 -34 21 -39l92 -17c-1 -11 -3 -34 -7 -45h-308c-1 14 -1 33 0 45l64 19c25 6 44 43 47 71c3 34 10 93 10 123c0 76 -32 105 -130 105c-31 0 -96 -7 -155 -36l-14 -226c-1 -23 1 -34 21 -39l92 -17c-1 -11 -3 -34 -7 -45h-318z" />
    <glyph glyph-name="afii10061" unicode="&#x40c;" horiz-adv-x="673" 
d="M293 740c-6 11 -10 25 -13 39c61 23 127 51 192 84c12 -16 20 -36 28 -63c-59 -24 -145 -47 -207 -60zM4 0c-2 15 -3 31 -1 44l68 23c26 9 40 37 42 67l34 449c1 24 -6 54 -26 62l-58 21c-1 9 0 30 4 41h262c1 -15 3 -26 1 -39l-51 -19c-27 -10 -40 -44 -42 -71l-30 -470
c-2 -25 4 -32 18 -36l63 -21c0 -9 -3 -40 -7 -51h-277zM657 -22c-20 0 -121 4 -168 64l-229 300l3 41l197 205c14 15 23 27 24 38c0 13 -7 23 -18 27l-45 14c0 10 3 29 6 40h230l-3 -41l-306 -277l196 -257c47 -63 101 -90 127 -101z" />
    <glyph glyph-name="uni040D" unicode="&#x40d;" horiz-adv-x="791" 
d="M8 0c-2 14 -2 28 -1 40l59 21c30 11 48 53 50 83l32 438c4 43 -8 62 -32 69l-65 19c1 10 3 27 7 37h267c2 -14 2 -29 1 -41l-55 -13c-29 -7 -34 -16 -36 -43l-26 -389l388 371c-1 37 -12 52 -37 61l-46 17c1 12 0 26 4 37h257c-1 -13 -1 -28 -5 -41l-52 -12
c-22 -5 -31 -12 -32 -41l-32 -503c-2 -24 4 -39 18 -42l81 -19c-1 -11 -4 -38 -7 -49h-283c-2 14 -2 32 0 44l41 11c45 13 60 67 63 97l26 349l-389 -371c-1 -43 4 -54 22 -59l92 -25c-1 -10 -4 -35 -7 -46h-303zM516 740c-62 13 -148 36 -207 60c8 27 16 47 28 63
c65 -33 131 -61 192 -84c-3 -14 -7 -28 -13 -39z" />
    <glyph glyph-name="afii10062" unicode="&#x40e;" horiz-adv-x="698" 
d="M163 -38l-20 93c52 10 105 31 122 44c18 14 32 38 60 90l-215 408c-25 43 -41 57 -83 76c1 19 2 27 4 34h251c2 -15 3 -23 2 -37l-53 -19c-10 -4 -16 -15 -16 -28c-1 -13 3 -31 10 -44l152 -288l144 298c4 7 5 15 6 22c1 15 -4 28 -15 34l-54 27c1 21 2 28 5 35h232
c1 -13 2 -22 1 -35c-33 -13 -74 -24 -92 -60l-218 -443c-74 -142 -118 -187 -223 -207zM359 766c-62 0 -116 62 -134 107l79 48c18 -46 55 -82 70 -82c35 0 107 25 171 81l26 -33c-31 -32 -129 -121 -212 -121z" />
    <glyph glyph-name="afii10145" unicode="&#x40f;" horiz-adv-x="775" 
d="M306 -183l14 183h-312c-2 14 -2 28 -1 40l59 21c30 11 48 53 50 83l32 438c4 43 -8 62 -32 69l-65 19c1 10 3 27 7 37h267c2 -14 2 -29 1 -41l-55 -13c-29 -7 -34 -16 -36 -43l-36 -548h335l38 510c2 25 -8 70 -37 81l-46 17c1 12 0 26 4 37h257c-1 -13 -1 -28 -5 -41
l-52 -12c-22 -5 -31 -12 -32 -41l-33 -510c-1 -20 6 -33 19 -35l81 -19c-1 -11 -4 -38 -7 -49h-311l-10 -183h-94z" />
    <glyph glyph-name="afii10017" unicode="&#x410;" horiz-adv-x="655" 
d="M-40 0c-1 14 -1 28 0 40c30 23 70 58 83 81l314 579l91 25l94 -592c9 -52 42 -66 83 -93c-1 -9 -3 -29 -7 -40h-261c-1 14 -1 27 0 40l60 20c25 8 34 39 34 66c0 11 -2 24 -4 38l-18 124h-229l-83 -158c-4 -8 -5 -16 -5 -23c0 -22 19 -42 49 -52l49 -15
c-1 -10 0 -30 -4 -40h-246zM232 349h189l-30 211l-6 69h-11l-31 -67z" />
    <glyph glyph-name="afii10018" unicode="&#x411;" horiz-adv-x="623" 
d="M291 0l-284 1l1 43l46 12c36 10 61 28 65 68l36 478c0 22 -6 37 -23 44l-65 26c0 16 3 26 7 35h480l-8 -169c-18 0 -27 0 -35 3c-8 53 -43 90 -98 94l-168 12l-14 -229h127c119 0 207 -61 207 -195c0 -131 -130 -224 -274 -223zM208 62h78c91 2 187 35 187 145
c0 102 -58 142 -150 144l-96 2z" />
    <glyph glyph-name="afii10019" unicode="&#x412;" horiz-adv-x="628" 
d="M8 0c-2 14 0 29 1 44c13 3 23 5 35 8c39 9 73 23 76 71l36 481c2 16 -5 36 -23 42l-65 26c0 12 2 24 7 35h250c106 0 223 -29 223 -149c0 -68 -42 -132 -108 -171v-2c82 -20 136 -81 136 -158c0 -135 -128 -227 -271 -227h-297zM209 61h92c107 0 187 43 187 142
c0 76 -60 131 -149 133l-112 3zM230 394l79 3c101 3 140 56 140 144c0 80 -74 105 -136 108l-67 3z" />
    <glyph glyph-name="afii10020" unicode="&#x413;" horiz-adv-x="583" 
d="M20 0c-2 14 -2 28 -1 40l58 18c25 7 43 37 45 65l36 481c2 16 -5 36 -22 42l-72 26c0 8 2 23 7 35h484l-12 -169c-11 -1 -38 0 -45 3c-9 47 -20 89 -84 94l-168 12l-33 -537c-1 -19 0 -32 21 -36l110 -23c-1 -11 -4 -40 -7 -51h-317z" />
    <glyph glyph-name="afii10021" unicode="&#x414;" horiz-adv-x="737" 
d="M0 -183l20 247h60c52 55 108 158 122 195c22 58 67 277 67 334c0 25 -1 48 -22 55l-56 22c0 9 3 26 6 37h512c-1 -16 -1 -28 -5 -41l-52 -12c-22 -6 -30 -12 -32 -39l-35 -551h96l-13 -245c-12 -2 -45 -3 -52 1c-9 46 -38 180 -107 180h-307c-129 0 -132 -136 -147 -182
c-8 -4 -44 -3 -55 -1zM180 64h316l39 579h-193c-20 -139 -54 -341 -69 -387c-17 -51 -58 -134 -93 -192z" />
    <glyph glyph-name="afii10022" unicode="&#x415;" horiz-adv-x="591" 
d="M10 0c-2 14 -2 33 0 45l68 18c25 6 42 31 44 60l36 481c2 16 -5 36 -22 42l-72 26c0 8 2 23 7 35h474l-11 -157c-13 -2 -36 -1 -47 0c-8 59 -25 89 -76 91l-164 6l-18 -261l252 5l-5 -72l-251 5l-13 -263l170 4c74 1 118 57 137 103l39 -6l-29 -162h-519z" />
    <glyph glyph-name="afii10024" unicode="&#x416;" horiz-adv-x="977" 
d="M318 0c-2 15 -3 31 -1 44l68 23c26 9 40 37 42 67l34 449c1 24 -6 54 -26 62l-58 21c-1 9 0 30 4 41h262c1 -15 3 -26 1 -39l-51 -19c-27 -10 -40 -44 -42 -71l-30 -470c-2 -25 4 -32 18 -36l63 -21c0 -9 -3 -40 -7 -51h-277zM-14 -22l-12 53c42 14 103 54 142 100
l204 243l-263 289l3 44h233c3 -11 1 -35 1 -44l-68 -15c-10 -3 -18 -12 -19 -24c-1 -10 6 -22 18 -36l185 -214l-3 -41l-245 -290c-37 -44 -104 -62 -176 -65zM961 -22c-20 0 -122 3 -168 64l-219 291l3 41l197 214c14 15 23 27 24 38c0 13 -7 23 -18 27l-45 14
c0 10 3 29 6 40h230l-3 -41l-306 -286l186 -248c47 -63 101 -90 127 -101z" />
    <glyph glyph-name="afii10025" unicode="&#x417;" horiz-adv-x="513" 
d="M232 -13c-58 0 -136 21 -194 59l32 67c56 -29 112 -53 170 -53c81 0 133 49 133 146c0 87 -77 122 -146 122c-30 0 -39 -1 -69 -3l7 78c29 -3 49 -3 78 -3c65 0 126 49 129 149c0 68 -38 112 -107 112c-101 0 -117 -83 -126 -111h-32c-7 42 -11 84 -15 126
c49 24 108 44 186 44c118 0 198 -63 198 -165c-3 -98 -73 -159 -143 -179v-1c78 -13 146 -70 146 -163c0 -140 -105 -225 -247 -225z" />
    <glyph glyph-name="afii10026" unicode="&#x418;" horiz-adv-x="791" 
d="M8 0c-2 14 -2 28 -1 40l59 21c30 11 48 53 50 83l32 438c4 43 -8 62 -32 69l-65 19c1 10 3 27 7 37h267c2 -14 2 -29 1 -41l-55 -13c-29 -7 -34 -16 -36 -43l-26 -389l388 371c-1 37 -12 52 -37 61l-46 17c1 12 0 26 4 37h257c-1 -13 -1 -28 -5 -41l-52 -12
c-22 -5 -31 -12 -32 -41l-32 -503c-2 -24 4 -39 18 -42l81 -19c-1 -11 -4 -38 -7 -49h-283c-2 14 -2 32 0 44l41 11c45 13 60 67 63 97l26 349l-389 -371c-1 -43 4 -54 22 -59l92 -25c-1 -10 -4 -35 -7 -46h-303z" />
    <glyph glyph-name="afii10027" unicode="&#x419;" horiz-adv-x="791" 
d="M8 0c-2 14 -2 28 -1 40l59 21c30 11 48 53 50 83l32 438c4 43 -8 62 -32 69l-65 19c1 10 3 27 7 37h267c2 -14 2 -29 1 -41l-55 -13c-29 -7 -34 -16 -36 -43l-26 -389l388 371c-1 37 -12 52 -37 61l-46 17c1 12 0 26 4 37h257c-1 -13 -1 -28 -5 -41l-52 -12
c-22 -5 -31 -12 -32 -41l-32 -503c-2 -24 4 -39 18 -42l81 -19c-1 -11 -4 -38 -7 -49h-283c-2 14 -2 32 0 44l41 11c45 13 60 67 63 97l26 349l-389 -371c-1 -43 4 -54 22 -59l92 -25c-1 -10 -4 -35 -7 -46h-303zM409 766c-62 0 -116 62 -134 107l79 48
c18 -46 55 -82 70 -82c35 0 107 25 171 81l26 -33c-31 -32 -129 -121 -212 -121z" />
    <glyph glyph-name="afii10028" unicode="&#x41a;" horiz-adv-x="673" 
d="M4 0c-2 15 -3 31 -1 44l68 23c26 9 40 37 42 67l34 449c1 24 -6 54 -26 62l-58 21c-1 9 0 30 4 41h262c1 -15 3 -26 1 -39l-51 -19c-27 -10 -40 -44 -42 -71l-30 -470c-2 -25 4 -32 18 -36l63 -21c0 -9 -3 -40 -7 -51h-277zM657 -22c-20 0 -121 4 -168 64l-229 300l3 41
l197 205c14 15 23 27 24 38c0 13 -7 23 -18 27l-45 14c0 10 3 29 6 40h230l-3 -41l-306 -277l196 -257c47 -63 101 -90 127 -101z" />
    <glyph glyph-name="afii10029" unicode="&#x41b;" horiz-adv-x="671" 
d="M12 -22l-38 100c62 13 128 52 142 80c48 96 109 405 109 445c0 15 -1 38 -22 45l-56 22c0 9 3 26 6 37h502c-2 -28 -2 -33 -5 -41l-52 -12c-22 -6 -30 -12 -32 -39l-32 -503c-2 -26 0 -40 22 -45l77 -18c-1 -9 -3 -38 -7 -49h-282c-2 12 -4 28 -1 44l42 12
c44 12 60 68 62 97l35 486h-183l-11 -63c-53 -282 -77 -542 -276 -598z" />
    <glyph glyph-name="afii10030" unicode="&#x41c;" horiz-adv-x="964" 
d="M393 -20l-109 588h-11l-5 -52l-133 -408c-6 -18 -2 -32 11 -36l90 -29c-1 -10 -3 -32 -7 -43h-252c-2 14 -2 28 -1 40l36 18c30 14 50 49 60 80l147 452c8 24 -7 52 -27 59l-60 21c1 9 3 27 7 37h201l83 -394l27 -152h7l70 147l195 399h185c1 -12 3 -23 1 -35l-48 -16
c-26 -9 -44 -37 -43 -82l8 -458c0 -23 17 -44 33 -53l42 -21c0 -9 -3 -31 -6 -42h-254c-1 14 -2 28 0 40l43 13c45 13 44 75 45 113l1 348l1 56h-10l-269 -570z" />
    <glyph glyph-name="afii10031" unicode="&#x41d;" horiz-adv-x="781" 
d="M8 0c-2 14 -2 28 -1 40l59 21c30 11 48 53 50 83l32 438c4 43 -8 62 -32 69l-65 19c1 10 3 27 7 37h267c2 -14 2 -29 1 -41l-55 -13c-29 -7 -34 -16 -36 -43l-15 -224h355l12 186c2 25 -8 70 -37 81l-46 17c1 12 0 26 4 37h257c-1 -13 -1 -28 -5 -41l-52 -12
c-22 -5 -31 -12 -32 -41l-32 -503c-2 -24 4 -39 18 -42l81 -19c-1 -11 -4 -38 -7 -49h-283c-2 14 -2 32 0 44l41 11c45 13 60 67 63 97l13 172h-355l-11 -213c-1 -25 4 -35 22 -40l92 -25c-1 -10 -4 -35 -7 -46h-303z" />
    <glyph glyph-name="afii10032" unicode="&#x41e;" horiz-adv-x="726" 
d="M338 -11c-193 0 -293 133 -293 322c0 213 137 409 361 409c186 0 284 -141 284 -321c0 -213 -123 -410 -352 -410zM357 59c151 0 233 174 233 314c0 138 -55 278 -207 278c-158 0 -236 -170 -236 -314c0 -139 51 -278 210 -278z" />
    <glyph glyph-name="afii10033" unicode="&#x41f;" horiz-adv-x="776" 
d="M8 0c-2 14 -2 28 -1 40l59 21c30 11 48 53 50 83l32 438c4 43 -8 62 -32 69l-65 19c1 10 3 27 7 37h702c-1 -13 -1 -28 -5 -41l-52 -12c-22 -5 -31 -12 -32 -41l-32 -503c-2 -24 4 -39 18 -42l81 -19c-1 -11 -4 -38 -7 -49h-283c-2 14 -2 32 0 44l41 11
c45 13 60 67 63 97l36 494h-350l-34 -535c-1 -25 4 -35 22 -40l92 -25c-1 -10 -4 -35 -7 -46h-303z" />
    <glyph glyph-name="afii10034" unicode="&#x420;" horiz-adv-x="566" 
d="M13 0c-1 13 -2 27 -1 40c20 6 39 11 58 18c28 8 43 38 45 64l36 482c2 17 -3 36 -22 42l-71 26c-1 12 2 24 6 35h292c126 0 210 -55 210 -190c0 -130 -96 -221 -230 -221c-15 0 -30 1 -46 3l6 56h24c77 0 143 28 143 142c0 142 -112 146 -223 150l-34 -544
c-1 -16 5 -27 22 -32l98 -26c-1 -15 -3 -31 -7 -45h-306z" />
    <glyph glyph-name="afii10035" unicode="&#x421;" horiz-adv-x="616" 
d="M363 -13c-227 0 -316 123 -316 335c0 227 149 397 375 397c67 0 130 -15 182 -42l-11 -150h-36c-14 86 -69 128 -140 128c-181 0 -268 -140 -268 -311s54 -282 242 -282c51 0 103 12 148 31l20 -61c-56 -29 -133 -45 -196 -45z" />
    <glyph glyph-name="afii10036" unicode="&#x422;" horiz-adv-x="632" 
d="M133 0c-1 14 -1 33 0 45l74 19c25 6 45 43 47 71l39 509h-120c-50 0 -77 -43 -93 -101c-10 -1 -28 -1 -40 2l11 162h579l-11 -162c-13 -3 -26 -3 -41 -2c-8 62 -33 101 -89 101h-110l-34 -543c-1 -23 1 -34 21 -39l92 -17c-1 -11 -3 -34 -7 -45h-318z" />
    <glyph glyph-name="afii10037" unicode="&#x423;" horiz-adv-x="698" 
d="M163 -38l-20 93c52 10 105 31 122 44c18 14 32 38 60 90l-215 408c-25 43 -41 57 -83 76c1 19 2 27 4 34h251c2 -15 3 -23 2 -37l-53 -19c-10 -4 -16 -15 -16 -28c-1 -13 3 -31 10 -44l152 -288l144 298c4 7 5 15 6 22c1 15 -4 28 -15 34l-54 27c1 21 2 28 5 35h232
c1 -13 2 -22 1 -35c-33 -13 -74 -24 -92 -60l-218 -443c-74 -142 -118 -187 -223 -207z" />
    <glyph glyph-name="afii10038" unicode="&#x424;" horiz-adv-x="721" 
d="M202 0c-2 14 -2 28 -1 40l54 21c23 8 37 32 42 58c-156 0 -282 81 -282 225c0 164 126 276 320 276c-1 28 -12 53 -47 67l-37 14c-1 9 0 27 4 37h257c2 -14 1 -29 0 -41l-40 -8c-29 -7 -44 -37 -49 -66c160 0 277 -83 277 -221c0 -164 -119 -281 -310 -281
c-6 -43 -2 -54 22 -59l77 -16c-1 -11 -4 -35 -7 -46h-280zM302 170l30 404c-135 0 -219 -79 -219 -230c0 -106 76 -173 189 -174zM393 171c128 0 210 72 210 223c0 115 -71 179 -184 179z" />
    <glyph glyph-name="afii10039" unicode="&#x425;" horiz-adv-x="697" 
d="M-11 0c-1 14 -2 28 0 40l37 18c36 16 66 49 93 79l194 220l-126 225c-21 38 -62 61 -97 84c-2 7 -1 30 2 41h240c1 -14 2 -29 0 -41l-41 -18c-15 -6 -19 -28 -5 -52l93 -164l141 158c15 17 18 47 1 55l-41 22c1 12 1 28 4 40h231c1 -13 -2 -27 -4 -40
c-41 -11 -95 -44 -124 -78l-179 -208l142 -249c28 -49 51 -62 105 -92c-1 -9 -3 -29 -6 -40h-251c-1 14 -2 28 0 40l42 23c11 6 16 15 16 26c0 9 -3 19 -9 29l-105 187l-153 -179c-8 -10 -12 -22 -12 -33c0 -12 4 -22 13 -26l55 -27c-1 -9 -3 -29 -6 -40h-250z" />
    <glyph glyph-name="afii10040" unicode="&#x426;" horiz-adv-x="778" 
d="M719 -181c-12 -2 -45 -3 -52 1c-9 46 -28 180 -107 180h-552c-2 14 -2 28 -1 40l59 21c30 11 48 53 50 83l32 438c4 43 -8 62 -32 69l-65 19c1 10 3 27 7 37h267c2 -14 2 -29 1 -41l-55 -13c-29 -7 -34 -16 -36 -43l-36 -548h335l38 510c2 25 -8 70 -37 81l-46 17
c1 12 0 26 4 37h257c-1 -13 -1 -28 -5 -41l-52 -12c-22 -5 -31 -12 -32 -41l-35 -549h106z" />
    <glyph glyph-name="afii10041" unicode="&#x427;" horiz-adv-x="687" 
d="M361 0c-3 15 -3 31 -1 44l42 12c44 12 59 68 61 97l13 171c-48 -19 -106 -42 -188 -42c-151 0 -180 76 -173 184l8 123c0 28 -3 53 -26 60l-71 21c0 9 3 26 6 37h268c2 -15 2 -28 0 -41l-56 -13c-28 -7 -33 -20 -34 -45l-9 -130c-6 -92 37 -125 135 -125
c41 0 95 7 145 36l12 182c2 25 -9 72 -37 82l-46 17c0 9 0 26 3 37h258c-1 -16 -1 -28 -5 -41l-52 -12c-22 -6 -30 -12 -32 -39l-32 -507c-2 -24 3 -37 16 -40l83 -19c-1 -9 -4 -38 -8 -49h-280z" />
    <glyph glyph-name="afii10042" unicode="&#x428;" horiz-adv-x="1006" 
d="M8 0c-2 14 -2 28 -1 40l59 21c30 11 48 53 50 83l32 438c4 43 -8 62 -32 69l-65 19c1 10 3 27 7 37h267c2 -14 2 -29 1 -41l-55 -13c-29 -7 -34 -16 -36 -43l-36 -548h248l36 500c4 51 -12 81 -35 90l-47 18c0 10 0 27 4 37h257c0 -14 -2 -29 -5 -41l-49 -11
c-29 -7 -34 -18 -36 -45l-36 -548h238l38 510c2 25 -8 70 -37 81l-46 17c1 12 0 26 4 37h257c-1 -13 -1 -28 -5 -41l-52 -12c-22 -5 -31 -12 -32 -41l-32 -503c-1 -27 5 -40 18 -42l81 -19c-1 -11 -4 -38 -7 -49h-953z" />
    <glyph glyph-name="afii10043" unicode="&#x429;" horiz-adv-x="1018" 
d="M959 -181c-12 -2 -45 -3 -52 1c-9 46 -38 180 -107 180h-792c-2 14 -2 28 -1 40l59 21c30 11 48 53 50 83l32 438c4 43 -8 62 -32 69l-65 19c1 10 3 27 7 37h267c2 -14 2 -29 1 -41l-55 -13c-29 -7 -34 -16 -36 -43l-36 -548h248l35 500c4 43 -8 81 -39 92l-43 16
c0 10 1 27 4 37h257c-1 -14 -2 -29 -4 -41l-51 -11c-29 -7 -32 -18 -34 -45l-36 -548h238l38 510c2 25 -8 70 -37 81l-46 17c1 12 0 26 4 37h257c-1 -13 -1 -28 -5 -41l-52 -12c-22 -5 -31 -12 -32 -41l-35 -549h106z" />
    <glyph glyph-name="afii10044" unicode="&#x42a;" horiz-adv-x="650" 
d="M360 0l-261 1l1 43l46 12c36 10 61 28 65 68l40 527l-84 -7c-66 -4 -82 -58 -98 -105c-6 -4 -25 -3 -36 -1l15 169h375c2 -15 1 -32 -1 -45l-44 -6c-30 -11 -43 -48 -45 -79l-10 -159h104c119 0 207 -61 207 -195c0 -143 -134 -223 -274 -223zM300 62h64
c91 2 178 37 178 145c0 102 -58 142 -150 144l-73 2z" />
    <glyph glyph-name="afii10045" unicode="&#x42b;" horiz-adv-x="862" 
d="M267 0l-261 1l1 43l46 12c36 10 61 28 65 68l36 475c1 31 -5 40 -28 49l-60 24c-1 9 3 25 7 35h257c2 -14 2 -29 1 -41l-40 -8c-34 -8 -49 -48 -51 -81l-10 -159h104c119 0 207 -61 207 -195c0 -143 -134 -223 -274 -223zM207 62h64c91 2 178 37 178 145
c0 102 -58 142 -150 144l-73 2zM537 0c-2 14 -2 28 -1 40l54 21c27 10 41 41 44 72l32 441c3 33 -5 66 -46 82l-37 14c-1 9 0 27 4 37h257c2 -14 1 -29 0 -41l-40 -8c-34 -8 -49 -48 -51 -81l-30 -476c-2 -25 2 -34 24 -39l77 -16c-1 -11 -4 -35 -7 -46h-280z" />
    <glyph glyph-name="afii10046" unicode="&#x42c;" horiz-adv-x="557" 
d="M267 0l-261 1l1 43l46 12c36 10 61 28 65 68l36 475c1 31 -5 40 -28 49l-60 24c-1 9 3 25 7 35h257c2 -14 2 -29 1 -41l-40 -8c-34 -8 -49 -48 -51 -81l-10 -159h104c119 0 207 -61 207 -195c0 -143 -134 -223 -274 -223zM207 62h64c91 2 178 37 178 145
c0 102 -58 142 -150 144l-73 2z" />
    <glyph glyph-name="afii10047" unicode="&#x42d;" horiz-adv-x="642" 
d="M240 -13c-70 0 -128 16 -191 45l24 64c43 -19 106 -34 179 -34c137 0 224 85 248 260l-311 -5l5 80l308 -9c0 162 -65 263 -199 263c-90 0 -146 -36 -173 -123h-36l11 150c62 24 134 42 212 42c210 0 289 -135 289 -325c0 -227 -142 -408 -366 -408z" />
    <glyph glyph-name="afii10048" unicode="&#x42e;" horiz-adv-x="1072" 
d="M681 -11c-193 0 -293 133 -293 322v13h-148l-11 -213c-1 -25 4 -35 22 -40l92 -25c-1 -10 -4 -35 -7 -46h-303c-2 14 -2 28 -1 40l59 21c30 11 48 53 50 83l32 438c4 43 -8 62 -32 69l-65 19c1 10 3 27 7 37h267c2 -14 2 -29 1 -41l-55 -13c-29 -7 -34 -16 -36 -43
l-15 -224h149c28 182 157 334 355 334c186 0 284 -141 284 -321c0 -213 -123 -410 -352 -410zM700 59c151 0 233 174 233 314c0 138 -55 278 -207 278c-158 0 -236 -170 -236 -314c0 -139 51 -278 210 -278z" />
    <glyph glyph-name="afii10049" unicode="&#x42f;" horiz-adv-x="664" 
d="M-1 -19l-6 54c31 10 62 20 86 42c54 48 129 155 181 230c-30 13 -129 57 -129 179c0 150 149 221 266 221h251c-1 -16 -1 -28 -5 -41l-52 -12c-22 -6 -30 -12 -32 -39l-32 -507c-2 -24 5 -37 16 -40l83 -19c-1 -9 -4 -38 -8 -49h-282c-3 15 -3 30 -1 43l42 12
c44 12 62 69 64 98l9 136h-97c-45 -68 -115 -183 -192 -262c-44 -46 -135 -45 -162 -46zM400 355h55l19 269c-25 3 -68 9 -93 9c-113 0 -150 -61 -150 -147c0 -83 79 -131 169 -131z" />
    <glyph glyph-name="afii10065" unicode="&#x430;" horiz-adv-x="528" 
d="M116 -13c-63 0 -78 32 -78 92c0 179 62 473 292 473c52 0 86 -12 118 -27l-48 -444l84 1v-24c-35 -35 -79 -70 -128 -70c-27 0 -43 13 -43 39c0 19 5 55 8 82c-58 -61 -124 -122 -205 -122zM147 68c59 0 142 74 181 103l34 292c-18 11 -44 18 -79 18
c-125 0 -160 -311 -160 -409c8 -3 16 -4 24 -4z" />
    <glyph glyph-name="afii10066" unicode="&#x431;" horiz-adv-x="480" 
d="M206 -26c-114 0 -166 50 -166 164c0 162 31 409 125 524c32 39 125 50 208 70c26 6 49 15 82 35l22 -24l-84 -101c-63 -12 -150 -9 -204 -42c-23 -14 -37 -127 -51 -211c80 84 132 121 187 121c101 0 115 -56 115 -147c0 -148 -64 -389 -234 -389zM243 47
c108 2 104 267 109 380c-22 6 -11 4 -34 5c-38 2 -113 -32 -184 -102c-3 -25 -7 -102 -7 -167c0 -35 1 -66 4 -84c24 -23 61 -33 112 -32z" />
    <glyph glyph-name="afii10067" unicode="&#x432;" horiz-adv-x="491" 
d="M189 -12c-103 -2 -149 39 -149 112c0 218 77 459 274 459c69 0 130 -39 130 -114c0 -79 -42 -120 -89 -145c52 -17 88 -57 88 -109c0 -144 -164 -203 -254 -203zM218 54c81 0 135 47 135 130c0 38 -20 69 -54 84c-50 -14 -79 -22 -158 -35l-16 -154c15 -9 50 -25 93 -25z
M146 286c163 34 206 73 206 142c0 46 -35 67 -75 67c-86 0 -117 -102 -131 -209z" />
    <glyph glyph-name="afii10068" unicode="&#x433;" horiz-adv-x="416" 
d="M151 -13c-59 0 -113 62 -113 129s27 81 194 223c29 24 48 53 48 76c0 32 -17 64 -36 64c-28 0 -89 -14 -138 -38l-24 44c41 30 133 72 188 72c57 0 109 -72 109 -134c0 -52 -42 -89 -75 -114c-151 -115 -171 -144 -171 -177s25 -63 39 -63c45 0 120 33 169 62l29 -44
c-61 -52 -149 -100 -219 -100z" />
    <glyph glyph-name="afii10069" unicode="&#x434;" horiz-adv-x="505" 
d="M198 -12c-104 0 -158 50 -158 134c0 188 70 390 215 390c42 3 85 -23 122 -59c1 21 1 16 1 26c0 99 -6 159 -24 182c-15 19 -94 17 -193 20v40c59 16 121 28 166 28c133 0 138 -161 138 -277c0 -227 -97 -484 -267 -484zM235 61c92 0 124 211 139 335
c-41 27 -86 47 -138 47c-73 0 -109 -133 -109 -275c0 -41 2 -55 4 -75c24 -23 53 -32 104 -32z" />
    <glyph glyph-name="afii10070" unicode="&#x435;" horiz-adv-x="434" 
d="M150 -13c-80 0 -109 34 -109 172c0 168 48 399 265 399c74 0 120 -32 120 -87c0 -131 -91 -199 -293 -234c-4 -53 -4 -108 -4 -152c15 -7 38 -14 53 -14c41 0 121 31 169 53l21 -44c-56 -50 -142 -93 -222 -93zM138 290c163 33 191 71 191 155c0 31 -20 49 -70 49
c-76 0 -107 -97 -121 -204z" />
    <glyph glyph-name="afii10072" unicode="&#x436;" horiz-adv-x="750" 
d="M658 -27c-91 78 -120 143 -165 234c-9 19 -20 40 -31 62l145 183c24 31 -10 55 -34 66l4 28h160l11 -25l-210 -238c47 -80 84 -145 179 -241c-18 -39 -36 -52 -59 -69zM77 -27c-20 17 -45 43 -55 82c107 82 151 131 229 229l-162 237l17 25h160l-4 -28
c-27 -11 -69 -35 -52 -66l113 -183l-50 -70c-60 -87 -102 -150 -196 -226zM322 0l20 190l35 337l85 35l-33 -321l-9 -83v-158h-98z" />
    <glyph glyph-name="afii10073" unicode="&#x437;" horiz-adv-x="412" 
d="M151 -8c-47 0 -91 10 -133 29c6 31 21 59 36 86c39 -23 73 -42 118 -42c52 0 102 25 102 104c0 60 -54 80 -127 87l-5 40c56 30 145 78 145 162c-21 22 -60 25 -92 24c-30 -1 -64 -10 -101 -24c-1 25 1 50 9 75c23 11 73 24 120 24c80 0 147 -35 147 -103
c0 -67 -66 -121 -121 -145c71 -15 112 -59 112 -116c0 -117 -96 -201 -210 -201z" />
    <glyph glyph-name="afii10074" unicode="&#x438;" horiz-adv-x="531" 
d="M117 -13c-41 0 -73 20 -66 103l40 437l84 33l-41 -490s10 -5 20 -5c48 0 165 100 187 123l37 339l85 33l-54 -479h90v-20c-35 -36 -79 -71 -128 -71c-27 0 -42 13 -42 40c0 6 0 14 1 24l7 79c-56 -75 -120 -146 -220 -146z" />
    <glyph glyph-name="afii10075" unicode="&#x439;" horiz-adv-x="531" 
d="M266 619c-61 0 -103 59 -121 102l77 46c18 -44 44 -78 59 -78c34 0 94 24 157 77l25 -31c-30 -31 -116 -116 -197 -116zM117 -13c-41 0 -73 20 -66 103l40 437l84 33l-41 -490s10 -5 20 -5c48 0 165 100 187 123l37 339l85 33l-54 -479h90v-20c-35 -36 -79 -71 -128 -71
c-27 0 -42 13 -42 40c0 6 0 14 1 24l7 79c-56 -75 -120 -146 -220 -146z" />
    <glyph glyph-name="afii10076" unicode="&#x43a;" horiz-adv-x="477" 
d="M395 -27c-62 53 -98 100 -130 153c-25 42 -47 88 -76 143l145 183c24 31 -10 55 -34 66l4 28h160l11 -25l-210 -238c47 -80 94 -145 189 -241c-18 -39 -36 -52 -59 -69zM49 0l55 527l85 35l-42 -404v-158h-98z" />
    <glyph glyph-name="afii10077" unicode="&#x43b;" horiz-adv-x="471" 
d="M314 -17l-22 512l-155 -317c-6 -11 -9 -20 -12 -33l-13 -153h-105c-1 7 1 20 1 26c5 63 27 115 55 167l184 350l116 29l32 -425l39 -123c-26 -16 -76 -33 -120 -33z" />
    <glyph glyph-name="afii10078" unicode="&#x43c;" horiz-adv-x="757" 
d="M282 -19l-52 481l-87 -286c-5 -15 -8 -28 -11 -44v-142h-99c0 8 -1 23 0 29c0 53 19 109 40 164l116 350l110 29l50 -489l222 468l111 21l-47 -482h86v-21c-35 -35 -80 -71 -128 -71c-28 0 -43 14 -43 40c0 19 5 51 7 69l39 357l-210 -444z" />
    <glyph glyph-name="afii10079" unicode="&#x43d;" horiz-adv-x="544" 
d="M380 -12c-27 0 -42 13 -42 40c0 18 1 33 5 61l20 173l-208 -18l-9 -83v-161h-97l55 527l85 35l-28 -259l208 18l21 206l85 35l-53 -480h86v-21c-34 -35 -79 -73 -128 -73z" />
    <glyph glyph-name="afii10080" unicode="&#x43e;" horiz-adv-x="480" 
d="M243 61c80 0 110 179 110 302c0 35 -3 66 -7 87c-21 19 -55 36 -107 36c-94 0 -112 -176 -112 -298c0 -41 2 -75 4 -95c24 -23 61 -32 112 -32zM206 -12c-114 0 -166 50 -166 164c0 148 49 403 214 403c131 0 186 -63 186 -174c0 -148 -64 -393 -234 -393z" />
    <glyph glyph-name="afii10081" unicode="&#x43f;" horiz-adv-x="544" 
d="M369 -12c-27 0 -42 13 -42 40c0 18 1 33 5 61l50 364c-7 2 -14 4 -22 4c-63 0 -164 -65 -190 -89l-24 -207v-161h-97l55 527l85 35l-13 -134c59 63 155 125 221 125c49 0 66 -17 66 -61c0 -12 -1 -25 -3 -41l-49 -369h86v-21c-34 -35 -79 -73 -128 -73z" />
    <glyph glyph-name="afii10082" unicode="&#x440;" horiz-adv-x="498" 
d="M17 -220l82 746l83 34l-14 -131c48 51 121 120 193 120c82 0 105 -28 105 -149c0 -212 -98 -410 -276 -410c-24 0 -41 3 -64 9l-12 -114v-105h-97zM211 57c168 0 170 332 170 412c-10 3 -20 5 -31 5c-76 0 -161 -84 -188 -112l-29 -282c27 -12 47 -23 78 -23z" />
    <glyph glyph-name="afii10083" unicode="&#x441;" horiz-adv-x="418" 
d="M133 -13c-64 0 -96 32 -96 91c0 180 23 477 253 477c53 0 88 -9 118 -27c-1 -28 -12 -67 -25 -84c-27 17 -84 40 -137 40c-125 0 -119 -320 -119 -406c15 -8 33 -10 47 -10c42 0 135 42 181 65l22 -43c-57 -50 -164 -103 -244 -103z" />
    </font>
</defs>
</svg>
