<?xml version="1.0" standalone="no"?>
<!DOCTYPE svg PUBLIC "-//W3C//DTD SVG 1.1//EN" "http://www.w3.org/Graphics/SVG/1.1/DTD/svg11.dtd" >
<svg>
<metadata>
Created by FontForge 20090914 at Fri Oct 28 12:27:56 2016
 By www-data
The digitally encoded machine readable software for producing the Typefaces licensed to you is copyrighted (c) 2005 Typotheque (Peter Bilak, Graphic and Type design). All rights reserved.
</metadata>
<defs>
<font id="FedraSansPro-MediumItalic" horiz-adv-x="560" >
  <font-face 
    font-family="Fedra Sans Pro Medium"
    font-weight="500"
    font-style="italic"
    font-stretch="normal"
    units-per-em="1000"
    panose-1="2 11 6 4 4 0 0 9 0 4"
    ascent="780"
    descent="-220"
    x-height="546"
    cap-height="707"
    bbox="-412 -303 1406 976"
    underline-thickness="50"
    underline-position="-50"
    slope="-6"
    stemh="101"
    stemv="123"
    unicode-range="U+0020-U+FB04"
  />
<missing-glyph horiz-adv-x="1000" 
 />
    <glyph glyph-name="f_k" unicode="fk" horiz-adv-x="845" 
d="M699 -7l-165 282l-29 -275h-123l70 663c-40 -1 -76 4 -123 4c-60 0 -85 -31 -92 -99l-2 -22h116l-10 -93h-116l-71 -673h-122l71 673h-80l10 93h80l2 22c17 159 116 207 227 207c42 0 85 -7 131 -7c38 -1 76 2 114 7l-52 -488l191 259h136l-197 -255l167 -286z" />
    <glyph glyph-name="f_h" unicode="fh" horiz-adv-x="901" 
d="M32 -220l70 673h-80l11 93h80l2 22c17 159 116 207 227 207c43 0 85 -7 131 -7c38 0 77 2 114 7l-31 -301c41 29 125 86 187 86c99 0 117 -41 104 -166l-41 -394h-123l40 371c6 55 7 72 -27 72c-36 0 -127 -56 -150 -68l-40 -375h-125l72 666c-39 -1 -85 1 -124 1
c-60 0 -84 -31 -92 -99l-2 -22h116l-9 -93h-117l-71 -673h-122z" />
    <glyph glyph-name="f_j" unicode="fj" horiz-adv-x="589" 
d="M283 -226c-36 0 -67 7 -92 16l33 97c9 -3 27 -8 63 -8c63 0 89 34 97 108l47 466h-206l-71 -673h-121l70 673h-80l10 93h80l2 22c17 159 116 207 227 207c41 0 86 -6 134 -6c32 0 79 2 110 6l9 -93c-46 -16 -102 -20 -140 -20c-43 0 -80 5 -125 5c-61 0 -85 -31 -92 -99
l-3 -22h328l-58 -559c-18 -174 -108 -213 -222 -213z" />
    <glyph glyph-name="f_f_j" unicode="ffj" horiz-adv-x="920" 
d="M33 -220l70 673h-80l11 93h79l4 33c16 166 116 196 227 196c44 0 150 -22 184 -35c34 26 93 35 142 35c41 0 87 -6 134 -6c32 0 79 2 110 6l9 -93c-47 -16 -103 -20 -140 -20c-43 0 -80 5 -126 5c-60 0 -84 -31 -92 -99l-2 -22h327l-58 -553
c-18 -175 -106 -213 -220 -213c-34 0 -78 9 -104 20l32 97c15 -4 48 -12 76 -12c63 0 86 33 93 109l48 459h-204l-71 -673h-122l70 673h-206l-71 -673h-120zM234 546h207l2 22c3 35 10 60 21 82c-33 7 -88 18 -122 18c-62 0 -97 -25 -104 -89z" />
    <glyph glyph-name="aogonek_j" unicode="&#x105;j" horiz-adv-x="823" 
d="M397 -256c-120 0 -165 52 -165 117c0 53 36 106 85 141l8 80c-61 -58 -115 -94 -168 -94c-96 0 -129 69 -129 173c0 204 136 391 347 391c34 0 85 -4 120 -10l-57 -542c-45 -27 -82 -63 -85 -104c-2 -33 26 -51 69 -51c75 0 157 40 166 128l60 573h122l-59 -569
c-19 -181 -183 -233 -314 -233zM190 97c40 0 115 60 145 86l28 265c-4 2 -11 2 -19 2c-113 0 -193 -137 -193 -277c0 -41 10 -76 39 -76zM715 629l-79 87l98 86l79 -86z" />
    <glyph glyph-name="f_f" unicode="ff" horiz-adv-x="674" 
d="M33 -220l70 673h-80l10 93h80l4 33c16 166 115 196 227 196c68 0 138 -17 180 -34c41 27 92 34 148 34c44 0 118 -16 150 -29l-33 -95c-19 4 -72 17 -120 17c-62 0 -97 -25 -104 -89l-3 -33h120l-11 -93h-119l-72 -673h-120l70 673h-206l-71 -673h-120zM234 546h206l4 33
c2 29 9 53 18 73c-34 8 -83 16 -120 16c-62 0 -97 -25 -104 -89z" />
    <glyph glyph-name="fi" unicode="fi" horiz-adv-x="610" 
d="M32 -220l70 673h-80l11 93h80l2 22c17 159 116 207 227 207c41 0 87 -7 134 -7c32 0 79 3 110 7l11 -93c-47 -15 -104 -20 -142 -20c-44 0 -80 5 -126 5c-60 0 -84 -31 -92 -99l-2 -22h327l-57 -546h-123l48 453h-205l-71 -673h-122z" />
    <glyph glyph-name="fl" unicode="fl" horiz-adv-x="626" 
d="M32 -220l70 673h-80l11 93h80l2 22c17 159 116 207 227 207c43 0 85 -7 131 -7c38 0 77 2 114 7l-83 -775h-122l69 663c-39 -1 -76 4 -122 4c-60 0 -84 -31 -92 -99l-2 -22h116l-9 -93h-117l-71 -673h-122z" />
    <glyph glyph-name="f_f_i" unicode="ffi" horiz-adv-x="920" 
d="M33 -220l70 673h-80l11 93h79l4 33c16 166 116 196 227 196c44 0 150 -22 184 -35c34 26 93 35 142 35c41 0 87 -6 134 -6c32 0 79 2 110 6l9 -93c-47 -16 -103 -20 -140 -20c-43 0 -80 5 -126 5c-60 0 -84 -31 -92 -99l-2 -22h327l-58 -546h-122l48 453h-205l-71 -673
h-122l70 673h-206l-71 -673h-120zM234 546h207l2 22c3 35 10 60 21 82c-33 7 -88 18 -122 18c-62 0 -97 -25 -104 -89z" />
    <glyph glyph-name="f_f_l" unicode="ffl" horiz-adv-x="952" 
d="M33 -220l70 673h-80l11 93h79l4 33c16 166 116 196 227 196c65 0 155 -19 187 -34c38 25 88 34 138 34c42 0 84 -7 131 -7c38 0 75 2 113 7l-82 -775h-122l69 663c-39 -1 -76 4 -122 4c-60 0 -85 -31 -92 -99l-2 -22h116l-10 -93h-116l-71 -673h-122l70 673h-205
l-71 -673h-120zM234 546h205l3 22c3 35 11 63 22 85c-33 7 -77 15 -122 15c-62 0 -97 -25 -104 -89z" />
    <glyph glyph-name=".notdef" horiz-adv-x="1000" 
 />
    <glyph glyph-name="space" unicode=" " horiz-adv-x="235" 
 />
    <glyph glyph-name="exclam" unicode="!" horiz-adv-x="279" 
d="M84 195l11 167l36 345h122l-36 -345l-25 -167h-108zM53 0l12 117h129l-13 -117h-128z" />
    <glyph glyph-name="quotedbl" unicode="&#x22;" horiz-adv-x="389" 
d="M60 515l17 239h123l-34 -239h-106zM262 515l17 239h122l-33 -239h-106z" />
    <glyph glyph-name="numbersign" unicode="#" horiz-adv-x="627" 
d="M80 0l20 128h-86l10 97h94l17 108h-99l10 98h107l22 136h114l-22 -136h142l22 136h114l-22 -136h83l-10 -98h-90l-18 -108h96l-10 -97h-103l-20 -128h-115l21 128h-142l-20 -128h-115zM231 225h143l17 108h-141z" />
    <glyph glyph-name="dollar" unicode="$" horiz-adv-x="542" 
d="M181 -99l11 93c-60 0 -116 8 -171 35l41 94c57 -20 106 -33 167 -33c40 0 122 9 122 65c0 87 -273 65 -273 234c0 99 85 143 172 157l10 106h93l-13 -102c56 -1 97 -10 149 -31l-37 -86c-50 14 -98 23 -150 23c-32 0 -97 -6 -97 -52c0 -86 276 -84 276 -232
c0 -113 -101 -163 -199 -175l-7 -96h-94z" />
    <glyph glyph-name="percent" unicode="%" horiz-adv-x="818" 
d="M220 369c-90 0 -153 46 -153 141c0 111 78 204 192 204c92 0 156 -44 156 -142c0 -115 -78 -203 -195 -203zM229 455c59 0 82 55 82 107c0 41 -18 67 -60 67c-60 0 -79 -62 -79 -111c0 -40 16 -63 57 -63zM593 -10c-90 0 -153 45 -153 140c0 112 77 204 192 204
c93 0 156 -44 156 -142c0 -114 -78 -202 -195 -202zM603 77c58 0 82 54 82 104c0 42 -18 68 -62 68c-59 0 -78 -62 -78 -112c0 -40 17 -60 58 -60zM143 49l-59 67l613 531l59 -67z" />
    <glyph glyph-name="ampersand" unicode="&#x26;" horiz-adv-x="709" 
d="M691 -99c-124 0 -231 53 -317 135c-42 -27 -92 -46 -156 -46c-104 0 -198 38 -198 160c0 102 69 168 146 224c-12 44 -18 89 -18 131c0 123 66 210 199 210c92 0 166 -44 166 -142c0 -106 -123 -166 -217 -226c76 -187 202 -344 413 -345h16l-6 -99c-9 -2 -21 -2 -28 -2z
M231 91c31 0 56 7 79 18c-43 51 -80 114 -107 174c-37 -32 -63 -68 -63 -115c0 -56 40 -77 91 -77zM265 435c58 36 139 76 139 125c0 34 -25 62 -68 62c-66 0 -80 -53 -80 -106c0 -24 3 -56 9 -81zM454 115l9 99c29 19 65 28 105 28h116l-10 -101h-112
c-37 0 -65 -4 -108 -26z" />
    <glyph glyph-name="quotesingle" unicode="'" horiz-adv-x="201" 
d="M60 515l17 239h124l-34 -239h-107z" />
    <glyph glyph-name="parenleft" unicode="(" horiz-adv-x="351" 
d="M235 -223c-123 93 -188 282 -188 431c0 205 107 457 294 562l67 -81c-147 -93 -236 -296 -236 -467c0 -122 51 -282 147 -366z" />
    <glyph glyph-name="parenright" unicode=")" horiz-adv-x="351" 
d="M34 -223l-68 79c142 105 238 314 238 490c0 118 -51 271 -151 343l84 81c128 -81 192 -263 192 -415c0 -211 -114 -460 -295 -578z" />
    <glyph glyph-name="asterisk" unicode="*" horiz-adv-x="460" 
d="M104 456l-37 79l103 39l25 -53zM173 593l-95 41l53 79l79 -66zM185 406l25 104h66v-104h-91zM225 657v104h91l-24 -104h-67zM371 452l-79 67l37 55l95 -42zM331 593l-25 53l92 66l35 -79z" />
    <glyph glyph-name="plus" unicode="+" horiz-adv-x="600" 
d="M218 48l22 206l-205 -1l11 103l205 -3l21 209h105l-27 -211l215 5l-11 -103l-212 1l-20 -206h-104z" />
    <glyph glyph-name="comma" unicode="," horiz-adv-x="283" 
d="M11 -139c47 87 50 156 62 270h135c-12 -111 -16 -178 -90 -270h-107z" />
    <glyph glyph-name="hyphen" unicode="-" horiz-adv-x="364" 
d="M23 237l11 101h298l-11 -101h-298z" />
    <glyph glyph-name="hyphen" unicode="&#xad;" horiz-adv-x="364" 
d="M23 237l11 101h298l-11 -101h-298z" />
    <glyph glyph-name="period" unicode="." horiz-adv-x="292" 
d="M53 0l14 126h139l-14 -126h-139z" />
    <glyph glyph-name="slash" unicode="/" horiz-adv-x="432" 
d="M-3 -62l319 831h119l-320 -831h-118z" />
    <glyph glyph-name="zero" unicode="0" horiz-adv-x="624" 
d="M279 -9c-149 0 -251 75 -251 234c0 200 118 331 319 331c147 0 249 -79 249 -237c0 -200 -120 -328 -317 -328zM293 92c119 0 179 98 179 211c0 94 -47 151 -139 151c-121 0 -180 -93 -180 -209c0 -94 47 -153 140 -153z" />
    <glyph glyph-name="one" unicode="1" horiz-adv-x="335" 
d="M114 0l48 450h-142l9 96l266 7l-58 -553h-123z" />
    <glyph glyph-name="two" unicode="2" horiz-adv-x="447" 
d="M4 0l10 100c88 68 281 179 281 292c0 49 -33 66 -85 66c-49 0 -88 -14 -117 -29l-30 89c38 23 97 43 165 43c151 0 191 -74 191 -147c0 -141 -137 -248 -250 -313h248l-11 -101h-402z" />
    <glyph glyph-name="three" unicode="3" horiz-adv-x="444" 
d="M132 -170c-52 0 -100 6 -152 31l32 96c45 -16 83 -23 123 -23c93 0 151 51 151 135c0 78 -81 95 -161 102l1 85c80 13 159 50 159 133c0 44 -31 68 -86 68c-40 0 -86 -8 -121 -19l-26 89c49 24 107 33 165 33c100 0 192 -43 192 -148c0 -81 -45 -141 -122 -183
c80 -29 124 -83 124 -158c0 -154 -125 -241 -279 -241z" />
    <glyph glyph-name="four" unicode="4" horiz-adv-x="552" 
d="M261 -161l19 187h-282l9 88l264 432h185l-43 -421h109l-10 -99h-109l-21 -187h-121zM131 125h160l34 324z" />
    <glyph glyph-name="five" unicode="5" horiz-adv-x="480" 
d="M173 -172c-63 0 -118 8 -175 27l30 102c53 -15 100 -23 155 -23c87 0 144 46 144 133c0 95 -181 131 -279 136l35 343h366l-10 -99h-249l-14 -147c140 -20 275 -86 275 -218c0 -155 -122 -254 -278 -254z" />
    <glyph glyph-name="six" unicode="6" horiz-adv-x="548" 
d="M255 -12c-149 0 -224 83 -224 249c0 234 89 478 359 478c38 0 74 -4 109 -18l-34 -101c-25 9 -56 15 -87 15c-182 0 -224 -180 -224 -382c0 -94 39 -143 116 -143c82 0 110 80 110 155c0 77 -43 110 -110 110c-26 0 -61 -6 -92 -16l10 93c36 13 72 21 115 21
c115 0 202 -66 202 -193c0 -158 -86 -268 -250 -268z" />
    <glyph glyph-name="seven" unicode="7" horiz-adv-x="449" 
d="M86 -183l-101 48l324 579h-297l11 102h434l-9 -88z" />
    <glyph glyph-name="eight" unicode="8" horiz-adv-x="559" 
d="M240 -10c-108 0 -215 45 -215 157c0 105 70 172 163 220c-53 39 -100 87 -100 159c0 132 119 188 239 188c90 0 191 -42 191 -146c0 -89 -69 -161 -142 -203c61 -40 125 -91 125 -171c0 -146 -137 -204 -261 -204zM257 88c68 0 120 39 120 109c0 52 -81 97 -119 124
c-52 -32 -110 -80 -110 -150c0 -57 51 -83 109 -83zM302 412c50 30 90 79 90 140c0 43 -43 66 -84 66c-58 0 -99 -30 -99 -91c0 -47 59 -90 93 -115z" />
    <glyph glyph-name="nine" unicode="9" horiz-adv-x="531" 
d="M138 -166c-38 0 -74 3 -109 17l34 101c25 -8 56 -15 87 -15c182 0 224 180 224 383c0 93 -39 143 -116 143c-82 0 -110 -80 -110 -155c0 -78 43 -111 110 -111c26 0 61 7 92 17l-10 -94c-35 -13 -72 -21 -115 -21c-115 0 -202 66 -202 193c0 158 86 269 250 269
c149 0 225 -83 225 -250c0 -234 -90 -477 -360 -477z" />
    <glyph glyph-name="colon" unicode=":" horiz-adv-x="283" 
d="M52 0l14 126h139l-14 -126h-139zM96 420l14 126h139l-14 -126h-139z" />
    <glyph glyph-name="semicolon" unicode=";" horiz-adv-x="275" 
d="M8 -139c47 87 49 156 61 270h134c-11 -111 -16 -177 -89 -270h-106zM95 420l14 126h138l-13 -126h-139z" />
    <glyph glyph-name="less" unicode="&#x3c;" horiz-adv-x="600" 
d="M476 54l-397 190l13 119l437 197l-12 -114l-326 -143l297 -135z" />
    <glyph glyph-name="equal" unicode="=" horiz-adv-x="600" 
d="M44 133l10 103h469l-9 -103h-470zM69 369l9 103h470l-10 -103h-469z" />
    <glyph glyph-name="greater" unicode="&#x3e;" horiz-adv-x="600" 
d="M59 54l13 114l324 135l-296 143l13 114l395 -197l-12 -119z" />
    <glyph glyph-name="question" unicode="?" horiz-adv-x="366" 
d="M103 174c-6 19 -9 38 -9 58c0 153 169 194 169 280c0 72 -102 90 -157 95l34 103c112 -8 252 -47 252 -183c0 -163 -182 -185 -189 -293c-1 -15 1 -30 4 -44zM80 0l13 117h127l-11 -117h-129z" />
    <glyph glyph-name="at" unicode="@" horiz-adv-x="794" 
d="M332 -73c-187 0 -300 76 -300 273c0 300 176 516 484 516c159 0 254 -77 254 -241c0 -162 -87 -332 -269 -332c-38 0 -85 16 -84 60c-22 -26 -70 -56 -103 -56c-69 0 -97 34 -97 102c0 134 87 247 227 247c44 0 82 -7 123 -24l-43 -188c-2 -10 -4 -20 -4 -27
c0 -12 2 -22 16 -22c93 0 130 152 130 230c0 112 -58 159 -166 159c-233 0 -360 -180 -360 -401c0 -141 77 -200 211 -200c55 0 109 7 163 16l5 -86c-62 -19 -122 -26 -187 -26zM350 236c27 0 52 17 72 32l34 150c-5 1 -14 2 -19 2c-78 0 -113 -81 -113 -148
c0 -19 4 -36 26 -36z" />
    <glyph glyph-name="A" unicode="A" horiz-adv-x="647" 
d="M-54 0l352 707h167l158 -707h-130l-49 236h-256l-113 -236h-129zM235 331h189l-39 204l-14 98l-41 -98z" />
    <glyph glyph-name="B" unicode="B" horiz-adv-x="624" 
d="M46 0l75 707h220c110 0 224 -30 224 -162c0 -70 -35 -135 -100 -163l-1 -3c70 -16 118 -75 118 -148c0 -168 -132 -231 -285 -231h-251zM184 101h104c90 0 165 16 165 123c0 93 -98 95 -167 95h-79zM216 409h80c87 0 138 26 138 119c0 77 -66 82 -126 82h-71z" />
    <glyph glyph-name="C" unicode="C" horiz-adv-x="607" 
d="M373 -10c-199 0 -338 104 -338 314c0 261 151 410 411 410c71 0 123 -9 179 -32l-39 -95c-56 18 -91 22 -152 22c-174 0 -270 -119 -270 -288c0 -150 97 -223 238 -223c56 0 105 3 158 19l21 -98c-70 -23 -133 -29 -208 -29z" />
    <glyph glyph-name="D" unicode="D" horiz-adv-x="736" 
d="M46 0l75 707h221c199 0 364 -85 364 -309c0 -272 -170 -398 -431 -398h-229zM182 101h113c187 0 284 97 284 288c0 160 -104 217 -251 217h-92z" />
    <glyph glyph-name="E" unicode="E" horiz-adv-x="574" 
d="M46 0l75 707h429l-10 -100h-304l-21 -204h281l-10 -96h-281l-22 -207h327l-11 -100h-453z" />
    <glyph glyph-name="F" unicode="F" horiz-adv-x="519" 
d="M46 0l75 707h425l-11 -100h-299l-23 -223h277l-10 -96h-277l-31 -288h-126z" />
    <glyph glyph-name="G" unicode="G" horiz-adv-x="673" 
d="M373 -10c-197 0 -337 102 -337 312c0 264 155 412 416 412c69 0 127 -8 187 -34l-44 -94c-54 16 -95 23 -155 23c-177 0 -273 -114 -273 -288c0 -148 94 -223 235 -223c26 0 50 3 69 6l25 246h126l-33 -322c-72 -27 -130 -38 -216 -38z" />
    <glyph glyph-name="H" unicode="H" horiz-adv-x="757" 
d="M46 0l75 707h125l-31 -303h338l32 304h127l-74 -708h-127l33 306h-339l-33 -306h-126z" />
    <glyph glyph-name="I" unicode="I" horiz-adv-x="293" 
d="M46 0l75 707h125l-74 -707h-126z" />
    <glyph glyph-name="J" unicode="J" horiz-adv-x="299" 
d="M-64 -192l-38 90c126 67 158 124 171 253l58 556h127l-58 -554c-16 -151 -58 -274 -260 -345z" />
    <glyph glyph-name="K" unicode="K" horiz-adv-x="628" 
d="M484 -34l-271 400l2 17l301 324h155l-314 -329l247 -354zM46 0l75 707h125l-74 -707h-126z" />
    <glyph glyph-name="L" unicode="L" horiz-adv-x="509" 
d="M46 0l75 707h125l-63 -605h307l-11 -102h-433z" />
    <glyph glyph-name="M" unicode="M" horiz-adv-x="898" 
d="M-45 0l244 707h151l44 -611l262 611h149l16 -707h-122l-4 533l-229 -533h-175l-39 536l-173 -536h-124z" />
    <glyph glyph-name="N" unicode="N" horiz-adv-x="751" 
d="M46 0l75 707h158l245 -565l55 565h126l-75 -707h-164l-238 550l-56 -550h-126z" />
    <glyph glyph-name="O" unicode="O" horiz-adv-x="797" 
d="M352 -12c-199 0 -317 116 -317 313c0 255 155 417 410 417c199 0 318 -112 318 -310c0 -257 -152 -420 -411 -420zM366 90c182 0 267 136 267 306c0 133 -68 220 -205 220c-178 0 -265 -134 -265 -303c0 -131 65 -223 203 -223z" />
    <glyph glyph-name="P" unicode="P" horiz-adv-x="580" 
d="M42 0l74 707h253c130 0 229 -67 229 -205c0 -201 -175 -274 -349 -273h-39l14 100c124 1 242 18 242 159c0 84 -52 120 -129 120h-104l-64 -608h-127z" />
    <glyph glyph-name="Q" unicode="Q" horiz-adv-x="797" 
d="M352 -12c-199 0 -317 116 -317 313c0 255 155 417 410 417c199 0 318 -112 318 -310c0 -257 -152 -420 -411 -420zM366 90c182 0 267 136 267 306c0 133 -68 220 -205 220c-178 0 -265 -134 -265 -303c0 -131 65 -223 203 -223zM734 -174l-381 52l10 90l381 -48z" />
    <glyph glyph-name="R" unicode="R" horiz-adv-x="649" 
d="M518 -32l-197 313c-41 -4 -77 -2 -118 -2l-30 -279h-127l75 707h247c125 0 229 -56 229 -184c0 -98 -49 -174 -145 -212l183 -284zM213 371h75c105 0 178 36 178 144c0 74 -57 92 -130 92h-99z" />
    <glyph glyph-name="S" unicode="S" horiz-adv-x="518" 
d="M197 -12c-72 0 -157 19 -216 50l46 98c58 -23 114 -41 179 -41c69 0 150 20 150 103c0 119 -299 114 -299 320c0 137 120 198 248 198c79 0 144 -15 203 -44l-45 -92c-48 20 -104 31 -160 31s-122 -15 -122 -81c0 -109 303 -125 303 -318c0 -161 -145 -224 -287 -224z
" />
    <glyph glyph-name="T" unicode="T" horiz-adv-x="582" 
d="M193 0l63 606h-231l11 101h589l-11 -101h-231l-64 -606h-126z" />
    <glyph glyph-name="U" unicode="U" horiz-adv-x="741" 
d="M341 -13c-151 0 -300 60 -277 275l47 445h127l-45 -438c-14 -131 50 -175 155 -175c108 0 180 50 195 198l44 415h123l-44 -418c-25 -238 -184 -302 -325 -302z" />
    <glyph glyph-name="V" unicode="V" horiz-adv-x="655" 
d="M192 0l-170 707h133l133 -607l297 607h130l-356 -707h-167z" />
    <glyph glyph-name="W" unicode="W" horiz-adv-x="955" 
d="M133 0l-114 707h133l84 -602l202 415l-43 187h132l119 -600l238 600h127l-294 -707h-164l-78 365l-177 -365h-165z" />
    <glyph glyph-name="X" unicode="X" horiz-adv-x="598" 
d="M-56 0l289 368l-175 339h143l116 -244l181 244h140l-265 -337l191 -370h-143l-132 273l-202 -273h-143z" />
    <glyph glyph-name="Y" unicode="Y" horiz-adv-x="585" 
d="M186 0l26 250l-197 457h143l132 -351l218 351h140l-310 -454l-26 -253h-126z" />
    <glyph glyph-name="Z" unicode="Z" horiz-adv-x="551" 
d="M-22 0l10 92l401 508h-322l11 107h474l-9 -86l-404 -514h371l-11 -107h-521z" />
    <glyph glyph-name="bracketleft" unicode="[" horiz-adv-x="352" 
d="M30 -220l102 974h222l-9 -102h-100l-82 -770h100l-11 -102h-222z" />
    <glyph glyph-name="backslash" unicode="\" horiz-adv-x="432" 
d="M229 -62l-146 831h119l146 -831h-119z" />
    <glyph glyph-name="bracketright" unicode="]" horiz-adv-x="352" 
d="M-11 -220l11 102h100l81 770h-100l10 102h224l-103 -974h-223z" />
    <glyph glyph-name="asciicircum" unicode="^" horiz-adv-x="518" 
d="M12 294l210 413h144l110 -413h-119l-73 321l-154 -321h-118z" />
    <glyph glyph-name="underscore" unicode="_" horiz-adv-x="500" 
d="M-5 -183l10 102h500l-11 -102h-499z" />
    <glyph glyph-name="grave" unicode="`" horiz-adv-x="540" 
d="M407 598l-239 121l52 101l231 -137z" />
    <glyph glyph-name="a" unicode="a" horiz-adv-x="539" 
d="M157 -12c-96 0 -129 69 -129 173c0 204 136 391 347 391c34 0 85 -4 120 -10l-56 -542h-123l9 82c-61 -58 -115 -94 -168 -94zM190 97c40 0 115 60 145 86l28 265c-4 2 -11 2 -19 2c-113 0 -193 -137 -193 -277c0 -41 10 -76 39 -76z" />
    <glyph glyph-name="b" unicode="b" horiz-adv-x="542" 
d="M213 -10c-63 0 -123 13 -167 25l77 739h121l-25 -260c36 27 98 60 154 60c95 0 140 -54 140 -169c0 -173 -82 -395 -300 -395zM219 88c129 0 171 190 171 295c0 53 -21 69 -49 69c-40 0 -95 -29 -133 -51l-33 -308c16 -3 25 -5 44 -5z" />
    <glyph glyph-name="c" unicode="c" horiz-adv-x="446" 
d="M184 -12c-115 0 -155 83 -155 199c0 201 102 374 288 374c64 0 115 -25 141 -48l-57 -82c-27 18 -52 30 -85 30c-126 0 -160 -162 -160 -258c0 -70 18 -109 44 -109c45 0 82 11 164 52l40 -85c-50 -30 -115 -73 -220 -73z" />
    <glyph glyph-name="d" unicode="d" horiz-adv-x="537" 
d="M157 -12c-99 0 -128 76 -128 180c0 222 137 377 330 383h15l21 204h123l-79 -755h-123l9 82c-60 -57 -115 -94 -168 -94zM190 97c43 0 115 60 145 86l28 267h-23c-100 2 -188 -118 -188 -264c0 -65 12 -89 38 -89z" />
    <glyph glyph-name="e" unicode="e" horiz-adv-x="475" 
d="M180 -12c-125 0 -151 108 -151 208c0 184 91 365 285 365c115 0 164 -67 164 -139c0 -93 -85 -136 -169 -164l-154 -53c-1 -6 -1 -13 -1 -18c0 -65 15 -96 54 -96c43 0 101 23 166 58l43 -84c-70 -44 -140 -77 -237 -77zM165 302l138 52c38 15 57 37 57 63
c0 31 -24 46 -49 46c-79 0 -127 -69 -146 -161z" />
    <glyph glyph-name="f" unicode="f" horiz-adv-x="338" 
d="M34 -220l70 673h-80l11 93h79l4 31c15 165 109 198 221 198c46 0 111 -14 148 -28l-33 -96c-31 7 -69 17 -117 17c-63 0 -92 -25 -97 -89l-4 -33h120l-10 -93h-119l-72 -673h-121z" />
    <glyph glyph-name="g" unicode="g" horiz-adv-x="539" 
d="M165 -229c-80 0 -156 16 -192 30l30 100c45 -14 106 -26 148 -26c91 0 153 14 164 116l10 90c-62 -59 -113 -93 -168 -93c-96 0 -128 63 -128 174c0 218 145 390 346 390c34 0 85 -4 120 -10l-59 -570c-17 -164 -156 -201 -271 -201zM190 97c40 0 115 60 145 86l28 265
c-5 2 -13 2 -19 2c-105 0 -192 -126 -192 -275c0 -54 12 -78 38 -78z" />
    <glyph glyph-name="h" unicode="h" horiz-adv-x="571" 
d="M46 0l79 755h123l-29 -280c40 29 119 85 187 85c99 0 118 -41 105 -166l-42 -394h-122l40 371c6 55 6 72 -28 72c-38 0 -127 -55 -151 -68l-39 -375h-123z" />
    <glyph glyph-name="i" unicode="i" horiz-adv-x="272" 
d="M40 0l57 546h123l-58 -546h-122zM167 629l-79 87l98 86l79 -86z" />
    <glyph glyph-name="j" unicode="j" horiz-adv-x="272" 
d="M-54 -220c-34 0 -78 9 -104 20l32 97c15 -4 48 -12 76 -12c63 0 85 33 93 109l58 552h123l-58 -553c-18 -175 -106 -213 -220 -213zM165 629l-79 87l98 86l79 -86z" />
    <glyph glyph-name="k" unicode="k" horiz-adv-x="503" 
d="M44 0l79 755h123l-50 -468l191 259h136l-198 -255l167 -286l-132 -12l-165 282l-29 -275h-122z" />
    <glyph glyph-name="l" unicode="l" horiz-adv-x="285" 
d="M44 0l79 755h123l-80 -755h-122z" />
    <glyph glyph-name="m" unicode="m" horiz-adv-x="850" 
d="M44 0l58 546h122l-7 -70c40 28 113 84 178 84c72 0 99 -23 105 -81c41 29 122 81 184 81c98 0 117 -41 104 -166l-42 -394h-122l40 371c5 55 6 72 -27 72c-34 0 -118 -52 -140 -63l-40 -380h-123l40 371c6 55 7 71 -27 71s-117 -54 -141 -67l-40 -375h-122z" />
    <glyph glyph-name="n" unicode="n" horiz-adv-x="571" 
d="M44 0l58 546h122l-7 -71c40 29 119 85 187 85c98 0 118 -41 105 -166l-42 -394h-123l40 371c6 55 6 72 -27 72c-38 0 -128 -55 -151 -68l-40 -375h-122z" />
    <glyph glyph-name="o" unicode="o" horiz-adv-x="533" 
d="M217 -12c-121 0 -188 87 -188 204c0 215 109 367 289 367c126 0 187 -94 187 -200c0 -152 -65 -371 -288 -371zM239 90c69 0 142 96 142 263c0 81 -32 107 -88 107c-70 0 -138 -104 -138 -259c0 -60 21 -111 84 -111z" />
    <glyph glyph-name="p" unicode="p" horiz-adv-x="542" 
d="M21 -220l80 766h123l-6 -53c36 27 99 59 155 59c93 0 139 -54 139 -170c0 -172 -80 -392 -299 -392c-18 0 -33 1 -47 3l-23 -213h-122zM219 88c129 0 171 188 171 293c0 53 -23 69 -49 69c-41 0 -96 -30 -133 -51l-32 -306c16 -3 25 -5 43 -5z" />
    <glyph glyph-name="q" unicode="q" horiz-adv-x="539" 
d="M293 -220l32 301c-62 -56 -114 -93 -168 -93c-96 0 -128 64 -128 175c0 219 145 389 346 389c34 0 85 -4 120 -10l-79 -762h-123zM190 97c40 0 115 60 145 86l28 265s-7 2 -19 2c-105 0 -192 -125 -192 -274c0 -56 12 -79 38 -79z" />
    <glyph glyph-name="r" unicode="r" horiz-adv-x="373" 
d="M44 0l58 546h122l-7 -69c39 31 97 79 158 79c12 0 16 0 32 -3l-22 -118c-17 4 -27 4 -44 4c-41 0 -100 -45 -134 -72l-41 -367h-122z" />
    <glyph glyph-name="s" unicode="s" horiz-adv-x="443" 
d="M175 -10c-53 0 -118 7 -171 32l33 97c47 -16 101 -27 148 -27c40 0 93 12 93 58c0 75 -210 106 -210 248c0 120 92 160 197 160c57 0 130 -14 163 -31l-31 -91c-45 13 -85 23 -131 23c-40 0 -80 -7 -80 -51c0 -78 212 -117 212 -257c0 -137 -133 -161 -223 -161z" />
    <glyph glyph-name="t" unicode="t" horiz-adv-x="393" 
d="M191 -12c-90 0 -138 28 -122 167l32 297h-80l11 94h81l11 112h122l-12 -112h151l-9 -94h-152l-33 -304c-5 -42 1 -53 27 -53c28 0 82 12 121 26l23 -92c-34 -17 -101 -41 -171 -41z" />
    <glyph glyph-name="u" unicode="u" horiz-adv-x="564" 
d="M171 -12c-95 0 -129 36 -115 172l41 386h123l-40 -375c-6 -54 1 -73 32 -73c49 0 117 48 145 68l41 380h122l-58 -546h-122l8 71c-42 -35 -108 -83 -177 -83z" />
    <glyph glyph-name="v" unicode="v" horiz-adv-x="485" 
d="M111 0l-85 546h131l52 -435l118 246c24 50 40 110 40 155c0 12 -1 23 -3 34h130c3 -11 3 -22 3 -34c0 -58 -23 -123 -49 -174l-170 -338h-167z" />
    <glyph glyph-name="w" unicode="w" horiz-adv-x="795" 
d="M104 0l-78 546h131l46 -435l156 291l-22 144h130l52 -435c19 33 118 246 118 246c25 50 40 109 40 155c0 11 -1 23 -3 34h130c2 -11 3 -23 3 -34c0 -58 -24 -124 -49 -174l-171 -338h-166l-40 256l-140 -256h-137z" />
    <glyph glyph-name="x" unicode="x" horiz-adv-x="481" 
d="M-48 0l222 284l-125 262h132l74 -162l124 162h129l-203 -263l132 -283h-133l-81 182l-138 -182h-133z" />
    <glyph glyph-name="y" unicode="y" horiz-adv-x="485" 
d="M38 -220l111 220h-41l-82 546h131l51 -435c19 33 119 246 119 246c25 50 40 110 40 155c0 12 -1 23 -3 34h131c2 -11 3 -23 3 -34c0 -57 -24 -123 -49 -174l-282 -558h-129z" />
    <glyph glyph-name="z" unicode="z" horiz-adv-x="446" 
d="M-17 0l11 89l301 356h-240l13 101h385l-10 -87l-298 -359h262l-11 -100h-413z" />
    <glyph glyph-name="braceleft" unicode="{" horiz-adv-x="351" 
d="M248 -221c-126 0 -216 36 -186 178l41 194c6 30 -13 72 -72 72l11 99c58 0 87 41 87 74v196c0 136 95 179 223 179h41l-11 -103h-37c-64 0 -94 -32 -94 -85l2 -178c1 -73 -33 -112 -85 -130v-2c47 -20 74 -57 58 -131l-40 -178c-11 -50 12 -82 76 -82h37l-11 -103h-40z
" />
    <glyph glyph-name="bar" unicode="|" horiz-adv-x="267" 
d="M12 -220l103 974h122l-102 -974h-123z" />
    <glyph glyph-name="braceright" unicode="}" horiz-adv-x="351" 
d="M-42 -221l11 103h37c63 0 93 33 93 82l-2 178c-1 74 35 110 85 131v2c-47 18 -73 57 -57 130l39 178c12 52 -12 84 -75 84h-38l12 104h40c127 0 215 -43 186 -179l-41 -196c-7 -33 13 -74 71 -74l-11 -99c-58 0 -86 -42 -86 -72v-194c0 -142 -97 -178 -224 -178h-40z" />
    <glyph glyph-name="asciitilde" unicode="~" horiz-adv-x="509" 
d="M349 262c-95 0 -134 60 -197 60c-34 0 -60 -13 -85 -32l-50 79c40 39 94 75 151 75c95 0 120 -61 191 -61c25 0 49 1 90 33l53 -72c-36 -44 -100 -82 -153 -82z" />
    <glyph glyph-name="uni00A0" unicode="&#xa0;" horiz-adv-x="235" 
 />
    <glyph glyph-name="exclamdown" unicode="&#xa1;" horiz-adv-x="271" 
d="M28 -161l36 345l24 167h109l-11 -167l-36 -345h-122zM87 430l12 116h128l-11 -116h-129z" />
    <glyph glyph-name="cent" unicode="&#xa2;" horiz-adv-x="531" 
d="M217 -54l12 84c-121 16 -183 64 -183 192c0 160 71 267 234 293l5 83h116l-11 -78c35 -4 70 -11 102 -29l-43 -89c-39 14 -72 19 -113 19c-117 0 -164 -73 -164 -183c0 -102 70 -114 156 -114c36 0 73 6 110 12l9 -93c-35 -9 -72 -16 -109 -17l-5 -80h-116z" />
    <glyph glyph-name="sterling" unicode="&#xa3;" horiz-adv-x="507" 
d="M29 0l10 90c44 22 79 69 85 118h-86l10 94h89c2 20 3 41 4 61c7 186 159 206 307 208l-6 -102c-86 -7 -173 -3 -177 -113c-1 -18 -3 -36 -6 -54h163l-10 -94h-174c-7 -46 -27 -80 -64 -108h269l-10 -100h-404z" />
    <glyph glyph-name="currency" unicode="&#xa4;" horiz-adv-x="510" 
d="M84 128l-53 52l63 62c-25 28 -41 67 -41 110c0 44 15 82 40 110l-61 62l52 51l68 -68c30 14 66 24 103 24s73 -8 104 -24l67 69l53 -53l-61 -61c24 -28 39 -67 39 -110s-15 -82 -41 -110l63 -62l-52 -52l-69 69c-30 -15 -66 -23 -103 -23s-72 8 -102 23zM255 271
c60 0 81 38 81 81s-23 82 -81 82c-57 0 -82 -38 -82 -82c0 -42 26 -81 82 -81z" />
    <glyph glyph-name="yen" unicode="&#xa5;" horiz-adv-x="639" 
d="M621 546l-145 -210h123l-11 -99h-182l-46 -68l-4 -39h222l-11 -100h-221l-3 -30h-116l3 30h-209l10 100h209l3 37l-30 70h-170l9 99h116l-92 210h133l108 -277l174 277h130z" />
    <glyph glyph-name="brokenbar" unicode="&#xa6;" horiz-adv-x="279" 
d="M30 -220l38 361h123l-38 -361h-123zM95 392l38 362h122l-38 -362h-122z" />
    <glyph glyph-name="section" unicode="&#xa7;" horiz-adv-x="527" 
d="M89 -216c-41 0 -87 13 -118 40l41 92c21 -17 56 -35 82 -35c44 0 50 74 50 106c0 29 -3 58 -7 87l-44 320c-3 21 -4 43 -4 64c0 186 140 302 320 302c56 0 114 -16 156 -53l-55 -80c-29 23 -68 39 -105 39c-47 0 -52 -48 -52 -84c0 -18 2 -36 5 -54l47 -316
c7 -39 10 -83 10 -122c0 -190 -145 -306 -326 -306zM228 -110c56 38 79 111 79 177c0 23 -2 46 -5 70l-48 345c-2 18 -3 35 -3 52c0 38 3 80 18 114l-2 3c-56 -38 -71 -111 -71 -175c0 -19 1 -37 3 -56l49 -348c3 -19 4 -39 4 -58c0 -45 -6 -82 -26 -122z" />
    <glyph glyph-name="dieresis" unicode="&#xa8;" horiz-adv-x="453" 
d="M189 632l-71 80l88 79l71 -79zM406 632l-71 80l87 79l72 -79z" />
    <glyph glyph-name="copyright" unicode="&#xa9;" horiz-adv-x="831" 
d="M413 51c-132 0 -199 84 -191 196c9 131 93 222 233 222c58 0 82 -7 125 -29l-32 -66c-34 16 -61 18 -100 18c-74 0 -134 -44 -141 -139c-5 -84 50 -123 124 -123c39 0 58 4 98 16l15 -71c-47 -16 -74 -24 -131 -24zM368 -113c-197 0 -308 127 -308 313
c0 246 165 419 404 419c204 0 308 -133 308 -313c0 -240 -158 -419 -404 -419zM380 -32c199 0 303 149 303 327c0 143 -80 243 -235 243c-194 0 -301 -146 -301 -324c0 -136 74 -246 233 -246z" />
    <glyph glyph-name="ordfeminine" unicode="&#xaa;" horiz-adv-x="409" 
d="M154 388c-58 0 -75 49 -75 110c0 124 87 214 204 214c20 0 55 -3 77 -7l-32 -311h-82l5 43c-32 -30 -65 -49 -97 -49zM178 456c21 0 61 28 79 43l15 146l-10 1c-53 0 -101 -63 -101 -144c0 -37 7 -46 17 -46zM52 289l7 67h294l-8 -67h-293z" />
    <glyph glyph-name="guillemotleft" unicode="&#xab;" horiz-adv-x="446" 
d="M111 48l-94 224l140 224l90 -33l-109 -191l68 -187zM321 48l-93 224l140 224l89 -33l-109 -191l68 -187z" />
    <glyph glyph-name="logicalnot" unicode="&#xac;" horiz-adv-x="600" 
d="M409 96l16 157h-381l10 104h494l-27 -261h-112z" />
    <glyph glyph-name="registered" unicode="&#xae;" horiz-adv-x="831" 
d="M593 264c-44 3 -80 24 -116 65c-15 15 -50 58 -63 75c-6 -1 -16 -1 -23 -1h-27v-134h-85v387h138c81 0 146 -28 146 -122c0 -54 -28 -88 -67 -105c34 -43 60 -78 115 -97zM408 94c-220 0 -346 147 -346 361c0 223 149 357 363 357c228 0 344 -154 344 -359
c0 -217 -137 -359 -361 -359zM411 173c180 0 265 121 265 281c0 161 -92 279 -259 279c-174 0 -262 -118 -262 -277c0 -153 84 -283 256 -283zM364 470h30c52 0 80 14 80 61c0 42 -21 58 -67 58h-43v-119z" />
    <glyph glyph-name="macron" unicode="&#xaf;" horiz-adv-x="512" 
d="M156 648l11 105h290l-11 -105h-290z" />
    <glyph glyph-name="macron" unicode="&#x2c9;" horiz-adv-x="512" 
d="M156 648l11 105h290l-11 -105h-290z" />
    <glyph glyph-name="degree" unicode="&#xb0;" horiz-adv-x="338" 
d="M150 403c-101 0 -152 56 -142 158c10 96 88 156 177 156c95 0 154 -59 144 -156c-11 -98 -87 -158 -179 -158zM160 487c38 0 63 21 69 74c5 48 -16 72 -54 72s-63 -23 -68 -72c-5 -50 16 -74 53 -74z" />
    <glyph glyph-name="plusminus" unicode="&#xb1;" horiz-adv-x="600" 
d="M230 124l19 168l-169 -1l10 104l169 -3l17 170h106l-23 -172l173 5l-11 -104l-170 1l-15 -168h-106zM50 1l9 104h442l-10 -104h-441z" />
    <glyph glyph-name="twosuperior" unicode="&#xb2;" horiz-adv-x="306" 
d="M-7 415l7 66c91 61 183 127 189 178c2 27 -18 43 -46 43c-30 0 -59 -11 -81 -27c-7 19 -19 47 -27 66c36 28 77 45 135 45c82 0 127 -50 120 -116c-7 -74 -86 -131 -169 -175h155l-8 -80h-275z" />
    <glyph glyph-name="threesuperior" unicode="&#xb3;" horiz-adv-x="304" 
d="M112 410c-56 0 -88 9 -113 16c6 20 17 54 24 74c31 -7 57 -11 88 -11c42 0 64 17 67 44c4 38 -24 48 -86 50l4 47c60 5 78 21 81 51c1 20 -15 32 -38 32c-31 0 -52 -5 -77 -16c-3 19 -11 47 -14 66c32 16 74 25 109 25c79 0 127 -31 120 -97c-3 -31 -24 -63 -57 -77
c40 -13 63 -43 58 -89c-8 -86 -83 -115 -166 -115z" />
    <glyph glyph-name="acute" unicode="&#xb4;" horiz-adv-x="531" 
d="M222 600l-37 84l245 139l45 -99z" />
    <glyph glyph-name="mu" unicode="&#xb5;" horiz-adv-x="568" 
d="M20 -220l81 766h123l-40 -374c-6 -53 2 -70 33 -70c50 0 117 52 145 68l39 376h123l-58 -546h-122l8 71c-40 -31 -94 -78 -159 -83c-10 0 -20 1 -28 3l-22 -211h-123z" />
    <glyph glyph-name="paragraph" unicode="&#xb6;" horiz-adv-x="602" 
d="M263 -220c-34 0 -63 7 -94 18l32 95c21 -4 53 -6 75 -6c71 0 87 46 94 108l74 712h122l-75 -713c-14 -138 -88 -214 -228 -214zM219 248c-122 0 -184 68 -184 189c0 212 113 270 304 270h41l-48 -459h-113z" />
    <glyph glyph-name="periodcentered" unicode="&#xb7;" horiz-adv-x="275" 
d="M134 287l-81 91l100 90l83 -90z" />
    <glyph glyph-name="cedilla" unicode="&#xb8;" horiz-adv-x="477" 
d="M139 -261l-34 72c35 21 71 43 75 73c2 21 -4 43 -11 65h102c10 -23 17 -48 14 -74c-6 -63 -73 -107 -146 -136z" />
    <glyph glyph-name="onesuperior" unicode="&#xb9;" horiz-adv-x="245" 
d="M75 415l31 287h-79l7 77c46 2 135 4 181 5l-39 -369h-101z" />
    <glyph glyph-name="ordmasculine" unicode="&#xba;" horiz-adv-x="409" 
d="M198 384c-78 0 -130 52 -130 134c0 117 66 200 173 200c84 0 131 -53 131 -135c0 -105 -58 -199 -174 -199zM210 452c60 0 77 74 77 127c0 39 -16 71 -57 71c-61 0 -78 -73 -78 -125c0 -41 16 -73 58 -73zM44 291l7 65h295l-8 -65h-294z" />
    <glyph glyph-name="guillemotright" unicode="&#xbb;" horiz-adv-x="446" 
d="M103 48l-86 37l106 187l-69 191l97 33l93 -224zM314 48l-87 37l107 187l-69 191l97 33l92 -224z" />
    <glyph glyph-name="onequarter" unicode="&#xbc;" horiz-adv-x="791" 
d="M89 415l31 287h-79l7 77c46 2 135 4 181 5l-39 -369h-101zM83 67l-45 54l592 540l45 -52zM595 0l8 83h-161l8 75l135 210h140l-23 -214h55l-8 -71h-54l-9 -83h-91zM519 154h92l17 161z" />
    <glyph glyph-name="onehalf" unicode="&#xbd;" horiz-adv-x="782" 
d="M457 0l7 66c91 61 183 127 189 178c2 27 -18 43 -46 43c-30 0 -59 -11 -81 -27l-27 66c36 28 77 46 135 46c82 0 127 -51 120 -117c-7 -74 -86 -131 -169 -175h155l-8 -80h-275zM89 415l31 287h-79l7 77c46 2 135 4 181 5l-39 -369h-101zM79 67l-45 54l592 540l45 -52z
" />
    <glyph glyph-name="threequarters" unicode="&#xbe;" horiz-adv-x="788" 
d="M124 410c-56 0 -88 9 -113 16c6 20 17 54 24 74c31 -7 57 -11 88 -11c42 0 64 17 67 44c4 38 -24 48 -86 50l4 47c60 5 78 21 81 51c1 20 -15 32 -38 32c-31 0 -52 -5 -77 -16c-3 19 -11 47 -14 66c32 16 74 25 109 25c79 0 127 -31 120 -97c-3 -31 -24 -63 -57 -77
c40 -13 63 -43 58 -89c-8 -86 -83 -115 -166 -115zM94 67l-45 54l592 540l45 -52zM592 0l8 83h-161l8 75l135 210h140l-23 -214h55l-8 -71h-54l-9 -83h-91zM516 154h92l17 161z" />
    <glyph glyph-name="questiondown" unicode="&#xbf;" horiz-adv-x="366" 
d="M258 -164c-112 8 -252 46 -252 183c0 163 181 184 188 293c1 14 -1 30 -3 44l103 15c6 -18 9 -37 9 -57c0 -153 -168 -194 -168 -280c0 -72 101 -91 157 -95zM177 429l13 117h127l-11 -117h-129z" />
    <glyph glyph-name="Agrave" unicode="&#xc0;" horiz-adv-x="647" 
d="M-54 0l352 707h167l158 -707h-130l-49 236h-256l-113 -236h-129zM235 331h189l-39 204l-14 98l-41 -98zM461 735l-249 65l32 102l240 -86z" />
    <glyph glyph-name="Aacute" unicode="&#xc1;" horiz-adv-x="647" 
d="M-54 0l352 707h167l158 -707h-130l-49 236h-256l-113 -236h-129zM235 331h189l-39 204l-14 98l-41 -98zM300 737l-22 80l249 86l28 -102z" />
    <glyph glyph-name="Acircumflex" unicode="&#xc2;" horiz-adv-x="647" 
d="M-54 0l352 707h167l158 -707h-130l-49 236h-256l-113 -236h-129zM235 331h189l-39 204l-14 98l-41 -98zM530 736l-140 57l-151 -54l-34 82l195 83l172 -83z" />
    <glyph glyph-name="Atilde" unicode="&#xc3;" horiz-adv-x="647" 
d="M-54 0l352 707h167l158 -707h-130l-49 236h-256l-113 -236h-129zM235 331h189l-39 204l-14 98l-41 -98zM439 745c-44 0 -86 38 -120 38c-33 0 -53 -10 -77 -27l-43 63c30 30 70 61 126 61c52 0 93 -37 125 -37c33 0 58 12 84 26l37 -65c-26 -26 -65 -59 -132 -59z" />
    <glyph glyph-name="Adieresis" unicode="&#xc4;" horiz-adv-x="647" 
d="M-54 0l352 707h167l158 -707h-130l-49 236h-256l-113 -236h-129zM235 331h189l-39 204l-14 98l-41 -98zM270 748l-67 78l84 76l67 -76zM496 748l-68 78l84 76l68 -76z" />
    <glyph glyph-name="Aring" unicode="&#xc5;" horiz-adv-x="647" 
d="M-54 0l340 685c-22 18 -33 44 -33 74c0 85 67 138 149 138c65 0 123 -36 123 -105c0 -44 -21 -82 -54 -106l152 -686h-130l-49 236h-254l-114 -236h-130zM384 724c35 0 59 22 59 57c0 28 -23 46 -49 46c-35 0 -58 -21 -58 -56c0 -30 20 -47 48 -47zM235 331h189l-53 302z
" />
    <glyph glyph-name="AE" unicode="&#xc6;" horiz-adv-x="925" 
d="M-69 0l455 707h519l-10 -100h-304l-21 -204h282l-11 -96h-281l-22 -207h326l-10 -100h-452l35 307h-179l-188 -307h-139zM314 402h134l23 205h-30z" />
    <glyph glyph-name="Ccedilla" unicode="&#xc7;" horiz-adv-x="607" 
d="M373 -10c-199 0 -338 104 -338 314c0 261 151 410 411 410c71 0 123 -9 179 -32l-39 -95c-56 18 -91 22 -152 22c-174 0 -270 -119 -270 -288c0 -150 97 -223 238 -223c56 0 105 3 158 19l21 -98c-70 -23 -133 -29 -208 -29zM292 -261l-34 72c35 21 71 43 75 73
c2 21 -4 43 -11 65h102c10 -23 17 -48 14 -74c-6 -63 -73 -107 -146 -136z" />
    <glyph glyph-name="Egrave" unicode="&#xc8;" horiz-adv-x="574" 
d="M46 0l75 707h429l-10 -100h-304l-21 -204h281l-10 -96h-281l-22 -207h327l-11 -100h-453zM426 735l-249 65l32 102l240 -86z" />
    <glyph glyph-name="Eacute" unicode="&#xc9;" horiz-adv-x="574" 
d="M264 737l-22 80l249 86l28 -102zM46 0l75 707h429l-10 -100h-304l-21 -204h281l-10 -96h-281l-22 -207h327l-11 -100h-453z" />
    <glyph glyph-name="Ecircumflex" unicode="&#xca;" horiz-adv-x="574" 
d="M487 736l-140 57l-151 -54l-34 82l195 83l172 -83zM46 0l75 707h429l-10 -100h-304l-21 -204h281l-10 -96h-281l-22 -207h327l-11 -100h-453z" />
    <glyph glyph-name="Edieresis" unicode="&#xcb;" horiz-adv-x="574" 
d="M230 748l-67 78l84 76l67 -76zM456 748l-68 78l84 76l68 -76zM46 0l75 707h429l-10 -100h-304l-21 -204h281l-10 -96h-281l-22 -207h327l-11 -100h-453z" />
    <glyph glyph-name="Igrave" unicode="&#xcc;" horiz-adv-x="293" 
d="M46 0l75 707h125l-74 -707h-126zM253 735l-249 65l32 102l240 -86z" />
    <glyph glyph-name="Iacute" unicode="&#xcd;" horiz-adv-x="293" 
d="M46 0l75 707h125l-74 -707h-126zM119 737l-22 80l249 86l28 -102z" />
    <glyph glyph-name="Icircumflex" unicode="&#xce;" horiz-adv-x="293" 
d="M46 0l75 707h125l-74 -707h-126zM337 736l-140 57l-151 -54l-34 82l195 83l172 -83z" />
    <glyph glyph-name="Idieresis" unicode="&#xcf;" horiz-adv-x="293" 
d="M46 0l75 707h125l-74 -707h-126zM77 748l-67 78l84 76l67 -76zM303 748l-68 78l84 76l68 -76z" />
    <glyph glyph-name="Eth" unicode="&#xd0;" horiz-adv-x="736" 
d="M42 0l32 302h-77l11 101h76l32 304h221c200 0 365 -85 365 -309c0 -274 -171 -398 -433 -398h-227zM177 100h114c186 0 283 102 283 289c0 160 -103 218 -250 218h-93l-22 -204h146l-11 -101h-145z" />
    <glyph glyph-name="Ntilde" unicode="&#xd1;" horiz-adv-x="751" 
d="M46 0l75 707h158l245 -565l55 565h126l-75 -707h-164l-238 550l-56 -550h-126zM487 745c-44 0 -86 38 -120 38c-33 0 -53 -10 -77 -27l-43 63c30 30 70 61 126 61c52 0 93 -37 125 -37c33 0 58 12 84 26l37 -65c-26 -26 -65 -59 -132 -59z" />
    <glyph glyph-name="Ograve" unicode="&#xd2;" horiz-adv-x="797" 
d="M352 -12c-199 0 -317 116 -317 313c0 255 155 417 410 417c199 0 318 -112 318 -310c0 -257 -152 -420 -411 -420zM366 90c182 0 267 136 267 306c0 133 -68 220 -205 220c-178 0 -265 -134 -265 -303c0 -131 65 -223 203 -223zM519 735l-249 65l32 102l240 -86z" />
    <glyph glyph-name="Oacute" unicode="&#xd3;" horiz-adv-x="797" 
d="M347 737l-22 80l249 86l28 -102zM352 -12c-199 0 -317 116 -317 313c0 255 155 417 410 417c199 0 318 -112 318 -310c0 -257 -152 -420 -411 -420zM366 90c182 0 267 136 267 306c0 133 -68 220 -205 220c-178 0 -265 -134 -265 -303c0 -131 65 -223 203 -223z" />
    <glyph glyph-name="Ocircumflex" unicode="&#xd4;" horiz-adv-x="797" 
d="M583 736l-140 57l-151 -54l-34 82l195 83l172 -83zM352 -12c-199 0 -317 116 -317 313c0 255 155 417 410 417c199 0 318 -112 318 -310c0 -257 -152 -420 -411 -420zM366 90c182 0 267 136 267 306c0 133 -68 220 -205 220c-178 0 -265 -134 -265 -303
c0 -131 65 -223 203 -223z" />
    <glyph glyph-name="Otilde" unicode="&#xd5;" horiz-adv-x="797" 
d="M352 -12c-199 0 -317 116 -317 313c0 255 155 417 410 417c199 0 318 -112 318 -310c0 -257 -152 -420 -411 -420zM366 90c182 0 267 136 267 306c0 133 -68 220 -205 220c-178 0 -265 -134 -265 -303c0 -131 65 -223 203 -223zM503 745c-44 0 -86 38 -120 38
c-33 0 -53 -10 -77 -27l-43 63c30 30 70 61 126 61c52 0 93 -37 125 -37c33 0 58 12 84 26l37 -65c-26 -26 -65 -59 -132 -59z" />
    <glyph glyph-name="Odieresis" unicode="&#xd6;" horiz-adv-x="797" 
d="M325 748l-67 78l84 76l67 -76zM551 748l-68 78l84 76l68 -76zM352 -12c-199 0 -317 116 -317 313c0 255 155 417 410 417c199 0 318 -112 318 -310c0 -257 -152 -420 -411 -420zM366 90c182 0 267 136 267 306c0 133 -68 220 -205 220c-178 0 -265 -134 -265 -303
c0 -131 65 -223 203 -223z" />
    <glyph glyph-name="multiply" unicode="&#xd7;" horiz-adv-x="577" 
d="M427 68l-149 167l-176 -163l-67 74l180 161l-145 160l79 74l143 -164l181 165l67 -74l-187 -163l153 -163z" />
    <glyph glyph-name="Oslash" unicode="&#xd8;" horiz-adv-x="797" 
d="M57 -38l-52 56l84 82c-39 52 -59 119 -59 201c0 256 156 417 411 417c87 0 159 -21 212 -62l88 85l51 -57l-86 -84c34 -50 53 -115 53 -192c0 -258 -152 -420 -411 -420c-84 0 -153 20 -205 59zM183 192l381 378c-34 30 -80 46 -141 46c-178 0 -264 -135 -264 -303
c0 -46 8 -87 24 -121zM362 90c181 0 267 136 267 306c0 41 -8 78 -22 109l-376 -374c32 -26 75 -41 131 -41z" />
    <glyph glyph-name="Ugrave" unicode="&#xd9;" horiz-adv-x="741" 
d="M341 -13c-151 0 -300 60 -277 275l47 445h127l-45 -438c-14 -131 50 -175 155 -175c108 0 180 50 195 198l44 415h123l-44 -418c-25 -238 -184 -302 -325 -302zM508 735l-249 65l32 102l240 -86z" />
    <glyph glyph-name="Uacute" unicode="&#xda;" horiz-adv-x="741" 
d="M338 737l-22 80l249 86l28 -102zM341 -13c-151 0 -300 60 -277 275l47 445h127l-45 -438c-14 -131 50 -175 155 -175c108 0 180 50 195 198l44 415h123l-44 -418c-25 -238 -184 -302 -325 -302z" />
    <glyph glyph-name="Ucircumflex" unicode="&#xdb;" horiz-adv-x="741" 
d="M559 736l-140 57l-151 -54l-34 82l195 83l172 -83zM341 -13c-151 0 -300 60 -277 275l47 445h127l-45 -438c-14 -131 50 -175 155 -175c108 0 180 50 195 198l44 415h123l-44 -418c-25 -238 -184 -302 -325 -302z" />
    <glyph glyph-name="Udieresis" unicode="&#xdc;" horiz-adv-x="741" 
d="M300 748l-67 78l84 76l67 -76zM526 748l-68 78l84 76l68 -76zM341 -13c-151 0 -300 60 -277 275l47 445h127l-45 -438c-14 -131 50 -175 155 -175c108 0 180 50 195 198l44 415h123l-44 -418c-25 -238 -184 -302 -325 -302z" />
    <glyph glyph-name="Yacute" unicode="&#xdd;" horiz-adv-x="585" 
d="M186 0l26 250l-197 457h143l132 -351l218 351h140l-310 -454l-26 -253h-126zM280 738l-22 80l249 86l28 -102z" />
    <glyph glyph-name="Thorn" unicode="&#xde;" horiz-adv-x="580" 
d="M42 0l74 707h127l-12 -111h115c132 0 238 -55 238 -203c0 -195 -145 -272 -324 -272c-17 0 -40 0 -57 1l12 100h25c134 -1 213 39 213 162c0 84 -51 112 -129 112h-103l-52 -496h-127z" />
    <glyph glyph-name="germandbls" unicode="&#xdf;" horiz-adv-x="622" 
d="M20 -220l82 780c17 163 115 215 252 215c85 0 186 -42 186 -155c0 -114 -134 -162 -134 -215c0 -70 183 -105 183 -252c0 -125 -118 -164 -219 -164c-64 0 -112 11 -152 26l25 96c34 -9 77 -21 119 -21c55 0 106 19 106 53c0 91 -178 111 -178 245c0 95 130 146 130 226
c0 41 -42 58 -78 58c-85 0 -112 -48 -118 -113l-82 -779h-122z" />
    <glyph glyph-name="agrave" unicode="&#xe0;" horiz-adv-x="539" 
d="M157 -12c-96 0 -129 69 -129 173c0 204 136 391 347 391c34 0 85 -4 120 -10l-56 -542h-123l9 82c-61 -58 -115 -94 -168 -94zM190 97c40 0 115 60 145 86l28 265c-4 2 -11 2 -19 2c-113 0 -193 -137 -193 -277c0 -41 10 -76 39 -76zM447 598l-239 121l52 101l231 -137z
" />
    <glyph glyph-name="aacute" unicode="&#xe1;" horiz-adv-x="539" 
d="M157 -12c-96 0 -129 69 -129 173c0 204 136 391 347 391c34 0 85 -4 120 -10l-56 -542h-123l9 82c-61 -58 -115 -94 -168 -94zM190 97c40 0 115 60 145 86l28 265c-4 2 -11 2 -19 2c-113 0 -193 -137 -193 -277c0 -41 10 -76 39 -76zM289 600l-37 84l245 139l45 -99z" />
    <glyph glyph-name="acircumflex" unicode="&#xe2;" horiz-adv-x="539" 
d="M157 -12c-96 0 -129 69 -129 173c0 204 136 391 347 391c34 0 85 -4 120 -10l-56 -542h-123l9 82c-61 -58 -115 -94 -168 -94zM190 97c40 0 115 60 145 86l28 265c-4 2 -11 2 -19 2c-113 0 -193 -137 -193 -277c0 -41 10 -76 39 -76zM212 606l-51 87l221 123l188 -122
l-62 -88l-140 83z" />
    <glyph glyph-name="atilde" unicode="&#xe3;" horiz-adv-x="539" 
d="M157 -12c-96 0 -129 69 -129 173c0 204 136 391 347 391c34 0 85 -4 120 -10l-56 -542h-123l9 82c-61 -58 -115 -94 -168 -94zM190 97c40 0 115 60 145 86l28 265c-4 2 -11 2 -19 2c-113 0 -193 -137 -193 -277c0 -41 10 -76 39 -76zM435 634c-45 0 -88 41 -130 41
c-34 0 -53 -6 -83 -29l-47 68c21 22 63 63 138 63c55 0 85 -38 130 -38c34 0 61 14 89 29l39 -70c-20 -20 -64 -64 -136 -64z" />
    <glyph glyph-name="adieresis" unicode="&#xe4;" horiz-adv-x="539" 
d="M157 -12c-96 0 -129 69 -129 173c0 204 136 391 347 391c34 0 85 -4 120 -10l-56 -542h-123l9 82c-61 -58 -115 -94 -168 -94zM190 97c40 0 115 60 145 86l28 265c-4 2 -11 2 -19 2c-113 0 -193 -137 -193 -277c0 -41 10 -76 39 -76zM252 632l-71 80l88 79l71 -79z
M469 632l-71 80l87 79l72 -79z" />
    <glyph glyph-name="aring" unicode="&#xe5;" horiz-adv-x="539" 
d="M157 -12c-96 0 -129 69 -129 173c0 204 136 391 347 391c34 0 85 -4 120 -10l-56 -542h-123l9 82c-61 -58 -115 -94 -168 -94zM190 97c40 0 115 60 145 86l28 265c-4 2 -11 2 -19 2c-113 0 -193 -137 -193 -277c0 -41 10 -76 39 -76zM358 597c-64 0 -123 29 -123 99
c0 84 66 138 147 138c63 0 121 -37 121 -104c0 -85 -64 -133 -145 -133zM365 659c33 0 60 22 60 58c0 31 -22 50 -52 50c-36 0 -60 -22 -60 -58c0 -32 22 -50 52 -50z" />
    <glyph glyph-name="ae" unicode="&#xe6;" horiz-adv-x="776" 
d="M152 -12c-95 0 -127 72 -127 180c0 225 147 387 347 387c34 0 68 -3 102 -9l-6 -44c40 36 89 59 150 59c118 0 159 -63 159 -135c0 -94 -84 -137 -167 -165l-153 -52c0 -3 -1 -12 -1 -15c0 -68 16 -102 55 -102c44 0 103 23 167 56l43 -83c-70 -44 -140 -77 -237 -77
c-89 0 -125 50 -137 116c-62 -65 -128 -116 -195 -116zM186 97c39 0 114 60 144 85l29 270c-2 0 -23 1 -23 0c-100 2 -188 -120 -188 -266c0 -65 12 -89 38 -89zM468 305l135 53c38 16 58 37 58 62c0 28 -22 42 -47 42c-79 0 -129 -72 -146 -157z" />
    <glyph glyph-name="ccedilla" unicode="&#xe7;" horiz-adv-x="446" 
d="M184 -12c-115 0 -155 83 -155 199c0 201 102 374 288 374c64 0 115 -25 141 -48l-57 -82c-27 18 -52 30 -85 30c-126 0 -160 -162 -160 -258c0 -70 18 -109 44 -109c45 0 82 11 164 52l40 -85c-50 -30 -115 -73 -220 -73zM127 -261l-34 72c35 21 71 43 75 73
c2 21 -4 43 -11 65h102c10 -23 17 -48 14 -74c-6 -63 -73 -107 -146 -136z" />
    <glyph glyph-name="egrave" unicode="&#xe8;" horiz-adv-x="475" 
d="M180 -12c-125 0 -151 108 -151 208c0 184 91 365 285 365c115 0 164 -67 164 -139c0 -93 -85 -136 -169 -164l-154 -53c-1 -6 -1 -13 -1 -18c0 -65 15 -96 54 -96c43 0 101 23 166 58l43 -84c-70 -44 -140 -77 -237 -77zM165 302l138 52c38 15 57 37 57 63
c0 31 -24 46 -49 46c-79 0 -127 -69 -146 -161zM352 598l-239 121l52 101l231 -137z" />
    <glyph glyph-name="eacute" unicode="&#xe9;" horiz-adv-x="475" 
d="M219 600l-37 84l245 139l45 -99zM180 -12c-125 0 -151 108 -151 208c0 184 91 365 285 365c115 0 164 -67 164 -139c0 -93 -85 -136 -169 -164l-154 -53c-1 -6 -1 -13 -1 -18c0 -65 15 -96 54 -96c43 0 101 23 166 58l43 -84c-70 -44 -140 -77 -237 -77zM165 302l138 52
c38 15 57 37 57 63c0 31 -24 46 -49 46c-79 0 -127 -69 -146 -161z" />
    <glyph glyph-name="ecircumflex" unicode="&#xea;" horiz-adv-x="475" 
d="M156 606l-51 87l221 123l188 -122l-62 -88l-140 83zM180 -12c-125 0 -151 108 -151 208c0 184 91 365 285 365c115 0 164 -67 164 -139c0 -93 -85 -136 -169 -164l-154 -53c-1 -6 -1 -13 -1 -18c0 -65 15 -96 54 -96c43 0 101 23 166 58l43 -84
c-70 -44 -140 -77 -237 -77zM165 302l138 52c38 15 57 37 57 63c0 31 -24 46 -49 46c-79 0 -127 -69 -146 -161z" />
    <glyph glyph-name="edieresis" unicode="&#xeb;" horiz-adv-x="475" 
d="M194 632l-71 80l88 79l71 -79zM411 632l-71 80l87 79l72 -79zM180 -12c-125 0 -151 108 -151 208c0 184 91 365 285 365c115 0 164 -67 164 -139c0 -93 -85 -136 -169 -164l-154 -53c-1 -6 -1 -13 -1 -18c0 -65 15 -96 54 -96c43 0 101 23 166 58l43 -84
c-70 -44 -140 -77 -237 -77zM165 302l138 52c38 15 57 37 57 63c0 31 -24 46 -49 46c-79 0 -127 -69 -146 -161z" />
    <glyph glyph-name="igrave" unicode="&#xec;" horiz-adv-x="264" 
d="M40 0l57 546h123l-58 -546h-122zM233 598l-239 121l52 101l231 -137z" />
    <glyph glyph-name="iacute" unicode="&#xed;" horiz-adv-x="264" 
d="M93 600l-37 84l245 139l45 -99zM40 0l57 546h123l-58 -546h-122z" />
    <glyph glyph-name="icircumflex" unicode="&#xee;" horiz-adv-x="264" 
d="M22 606l-51 87l221 123l188 -122l-62 -88l-140 83zM40 0l57 546h123l-58 -546h-122z" />
    <glyph glyph-name="idieresis" unicode="&#xef;" horiz-adv-x="264" 
d="M57 632l-71 80l88 79l71 -79zM274 632l-71 80l87 79l72 -79zM40 0l57 546h123l-58 -546h-122z" />
    <glyph glyph-name="eth" unicode="&#xf0;" horiz-adv-x="524" 
d="M212 -12c-121 0 -187 89 -187 204c0 208 102 356 270 365c12 1 22 -1 32 -5c-8 20 -18 38 -28 56l-71 -36l-29 50l63 31c-15 18 -29 30 -37 36l83 81c19 -13 36 -29 52 -49l72 37l29 -50l-63 -31c60 -83 103 -195 103 -325c0 -142 -65 -364 -289 -364zM237 90
c96 0 140 147 140 260c0 70 -25 110 -90 110c-89 0 -136 -155 -136 -259c0 -53 17 -111 86 -111z" />
    <glyph glyph-name="ntilde" unicode="&#xf1;" horiz-adv-x="571" 
d="M44 0l58 546h122l-7 -71c40 29 119 85 187 85c98 0 118 -41 105 -166l-42 -394h-123l40 371c6 55 6 72 -27 72c-38 0 -128 -55 -151 -68l-40 -375h-122zM400 634c-45 0 -88 41 -130 41c-34 0 -53 -6 -83 -29l-47 68c21 22 63 63 138 63c55 0 85 -38 130 -38
c34 0 61 14 89 29l39 -70c-20 -20 -64 -64 -136 -64z" />
    <glyph glyph-name="ograve" unicode="&#xf2;" horiz-adv-x="533" 
d="M217 -12c-121 0 -188 87 -188 204c0 215 109 367 289 367c126 0 187 -94 187 -200c0 -152 -65 -371 -288 -371zM239 90c69 0 142 96 142 263c0 81 -32 107 -88 107c-70 0 -138 -104 -138 -259c0 -60 21 -111 84 -111zM383 598l-239 121l52 101l231 -137z" />
    <glyph glyph-name="oacute" unicode="&#xf3;" horiz-adv-x="533" 
d="M232 600l-37 84l245 139l45 -99zM217 -12c-121 0 -188 87 -188 204c0 215 109 367 289 367c126 0 187 -94 187 -200c0 -152 -65 -371 -288 -371zM239 90c69 0 142 96 142 263c0 81 -32 107 -88 107c-70 0 -138 -104 -138 -259c0 -60 21 -111 84 -111z" />
    <glyph glyph-name="ocircumflex" unicode="&#xf4;" horiz-adv-x="533" 
d="M170 606l-51 87l221 123l188 -122l-62 -88l-140 83zM217 -12c-121 0 -188 87 -188 204c0 215 109 367 289 367c126 0 187 -94 187 -200c0 -152 -65 -371 -288 -371zM239 90c69 0 142 96 142 263c0 81 -32 107 -88 107c-70 0 -138 -104 -138 -259c0 -60 21 -111 84 -111z
" />
    <glyph glyph-name="otilde" unicode="&#xf5;" horiz-adv-x="533" 
d="M217 -12c-121 0 -188 87 -188 204c0 215 109 367 289 367c126 0 187 -94 187 -200c0 -152 -65 -371 -288 -371zM239 90c69 0 142 96 142 263c0 81 -32 107 -88 107c-70 0 -138 -104 -138 -259c0 -60 21 -111 84 -111zM388 634c-45 0 -88 41 -130 41c-34 0 -53 -6 -83 -29
l-47 68c21 22 63 63 138 63c55 0 85 -38 130 -38c34 0 61 14 89 29l39 -70c-20 -20 -64 -64 -136 -64z" />
    <glyph glyph-name="odieresis" unicode="&#xf6;" horiz-adv-x="533" 
d="M207 632l-71 80l88 79l71 -79zM424 632l-71 80l87 79l72 -79zM217 -12c-121 0 -188 87 -188 204c0 215 109 367 289 367c126 0 187 -94 187 -200c0 -152 -65 -371 -288 -371zM239 90c69 0 142 96 142 263c0 81 -32 107 -88 107c-70 0 -138 -104 -138 -259
c0 -60 21 -111 84 -111z" />
    <glyph glyph-name="divide" unicode="&#xf7;" horiz-adv-x="600" 
d="M212 54l12 110h116l-12 -110h-116zM36 253l10 103h519l-11 -103h-518zM254 444l11 109h116l-12 -109h-115z" />
    <glyph glyph-name="oslash" unicode="&#xf8;" horiz-adv-x="524" 
d="M29 -29l-41 34l64 75c-17 31 -27 69 -27 112c0 213 109 367 289 367c48 0 88 -15 116 -39l52 59l40 -37l-54 -64c21 -33 33 -75 33 -119c0 -153 -66 -371 -288 -371c-53 0 -96 18 -127 49zM152 196l204 236c-15 20 -38 28 -67 28c-66 0 -134 -93 -138 -243
c0 -4 0 -17 1 -21zM234 90c68 0 139 93 142 250c0 6 -1 26 -2 30l-208 -242c12 -23 34 -38 68 -38z" />
    <glyph glyph-name="ugrave" unicode="&#xf9;" horiz-adv-x="564" 
d="M171 -12c-95 0 -129 36 -115 172l41 386h123l-40 -375c-6 -54 1 -73 32 -73c49 0 117 48 145 68l41 380h122l-58 -546h-122l8 71c-42 -35 -108 -83 -177 -83zM381 598l-239 121l52 101l231 -137z" />
    <glyph glyph-name="uacute" unicode="&#xfa;" horiz-adv-x="564" 
d="M240 600l-37 84l245 139l45 -99zM171 -12c-95 0 -129 36 -115 172l41 386h123l-40 -375c-6 -54 1 -73 32 -73c49 0 117 48 145 68l41 380h122l-58 -546h-122l8 71c-42 -35 -108 -83 -177 -83z" />
    <glyph glyph-name="ucircumflex" unicode="&#xfb;" horiz-adv-x="564" 
d="M171 606l-51 87l221 123l188 -122l-62 -88l-140 83zM171 -12c-95 0 -129 36 -115 172l41 386h123l-40 -375c-6 -54 1 -73 32 -73c49 0 117 48 145 68l41 380h122l-58 -546h-122l8 71c-42 -35 -108 -83 -177 -83z" />
    <glyph glyph-name="udieresis" unicode="&#xfc;" horiz-adv-x="564" 
d="M205 632l-71 80l88 79l71 -79zM422 632l-71 80l87 79l72 -79zM171 -12c-95 0 -129 36 -115 172l41 386h123l-40 -375c-6 -54 1 -73 32 -73c49 0 117 48 145 68l41 380h122l-58 -546h-122l8 71c-42 -35 -108 -83 -177 -83z" />
    <glyph glyph-name="yacute" unicode="&#xfd;" horiz-adv-x="485" 
d="M38 -220l111 220h-41l-82 546h131l51 -435c19 33 119 246 119 246c25 50 40 110 40 155c0 12 -1 23 -3 34h131c2 -11 3 -23 3 -34c0 -57 -24 -123 -49 -174l-282 -558h-129zM224 600l-37 84l245 139l45 -99z" />
    <glyph glyph-name="thorn" unicode="&#xfe;" horiz-adv-x="550" 
d="M15 -220l104 974h123l-28 -266c43 31 112 61 164 61c94 0 149 -48 149 -172c0 -196 -91 -389 -319 -389c-17 0 -33 1 -48 3l-22 -211h-123zM214 86c147 0 186 172 186 289c0 53 -21 72 -49 72c-47 0 -106 -33 -147 -56l-33 -300c17 -2 25 -5 43 -5z" />
    <glyph glyph-name="ydieresis" unicode="&#xff;" horiz-adv-x="485" 
d="M38 -220l111 220h-41l-82 546h131l51 -435c19 33 119 246 119 246c25 50 40 110 40 155c0 12 -1 23 -3 34h131c2 -11 3 -23 3 -34c0 -57 -24 -123 -49 -174l-282 -558h-129zM162 632l-71 80l88 79l71 -79zM379 632l-71 80l87 79l72 -79z" />
    <glyph glyph-name="Amacron" unicode="&#x100;" horiz-adv-x="647" 
d="M-54 0l352 707h167l158 -707h-130l-49 236h-256l-113 -236h-129zM235 331h189l-39 204l-14 98l-41 -98zM232 769l10 101h308l-12 -101h-306z" />
    <glyph glyph-name="amacron" unicode="&#x101;" horiz-adv-x="539" 
d="M157 -12c-96 0 -129 69 -129 173c0 204 136 391 347 391c34 0 85 -4 120 -10l-56 -542h-123l9 82c-61 -58 -115 -94 -168 -94zM190 97c40 0 115 60 145 86l28 265c-4 2 -11 2 -19 2c-113 0 -193 -137 -193 -277c0 -41 10 -76 39 -76zM223 648l11 105h290l-11 -105h-290z
" />
    <glyph glyph-name="Abreve" unicode="&#x102;" horiz-adv-x="647" 
d="M-54 0l352 707h167l158 -707h-130l-49 236h-256l-113 -236h-129zM235 331h189l-39 204l-14 98l-41 -98zM382 758c-108 0 -145 59 -160 89l68 61c19 -22 47 -53 105 -53c57 0 88 30 111 53l55 -63c-22 -28 -68 -87 -179 -87z" />
    <glyph glyph-name="abreve" unicode="&#x103;" horiz-adv-x="539" 
d="M157 -12c-96 0 -129 69 -129 173c0 204 136 391 347 391c34 0 85 -4 120 -10l-56 -542h-123l9 82c-61 -58 -115 -94 -168 -94zM190 97c40 0 115 60 145 86l28 265c-4 2 -11 2 -19 2c-113 0 -193 -137 -193 -277c0 -41 10 -76 39 -76zM349 630c-108 0 -145 59 -160 89
l68 61c19 -22 47 -53 105 -53c57 0 88 30 111 53l55 -63c-22 -28 -68 -87 -179 -87z" />
    <glyph glyph-name="Aogonek" unicode="&#x104;" horiz-adv-x="647" 
d="M524 -243c-92 0 -125 48 -123 104c1 52 41 106 90 142l-47 233h-256l-113 -236h-129l352 707h167l158 -707c-46 -27 -110 -73 -111 -114c-2 -29 18 -34 44 -34c20 0 45 3 60 8l13 -82c-24 -12 -48 -21 -105 -21zM235 331h189l-53 302z" />
    <glyph glyph-name="aogonek" unicode="&#x105;" horiz-adv-x="539" 
d="M339 -243c-87 0 -123 44 -123 98c0 55 47 113 101 148l8 79c-61 -58 -115 -94 -168 -94c-96 0 -129 69 -129 173c0 204 136 391 347 391c34 0 85 -4 120 -10l-57 -542c-45 -27 -108 -73 -111 -115c-1 -28 19 -33 44 -33c20 0 45 3 60 8l14 -82c-25 -12 -48 -21 -106 -21z
M190 97c40 0 115 60 145 86l28 265c-4 2 -11 2 -19 2c-113 0 -193 -137 -193 -277c0 -41 10 -76 39 -76z" />
    <glyph glyph-name="Cacute" unicode="&#x106;" horiz-adv-x="607" 
d="M343 737l-22 80l249 86l28 -102zM373 -10c-199 0 -338 104 -338 314c0 261 151 410 411 410c71 0 123 -9 179 -32l-39 -95c-56 18 -91 22 -152 22c-174 0 -270 -119 -270 -288c0 -150 97 -223 238 -223c56 0 105 3 158 19l21 -98c-70 -23 -133 -29 -208 -29z" />
    <glyph glyph-name="cacute" unicode="&#x107;" horiz-adv-x="446" 
d="M237 600l-37 84l245 139l45 -99zM184 -12c-115 0 -155 83 -155 199c0 201 102 374 288 374c64 0 115 -25 141 -48l-57 -82c-27 18 -52 30 -85 30c-126 0 -160 -162 -160 -258c0 -70 18 -109 44 -109c45 0 82 11 164 52l40 -85c-50 -30 -115 -73 -220 -73z" />
    <glyph glyph-name="Ccircumflex" unicode="&#x108;" horiz-adv-x="607" 
d="M585 736l-140 57l-151 -54l-34 82l195 83l172 -83zM373 -10c-199 0 -338 104 -338 314c0 261 151 410 411 410c71 0 123 -9 179 -32l-39 -95c-56 18 -91 22 -152 22c-174 0 -270 -119 -270 -288c0 -150 97 -223 238 -223c56 0 105 3 158 19l21 -98
c-70 -23 -133 -29 -208 -29z" />
    <glyph glyph-name="ccircumflex" unicode="&#x109;" horiz-adv-x="446" 
d="M160 606l-51 87l221 123l188 -122l-62 -88l-140 83zM184 -12c-115 0 -155 83 -155 199c0 201 102 374 288 374c64 0 115 -25 141 -48l-57 -82c-27 18 -52 30 -85 30c-126 0 -160 -162 -160 -258c0 -70 18 -109 44 -109c45 0 82 11 164 52l40 -85
c-50 -30 -115 -73 -220 -73z" />
    <glyph glyph-name="Cdotaccent" unicode="&#x10a;" horiz-adv-x="607" 
d="M373 -10c-199 0 -338 104 -338 314c0 261 151 410 411 410c71 0 123 -9 179 -32l-39 -95c-56 18 -91 22 -152 22c-174 0 -270 -119 -270 -288c0 -150 97 -223 238 -223c56 0 105 3 158 19l21 -98c-70 -23 -133 -29 -208 -29zM423 757l-82 91l101 90l82 -90z" />
    <glyph glyph-name="cdotaccent" unicode="&#x10b;" horiz-adv-x="446" 
d="M184 -12c-115 0 -155 83 -155 199c0 201 102 374 288 374c64 0 115 -25 141 -48l-57 -82c-27 18 -52 30 -85 30c-126 0 -160 -162 -160 -258c0 -70 18 -109 44 -109c45 0 82 11 164 52l40 -85c-50 -30 -115 -73 -220 -73zM318 629l-79 87l98 86l79 -86z" />
    <glyph glyph-name="Ccaron" unicode="&#x10c;" horiz-adv-x="607" 
d="M416 743l-171 82l42 85l140 -57l150 54l35 -82zM373 -10c-199 0 -338 104 -338 314c0 261 151 410 411 410c71 0 123 -9 179 -32l-39 -95c-56 18 -91 22 -152 22c-174 0 -270 -119 -270 -288c0 -150 97 -223 238 -223c56 0 105 3 158 19l21 -98
c-70 -23 -133 -29 -208 -29z" />
    <glyph glyph-name="ccaron" unicode="&#x10d;" horiz-adv-x="446" 
d="M304 602l-181 117l59 84l136 -86l151 86l47 -83zM184 -12c-115 0 -155 83 -155 199c0 201 102 374 288 374c64 0 115 -25 141 -48l-57 -82c-27 18 -52 30 -85 30c-126 0 -160 -162 -160 -258c0 -70 18 -109 44 -109c45 0 82 11 164 52l40 -85c-50 -30 -115 -73 -220 -73z
" />
    <glyph glyph-name="Dcaron" unicode="&#x10e;" horiz-adv-x="736" 
d="M346 743l-171 82l42 85l140 -57l150 54l35 -82zM46 0l75 707h221c199 0 364 -85 364 -309c0 -272 -170 -398 -431 -398h-229zM182 101h113c187 0 284 97 284 288c0 160 -104 217 -251 217h-92z" />
    <glyph glyph-name="dcaron" unicode="&#x10f;" horiz-adv-x="623" 
d="M544 548l36 207h117l-60 -207h-93zM157 -12c-99 0 -128 76 -128 180c0 222 137 377 330 383h15l21 204h123l-79 -755h-123l9 82c-60 -57 -115 -94 -168 -94zM190 97c43 0 115 60 145 86l28 267h-23c-100 2 -188 -118 -188 -264c0 -65 12 -89 38 -89z" />
    <glyph glyph-name="Dcroat" unicode="&#x110;" horiz-adv-x="736" 
d="M42 0l32 302h-77l11 101h76l32 304h221c200 0 365 -85 365 -309c0 -274 -171 -398 -433 -398h-227zM177 100h114c186 0 283 102 283 289c0 160 -103 218 -250 218h-93l-22 -204h146l-11 -101h-145z" />
    <glyph glyph-name="dcroat" unicode="&#x111;" horiz-adv-x="537" 
d="M157 -12c-99 0 -128 76 -128 180c0 222 137 377 330 383h15l5 51h-119l12 86h116l7 67h123l-6 -67h75l-13 -86h-72l-63 -602h-123l9 82c-60 -57 -115 -94 -168 -94zM190 97c43 0 115 60 145 86l28 267h-23c-100 2 -188 -118 -188 -264c0 -65 12 -89 38 -89z" />
    <glyph glyph-name="Emacron" unicode="&#x112;" horiz-adv-x="574" 
d="M46 0l75 707h429l-10 -100h-304l-21 -204h281l-10 -96h-281l-22 -207h327l-11 -100h-453zM190 769l10 101h308l-12 -101h-306z" />
    <glyph glyph-name="emacron" unicode="&#x113;" horiz-adv-x="475" 
d="M180 -12c-125 0 -151 108 -151 208c0 184 91 365 285 365c115 0 164 -67 164 -139c0 -93 -85 -136 -169 -164l-154 -53c-1 -6 -1 -13 -1 -18c0 -65 15 -96 54 -96c43 0 101 23 166 58l43 -84c-70 -44 -140 -77 -237 -77zM165 302l138 52c38 15 57 37 57 63
c0 31 -24 46 -49 46c-79 0 -127 -69 -146 -161zM178 648l11 105h290l-11 -105h-290z" />
    <glyph glyph-name="Ebreve" unicode="&#x114;" horiz-adv-x="574" 
d="M46 0l75 707h429l-10 -100h-304l-21 -204h281l-10 -96h-281l-22 -207h327l-11 -100h-453zM347 758c-108 0 -145 59 -160 89l68 61c19 -22 47 -53 105 -53c57 0 88 30 111 53l55 -63c-22 -28 -68 -87 -179 -87z" />
    <glyph glyph-name="ebreve" unicode="&#x115;" horiz-adv-x="475" 
d="M180 -12c-125 0 -151 108 -151 208c0 184 91 365 285 365c115 0 164 -67 164 -139c0 -93 -85 -136 -169 -164l-154 -53c-1 -6 -1 -13 -1 -18c0 -65 15 -96 54 -96c43 0 101 23 166 58l43 -84c-70 -44 -140 -77 -237 -77zM165 302l138 52c38 15 57 37 57 63
c0 31 -24 46 -49 46c-79 0 -127 -69 -146 -161zM311 630c-108 0 -145 59 -160 89l68 61c19 -22 47 -53 105 -53c57 0 88 30 111 53l55 -63c-22 -28 -68 -87 -179 -87z" />
    <glyph glyph-name="Edotaccent" unicode="&#x116;" horiz-adv-x="574" 
d="M46 0l75 707h429l-10 -100h-304l-21 -204h281l-10 -96h-281l-22 -207h327l-11 -100h-453zM342 757l-82 91l101 90l82 -90z" />
    <glyph glyph-name="edotaccent" unicode="&#x117;" horiz-adv-x="475" 
d="M180 -12c-125 0 -151 108 -151 208c0 184 91 365 285 365c115 0 164 -67 164 -139c0 -93 -85 -136 -169 -164l-154 -53c-1 -6 -1 -13 -1 -18c0 -65 15 -96 54 -96c43 0 101 23 166 58l43 -84c-70 -44 -140 -77 -237 -77zM165 302l138 52c38 15 57 37 57 63
c0 31 -24 46 -49 46c-79 0 -127 -69 -146 -161zM300 629l-79 87l98 86l79 -86z" />
    <glyph glyph-name="Eogonek" unicode="&#x118;" horiz-adv-x="574" 
d="M401 -243c-92 0 -123 48 -122 115c2 45 46 97 92 128h-325l75 707h429l-10 -100h-304l-21 -204h281l-10 -96h-281l-22 -207h327l-12 -100c-44 -27 -109 -70 -110 -112c-2 -29 19 -36 44 -36c20 0 45 3 60 8l14 -82c-25 -12 -48 -21 -105 -21z" />
    <glyph glyph-name="eogonek" unicode="&#x119;" horiz-adv-x="475" 
d="M294 -243c-86 0 -120 43 -120 107c0 42 24 87 56 128c-16 -2 -33 -4 -50 -4c-125 0 -151 108 -151 208c0 184 91 365 285 365c115 0 164 -67 164 -139c0 -93 -85 -136 -169 -164l-154 -53c-1 -3 -1 -15 -1 -18c0 -65 15 -96 54 -96c43 0 101 23 166 58l43 -84
c-58 -34 -134 -120 -134 -181c0 -26 19 -33 40 -33c19 0 45 3 64 9l14 -82c-23 -9 -55 -21 -107 -21zM165 302l138 52c38 15 57 37 57 63c0 31 -24 46 -49 46c-79 0 -127 -69 -146 -161z" />
    <glyph glyph-name="Ecaron" unicode="&#x11a;" horiz-adv-x="574" 
d="M333 743l-171 82l42 85l140 -57l150 54l35 -82zM46 0l75 707h429l-10 -100h-304l-21 -204h281l-10 -96h-281l-22 -207h327l-11 -100h-453z" />
    <glyph glyph-name="ecaron" unicode="&#x11b;" horiz-adv-x="475" 
d="M302 602l-181 117l59 84l136 -86l151 86l47 -83zM180 -12c-125 0 -151 108 -151 208c0 184 91 365 285 365c115 0 164 -67 164 -139c0 -93 -85 -136 -169 -164l-154 -53c-1 -6 -1 -13 -1 -18c0 -65 15 -96 54 -96c43 0 101 23 166 58l43 -84c-70 -44 -140 -77 -237 -77z
M165 302l138 52c38 15 57 37 57 63c0 31 -24 46 -49 46c-79 0 -127 -69 -146 -161z" />
    <glyph glyph-name="Gcircumflex" unicode="&#x11c;" horiz-adv-x="673" 
d="M596 736l-140 57l-151 -54l-34 82l195 83l172 -83zM373 -10c-197 0 -337 102 -337 312c0 264 155 412 416 412c69 0 127 -8 187 -34l-44 -94c-54 16 -95 23 -155 23c-177 0 -273 -114 -273 -288c0 -148 94 -223 235 -223c26 0 50 3 69 6l25 246h126l-33 -322
c-72 -27 -130 -38 -216 -38z" />
    <glyph glyph-name="gcircumflex" unicode="&#x11d;" horiz-adv-x="539" 
d="M199 606l-51 87l221 123l188 -122l-62 -88l-140 83zM165 -229c-80 0 -156 16 -192 30l30 100c45 -14 106 -26 148 -26c91 0 153 14 164 116l10 90c-62 -59 -113 -93 -168 -93c-96 0 -128 63 -128 174c0 218 145 390 346 390c34 0 85 -4 120 -10l-59 -570
c-17 -164 -156 -201 -271 -201zM190 97c40 0 115 60 145 86l28 265c-5 2 -13 2 -19 2c-105 0 -192 -126 -192 -275c0 -54 12 -78 38 -78z" />
    <glyph glyph-name="Gbreve" unicode="&#x11e;" horiz-adv-x="673" 
d="M373 -10c-197 0 -337 102 -337 312c0 264 155 412 416 412c69 0 127 -8 187 -34l-44 -94c-54 16 -95 23 -155 23c-177 0 -273 -114 -273 -288c0 -148 94 -223 235 -223c26 0 50 3 69 6l25 246h126l-33 -322c-72 -27 -130 -38 -216 -38zM438 758c-108 0 -145 59 -160 89
l68 61c19 -22 47 -53 105 -53c57 0 88 30 111 53l55 -63c-22 -28 -68 -87 -179 -87z" />
    <glyph glyph-name="gbreve" unicode="&#x11f;" horiz-adv-x="539" 
d="M165 -229c-80 0 -156 16 -192 30l30 100c45 -14 106 -26 148 -26c91 0 153 14 164 116l10 90c-62 -59 -113 -93 -168 -93c-96 0 -128 63 -128 174c0 218 145 390 346 390c34 0 85 -4 120 -10l-59 -570c-17 -164 -156 -201 -271 -201zM190 97c40 0 115 60 145 86l28 265
c-5 2 -13 2 -19 2c-105 0 -192 -126 -192 -275c0 -54 12 -78 38 -78zM339 630c-108 0 -145 59 -160 89l68 61c19 -22 47 -53 105 -53c57 0 88 30 111 53l55 -63c-22 -28 -68 -87 -179 -87z" />
    <glyph glyph-name="Gdotaccent" unicode="&#x120;" horiz-adv-x="673" 
d="M373 -10c-197 0 -337 102 -337 312c0 264 155 412 416 412c69 0 127 -8 187 -34l-44 -94c-54 16 -95 23 -155 23c-177 0 -273 -114 -273 -288c0 -148 94 -223 235 -223c26 0 50 3 69 6l25 246h126l-33 -322c-72 -27 -130 -38 -216 -38zM449 757l-82 91l101 90l82 -90z
" />
    <glyph glyph-name="gdotaccent" unicode="&#x121;" horiz-adv-x="539" 
d="M165 -229c-80 0 -156 16 -192 30l30 100c45 -14 106 -26 148 -26c91 0 153 14 164 116l10 90c-62 -59 -113 -93 -168 -93c-96 0 -128 63 -128 174c0 218 145 390 346 390c34 0 85 -4 120 -10l-59 -570c-17 -164 -156 -201 -271 -201zM190 97c40 0 115 60 145 86l28 265
c-5 2 -13 2 -19 2c-105 0 -192 -126 -192 -275c0 -54 12 -78 38 -78zM341 629l-79 87l98 86l79 -86z" />
    <glyph glyph-name="Gcommaaccent" unicode="&#x122;" horiz-adv-x="673" 
d="M267 -265l36 207h117l-60 -207h-93zM373 -10c-197 0 -337 102 -337 312c0 264 155 412 416 412c69 0 127 -8 187 -34l-44 -94c-54 16 -95 23 -155 23c-177 0 -273 -114 -273 -288c0 -148 94 -223 235 -223c26 0 50 3 69 6l25 246h126l-33 -322c-72 -27 -130 -38 -216 -38
z" />
    <glyph glyph-name="gcommaaccent" unicode="&#x123;" horiz-adv-x="539" 
d="M457 809l-36 -207h-117l60 207h93zM165 -229c-80 0 -156 16 -192 30l30 100c45 -14 106 -26 148 -26c91 0 153 14 164 116l10 90c-62 -59 -113 -93 -168 -93c-96 0 -128 63 -128 174c0 218 145 390 346 390c34 0 85 -4 120 -10l-59 -570c-17 -164 -156 -201 -271 -201z
M190 97c40 0 115 60 145 86l28 265c-5 2 -13 2 -19 2c-105 0 -192 -126 -192 -275c0 -54 12 -78 38 -78z" />
    <glyph glyph-name="Hcircumflex" unicode="&#x124;" horiz-adv-x="757" 
d="M565 736l-140 57l-151 -54l-34 82l195 83l172 -83zM46 0l75 707h125l-31 -303h338l32 304h127l-74 -708h-127l33 306h-339l-33 -306h-126z" />
    <glyph glyph-name="hcircumflex" unicode="&#x125;" horiz-adv-x="571" 
d="M336 763l-140 57l-151 -54l-34 82l195 83l172 -83zM46 0l79 755h123l-29 -280c40 29 119 85 187 85c99 0 118 -41 105 -166l-42 -394h-122l40 371c6 55 6 72 -28 72c-38 0 -127 -55 -151 -68l-39 -375h-123z" />
    <glyph glyph-name="Hbar" unicode="&#x126;" horiz-adv-x="757" 
d="M46 0l53 501h-63l10 87h62l13 119h125l-13 -119h340l12 119h127l-13 -119h66l-11 -87h-64l-52 -501h-127l33 306h-339l-33 -306h-126zM215 404h338l10 97h-338z" />
    <glyph glyph-name="hbar" unicode="&#x127;" horiz-adv-x="571" 
d="M46 0l63 602h-73l12 86h70l7 67h123l-6 -67h117l-13 -86h-114l-13 -127c40 29 119 85 187 85c99 0 118 -41 105 -166l-42 -394h-122l40 371c6 55 6 72 -28 72c-38 0 -127 -55 -151 -68l-39 -375h-123z" />
    <glyph glyph-name="Itilde" unicode="&#x128;" horiz-adv-x="293" 
d="M46 0l75 707h125l-74 -707h-126zM248 745c-44 0 -86 38 -120 38c-33 0 -53 -10 -77 -27l-43 63c30 30 70 61 126 61c52 0 93 -37 125 -37c33 0 58 12 84 26l37 -65c-26 -26 -65 -59 -132 -59z" />
    <glyph glyph-name="itilde" unicode="&#x129;" horiz-adv-x="264" 
d="M40 0l57 546h123l-58 -546h-122zM233 634c-45 0 -88 41 -130 41c-34 0 -53 -6 -83 -29l-47 68c21 22 63 63 138 63c55 0 85 -38 130 -38c34 0 61 14 89 29l39 -70c-20 -20 -64 -64 -136 -64z" />
    <glyph glyph-name="Imacron" unicode="&#x12a;" horiz-adv-x="293" 
d="M46 0l75 707h125l-74 -707h-126zM40 769l10 101h308l-12 -101h-306z" />
    <glyph glyph-name="imacron" unicode="&#x12b;" horiz-adv-x="264" 
d="M40 0l57 546h123l-58 -546h-122zM25 648l11 105h290l-11 -105h-290z" />
    <glyph glyph-name="Ibreve" unicode="&#x12c;" horiz-adv-x="293" 
d="M46 0l75 707h125l-74 -707h-126zM190 758c-108 0 -145 59 -160 89l68 61c19 -22 47 -53 105 -53c57 0 88 30 111 53l55 -63c-22 -28 -68 -87 -179 -87z" />
    <glyph glyph-name="ibreve" unicode="&#x12d;" horiz-adv-x="264" 
d="M40 0l57 546h123l-58 -546h-122zM167 630c-108 0 -145 59 -160 89l68 61c19 -22 47 -53 105 -53c57 0 88 30 111 53l55 -63c-22 -28 -68 -87 -179 -87z" />
    <glyph glyph-name="Iogonek" unicode="&#x12e;" horiz-adv-x="293" 
d="M73 -243c-92 0 -123 50 -122 106c2 55 45 108 97 140l73 704h125l-75 -707c-45 -27 -106 -73 -110 -114c-3 -29 18 -34 43 -34c20 0 45 3 60 8l14 -82c-25 -12 -48 -21 -105 -21z" />
    <glyph glyph-name="iogonek" unicode="&#x12f;" horiz-adv-x="272" 
d="M166 -140l13 -82c-6 -3 -56 -21 -102 -21c-87 0 -125 40 -125 110c0 52 48 107 93 140l56 539h123l-57 -546c-46 -27 -102 -76 -105 -116c-2 -26 20 -32 42 -32c19 0 44 2 62 8zM169 629l-79 87l98 86l79 -86z" />
    <glyph glyph-name="Idotaccent" unicode="&#x130;" horiz-adv-x="293" 
d="M46 0l75 707h125l-74 -707h-126zM189 757l-82 91l101 90l82 -90z" />
    <glyph glyph-name="dotlessi" unicode="&#x131;" horiz-adv-x="264" 
d="M40 0l57 546h123l-58 -546h-122z" />
    <glyph glyph-name="IJ" unicode="&#x132;" horiz-adv-x="583" 
d="M46 0l75 707h125l-74 -707h-126zM220 -192l-38 90c126 67 158 124 171 253l58 556h127l-58 -554c-16 -151 -58 -274 -260 -345z" />
    <glyph glyph-name="ij" unicode="&#x133;" horiz-adv-x="539" 
d="M206 -220c-34 0 -78 9 -104 20l32 97c15 -4 48 -12 76 -12c63 0 85 33 93 109l58 552h123l-58 -553c-18 -175 -106 -213 -220 -213zM40 0l57 546h123l-58 -546h-122zM167 629l-79 87l98 86l79 -86zM432 629l-79 87l98 86l79 -86z" />
    <glyph glyph-name="Jcircumflex" unicode="&#x134;" horiz-adv-x="299" 
d="M343 736l-140 57l-151 -54l-34 82l195 83l172 -83zM-64 -192l-38 90c126 67 158 124 171 253l58 556h127l-58 -554c-16 -151 -58 -274 -260 -345z" />
    <glyph glyph-name="jcircumflex" unicode="&#x135;" horiz-adv-x="272" 
d="M-54 -220c-34 0 -78 9 -104 20l32 97c15 -4 48 -12 76 -12c63 0 85 33 93 109l58 552h123l-58 -553c-18 -175 -106 -213 -220 -213zM20 606l-51 87l221 123l188 -122l-62 -88l-140 83z" />
    <glyph glyph-name="Kcommaaccent" unicode="&#x136;" horiz-adv-x="628" 
d="M203 -265l36 207h117l-60 -207h-93zM484 -34l-271 400l2 17l301 324h155l-314 -329l247 -354zM46 0l75 707h125l-74 -707h-126z" />
    <glyph glyph-name="kcommaaccent" unicode="&#x137;" horiz-adv-x="503" 
d="M153 -265l36 207h117l-60 -207h-93zM44 0l79 755h123l-50 -468l191 259h136l-198 -255l167 -286l-132 -12l-165 282l-29 -275h-122z" />
    <glyph glyph-name="Lacute" unicode="&#x139;" horiz-adv-x="509" 
d="M131 737l-22 80l249 86l28 -102zM46 0l75 707h125l-63 -605h307l-11 -102h-433z" />
    <glyph glyph-name="lacute" unicode="&#x13a;" horiz-adv-x="285" 
d="M132 789l-22 80l249 86l28 -102zM44 0l79 755h123l-80 -755h-122z" />
    <glyph glyph-name="Lcommaaccent" unicode="&#x13b;" horiz-adv-x="509" 
d="M174 -265l36 207h117l-60 -207h-93zM46 0l75 707h125l-63 -605h307l-11 -102h-433z" />
    <glyph glyph-name="lcommaaccent" unicode="&#x13c;" horiz-adv-x="285" 
d="M17 -265l36 207h117l-60 -207h-93zM44 0l79 755h123l-80 -755h-122z" />
    <glyph glyph-name="Lcaron" unicode="&#x13d;" horiz-adv-x="509" 
d="M303 550l36 207h117l-60 -207h-93zM46 0l75 707h125l-63 -605h307l-11 -102h-433z" />
    <glyph glyph-name="lcaron" unicode="&#x13e;" horiz-adv-x="350" 
d="M269 547l36 207h117l-60 -207h-93zM44 0l79 755h123l-80 -755h-122z" />
    <glyph glyph-name="Ldot" unicode="&#x13f;" horiz-adv-x="509" 
d="M46 0l75 707h125l-63 -605h307l-11 -102h-433zM398 284l-81 91l100 90l83 -90z" />
    <glyph glyph-name="ldot" unicode="&#x140;" horiz-adv-x="405" 
d="M44 0l79 755h123l-80 -755h-122zM331 287l-81 91l100 90l83 -90z" />
    <glyph glyph-name="Lslash" unicode="&#x141;" horiz-adv-x="503" 
d="M52 0l29 280l-71 -38l9 88l71 39l36 338h126l-28 -265l132 71l-9 -88l-133 -72l-26 -250h307l-10 -103h-433z" />
    <glyph glyph-name="lslash" unicode="&#x142;" horiz-adv-x="285" 
d="M44 0l33 315l-90 -49l10 89l90 48l36 351h123l-30 -280l96 51l-9 -88l-95 -51l-41 -386h-123z" />
    <glyph glyph-name="Nacute" unicode="&#x143;" horiz-adv-x="751" 
d="M338 737l-22 80l249 86l28 -102zM46 0l75 707h158l245 -565l55 565h126l-75 -707h-164l-238 550l-56 -550h-126z" />
    <glyph glyph-name="nacute" unicode="&#x144;" horiz-adv-x="571" 
d="M270 600l-37 84l245 139l45 -99zM44 0l58 546h122l-7 -71c40 29 119 85 187 85c98 0 118 -41 105 -166l-42 -394h-123l40 371c6 55 6 72 -27 72c-38 0 -128 -55 -151 -68l-40 -375h-122z" />
    <glyph glyph-name="Ncommaaccent" unicode="&#x145;" horiz-adv-x="751" 
d="M248 -265l36 207h117l-60 -207h-93zM46 0l75 707h158l245 -565l55 565h126l-75 -707h-164l-238 550l-56 -550h-126z" />
    <glyph glyph-name="ncommaaccent" unicode="&#x146;" horiz-adv-x="571" 
d="M159 -265l36 207h117l-60 -207h-93zM44 0l58 546h122l-7 -71c40 29 119 85 187 85c98 0 118 -41 105 -166l-42 -394h-123l40 371c6 55 6 72 -27 72c-38 0 -128 -55 -151 -68l-40 -375h-122z" />
    <glyph glyph-name="Ncaron" unicode="&#x147;" horiz-adv-x="751" 
d="M423 743l-171 82l42 85l140 -57l150 54l35 -82zM46 0l75 707h158l245 -565l55 565h126l-75 -707h-164l-238 550l-56 -550h-126z" />
    <glyph glyph-name="ncaron" unicode="&#x148;" horiz-adv-x="571" 
d="M310 602l-181 117l59 84l136 -86l151 86l47 -83zM44 0l58 546h122l-7 -71c40 29 119 85 187 85c98 0 118 -41 105 -166l-42 -394h-123l40 371c6 55 6 72 -27 72c-38 0 -128 -55 -151 -68l-40 -375h-122z" />
    <glyph glyph-name="napostrophe" unicode="&#x149;" horiz-adv-x="571" 
d="M-68 520c43 75 48 165 54 239h127c-8 -106 -22 -170 -80 -239h-101zM44 0l58 546h122l-7 -71c40 29 119 85 187 85c98 0 118 -41 105 -166l-42 -394h-123l40 371c6 55 6 72 -27 72c-38 0 -128 -55 -151 -68l-40 -375h-122z" />
    <glyph glyph-name="Eng" unicode="&#x14a;" horiz-adv-x="751" 
d="M410 -220c-35 0 -79 9 -104 20l31 97c16 -4 49 -12 77 -12c58 0 86 31 91 92l2 23h-41l-238 550l-56 -550h-126l75 707h158l245 -565l55 565h126l-79 -738c-11 -105 -60 -189 -216 -189z" />
    <glyph glyph-name="eng" unicode="&#x14b;" horiz-adv-x="571" 
d="M247 -220c-35 0 -79 9 -104 20l31 97c16 -4 49 -12 77 -12c63 0 84 33 93 109l40 377c6 55 6 72 -27 72c-38 0 -128 -55 -151 -68l-40 -375h-122l58 546h122l-7 -71c40 29 119 85 187 85c98 0 118 -41 105 -166l-43 -401c-18 -175 -106 -213 -219 -213z" />
    <glyph glyph-name="Omacron" unicode="&#x14c;" horiz-adv-x="797" 
d="M289 769l10 101h308l-12 -101h-306zM352 -12c-199 0 -317 116 -317 313c0 255 155 417 410 417c199 0 318 -112 318 -310c0 -257 -152 -420 -411 -420zM366 90c182 0 267 136 267 306c0 133 -68 220 -205 220c-178 0 -265 -134 -265 -303c0 -131 65 -223 203 -223z" />
    <glyph glyph-name="omacron" unicode="&#x14d;" horiz-adv-x="533" 
d="M175 648l11 105h290l-11 -105h-290zM217 -12c-121 0 -188 87 -188 204c0 215 109 367 289 367c126 0 187 -94 187 -200c0 -152 -65 -371 -288 -371zM239 90c69 0 142 96 142 263c0 81 -32 107 -88 107c-70 0 -138 -104 -138 -259c0 -60 21 -111 84 -111z" />
    <glyph glyph-name="Obreve" unicode="&#x14e;" horiz-adv-x="797" 
d="M352 -12c-199 0 -317 116 -317 313c0 255 155 417 410 417c199 0 318 -112 318 -310c0 -257 -152 -420 -411 -420zM366 90c182 0 267 136 267 306c0 133 -68 220 -205 220c-178 0 -265 -134 -265 -303c0 -131 65 -223 203 -223zM437 758c-108 0 -145 59 -160 89l68 61
c19 -22 47 -53 105 -53c57 0 88 30 111 53l55 -63c-22 -28 -68 -87 -179 -87z" />
    <glyph glyph-name="obreve" unicode="&#x14f;" horiz-adv-x="533" 
d="M217 -12c-121 0 -188 87 -188 204c0 215 109 367 289 367c126 0 187 -94 187 -200c0 -152 -65 -371 -288 -371zM239 90c69 0 142 96 142 263c0 81 -32 107 -88 107c-70 0 -138 -104 -138 -259c0 -60 21 -111 84 -111zM306 630c-108 0 -145 59 -160 89l68 61
c19 -22 47 -53 105 -53c57 0 88 30 111 53l55 -63c-22 -28 -68 -87 -179 -87z" />
    <glyph glyph-name="Ohungarumlaut" unicode="&#x150;" horiz-adv-x="797" 
d="M310 734l-58 65l190 177l72 -83zM523 734l-24 83l246 86l30 -106zM352 -12c-199 0 -317 116 -317 313c0 255 155 417 410 417c199 0 318 -112 318 -310c0 -257 -152 -420 -411 -420zM366 90c182 0 267 136 267 306c0 133 -68 220 -205 220c-178 0 -265 -134 -265 -303
c0 -131 65 -223 203 -223z" />
    <glyph glyph-name="ohungarumlaut" unicode="&#x151;" horiz-adv-x="533" 
d="M188 604l-51 71l206 164l61 -83zM422 604l-38 78l228 127l40 -96zM217 -12c-121 0 -188 87 -188 204c0 215 109 367 289 367c126 0 187 -94 187 -200c0 -152 -65 -371 -288 -371zM239 90c69 0 142 96 142 263c0 81 -32 107 -88 107c-70 0 -138 -104 -138 -259
c0 -60 21 -111 84 -111z" />
    <glyph glyph-name="OE" unicode="&#x152;" horiz-adv-x="1086" 
d="M348 -12c-199 0 -318 116 -318 313c0 256 156 417 411 417c80 0 144 -20 191 -56l4 45h430l-11 -100h-303l-21 -204h281l-10 -96h-281l-22 -207h326l-10 -101l-453 1l5 44c-58 -36 -132 -56 -219 -56zM362 90c107 0 180 47 222 122l30 280c-27 77 -90 123 -191 123
c-178 0 -264 -134 -264 -302c0 -131 64 -223 203 -223z" />
    <glyph glyph-name="oe" unicode="&#x153;" horiz-adv-x="803" 
d="M213 -12c-121 0 -188 87 -188 204c0 215 109 367 289 367c72 0 120 -34 147 -81c44 51 106 83 185 83c114 0 159 -63 159 -135c0 -94 -84 -137 -168 -165l-153 -52v-16c1 -68 15 -101 55 -101c44 0 101 22 167 56l42 -83c-70 -44 -140 -77 -237 -77c-62 0 -99 32 -119 77
c-42 -46 -100 -77 -179 -77zM234 90c70 0 142 96 142 263c0 81 -31 107 -87 107c-68 0 -138 -101 -138 -259c0 -60 20 -111 83 -111zM496 305l135 53c38 16 57 37 57 62c0 28 -22 42 -46 42c-80 0 -129 -72 -146 -157z" />
    <glyph glyph-name="Racute" unicode="&#x154;" horiz-adv-x="649" 
d="M250 737l-22 80l249 86l28 -102zM518 -32l-197 313c-41 -4 -77 -2 -118 -2l-30 -279h-127l75 707h247c125 0 229 -56 229 -184c0 -98 -49 -174 -145 -212l183 -284zM213 371h75c105 0 178 36 178 144c0 74 -57 92 -130 92h-99z" />
    <glyph glyph-name="racute" unicode="&#x155;" horiz-adv-x="373" 
d="M198 600l-37 84l245 139l45 -99zM44 0l58 546h122l-7 -69c39 31 97 79 158 79c12 0 16 0 32 -3l-22 -118c-17 4 -27 4 -44 4c-41 0 -100 -45 -134 -72l-41 -367h-122z" />
    <glyph glyph-name="Rcommaaccent" unicode="&#x156;" horiz-adv-x="649" 
d="M222 -265l36 207h117l-60 -207h-93zM518 -32l-197 313c-41 -4 -77 -2 -118 -2l-30 -279h-127l75 707h247c125 0 229 -56 229 -184c0 -98 -49 -174 -145 -212l183 -284zM213 371h75c105 0 178 36 178 144c0 74 -57 92 -130 92h-99z" />
    <glyph glyph-name="rcommaaccent" unicode="&#x157;" horiz-adv-x="373" 
d="M15 -265l36 207h117l-60 -207h-93zM44 0l58 546h122l-7 -69c39 31 97 79 158 79c12 0 16 0 32 -3l-22 -118c-17 4 -27 4 -44 4c-41 0 -100 -45 -134 -72l-41 -367h-122z" />
    <glyph glyph-name="Rcaron" unicode="&#x158;" horiz-adv-x="649" 
d="M336 743l-171 82l42 85l140 -57l150 54l35 -82zM518 -32l-197 313c-41 -4 -77 -2 -118 -2l-30 -279h-127l75 707h247c125 0 229 -56 229 -184c0 -98 -49 -174 -145 -212l183 -284zM213 371h75c105 0 178 36 178 144c0 74 -57 92 -130 92h-99z" />
    <glyph glyph-name="rcaron" unicode="&#x159;" horiz-adv-x="373" 
d="M253 602l-181 117l59 84l136 -86l151 86l47 -83zM44 0l58 546h122l-7 -69c39 31 97 79 158 79c12 0 16 0 32 -3l-22 -118c-17 4 -27 4 -44 4c-41 0 -100 -45 -134 -72l-41 -367h-122z" />
    <glyph glyph-name="Sacute" unicode="&#x15a;" horiz-adv-x="518" 
d="M217 737l-22 80l249 86l28 -102zM197 -12c-72 0 -157 19 -216 50l46 98c58 -23 114 -41 179 -41c69 0 150 20 150 103c0 119 -299 114 -299 320c0 137 120 198 248 198c79 0 144 -15 203 -44l-45 -92c-48 20 -104 31 -160 31s-122 -15 -122 -81c0 -109 303 -125 303 -318
c0 -161 -145 -224 -287 -224z" />
    <glyph glyph-name="sacute" unicode="&#x15b;" horiz-adv-x="443" 
d="M185 600l-37 84l245 139l45 -99zM175 -10c-53 0 -118 7 -171 32l33 97c47 -16 101 -27 148 -27c40 0 93 12 93 58c0 75 -210 106 -210 248c0 120 92 160 197 160c57 0 130 -14 163 -31l-31 -91c-45 13 -85 23 -131 23c-40 0 -80 -7 -80 -51c0 -78 212 -117 212 -257
c0 -137 -133 -161 -223 -161z" />
    <glyph glyph-name="Scircumflex" unicode="&#x15c;" horiz-adv-x="518" 
d="M462 736l-140 57l-151 -54l-34 82l195 83l172 -83zM197 -12c-72 0 -157 19 -216 50l46 98c58 -23 114 -41 179 -41c69 0 150 20 150 103c0 119 -299 114 -299 320c0 137 120 198 248 198c79 0 144 -15 203 -44l-45 -92c-48 20 -104 31 -160 31s-122 -15 -122 -81
c0 -109 303 -125 303 -318c0 -161 -145 -224 -287 -224z" />
    <glyph glyph-name="scircumflex" unicode="&#x15d;" horiz-adv-x="443" 
d="M122 606l-51 87l221 123l188 -122l-62 -88l-140 83zM175 -10c-53 0 -118 7 -171 32l33 97c47 -16 101 -27 148 -27c40 0 93 12 93 58c0 75 -210 106 -210 248c0 120 92 160 197 160c57 0 130 -14 163 -31l-31 -91c-45 13 -85 23 -131 23c-40 0 -80 -7 -80 -51
c0 -78 212 -117 212 -257c0 -137 -133 -161 -223 -161z" />
    <glyph glyph-name="Scedilla" unicode="&#x15e;" horiz-adv-x="518" 
d="M197 -12c-72 0 -157 19 -216 50l46 98c58 -23 114 -41 179 -41c69 0 150 20 150 103c0 119 -299 114 -299 320c0 137 120 198 248 198c79 0 144 -15 203 -44l-45 -92c-48 20 -104 31 -160 31s-122 -15 -122 -81c0 -109 303 -125 303 -318c0 -161 -145 -224 -287 -224z
M130 -261l-34 72c35 21 71 43 75 73c2 21 -4 43 -11 65h102c10 -23 17 -48 14 -74c-6 -63 -73 -107 -146 -136z" />
    <glyph glyph-name="scedilla" unicode="&#x15f;" horiz-adv-x="443" 
d="M175 -10c-53 0 -118 7 -171 32l33 97c47 -16 101 -27 148 -27c40 0 93 12 93 58c0 75 -210 106 -210 248c0 120 92 160 197 160c57 0 130 -14 163 -31l-31 -91c-45 13 -85 23 -131 23c-40 0 -80 -7 -80 -51c0 -78 212 -117 212 -257c0 -137 -133 -161 -223 -161zM94 -261
l-34 72c35 21 71 43 75 73c2 21 -4 43 -11 65h102c10 -23 17 -48 14 -74c-6 -63 -73 -107 -146 -136z" />
    <glyph glyph-name="Scaron" unicode="&#x160;" horiz-adv-x="518" 
d="M297 743l-171 82l42 85l140 -57l150 54l35 -82zM197 -12c-72 0 -157 19 -216 50l46 98c58 -23 114 -41 179 -41c69 0 150 20 150 103c0 119 -299 114 -299 320c0 137 120 198 248 198c79 0 144 -15 203 -44l-45 -92c-48 20 -104 31 -160 31s-122 -15 -122 -81
c0 -109 303 -125 303 -318c0 -161 -145 -224 -287 -224z" />
    <glyph glyph-name="scaron" unicode="&#x161;" horiz-adv-x="443" 
d="M260 602l-181 117l59 84l136 -86l151 86l47 -83zM175 -10c-53 0 -118 7 -171 32l33 97c47 -16 101 -27 148 -27c40 0 93 12 93 58c0 75 -210 106 -210 248c0 120 92 160 197 160c57 0 130 -14 163 -31l-31 -91c-45 13 -85 23 -131 23c-40 0 -80 -7 -80 -51
c0 -78 212 -117 212 -257c0 -137 -133 -161 -223 -161z" />
    <glyph glyph-name="Tcommaaccent" unicode="&#x162;" horiz-adv-x="582" 
d="M166 -265l36 207h117l-60 -207h-93zM193 0l63 606h-231l11 101h589l-11 -101h-231l-64 -606h-126z" />
    <glyph glyph-name="tcommaaccent" unicode="&#x163;" horiz-adv-x="393" 
d="M90 -265l36 207h117l-60 -207h-93zM191 -12c-90 0 -138 28 -122 167l32 297h-80l11 94h81l11 112h122l-12 -112h151l-9 -94h-152l-33 -304c-5 -42 1 -53 27 -53c28 0 82 12 121 26l23 -92c-34 -17 -101 -41 -171 -41z" />
    <glyph glyph-name="Tcaron" unicode="&#x164;" horiz-adv-x="582" 
d="M326 743l-171 82l42 85l140 -57l150 54l35 -82zM193 0l63 606h-231l11 101h589l-11 -101h-231l-64 -606h-126z" />
    <glyph glyph-name="tcaron" unicode="&#x165;" horiz-adv-x="393" 
d="M295 612l36 207h117l-60 -207h-93zM191 -12c-90 0 -138 28 -122 167l32 297h-80l11 94h81l11 112h122l-12 -112h151l-9 -94h-152l-33 -304c-5 -42 1 -53 27 -53c28 0 82 12 121 26l23 -92c-34 -17 -101 -41 -171 -41z" />
    <glyph glyph-name="Tbar" unicode="&#x166;" horiz-adv-x="582" 
d="M193 0l32 311h-134l12 86h131l22 209h-231l11 101h589l-11 -101h-231l-22 -209h135l-13 -86h-132l-32 -311h-126z" />
    <glyph glyph-name="tbar" unicode="&#x167;" horiz-adv-x="393" 
d="M191 -12c-90 0 -138 28 -122 167l11 107h-57l8 86h58l12 104h-80l11 94h81l11 112h122l-12 -112h151l-9 -94h-152l-12 -104h121l-9 -86h-121l-12 -114c-5 -42 1 -53 27 -53c28 0 82 12 121 26l23 -92c-34 -17 -101 -41 -171 -41z" />
    <glyph glyph-name="Utilde" unicode="&#x168;" horiz-adv-x="741" 
d="M341 -13c-151 0 -300 60 -277 275l47 445h127l-45 -438c-14 -131 50 -175 155 -175c108 0 180 50 195 198l44 415h123l-44 -418c-25 -238 -184 -302 -325 -302zM470 745c-44 0 -86 38 -120 38c-33 0 -53 -10 -77 -27l-43 63c30 30 70 61 126 61c52 0 93 -37 125 -37
c33 0 58 12 84 26l37 -65c-26 -26 -65 -59 -132 -59z" />
    <glyph glyph-name="utilde" unicode="&#x169;" horiz-adv-x="564" 
d="M171 -12c-95 0 -129 36 -115 172l41 386h123l-40 -375c-6 -54 1 -73 32 -73c49 0 117 48 145 68l41 380h122l-58 -546h-122l8 71c-42 -35 -108 -83 -177 -83zM393 634c-45 0 -88 41 -130 41c-34 0 -53 -6 -83 -29l-47 68c21 22 63 63 138 63c55 0 85 -38 130 -38
c34 0 61 14 89 29l39 -70c-20 -20 -64 -64 -136 -64z" />
    <glyph glyph-name="Umacron" unicode="&#x16a;" horiz-adv-x="741" 
d="M341 -13c-151 0 -300 60 -277 275l47 445h127l-45 -438c-14 -131 50 -175 155 -175c108 0 180 50 195 198l44 415h123l-44 -418c-25 -238 -184 -302 -325 -302zM264 769l10 101h308l-12 -101h-306z" />
    <glyph glyph-name="umacron" unicode="&#x16b;" horiz-adv-x="564" 
d="M171 -12c-95 0 -129 36 -115 172l41 386h123l-40 -375c-6 -54 1 -73 32 -73c49 0 117 48 145 68l41 380h122l-58 -546h-122l8 71c-42 -35 -108 -83 -177 -83zM173 648l11 105h290l-11 -105h-290z" />
    <glyph glyph-name="Ubreve" unicode="&#x16c;" horiz-adv-x="741" 
d="M341 -13c-151 0 -300 60 -277 275l47 445h127l-45 -438c-14 -131 50 -175 155 -175c108 0 180 50 195 198l44 415h123l-44 -418c-25 -238 -184 -302 -325 -302zM419 755c-108 0 -145 59 -160 89l68 61c19 -22 47 -53 105 -53c57 0 88 30 111 53l55 -63
c-22 -28 -68 -87 -179 -87z" />
    <glyph glyph-name="ubreve" unicode="&#x16d;" horiz-adv-x="564" 
d="M171 -12c-95 0 -129 36 -115 172l41 386h123l-40 -375c-6 -54 1 -73 32 -73c49 0 117 48 145 68l41 380h122l-58 -546h-122l8 71c-42 -35 -108 -83 -177 -83zM322 630c-108 0 -145 59 -160 89l68 61c19 -22 47 -53 105 -53c57 0 88 30 111 53l55 -63
c-22 -28 -68 -87 -179 -87z" />
    <glyph glyph-name="Uring" unicode="&#x16e;" horiz-adv-x="741" 
d="M413 709c-64 0 -123 29 -123 99c0 84 66 138 147 138c63 0 121 -37 121 -104c0 -85 -64 -133 -145 -133zM420 771c33 0 60 22 60 58c0 31 -22 50 -52 50c-36 0 -60 -22 -60 -58c0 -32 22 -50 52 -50zM341 -13c-151 0 -300 60 -277 275l47 445h127l-45 -438
c-14 -131 50 -175 155 -175c108 0 180 50 195 198l44 415h123l-44 -418c-25 -238 -184 -302 -325 -302z" />
    <glyph glyph-name="uring" unicode="&#x16f;" horiz-adv-x="564" 
d="M322 597c-64 0 -123 29 -123 99c0 84 66 138 147 138c63 0 121 -37 121 -104c0 -85 -64 -133 -145 -133zM329 659c33 0 60 22 60 58c0 31 -22 50 -52 50c-36 0 -60 -22 -60 -58c0 -32 22 -50 52 -50zM171 -12c-95 0 -129 36 -115 172l41 386h123l-40 -375
c-6 -54 1 -73 32 -73c49 0 117 48 145 68l41 380h122l-58 -546h-122l8 71c-42 -35 -108 -83 -177 -83z" />
    <glyph glyph-name="Uhungarumlaut" unicode="&#x170;" horiz-adv-x="741" 
d="M341 -13c-151 0 -300 60 -277 275l47 445h127l-45 -438c-14 -131 50 -175 155 -175c108 0 180 50 195 198l44 415h123l-44 -418c-25 -238 -184 -302 -325 -302zM266 734l-58 65l190 177l72 -83zM479 734l-24 83l246 86l30 -106z" />
    <glyph glyph-name="uhungarumlaut" unicode="&#x171;" horiz-adv-x="564" 
d="M171 -12c-95 0 -129 36 -115 172l41 386h123l-40 -375c-6 -54 1 -73 32 -73c49 0 117 48 145 68l41 380h122l-58 -546h-122l8 71c-42 -35 -108 -83 -177 -83zM180 604l-51 71l206 164l61 -83zM414 604l-38 78l228 127l40 -96z" />
    <glyph glyph-name="Uogonek" unicode="&#x172;" horiz-adv-x="741" 
d="M350 -243c-105 0 -127 59 -120 126c4 40 34 76 69 106c-135 9 -258 68 -237 265l49 453h127l-47 -447c-13 -131 52 -166 157 -166c108 0 178 41 194 189l45 424h123l-46 -427c-18 -177 -110 -253 -215 -280c-45 -27 -107 -73 -111 -114c-3 -29 18 -34 44 -34
c20 0 45 3 60 8l13 -82c-24 -12 -47 -21 -105 -21z" />
    <glyph glyph-name="uogonek" unicode="&#x173;" horiz-adv-x="564" 
d="M364 -243c-94 0 -122 42 -120 109c1 50 50 107 97 140l7 65c-42 -35 -108 -83 -177 -83c-95 0 -129 36 -115 172l41 386h123l-40 -375c-6 -54 1 -73 32 -73c49 0 117 48 145 68l41 380h122l-59 -546c-45 -27 -106 -73 -110 -114c-2 -29 19 -34 44 -34c20 0 45 3 60 8
l14 -82c-25 -12 -48 -21 -105 -21z" />
    <glyph glyph-name="Wcircumflex" unicode="&#x174;" horiz-adv-x="955" 
d="M639 736l-140 57l-151 -54l-34 82l195 83l172 -83zM133 0l-114 707h133l84 -602l202 415l-43 187h132l119 -600l238 600h127l-294 -707h-164l-78 365l-177 -365h-165z" />
    <glyph glyph-name="wcircumflex" unicode="&#x175;" horiz-adv-x="795" 
d="M279 606l-51 87l221 123l188 -122l-62 -88l-140 83zM104 0l-78 546h131l46 -435l156 291l-22 144h130l52 -435c19 33 118 246 118 246c25 50 40 109 40 155c0 11 -1 23 -3 34h130c2 -11 3 -23 3 -34c0 -58 -24 -124 -49 -174l-171 -338h-166l-40 256l-140 -256h-137z" />
    <glyph glyph-name="Ycircumflex" unicode="&#x176;" horiz-adv-x="585" 
d="M186 0l26 250l-197 457h143l132 -351l218 351h140l-310 -454l-26 -253h-126zM478 736l-140 57l-151 -54l-34 82l195 83l172 -83z" />
    <glyph glyph-name="ycircumflex" unicode="&#x177;" horiz-adv-x="485" 
d="M38 -220l111 220h-41l-82 546h131l51 -435c19 33 119 246 119 246c25 50 40 110 40 155c0 12 -1 23 -3 34h131c2 -11 3 -23 3 -34c0 -57 -24 -123 -49 -174l-282 -558h-129zM125 606l-51 87l221 123l188 -122l-62 -88l-140 83z" />
    <glyph glyph-name="Ydieresis" unicode="&#x178;" horiz-adv-x="585" 
d="M186 0l26 250l-197 457h143l132 -351l218 351h140l-310 -454l-26 -253h-126zM213 748l-67 78l84 76l67 -76zM439 748l-68 78l84 76l68 -76z" />
    <glyph glyph-name="Zacute" unicode="&#x179;" horiz-adv-x="551" 
d="M236 737l-22 80l249 86l28 -102zM-22 0l10 92l401 508h-322l11 107h474l-9 -86l-404 -514h371l-11 -107h-521z" />
    <glyph glyph-name="zacute" unicode="&#x17a;" horiz-adv-x="446" 
d="M189 600l-37 84l245 139l45 -99zM-17 0l11 89l301 356h-240l13 101h385l-10 -87l-298 -359h262l-11 -100h-413z" />
    <glyph glyph-name="Zdotaccent" unicode="&#x17b;" horiz-adv-x="551" 
d="M-22 0l10 92l401 508h-322l11 107h474l-9 -86l-404 -514h371l-11 -107h-521zM326 757l-82 91l101 90l82 -90z" />
    <glyph glyph-name="zdotaccent" unicode="&#x17c;" horiz-adv-x="446" 
d="M-17 0l11 89l301 356h-240l13 101h385l-10 -87l-298 -359h262l-11 -100h-413zM275 629l-79 87l98 86l79 -86z" />
    <glyph glyph-name="Zcaron" unicode="&#x17d;" horiz-adv-x="551" 
d="M309 743l-171 82l42 85l140 -57l150 54l35 -82zM-22 0l10 92l401 508h-322l11 107h474l-9 -86l-404 -514h371l-11 -107h-521z" />
    <glyph glyph-name="zcaron" unicode="&#x17e;" horiz-adv-x="446" 
d="M263 602l-181 117l59 84l136 -86l151 86l47 -83zM-17 0l11 89l301 356h-240l13 101h385l-10 -87l-298 -359h262l-11 -100h-413z" />
    <glyph glyph-name="florin" unicode="&#x192;" horiz-adv-x="499" 
d="M-1 -42l7 101c79 5 159 0 172 103l9 75h-104l10 100h105l6 54c18 161 136 203 285 203l-4 -105c-84 -7 -150 -7 -161 -101l-6 -51h115l-10 -100h-116l-9 -77c-17 -142 -111 -202 -299 -202z" />
    <glyph glyph-name="uni01D4" unicode="&#x1d4;" horiz-adv-x="564" 
d="M171 -12c-81 0 -118 27 -118 120c0 16 1 33 3 52l41 386h123l-40 -375c-1 -11 -2 -22 -2 -30c0 -31 10 -43 34 -43c49 0 117 48 145 68l41 380h122l-58 -546h-122l8 71c-42 -35 -108 -83 -177 -83zM310 602l-181 117l59 84l136 -86l151 86l47 -83z" />
    <glyph glyph-name="AEmacron" unicode="&#x1e2;" horiz-adv-x="925" 
d="M-69 0l455 707h519l-10 -100h-304l-21 -204h282l-11 -96h-281l-22 -207h326l-10 -100h-452l35 307h-179l-188 -307h-139zM314 402h134l23 205h-30zM485 769l10 101h308l-12 -101h-306z" />
    <glyph glyph-name="aemacron" unicode="&#x1e3;" horiz-adv-x="776" 
d="M152 -12c-95 0 -127 72 -127 180c0 225 147 387 347 387c34 0 68 -3 102 -9l-6 -44c40 36 89 59 150 59c118 0 159 -63 159 -135c0 -94 -84 -137 -167 -165l-153 -52c0 -3 -1 -12 -1 -15c0 -68 16 -102 55 -102c44 0 103 23 167 56l43 -83c-70 -44 -140 -77 -237 -77
c-89 0 -125 50 -137 116c-62 -65 -128 -116 -195 -116zM186 97c39 0 114 60 144 85l29 270c-2 0 -23 1 -23 0c-100 2 -188 -120 -188 -266c0 -65 12 -89 38 -89zM468 305l135 53c38 16 58 37 58 62c0 28 -22 42 -47 42c-79 0 -129 -72 -146 -157zM341 648l11 105h290
l-11 -105h-290z" />
    <glyph glyph-name="AEacute" unicode="&#x1fc;" horiz-adv-x="925" 
d="M566 737l-22 80l249 86l28 -102zM-69 0l455 707h519l-10 -100h-304l-21 -204h282l-11 -96h-281l-22 -207h326l-10 -100h-452l35 307h-179l-188 -307h-139zM314 402h134l23 205h-30z" />
    <glyph glyph-name="aeacute" unicode="&#x1fd;" horiz-adv-x="776" 
d="M394 600l-37 84l245 139l45 -99zM152 -12c-95 0 -127 72 -127 180c0 225 147 387 347 387c34 0 68 -3 102 -9l-6 -44c40 36 89 59 150 59c118 0 159 -63 159 -135c0 -94 -84 -137 -167 -165l-153 -52c0 -3 -1 -12 -1 -15c0 -68 16 -102 55 -102c44 0 103 23 167 56
l43 -83c-70 -44 -140 -77 -237 -77c-89 0 -125 50 -137 116c-62 -65 -128 -116 -195 -116zM186 97c39 0 114 60 144 85l29 270c-2 0 -23 1 -23 0c-100 2 -188 -120 -188 -266c0 -65 12 -89 38 -89zM468 305l135 53c38 16 58 37 58 62c0 28 -22 42 -47 42
c-79 0 -129 -72 -146 -157z" />
    <glyph glyph-name="Oslashacute" unicode="&#x1fe;" horiz-adv-x="797" 
d="M57 -38l-52 56l84 82c-39 52 -59 119 -59 201c0 256 156 417 411 417c87 0 159 -21 212 -62l88 85l51 -57l-86 -84c34 -50 53 -115 53 -192c0 -258 -152 -420 -411 -420c-84 0 -153 20 -205 59zM183 192l381 378c-34 30 -80 46 -141 46c-178 0 -264 -135 -264 -303
c0 -46 8 -87 24 -121zM362 90c181 0 267 136 267 306c0 41 -8 78 -22 109l-376 -374c32 -26 75 -41 131 -41zM334 737l-22 80l249 86l28 -102z" />
    <glyph glyph-name="oslashacute" unicode="&#x1ff;" horiz-adv-x="524" 
d="M29 -29l-41 34l64 75c-17 31 -27 69 -27 112c0 213 109 367 289 367c48 0 88 -15 116 -39l52 59l40 -37l-54 -64c21 -33 33 -75 33 -119c0 -153 -66 -371 -288 -371c-53 0 -96 18 -127 49zM152 196l204 236c-15 20 -38 28 -67 28c-66 0 -134 -93 -138 -243
c0 -4 0 -17 1 -21zM234 90c68 0 139 93 142 250c0 6 -1 26 -2 30l-208 -242c12 -23 34 -38 68 -38zM219 600l-37 84l245 139l45 -99z" />
    <glyph glyph-name="Scommaaccent" unicode="&#x218;" horiz-adv-x="518" 
d="M112 -265l36 207h117l-60 -207h-93zM197 -12c-72 0 -157 19 -216 50l46 98c58 -23 114 -41 179 -41c69 0 150 20 150 103c0 119 -299 114 -299 320c0 137 120 198 248 198c79 0 144 -15 203 -44l-45 -92c-48 20 -104 31 -160 31s-122 -15 -122 -81
c0 -109 303 -125 303 -318c0 -161 -145 -224 -287 -224z" />
    <glyph glyph-name="scommaaccent" unicode="&#x219;" horiz-adv-x="443" 
d="M76 -265l36 207h117l-60 -207h-93zM175 -10c-53 0 -118 7 -171 32l33 97c47 -16 101 -27 148 -27c40 0 93 12 93 58c0 75 -210 106 -210 248c0 120 92 160 197 160c57 0 130 -14 163 -31l-31 -91c-45 13 -85 23 -131 23c-40 0 -80 -7 -80 -51c0 -78 212 -117 212 -257
c0 -137 -133 -161 -223 -161z" />
    <glyph glyph-name="uni021A" unicode="&#x21a;" horiz-adv-x="582" 
d="M166 -265l36 207h117l-60 -207h-93zM193 0l63 606h-231l11 101h589l-11 -101h-231l-64 -606h-126z" />
    <glyph glyph-name="uni021B" unicode="&#x21b;" horiz-adv-x="393" 
d="M90 -265l36 207h117l-60 -207h-93zM191 -12c-90 0 -138 28 -122 167l32 297h-80l11 94h81l11 112h122l-12 -112h151l-9 -94h-152l-33 -304c-5 -42 1 -53 27 -53c28 0 82 12 121 26l23 -92c-34 -17 -101 -41 -171 -41z" />
    <glyph glyph-name="dotlessj" unicode="&#x237;" horiz-adv-x="272" 
d="M-54 -220c-34 0 -78 9 -104 20l32 97c15 -4 48 -12 76 -12c63 0 85 33 93 109l58 552h123l-58 -553c-18 -175 -106 -213 -220 -213z" />
    <glyph glyph-name="schwa" unicode="&#x259;" horiz-adv-x="475" 
d="M300 560c125 0 151 -108 151 -208c0 -184 -91 -365 -285 -365c-115 0 -164 67 -164 139c0 93 85 136 169 164l154 53c1 6 1 13 1 18c0 65 -15 96 -54 96c-43 0 -101 -23 -166 -58l-43 84c70 44 140 77 237 77zM315 246l-138 -52c-38 -15 -57 -37 -57 -63
c0 -31 24 -46 49 -46c79 0 127 69 146 161z" />
    <glyph glyph-name="circumflex" unicode="&#x2c6;" horiz-adv-x="512" 
d="M139 606l-51 87l221 123l188 -122l-62 -88l-140 83z" />
    <glyph glyph-name="caron" unicode="&#x2c7;" horiz-adv-x="512" 
d="M289 602l-181 117l59 84l136 -86l151 86l47 -83z" />
    <glyph glyph-name="breve" unicode="&#x2d8;" horiz-adv-x="496" 
d="M301 630c-108 0 -145 59 -160 89l68 61c19 -22 47 -53 105 -53c57 0 88 30 111 53l55 -63c-22 -28 -68 -87 -179 -87z" />
    <glyph glyph-name="dotaccent" unicode="&#x2d9;" horiz-adv-x="407" 
d="M155 629l-79 87l98 86l79 -86z" />
    <glyph glyph-name="ring" unicode="&#x2da;" horiz-adv-x="510" 
d="M334 597c-64 0 -123 29 -123 99c0 84 66 138 147 138c63 0 121 -37 121 -104c0 -85 -64 -133 -145 -133zM341 659c33 0 60 22 60 58c0 31 -22 50 -52 50c-36 0 -60 -22 -60 -58c0 -32 22 -50 52 -50z" />
    <glyph glyph-name="ogonek" unicode="&#x2db;" horiz-adv-x="522" 
d="M476 -140l14 -82c-28 -11 -64 -20 -101 -20c-71 0 -126 33 -126 106c0 99 137 176 205 210l40 -60c-52 -28 -136 -82 -136 -130c0 -26 19 -33 40 -33c19 0 45 3 64 9z" />
    <glyph glyph-name="tilde" unicode="&#x2dc;" horiz-adv-x="512" 
d="M381 634c-45 0 -88 41 -130 41c-34 0 -53 -6 -83 -29l-47 68c21 22 63 63 138 63c55 0 85 -38 130 -38c34 0 61 14 89 29l39 -70c-20 -20 -64 -64 -136 -64z" />
    <glyph glyph-name="hungarumlaut" unicode="&#x2dd;" horiz-adv-x="517" 
d="M121 604l-51 71l206 164l61 -83zM355 604l-38 78l228 127l40 -96z" />
    <glyph glyph-name="uni0374" unicode="&#x374;" horiz-adv-x="147" 
d="M34 520c43 75 48 165 54 239h127c-8 -106 -22 -170 -80 -239h-101z" />
    <glyph glyph-name="uni0375" unicode="&#x375;" horiz-adv-x="201" 
d="M0 -122c43 76 48 166 54 239h124c-8 -105 -22 -170 -79 -239h-99z" />
    <glyph glyph-name="uni037E" unicode="&#x37e;" horiz-adv-x="281" 
d="M6 -132c21 36 37 83 44 127c6 35 10 91 14 130h131c-3 -36 -7 -74 -13 -102c-12 -62 -32 -108 -71 -155h-105zM88 420l14 126h138l-13 -126h-139z" />
    <glyph glyph-name="tonos" unicode="&#x384;" horiz-adv-x="490" 
d="M200 616l90 158h124l-117 -157z" />
    <glyph glyph-name="dieresistonos" unicode="&#x385;" horiz-adv-x="541" 
d="M76 625l-61 70l77 70l63 -70zM160 623l90 158h124l-116 -157zM417 625l-62 70l77 70l63 -70z" />
    <glyph glyph-name="Alphatonos" unicode="&#x386;" horiz-adv-x="647" 
d="M-39 539l90 158h124l-117 -157zM-54 0l352 707h167l158 -707h-130l-49 236h-256l-113 -236h-129zM235 331h189l-39 204l-14 98l-41 -98z" />
    <glyph glyph-name="anoteleia" unicode="&#x387;" horiz-adv-x="275" 
d="M135 291l-79 87l97 86l80 -86z" />
    <glyph glyph-name="Epsilontonos" unicode="&#x388;" horiz-adv-x="574" 
d="M-148 539l90 158h124l-117 -157zM46 0l75 707h429l-10 -100h-304l-21 -204h281l-10 -96h-281l-22 -207h327l-11 -100h-453z" />
    <glyph glyph-name="Etatonos" unicode="&#x389;" horiz-adv-x="757" 
d="M-147 541l90 158h124l-117 -157zM46 0l75 707h125l-31 -303h338l32 303h127l-74 -707h-127l33 306h-339l-33 -306h-126z" />
    <glyph glyph-name="Iotatonos" unicode="&#x38a;" horiz-adv-x="293" 
d="M-160 539l90 158h124l-117 -157zM46 0l75 707h125l-74 -707h-126z" />
    <glyph glyph-name="Omicrontonos" unicode="&#x38c;" horiz-adv-x="797" 
d="M-114 539l90 158h124l-117 -157zM352 -12c-199 0 -317 116 -317 313c0 255 155 417 410 417c199 0 318 -112 318 -310c0 -257 -152 -420 -411 -420zM366 90c182 0 267 136 267 306c0 133 -68 220 -205 220c-178 0 -265 -134 -265 -303c0 -131 65 -223 203 -223z" />
    <glyph glyph-name="Upsilontonos" unicode="&#x38e;" horiz-adv-x="585" 
d="M-234 539l90 158h124l-117 -157zM188 0l26 250l-197 457h143l132 -351l218 351h140l-310 -454l-26 -253h-126z" />
    <glyph glyph-name="Omegatonos" unicode="&#x38f;" horiz-adv-x="816" 
d="M-108 540l90 158h124l-117 -157zM22 0l11 107h132c-54 32 -114 120 -114 227c0 233 173 384 404 384c212 0 321 -129 321 -305c0 -125 -69 -258 -165 -306h128l-11 -107h-289l11 101c115 55 195 175 195 300c0 120 -60 215 -207 215c-166 0 -261 -124 -261 -275
c0 -109 69 -194 142 -240l-11 -101h-286z" />
    <glyph glyph-name="iotadieresistonos" unicode="&#x390;" horiz-adv-x="272" 
d="M28 633l-61 70l77 70l63 -70zM112 631l90 158h124l-116 -157zM369 633l-62 70l77 70l63 -70zM44 0l57 546h123l-57 -546h-123z" />
    <glyph glyph-name="Alpha" unicode="&#x391;" horiz-adv-x="647" 
d="M-54 0l352 707h167l158 -707h-130l-49 236h-256l-113 -236h-129zM235 331h189l-39 204l-14 98l-41 -98z" />
    <glyph glyph-name="Beta" unicode="&#x392;" horiz-adv-x="624" 
d="M46 0l75 707h220c110 0 224 -30 224 -162c0 -70 -35 -135 -100 -163l-1 -3c70 -16 118 -75 118 -148c0 -168 -132 -231 -285 -231h-251zM184 101h104c90 0 165 16 165 123c0 93 -98 95 -167 95h-79zM216 409h80c87 0 138 26 138 119c0 77 -66 82 -126 82h-71z" />
    <glyph glyph-name="Gamma" unicode="&#x393;" horiz-adv-x="495" 
d="M46 0l75 707h410l-11 -101h-284l-64 -606h-126z" />
    <glyph glyph-name="Delta" unicode="&#x394;" horiz-adv-x="662" 
d="M122 106h370l-95 428l-17 102l-44 -101zM-60 0l366 707h168l172 -707h-706z" />
    <glyph glyph-name="Epsilon" unicode="&#x395;" horiz-adv-x="574" 
d="M46 0l75 707h429l-10 -100h-304l-21 -204h281l-10 -96h-281l-22 -207h327l-11 -100h-453z" />
    <glyph glyph-name="Zeta" unicode="&#x396;" horiz-adv-x="551" 
d="M-22 0l10 92l401 508h-322l11 107h474l-9 -86l-404 -514h371l-11 -107h-521z" />
    <glyph glyph-name="Eta" unicode="&#x397;" horiz-adv-x="757" 
d="M46 0l75 707h125l-31 -303h338l32 303h127l-74 -707h-127l33 306h-339l-33 -306h-126z" />
    <glyph glyph-name="Theta" unicode="&#x398;" horiz-adv-x="797" 
d="M352 -12c-199 0 -317 116 -317 313c0 255 155 417 410 417c199 0 318 -112 318 -310c0 -257 -152 -420 -411 -420zM366 90c182 0 267 136 267 306c0 133 -68 220 -205 220c-178 0 -265 -134 -265 -303c0 -131 65 -223 203 -223zM256 307l10 96h279l-10 -96h-279z" />
    <glyph glyph-name="Iota" unicode="&#x399;" horiz-adv-x="293" 
d="M46 0l75 707h125l-74 -707h-126z" />
    <glyph glyph-name="Kappa" unicode="&#x39a;" horiz-adv-x="628" 
d="M484 -34l-271 400l2 17l301 324h155l-314 -329l247 -354zM46 0l75 707h125l-74 -707h-126z" />
    <glyph glyph-name="Lambda" unicode="&#x39b;" horiz-adv-x="631" 
d="M-50 0l337 707h168l145 -707h-129l-99 536l-12 94l-38 -95l-244 -535h-128z" />
    <glyph glyph-name="Mu" unicode="&#x39c;" horiz-adv-x="898" 
d="M-45 0l244 707h151l44 -611l262 611h149l16 -707h-122l-4 533l-229 -533h-175l-39 536l-173 -536h-124z" />
    <glyph glyph-name="Nu" unicode="&#x39d;" horiz-adv-x="751" 
d="M46 0l75 707h158l245 -565l55 565h126l-75 -707h-164l-238 550l-56 -550h-126z" />
    <glyph glyph-name="Xi" unicode="&#x39e;" horiz-adv-x="608" 
d="M11 0l12 108h505l-12 -108h-505zM76 304l11 104h440l-11 -104h-440zM85 600l12 107h484l-12 -107h-484z" />
    <glyph glyph-name="Omicron" unicode="&#x39f;" horiz-adv-x="797" 
d="M352 -12c-199 0 -317 116 -317 313c0 255 155 417 410 417c199 0 318 -112 318 -310c0 -257 -152 -420 -411 -420zM366 90c182 0 267 136 267 306c0 133 -68 220 -205 220c-178 0 -265 -134 -265 -303c0 -131 65 -223 203 -223z" />
    <glyph glyph-name="Pi" unicode="&#x3a0;" horiz-adv-x="738" 
d="M46 0l75 707l571 -1l-74 -706h-126l63 602h-320l-63 -602h-126z" />
    <glyph glyph-name="Rho" unicode="&#x3a1;" horiz-adv-x="580" 
d="M42 0l74 707h253c130 0 229 -67 229 -205c0 -201 -175 -274 -349 -273h-39l14 100c124 1 242 18 242 159c0 84 -52 120 -129 120h-104l-64 -608h-127z" />
    <glyph glyph-name="Sigma" unicode="&#x3a3;" horiz-adv-x="585" 
d="M-6 0l10 93l225 263l-167 246l11 105h502l-11 -100h-360l165 -243l-220 -257h368l-12 -107h-511z" />
    <glyph glyph-name="Tau" unicode="&#x3a4;" horiz-adv-x="582" 
d="M193 0l63 606h-231l11 101h589l-11 -101h-231l-64 -606h-126z" />
    <glyph glyph-name="Upsilon" unicode="&#x3a5;" horiz-adv-x="585" 
d="M186 0l26 250l-197 457h143l132 -351l218 351h140l-310 -454l-26 -253h-126z" />
    <glyph glyph-name="Phi" unicode="&#x3a6;" horiz-adv-x="815" 
d="M307 0l9 85c-171 0 -298 89 -284 278c14 200 163 298 342 298l8 76h126l-8 -76c171 0 297 -89 283 -278c-14 -200 -163 -298 -341 -298l-9 -85h-126zM326 186l38 374c-111 0 -197 -68 -205 -194c-7 -117 64 -180 167 -180zM452 186c111 0 197 71 204 195
c9 119 -63 179 -167 179z" />
    <glyph glyph-name="Chi" unicode="&#x3a7;" horiz-adv-x="598" 
d="M-56 0l289 368l-175 339h143l116 -244l181 244h140l-265 -337l191 -370h-143l-132 273l-202 -273h-143z" />
    <glyph glyph-name="Psi" unicode="&#x3a8;" horiz-adv-x="752" 
d="M276 0l16 149c-122 13 -261 65 -240 268l30 290h127l-30 -291c-10 -105 47 -145 124 -160l47 451h126l-47 -450c81 17 148 64 160 181l28 269h122l-26 -265c-23 -221 -170 -278 -296 -293l-15 -149h-126z" />
    <glyph glyph-name="Omega" unicode="&#x3a9;" horiz-adv-x="816" 
d="M22 0l11 107h132c-54 32 -114 120 -114 227c0 233 173 384 404 384c212 0 321 -129 321 -305c0 -125 -69 -258 -165 -306h128l-11 -107h-289l11 101c115 55 195 175 195 300c0 120 -60 215 -207 215c-166 0 -261 -124 -261 -275c0 -109 69 -194 142 -240l-11 -101h-286z
" />
    <glyph glyph-name="Iotadieresis" unicode="&#x3aa;" horiz-adv-x="293" 
d="M75 748l-67 78l84 76l67 -76zM301 748l-68 78l84 76l68 -76zM46 0l75 707h125l-74 -707h-126z" />
    <glyph glyph-name="Upsilondieresis" unicode="&#x3ab;" horiz-adv-x="585" 
d="M217 748l-67 78l84 76l67 -76zM443 748l-68 78l84 76l68 -76zM186 0l26 250l-197 457h143l132 -351l218 351h140l-310 -454l-26 -253h-126z" />
    <glyph glyph-name="alphatonos" unicode="&#x3ac;" horiz-adv-x="539" 
d="M287 626l90 158h124l-117 -157zM157 -12c-96 0 -129 69 -129 173c0 180 88 391 266 391c29 0 58 -13 84 -34l3 27h114l-56 -545h-123l9 82c-61 -58 -115 -94 -168 -94zM190 97c40 0 115 60 145 86l26 240c-21 15 -45 26 -72 26c-86 0 -138 -150 -138 -276
c0 -41 10 -76 39 -76z" />
    <glyph glyph-name="epsilontonos" unicode="&#x3ad;" horiz-adv-x="452" 
d="M225 624l90 158h124l-117 -157zM216 -12c-123 0 -194 57 -194 145c0 71 40 139 122 165c-44 15 -75 53 -75 100c0 86 75 162 219 162c73 0 124 -23 152 -41l-36 -83c-26 12 -70 26 -117 26c-64 0 -98 -22 -98 -70c0 -43 41 -53 68 -53h80l-10 -92h-76
c-54 0 -101 -31 -101 -88c0 -48 37 -68 98 -68c39 0 96 16 142 38l38 -91c-44 -23 -125 -50 -212 -50z" />
    <glyph glyph-name="etatonos" unicode="&#x3ae;" horiz-adv-x="571" 
d="M292 626l90 158h124l-117 -157zM321 -220l63 591c2 15 3 28 3 38c0 25 -6 34 -30 34c-38 0 -128 -55 -151 -68l-40 -375h-122l58 546h122l-7 -71c40 29 119 85 187 85c79 0 109 -26 109 -104c0 -18 -2 -39 -4 -62l-65 -614h-123z" />
    <glyph glyph-name="iotatonos" unicode="&#x3af;" horiz-adv-x="272" 
d="M122 623l90 158h124l-117 -157zM44 0l57 546h123l-57 -546h-123z" />
    <glyph glyph-name="upsilondieresistonos" unicode="&#x3b0;" horiz-adv-x="552" 
d="M148 625l-61 70l77 70l63 -70zM232 623l90 158h124l-116 -157zM489 625l-62 70l77 70l63 -70zM236 -12c-114 0 -187 43 -187 165c0 7 1 23 3 38l37 355h122l-36 -346c-1 -11 -2 -21 -2 -31c0 -57 25 -77 72 -77c45 0 99 18 110 121l35 333h122l-36 -334
c-17 -167 -117 -224 -240 -224z" />
    <glyph glyph-name="alpha" unicode="&#x3b1;" horiz-adv-x="539" 
d="M157 -12c-96 0 -129 69 -129 173c0 180 88 391 266 391c29 0 58 -13 84 -34l3 27h114l-56 -545h-123l9 82c-61 -58 -115 -94 -168 -94zM190 97c40 0 115 60 145 86l26 240c-21 15 -45 26 -72 26c-86 0 -138 -150 -138 -276c0 -41 10 -76 39 -76z" />
    <glyph glyph-name="beta" unicode="&#x3b2;" horiz-adv-x="553" 
d="M17 -220l76 725c18 174 122 270 249 270c111 0 181 -50 181 -144c0 -107 -57 -181 -126 -211c71 -6 128 -41 128 -137c0 -158 -89 -294 -271 -294c-29 0 -65 6 -92 17l-23 -226h-122zM260 87c88 0 141 83 141 180c0 79 -54 91 -116 92l-1 81c62 6 119 87 119 169
c0 48 -32 65 -74 65c-64 0 -100 -48 -115 -180l-42 -391c29 -10 64 -16 88 -16z" />
    <glyph glyph-name="gamma" unicode="&#x3b3;" horiz-adv-x="462" 
d="M109 -220l24 220l-111 546h132l46 -282l11 -120l48 119l46 94c24 50 39 110 39 155c0 12 -1 23 -2 34h129c3 -11 4 -22 4 -34c0 -58 -24 -123 -50 -174l-170 -339l-25 -219h-121z" />
    <glyph glyph-name="delta" unicode="&#x3b4;" horiz-adv-x="532" 
d="M221 -12c-113 0 -192 72 -192 204c0 151 84 260 192 297c-43 27 -86 66 -86 122c0 115 102 164 201 164c86 0 138 -17 182 -34l-33 -91c-11 4 -84 24 -150 24c-50 0 -86 -18 -86 -60c0 -52 83 -85 118 -106c42 -24 131 -72 131 -199c0 -198 -119 -321 -277 -321zM240 90
c87 0 134 124 134 210c0 83 -33 112 -79 141c-102 -42 -140 -145 -140 -242c0 -67 25 -109 85 -109z" />
    <glyph glyph-name="epsilon" unicode="&#x3b5;" horiz-adv-x="452" 
d="M216 -12c-123 0 -194 57 -194 145c0 71 40 139 122 165c-44 15 -75 53 -75 100c0 86 75 162 219 162c73 0 124 -23 152 -41l-36 -83c-26 12 -70 26 -117 26c-64 0 -98 -22 -98 -70c0 -43 41 -53 68 -53h80l-10 -92h-76c-54 0 -101 -31 -101 -88c0 -48 37 -68 98 -68
c39 0 96 16 142 38l38 -91c-44 -23 -125 -50 -212 -50z" />
    <glyph glyph-name="zeta" unicode="&#x3b6;" horiz-adv-x="452" 
d="M354 -159l-86 9c17 29 54 99 54 131c0 10 -4 18 -13 18c-40 0 -90 -10 -130 -10c-101 0 -152 66 -152 158c0 221 186 405 327 507h-229l10 101h381l-10 -93c-146 -103 -352 -291 -352 -486c0 -65 29 -79 66 -79c44 0 104 13 146 13c49 0 63 -40 63 -72
c0 -63 -52 -163 -75 -197z" />
    <glyph glyph-name="eta" unicode="&#x3b7;" horiz-adv-x="571" 
d="M321 -220l63 591c2 15 3 28 3 38c0 25 -6 34 -30 34c-38 0 -128 -55 -151 -68l-40 -375h-122l58 546h122l-7 -71c40 29 119 85 187 85c79 0 109 -26 109 -104c0 -18 -2 -39 -4 -62l-65 -614h-123z" />
    <glyph glyph-name="theta" unicode="&#x3b8;" horiz-adv-x="526" 
d="M220 -12c-116 0 -178 95 -178 244c0 243 62 543 287 543c132 0 176 -114 176 -236c0 -214 -45 -551 -285 -551zM238 89c79 0 115 119 130 259h-197c-5 -44 -6 -103 -6 -137c0 -82 22 -122 73 -122zM182 437h195c4 38 6 91 6 122c0 77 -20 117 -70 117
c-77 0 -113 -110 -131 -239z" />
    <glyph glyph-name="iota" unicode="&#x3b9;" horiz-adv-x="272" 
d="M44 0l57 546h123l-57 -546h-123z" />
    <glyph glyph-name="kappa" unicode="&#x3ba;" horiz-adv-x="505" 
d="M44 0l57 546h123l-27 -254l195 254h136l-203 -255l167 -286l-132 -12l-164 285l-29 -278h-123z" />
    <glyph glyph-name="lambda" unicode="&#x3bb;" horiz-adv-x="501" 
d="M462 -15c-104 -2 -149 47 -158 131l-24 188l-10 124l-48 -126l-127 -302h-135l250 546h39l-7 48c-7 44 -18 80 -77 80c-29 0 -54 -8 -78 -16l-12 89c29 12 83 28 124 28c118 0 147 -57 161 -163l65 -465c8 -53 40 -60 59 -64z" />
    <glyph glyph-name="mugreek" unicode="&#x3bc;" horiz-adv-x="568" 
d="M20 -220l81 766h123l-40 -374c-6 -53 2 -70 33 -70c50 0 117 52 145 68l39 376h123l-58 -546h-122l8 71c-40 -31 -94 -78 -159 -83c-10 0 -20 1 -28 3l-22 -211h-123z" />
    <glyph glyph-name="nu" unicode="&#x3bd;" horiz-adv-x="485" 
d="M111 0l-85 546h131l52 -435l118 246c24 50 40 110 40 155c0 12 -1 23 -3 34h130c3 -11 3 -22 3 -34c0 -58 -23 -123 -49 -174l-170 -338h-167z" />
    <glyph glyph-name="xi" unicode="&#x3be;" horiz-adv-x="460" 
d="M350 -159l-86 9c17 29 54 100 54 132c0 11 -4 18 -14 18c-173 1 -279 39 -279 187c0 95 69 199 197 230c-90 39 -115 102 -115 154c0 128 117 201 258 201c43 0 100 -9 142 -25l-21 -100c-27 9 -79 19 -119 19c-70 0 -137 -25 -137 -100c0 -61 66 -106 152 -110l-19 -89
c-139 -21 -212 -76 -212 -163c0 -81 56 -103 211 -103c49 0 63 -36 63 -68c0 -64 -52 -158 -75 -192z" />
    <glyph glyph-name="omicron" unicode="&#x3bf;" horiz-adv-x="533" 
d="M217 -12c-121 0 -188 87 -188 204c0 215 109 367 289 367c126 0 187 -94 187 -200c0 -152 -65 -371 -288 -371zM239 90c69 0 142 96 142 263c0 81 -32 107 -88 107c-70 0 -138 -104 -138 -259c0 -60 21 -111 84 -111z" />
    <glyph glyph-name="pi" unicode="&#x3c0;" horiz-adv-x="569" 
d="M55 0l45 445h-65l11 101h528l-10 -101h-62l-45 -445h-124l45 445h-153l-46 -445h-124z" />
    <glyph glyph-name="rho" unicode="&#x3c1;" horiz-adv-x="544" 
d="M13 -220l46 442c23 221 109 338 268 338c108 0 178 -62 178 -195c0 -206 -86 -376 -274 -376c-20 0 -48 4 -73 14l-22 -223h-123zM234 87c108 0 149 162 149 278c0 58 -19 96 -71 96c-73 0 -113 -86 -129 -234l-14 -126c21 -8 45 -14 65 -14z" />
    <glyph glyph-name="sigma1" unicode="&#x3c2;" horiz-adv-x="452" 
d="M356 -159l-86 9c17 29 54 99 54 131c0 10 -4 18 -13 18c-42 0 -93 -10 -137 -10c-117 0 -145 95 -145 204c0 193 102 368 287 368c65 0 116 -25 141 -48l-57 -82c-26 18 -52 30 -85 30c-128 0 -159 -164 -159 -262c0 -88 28 -102 60 -102c44 0 110 13 152 13
c49 0 63 -40 63 -72c0 -63 -52 -163 -75 -197z" />
    <glyph glyph-name="sigma" unicode="&#x3c3;" horiz-adv-x="573" 
d="M218 -12c-114 0 -189 77 -189 208c0 192 102 370 305 361l244 -11l-11 -98l-89 4c20 -30 29 -65 29 -102c0 -162 -77 -362 -289 -362zM239 90c82 0 144 118 144 258c0 27 -3 75 -34 109l-33 2c-109 7 -161 -134 -161 -253c0 -77 27 -116 84 -116z" />
    <glyph glyph-name="tau" unicode="&#x3c4;" horiz-adv-x="429" 
d="M123 0l47 446h-146l10 100h414l-10 -100h-146l-47 -446h-122z" />
    <glyph glyph-name="upsilon" unicode="&#x3c5;" horiz-adv-x="552" 
d="M236 -12c-114 0 -187 43 -187 165c0 7 1 23 3 38l37 355h122l-36 -346c-1 -11 -2 -21 -2 -31c0 -57 25 -77 72 -77c45 0 99 18 110 121l35 333h122l-36 -334c-17 -167 -117 -224 -240 -224z" />
    <glyph glyph-name="phi" unicode="&#x3c6;" horiz-adv-x="667" 
d="M220 -220l22 213c-131 2 -213 89 -213 210c0 212 111 327 272 348l12 107h122l-12 -105c118 -2 215 -75 215 -203c0 -190 -96 -339 -274 -356l-22 -214h-122zM252 88l39 367c-97 -22 -136 -139 -136 -244c0 -63 28 -118 97 -123zM375 91c94 25 139 142 139 252
c0 66 -33 110 -101 114z" />
    <glyph glyph-name="chi" unicode="&#x3c7;" horiz-adv-x="479" 
d="M395 -231c-102 18 -123 63 -148 154l-37 133l-157 -276h-134l249 404l-70 219c-14 43 -40 56 -66 60l27 102c101 -11 131 -57 152 -131l36 -123l130 235h134l-222 -365l70 -226c17 -55 43 -77 69 -83z" />
    <glyph glyph-name="psi" unicode="&#x3c8;" horiz-adv-x="691" 
d="M226 -220l22 215c-130 12 -213 67 -196 235l34 316h120l-33 -309c-11 -101 24 -135 86 -143l60 564h122l-60 -563c61 10 105 45 118 162l31 289h121l-30 -288c-19 -180 -95 -250 -250 -263l-23 -215h-122z" />
    <glyph glyph-name="omega" unicode="&#x3c9;" horiz-adv-x="708" 
d="M183 -11c-90 0 -154 70 -154 196s32 248 165 361h123c-107 -89 -164 -220 -164 -350c0 -52 9 -100 58 -100c41 0 69 48 77 125l15 139h120l-12 -134c-1 -11 -3 -36 -3 -48c0 -53 16 -82 53 -82c83 0 91 158 91 216c0 91 -25 170 -81 234h129c46 -59 77 -137 77 -222
c0 -149 -50 -335 -223 -335c-48 0 -109 23 -122 93c-31 -67 -93 -93 -149 -93z" />
    <glyph glyph-name="iotadieresis" unicode="&#x3ca;" horiz-adv-x="272" 
d="M60 632l-71 80l88 79l71 -79zM277 632l-71 80l87 79l72 -79zM44 0l57 546h123l-57 -546h-123z" />
    <glyph glyph-name="upsilondieresis" unicode="&#x3cb;" horiz-adv-x="552" 
d="M196 632l-71 80l88 79l71 -79zM413 632l-71 80l87 79l72 -79zM236 -12c-114 0 -187 43 -187 165c0 7 1 23 3 38l37 355h122l-36 -346c-1 -11 -2 -21 -2 -31c0 -57 25 -77 72 -77c45 0 99 18 110 121l35 333h122l-36 -334c-17 -167 -117 -224 -240 -224z" />
    <glyph glyph-name="omicrontonos" unicode="&#x3cc;" horiz-adv-x="533" 
d="M264 624l90 158h124l-117 -157zM217 -12c-121 0 -188 87 -188 204c0 215 109 367 289 367c126 0 187 -94 187 -200c0 -152 -65 -371 -288 -371zM239 90c69 0 142 96 142 263c0 81 -32 107 -88 107c-70 0 -138 -104 -138 -259c0 -60 21 -111 84 -111z" />
    <glyph glyph-name="upsilontonos" unicode="&#x3cd;" horiz-adv-x="552" 
d="M265 623l90 158h124l-117 -157zM236 -12c-114 0 -187 43 -187 165c0 7 1 23 3 38l37 355h122l-36 -346c-1 -11 -2 -21 -2 -31c0 -57 25 -77 72 -77c45 0 99 18 110 121l35 333h122l-36 -334c-17 -167 -117 -224 -240 -224z" />
    <glyph glyph-name="omegatonos" unicode="&#x3ce;" horiz-adv-x="708" 
d="M344 623l90 158h124l-117 -157zM183 -11c-90 0 -154 70 -154 196s32 248 165 361h123c-107 -89 -164 -220 -164 -350c0 -52 9 -100 58 -100c41 0 69 48 77 125l15 139h120l-12 -134c-1 -11 -3 -36 -3 -48c0 -53 16 -82 53 -82c83 0 91 158 91 216c0 91 -25 170 -81 234
h129c46 -59 77 -137 77 -222c0 -149 -50 -335 -223 -335c-48 0 -109 23 -122 93c-31 -67 -93 -93 -149 -93z" />
    <glyph glyph-name="beta1" unicode="&#x3d0;" horiz-adv-x="531" 
d="M239 -12c-153 0 -205 107 -188 316l14 157c17 203 129 314 257 314c111 0 180 -53 180 -147c0 -70 -31 -129 -97 -178c65 -21 98 -83 98 -160c0 -158 -94 -302 -264 -302zM245 86c79 0 135 98 135 195c0 68 -18 98 -81 98c-39 0 -90 -22 -125 -37l-5 -57
c-16 -150 21 -199 76 -199zM181 419c17 7 34 14 53 20c97 37 148 90 148 167c0 48 -32 68 -74 68c-60 0 -107 -54 -121 -200z" />
    <glyph glyph-name="uni03D8" unicode="&#x3d8;" horiz-adv-x="774" 
d="M266 -166l19 159c-130 28 -223 109 -223 288c0 289 176 445 378 445c165 0 284 -89 284 -290c0 -248 -143 -408 -315 -439l-20 -163h-123zM360 102c140 0 233 138 233 323c0 116 -49 195 -167 195c-162 0 -236 -159 -236 -324c0 -128 63 -194 170 -194z" />
    <glyph glyph-name="uni03D9" unicode="&#x3d9;" horiz-adv-x="582" 
d="M182 -209l23 231c-106 18 -166 93 -166 208c0 179 118 298 281 298c149 0 224 -80 224 -213c0 -148 -87 -267 -213 -289l-25 -235h-124zM277 118c101 0 139 90 139 189c0 68 -27 121 -109 121c-107 0 -142 -98 -142 -190c0 -71 30 -120 112 -120z" />
    <glyph glyph-name="uni03DA" unicode="&#x3da;" horiz-adv-x="545" 
d="M589 658l-53 -102c-50 30 -98 45 -164 45c-129 0 -185 -93 -185 -222c0 -258 313 -114 292 -316c-15 -149 -186 -213 -327 -227l-16 89c122 25 210 57 216 116c10 99 -297 5 -297 309c0 219 127 364 318 364c81 0 159 -20 216 -56z" />
    <glyph glyph-name="uni03DB" unicode="&#x3db;" horiz-adv-x="528" 
d="M531 513l-53 -101c-46 22 -83 33 -143 33c-114 0 -158 -88 -158 -204c0 -75 33 -111 101 -120c95 -12 155 -44 146 -136c-11 -101 -123 -169 -286 -171l11 102c111 1 147 30 150 56c3 23 -18 30 -63 36c-104 9 -187 57 -187 208c0 205 112 340 287 340
c72 0 138 -15 195 -43z" />
    <glyph glyph-name="uni03DC" unicode="&#x3dc;" horiz-adv-x="546" 
d="M46 0l75 707h425l-11 -100h-299l-23 -223h277l-10 -96h-277l-31 -288h-126z" />
    <glyph glyph-name="uni03DD" unicode="&#x3dd;" horiz-adv-x="446" 
d="M46 -220l51 501h-80l11 93h79l22 203c15 165 109 198 221 198c47 0 111 -14 148 -28l-33 -96c-30 7 -69 17 -116 17c-63 0 -92 -25 -98 -89l-22 -205h120l-10 -93h-119l-53 -501h-121z" />
    <glyph glyph-name="uni03DE" unicode="&#x3de;" horiz-adv-x="592" 
d="M199 -141l173 388h-362l232 486l146 16l-183 -389h355l-216 -467z" />
    <glyph glyph-name="uni03DF" unicode="&#x3df;" horiz-adv-x="611" 
d="M205 -116l165 370h-357l222 457l147 16l-174 -357h351l-207 -454z" />
    <glyph glyph-name="uni03E0" unicode="&#x3e0;" horiz-adv-x="740" 
d="M501 -77l-62 79c103 76 146 159 154 238v1l-390 -245l-47 83l423 268c-6 20 -27 60 -39 76l-452 -289l-51 84l412 258c-31 15 -73 24 -108 24c-57 0 -126 -21 -190 -56l-45 81c81 56 155 81 259 81c202 0 338 -152 338 -331c0 -164 -121 -298 -202 -352z" />
    <glyph glyph-name="uni03E1" unicode="&#x3e1;" horiz-adv-x="740" 
d="M501 -77l-62 79c103 76 146 159 154 238v1l-390 -245l-47 83l423 268c-6 20 -27 60 -39 76l-452 -289l-51 84l412 258c-31 15 -73 24 -108 24c-57 0 -126 -21 -190 -56l-45 81c81 56 155 81 259 81c202 0 338 -152 338 -331c0 -164 -121 -298 -202 -352z" />
    <glyph glyph-name="uni0400" unicode="&#x400;" horiz-adv-x="574" 
d="M46 0l75 707h429l-10 -100h-304l-21 -204h281l-10 -96h-281l-22 -207h327l-11 -100h-453zM430 735l-249 65l32 102l240 -86z" />
    <glyph glyph-name="afii10023" unicode="&#x401;" horiz-adv-x="574" 
d="M227 748l-67 78l84 76l67 -76zM453 748l-68 78l84 76l68 -76zM46 0l75 707h429l-10 -100h-304l-21 -204h281l-10 -96h-281l-22 -207h327l-11 -100h-453z" />
    <glyph glyph-name="afii10051" unicode="&#x402;" horiz-adv-x="759" 
d="M416 -220l-58 80c24 19 229 161 229 375c0 78 -43 111 -118 111c-46 0 -107 -17 -154 -40l-32 -306h-125l62 606h-194l11 101h575l-11 -101h-256l-19 -197c57 20 123 35 184 35c149 0 205 -89 205 -210c0 -201 -140 -348 -299 -454z" />
    <glyph glyph-name="afii10052" unicode="&#x403;" horiz-adv-x="538" 
d="M248 737l-22 80l249 86l28 -102zM46 0l75 707h445l-11 -101h-319l-64 -606h-126z" />
    <glyph glyph-name="afii10053" unicode="&#x404;" horiz-adv-x="607" 
d="M373 -10c-199 0 -338 104 -338 314c0 261 151 410 411 410c71 0 123 -9 179 -32l-39 -95c-56 18 -91 22 -152 22c-143 0 -233 -81 -261 -205h349l-10 -98h-347c1 -9 3 -23 5 -31c18 -118 107 -177 232 -177c56 0 105 3 158 19l21 -98c-70 -23 -133 -29 -208 -29z" />
    <glyph glyph-name="afii10054" unicode="&#x405;" horiz-adv-x="518" 
d="M197 -12c-72 0 -157 19 -216 50l46 98c58 -23 114 -41 179 -41c69 0 150 20 150 103c0 119 -299 114 -299 320c0 137 120 198 248 198c79 0 144 -15 203 -44l-45 -92c-48 20 -104 31 -160 31s-122 -15 -122 -81c0 -109 303 -125 303 -318c0 -161 -145 -224 -287 -224z
" />
    <glyph glyph-name="afii10055" unicode="&#x406;" horiz-adv-x="293" 
d="M46 0l75 707h125l-74 -707h-126z" />
    <glyph glyph-name="afii10056" unicode="&#x407;" horiz-adv-x="293" 
d="M46 0l75 707h125l-74 -707h-126zM78 748l-67 78l84 76l67 -76zM304 748l-68 78l84 76l68 -76z" />
    <glyph glyph-name="afii10057" unicode="&#x408;" horiz-adv-x="299" 
d="M-64 -192l-38 90c126 67 158 124 171 253l58 556h127l-58 -554c-16 -151 -58 -274 -260 -345z" />
    <glyph glyph-name="afii10058" unicode="&#x409;" horiz-adv-x="990" 
d="M11 -22l-45 116c53 22 122 59 151 108c39 64 78 242 115 505h417l-63 -606c7 -1 61 -1 70 -1c107 0 185 38 188 145c4 83 -52 114 -134 114h-89l9 100h106c143 0 244 -69 240 -207c-4 -199 -174 -252 -344 -252h-183l63 609h-178c-51 -265 -74 -405 -129 -489
c-46 -71 -117 -111 -194 -142z" />
    <glyph glyph-name="afii10059" unicode="&#x40a;" horiz-adv-x="994" 
d="M46 0l75 707h125l-29 -281h296l30 281h125l-62 -606c6 -1 58 -1 66 -1c99 0 170 33 173 126c4 74 -48 100 -124 100h-87l10 100h103c139 0 237 -65 232 -192c-4 -183 -165 -234 -328 -234h-182l34 328h-296l-35 -328h-126z" />
    <glyph glyph-name="afii10060" unicode="&#x40b;" horiz-adv-x="770" 
d="M155 0l64 606h-194l11 101h575l-11 -101h-255l-20 -197c57 21 132 39 189 39c159 0 216 -82 202 -217l-25 -231h-126l23 220c12 104 -50 126 -123 126c-42 0 -101 -14 -151 -40l-32 -306h-127z" />
    <glyph glyph-name="afii10061" unicode="&#x40c;" horiz-adv-x="628" 
d="M295 737l-22 80l249 86l28 -102zM484 -34l-271 400l2 17l301 324h155l-314 -329l247 -354zM46 0l75 707h125l-74 -707h-126z" />
    <glyph glyph-name="uni040D" unicode="&#x40d;" horiz-adv-x="773" 
d="M46 0l75 707h127l-45 -421l-14 -98l74 102l337 417h126l-74 -707h-127l44 421l14 99l-65 -90l-345 -430h-127zM524 735l-249 65l32 102l240 -86z" />
    <glyph glyph-name="afii10062" unicode="&#x40e;" horiz-adv-x="592" 
d="M327 746c-81 0 -147 35 -186 97l67 65c35 -44 85 -60 130 -60s96 16 143 60l61 -65c-56 -69 -133 -97 -215 -97zM133 -9l-37 108c71 21 115 40 149 100l16 26h-45l-194 482h140l149 -395l184 395h147l-272 -504c-92 -168 -141 -182 -237 -212z" />
    <glyph glyph-name="afii10145" unicode="&#x40f;" horiz-adv-x="749" 
d="M260 -153l16 153h-230l74 707h127l-63 -609h317l62 609h127l-73 -707h-221l-15 -153h-121z" />
    <glyph glyph-name="afii10017" unicode="&#x410;" horiz-adv-x="647" 
d="M-54 0l352 707h167l158 -707h-130l-49 236h-256l-113 -236h-129zM235 331h189l-39 204l-14 98l-41 -98z" />
    <glyph glyph-name="afii10018" unicode="&#x411;" horiz-adv-x="630" 
d="M46 0l74 707h456l-10 -108h-331l-52 -498c7 -1 64 -1 73 -1c107 0 192 31 195 138c4 83 -61 107 -143 107h-93l10 100h109c144 0 254 -62 249 -200c-4 -199 -181 -245 -352 -245h-185z" />
    <glyph glyph-name="afii10019" unicode="&#x412;" horiz-adv-x="624" 
d="M46 0l75 707h220c110 0 224 -30 224 -162c0 -70 -35 -135 -100 -163l-1 -3c70 -16 118 -75 118 -148c0 -168 -132 -231 -285 -231h-251zM184 101h104c90 0 165 16 165 123c0 93 -98 95 -167 95h-79zM216 409h80c87 0 138 26 138 119c0 77 -66 82 -126 82h-71z" />
    <glyph glyph-name="afii10020" unicode="&#x413;" horiz-adv-x="538" 
d="M46 0l75 707h445l-11 -101h-319l-64 -606h-126z" />
    <glyph glyph-name="afii10021" unicode="&#x414;" horiz-adv-x="750" 
d="M-38 -153l26 251h64c38 57 74 126 95 179c32 82 63 229 96 430h420l-63 -609h96l-26 -251h-120l15 153h-468l-15 -153h-120zM192 98h281l52 508h-183c-34 -186 -60 -291 -78 -347c-18 -51 -41 -101 -72 -161z" />
    <glyph glyph-name="afii10022" unicode="&#x415;" horiz-adv-x="574" 
d="M46 0l75 707h429l-10 -100h-304l-21 -204h281l-10 -96h-281l-22 -207h327l-11 -100h-453z" />
    <glyph glyph-name="afii10024" unicode="&#x416;" horiz-adv-x="885" 
d="M67 -34l-121 59l293 362l-198 320h142l190 -325l-3 -23zM741 -34l-235 393l3 20l261 328h155l-278 -333l215 -349zM338 0l74 707h125l-73 -707h-126z" />
    <glyph glyph-name="afii10025" unicode="&#x417;" horiz-adv-x="533" 
d="M201 -12c-94 0 -169 26 -218 56l46 98c39 -20 97 -46 179 -46c77 0 144 33 148 111c3 76 -60 101 -150 101h-78l11 98h78c81 0 143 40 146 110c3 62 -40 96 -113 96c-61 0 -106 -18 -150 -34l-33 90c48 23 119 48 207 48c155 0 219 -81 216 -177
c-4 -101 -76 -154 -116 -174v-2c41 -15 114 -53 110 -159c-3 -104 -82 -216 -283 -216z" />
    <glyph glyph-name="afii10026" unicode="&#x418;" horiz-adv-x="773" 
d="M46 0l75 707h127l-45 -421l-14 -98l74 102l337 417h126l-74 -707h-127l44 421l14 99l-65 -90l-345 -430h-127z" />
    <glyph glyph-name="afii10027" unicode="&#x419;" horiz-adv-x="773" 
d="M46 0l75 707h127l-45 -421l-14 -98l74 102l337 417h126l-74 -707h-127l44 421l14 99l-65 -90l-345 -430h-127zM430 746c-81 0 -147 35 -186 97l67 65c35 -44 85 -60 130 -60s96 16 143 60l61 -65c-56 -69 -133 -97 -215 -97z" />
    <glyph glyph-name="afii10028" unicode="&#x41a;" horiz-adv-x="628" 
d="M484 -34l-271 400l2 17l301 324h155l-314 -329l247 -354zM46 0l75 707h125l-74 -707h-126z" />
    <glyph glyph-name="afii10029" unicode="&#x41b;" horiz-adv-x="695" 
d="M11 -22l-45 116c53 22 122 59 151 108c39 64 78 242 115 505h417l-74 -707h-126l63 609h-178c-51 -265 -74 -405 -129 -489c-46 -71 -117 -111 -194 -142z" />
    <glyph glyph-name="afii10030" unicode="&#x41c;" horiz-adv-x="898" 
d="M-45 0l244 707h151l44 -611l262 611h149l16 -707h-122l-4 533l-229 -533h-175l-39 536l-173 -536h-124z" />
    <glyph glyph-name="afii10031" unicode="&#x41d;" horiz-adv-x="757" 
d="M46 0l75 707h125l-31 -303h338l32 304h127l-74 -708h-127l33 306h-339l-33 -306h-126z" />
    <glyph glyph-name="afii10032" unicode="&#x41e;" horiz-adv-x="797" 
d="M352 -12c-199 0 -317 116 -317 313c0 255 155 417 410 417c199 0 318 -112 318 -310c0 -257 -152 -420 -411 -420zM366 90c182 0 267 136 267 306c0 133 -68 220 -205 220c-178 0 -265 -134 -265 -303c0 -131 65 -223 203 -223z" />
    <glyph glyph-name="afii10033" unicode="&#x41f;" horiz-adv-x="747" 
d="M46 0l74 707h580l-73 -707h-126l63 601h-329l-63 -601h-126z" />
    <glyph glyph-name="afii10034" unicode="&#x420;" horiz-adv-x="580" 
d="M42 0l74 707h253c130 0 229 -67 229 -205c0 -201 -175 -274 -349 -273h-39l14 100c124 1 242 18 242 159c0 84 -52 120 -129 120h-104l-64 -608h-127z" />
    <glyph glyph-name="afii10035" unicode="&#x421;" horiz-adv-x="607" 
d="M373 -10c-199 0 -338 104 -338 314c0 261 151 410 411 410c71 0 123 -9 179 -32l-39 -95c-56 18 -91 22 -152 22c-174 0 -270 -119 -270 -288c0 -150 97 -223 238 -223c56 0 105 3 158 19l21 -98c-70 -23 -133 -29 -208 -29z" />
    <glyph glyph-name="afii10036" unicode="&#x422;" horiz-adv-x="582" 
d="M193 0l63 606h-231l11 101h589l-11 -101h-231l-64 -606h-126z" />
    <glyph glyph-name="afii10037" unicode="&#x423;" horiz-adv-x="592" 
d="M133 -9l-37 108c71 21 115 40 149 100l16 26h-45l-194 482h140l149 -395l184 395h147l-272 -504c-92 -168 -141 -182 -237 -212z" />
    <glyph glyph-name="afii10038" unicode="&#x424;" horiz-adv-x="815" 
d="M307 0l9 85c-171 0 -298 89 -284 278c14 200 163 298 342 298l8 76h126l-8 -76c171 0 297 -89 283 -278c-14 -200 -163 -298 -341 -298l-9 -85h-126zM326 186l38 374c-111 0 -197 -68 -205 -194c-7 -117 64 -180 167 -180zM452 186c111 0 197 71 204 195
c9 119 -63 179 -167 179z" />
    <glyph glyph-name="afii10039" unicode="&#x425;" horiz-adv-x="598" 
d="M-56 0l289 368l-175 339h143l116 -244l181 244h140l-265 -337l191 -370h-143l-132 273l-202 -273h-143z" />
    <glyph glyph-name="afii10040" unicode="&#x426;" horiz-adv-x="776" 
d="M577 -153l16 153h-547l74 707h127l-63 -609h317l62 609h127l-64 -609h97l-26 -251h-120z" />
    <glyph glyph-name="afii10041" unicode="&#x427;" horiz-adv-x="668" 
d="M422 0l32 301c-57 -22 -129 -35 -188 -35c-162 0 -219 78 -204 213l24 228h126l-23 -217c-11 -104 50 -126 121 -126c46 0 103 14 153 40l32 303h127l-73 -707h-127z" />
    <glyph glyph-name="afii10042" unicode="&#x428;" horiz-adv-x="997" 
d="M46 0l74 707h127l-63 -609h225l63 609h127l-63 -609h225l63 609h127l-73 -707h-832z" />
    <glyph glyph-name="afii10043" unicode="&#x429;" horiz-adv-x="1037" 
d="M838 -153l16 153h-808l74 707h127l-63 -609h225l63 609h127l-63 -609h225l63 609h127l-63 -609h96l-26 -251h-120z" />
    <glyph glyph-name="afii10044" unicode="&#x42a;" horiz-adv-x="687" 
d="M146 0l64 606h-196l11 101h321l-63 -606c7 -1 61 -1 70 -1c107 0 185 38 188 145c4 83 -52 114 -134 114h-92l10 100h107c144 0 245 -69 241 -207c-4 -199 -174 -252 -345 -252h-182z" />
    <glyph glyph-name="afii10045" unicode="&#x42b;" horiz-adv-x="883" 
d="M46 0l74 707h126l-63 -606c7 -1 61 -1 70 -1c107 0 185 38 188 145c4 83 -52 114 -134 114h-92l10 100h107c144 0 245 -69 241 -207c-4 -199 -174 -252 -345 -252h-182zM637 0l74 707h125l-74 -707h-125z" />
    <glyph glyph-name="afii10046" unicode="&#x42c;" horiz-adv-x="587" 
d="M46 0l74 707h126l-63 -606c7 -1 61 -1 70 -1c107 0 185 38 188 145c4 83 -52 114 -134 114h-92l10 100h107c144 0 245 -69 241 -207c-4 -199 -174 -252 -345 -252h-182z" />
    <glyph glyph-name="afii10047" unicode="&#x42d;" horiz-adv-x="633" 
d="M189 -10c-99 0 -161 21 -199 44l41 93c36 -15 102 -36 168 -36c135 0 241 75 263 215h-336l11 98h334c-2 157 -99 211 -217 211c-72 0 -131 -20 -162 -35l-36 91c40 18 101 45 212 45c226 0 341 -114 334 -320c-6 -243 -150 -406 -413 -406z" />
    <glyph glyph-name="afii10048" unicode="&#x42e;" horiz-adv-x="1082" 
d="M637 -12c-180 0 -293 97 -313 262c-3 15 -4 38 -4 56h-115l-33 -306h-126l75 707h125l-31 -303h114c37 194 182 314 401 314c199 0 318 -112 318 -310c0 -257 -152 -420 -411 -420zM651 90c182 0 267 136 267 306c0 133 -67 220 -205 220c-178 0 -265 -134 -265 -303
c0 -131 65 -223 203 -223z" />
    <glyph glyph-name="afii10049" unicode="&#x42f;" horiz-adv-x="650" 
d="M96 -33l-117 57l217 278c-75 28 -116 85 -116 166c0 155 127 239 272 239h252l-72 -707h-128l28 273h-74c-13 0 -21 0 -32 1zM358 365h84l25 242h-101c-97 0 -153 -53 -153 -132c0 -72 48 -110 145 -110z" />
    <glyph glyph-name="afii10065" unicode="&#x430;" horiz-adv-x="539" 
d="M157 -12c-96 0 -129 69 -129 173c0 204 136 391 347 391c34 0 85 -4 120 -10l-56 -542h-123l9 82c-61 -58 -115 -94 -168 -94zM190 97c40 0 115 60 145 86l28 265c-4 2 -11 2 -19 2c-113 0 -193 -137 -193 -277c0 -41 10 -76 39 -76z" />
    <glyph glyph-name="afii10066" unicode="&#x431;" horiz-adv-x="532" 
d="M211 -11c-111 0 -180 75 -180 182c0 188 54 390 135 488c42 51 205 88 331 112l22 -109c-72 -17 -217 -30 -271 -72c-23 -19 -45 -88 -57 -131c54 35 117 64 178 64c89 0 134 -51 134 -177c0 -188 -125 -357 -292 -357zM232 91c102 0 146 133 146 243c0 72 -22 87 -56 87
c-44 0 -115 -41 -153 -69c-9 -56 -13 -97 -13 -153c0 -93 42 -108 76 -108z" />
    <glyph glyph-name="afii10067" unicode="&#x432;" horiz-adv-x="506" 
d="M225 -12c-148 0 -195 92 -195 188c0 181 103 385 299 385c111 0 145 -67 145 -127c0 -61 -41 -104 -90 -129c38 -16 76 -55 76 -119c0 -122 -110 -198 -235 -198zM230 85c70 0 113 47 113 101c0 40 -27 63 -55 74l-136 -45c0 -2 -1 -22 -1 -26c0 -60 21 -104 79 -104z
M163 305l120 44c55 20 72 44 72 71s-19 43 -46 43c-76 0 -129 -74 -146 -158z" />
    <glyph glyph-name="afii10068" unicode="&#x433;" horiz-adv-x="431" 
d="M167 -10c-79 0 -149 33 -149 123c0 84 80 146 153 197c62 42 119 77 119 109c0 27 -15 39 -44 39c-44 0 -100 -28 -138 -50l-40 90c49 32 121 60 210 60c64 0 132 -36 132 -121c0 -92 -85 -152 -160 -203c-58 -39 -111 -72 -111 -103c0 -32 23 -39 45 -39
c45 0 120 38 165 65l44 -93c-59 -41 -151 -74 -226 -74z" />
    <glyph glyph-name="afii10069" unicode="&#x434;" horiz-adv-x="530" 
d="M222 -12c-109 0 -193 74 -193 201c0 232 130 328 243 328c46 0 85 -21 107 -34c-7 113 -54 160 -127 160c-24 0 -67 -9 -104 -19l-14 100c43 14 115 25 161 25c109 0 207 -76 207 -305c0 -148 -48 -456 -280 -456zM231 89c74 0 140 127 142 286c-25 28 -76 42 -99 42
c-73 0 -120 -65 -120 -203c0 -52 7 -125 77 -125z" />
    <glyph glyph-name="afii10070" unicode="&#x435;" horiz-adv-x="475" 
d="M180 -12c-125 0 -151 108 -151 208c0 184 91 365 285 365c115 0 164 -67 164 -139c0 -93 -85 -136 -169 -164l-154 -53c-1 -6 -1 -13 -1 -18c0 -65 15 -96 54 -96c43 0 101 23 166 58l43 -84c-70 -44 -140 -77 -237 -77zM165 302l138 52c38 15 57 37 57 63
c0 31 -24 46 -49 46c-79 0 -127 -69 -146 -161z" />
    <glyph glyph-name="afii10072" unicode="&#x436;" horiz-adv-x="743" 
d="M101 -7l-138 12l227 292l-156 249h132l147 -260l27 260h122l-28 -262l198 262h136l-204 -256l164 -285l-133 -12l-162 281l-28 -274h-122l28 271z" />
    <glyph glyph-name="afii10073" unicode="&#x437;" horiz-adv-x="437" 
d="M161 -10c-50 0 -114 7 -165 28l32 97c43 -14 81 -21 119 -21c89 0 120 35 120 70c0 49 -53 68 -134 72l-10 79c82 18 153 47 153 94c0 27 -24 46 -79 46c-39 0 -82 -6 -117 -16l-26 90c48 22 105 30 160 30c101 0 185 -32 185 -125c0 -70 -53 -114 -111 -140
c76 -20 102 -71 102 -126c0 -112 -96 -178 -229 -178z" />
    <glyph glyph-name="afii10074" unicode="&#x438;" horiz-adv-x="564" 
d="M171 -12c-95 0 -129 36 -115 172l41 386h123l-40 -375c-6 -54 1 -73 32 -73c49 0 117 48 145 68l41 380h122l-58 -546h-122l8 71c-42 -35 -108 -83 -177 -83z" />
    <glyph glyph-name="afii10075" unicode="&#x439;" horiz-adv-x="564" 
d="M171 -12c-95 0 -129 36 -115 172l41 386h123l-40 -375c-6 -54 1 -73 32 -73c49 0 117 48 145 68l41 380h122l-58 -546h-122l8 71c-42 -35 -108 -83 -177 -83z" />
    <glyph glyph-name="afii10076" unicode="&#x43a;" horiz-adv-x="505" 
d="M44 0l57 546h123l-28 -258l197 258h136l-204 -256l164 -285l-133 -12l-161 283l-29 -276h-122z" />
    <glyph glyph-name="afii10077" unicode="&#x43b;" horiz-adv-x="458" 
d="M-7 0c-3 10 -4 23 -4 33c0 60 24 124 50 175l168 338h181l36 -546h-131l-11 429h-14l-111 -240c-23 -50 -39 -107 -39 -156c0 -10 0 -23 2 -33h-127z" />
    <glyph glyph-name="afii10078" unicode="&#x43c;" horiz-adv-x="753" 
d="M4 0c-3 10 -4 23 -4 33c0 60 18 121 38 175l128 338h168l33 -363l160 363h184l-57 -546h-123l45 435l-192 -435h-124l-25 435l-76 -246c-16 -53 -28 -107 -28 -156c0 -10 1 -23 2 -33h-129z" />
    <glyph glyph-name="afii10079" unicode="&#x43d;" horiz-adv-x="568" 
d="M44 0l58 546h123l-24 -216l180 14l21 202h123l-59 -546h-122l25 236l-179 -14l-24 -222h-122z" />
    <glyph glyph-name="afii10080" unicode="&#x43e;" horiz-adv-x="533" 
d="M217 -12c-121 0 -188 87 -188 204c0 215 109 367 289 367c126 0 187 -94 187 -200c0 -152 -65 -371 -288 -371zM239 90c69 0 142 96 142 263c0 81 -32 107 -88 107c-70 0 -138 -104 -138 -259c0 -60 21 -111 84 -111z" />
    <glyph glyph-name="afii10081" unicode="&#x43f;" horiz-adv-x="571" 
d="M44 0l58 546h122l-7 -71c40 29 119 85 187 85c98 0 118 -41 105 -166l-42 -394h-123l40 371c6 55 6 72 -27 72c-38 0 -128 -55 -151 -68l-40 -375h-122z" />
    <glyph glyph-name="afii10082" unicode="&#x440;" horiz-adv-x="542" 
d="M21 -220l80 766h123l-6 -53c36 27 99 59 155 59c93 0 139 -54 139 -170c0 -172 -80 -392 -299 -392c-18 0 -33 1 -47 3l-23 -213h-122zM219 88c129 0 171 188 171 293c0 53 -23 69 -49 69c-41 0 -96 -30 -133 -51l-32 -306c16 -3 25 -5 43 -5z" />
    <glyph glyph-name="afii10083" unicode="&#x441;" horiz-adv-x="446" 
d="M184 -12c-115 0 -155 83 -155 199c0 201 102 374 288 374c64 0 115 -25 141 -48l-57 -82c-27 18 -52 30 -85 30c-126 0 -160 -162 -160 -258c0 -70 18 -109 44 -109c45 0 82 11 164 52l40 -85c-50 -30 -115 -73 -220 -73z" />
    <glyph glyph-name="afii10084" unicode="&#x442;" horiz-adv-x="850" 
d="M44 0l58 546h122l-7 -70c40 28 113 84 178 84c72 0 99 -23 105 -81c41 29 122 81 184 81c98 0 117 -41 104 -166l-42 -394h-122l40 371c5 55 6 72 -27 72c-34 0 -118 -52 -140 -63l-40 -380h-123l40 371c6 55 7 71 -27 71s-117 -54 -141 -67l-40 -375h-122z" />
    <glyph glyph-name="afii10085" unicode="&#x443;" horiz-adv-x="485" 
d="M38 -220l111 220h-41l-82 546h131l51 -435c19 33 119 246 119 246c25 50 40 110 40 155c0 12 -1 23 -3 34h131c2 -11 3 -23 3 -34c0 -57 -24 -123 -49 -174l-282 -558h-129z" />
    <glyph glyph-name="afii10086" unicode="&#x444;" horiz-adv-x="731" 
d="M253 -220l22 208c-143 2 -246 82 -246 221c0 208 110 344 305 349l21 197h123l-21 -197c143 -1 245 -82 245 -220c0 -209 -111 -344 -305 -349l-22 -209h-122zM285 90l39 370c-95 0 -169 -88 -169 -235c0 -86 41 -132 130 -135zM407 87c95 0 169 88 169 235
c0 80 -36 133 -130 135z" />
    <glyph glyph-name="afii10087" unicode="&#x445;" horiz-adv-x="481" 
d="M-48 0l222 284l-125 262h132l74 -162l124 162h129l-203 -263l132 -283h-133l-81 182l-138 -182h-133z" />
    <glyph glyph-name="afii10088" unicode="&#x446;" horiz-adv-x="602" 
d="M424 -137l14 137c-68 1 -84 22 -90 71c-42 -35 -108 -83 -177 -83c-95 0 -129 36 -115 172l41 386h123l-40 -375c-6 -54 1 -73 32 -73c49 0 117 48 145 68l41 380h122l-42 -394c-5 -49 9 -58 45 -59h41l-24 -230h-116z" />
    <glyph glyph-name="afii10089" unicode="&#x447;" horiz-adv-x="536" 
d="M313 0l26 248c-40 -32 -109 -77 -175 -77c-98 0 -125 37 -110 174l21 201h123l-21 -192c-6 -55 -1 -72 32 -72c40 0 116 47 140 61l21 203h122l-57 -546h-122z" />
    <glyph glyph-name="afii10090" unicode="&#x448;" horiz-adv-x="819" 
d="M157 -14c-90 0 -114 42 -100 166l55 394h123l-54 -370c-5 -56 -2 -72 28 -72c37 0 98 42 127 62l45 380h123l-46 -370c-6 -56 -3 -72 27 -72c38 0 104 50 128 67l40 375h122l-57 -546h-123l7 70c-39 -30 -100 -84 -168 -84c-69 0 -96 23 -102 81
c-40 -30 -109 -81 -175 -81z" />
    <glyph glyph-name="afii10091" unicode="&#x449;" horiz-adv-x="858" 
d="M680 -137l14 137c-68 1 -85 22 -91 70c-40 -30 -101 -84 -169 -84c-69 0 -96 23 -102 81c-40 -30 -109 -81 -175 -81c-90 0 -114 42 -100 166l55 394h123l-54 -370c-5 -56 -2 -72 28 -72c37 0 98 42 127 62l45 380h123l-46 -370c-6 -56 -3 -72 27 -72c38 0 104 50 128 67
l40 375h122l-41 -394c-5 -49 9 -58 45 -59h41l-24 -230h-116z" />
    <glyph glyph-name="afii10092" unicode="&#x44a;" horiz-adv-x="541" 
d="M241 -12c-80 0 -157 39 -157 150c0 117 56 214 130 307h-197l13 101h331l17 -43c-47 -50 -78 -93 -102 -138c35 21 76 38 116 38c83 0 120 -58 120 -141c0 -162 -125 -274 -271 -274zM270 84c58 0 120 57 120 159c0 38 -20 58 -49 58c-36 0 -77 -22 -112 -45
c-9 -30 -20 -65 -20 -104c0 -49 26 -68 61 -68z" />
    <glyph glyph-name="afii10093" unicode="&#x44b;" horiz-adv-x="743" 
d="M207 -12c-61 0 -122 13 -166 31l76 527h123l-28 -200c37 24 90 57 151 57c80 0 122 -51 122 -141c0 -148 -111 -274 -278 -274zM225 86c67 0 138 56 138 156c0 36 -17 59 -51 59c-36 0 -76 -24 -114 -47l-24 -161c16 -6 28 -7 51 -7zM520 0l57 546h123l-57 -546h-123z
" />
    <glyph glyph-name="afii10094" unicode="&#x44c;" horiz-adv-x="514" 
d="M207 -12c-61 0 -122 13 -166 31l76 527h123l-28 -200c37 24 90 57 151 57c80 0 122 -51 122 -141c0 -148 -111 -274 -278 -274zM225 86c67 0 138 56 138 156c0 36 -17 59 -51 59c-36 0 -76 -24 -114 -47l-24 -161c16 -6 28 -7 51 -7z" />
    <glyph glyph-name="afii10095" unicode="&#x44d;" horiz-adv-x="458" 
d="M142 -12c-62 0 -113 25 -139 50l53 85c27 -17 58 -34 95 -34c72 0 118 66 139 149h-154l6 84h160c1 5 1 20 1 26c0 70 -17 108 -77 108c-50 0 -96 -14 -133 -26l-29 90c47 21 113 41 178 41c126 0 188 -78 188 -195c0 -194 -95 -378 -288 -378z" />
    <glyph glyph-name="afii10096" unicode="&#x44e;" horiz-adv-x="785" 
d="M469 -12c-122 0 -189 87 -189 204c0 8 1 30 1 37l-91 -7l-24 -222h-122l58 546h123l-24 -216l99 8c38 135 135 221 269 221c127 0 187 -94 187 -200c0 -152 -65 -371 -287 -371zM490 90c69 0 142 96 142 263c0 81 -32 107 -87 107c-71 0 -139 -104 -139 -259
c0 -60 21 -111 84 -111z" />
    <glyph glyph-name="afii10097" unicode="&#x44f;" horiz-adv-x="529" 
d="M118 -7l-135 12l170 210c-33 17 -83 52 -83 128c0 67 35 214 270 214c41 0 108 -9 146 -24l-55 -533h-122l48 459c-8 1 -27 3 -37 3c-64 0 -126 -33 -126 -111c0 -75 79 -94 118 -103z" />
    <glyph glyph-name="uni0450" unicode="&#x450;" horiz-adv-x="475" 
d="M180 -12c-125 0 -151 108 -151 208c0 184 91 365 285 365c115 0 164 -67 164 -139c0 -93 -85 -136 -169 -164l-154 -53c-1 -6 -1 -13 -1 -18c0 -65 15 -96 54 -96c43 0 101 23 166 58l43 -84c-70 -44 -140 -77 -237 -77zM165 302l138 52c38 15 57 37 57 63
c0 31 -24 46 -49 46c-79 0 -127 -69 -146 -161zM368 598l-239 121l52 101l231 -137z" />
    <glyph glyph-name="afii10071" unicode="&#x451;" horiz-adv-x="475" 
d="M200 632l-71 80l88 79l71 -79zM417 632l-71 80l87 79l72 -79zM180 -12c-125 0 -151 108 -151 208c0 184 91 365 285 365c115 0 164 -67 164 -139c0 -93 -85 -136 -169 -164l-154 -53c-1 -6 -1 -13 -1 -18c0 -65 15 -96 54 -96c43 0 101 23 166 58l43 -84
c-70 -44 -140 -77 -237 -77zM165 302l138 52c38 15 57 37 57 63c0 31 -24 46 -49 46c-79 0 -127 -69 -146 -161z" />
    <glyph glyph-name="afii10099" unicode="&#x452;" horiz-adv-x="578" 
d="M321 -220l-80 62c98 118 164 296 164 440c0 61 -10 92 -52 92s-111 -49 -143 -67l-32 -307h-123l59 561h-95l10 94h94l11 100h124l-11 -100h185l-9 -94h-186l-16 -154c40 28 123 85 200 85c83 0 116 -65 116 -172c0 -197 -96 -401 -216 -540z" />
    <glyph glyph-name="afii10100" unicode="&#x453;" horiz-adv-x="431" 
d="M197 600l-37 84l245 139l45 -99zM167 -10c-79 0 -149 33 -149 123c0 84 80 146 153 197c62 42 119 77 119 109c0 27 -15 39 -44 39c-44 0 -100 -28 -138 -50l-40 90c49 32 121 60 210 60c64 0 132 -36 132 -121c0 -92 -85 -152 -160 -203c-58 -39 -111 -72 -111 -103
c0 -32 23 -39 45 -39c45 0 120 38 165 65l44 -93c-59 -41 -151 -74 -226 -74z" />
    <glyph glyph-name="afii10101" unicode="&#x454;" horiz-adv-x="446" 
d="M184 -12c-115 0 -155 83 -155 199c0 201 102 374 288 374c64 0 115 -25 141 -48l-57 -82c-27 18 -52 30 -85 30c-77 0 -120 -62 -141 -129h167l-12 -90h-172c-2 -14 -2 -27 -2 -39c0 -70 18 -109 44 -109c45 0 82 11 164 52l40 -85c-50 -30 -115 -73 -220 -73z" />
    <glyph glyph-name="afii10102" unicode="&#x455;" horiz-adv-x="443" 
d="M175 -10c-53 0 -118 7 -171 32l33 97c47 -16 101 -27 148 -27c40 0 93 12 93 58c0 75 -210 106 -210 248c0 120 92 160 197 160c57 0 130 -14 163 -31l-31 -91c-45 13 -85 23 -131 23c-40 0 -80 -7 -80 -51c0 -78 212 -117 212 -257c0 -137 -133 -161 -223 -161z" />
    <glyph glyph-name="afii10103" unicode="&#x456;" horiz-adv-x="272" 
d="M40 0l57 546h123l-58 -546h-122zM167 629l-79 87l98 86l79 -86z" />
    <glyph glyph-name="afii10104" unicode="&#x457;" horiz-adv-x="272" 
d="M61 632l-71 80l88 79l71 -79zM278 632l-71 80l87 79l72 -79zM40 0l57 546h123l-58 -546h-122z" />
    <glyph glyph-name="afii10105" unicode="&#x458;" horiz-adv-x="272" 
d="M-54 -220c-34 0 -78 9 -104 20l32 97c15 -4 48 -12 76 -12c63 0 85 33 93 109l58 552h123l-58 -553c-18 -175 -106 -213 -220 -213zM165 629l-79 87l98 86l79 -86z" />
    <glyph glyph-name="afii10106" unicode="&#x459;" horiz-adv-x="717" 
d="M436 -12c-47 0 -100 11 -143 26l-20 417h-6l-108 -242c-22 -50 -39 -107 -39 -156c0 -10 0 -23 2 -33h-129c-3 10 -4 23 -4 33c0 60 24 124 50 175l164 338h167l22 -223c43 32 110 80 185 80c80 0 122 -51 122 -141c0 -148 -111 -274 -263 -274zM446 86
c67 0 131 56 131 156c0 36 -16 59 -51 59c-42 0 -87 -31 -126 -58l15 -156c8 -1 18 -1 31 -1z" />
    <glyph glyph-name="afii10107" unicode="&#x45a;" horiz-adv-x="813" 
d="M506 -12c-136 23 -149 37 -159 41l22 207l-179 -14l-24 -222h-122l58 546h123l-24 -216l180 14l21 202h123l-22 -205c36 26 98 62 159 62c80 0 122 -51 122 -141c0 -148 -111 -274 -278 -274zM524 86c67 0 138 56 138 156c0 36 -17 59 -51 59c-36 0 -80 -26 -118 -49
l-17 -160c14 -5 26 -6 48 -6z" />
    <glyph glyph-name="afii10108" unicode="&#x45b;" horiz-adv-x="576" 
d="M55 0l59 561h-95l10 94h94l11 100h124l-11 -100h185l-9 -94h-186l-16 -154c40 29 119 85 187 85c99 0 118 -41 105 -166l-35 -326h-122l32 302c7 56 7 72 -27 72c-38 0 -127 -54 -151 -67l-32 -307h-123z" />
    <glyph glyph-name="afii10109" unicode="&#x45c;" horiz-adv-x="505" 
d="M230 600l-37 84l245 139l45 -99zM44 0l57 546h123l-28 -258l197 258h136l-204 -256l164 -285l-133 -12l-161 283l-29 -276h-122z" />
    <glyph glyph-name="uni045D" unicode="&#x45d;" horiz-adv-x="564" 
d="M171 -12c-95 0 -129 36 -115 172l41 386h123l-40 -375c-6 -54 1 -73 32 -73c49 0 117 48 145 68l41 380h122l-58 -546h-122l8 71c-42 -35 -108 -83 -177 -83zM375 598l-239 121l52 101l231 -137z" />
    <glyph glyph-name="afii10110" unicode="&#x45e;" horiz-adv-x="485" 
d="M38 -220l111 220h-41l-82 546h131l51 -435c19 33 119 246 119 246c25 50 40 110 40 155c0 12 -1 23 -3 34h131c2 -11 3 -23 3 -34c0 -57 -24 -123 -49 -174l-282 -558h-129zM250 616c-46 0 -108 48 -143 115l95 61c32 -51 60 -78 83 -78c33 0 80 23 145 76l42 -48
c-72 -75 -162 -126 -222 -126z" />
    <glyph glyph-name="afii10193" unicode="&#x45f;" horiz-adv-x="564" 
d="M171 -12c-95 0 -129 36 -115 172l41 386h123l-40 -375c-6 -54 1 -73 32 -73c49 0 117 48 145 68l41 380h122l-58 -546h-122l8 71c-42 -35 -108 -83 -177 -83zM186 -220l54 182h91l-19 -182h-126z" />
    <glyph glyph-name="afii10146" unicode="&#x462;" horiz-adv-x="640" 
d="M97 0l54 511h-173l11 106h172l10 89l127 1l-10 -90h206l-11 -105h-206l-43 -406h84c109 0 164 44 164 112s-44 94 -152 94h-70l12 104h72c174 0 268 -57 268 -190c0 -151 -115 -226 -303 -226h-212z" />
    <glyph glyph-name="afii10194" unicode="&#x463;" horiz-adv-x="528" 
d="M222 -12c-61 0 -122 13 -166 31l63 426h-139l11 101h142l24 160h123l-23 -160h166l-11 -101h-169l-15 -106c36 24 89 52 150 52c80 0 123 -47 123 -136c0 -149 -112 -267 -279 -267zM240 86c67 0 138 48 138 148c0 37 -16 55 -51 55s-76 -20 -113 -43l-23 -153
c16 -6 26 -7 49 -7z" />
    <glyph glyph-name="afii10147" unicode="&#x472;" horiz-adv-x="797" 
d="M352 -12c-199 0 -317 116 -317 313c0 255 155 417 410 417c199 0 318 -112 318 -310c0 -257 -152 -420 -411 -420zM366 90c151 0 234 94 258 223h-461c0 -9 0 -23 2 -30c9 -115 74 -193 201 -193zM171 397h462c0 10 -1 23 -2 32c-10 113 -77 187 -203 187
c-147 0 -232 -92 -257 -219z" />
    <glyph glyph-name="afii10195" unicode="&#x473;" horiz-adv-x="533" 
d="M217 -12c-121 0 -188 87 -188 204c0 215 109 367 289 367c126 0 187 -94 187 -200c0 -152 -65 -371 -288 -371zM239 90c51 0 104 54 128 148h-210c-2 -13 -2 -25 -2 -37c0 -60 21 -111 84 -111zM171 321h208c0 10 2 21 2 32c0 81 -32 107 -88 107
c-51 0 -99 -54 -122 -139z" />
    <glyph glyph-name="afii10148" unicode="&#x474;" horiz-adv-x="671" 
d="M192 0l-170 707h133l133 -607l215 439c49 106 100 160 162 192l79 -80c-49 -28 -90 -66 -136 -155l-249 -496h-167z" />
    <glyph glyph-name="afii10196" unicode="&#x475;" horiz-adv-x="505" 
d="M111 0l-85 546h131l52 -435l124 258c48 104 102 166 164 202l85 -77c-53 -34 -96 -81 -142 -172l-162 -322h-167z" />
    <glyph glyph-name="afii10050" unicode="&#x490;" horiz-adv-x="538" 
d="M46 0l75 707h327l17 161h118l-28 -262h-319l-64 -606h-126z" />
    <glyph glyph-name="afii10098" unicode="&#x491;" horiz-adv-x="452" 
d="M44 0l57 546h240l12 114h113l-21 -214h-232l-46 -446h-123z" />
    <glyph glyph-name="afii10798" unicode="&#x4d8;" horiz-adv-x="768" 
d="M339 -12c-212 0 -300 115 -300 299c0 16 1 32 9 116h560c-2 120 -63 211 -210 211c-94 0 -179 -22 -253 -59l-38 84c94 54 189 79 307 79c212 -1 321 -129 321 -310c0 -243 -141 -420 -396 -420zM353 90c149 0 219 95 244 217h-432v-32c5 -103 52 -185 188 -185z" />
    <glyph glyph-name="afii10846" unicode="&#x4d9;" horiz-adv-x="475" 
d="M295 558c125 0 151 -108 151 -208c0 -184 -91 -365 -285 -365c-115 0 -164 67 -164 139c0 93 85 136 169 164l154 53c1 6 1 13 1 18c0 65 -15 96 -54 96c-43 0 -101 -23 -166 -58l-43 84c70 44 140 77 237 77zM310 244l-138 -52c-38 -15 -57 -37 -57 -63
c0 -31 24 -46 49 -46c79 0 127 69 146 161z" />
    <glyph glyph-name="uni1E47" unicode="&#x1e47;" horiz-adv-x="571" 
d="M44 0l58 546h122l-7 -71c40 29 119 85 187 85c81 0 109 -28 109 -108c0 -17 -2 -36 -4 -58l-42 -394h-123l40 371c2 16 3 30 3 40c0 24 -7 32 -30 32c-38 0 -128 -55 -151 -68l-40 -375h-122zM218 -256l-79 87l98 86l79 -86z" />
    <glyph glyph-name="uni1E63" unicode="&#x1e63;" horiz-adv-x="443" 
d="M175 -10c-53 0 -118 7 -171 32l33 97c47 -16 101 -27 148 -27c40 0 93 12 93 58c0 75 -210 106 -210 248c0 120 92 160 197 160c57 0 130 -14 163 -31l-31 -91c-45 13 -85 23 -131 23c-40 0 -80 -7 -80 -51c0 -78 212 -117 212 -257c0 -137 -133 -161 -223 -161z
M155 -256l-79 87l98 86l79 -86z" />
    <glyph glyph-name="Wgrave" unicode="&#x1e80;" horiz-adv-x="955" 
d="M133 0l-114 707h133l84 -602l202 415l-43 187h132l119 -600l238 600h127l-294 -707h-164l-78 365l-177 -365h-165zM562 735l-249 65l32 102l240 -86z" />
    <glyph glyph-name="wgrave" unicode="&#x1e81;" horiz-adv-x="795" 
d="M104 0l-78 546h131l46 -435l156 291l-22 144h130l52 -435c19 33 118 246 118 246c25 50 40 109 40 155c0 11 -1 23 -3 34h130c2 -11 3 -23 3 -34c0 -58 -24 -124 -49 -174l-171 -338h-166l-40 256l-140 -256h-137zM488 598l-239 121l52 101l231 -137z" />
    <glyph glyph-name="Wacute" unicode="&#x1e82;" horiz-adv-x="955" 
d="M393 737l-22 80l249 86l28 -102zM133 0l-114 707h133l84 -602l202 415l-43 187h132l119 -600l238 600h127l-294 -707h-164l-78 365l-177 -365h-165z" />
    <glyph glyph-name="wacute" unicode="&#x1e83;" horiz-adv-x="795" 
d="M342 600l-37 84l245 139l45 -99zM104 0l-78 546h131l46 -435l156 291l-22 144h130l52 -435c19 33 118 246 118 246c25 50 40 109 40 155c0 11 -1 23 -3 34h130c2 -11 3 -23 3 -34c0 -58 -24 -124 -49 -174l-171 -338h-166l-40 256l-140 -256h-137z" />
    <glyph glyph-name="Wdieresis" unicode="&#x1e84;" horiz-adv-x="955" 
d="M395 740l-71 80l88 79l71 -79zM612 740l-71 80l87 79l72 -79zM133 0l-114 707h133l84 -602l202 415l-43 187h132l119 -600l238 600h127l-294 -707h-164l-78 365l-177 -365h-165z" />
    <glyph glyph-name="wdieresis" unicode="&#x1e85;" horiz-adv-x="795" 
d="M308 632l-71 80l88 79l71 -79zM525 632l-71 80l87 79l72 -79zM104 0l-78 546h131l46 -435l156 291l-22 144h130l52 -435c19 33 118 246 118 246c25 50 40 109 40 155c0 11 -1 23 -3 34h130c2 -11 3 -23 3 -34c0 -58 -24 -124 -49 -174l-171 -338h-166l-40 256l-140 -256
h-137z" />
    <glyph glyph-name="uni1EBD" unicode="&#x1ebd;" horiz-adv-x="475" 
d="M180 -12c-125 0 -151 108 -151 208c0 184 91 365 285 365c115 0 164 -67 164 -139c0 -93 -85 -136 -169 -164l-154 -53c-1 -6 -1 -13 -1 -18c0 -65 15 -96 54 -96c43 0 101 23 166 58l43 -84c-70 -44 -140 -77 -237 -77zM165 302l138 52c38 15 57 37 57 63
c0 31 -24 46 -49 46c-79 0 -127 -69 -146 -161zM381 634c-45 0 -88 41 -130 41c-34 0 -53 -6 -83 -29l-47 68c21 22 63 63 138 63c55 0 85 -38 130 -38c34 0 61 14 89 29l39 -70c-20 -20 -64 -64 -136 -64z" />
    <glyph glyph-name="Ygrave" unicode="&#x1ef2;" horiz-adv-x="585" 
d="M186 0l26 250l-197 457h143l132 -351l218 351h140l-310 -454l-26 -253h-126zM395 735l-249 65l32 102l240 -86z" />
    <glyph glyph-name="ygrave" unicode="&#x1ef3;" horiz-adv-x="485" 
d="M38 -220l111 220h-41l-82 546h131l51 -435c19 33 119 246 119 246c25 50 40 110 40 155c0 12 -1 23 -3 34h131c2 -11 3 -23 3 -34c0 -57 -24 -123 -49 -174l-282 -558h-129zM357 598l-239 121l52 101l231 -137z" />
    <glyph glyph-name="uni1F00" unicode="&#x1f00;" horiz-adv-x="539" 
d="M278 623c0 0 40 43 40 92c0 27 -6 49 -22 70h108c18 -25 25 -49 25 -70c0 -37 -20 -68 -46 -92h-105zM157 -12c-96 0 -129 69 -129 173c0 180 88 391 266 391c29 0 58 -13 84 -34l3 27h114l-56 -545h-123l9 82c-61 -58 -115 -94 -168 -94zM190 97c40 0 115 60 145 86
l26 240c-21 15 -45 26 -72 26c-86 0 -138 -150 -138 -276c0 -41 10 -76 39 -76z" />
    <glyph glyph-name="uni1F01" unicode="&#x1f01;" horiz-adv-x="539" 
d="M157 -12c-96 0 -129 69 -129 173c0 180 88 391 266 391c29 0 58 -13 84 -34l3 27h114l-56 -545h-123l9 82c-61 -58 -115 -94 -168 -94zM190 97c40 0 115 60 145 86l26 240c-21 15 -45 26 -72 26c-86 0 -138 -150 -138 -276c0 -41 10 -76 39 -76zM313 623
c-25 24 -45 55 -45 92c0 21 7 45 24 70h108c-15 -21 -21 -43 -21 -70c0 -49 39 -92 39 -92h-105z" />
    <glyph glyph-name="uni1F02" unicode="&#x1f02;" horiz-adv-x="539" 
d="M157 -12c-96 0 -129 69 -129 173c0 180 88 391 266 391c29 0 58 -13 84 -34l3 27h114l-56 -545h-123l9 82c-61 -58 -115 -94 -168 -94zM190 97c40 0 115 60 145 86l26 240c-21 15 -45 26 -72 26c-86 0 -138 -150 -138 -276c0 -41 10 -76 39 -76zM159 622c0 0 40 43 40 92
c0 27 -6 48 -22 70h108c18 -25 25 -49 25 -71c0 -37 -20 -68 -46 -91h-105zM416 623l-94 161h128l72 -161h-106z" />
    <glyph glyph-name="uni1F03" unicode="&#x1f03;" horiz-adv-x="539" 
d="M157 -12c-96 0 -129 69 -129 173c0 180 88 391 266 391c29 0 58 -13 84 -34l3 27h114l-56 -545h-123l9 82c-61 -58 -115 -94 -168 -94zM190 97c40 0 115 60 145 86l26 240c-21 15 -45 26 -72 26c-86 0 -138 -150 -138 -276c0 -41 10 -76 39 -76zM210 622
c-26 23 -46 54 -46 91c0 22 7 46 25 71h108c-16 -22 -22 -43 -22 -70c0 -49 40 -92 40 -92h-105zM407 623l-94 161h128l72 -161h-106z" />
    <glyph glyph-name="uni1F04" unicode="&#x1f04;" horiz-adv-x="539" 
d="M157 -12c-96 0 -129 69 -129 173c0 180 88 391 266 391c29 0 58 -13 84 -34l3 27h114l-56 -545h-123l9 82c-61 -58 -115 -94 -168 -94zM190 97c40 0 115 60 145 86l26 240c-21 15 -45 26 -72 26c-86 0 -138 -150 -138 -276c0 -41 10 -76 39 -76zM205 614c0 0 40 43 40 92
c0 27 -6 48 -22 70h108c18 -25 25 -49 25 -71c0 -37 -20 -68 -46 -91h-105zM355 615l72 161h127l-94 -161h-105z" />
    <glyph glyph-name="uni1F05" unicode="&#x1f05;" horiz-adv-x="539" 
d="M157 -12c-96 0 -129 69 -129 173c0 180 88 391 266 391c29 0 58 -13 84 -34l3 27h114l-56 -545h-123l9 82c-61 -58 -115 -94 -168 -94zM190 97c40 0 115 60 145 86l26 240c-21 15 -45 26 -72 26c-86 0 -138 -150 -138 -276c0 -41 10 -76 39 -76zM246 614
c-26 23 -46 54 -46 91c0 22 7 46 25 71h108c-16 -22 -22 -43 -22 -70c0 -49 40 -92 40 -92h-105zM371 615l72 161h128l-94 -161h-106z" />
    <glyph glyph-name="uni1F06" unicode="&#x1f06;" horiz-adv-x="539" 
d="M157 -12c-96 0 -129 69 -129 173c0 180 88 391 266 391c29 0 58 -13 84 -34l3 27h114l-56 -545h-123l9 82c-61 -58 -115 -94 -168 -94zM190 97c40 0 115 60 145 86l26 240c-21 15 -45 26 -72 26c-86 0 -138 -150 -138 -276c0 -41 10 -76 39 -76zM440 814
c-49 0 -94 37 -125 37c-30 0 -48 -9 -76 -28l-44 71c21 21 69 67 142 67c52 0 79 -37 111 -37s56 11 85 26l39 -69c-17 -21 -63 -67 -132 -67zM292 618c0 0 42 43 45 92c3 27 -2 48 -16 70h108c16 -25 21 -49 20 -71c-3 -37 -26 -68 -52 -91h-105z" />
    <glyph glyph-name="uni1F07" unicode="&#x1f07;" horiz-adv-x="539" 
d="M157 -12c-96 0 -129 69 -129 173c0 180 88 391 266 391c29 0 58 -13 84 -34l3 27h114l-56 -545h-123l9 82c-61 -58 -115 -94 -168 -94zM190 97c40 0 115 60 145 86l26 240c-21 15 -45 26 -72 26c-86 0 -138 -150 -138 -276c0 -41 10 -76 39 -76zM423 814
c-49 0 -94 37 -125 37c-30 0 -48 -9 -76 -28l-44 71c21 21 69 67 142 67c52 0 79 -37 111 -37s56 11 85 26l39 -69c-17 -21 -63 -67 -132 -67zM325 618c-24 23 -42 54 -39 91c1 22 10 46 30 71h108c-18 -22 -25 -43 -28 -70c-3 -49 34 -92 34 -92h-105z" />
    <glyph glyph-name="uni1F08" unicode="&#x1f08;" horiz-adv-x="647" 
d="M23 546c0 0 40 43 40 92c0 27 -6 49 -22 70h108c18 -25 25 -49 25 -70c0 -37 -20 -68 -46 -92h-105zM-54 0l352 707h167l158 -707h-130l-49 236h-256l-113 -236h-129zM235 331h189l-39 204l-14 98l-41 -98z" />
    <glyph glyph-name="uni1F09" unicode="&#x1f09;" horiz-adv-x="647" 
d="M-54 0l352 707h167l158 -707h-130l-49 236h-256l-113 -236h-129zM235 331h189l-39 204l-14 98l-41 -98zM62 546c-25 24 -45 55 -45 92c0 21 7 45 24 70h108c-15 -21 -21 -43 -21 -70c0 -49 39 -92 39 -92h-105z" />
    <glyph glyph-name="uni1F0A" unicode="&#x1f0a;" horiz-adv-x="647" 
d="M-54 0l352 707h167l158 -707h-130l-49 236h-256l-113 -236h-129zM235 331h189l-39 204l-14 98l-41 -98zM-198 545c0 0 40 43 40 92c0 27 -6 48 -22 70h108c18 -25 25 -49 25 -71c0 -37 -20 -68 -46 -91h-105zM59 546l-94 161h128l72 -161h-106z" />
    <glyph glyph-name="uni1F0B" unicode="&#x1f0b;" horiz-adv-x="647" 
d="M-54 0l352 707h167l158 -707h-130l-49 236h-256l-113 -236h-129zM235 331h189l-39 204l-14 98l-41 -98zM-144 545c-26 23 -46 54 -46 91c0 22 7 46 25 71h108c-16 -22 -22 -43 -22 -70c0 -49 40 -92 40 -92h-105zM53 546l-94 161h128l72 -161h-106z" />
    <glyph glyph-name="uni1F0C" unicode="&#x1f0c;" horiz-adv-x="647" 
d="M-54 0l352 707h167l158 -707h-130l-49 236h-256l-113 -236h-129zM235 331h189l-39 204l-14 98l-41 -98zM-154 545c0 0 40 43 40 92c0 27 -6 48 -22 70h108c18 -25 25 -49 25 -71c0 -37 -20 -68 -46 -91h-105zM-4 546l72 161h127l-94 -161h-105z" />
    <glyph glyph-name="uni1F0D" unicode="&#x1f0d;" horiz-adv-x="647" 
d="M-54 0l352 707h167l158 -707h-130l-49 236h-256l-113 -236h-129zM235 331h189l-39 204l-14 98l-41 -98zM-112 545c-26 23 -46 54 -46 91c0 22 7 46 25 71h108c-16 -22 -22 -43 -22 -70c0 -49 40 -92 40 -92h-105zM13 546l72 161h128l-94 -161h-106z" />
    <glyph glyph-name="uni1F0E" unicode="&#x1f0e;" horiz-adv-x="647" 
d="M-54 0l352 707h167l158 -707h-130l-49 236h-256l-113 -236h-129zM235 331h189l-39 204l-14 98l-41 -98zM53 578c-49 0 -94 37 -125 37c-30 0 -48 -9 -76 -28l-44 71c21 21 69 67 142 67c52 0 79 -37 111 -37s56 11 85 26l39 -69c-17 -21 -63 -67 -132 -67zM-95 382
c0 0 42 43 45 92c3 27 -2 48 -16 70h108c16 -25 21 -49 20 -71c-3 -37 -26 -68 -52 -91h-105z" />
    <glyph glyph-name="uni1F0F" unicode="&#x1f0f;" horiz-adv-x="647" 
d="M-54 0l352 707h167l158 -707h-130l-49 236h-256l-113 -236h-129zM235 331h189l-39 204l-14 98l-41 -98zM41 582c-49 0 -94 37 -125 37c-30 0 -48 -9 -76 -28l-44 71c21 21 69 67 142 67c52 0 79 -37 111 -37s56 11 85 26l39 -69c-17 -21 -63 -67 -132 -67zM-57 386
c-24 23 -42 54 -39 91c1 22 10 46 30 71h108c-18 -22 -25 -43 -28 -70c-3 -49 34 -92 34 -92h-105z" />
    <glyph glyph-name="uni1F10" unicode="&#x1f10;" horiz-adv-x="452" 
d="M236 623c0 0 40 43 40 92c0 27 -6 49 -22 70h108c18 -25 25 -49 25 -70c0 -37 -20 -68 -46 -92h-105zM216 -12c-123 0 -194 57 -194 145c0 71 40 139 122 165c-44 15 -75 53 -75 100c0 86 75 162 219 162c73 0 124 -23 152 -41l-36 -83c-26 12 -70 26 -117 26
c-64 0 -98 -22 -98 -70c0 -43 41 -53 68 -53h80l-10 -92h-76c-54 0 -101 -31 -101 -88c0 -48 37 -68 98 -68c39 0 96 16 142 38l38 -91c-44 -23 -125 -50 -212 -50z" />
    <glyph glyph-name="uni1F11" unicode="&#x1f11;" horiz-adv-x="452" 
d="M216 -12c-123 0 -194 57 -194 145c0 71 40 139 122 165c-44 15 -75 53 -75 100c0 86 75 162 219 162c73 0 124 -23 152 -41l-36 -83c-26 12 -70 26 -117 26c-64 0 -98 -22 -98 -70c0 -43 41 -53 68 -53h80l-10 -92h-76c-54 0 -101 -31 -101 -88c0 -48 37 -68 98 -68
c39 0 96 16 142 38l38 -91c-44 -23 -125 -50 -212 -50zM255 623c-25 24 -45 55 -45 92c0 21 7 45 24 70h108c-15 -21 -21 -43 -21 -70c0 -49 39 -92 39 -92h-105z" />
    <glyph glyph-name="uni1F12" unicode="&#x1f12;" horiz-adv-x="452" 
d="M216 -12c-123 0 -194 57 -194 145c0 71 40 139 122 165c-44 15 -75 53 -75 100c0 86 75 162 219 162c73 0 124 -23 152 -41l-36 -83c-26 12 -70 26 -117 26c-64 0 -98 -22 -98 -70c0 -43 41 -53 68 -53h80l-10 -92h-76c-54 0 -101 -31 -101 -88c0 -48 37 -68 98 -68
c39 0 96 16 142 38l38 -91c-44 -23 -125 -50 -212 -50zM108 622c0 0 40 43 40 92c0 27 -6 48 -22 70h108c18 -25 25 -49 25 -71c0 -37 -20 -68 -46 -91h-105zM365 623l-94 161h128l72 -161h-106z" />
    <glyph glyph-name="uni1F13" unicode="&#x1f13;" horiz-adv-x="452" 
d="M216 -12c-123 0 -194 57 -194 145c0 71 40 139 122 165c-44 15 -75 53 -75 100c0 86 75 162 219 162c73 0 124 -23 152 -41l-36 -83c-26 12 -70 26 -117 26c-64 0 -98 -22 -98 -70c0 -43 41 -53 68 -53h80l-10 -92h-76c-54 0 -101 -31 -101 -88c0 -48 37 -68 98 -68
c39 0 96 16 142 38l38 -91c-44 -23 -125 -50 -212 -50zM150 622c-26 23 -46 54 -46 91c0 22 7 46 25 71h108c-16 -22 -22 -43 -22 -70c0 -49 40 -92 40 -92h-105zM347 623l-94 161h128l72 -161h-106z" />
    <glyph glyph-name="uni1F14" unicode="&#x1f14;" horiz-adv-x="452" 
d="M216 -12c-123 0 -194 57 -194 145c0 71 40 139 122 165c-44 15 -75 53 -75 100c0 86 75 162 219 162c73 0 124 -23 152 -41l-36 -83c-26 12 -70 26 -117 26c-64 0 -98 -22 -98 -70c0 -43 41 -53 68 -53h80l-10 -92h-76c-54 0 -101 -31 -101 -88c0 -48 37 -68 98 -68
c39 0 96 16 142 38l38 -91c-44 -23 -125 -50 -212 -50zM157 622c0 0 40 43 40 92c0 27 -6 48 -22 70h108c18 -25 25 -49 25 -71c0 -37 -20 -68 -46 -91h-105zM307 623l72 161h127l-94 -161h-105z" />
    <glyph glyph-name="uni1F15" unicode="&#x1f15;" horiz-adv-x="452" 
d="M216 -12c-123 0 -194 57 -194 145c0 71 40 139 122 165c-44 15 -75 53 -75 100c0 86 75 162 219 162c73 0 124 -23 152 -41l-36 -83c-26 12 -70 26 -117 26c-64 0 -98 -22 -98 -70c0 -43 41 -53 68 -53h80l-10 -92h-76c-54 0 -101 -31 -101 -88c0 -48 37 -68 98 -68
c39 0 96 16 142 38l38 -91c-44 -23 -125 -50 -212 -50zM182 622c-26 23 -46 54 -46 91c0 22 7 46 25 71h108c-16 -22 -22 -43 -22 -70c0 -49 40 -92 40 -92h-105zM307 623l72 161h128l-94 -161h-106z" />
    <glyph glyph-name="uni1F18" unicode="&#x1f18;" horiz-adv-x="574" 
d="M-109 546c0 0 40 43 40 92c0 27 -6 49 -22 70h108c18 -25 25 -49 25 -70c0 -37 -20 -68 -46 -92h-105zM46 0l75 707h429l-10 -100h-304l-21 -204h281l-10 -96h-281l-22 -207h327l-11 -100h-453z" />
    <glyph glyph-name="uni1F19" unicode="&#x1f19;" horiz-adv-x="574" 
d="M46 0l75 707h429l-10 -100h-304l-21 -204h281l-10 -96h-281l-22 -207h327l-11 -100h-453zM-67 545c-25 24 -45 55 -45 92c0 21 7 45 24 70h108c-15 -21 -21 -43 -21 -70c0 -49 39 -92 39 -92h-105z" />
    <glyph glyph-name="uni1F1A" unicode="&#x1f1a;" horiz-adv-x="574" 
d="M46 0l75 707h429l-10 -100h-304l-21 -204h281l-10 -96h-281l-22 -207h327l-11 -100h-453zM-308 545c0 0 40 43 40 92c0 27 -6 48 -22 70h108c18 -25 25 -49 25 -71c0 -37 -20 -68 -46 -91h-105zM-51 546l-94 161h128l72 -161h-106z" />
    <glyph glyph-name="uni1F1B" unicode="&#x1f1b;" horiz-adv-x="574" 
d="M46 0l75 707h429l-10 -100h-304l-21 -204h281l-10 -96h-281l-22 -207h327l-11 -100h-453zM-258 545c-26 23 -46 54 -46 91c0 22 7 46 25 71h108c-16 -22 -22 -43 -22 -70c0 -49 40 -92 40 -92h-105zM-61 546l-94 161h128l72 -161h-106z" />
    <glyph glyph-name="uni1F1C" unicode="&#x1f1c;" horiz-adv-x="574" 
d="M46 0l75 707h429l-10 -100h-304l-21 -204h281l-10 -96h-281l-22 -207h327l-11 -100h-453zM-299 545c0 0 40 43 40 92c0 27 -6 48 -22 70h108c18 -25 25 -49 25 -71c0 -37 -20 -68 -46 -91h-105zM-149 546l72 161h127l-94 -161h-105z" />
    <glyph glyph-name="uni1F1D" unicode="&#x1f1d;" horiz-adv-x="574" 
d="M46 0l75 707h429l-10 -100h-304l-21 -204h281l-10 -96h-281l-22 -207h327l-11 -100h-453zM-276 545c-26 23 -46 54 -46 91c0 22 7 46 25 71h108c-16 -22 -22 -43 -22 -70c0 -49 40 -92 40 -92h-105zM-151 546l72 161h128l-94 -161h-106z" />
    <glyph glyph-name="uni1F20" unicode="&#x1f20;" horiz-adv-x="571" 
d="M277 623c0 0 40 43 40 92c0 27 -6 49 -22 70h108c18 -25 25 -49 25 -70c0 -37 -20 -68 -46 -92h-105zM321 -220l63 591c2 15 3 28 3 38c0 25 -6 34 -30 34c-38 0 -128 -55 -151 -68l-40 -375h-122l58 546h122l-7 -71c40 29 119 85 187 85c79 0 109 -26 109 -104
c0 -18 -2 -39 -4 -62l-65 -614h-123z" />
    <glyph glyph-name="uni1F21" unicode="&#x1f21;" horiz-adv-x="571" 
d="M321 -220l63 591c2 15 3 28 3 38c0 25 -6 34 -30 34c-38 0 -128 -55 -151 -68l-40 -375h-122l58 546h122l-7 -71c40 29 119 85 187 85c79 0 109 -26 109 -104c0 -18 -2 -39 -4 -62l-65 -614h-123zM316 623c-25 24 -45 55 -45 92c0 21 7 45 24 70h108
c-15 -21 -21 -43 -21 -70c0 -49 39 -92 39 -92h-105z" />
    <glyph glyph-name="uni1F22" unicode="&#x1f22;" horiz-adv-x="571" 
d="M321 -220l63 591c2 15 3 28 3 38c0 25 -6 34 -30 34c-38 0 -128 -55 -151 -68l-40 -375h-122l58 546h122l-7 -71c40 29 119 85 187 85c79 0 109 -26 109 -104c0 -18 -2 -39 -4 -62l-65 -614h-123zM168 622c0 0 40 43 40 92c0 27 -6 48 -22 70h108c18 -25 25 -49 25 -71
c0 -37 -20 -68 -46 -91h-105zM425 623l-94 161h128l72 -161h-106z" />
    <glyph glyph-name="uni1F23" unicode="&#x1f23;" horiz-adv-x="571" 
d="M321 -220l63 591c2 15 3 28 3 38c0 25 -6 34 -30 34c-38 0 -128 -55 -151 -68l-40 -375h-122l58 546h122l-7 -71c40 29 119 85 187 85c79 0 109 -26 109 -104c0 -18 -2 -39 -4 -62l-65 -614h-123zM200 622c-26 23 -46 54 -46 91c0 22 7 46 25 71h108
c-16 -22 -22 -43 -22 -70c0 -49 40 -92 40 -92h-105zM397 623l-94 161h128l72 -161h-106z" />
    <glyph glyph-name="uni1F24" unicode="&#x1f24;" horiz-adv-x="571" 
d="M321 -220l63 591c2 15 3 28 3 38c0 25 -6 34 -30 34c-38 0 -128 -55 -151 -68l-40 -375h-122l58 546h122l-7 -71c40 29 119 85 187 85c79 0 109 -26 109 -104c0 -18 -2 -39 -4 -62l-65 -614h-123zM188 622c0 0 40 43 40 92c0 27 -6 48 -22 70h108c18 -25 25 -49 25 -71
c0 -37 -20 -68 -46 -91h-105zM338 623l72 161h127l-94 -161h-105z" />
    <glyph glyph-name="uni1F25" unicode="&#x1f25;" horiz-adv-x="571" 
d="M321 -220l63 591c2 15 3 28 3 38c0 25 -6 34 -30 34c-38 0 -128 -55 -151 -68l-40 -375h-122l58 546h122l-7 -71c40 29 119 85 187 85c79 0 109 -26 109 -104c0 -18 -2 -39 -4 -62l-65 -614h-123zM218 622c-26 23 -46 54 -46 91c0 22 7 46 25 71h108
c-16 -22 -22 -43 -22 -70c0 -49 40 -92 40 -92h-105zM343 623l72 161h128l-94 -161h-106z" />
    <glyph glyph-name="uni1F26" unicode="&#x1f26;" horiz-adv-x="571" 
d="M321 -220l63 591c2 15 3 28 3 38c0 25 -6 34 -30 34c-38 0 -128 -55 -151 -68l-40 -375h-122l58 546h122l-7 -71c40 29 119 85 187 85c79 0 109 -26 109 -104c0 -18 -2 -39 -4 -62l-65 -614h-123zM420 814c-49 0 -94 37 -125 37c-30 0 -48 -9 -76 -28l-44 71
c21 21 69 67 142 67c52 0 79 -37 111 -37s56 11 85 26l39 -69c-17 -21 -63 -67 -132 -67zM272 618c0 0 42 43 45 92c3 27 -2 48 -16 70h108c16 -25 21 -49 20 -71c-3 -37 -26 -68 -52 -91h-105z" />
    <glyph glyph-name="uni1F27" unicode="&#x1f27;" horiz-adv-x="571" 
d="M321 -220l63 591c2 15 3 28 3 38c0 25 -6 34 -30 34c-38 0 -128 -55 -151 -68l-40 -375h-122l58 546h122l-7 -71c40 29 119 85 187 85c79 0 109 -26 109 -104c0 -18 -2 -39 -4 -62l-65 -614h-123zM405 814c-49 0 -94 37 -125 37c-30 0 -48 -9 -76 -28l-44 71
c21 21 69 67 142 67c52 0 79 -37 111 -37s56 11 85 26l39 -69c-17 -21 -63 -67 -132 -67zM307 618c-24 23 -42 54 -39 91c1 22 10 46 30 71h108c-18 -22 -25 -43 -28 -70c-3 -49 34 -92 34 -92h-105z" />
    <glyph glyph-name="uni1F28" unicode="&#x1f28;" horiz-adv-x="757" 
d="M-107 545c0 0 40 43 40 92c0 27 -6 49 -22 70h108c18 -25 25 -49 25 -70c0 -37 -20 -68 -46 -92h-105zM46 0l75 707h125l-31 -303h338l32 303h127l-74 -707h-127l33 306h-339l-33 -306h-126z" />
    <glyph glyph-name="uni1F29" unicode="&#x1f29;" horiz-adv-x="757" 
d="M46 0l75 707h125l-31 -303h338l32 303h127l-74 -707h-127l33 306h-339l-33 -306h-126zM-46 546c-25 24 -45 55 -45 92c0 21 7 45 24 70h108c-15 -21 -21 -43 -21 -70c0 -49 39 -92 39 -92h-105z" />
    <glyph glyph-name="uni1F2A" unicode="&#x1f2a;" horiz-adv-x="757" 
d="M46 0l75 707h125l-31 -303h338l32 303h127l-74 -707h-127l33 306h-339l-33 -306h-126zM-312 545c0 0 40 43 40 92c0 27 -6 48 -22 70h108c18 -25 25 -49 25 -71c0 -37 -20 -68 -46 -91h-105zM-55 546l-94 161h128l72 -161h-106z" />
    <glyph glyph-name="uni1F2B" unicode="&#x1f2b;" horiz-adv-x="757" 
d="M46 0l75 707h125l-31 -303h338l32 303h127l-74 -707h-127l33 306h-339l-33 -306h-126zM-235 545c-26 23 -46 54 -46 91c0 22 7 46 25 71h108c-16 -22 -22 -43 -22 -70c0 -49 40 -92 40 -92h-105zM-38 546l-94 161h128l72 -161h-106z" />
    <glyph glyph-name="uni1F2C" unicode="&#x1f2c;" horiz-adv-x="757" 
d="M46 0l75 707h125l-31 -303h338l32 303h127l-74 -707h-127l33 306h-339l-33 -306h-126zM-283 545c0 0 40 43 40 92c0 27 -6 48 -22 70h108c18 -25 25 -49 25 -71c0 -37 -20 -68 -46 -91h-105zM-133 546l72 161h127l-94 -161h-105z" />
    <glyph glyph-name="uni1F2D" unicode="&#x1f2d;" horiz-adv-x="757" 
d="M46 0l75 707h125l-31 -303h338l32 303h127l-74 -707h-127l33 306h-339l-33 -306h-126zM-272 545c-26 23 -46 54 -46 91c0 22 7 46 25 71h108c-16 -22 -22 -43 -22 -70c0 -49 40 -92 40 -92h-105zM-147 546l72 161h128l-94 -161h-106z" />
    <glyph glyph-name="uni1F2E" unicode="&#x1f2e;" horiz-adv-x="757" 
d="M46 0l75 707h125l-31 -303h338l32 303h127l-74 -707h-127l33 306h-339l-33 -306h-126zM-63 577c-49 0 -94 37 -125 37c-30 0 -48 -9 -76 -28l-44 71c21 21 69 67 142 67c52 0 79 -37 111 -37s56 11 85 26l39 -69c-17 -21 -63 -67 -132 -67zM-211 381c0 0 42 43 45 92
c3 27 -2 48 -16 70h108c16 -25 21 -49 20 -71c-3 -37 -26 -68 -52 -91h-105z" />
    <glyph glyph-name="uni1F2F" unicode="&#x1f2f;" horiz-adv-x="757" 
d="M46 0l75 707h125l-31 -303h338l32 303h127l-74 -707h-127l33 306h-339l-33 -306h-126zM-63 581c-49 0 -94 37 -125 37c-30 0 -48 -9 -76 -28l-44 71c21 21 69 67 142 67c52 0 79 -37 111 -37s56 11 85 26l39 -69c-17 -21 -63 -67 -132 -67zM-161 385
c-24 23 -42 54 -39 91c1 22 10 46 30 71h108c-18 -22 -25 -43 -28 -70c-3 -49 34 -92 34 -92h-105z" />
    <glyph glyph-name="uni1F30" unicode="&#x1f30;" horiz-adv-x="272" 
d="M116 623c0 0 40 43 40 92c0 27 -6 49 -22 70h108c18 -25 25 -49 25 -70c0 -37 -20 -68 -46 -92h-105zM44 0l57 546h123l-57 -546h-123z" />
    <glyph glyph-name="uni1F31" unicode="&#x1f31;" horiz-adv-x="272" 
d="M44 0l57 546h123l-57 -546h-123zM134 623c-25 24 -45 55 -45 92c0 21 7 45 24 70h108c-15 -21 -21 -43 -21 -70c0 -49 39 -92 39 -92h-105z" />
    <glyph glyph-name="uni1F32" unicode="&#x1f32;" horiz-adv-x="272" 
d="M44 0l57 546h123l-57 -546h-123zM4 622c0 0 40 43 40 92c0 27 -6 48 -22 70h108c18 -25 25 -49 25 -71c0 -37 -20 -68 -46 -91h-105zM261 623l-94 161h128l72 -161h-106z" />
    <glyph glyph-name="uni1F33" unicode="&#x1f33;" horiz-adv-x="272" 
d="M37 622c-26 23 -46 54 -46 91c0 22 7 46 25 71h108c-16 -22 -22 -43 -22 -70c0 -49 40 -92 40 -92h-105zM234 623l-94 161h128l72 -161h-106zM44 0l57 546h123l-57 -546h-123z" />
    <glyph glyph-name="uni1F34" unicode="&#x1f34;" horiz-adv-x="272" 
d="M34 620c0 0 40 43 40 92c0 27 -6 48 -22 70h108c18 -25 25 -49 25 -71c0 -37 -20 -68 -46 -91h-105zM184 621l72 161h127l-94 -161h-105zM44 0l57 546h123l-57 -546h-123z" />
    <glyph glyph-name="uni1F35" unicode="&#x1f35;" horiz-adv-x="272" 
d="M44 0l57 546h123l-57 -546h-123zM64 620c-26 23 -46 54 -46 91c0 22 7 46 25 71h108c-16 -22 -22 -43 -22 -70c0 -49 40 -92 40 -92h-105zM189 621l72 161h128l-94 -161h-106z" />
    <glyph glyph-name="uni1F36" unicode="&#x1f36;" horiz-adv-x="272" 
d="M44 0l57 546h123l-57 -546h-123zM242 814c-49 0 -94 37 -125 37c-30 0 -48 -9 -76 -28l-44 71c21 21 69 67 142 67c52 0 79 -37 111 -37s56 11 85 26l39 -69c-17 -21 -63 -67 -132 -67zM94 618c0 0 42 43 45 92c3 27 -2 48 -16 70h108c16 -25 21 -49 20 -71
c-3 -37 -26 -68 -52 -91h-105z" />
    <glyph glyph-name="uni1F37" unicode="&#x1f37;" horiz-adv-x="272" 
d="M44 0l57 546h123l-57 -546h-123zM221 810c-49 0 -94 37 -125 37c-30 0 -48 -9 -76 -28l-44 71c21 21 69 67 142 67c52 0 79 -37 111 -37s56 11 85 26l39 -69c-17 -21 -63 -67 -132 -67zM123 614c-24 23 -42 54 -39 91c1 22 10 46 30 71h108c-18 -22 -25 -43 -28 -70
c-3 -49 34 -92 34 -92h-105z" />
    <glyph glyph-name="uni1F38" unicode="&#x1f38;" horiz-adv-x="293" 
d="M-85 545c0 0 40 43 40 92c0 27 -6 49 -22 70h108c18 -25 25 -49 25 -70c0 -37 -20 -68 -46 -92h-105zM46 0l75 707h125l-74 -707h-126z" />
    <glyph glyph-name="uni1F39" unicode="&#x1f39;" horiz-adv-x="293" 
d="M46 0l75 707h125l-74 -707h-126zM-39 545c-25 24 -45 55 -45 92c0 21 7 45 24 70h108c-15 -21 -21 -43 -21 -70c0 -49 39 -92 39 -92h-105z" />
    <glyph glyph-name="uni1F3A" unicode="&#x1f3a;" horiz-adv-x="293" 
d="M46 0l75 707h125l-74 -707h-126zM-291 545c0 0 40 43 40 92c0 27 -6 48 -22 70h108c18 -25 25 -49 25 -71c0 -37 -20 -68 -46 -91h-105zM-34 546l-94 161h128l72 -161h-106z" />
    <glyph glyph-name="uni1F3B" unicode="&#x1f3b;" horiz-adv-x="293" 
d="M-241 545c-26 23 -46 54 -46 91c0 22 7 46 25 71h108c-16 -22 -22 -43 -22 -70c0 -49 40 -92 40 -92h-105zM-44 546l-94 161h128l72 -161h-106zM46 0l75 707h125l-74 -707h-126z" />
    <glyph glyph-name="uni1F3C" unicode="&#x1f3c;" horiz-adv-x="293" 
d="M-272 545c0 0 40 43 40 92c0 27 -6 48 -22 70h108c18 -25 25 -49 25 -71c0 -37 -20 -68 -46 -91h-105zM-122 546l72 161h127l-94 -161h-105zM46 0l75 707h125l-74 -707h-126z" />
    <glyph glyph-name="uni1F3D" unicode="&#x1f3d;" horiz-adv-x="293" 
d="M46 0l75 707h125l-74 -707h-126zM-252 544c-26 23 -46 54 -46 91c0 22 7 46 25 71h108c-16 -22 -22 -43 -22 -70c0 -49 40 -92 40 -92h-105zM-127 545l72 161h128l-94 -161h-106z" />
    <glyph glyph-name="uni1F3E" unicode="&#x1f3e;" horiz-adv-x="293" 
d="M46 0l75 707h125l-74 -707h-126zM-56 582c-49 0 -94 37 -125 37c-30 0 -48 -9 -76 -28l-44 71c21 21 69 67 142 67c52 0 79 -37 111 -37s56 11 85 26l39 -69c-17 -21 -63 -67 -132 -67zM-204 386c0 0 42 43 45 92c3 27 -2 48 -16 70h108c16 -25 21 -49 20 -71
c-3 -37 -26 -68 -52 -91h-105z" />
    <glyph glyph-name="uni1F3F" unicode="&#x1f3f;" horiz-adv-x="293" 
d="M46 0l75 707h125l-74 -707h-126zM-66 578c-49 0 -94 37 -125 37c-30 0 -48 -9 -76 -28l-44 71c21 21 69 67 142 67c52 0 79 -37 111 -37s56 11 85 26l39 -69c-17 -21 -63 -67 -132 -67zM-164 382c-24 23 -42 54 -39 91c1 22 10 46 30 71h108c-18 -22 -25 -43 -28 -70
c-3 -49 34 -92 34 -92h-105z" />
    <glyph glyph-name="uni1F40" unicode="&#x1f40;" horiz-adv-x="533" 
d="M268 623c0 0 40 43 40 92c0 27 -6 49 -22 70h108c18 -25 25 -49 25 -70c0 -37 -20 -68 -46 -92h-105zM217 -12c-121 0 -188 87 -188 204c0 215 109 367 289 367c126 0 187 -94 187 -200c0 -152 -65 -371 -288 -371zM239 90c69 0 142 96 142 263c0 81 -32 107 -88 107
c-70 0 -138 -104 -138 -259c0 -60 21 -111 84 -111z" />
    <glyph glyph-name="uni1F41" unicode="&#x1f41;" horiz-adv-x="533" 
d="M217 -12c-121 0 -188 87 -188 204c0 215 109 367 289 367c126 0 187 -94 187 -200c0 -152 -65 -371 -288 -371zM239 90c69 0 142 96 142 263c0 81 -32 107 -88 107c-70 0 -138 -104 -138 -259c0 -60 21 -111 84 -111zM287 623c-25 24 -45 55 -45 92c0 21 7 45 24 70h108
c-15 -21 -21 -43 -21 -70c0 -49 39 -92 39 -92h-105z" />
    <glyph glyph-name="uni1F42" unicode="&#x1f42;" horiz-adv-x="533" 
d="M217 -12c-121 0 -188 87 -188 204c0 215 109 367 289 367c126 0 187 -94 187 -200c0 -152 -65 -371 -288 -371zM239 90c69 0 142 96 142 263c0 81 -32 107 -88 107c-70 0 -138 -104 -138 -259c0 -60 21 -111 84 -111zM161 622c0 0 40 43 40 92c0 27 -6 48 -22 70h108
c18 -25 25 -49 25 -71c0 -37 -20 -68 -46 -91h-105zM418 623l-94 161h128l72 -161h-106z" />
    <glyph glyph-name="uni1F43" unicode="&#x1f43;" horiz-adv-x="533" 
d="M217 -12c-121 0 -188 87 -188 204c0 215 109 367 289 367c126 0 187 -94 187 -200c0 -152 -65 -371 -288 -371zM239 90c69 0 142 96 142 263c0 81 -32 107 -88 107c-70 0 -138 -104 -138 -259c0 -60 21 -111 84 -111zM201 618c-26 23 -46 54 -46 91c0 22 7 46 25 71h108
c-16 -22 -22 -43 -22 -70c0 -49 40 -92 40 -92h-105zM398 619l-94 161h128l72 -161h-106z" />
    <glyph glyph-name="uni1F44" unicode="&#x1f44;" horiz-adv-x="533" 
d="M217 -12c-121 0 -188 87 -188 204c0 215 109 367 289 367c126 0 187 -94 187 -200c0 -152 -65 -371 -288 -371zM239 90c69 0 142 96 142 263c0 81 -32 107 -88 107c-70 0 -138 -104 -138 -259c0 -60 21 -111 84 -111zM197 616c0 0 40 43 40 92c0 27 -6 48 -22 70h108
c18 -25 25 -49 25 -71c0 -37 -20 -68 -46 -91h-105zM347 617l72 161h127l-94 -161h-105z" />
    <glyph glyph-name="uni1F45" unicode="&#x1f45;" horiz-adv-x="533" 
d="M217 -12c-121 0 -188 87 -188 204c0 215 109 367 289 367c126 0 187 -94 187 -200c0 -152 -65 -371 -288 -371zM239 90c69 0 142 96 142 263c0 81 -32 107 -88 107c-70 0 -138 -104 -138 -259c0 -60 21 -111 84 -111zM222 622c-26 23 -46 54 -46 91c0 22 7 46 25 71h108
c-16 -22 -22 -43 -22 -70c0 -49 40 -92 40 -92h-105zM347 623l72 161h128l-94 -161h-106z" />
    <glyph glyph-name="uni1F48" unicode="&#x1f48;" horiz-adv-x="797" 
d="M-110 545c0 0 40 43 40 92c0 27 -6 49 -22 70h108c18 -25 25 -49 25 -70c0 -37 -20 -68 -46 -92h-105zM352 -12c-199 0 -317 116 -317 313c0 255 155 417 410 417c199 0 318 -112 318 -310c0 -257 -152 -420 -411 -420zM366 90c182 0 267 136 267 306
c0 133 -68 220 -205 220c-178 0 -265 -134 -265 -303c0 -131 65 -223 203 -223z" />
    <glyph glyph-name="uni1F49" unicode="&#x1f49;" horiz-adv-x="797" 
d="M352 -12c-199 0 -317 116 -317 313c0 255 155 417 410 417c199 0 318 -112 318 -310c0 -257 -152 -420 -411 -420zM366 90c182 0 267 136 267 306c0 133 -68 220 -205 220c-178 0 -265 -134 -265 -303c0 -131 65 -223 203 -223zM-73 545c-25 24 -45 55 -45 92
c0 21 7 45 24 70h108c-15 -21 -21 -43 -21 -70c0 -49 39 -92 39 -92h-105z" />
    <glyph glyph-name="uni1F4A" unicode="&#x1f4a;" horiz-adv-x="797" 
d="M352 -12c-199 0 -317 116 -317 313c0 255 155 417 410 417c199 0 318 -112 318 -310c0 -257 -152 -420 -411 -420zM366 90c182 0 267 136 267 306c0 133 -68 220 -205 220c-178 0 -265 -134 -265 -303c0 -131 65 -223 203 -223zM-329 545c0 0 40 43 40 92
c0 27 -6 48 -22 70h108c18 -25 25 -49 25 -71c0 -37 -20 -68 -46 -91h-105zM-72 546l-94 161h128l72 -161h-106z" />
    <glyph glyph-name="uni1F4B" unicode="&#x1f4b;" horiz-adv-x="797" 
d="M352 -12c-199 0 -317 116 -317 313c0 255 155 417 410 417c199 0 318 -112 318 -310c0 -257 -152 -420 -411 -420zM366 90c182 0 267 136 267 306c0 133 -68 220 -205 220c-178 0 -265 -134 -265 -303c0 -131 65 -223 203 -223zM-280 545c-26 23 -46 54 -46 91
c0 22 7 46 25 71h108c-16 -22 -22 -43 -22 -70c0 -49 40 -92 40 -92h-105zM-83 546l-94 161h128l72 -161h-106z" />
    <glyph glyph-name="uni1F4C" unicode="&#x1f4c;" horiz-adv-x="797" 
d="M352 -12c-199 0 -317 116 -317 313c0 255 155 417 410 417c199 0 318 -112 318 -310c0 -257 -152 -420 -411 -420zM366 90c182 0 267 136 267 306c0 133 -68 220 -205 220c-178 0 -265 -134 -265 -303c0 -131 65 -223 203 -223zM-241 545c0 0 40 43 40 92
c0 27 -6 48 -22 70h108c18 -25 25 -49 25 -71c0 -37 -20 -68 -46 -91h-105zM-91 546l72 161h127l-94 -161h-105z" />
    <glyph glyph-name="uni1F4D" unicode="&#x1f4d;" horiz-adv-x="797" 
d="M352 -12c-199 0 -317 116 -317 313c0 255 155 417 410 417c199 0 318 -112 318 -310c0 -257 -152 -420 -411 -420zM366 90c182 0 267 136 267 306c0 133 -68 220 -205 220c-178 0 -265 -134 -265 -303c0 -131 65 -223 203 -223zM-218 545c-26 23 -46 54 -46 91
c0 22 7 46 25 71h108c-16 -22 -22 -43 -22 -70c0 -49 40 -92 40 -92h-105zM-93 546l72 161h128l-94 -161h-106z" />
    <glyph glyph-name="uni1F50" unicode="&#x1f50;" horiz-adv-x="552" 
d="M239 623c0 0 40 43 40 92c0 27 -6 49 -22 70h108c18 -25 25 -49 25 -70c0 -37 -20 -68 -46 -92h-105zM236 -12c-114 0 -187 43 -187 165c0 7 1 23 3 38l37 355h122l-36 -346c-1 -11 -2 -21 -2 -31c0 -57 25 -77 72 -77c45 0 99 18 110 121l35 333h122l-36 -334
c-17 -167 -117 -224 -240 -224z" />
    <glyph glyph-name="uni1F51" unicode="&#x1f51;" horiz-adv-x="552" 
d="M236 -12c-114 0 -187 43 -187 165c0 7 1 23 3 38l37 355h122l-36 -346c-1 -11 -2 -21 -2 -31c0 -57 25 -77 72 -77c45 0 99 18 110 121l35 333h122l-36 -334c-17 -167 -117 -224 -240 -224zM272 623c-25 24 -45 55 -45 92c0 21 7 45 24 70h108c-15 -21 -21 -43 -21 -70
c0 -49 39 -92 39 -92h-105z" />
    <glyph glyph-name="uni1F52" unicode="&#x1f52;" horiz-adv-x="552" 
d="M236 -12c-114 0 -187 43 -187 165c0 7 1 23 3 38l37 355h122l-36 -346c-1 -11 -2 -21 -2 -31c0 -57 25 -77 72 -77c45 0 99 18 110 121l35 333h122l-36 -334c-17 -167 -117 -224 -240 -224zM131 618c0 0 40 43 40 92c0 27 -6 48 -22 70h108c18 -25 25 -49 25 -71
c0 -37 -20 -68 -46 -91h-105zM388 619l-94 161h128l72 -161h-106z" />
    <glyph glyph-name="uni1F53" unicode="&#x1f53;" horiz-adv-x="552" 
d="M236 -12c-114 0 -187 43 -187 165c0 7 1 23 3 38l37 355h122l-36 -346c-1 -11 -2 -21 -2 -31c0 -57 25 -77 72 -77c45 0 99 18 110 121l35 333h122l-36 -334c-17 -167 -117 -224 -240 -224zM189 622c-26 23 -46 54 -46 91c0 22 7 46 25 71h108c-16 -22 -22 -43 -22 -70
c0 -49 40 -92 40 -92h-105zM386 623l-94 161h128l72 -161h-106z" />
    <glyph glyph-name="uni1F54" unicode="&#x1f54;" horiz-adv-x="552" 
d="M236 -12c-114 0 -187 43 -187 165c0 7 1 23 3 38l37 355h122l-36 -346c-1 -11 -2 -21 -2 -31c0 -57 25 -77 72 -77c45 0 99 18 110 121l35 333h122l-36 -334c-17 -167 -117 -224 -240 -224zM180 616c0 0 40 43 40 92c0 27 -6 48 -22 70h108c18 -25 25 -49 25 -71
c0 -37 -20 -68 -46 -91h-105zM330 617l72 161h127l-94 -161h-105z" />
    <glyph glyph-name="uni1F55" unicode="&#x1f55;" horiz-adv-x="552" 
d="M236 -12c-114 0 -187 43 -187 165c0 7 1 23 3 38l37 355h122l-36 -346c-1 -11 -2 -21 -2 -31c0 -57 25 -77 72 -77c45 0 99 18 110 121l35 333h122l-36 -334c-17 -167 -117 -224 -240 -224zM198 622c-26 23 -46 54 -46 91c0 22 7 46 25 71h108c-16 -22 -22 -43 -22 -70
c0 -49 40 -92 40 -92h-105zM323 623l72 161h128l-94 -161h-106z" />
    <glyph glyph-name="uni1F56" unicode="&#x1f56;" horiz-adv-x="552" 
d="M236 -12c-114 0 -187 43 -187 165c0 7 1 23 3 38l37 355h122l-36 -346c-1 -11 -2 -21 -2 -31c0 -57 25 -77 72 -77c45 0 99 18 110 121l35 333h122l-36 -334c-17 -167 -117 -224 -240 -224zM384 814c-49 0 -94 37 -125 37c-30 0 -48 -9 -76 -28l-44 71
c21 21 69 67 142 67c52 0 79 -37 111 -37s56 11 85 26l39 -69c-17 -21 -63 -67 -132 -67zM236 618c0 0 42 43 45 92c3 27 -2 48 -16 70h108c16 -25 21 -49 20 -71c-3 -37 -26 -68 -52 -91h-105z" />
    <glyph glyph-name="uni1F57" unicode="&#x1f57;" horiz-adv-x="552" 
d="M236 -12c-114 0 -187 43 -187 165c0 7 1 23 3 38l37 355h122l-36 -346c-1 -11 -2 -21 -2 -31c0 -57 25 -77 72 -77c45 0 99 18 110 121l35 333h122l-36 -334c-17 -167 -117 -224 -240 -224zM366 814c-49 0 -94 37 -125 37c-30 0 -48 -9 -76 -28l-44 71
c21 21 69 67 142 67c52 0 79 -37 111 -37s56 11 85 26l39 -69c-17 -21 -63 -67 -132 -67zM268 618c-24 23 -42 54 -39 91c1 22 10 46 30 71h108c-18 -22 -25 -43 -28 -70c-3 -49 34 -92 34 -92h-105z" />
    <glyph glyph-name="uni1F59" unicode="&#x1f59;" horiz-adv-x="596" 
d="M186 0l26 250l-197 457h143l132 -351l218 351h140l-310 -454l-26 -253h-126zM-134 546c-25 24 -45 55 -45 92c0 21 7 45 24 70h108c-15 -21 -21 -43 -21 -70c0 -49 39 -92 39 -92h-105z" />
    <glyph glyph-name="uni1F5B" unicode="&#x1f5b;" horiz-adv-x="596" 
d="M186 0l26 250l-197 457h143l132 -351l218 351h140l-310 -454l-26 -253h-126zM-290 545c-26 23 -46 54 -46 91c0 22 7 46 25 71h108c-16 -22 -22 -43 -22 -70c0 -49 40 -92 40 -92h-105zM-93 546l-94 161h128l72 -161h-106z" />
    <glyph glyph-name="uni1F5D" unicode="&#x1f5d;" horiz-adv-x="596" 
d="M186 0l26 250l-197 457h143l132 -351l218 351h140l-310 -454l-26 -253h-126zM-366 545c-26 23 -46 54 -46 91c0 22 7 46 25 71h108c-16 -22 -22 -43 -22 -70c0 -49 40 -92 40 -92h-105zM-241 546l72 161h128l-94 -161h-106z" />
    <glyph glyph-name="uni1F5F" unicode="&#x1f5f;" horiz-adv-x="596" 
d="M186 0l26 250l-197 457h143l132 -351l218 351h140l-310 -454l-26 -253h-126zM-149 577c-49 0 -94 37 -125 37c-30 0 -48 -9 -76 -28l-44 71c21 21 69 67 142 67c52 0 79 -37 111 -37s56 11 85 26l39 -69c-17 -21 -63 -67 -132 -67zM-247 381c-24 23 -42 54 -39 91
c1 22 10 46 30 71h108c-18 -22 -25 -43 -28 -70c-3 -49 34 -92 34 -92h-105z" />
    <glyph glyph-name="uni1F60" unicode="&#x1f60;" horiz-adv-x="708" 
d="M341 623c0 0 40 43 40 92c0 27 -6 49 -22 70h108c18 -25 25 -49 25 -70c0 -37 -20 -68 -46 -92h-105zM183 -11c-90 0 -154 70 -154 196s32 248 165 361h123c-107 -89 -164 -220 -164 -350c0 -52 9 -100 58 -100c41 0 69 48 77 125l15 139h120l-12 -134
c-1 -11 -3 -36 -3 -48c0 -53 16 -82 53 -82c83 0 91 158 91 216c0 91 -25 170 -81 234h129c46 -59 77 -137 77 -222c0 -149 -50 -335 -223 -335c-48 0 -109 23 -122 93c-31 -67 -93 -93 -149 -93z" />
    <glyph glyph-name="uni1F61" unicode="&#x1f61;" horiz-adv-x="708" 
d="M183 -11c-90 0 -154 70 -154 196s32 248 165 361h123c-107 -89 -164 -220 -164 -350c0 -52 9 -100 58 -100c41 0 69 48 77 125l15 139h120l-12 -134c-1 -11 -3 -36 -3 -48c0 -53 16 -82 53 -82c83 0 91 158 91 216c0 91 -25 170 -81 234h129c46 -59 77 -137 77 -222
c0 -149 -50 -335 -223 -335c-48 0 -109 23 -122 93c-31 -67 -93 -93 -149 -93zM348 623c-25 24 -45 55 -45 92c0 21 7 45 24 70h108c-15 -21 -21 -43 -21 -70c0 -49 39 -92 39 -92h-105z" />
    <glyph glyph-name="uni1F62" unicode="&#x1f62;" horiz-adv-x="708" 
d="M183 -11c-90 0 -154 70 -154 196s32 248 165 361h123c-107 -89 -164 -220 -164 -350c0 -52 9 -100 58 -100c41 0 69 48 77 125l15 139h120l-12 -134c-1 -11 -3 -36 -3 -48c0 -53 16 -82 53 -82c83 0 91 158 91 216c0 91 -25 170 -81 234h129c46 -59 77 -137 77 -222
c0 -149 -50 -335 -223 -335c-48 0 -109 23 -122 93c-31 -67 -93 -93 -149 -93zM232 622c0 0 40 43 40 92c0 27 -6 48 -22 70h108c18 -25 25 -49 25 -71c0 -37 -20 -68 -46 -91h-105zM489 623l-94 161h128l72 -161h-106z" />
    <glyph glyph-name="uni1F63" unicode="&#x1f63;" horiz-adv-x="708" 
d="M183 -11c-90 0 -154 70 -154 196s32 248 165 361h123c-107 -89 -164 -220 -164 -350c0 -52 9 -100 58 -100c41 0 69 48 77 125l15 139h120l-12 -134c-1 -11 -3 -36 -3 -48c0 -53 16 -82 53 -82c83 0 91 158 91 216c0 91 -25 170 -81 234h129c46 -59 77 -137 77 -222
c0 -149 -50 -335 -223 -335c-48 0 -109 23 -122 93c-31 -67 -93 -93 -149 -93zM279 622c-26 23 -46 54 -46 91c0 22 7 46 25 71h108c-16 -22 -22 -43 -22 -70c0 -49 40 -92 40 -92h-105zM476 623l-94 161h128l72 -161h-106z" />
    <glyph glyph-name="uni1F64" unicode="&#x1f64;" horiz-adv-x="708" 
d="M183 -11c-90 0 -154 70 -154 196s32 248 165 361h123c-107 -89 -164 -220 -164 -350c0 -52 9 -100 58 -100c41 0 69 48 77 125l15 139h120l-12 -134c-1 -11 -3 -36 -3 -48c0 -53 16 -82 53 -82c83 0 91 158 91 216c0 91 -25 170 -81 234h129c46 -59 77 -137 77 -222
c0 -149 -50 -335 -223 -335c-48 0 -109 23 -122 93c-31 -67 -93 -93 -149 -93zM278 622c0 0 40 43 40 92c0 27 -6 48 -22 70h108c18 -25 25 -49 25 -71c0 -37 -20 -68 -46 -91h-105zM428 623l72 161h127l-94 -161h-105z" />
    <glyph glyph-name="uni1F65" unicode="&#x1f65;" horiz-adv-x="708" 
d="M183 -11c-90 0 -154 70 -154 196s32 248 165 361h123c-107 -89 -164 -220 -164 -350c0 -52 9 -100 58 -100c41 0 69 48 77 125l15 139h120l-12 -134c-1 -11 -3 -36 -3 -48c0 -53 16 -82 53 -82c83 0 91 158 91 216c0 91 -25 170 -81 234h129c46 -59 77 -137 77 -222
c0 -149 -50 -335 -223 -335c-48 0 -109 23 -122 93c-31 -67 -93 -93 -149 -93zM301 622c-26 23 -46 54 -46 91c0 22 7 46 25 71h108c-16 -22 -22 -43 -22 -70c0 -49 40 -92 40 -92h-105zM426 623l72 161h128l-94 -161h-106z" />
    <glyph glyph-name="uni1F66" unicode="&#x1f66;" horiz-adv-x="708" 
d="M183 -11c-90 0 -154 70 -154 196s32 248 165 361h123c-107 -89 -164 -220 -164 -350c0 -52 9 -100 58 -100c41 0 69 48 77 125l15 139h120l-12 -134c-1 -11 -3 -36 -3 -48c0 -53 16 -82 53 -82c83 0 91 158 91 216c0 91 -25 170 -81 234h129c46 -59 77 -137 77 -222
c0 -149 -50 -335 -223 -335c-48 0 -109 23 -122 93c-31 -67 -93 -93 -149 -93zM481 814c-49 0 -94 37 -125 37c-30 0 -48 -9 -76 -28l-44 71c21 21 69 67 142 67c52 0 79 -37 111 -37s56 11 85 26l39 -69c-17 -21 -63 -67 -132 -67zM333 618c0 0 42 43 45 92
c3 27 -2 48 -16 70h108c16 -25 21 -49 20 -71c-3 -37 -26 -68 -52 -91h-105z" />
    <glyph glyph-name="uni1F67" unicode="&#x1f67;" horiz-adv-x="708" 
d="M183 -11c-90 0 -154 70 -154 196s32 248 165 361h123c-107 -89 -164 -220 -164 -350c0 -52 9 -100 58 -100c41 0 69 48 77 125l15 139h120l-12 -134c-1 -11 -3 -36 -3 -48c0 -53 16 -82 53 -82c83 0 91 158 91 216c0 91 -25 170 -81 234h129c46 -59 77 -137 77 -222
c0 -149 -50 -335 -223 -335c-48 0 -109 23 -122 93c-31 -67 -93 -93 -149 -93zM444 814c-49 0 -94 37 -125 37c-30 0 -48 -9 -76 -28l-44 71c21 21 69 67 142 67c52 0 79 -37 111 -37s56 11 85 26l39 -69c-17 -21 -63 -67 -132 -67zM346 618c-24 23 -42 54 -39 91
c1 22 10 46 30 71h108c-18 -22 -25 -43 -28 -70c-3 -49 34 -92 34 -92h-105z" />
    <glyph glyph-name="uni1F68" unicode="&#x1f68;" horiz-adv-x="822" 
d="M-85 546c0 0 40 43 40 92c0 27 -6 49 -22 70h108c18 -25 25 -49 25 -70c0 -37 -20 -68 -46 -92h-105zM22 0l11 107h132c-54 32 -114 120 -114 227c0 233 173 384 404 384c212 0 321 -129 321 -305c0 -125 -69 -258 -165 -306h128l-11 -107h-289l11 101
c115 55 195 175 195 300c0 120 -60 215 -207 215c-166 0 -261 -124 -261 -275c0 -109 69 -194 142 -240l-11 -101h-286z" />
    <glyph glyph-name="uni1F69" unicode="&#x1f69;" horiz-adv-x="822" 
d="M22 0l11 107h132c-54 32 -114 120 -114 227c0 233 173 384 404 384c212 0 321 -129 321 -305c0 -125 -69 -258 -165 -306h128l-11 -107h-289l11 101c115 55 195 175 195 300c0 120 -60 215 -207 215c-166 0 -261 -124 -261 -275c0 -109 69 -194 142 -240l-11 -101h-286z
M-63 546c-25 24 -45 55 -45 92c0 21 7 45 24 70h108c-15 -21 -21 -43 -21 -70c0 -49 39 -92 39 -92h-105z" />
    <glyph glyph-name="uni1F6A" unicode="&#x1f6a;" horiz-adv-x="822" 
d="M22 0l11 107h132c-54 32 -114 120 -114 227c0 233 173 384 404 384c212 0 321 -129 321 -305c0 -125 -69 -258 -165 -306h128l-11 -107h-289l11 101c115 55 195 175 195 300c0 120 -60 215 -207 215c-166 0 -261 -124 -261 -275c0 -109 69 -194 142 -240l-11 -101h-286z
M-337 545c0 0 40 43 40 92c0 27 -6 48 -22 70h108c18 -25 25 -49 25 -71c0 -37 -20 -68 -46 -91h-105zM-80 546l-94 161h128l72 -161h-106z" />
    <glyph glyph-name="uni1F6B" unicode="&#x1f6b;" horiz-adv-x="822" 
d="M22 0l11 107h132c-54 32 -114 120 -114 227c0 233 173 384 404 384c212 0 321 -129 321 -305c0 -125 -69 -258 -165 -306h128l-11 -107h-289l11 101c115 55 195 175 195 300c0 120 -60 215 -207 215c-166 0 -261 -124 -261 -275c0 -109 69 -194 142 -240l-11 -101h-286z
M-264 545c-26 23 -46 54 -46 91c0 22 7 46 25 71h108c-16 -22 -22 -43 -22 -70c0 -49 40 -92 40 -92h-105zM-67 546l-94 161h128l72 -161h-106z" />
    <glyph glyph-name="uni1F6C" unicode="&#x1f6c;" horiz-adv-x="822" 
d="M22 0l11 107h132c-54 32 -114 120 -114 227c0 233 173 384 404 384c212 0 321 -129 321 -305c0 -125 -69 -258 -165 -306h128l-11 -107h-289l11 101c115 55 195 175 195 300c0 120 -60 215 -207 215c-166 0 -261 -124 -261 -275c0 -109 69 -194 142 -240l-11 -101h-286z
M-220 545c0 0 40 43 40 92c0 27 -6 48 -22 70h108c18 -25 25 -49 25 -71c0 -37 -20 -68 -46 -91h-105zM-70 546l72 161h127l-94 -161h-105z" />
    <glyph glyph-name="uni1F6D" unicode="&#x1f6d;" horiz-adv-x="822" 
d="M22 0l11 107h132c-54 32 -114 120 -114 227c0 233 173 384 404 384c212 0 321 -129 321 -305c0 -125 -69 -258 -165 -306h128l-11 -107h-289l11 101c115 55 195 175 195 300c0 120 -60 215 -207 215c-166 0 -261 -124 -261 -275c0 -109 69 -194 142 -240l-11 -101h-286z
M-199 545c-26 23 -46 54 -46 91c0 22 7 46 25 71h108c-16 -22 -22 -43 -22 -70c0 -49 40 -92 40 -92h-105zM-74 546l72 161h128l-94 -161h-106z" />
    <glyph glyph-name="uni1F6E" unicode="&#x1f6e;" horiz-adv-x="822" 
d="M22 0l11 107h132c-54 32 -114 120 -114 227c0 233 173 384 404 384c212 0 321 -129 321 -305c0 -125 -69 -258 -165 -306h128l-11 -107h-289l11 101c115 55 195 175 195 300c0 120 -60 215 -207 215c-166 0 -261 -124 -261 -275c0 -109 69 -194 142 -240l-11 -101h-286z
M-29 575c-49 0 -94 37 -125 37c-30 0 -48 -9 -76 -28l-44 71c21 21 69 67 142 67c52 0 79 -37 111 -37s56 11 85 26l39 -69c-17 -21 -63 -67 -132 -67zM-177 379c0 0 42 43 45 92c3 27 -2 48 -16 70h108c16 -25 21 -49 20 -71c-3 -37 -26 -68 -52 -91h-105z" />
    <glyph glyph-name="uni1F6F" unicode="&#x1f6f;" horiz-adv-x="822" 
d="M22 0l11 107h132c-54 32 -114 120 -114 227c0 233 173 384 404 384c212 0 321 -129 321 -305c0 -125 -69 -258 -165 -306h128l-11 -107h-289l11 101c115 55 195 175 195 300c0 120 -60 215 -207 215c-166 0 -261 -124 -261 -275c0 -109 69 -194 142 -240l-11 -101h-286z
M-50 575c-49 0 -94 37 -125 37c-30 0 -48 -9 -76 -28l-44 71c21 21 69 67 142 67c52 0 79 -37 111 -37s56 11 85 26l39 -69c-17 -21 -63 -67 -132 -67zM-148 379c-24 23 -42 54 -39 91c1 22 10 46 30 71h108c-18 -22 -25 -43 -28 -70c-3 -49 34 -92 34 -92h-105z" />
    <glyph glyph-name="uni1F70" unicode="&#x1f70;" horiz-adv-x="539" 
d="M157 -12c-96 0 -129 69 -129 173c0 180 88 391 266 391c29 0 58 -13 84 -34l3 27h114l-56 -545h-123l9 82c-61 -58 -115 -94 -168 -94zM190 97c40 0 115 60 145 86l26 240c-21 15 -45 26 -72 26c-86 0 -138 -150 -138 -276c0 -41 10 -76 39 -76zM301 625l-95 158h128
l72 -158h-105z" />
    <glyph glyph-name="uni1F71" unicode="&#x1f71;" horiz-adv-x="539" 
d="M267 626l90 158h124l-117 -157zM157 -12c-96 0 -129 69 -129 173c0 180 88 391 266 391c29 0 58 -13 84 -34l3 27h114l-56 -545h-123l9 82c-61 -58 -115 -94 -168 -94zM190 97c40 0 115 60 145 86l26 240c-21 15 -45 26 -72 26c-86 0 -138 -150 -138 -276
c0 -41 10 -76 39 -76z" />
    <glyph glyph-name="uni1F72" unicode="&#x1f72;" horiz-adv-x="452" 
d="M216 -12c-123 0 -194 57 -194 145c0 71 40 139 122 165c-44 15 -75 53 -75 100c0 86 75 162 219 162c73 0 124 -23 152 -41l-36 -83c-26 12 -70 26 -117 26c-64 0 -98 -22 -98 -70c0 -43 41 -53 68 -53h80l-10 -92h-76c-54 0 -101 -31 -101 -88c0 -48 37 -68 98 -68
c39 0 96 16 142 38l38 -91c-44 -23 -125 -50 -212 -50zM264 623l-95 158h128l72 -158h-105z" />
    <glyph glyph-name="uni1F73" unicode="&#x1f73;" horiz-adv-x="452" 
d="M222 616l90 158h124l-117 -157zM216 -12c-123 0 -194 57 -194 145c0 71 40 139 122 165c-44 15 -75 53 -75 100c0 86 75 162 219 162c73 0 124 -23 152 -41l-36 -83c-26 12 -70 26 -117 26c-64 0 -98 -22 -98 -70c0 -43 41 -53 68 -53h80l-10 -92h-76
c-54 0 -101 -31 -101 -88c0 -48 37 -68 98 -68c39 0 96 16 142 38l38 -91c-44 -23 -125 -50 -212 -50z" />
    <glyph glyph-name="uni1F74" unicode="&#x1f74;" horiz-adv-x="571" 
d="M321 -220l63 591c2 15 3 28 3 38c0 25 -6 34 -30 34c-38 0 -128 -55 -151 -68l-40 -375h-122l58 546h122l-7 -71c40 29 119 85 187 85c79 0 109 -26 109 -104c0 -18 -2 -39 -4 -62l-65 -614h-123zM278 623l-95 158h128l72 -158h-105z" />
    <glyph glyph-name="uni1F75" unicode="&#x1f75;" horiz-adv-x="571" 
d="M271 616l90 158h124l-117 -157zM321 -220l63 591c2 15 3 28 3 38c0 25 -6 34 -30 34c-38 0 -128 -55 -151 -68l-40 -375h-122l58 546h122l-7 -71c40 29 119 85 187 85c79 0 109 -26 109 -104c0 -18 -2 -39 -4 -62l-65 -614h-123z" />
    <glyph glyph-name="uni1F76" unicode="&#x1f76;" horiz-adv-x="272" 
d="M44 0l57 546h123l-57 -546h-123zM119 623l-95 158h128l72 -158h-105z" />
    <glyph glyph-name="uni1F77" unicode="&#x1f77;" horiz-adv-x="272" 
d="M111 616l90 158h124l-117 -157zM44 0l57 546h123l-57 -546h-123z" />
    <glyph glyph-name="uni1F78" unicode="&#x1f78;" horiz-adv-x="533" 
d="M217 -12c-121 0 -188 87 -188 204c0 215 109 367 289 367c126 0 187 -94 187 -200c0 -152 -65 -371 -288 -371zM239 90c69 0 142 96 142 263c0 81 -32 107 -88 107c-70 0 -138 -104 -138 -259c0 -60 21 -111 84 -111zM280 623l-95 158h128l72 -158h-105z" />
    <glyph glyph-name="uni1F79" unicode="&#x1f79;" horiz-adv-x="533" 
d="M243 618l90 158h124l-117 -157zM217 -12c-121 0 -188 87 -188 204c0 215 109 367 289 367c126 0 187 -94 187 -200c0 -152 -65 -371 -288 -371zM239 90c69 0 142 96 142 263c0 81 -32 107 -88 107c-70 0 -138 -104 -138 -259c0 -60 21 -111 84 -111z" />
    <glyph glyph-name="uni1F7A" unicode="&#x1f7a;" horiz-adv-x="552" 
d="M236 -12c-114 0 -187 43 -187 165c0 7 1 23 3 38l37 355h122l-36 -346c-1 -11 -2 -21 -2 -31c0 -57 25 -77 72 -77c45 0 99 18 110 121l35 333h122l-36 -334c-17 -167 -117 -224 -240 -224zM269 623l-95 158h128l72 -158h-105z" />
    <glyph glyph-name="uni1F7B" unicode="&#x1f7b;" horiz-adv-x="552" 
d="M254 626l90 158h124l-117 -157zM236 -12c-114 0 -187 43 -187 165c0 7 1 23 3 38l37 355h122l-36 -346c-1 -11 -2 -21 -2 -31c0 -57 25 -77 72 -77c45 0 99 18 110 121l35 333h122l-36 -334c-17 -167 -117 -224 -240 -224z" />
    <glyph glyph-name="uni1F7C" unicode="&#x1f7c;" horiz-adv-x="708" 
d="M183 -11c-90 0 -154 70 -154 196s32 248 165 361h123c-107 -89 -164 -220 -164 -350c0 -52 9 -100 58 -100c41 0 69 48 77 125l15 139h120l-12 -134c-1 -11 -3 -36 -3 -48c0 -53 16 -82 53 -82c83 0 91 158 91 216c0 91 -25 170 -81 234h129c46 -59 77 -137 77 -222
c0 -149 -50 -335 -223 -335c-48 0 -109 23 -122 93c-31 -67 -93 -93 -149 -93zM335 615l-95 158h128l72 -158h-105z" />
    <glyph glyph-name="uni1F7D" unicode="&#x1f7d;" horiz-adv-x="708" 
d="M340 626l90 158h124l-117 -157zM183 -11c-90 0 -154 70 -154 196s32 248 165 361h123c-107 -89 -164 -220 -164 -350c0 -52 9 -100 58 -100c41 0 69 48 77 125l15 139h120l-12 -134c-1 -11 -3 -36 -3 -48c0 -53 16 -82 53 -82c83 0 91 158 91 216c0 91 -25 170 -81 234
h129c46 -59 77 -137 77 -222c0 -149 -50 -335 -223 -335c-48 0 -109 23 -122 93c-31 -67 -93 -93 -149 -93z" />
    <glyph glyph-name="uni1F80" unicode="&#x1f80;" horiz-adv-x="539" 
d="M263 623c0 0 40 43 40 92c0 27 -6 49 -22 70h108c18 -25 25 -49 25 -70c0 -37 -20 -68 -46 -92h-105zM157 -12c-96 0 -129 69 -129 173c0 180 88 391 266 391c29 0 58 -13 84 -34l3 27h114l-56 -545h-123l9 82c-61 -58 -115 -94 -168 -94zM190 97c40 0 115 60 145 86
l26 240c-21 15 -45 26 -72 26c-86 0 -138 -150 -138 -276c0 -41 10 -76 39 -76zM230 -293c-56 0 -86 20 -86 77c0 33 11 71 24 133h95c-14 -68 -18 -81 -18 -95c0 -24 9 -34 38 -37h17l-12 -73c-24 -3 -42 -5 -58 -5z" />
    <glyph glyph-name="uni1F81" unicode="&#x1f81;" horiz-adv-x="539" 
d="M157 -12c-96 0 -129 69 -129 173c0 180 88 391 266 391c29 0 58 -13 84 -34l3 27h114l-56 -545h-123l9 82c-61 -58 -115 -94 -168 -94zM190 97c40 0 115 60 145 86l26 240c-21 15 -45 26 -72 26c-86 0 -138 -150 -138 -276c0 -41 10 -76 39 -76zM229 -293
c-56 0 -86 20 -86 77c0 33 11 71 24 133h95c-14 -68 -18 -81 -18 -95c0 -24 9 -34 38 -37h17l-12 -73c-24 -3 -42 -5 -58 -5zM299 623c-25 24 -45 55 -45 92c0 21 7 45 24 70h108c-15 -21 -21 -43 -21 -70c0 -49 39 -92 39 -92h-105z" />
    <glyph glyph-name="uni1F82" unicode="&#x1f82;" horiz-adv-x="539" 
d="M157 -12c-96 0 -129 69 -129 173c0 180 88 391 266 391c29 0 58 -13 84 -34l3 27h114l-56 -545h-123l9 82c-61 -58 -115 -94 -168 -94zM190 97c40 0 115 60 145 86l26 240c-21 15 -45 26 -72 26c-86 0 -138 -150 -138 -276c0 -41 10 -76 39 -76zM226 -293
c-56 0 -86 20 -86 77c0 33 11 71 24 133h95c-14 -68 -18 -81 -18 -95c0 -24 9 -34 38 -37h17l-12 -73c-24 -3 -42 -5 -58 -5zM150 622c0 0 40 43 40 92c0 27 -6 48 -22 70h108c18 -25 25 -49 25 -71c0 -37 -20 -68 -46 -91h-105zM407 623l-94 161h128l72 -161h-106z" />
    <glyph glyph-name="uni1F83" unicode="&#x1f83;" horiz-adv-x="539" 
d="M157 -12c-96 0 -129 69 -129 173c0 180 88 391 266 391c29 0 58 -13 84 -34l3 27h114l-56 -545h-123l9 82c-61 -58 -115 -94 -168 -94zM190 97c40 0 115 60 145 86l26 240c-21 15 -45 26 -72 26c-86 0 -138 -150 -138 -276c0 -41 10 -76 39 -76zM241 -293
c-56 0 -86 20 -86 77c0 33 11 71 24 133h95c-14 -68 -18 -81 -18 -95c0 -24 9 -34 38 -37h17l-12 -73c-24 -3 -42 -5 -58 -5zM201 622c-26 23 -46 54 -46 91c0 22 7 46 25 71h108c-16 -22 -22 -43 -22 -70c0 -49 40 -92 40 -92h-105zM398 623l-94 161h128l72 -161h-106z" />
    <glyph glyph-name="uni1F84" unicode="&#x1f84;" horiz-adv-x="539" 
d="M157 -12c-96 0 -129 69 -129 173c0 180 88 391 266 391c29 0 58 -13 84 -34l3 27h114l-56 -545h-123l9 82c-61 -58 -115 -94 -168 -94zM190 97c40 0 115 60 145 86l26 240c-21 15 -45 26 -72 26c-86 0 -138 -150 -138 -276c0 -41 10 -76 39 -76zM226 -293
c-56 0 -86 20 -86 77c0 33 11 71 24 133h95c-14 -68 -18 -81 -18 -95c0 -24 9 -34 38 -37h17l-12 -73c-24 -3 -42 -5 -58 -5zM198 622c0 0 40 43 40 92c0 27 -6 48 -22 70h108c18 -25 25 -49 25 -71c0 -37 -20 -68 -46 -91h-105zM348 623l72 161h127l-94 -161h-105z" />
    <glyph glyph-name="uni1F85" unicode="&#x1f85;" horiz-adv-x="539" 
d="M157 -12c-96 0 -129 69 -129 173c0 180 88 391 266 391c29 0 58 -13 84 -34l3 27h114l-56 -545h-123l9 82c-61 -58 -115 -94 -168 -94zM190 97c40 0 115 60 145 86l26 240c-21 15 -45 26 -72 26c-86 0 -138 -150 -138 -276c0 -41 10 -76 39 -76zM232 -293
c-56 0 -86 20 -86 77c0 33 11 71 24 133h95c-14 -68 -18 -81 -18 -95c0 -24 9 -34 38 -37h17l-12 -73c-24 -3 -42 -5 -58 -5zM229 622c-26 23 -46 54 -46 91c0 22 7 46 25 71h108c-16 -22 -22 -43 -22 -70c0 -49 40 -92 40 -92h-105zM354 623l72 161h128l-94 -161h-106z" />
    <glyph glyph-name="uni1F86" unicode="&#x1f86;" horiz-adv-x="539" 
d="M157 -12c-96 0 -129 69 -129 173c0 180 88 391 266 391c29 0 58 -13 84 -34l3 27h114l-56 -545h-123l9 82c-61 -58 -115 -94 -168 -94zM190 97c40 0 115 60 145 86l26 240c-21 15 -45 26 -72 26c-86 0 -138 -150 -138 -276c0 -41 10 -76 39 -76zM239 -293
c-56 0 -86 20 -86 77c0 33 11 71 24 133h95c-14 -68 -18 -81 -18 -95c0 -24 9 -34 38 -37h17l-12 -73c-24 -3 -42 -5 -58 -5zM418 814c-49 0 -94 37 -125 37c-30 0 -48 -9 -76 -28l-44 71c21 21 69 67 142 67c52 0 79 -37 111 -37s56 11 85 26l39 -69
c-17 -21 -63 -67 -132 -67zM270 618c0 0 42 43 45 92c3 27 -2 48 -16 70h108c16 -25 21 -49 20 -71c-3 -37 -26 -68 -52 -91h-105z" />
    <glyph glyph-name="uni1F87" unicode="&#x1f87;" horiz-adv-x="539" 
d="M157 -12c-96 0 -129 69 -129 173c0 180 88 391 266 391c29 0 58 -13 84 -34l3 27h114l-56 -545h-123l9 82c-61 -58 -115 -94 -168 -94zM190 97c40 0 115 60 145 86l26 240c-21 15 -45 26 -72 26c-86 0 -138 -150 -138 -276c0 -41 10 -76 39 -76zM234 -293
c-56 0 -86 20 -86 77c0 33 11 71 24 133h95c-14 -68 -18 -81 -18 -95c0 -24 9 -34 38 -37h17l-12 -73c-24 -3 -42 -5 -58 -5zM389 814c-49 0 -94 37 -125 37c-30 0 -48 -9 -76 -28l-44 71c21 21 69 67 142 67c52 0 79 -37 111 -37s56 11 85 26l39 -69
c-17 -21 -63 -67 -132 -67zM291 618c-24 23 -42 54 -39 91c1 22 10 46 30 71h108c-18 -22 -25 -43 -28 -70c-3 -49 34 -92 34 -92h-105z" />
    <glyph glyph-name="uni1F88" unicode="&#x1f88;" horiz-adv-x="647" 
d="M1 546c0 0 40 43 40 92c0 27 -6 49 -22 70h108c18 -25 25 -49 25 -70c0 -37 -20 -68 -46 -92h-105zM-54 0l352 707h167l158 -707h-130l-49 236h-256l-113 -236h-129zM235 331h189l-39 204l-14 98l-41 -98zM295 -293c-56 0 -86 20 -86 77c0 33 11 71 24 133h95
c-14 -68 -18 -81 -18 -95c0 -24 9 -34 38 -37h17l-12 -73c-24 -3 -42 -5 -58 -5z" />
    <glyph glyph-name="uni1F89" unicode="&#x1f89;" horiz-adv-x="647" 
d="M-54 0l352 707h167l158 -707h-130l-49 236h-256l-113 -236h-129zM235 331h189l-39 204l-14 98l-41 -98zM292 -293c-56 0 -86 20 -86 77c0 33 11 71 24 133h95c-14 -68 -18 -81 -18 -95c0 -24 9 -34 38 -37h17l-12 -73c-24 -3 -42 -5 -58 -5zM67 546c-25 24 -45 55 -45 92
c0 21 7 45 24 70h108c-15 -21 -21 -43 -21 -70c0 -49 39 -92 39 -92h-105z" />
    <glyph glyph-name="uni1F8A" unicode="&#x1f8a;" horiz-adv-x="647" 
d="M-54 0l352 707h167l158 -707h-130l-49 236h-256l-113 -236h-129zM235 331h189l-39 204l-14 98l-41 -98zM295 -293c-56 0 -86 20 -86 77c0 33 11 71 24 133h95c-14 -68 -18 -81 -18 -95c0 -24 9 -34 38 -37h17l-12 -73c-24 -3 -42 -5 -58 -5zM-196 545c0 0 40 43 40 92
c0 27 -6 48 -22 70h108c18 -25 25 -49 25 -71c0 -37 -20 -68 -46 -91h-105zM61 546l-94 161h128l72 -161h-106z" />
    <glyph glyph-name="uni1F8B" unicode="&#x1f8b;" horiz-adv-x="647" 
d="M-54 0l352 707h167l158 -707h-130l-49 236h-256l-113 -236h-129zM235 331h189l-39 204l-14 98l-41 -98zM294 -293c-56 0 -86 20 -86 77c0 33 11 71 24 133h95c-14 -68 -18 -81 -18 -95c0 -24 9 -34 38 -37h17l-12 -73c-24 -3 -42 -5 -58 -5zM-144 545
c-26 23 -46 54 -46 91c0 22 7 46 25 71h108c-16 -22 -22 -43 -22 -70c0 -49 40 -92 40 -92h-105zM53 546l-94 161h128l72 -161h-106z" />
    <glyph glyph-name="uni1F8C" unicode="&#x1f8c;" horiz-adv-x="647" 
d="M-54 0l352 707h167l158 -707h-130l-49 236h-256l-113 -236h-129zM235 331h189l-39 204l-14 98l-41 -98zM294 -293c-56 0 -86 20 -86 77c0 33 11 71 24 133h95c-14 -68 -18 -81 -18 -95c0 -24 9 -34 38 -37h17l-12 -73c-24 -3 -42 -5 -58 -5zM-154 545c0 0 40 43 40 92
c0 27 -6 48 -22 70h108c18 -25 25 -49 25 -71c0 -37 -20 -68 -46 -91h-105zM-4 546l72 161h127l-94 -161h-105z" />
    <glyph glyph-name="uni1F8D" unicode="&#x1f8d;" horiz-adv-x="647" 
d="M-54 0l352 707h167l158 -707h-130l-49 236h-256l-113 -236h-129zM235 331h189l-39 204l-14 98l-41 -98zM296 -299c-56 0 -86 20 -86 77c0 33 11 71 24 133h95c-14 -68 -18 -81 -18 -95c0 -24 9 -34 38 -37h17l-12 -73c-24 -3 -42 -5 -58 -5zM-122 545
c-26 23 -46 54 -46 91c0 22 7 46 25 71h108c-16 -22 -22 -43 -22 -70c0 -49 40 -92 40 -92h-105zM3 546l72 161h128l-94 -161h-106z" />
    <glyph glyph-name="uni1F8E" unicode="&#x1f8e;" horiz-adv-x="647" 
d="M-54 0l352 707h167l158 -707h-130l-49 236h-256l-113 -236h-129zM235 331h189l-39 204l-14 98l-41 -98zM295 -293c-56 0 -86 20 -86 77c0 33 11 71 24 133h95c-14 -68 -18 -81 -18 -95c0 -24 9 -34 38 -37h17l-12 -73c-24 -3 -42 -5 -58 -5zM41 590c-49 0 -94 37 -125 37
c-30 0 -48 -9 -76 -28l-44 71c21 21 69 67 142 67c52 0 79 -37 111 -37s56 11 85 26l39 -69c-17 -21 -63 -67 -132 -67zM-107 394c0 0 42 43 45 92c3 27 -2 48 -16 70h108c16 -25 21 -49 20 -71c-3 -37 -26 -68 -52 -91h-105z" />
    <glyph glyph-name="uni1F8F" unicode="&#x1f8f;" horiz-adv-x="647" 
d="M-54 0l352 707h167l158 -707h-130l-49 236h-256l-113 -236h-129zM235 331h189l-39 204l-14 98l-41 -98zM292 -293c-56 0 -86 20 -86 77c0 33 11 71 24 133h95c-14 -68 -18 -81 -18 -95c0 -24 9 -34 38 -37h17l-12 -73c-24 -3 -42 -5 -58 -5zM39 585c-49 0 -94 37 -125 37
c-30 0 -48 -9 -76 -28l-44 71c21 21 69 67 142 67c52 0 79 -37 111 -37s56 11 85 26l39 -69c-17 -21 -63 -67 -132 -67zM-59 389c-24 23 -42 54 -39 91c1 22 10 46 30 71h108c-18 -22 -25 -43 -28 -70c-3 -49 34 -92 34 -92h-105z" />
    <glyph glyph-name="uni1F90" unicode="&#x1f90;" horiz-adv-x="571" 
d="M288 623c0 0 40 43 40 92c0 27 -6 49 -22 70h108c18 -25 25 -49 25 -70c0 -37 -20 -68 -46 -92h-105zM321 -220l63 591c2 15 3 28 3 38c0 25 -6 34 -30 34c-38 0 -128 -55 -151 -68l-40 -375h-122l58 546h122l-7 -71c40 29 119 85 187 85c79 0 109 -26 109 -104
c0 -18 -2 -39 -4 -62l-65 -614h-123zM109 -293c-56 0 -86 20 -86 77c0 33 11 71 24 133h95c-14 -68 -18 -81 -18 -95c0 -24 9 -34 38 -37h17l-12 -73c-24 -3 -42 -5 -58 -5z" />
    <glyph glyph-name="uni1F91" unicode="&#x1f91;" horiz-adv-x="571" 
d="M321 -220l63 591c2 15 3 28 3 38c0 25 -6 34 -30 34c-38 0 -128 -55 -151 -68l-40 -375h-122l58 546h122l-7 -71c40 29 119 85 187 85c79 0 109 -26 109 -104c0 -18 -2 -39 -4 -62l-65 -614h-123zM109 -293c-56 0 -86 20 -86 77c0 33 11 71 24 133h95
c-14 -68 -18 -81 -18 -95c0 -24 9 -34 38 -37h17l-12 -73c-24 -3 -42 -5 -58 -5zM312 623c-25 24 -45 55 -45 92c0 21 7 45 24 70h108c-15 -21 -21 -43 -21 -70c0 -49 39 -92 39 -92h-105z" />
    <glyph glyph-name="uni1F92" unicode="&#x1f92;" horiz-adv-x="571" 
d="M321 -220l63 591c2 15 3 28 3 38c0 25 -6 34 -30 34c-38 0 -128 -55 -151 -68l-40 -375h-122l58 546h122l-7 -71c40 29 119 85 187 85c79 0 109 -26 109 -104c0 -18 -2 -39 -4 -62l-65 -614h-123zM140 622c0 0 40 43 40 92c0 27 -6 48 -22 70h108c18 -25 25 -49 25 -71
c0 -37 -20 -68 -46 -91h-105zM397 623l-94 161h128l72 -161h-106zM109 -293c-56 0 -86 20 -86 77c0 33 11 71 24 133h95c-14 -68 -18 -81 -18 -95c0 -24 9 -34 38 -37h17l-12 -73c-24 -3 -42 -5 -58 -5z" />
    <glyph glyph-name="uni1F93" unicode="&#x1f93;" horiz-adv-x="571" 
d="M321 -220l63 591c2 15 3 28 3 38c0 25 -6 34 -30 34c-38 0 -128 -55 -151 -68l-40 -375h-122l58 546h122l-7 -71c40 29 119 85 187 85c79 0 109 -26 109 -104c0 -18 -2 -39 -4 -62l-65 -614h-123zM193 622c-26 23 -46 54 -46 91c0 22 7 46 25 71h108
c-16 -22 -22 -43 -22 -70c0 -49 40 -92 40 -92h-105zM390 623l-94 161h128l72 -161h-106zM106 -293c-56 0 -86 20 -86 77c0 33 11 71 24 133h95c-14 -68 -18 -81 -18 -95c0 -24 9 -34 38 -37h17l-12 -73c-24 -3 -42 -5 -58 -5z" />
    <glyph glyph-name="uni1F94" unicode="&#x1f94;" horiz-adv-x="571" 
d="M321 -220l63 591c2 15 3 28 3 38c0 25 -6 34 -30 34c-38 0 -128 -55 -151 -68l-40 -375h-122l58 546h122l-7 -71c40 29 119 85 187 85c79 0 109 -26 109 -104c0 -18 -2 -39 -4 -62l-65 -614h-123zM187 622c0 0 40 43 40 92c0 27 -6 48 -22 70h108c18 -25 25 -49 25 -71
c0 -37 -20 -68 -46 -91h-105zM337 623l72 161h127l-94 -161h-105zM106 -301c-56 0 -86 20 -86 77c0 33 11 71 24 133h95c-14 -68 -18 -81 -18 -95c0 -24 9 -34 38 -37h17l-12 -73c-24 -3 -42 -5 -58 -5z" />
    <glyph glyph-name="uni1F95" unicode="&#x1f95;" horiz-adv-x="571" 
d="M321 -220l63 591c2 15 3 28 3 38c0 25 -6 34 -30 34c-38 0 -128 -55 -151 -68l-40 -375h-122l58 546h122l-7 -71c40 29 119 85 187 85c79 0 109 -26 109 -104c0 -18 -2 -39 -4 -62l-65 -614h-123zM228 622c-26 23 -46 54 -46 91c0 22 7 46 25 71h108
c-16 -22 -22 -43 -22 -70c0 -49 40 -92 40 -92h-105zM353 623l72 161h128l-94 -161h-106zM107 -293c-56 0 -86 20 -86 77c0 33 11 71 24 133h95c-14 -68 -18 -81 -18 -95c0 -24 9 -34 38 -37h17l-12 -73c-24 -3 -42 -5 -58 -5z" />
    </font>
</defs>
</svg>
