<?xml version="1.0" standalone="no"?>
<!DOCTYPE svg PUBLIC "-//W3C//DTD SVG 1.1//EN" "http://www.w3.org/Graphics/SVG/1.1/DTD/svg11.dtd" >
<svg>
<metadata>
Created by FontForge 20090914 at Fri Oct 28 12:15:05 2016
 By www-data
The digitally encoded machine readable software for producing the Typefaces licensed to you is copyrighted (c) 2005 Typotheque (Peter Bilak, Graphic and Type design). All rights reserved.
</metadata>
<defs>
<font id="FedraSansPro-Bold" horiz-adv-x="559" >
  <font-face 
    font-family="Fedra Sans Pro Bold"
    font-weight="700"
    font-stretch="normal"
    units-per-em="1000"
    panose-1="2 11 8 4 4 0 0 2 0 4"
    ascent="780"
    descent="-220"
    x-height="546"
    cap-height="707"
    bbox="-466 -292.929 1527 998"
    underline-thickness="50"
    underline-position="-50"
    stemh="20"
    stemv="167"
    unicode-range="U+0020-U+FB04"
  />
<missing-glyph horiz-adv-x="1000" 
 />
    <glyph glyph-name="f_k" unicode="fk" horiz-adv-x="966" 
d="M934 -12c-87 4 -162 14 -232 107l-98 129v-224h-167v635c-40 0 -67 5 -125 5c-39 0 -59 -11 -59 -65v-29h116v-112h-117v-624h-166v624h-80v112h80v29c0 158 108 210 228 210c44 0 77 -5 119 -6c57 -1 115 4 171 11v-449l152 204h179l-199 -251l78 -89
c38 -43 70 -73 139 -91z" />
    <glyph glyph-name="f_h" unicode="fh" horiz-adv-x="1034" 
d="M86 -189v623h-80v112h80v29c0 158 108 210 228 210c44 0 77 -5 119 -6c57 -1 114 4 171 11v-299c33 25 106 71 179 71c171 0 183 -95 183 -219v-343h-166v329c0 75 -17 88 -73 88c-50 0 -96 -17 -123 -30v-387h-167v635c-40 0 -67 5 -125 5c-39 0 -59 -11 -59 -65v-29
h116v-112h-117v-623h-166z" />
    <glyph glyph-name="f_j" unicode="fj" horiz-adv-x="679" 
d="M377 -220c-40 0 -62 7 -108 18l31 133s47 -10 79 -10c42 0 59 14 59 80c1 1 0 433 0 433h-186v-623h-166v623h-80v112h80v27c0 158 108 210 228 210c44 0 77 -5 119 -6c40 0 110 3 152 8l26 -126c-60 -20 -133 -26 -173 -26s-68 5 -126 5c-39 0 -59 -11 -59 -65v-27h352
v-544c0 -190 -104 -222 -228 -222z" />
    <glyph glyph-name="f_f_j" unicode="ffj" horiz-adv-x="1031" 
d="M735 -220c-39 0 -76 7 -109 19l31 129s42 -7 73 -7c42 0 59 14 60 79v431h-185v-620h-167v620h-185v-620h-167v620h-80v115h81v28c0 169 106 208 220 208c92 0 173 -19 213 -34c41 26 92 37 146 37c44 0 77 -5 120 -6c39 0 109 3 151 8l26 -126
c-60 -20 -132 -26 -172 -26c-41 -1 -69 5 -127 5c-39 0 -59 -11 -59 -65v-29h352l-1 -546c-1 -188 -106 -220 -221 -220zM253 546h186v29c0 19 1 37 4 53c-41 9 -72 12 -131 12c-41 0 -59 -23 -59 -66v-28z" />
    <glyph glyph-name="aogonek_j" unicode="&#x105;j" horiz-adv-x="933" 
d="M509 -262c-118 0 -166 63 -166 123c0 58 29 102 84 139c-18 9 -39 35 -44 53c-40 -31 -97 -61 -157 -61c-120 0 -188 53 -188 162c0 138 126 161 234 161h95v47c0 48 -31 56 -99 56c-54 0 -112 -12 -163 -24l-33 121c64 24 134 44 221 44c115 0 237 -7 237 -165v-249
c0 -18 18 -22 49 -23l-8 -127c-45 -30 -81 -54 -81 -92c0 -18 19 -32 46 -32c86 0 162 65 162 140v535h166v-534c0 -171 -150 -274 -355 -274zM246 122c32 0 85 7 121 17v79l-82 -2c-86 -2 -84 -29 -84 -53c0 -28 14 -41 45 -41zM779 604l-111 112l111 111l112 -111z" />
    <glyph glyph-name="f_f" unicode="ff" horiz-adv-x="738" 
d="M86 -189v621h-80v114h81v28c0 169 106 208 220 208c86 0 163 -17 206 -31c40 25 92 31 146 31c40 0 90 -8 129 -21l-32 -129s-45 8 -92 8c-41 0 -59 -23 -59 -66v-28h117v-114h-117v-621h-167v621h-185v-621h-167zM253 546h185v38c0 16 1 31 3 45c-40 8 -71 11 -129 11
c-41 0 -59 -23 -59 -66v-28z" />
    <glyph glyph-name="fi" unicode="fi" horiz-adv-x="679" 
d="M86 -189v620h-80v115h80v26c0 158 108 210 228 210c44 0 77 -5 119 -6c40 0 110 3 152 8l26 -126c-60 -20 -133 -26 -173 -26s-68 5 -126 5c-39 0 -59 -11 -59 -65v-26h351v-545h-167v430h-185v-620h-166z" />
    <glyph glyph-name="fl" unicode="fl" horiz-adv-x="679" 
d="M86 -190v621h-80v115h80v26c0 158 108 210 228 210c44 0 77 -5 119 -6c57 -1 114 4 171 11v-787h-167v632c-40 0 -67 5 -125 5c-39 0 -59 -11 -59 -65v-26h116v-115h-117v-621h-166z" />
    <glyph glyph-name="f_f_i" unicode="ffi" horiz-adv-x="1031" 
d="M86 -189v620h-80v115h81v28c0 169 106 208 220 208c92 0 173 -19 213 -34c41 26 92 37 146 37c44 0 77 -5 120 -6c39 0 109 3 151 8l26 -126c-60 -20 -132 -26 -172 -26c-41 -1 -69 5 -127 5c-39 0 -59 -11 -59 -65v-29h352v-546h-167v431h-185v-620h-167v620h-185v-620
h-167zM253 546h186v29c0 19 1 37 4 53c-41 9 -72 12 -131 12c-41 0 -59 -23 -59 -66v-28z" />
    <glyph glyph-name="f_f_l" unicode="ffl" horiz-adv-x="1025" 
d="M86 -190v622h-80v114h81v28c0 169 106 208 220 208c92 0 173 -19 213 -34c41 26 92 37 146 37c44 0 77 -5 120 -6c57 -1 114 4 171 11v-790h-167v635c-40 0 -68 5 -126 5c-39 0 -59 -11 -59 -65v-29h116v-114h-116v-622h-167v622h-185v-622h-167zM253 546h186v29
c0 19 1 37 4 53c-41 9 -72 12 -131 12c-41 0 -59 -23 -59 -66v-28z" />
    <glyph glyph-name=".notdef" horiz-adv-x="1000" 
 />
    <glyph glyph-name="space" unicode=" " horiz-adv-x="250" 
 />
    <glyph glyph-name="exclam" unicode="!" horiz-adv-x="324" 
d="M89 220l-10 193v294h167v-294l-10 -193h-147zM78 0v147h168v-147h-168z" />
    <glyph glyph-name="quotedbl" unicode="&#x22;" horiz-adv-x="477" 
d="M59 515l-11 240h160l-11 -240h-138zM280 515l-11 239h160l-11 -239h-138z" />
    <glyph glyph-name="numbersign" unicode="#" horiz-adv-x="660" 
d="M96 0l6 103h-85v128h94l5 88h-99v129h110l7 119h155l-8 -119h115l7 119h155l-8 -119h82v-129h-91l-6 -88h97v-128h-105l-6 -103h-155l6 103h-115l-6 -103h-155zM265 231h116l5 88h-115z" />
    <glyph glyph-name="dollar" unicode="$" horiz-adv-x="554" 
d="M219 -99l2 91c-82 1 -129 10 -182 34l43 118c67 -20 104 -26 170 -26c74 0 95 19 95 39c0 33 -61 45 -128 67c-79 26 -165 67 -165 173c0 88 79 132 167 147l-2 116h116l-2 -111c57 -2 91 -9 154 -32l-35 -113c-57 14 -99 21 -159 21s-67 -16 -67 -28
c0 -28 51 -44 110 -65c85 -30 188 -70 188 -170s-89 -149 -191 -165l3 -96h-117z" />
    <glyph glyph-name="percent" unicode="%" horiz-adv-x="861" 
d="M217 352c-98 0 -187 48 -187 176c0 117 89 186 190 186c98 0 191 -46 191 -179c0 -119 -91 -183 -194 -183zM217 466c29 0 55 19 55 69c0 49 -20 65 -52 65c-23 0 -51 -12 -51 -72c0 -49 18 -62 48 -62zM637 -11c-98 0 -187 47 -187 175c0 118 89 186 190 186
c98 0 191 -46 191 -179c0 -119 -91 -182 -194 -182zM637 103c29 0 55 18 55 68c0 49 -20 65 -52 65c-23 0 -51 -12 -51 -72c0 -49 18 -61 48 -61zM178 37l-87 90l582 531l87 -90z" />
    <glyph glyph-name="ampersand" unicode="&#x26;" horiz-adv-x="725" 
d="M275 -10c-109 0 -237 28 -237 194c0 80 65 141 134 183c-28 61 -45 109 -45 164c0 74 52 185 200 185c143 0 207 -81 207 -166c0 -104 -88 -152 -192 -209c84 -117 238 -196 381 -219l-18 -129c-92 4 -179 28 -255 68c-47 -44 -96 -71 -175 -71zM276 123c21 0 39 5 59 14
c-48 37 -75 71 -104 113c-19 -21 -31 -40 -31 -59c0 -36 27 -68 76 -68zM288 444c48 28 107 60 107 94c0 33 -25 58 -65 58c-33 0 -59 -25 -59 -59c0 -30 9 -66 17 -93z" />
    <glyph glyph-name="quotesingle" unicode="'" horiz-adv-x="266" 
d="M59 515l-11 240h170l-11 -240h-148z" />
    <glyph glyph-name="parenleft" unicode="(" horiz-adv-x="402" 
d="M296 -225c0 0 -256 170 -256 509c0 343 258 486 258 486l104 -108s-195 -126 -195 -377c0 -255 193 -403 193 -403z" />
    <glyph glyph-name="parenright" unicode=")" horiz-adv-x="402" 
d="M106 -225l-104 107s193 148 193 403c0 251 -195 377 -195 377l104 108s258 -143 258 -486c0 -339 -256 -509 -256 -509z" />
    <glyph glyph-name="asterisk" unicode="*" horiz-adv-x="425" 
d="M91 445l-54 98l97 35l38 -67zM136 587l-99 39l55 98l83 -68zM164 403l15 99h85l13 -99h-113zM180 662l-13 99h113l-15 -99h-85zM355 440l-83 68l39 69l99 -39zM310 587l-38 67l81 66l54 -98z" />
    <glyph glyph-name="plus" unicode="+" horiz-adv-x="600" 
d="M237 45l1 199l-199 -2v126l199 -4l-1 201h126l-6 -204l206 7v-126l-203 2l3 -199h-126z" />
    <glyph glyph-name="comma" unicode="," horiz-adv-x="360" 
d="M64 -134c22 45 30 128 30 177v120h174v-78c0 -82 -21 -163 -59 -219h-145z" />
    <glyph glyph-name="hyphen" unicode="-" horiz-adv-x="374" 
d="M37 220v133h298v-133h-298z" />
    <glyph glyph-name="hyphen" unicode="&#xad;" horiz-adv-x="374" 
d="M37 220v133h298v-133h-298z" />
    <glyph glyph-name="period" unicode="." horiz-adv-x="360" 
d="M91 0v162h185v-162h-185z" />
    <glyph glyph-name="slash" unicode="/" horiz-adv-x="460" 
d="M40 -62l233 831h147l-233 -831h-147z" />
    <glyph glyph-name="zero" unicode="0" horiz-adv-x="682" 
d="M335 -12c-200 0 -292 93 -292 278c0 180 99 294 309 294c209 0 287 -116 287 -274c0 -203 -115 -298 -304 -298zM340 125c76 0 130 50 130 156c0 91 -39 142 -124 142c-88 0 -134 -56 -134 -154c0 -104 57 -144 128 -144z" />
    <glyph glyph-name="one" unicode="1" horiz-adv-x="407" 
d="M160 0v418h-142v131l309 9v-558h-167z" />
    <glyph glyph-name="two" unicode="2" horiz-adv-x="566" 
d="M45 0v137c66 47 280 160 280 228c0 47 -42 60 -99 60c-49 0 -105 -15 -134 -26l-38 120c31 17 111 41 179 41c208 0 255 -101 255 -192c0 -121 -155 -201 -236 -235h264v-133h-471z" />
    <glyph glyph-name="three" unicode="3" horiz-adv-x="516" 
d="M197 -170c-129 0 -191 28 -191 28l30 134c43 -11 90 -22 151 -22c80 0 117 22 117 79c0 68 -34 91 -134 100c-13 1 -27 1 -43 1v113c13 1 24 1 35 2c81 6 111 27 111 88c0 51 -52 68 -106 68c-39 0 -80 -9 -102 -19l-38 117c60 29 107 39 175 39c124 0 235 -56 235 -182
c0 -98 -53 -133 -93 -154c74 -30 129 -84 129 -175c0 -163 -137 -217 -276 -217z" />
    <glyph glyph-name="four" unicode="4" horiz-adv-x="620" 
d="M322 -163v193h-314v107l230 408h250v-383h94v-132h-94v-193h-166zM162 162h160v293z" />
    <glyph glyph-name="five" unicode="5" horiz-adv-x="561" 
d="M250 -174c-76 0 -156 9 -204 26l40 133c67 -16 95 -20 163 -20c73 0 114 38 114 89c0 69 -44 96 -115 96c-47 0 -122 -4 -177 -9v403h421v-132h-260v-135c18 1 31 1 47 1c153 0 251 -75 251 -214c0 -153 -122 -238 -280 -238z" />
    <glyph glyph-name="six" unicode="6" horiz-adv-x="622" 
d="M312 -12c-180 0 -281 97 -281 319c0 273 134 407 344 407c53 0 114 -9 154 -24l-37 -128c-35 9 -79 14 -119 14c-85 0 -135 -43 -159 -127c32 10 63 16 108 16c158 0 257 -62 257 -226c0 -161 -124 -251 -267 -251zM307 339c-44 0 -80 -8 -109 -17v-21
c0 -139 31 -179 121 -179c55 0 93 42 93 107c0 81 -42 110 -105 110z" />
    <glyph glyph-name="seven" unicode="7" horiz-adv-x="521" 
d="M178 -191l-146 47l292 540h-308v148h477v-109z" />
    <glyph glyph-name="eight" unicode="8" horiz-adv-x="613" 
d="M303 -12c-146 0 -265 52 -265 190c0 99 60 154 130 192c-59 39 -105 88 -105 162c0 132 111 182 250 182c145 0 242 -73 242 -171c0 -82 -58 -132 -126 -171c76 -40 146 -91 146 -181c0 -143 -118 -203 -272 -203zM309 111c82 0 100 51 100 90c0 42 -52 72 -115 105
c-54 -29 -95 -61 -95 -105c0 -36 17 -90 110 -90zM303 429c49 24 85 49 85 89c0 47 -26 74 -77 74c-66 0 -86 -36 -86 -75c0 -37 32 -63 78 -88z" />
    <glyph glyph-name="nine" unicode="9" horiz-adv-x="622" 
d="M247 -166c-53 0 -114 9 -154 24l37 128c35 -9 79 -14 119 -14c86 0 137 48 160 137c-32 -10 -64 -16 -109 -16c-158 0 -257 56 -257 220c0 161 124 247 267 247c180 0 281 -97 281 -319c0 -273 -134 -407 -344 -407zM315 219c44 0 80 7 109 16v18c0 139 -31 173 -121 173
c-55 0 -93 -38 -93 -103c0 -81 42 -104 105 -104z" />
    <glyph glyph-name="colon" unicode=":" horiz-adv-x="360" 
d="M85 0v162h185v-162h-185zM85 384v162h185v-162h-185z" />
    <glyph glyph-name="semicolon" unicode=";" horiz-adv-x="360" 
d="M54 -134c34 62 35 126 35 147v150h184v-108c0 -69 -27 -139 -69 -189h-150zM89 384v162h185v-162h-185z" />
    <glyph glyph-name="less" unicode="&#x3c;" horiz-adv-x="600" 
d="M512 47l-424 191v131l424 201v-139l-285 -128l285 -117v-139z" />
    <glyph glyph-name="equal" unicode="=" horiz-adv-x="600" 
d="M69 113l-2 126h454l2 -126h-454zM69 364l-2 126h454l2 -126h-454z" />
    <glyph glyph-name="greater" unicode="&#x3e;" horiz-adv-x="600" 
d="M88 47v139l285 117l-285 128v139l424 -201v-131z" />
    <glyph glyph-name="question" unicode="?" horiz-adv-x="415" 
d="M93 185c-17 37 -20 62 -20 89c0 124 130 177 130 220c0 41 -13 68 -155 79l30 137c162 -11 299 -52 299 -211c0 -126 -159 -181 -159 -237c0 -13 -1 -30 9 -55zM90 0v147h167v-147h-167z" />
    <glyph glyph-name="at" unicode="@" horiz-adv-x="798" 
d="M370 -74c-237 0 -355 89 -355 342c0 326 211 449 456 449c183 0 298 -94 298 -300c0 -173 -104 -279 -252 -279c-62 0 -99 27 -104 54c-17 -26 -55 -51 -84 -51c-73 0 -122 29 -122 142s79 209 211 209c41 0 78 -1 145 -26l-20 -169c-2 -13 -2 -36 21 -36
c24 0 69 53 69 158c0 129 -59 179 -170 179c-160 0 -310 -91 -310 -326c0 -162 89 -221 226 -221c48 0 94 4 171 13l15 -111c-86 -23 -123 -27 -195 -27zM370 256c26 0 26 5 38 9l18 132h-5c-39 0 -72 -38 -72 -101c0 -13 1 -40 21 -40z" />
    <glyph glyph-name="A" unicode="A" horiz-adv-x="751" 
d="M11 0l272 707h219l238 -707h-176l-67 207h-239l-77 -207h-170zM303 330h154l-71 272z" />
    <glyph glyph-name="B" unicode="B" horiz-adv-x="678" 
d="M78 0v707h248c173 0 263 -62 263 -195c0 -59 -35 -103 -71 -126v-2c48 -17 122 -69 122 -166c0 -129 -76 -218 -284 -218h-278zM249 133h86c90 0 135 24 135 81c0 64 -49 87 -147 87h-74v-168zM249 417h61c74 0 111 13 111 76c0 60 -40 84 -120 84h-52v-160z" />
    <glyph glyph-name="C" unicode="C" horiz-adv-x="686" 
d="M435 -10c-259 0 -392 127 -392 359c0 246 131 368 388 368c105 0 167 -19 220 -43l-45 -123c-67 18 -95 25 -173 26c-128 2 -217 -70 -217 -218s94 -227 237 -227c69 0 110 6 164 20l36 -128c-68 -25 -127 -34 -218 -34z" />
    <glyph glyph-name="D" unicode="D" horiz-adv-x="787" 
d="M78 0v707h253c245 0 413 -105 413 -351c0 -245 -152 -356 -407 -356h-259zM247 133h101c163 0 226 74 226 213c0 152 -76 228 -246 228h-81v-441z" />
    <glyph glyph-name="E" unicode="E" horiz-adv-x="613" 
d="M78 0v707h464v-133h-294v-157h272v-124h-272v-160h317v-133h-487z" />
    <glyph glyph-name="F" unicode="F" horiz-adv-x="610" 
d="M78 0v707h494v-133h-324v-175h302v-123h-302v-276h-170z" />
    <glyph glyph-name="G" unicode="G" horiz-adv-x="734" 
d="M431 -10c-235 0 -388 114 -388 359c0 256 139 368 396 368c100 0 156 -20 212 -43l-45 -123c-67 17 -98 26 -170 26c-126 0 -220 -62 -220 -218s104 -227 233 -227c16 0 31 1 45 1v217h170v-319c-80 -31 -147 -41 -233 -41z" />
    <glyph glyph-name="H" unicode="H" horiz-adv-x="796" 
d="M78 0v707h170v-287h300v287h170v-707h-170v291h-300v-291h-170z" />
    <glyph glyph-name="I" unicode="I" horiz-adv-x="326" 
d="M78 0v707h170v-707h-170z" />
    <glyph glyph-name="J" unicode="J" horiz-adv-x="326" 
d="M-6 -198l-61 122c119 66 145 109 145 227v556h171v-554c0 -142 -21 -275 -255 -351z" />
    <glyph glyph-name="K" unicode="K" horiz-adv-x="731" 
d="M78 0v707h170v-303l242 303h217l-286 -331l302 -376h-217l-258 355v-355h-170z" />
    <glyph glyph-name="L" unicode="L" horiz-adv-x="573" 
d="M78 0v707h170v-573h307v-134h-477z" />
    <glyph glyph-name="M" unicode="M" horiz-adv-x="983" 
d="M78 0v707h207l197 -555l226 555h197v-707h-170v263l5 166l-168 -429h-190l-145 441l11 -178v-263h-170z" />
    <glyph glyph-name="N" unicode="N" horiz-adv-x="796" 
d="M78 0v707h197l278 -485l-5 79v406h170v-707h-203l-271 473l4 -94v-379h-170z" />
    <glyph glyph-name="O" unicode="O" horiz-adv-x="843" 
d="M413 -12c-248 0 -370 140 -370 367c0 223 148 363 389 363c257 0 368 -154 368 -365c0 -225 -135 -365 -387 -365zM416 122c156 0 211 100 211 232s-61 230 -204 230c-150 0 -208 -98 -208 -228c0 -129 57 -234 201 -234z" />
    <glyph glyph-name="P" unicode="P" horiz-adv-x="644" 
d="M78 0v707h275c159 0 273 -93 273 -251c0 -139 -114 -256 -325 -256h-52v-200h-171zM249 574v-243h58c106 0 144 55 144 121c0 71 -29 122 -120 122h-82z" />
    <glyph glyph-name="Q" unicode="Q" horiz-adv-x="843" 
d="M789 -192c-57 0 -145 -1 -196 12c-74 16 -124 30 -188 30v117c115 0 171 -21 226 -31c44 -8 100 -10 158 -10v-118zM413 -12c-248 0 -370 140 -370 367c0 223 148 363 389 363c257 0 368 -154 368 -365c0 -225 -135 -365 -387 -365zM416 122c156 0 211 100 211 232
s-61 230 -204 230c-150 0 -208 -98 -208 -228c0 -129 57 -234 201 -234z" />
    <glyph glyph-name="R" unicode="R" horiz-adv-x="752" 
d="M706 -13c-138 7 -213 79 -287 165l-80 93c-12 -1 -25 -1 -38 -1h-52v-244h-171v707h275c159 0 273 -73 273 -231c0 -79 -38 -148 -114 -191l72 -78c39 -42 83 -70 160 -90zM249 363h58c101 0 144 42 144 109c0 71 -29 101 -120 101h-82v-210z" />
    <glyph glyph-name="S" unicode="S" horiz-adv-x="597" 
d="M265 -11c-116 0 -184 21 -237 50l48 122c63 -22 109 -32 187 -32c85 0 124 26 124 69c0 115 -336 84 -336 324c0 136 129 195 254 195c112 0 166 -24 221 -48l-49 -118c-52 15 -95 29 -167 29c-71 0 -93 -27 -93 -57c0 -94 342 -94 342 -319c0 -155 -148 -215 -294 -215z
" />
    <glyph glyph-name="T" unicode="T" horiz-adv-x="630" 
d="M230 0v574h-222v133h614v-133h-222v-574h-170z" />
    <glyph glyph-name="U" unicode="U" horiz-adv-x="799" 
d="M402 -13c-163 0 -329 72 -329 301v419h172v-413c0 -108 49 -168 157 -168c107 0 157 63 157 189v392h167v-395c0 -247 -166 -325 -324 -325z" />
    <glyph glyph-name="V" unicode="V" horiz-adv-x="741" 
d="M244 0l-241 707h179l175 -580l208 580h173l-275 -707h-219z" />
    <glyph glyph-name="W" unicode="W" horiz-adv-x="1061" 
d="M166 0l-152 707h165l110 -599l164 427l-60 172h169l185 -593l138 593h162l-194 -707h-214l-122 362l-132 -362h-219z" />
    <glyph glyph-name="X" unicode="X" horiz-adv-x="695" 
d="M8 0l253 362l-225 345h195l128 -217l138 217h190l-238 -342l238 -365h-196l-141 238l-152 -238h-190z" />
    <glyph glyph-name="Y" unicode="Y" horiz-adv-x="709" 
d="M261 0v227l-261 480h196l156 -337l166 337h191l-278 -474v-233h-170z" />
    <glyph glyph-name="Z" unicode="Z" horiz-adv-x="611" 
d="M28 0v114l325 452h-299v141h508v-108l-329 -458h350v-141h-555z" />
    <glyph glyph-name="bracketleft" unicode="[" horiz-adv-x="363" 
d="M63 -220v974h267v-138h-100v-698h100v-138h-267z" />
    <glyph glyph-name="backslash" unicode="\" horiz-adv-x="460" 
d="M273 -62l-233 831h147l233 -831h-147z" />
    <glyph glyph-name="bracketright" unicode="]" horiz-adv-x="363" 
d="M63 -220v138h100v698h-100v138h267v-974h-267z" />
    <glyph glyph-name="asciicircum" unicode="^" horiz-adv-x="558" 
d="M23 294l172 413h182l161 -413h-158l-96 286l-106 -286h-155z" />
    <glyph glyph-name="underscore" unicode="_" horiz-adv-x="516" 
d="M0 -199v133h516v-133h-516z" />
    <glyph glyph-name="grave" unicode="`" horiz-adv-x="584" 
d="M398 602l-244 104l54 117l238 -121z" />
    <glyph glyph-name="a" unicode="a" horiz-adv-x="627" 
d="M226 -9c-120 0 -188 56 -188 165c0 138 126 166 234 166h95v34c0 48 -31 62 -99 62c-54 0 -112 -12 -163 -24l-33 121c62 24 134 44 221 44c169 0 237 -48 237 -171v-243c0 -18 18 -22 49 -23l-6 -126c-13 -1 -26 -1 -39 -1c-66 0 -136 11 -151 58
c-40 -31 -97 -62 -157 -62zM261 120c32 0 70 9 106 19v86l-82 -2c-49 -1 -85 -17 -85 -57c0 -32 31 -46 61 -46z" />
    <glyph glyph-name="b" unicode="b" horiz-adv-x="624" 
d="M301 -11c-113 0 -172 16 -233 36v729h166v-211c39 12 83 19 111 19c164 0 262 -68 262 -260c0 -236 -148 -313 -306 -313zM315 438c-31 0 -59 -6 -81 -13v-295c19 -4 43 -11 70 -11c85 0 133 80 133 182c0 103 -33 137 -122 137z" />
    <glyph glyph-name="c" unicode="c" horiz-adv-x="537" 
d="M356 -11c-231 0 -318 85 -318 289c0 170 114 282 299 282c80 0 131 -15 174 -38l-43 -121c-44 17 -68 23 -124 23c-69 0 -135 -31 -135 -148c0 -105 25 -154 156 -154c46 0 71 6 116 14l23 -127c-59 -13 -87 -20 -148 -20z" />
    <glyph glyph-name="d" unicode="d" horiz-adv-x="642" 
d="M283 -8c-110 0 -245 53 -245 290c0 187 131 278 297 278c30 0 55 -4 72 -6v200h167v-754h-167v39c-24 -19 -55 -47 -124 -47zM316 130c30 0 66 8 91 18v273c-17 3 -39 7 -69 7c-95 0 -134 -54 -134 -149c0 -119 53 -149 112 -149z" />
    <glyph glyph-name="e" unicode="e" horiz-adv-x="596" 
d="M334 -12c-180 0 -296 59 -296 277c0 223 117 294 282 294c172 0 238 -112 238 -277v-60h-354c-1 -86 67 -102 154 -102c37 0 99 12 156 22l25 -127c-61 -18 -139 -27 -205 -27zM209 329h178c2 66 -27 112 -81 112c-57 0 -94 -40 -97 -112z" />
    <glyph glyph-name="f" unicode="f" horiz-adv-x="386" 
d="M86 -190v621h-80v115h80v31c0 169 103 204 217 204c40 0 65 -5 98 -15l-26 -131c-20 3 -37 4 -64 4c-41 0 -58 -29 -58 -72v-21h117v-115h-117v-621h-167z" />
    <glyph glyph-name="g" unicode="g" horiz-adv-x="642" 
d="M302 -221c-85 0 -163 16 -226 33l26 131c67 -14 138 -24 178 -24c80 0 128 10 128 89v11c-23 -16 -57 -28 -89 -28c-132 0 -281 30 -281 279c0 187 138 290 303 290c81 0 144 -10 233 -28v-537c0 -160 -152 -216 -272 -216zM328 118c28 0 52 1 79 9v286
c-18 5 -39 10 -67 10c-95 0 -136 -59 -136 -153c0 -118 50 -152 124 -152z" />
    <glyph glyph-name="h" unicode="h" horiz-adv-x="664" 
d="M68 0v754h167v-263c33 25 105 71 178 71c171 0 183 -95 183 -219v-343h-166v329c0 75 -17 88 -73 88c-50 0 -95 -17 -122 -30v-387h-167z" />
    <glyph glyph-name="i" unicode="i" horiz-adv-x="303" 
d="M69 0v546h166v-546h-166zM151 604l-111 112l111 111l112 -111z" />
    <glyph glyph-name="j" unicode="j" horiz-adv-x="303" 
d="M14 -220c-39 0 -95 11 -128 23l31 129s61 -11 92 -11c43 0 60 14 60 82v543h166v-544c0 -190 -105 -222 -221 -222zM149 604l-111 112l111 111l112 -111z" />
    <glyph glyph-name="k" unicode="k" horiz-adv-x="596" 
d="M68 0v754h167v-412l151 203h179l-199 -251l78 -89c38 -43 70 -73 139 -91l-19 -126c-87 4 -162 14 -232 107l-97 127v-222h-167z" />
    <glyph glyph-name="l" unicode="l" horiz-adv-x="303" 
d="M68 0v754h167v-754h-167z" />
    <glyph glyph-name="m" unicode="m" horiz-adv-x="996" 
d="M68 0v546h167v-55c46 35 112 70 177 70c78 0 131 -32 153 -83c42 38 117 83 188 83c178 0 175 -127 175 -219v-342h-167v328c0 67 -17 88 -69 88c-36 0 -82 -15 -113 -31c2 -14 2 -28 2 -42v-343h-166v328c0 75 -18 86 -68 86c-37 0 -82 -11 -112 -27v-387h-167z" />
    <glyph glyph-name="n" unicode="n" horiz-adv-x="664" 
d="M68 0v546h167v-55c33 25 105 69 178 69c171 0 183 -94 183 -218v-342h-166v328c0 75 -17 88 -73 88c-50 0 -95 -16 -122 -29v-387h-167z" />
    <glyph glyph-name="o" unicode="o" horiz-adv-x="643" 
d="M315 -12c-180 0 -277 109 -277 280c0 181 113 292 286 292c194 0 281 -109 281 -287c0 -186 -122 -285 -290 -285zM323 121c90 0 112 59 112 152c0 88 -22 155 -114 155c-90 0 -115 -67 -115 -156c0 -94 28 -151 117 -151z" />
    <glyph glyph-name="p" unicode="p" horiz-adv-x="645" 
d="M68 -220v766h166v-39c22 19 82 53 132 53c150 0 241 -69 241 -262c0 -228 -147 -308 -306 -308c-25 0 -47 3 -67 4v-214h-166zM305 117c85 0 134 74 134 176c0 98 -39 127 -123 127c-28 0 -61 -8 -82 -15v-282c16 -2 44 -6 71 -6z" />
    <glyph glyph-name="q" unicode="q" horiz-adv-x="642" 
d="M407 -220v240c-23 -14 -55 -28 -105 -28c-117 0 -264 41 -264 288c0 187 131 280 297 280c113 0 159 -8 239 -29v-751h-167zM316 131c30 0 69 7 91 13v277c-17 3 -39 7 -69 7c-95 0 -134 -56 -134 -151c0 -119 53 -146 112 -146z" />
    <glyph glyph-name="r" unicode="r" horiz-adv-x="441" 
d="M68 0v546h167v-73c27 35 78 84 141 84c30 0 52 -2 75 -9l-22 -137c-32 6 -43 6 -73 6c-49 0 -99 -23 -121 -47v-370h-167z" />
    <glyph glyph-name="s" unicode="s" horiz-adv-x="512" 
d="M234 -12c-79 0 -143 7 -199 23l18 126c71 -10 128 -15 165 -15c84 0 94 22 94 38c0 59 -275 31 -275 227c0 118 111 173 230 173c67 0 127 -11 184 -31l-28 -121c-53 12 -95 20 -151 20c-57 0 -68 -21 -68 -33c0 -62 273 -45 273 -228c0 -144 -151 -179 -243 -179z" />
    <glyph glyph-name="t" unicode="t" horiz-adv-x="466" 
d="M316 -11c-105 0 -228 -5 -228 181v253h-80v123h80v112h166v-112h169v-123h-169v-252c0 -40 15 -43 60 -43c37 0 118 11 118 11l16 -131c-39 -11 -92 -19 -132 -19z" />
    <glyph glyph-name="u" unicode="u" horiz-adv-x="664" 
d="M251 -12c-171 0 -183 95 -183 219v339h166v-325c0 -75 17 -88 73 -88c50 0 95 14 122 27v386h167v-546h-167v56c-33 -25 -105 -68 -178 -68z" />
    <glyph glyph-name="v" unicode="v" horiz-adv-x="623" 
d="M205 0l-197 546h179l92 -296l28 -109l31 109l102 296h175l-212 -546h-198z" />
    <glyph glyph-name="w" unicode="w" horiz-adv-x="904" 
d="M148 0l-140 546h175l70 -410l100 410h197l85 -410l90 410h171l-162 -546h-205l-64 298l-18 91l-21 -91l-71 -298h-207z" />
    <glyph glyph-name="x" unicode="x" horiz-adv-x="610" 
d="M8 0l202 279l-187 267h192l89 -166l92 166h189l-187 -267l204 -279h-199l-99 178l-100 -178h-196z" />
    <glyph glyph-name="y" unicode="y" horiz-adv-x="616" 
d="M182 -220l74 220h-60l-188 546h179l94 -324l23 -89l27 89l109 324h168l-267 -766h-159z" />
    <glyph glyph-name="z" unicode="z" horiz-adv-x="532" 
d="M38 0v109l256 303h-240v134h436v-106l-250 -308h254v-132h-456z" />
    <glyph glyph-name="braceleft" unicode="{" horiz-adv-x="377" 
d="M306 -223c-147 0 -238 50 -223 191l20 189c2 20 -11 52 -76 52v127c65 0 78 33 76 52l-20 189c-15 142 76 191 223 191h59v-139h-50c-48 0 -66 -35 -62 -66l21 -173c8 -64 -18 -95 -59 -116v-2c42 -21 67 -53 59 -117l-21 -172c-4 -31 10 -66 62 -66h50v-140h-59z" />
    <glyph glyph-name="bar" unicode="|" horiz-adv-x="293" 
d="M63 -220v974h167v-974h-167z" />
    <glyph glyph-name="braceright" unicode="}" horiz-adv-x="377" 
d="M32 -223v140h50c52 0 66 35 62 66l-21 172c-8 64 17 96 59 117v2c-41 21 -67 52 -59 116l21 173c4 31 -14 66 -62 66h-50v139h59c147 0 238 -49 223 -191l-20 -189c-2 -19 11 -52 76 -52v-127c-65 0 -78 -32 -76 -52l20 -189c15 -141 -76 -191 -223 -191h-59z" />
    <glyph glyph-name="asciitilde" unicode="~" horiz-adv-x="598" 
d="M386 240c-88 0 -132 60 -183 60c-25 0 -48 -8 -75 -33l-77 102c43 53 98 97 157 97c90 0 121 -61 179 -61c17 0 40 -9 88 33l76 -94c-30 -53 -109 -104 -165 -104z" />
    <glyph glyph-name="uni00A0" unicode="&#xa0;" horiz-adv-x="250" 
 />
    <glyph glyph-name="exclamdown" unicode="&#xa1;" horiz-adv-x="324" 
d="M78 -161v294l10 193h147l10 -193v-294h-167zM78 399v147h168v-147h-168z" />
    <glyph glyph-name="cent" unicode="&#xa2;" horiz-adv-x="560" 
d="M243 -62l2 90c-150 24 -207 80 -207 249c0 142 75 213 207 243l-3 84h149l-3 -78c48 -5 70 -13 105 -29l-43 -120c-50 14 -55 16 -111 16c-69 0 -130 -25 -130 -118c0 -85 21 -122 152 -122c46 0 63 4 108 10l25 -125c-46 -10 -68 -15 -105 -17l2 -83h-148z" />
    <glyph glyph-name="sterling" unicode="&#xa3;" horiz-adv-x="543" 
d="M57 0v115c39 23 64 56 64 95h-76v124h81c-1 41 -4 23 -4 54c0 188 154 200 317 200l6 -136c-123 -11 -154 -10 -154 -70c0 -26 3 -7 1 -48h148v-124h-165c-6 -46 -19 -59 -39 -78h252v-132h-431z" />
    <glyph glyph-name="currency" unicode="&#xa4;" horiz-adv-x="516" 
d="M89 122l-61 59l58 58c-27 30 -44 69 -44 113c0 45 16 83 43 113l-57 57l60 60l68 -68c30 13 65 21 102 21s72 -8 103 -21l67 68l61 -60l-58 -58c26 -29 42 -68 42 -112s-16 -82 -43 -112l59 -58l-61 -60l-68 68c-31 -13 -65 -20 -102 -20s-71 7 -101 20zM258 289
c49 0 63 31 63 63s-16 64 -63 64s-64 -31 -64 -64c0 -31 18 -63 64 -63z" />
    <glyph glyph-name="yen" unicode="&#xa5;" horiz-adv-x="687" 
d="M637 546l-118 -193h118v-133h-199l-24 -40v-47h223v-133h-587v133h209v43l-25 44h-184v133h109l-109 193h179l113 -235l120 235h175z" />
    <glyph glyph-name="brokenbar" unicode="&#xa6;" horiz-adv-x="293" 
d="M63 -220v361h167v-361h-167zM63 392v362h167v-362h-167z" />
    <glyph glyph-name="section" unicode="&#xa7;" horiz-adv-x="596" 
d="M126 -216c-44 0 -99 16 -126 40l41 118s45 -32 81 -32c30 0 34 50 34 72c0 36 -7 74 -13 109l-68 289c-6 32 -10 64 -10 97c0 168 175 284 358 284c47 0 122 -13 173 -62c0 0 -58 -88 -70 -100c-24 23 -60 39 -96 39c-34 0 -44 -23 -44 -51s7 -60 11 -81l67 -267
c14 -70 21 -136 21 -178c0 -161 -172 -277 -359 -277zM283 -82c19 21 63 63 63 134c0 33 -5 65 -11 97l-72 310c-4 24 -7 53 -7 83c0 24 3 50 7 78c-44 -34 -56 -97 -56 -132c-1 -30 4 -69 8 -88l73 -314c3 -20 7 -45 7 -73s-4 -52 -12 -95z" />
    <glyph glyph-name="dieresis" unicode="&#xa8;" horiz-adv-x="432" 
d="M99 622l-93 94l93 94l94 -94zM343 622l-94 94l94 94l93 -94z" />
    <glyph glyph-name="copyright" unicode="&#xa9;" horiz-adv-x="833" 
d="M432 74c-125 0 -200 87 -200 197c0 119 74 200 198 200c50 0 96 -8 129 -29l-28 -80c-41 14 -67 15 -99 15c-55 0 -98 -29 -98 -102c0 -71 45 -103 106 -103c42 0 59 1 93 13l27 -87c-41 -17 -70 -24 -128 -24zM408 -82c-219 0 -345 141 -345 357c0 224 148 353 364 353
c227 0 343 -148 343 -355c0 -218 -136 -355 -362 -355zM412 -12c181 0 272 122 272 286c0 165 -97 284 -266 284c-175 0 -270 -119 -270 -282c0 -158 91 -288 264 -288z" />
    <glyph glyph-name="ordfeminine" unicode="&#xaa;" horiz-adv-x="434" 
d="M165 389c-70 0 -112 31 -112 95c0 81 77 94 139 94h49v21c0 22 -12 26 -52 26c-30 0 -63 -6 -96 -14l-22 76c41 15 82 26 133 26c64 0 140 -3 140 -96v-138c0 -8 9 -7 28 -8l-4 -79c-42 -2 -99 -1 -115 28c-23 -16 -54 -31 -88 -31zM177 471c16 0 44 4 64 8v35l-44 -1
c-11 0 -41 1 -41 -22c0 -14 5 -20 21 -20zM61 283v78h310v-78h-310z" />
    <glyph glyph-name="guillemotleft" unicode="&#xab;" horiz-adv-x="520" 
d="M140 43l-128 229l127 227l123 -42l-91 -185l90 -179zM380 43l-128 229l127 227l123 -42l-91 -185l90 -179z" />
    <glyph glyph-name="logicalnot" unicode="&#xac;" horiz-adv-x="600" 
d="M407 86v156h-368v127h505v-283h-137z" />
    <glyph glyph-name="registered" unicode="&#xae;" horiz-adv-x="833" 
d="M591 268c-54 4 -93 24 -126 59c-19 20 -30 42 -51 69c-5 -1 -14 -1 -19 -1h-15v-122h-100v373h140c80 0 152 -21 152 -120c0 -56 -31 -85 -63 -98c33 -43 46 -73 100 -92zM409 98c-220 0 -346 144 -346 357c0 223 149 353 363 353c228 0 344 -151 344 -355
c0 -216 -137 -355 -361 -355zM412 168c181 0 272 122 272 286c0 165 -97 284 -266 284c-175 0 -270 -119 -270 -282c0 -158 91 -288 264 -288zM380 472h18c46 0 69 12 69 52c0 33 -19 44 -57 44h-30v-96z" />
    <glyph glyph-name="macron" unicode="&#xaf;" horiz-adv-x="556" 
d="M111 647v129h328v-129h-328z" />
    <glyph glyph-name="macron" unicode="&#x2c9;" horiz-adv-x="556" 
d="M111 647v129h328v-129h-328z" />
    <glyph glyph-name="degree" unicode="&#xb0;" horiz-adv-x="345" 
d="M171 402c-102 0 -161 58 -161 158c0 98 75 157 163 157c94 0 162 -60 162 -157c0 -98 -73 -158 -164 -158zM172 504c26 0 42 12 42 56c0 40 -17 54 -42 54c-27 0 -43 -14 -43 -54c0 -37 16 -56 43 -56z" />
    <glyph glyph-name="plusminus" unicode="&#xb1;" horiz-adv-x="600" 
d="M79 1l-2 126h160l1 157l-159 -2l-2 126l161 -4l-1 161h126l-6 -164l164 7l2 -126l-163 2l3 -157h158l2 -126h-444z" />
    <glyph glyph-name="twosuperior" unicode="&#xb2;" horiz-adv-x="306" 
d="M10 415v75c76 52 157 123 157 162c0 19 -18 33 -41 33c-29 0 -52 -9 -72 -22l-38 80c35 27 69 43 134 43c91 0 139 -57 139 -120c0 -60 -57 -116 -136 -156h139v-95h-282z" />
    <glyph glyph-name="threesuperior" unicode="&#xb3;" horiz-adv-x="305" 
d="M131 410c-58 0 -89 8 -119 16l18 88c35 -8 59 -10 90 -10c40 0 50 19 50 38c0 29 -23 39 -82 39v51c60 6 65 20 65 44c-2 13 -13 24 -30 24c-31 0 -51 -4 -77 -16c-8 27 -17 53 -25 80c33 17 75 25 113 25c87 0 139 -30 139 -103c0 -28 -15 -58 -42 -71
c35 -14 60 -39 60 -86c0 -89 -71 -119 -160 -119z" />
    <glyph glyph-name="acute" unicode="&#xb4;" horiz-adv-x="584" 
d="M203 602l-47 100l238 121l54 -117z" />
    <glyph glyph-name="mu" unicode="&#xb5;" horiz-adv-x="693" 
d="M68 -220v766h166v-343c0 -62 21 -73 73 -73c50 0 95 17 122 30v386h167v-401c0 -18 18 -22 49 -23l-6 -126c-14 -1 -35 -1 -49 -1c-73 0 -134 10 -151 69c-36 -29 -108 -79 -188 -79h-17v-205h-166z" />
    <glyph glyph-name="paragraph" unicode="&#xb6;" horiz-adv-x="639" 
d="M333 -220c-39 0 -68 7 -122 21l30 135s63 -12 94 -12c43 0 60 14 60 83v700h166v-701c0 -170 -104 -226 -228 -226zM212 227c-133 0 -192 95 -192 243c0 214 134 235 279 237l60 1v-481h-147z" />
    <glyph glyph-name="periodcentered" unicode="&#xb7;" horiz-adv-x="324" 
d="M161 273l-115 116l115 115l115 -115z" />
    <glyph glyph-name="cedilla" unicode="&#xb8;" horiz-adv-x="469" 
d="M189 -283l-57 100c25 15 76 35 76 70c0 20 -7 42 -12 62h129c11 -25 22 -53 22 -81c0 -81 -95 -125 -158 -151z" />
    <glyph glyph-name="onesuperior" unicode="&#xb9;" horiz-adv-x="240" 
d="M83 415v271h-73v93c65 2 129 3 194 5v-369h-121z" />
    <glyph glyph-name="ordmasculine" unicode="&#xba;" horiz-adv-x="434" 
d="M214 383c-108 0 -166 64 -166 163c0 105 68 170 171 170c116 0 168 -64 168 -167c0 -108 -73 -166 -173 -166zM218 468c48 0 60 29 60 81c0 49 -12 82 -61 82c-47 0 -62 -33 -62 -83c0 -52 16 -80 63 -80zM61 283v78h310v-78h-310z" />
    <glyph glyph-name="guillemotright" unicode="&#xbb;" horiz-adv-x="520" 
d="M135 43l-121 50l89 179l-91 185l123 42l127 -227zM375 43l-121 50l89 179l-91 185l123 42l127 -227z" />
    <glyph glyph-name="onequarter" unicode="&#xbc;" horiz-adv-x="824" 
d="M103 415v271h-73v93c65 2 129 3 194 5v-369h-121zM130 62l-57 62l543 543l58 -60zM636 0v79h-157v86l101 204h164v-206h50v-84h-50v-79h-108zM558 163h78v143z" />
    <glyph glyph-name="onehalf" unicode="&#xbd;" horiz-adv-x="818" 
d="M103 415v271h-73v93c65 2 129 3 194 5v-369h-121zM128 62l-57 62l543 543l58 -60zM506 0v75c76 52 157 123 157 162c0 19 -18 33 -41 33c-29 0 -52 -9 -72 -22l-38 80c35 27 69 45 134 45c91 0 139 -59 139 -122c0 -60 -57 -116 -136 -156h139v-95h-282z" />
    <glyph glyph-name="threequarters" unicode="&#xbe;" horiz-adv-x="820" 
d="M149 410c-58 0 -89 8 -119 16l18 88c35 -8 59 -10 90 -10c40 0 50 19 50 38c0 29 -23 39 -82 39v51c60 6 65 20 65 44c-2 13 -13 24 -30 24c-31 0 -51 -4 -77 -16c-8 27 -17 53 -25 80c33 17 75 25 113 25c87 0 139 -30 139 -103c0 -28 -15 -58 -42 -71
c35 -14 60 -39 60 -86c0 -89 -71 -119 -160 -119zM141 62l-57 62l543 543l58 -60zM632 0v79h-157v86l101 204h164v-206h50v-84h-50v-79h-108zM554 163h78v143z" />
    <glyph glyph-name="questiondown" unicode="&#xbf;" horiz-adv-x="415" 
d="M346 -164c-162 11 -299 52 -299 211c0 126 159 181 159 237c0 13 1 30 -9 55l134 22c17 -37 20 -62 20 -89c0 -124 -130 -177 -130 -220c0 -41 13 -68 155 -79zM167 399v147h167v-147h-167z" />
    <glyph glyph-name="Agrave" unicode="&#xc0;" horiz-adv-x="751" 
d="M11 0l272 707h219l238 -707h-176l-67 207h-239l-77 -207h-170zM303 330h154l-71 272zM498 744l-275 49l27 131l271 -67z" />
    <glyph glyph-name="Aacute" unicode="&#xc1;" horiz-adv-x="751" 
d="M11 0l272 707h219l238 -707h-176l-67 207h-239l-77 -207h-170zM303 330h154l-71 272zM284 744l-23 113l271 67l27 -131z" />
    <glyph glyph-name="Acircumflex" unicode="&#xc2;" horiz-adv-x="751" 
d="M11 0l272 707h219l238 -707h-176l-67 207h-239l-77 -207h-170zM303 330h154l-71 272zM253 741l-58 107l191 96l192 -96l-59 -107l-133 61z" />
    <glyph glyph-name="Atilde" unicode="&#xc3;" horiz-adv-x="751" 
d="M11 0l272 707h219l238 -707h-176l-67 207h-239l-77 -207h-170zM303 330h154l-71 272zM444 755c-51 0 -89 38 -128 38c-19 0 -40 -2 -70 -28l-63 74c24 29 77 82 144 82c63 0 89 -38 123 -38c32 0 51 7 87 26l55 -74c-23 -25 -73 -80 -148 -80z" />
    <glyph glyph-name="Adieresis" unicode="&#xc4;" horiz-adv-x="751" 
d="M11 0l272 707h219l238 -707h-176l-67 207h-239l-77 -207h-170zM303 330h154l-71 272zM265 737l-99 100l99 100l100 -100zM509 737l-100 100l100 100l99 -100z" />
    <glyph glyph-name="Aring" unicode="&#xc5;" horiz-adv-x="751" 
d="M11 0l264 687c-22 20 -37 50 -37 93c0 96 78 136 152 136c60 0 152 -27 152 -134c0 -40 -13 -70 -35 -91l233 -691h-176l-67 208h-239l-77 -208h-170zM391 727c38 0 56 19 56 54c0 32 -23 54 -58 54c-42 0 -57 -18 -57 -51c0 -36 21 -57 59 -57zM303 331h154l-38 138
l-33 133l-39 -133z" />
    <glyph glyph-name="AE" unicode="&#xc6;" horiz-adv-x="996" 
d="M-12 0l332 707h605v-133h-294v-157h272v-124h-272v-160h317v-133h-487v244h-179l-102 -244h-192zM333 368h128v206h-42z" />
    <glyph glyph-name="Ccedilla" unicode="&#xc7;" horiz-adv-x="686" 
d="M435 -10c-259 0 -392 127 -392 359c0 246 131 368 388 368c105 0 167 -19 220 -43l-45 -123c-67 18 -95 25 -173 26c-128 2 -217 -70 -217 -218s94 -227 237 -227c69 0 110 6 164 20l36 -128c-68 -25 -127 -34 -218 -34zM339 -283l-57 100c25 15 76 35 76 70
c0 20 -7 42 -12 62h129c11 -25 22 -53 22 -81c0 -81 -95 -125 -158 -151z" />
    <glyph glyph-name="Egrave" unicode="&#xc8;" horiz-adv-x="613" 
d="M78 0v707h464v-133h-294v-157h272v-124h-272v-160h317v-133h-487zM420 744l-275 49l27 131l271 -67z" />
    <glyph glyph-name="Eacute" unicode="&#xc9;" horiz-adv-x="613" 
d="M78 0v707h464v-133h-294v-157h272v-124h-272v-160h317v-133h-487zM225 744l-23 113l271 67l27 -131z" />
    <glyph glyph-name="Ecircumflex" unicode="&#xca;" horiz-adv-x="613" 
d="M78 0v707h464v-133h-294v-157h272v-124h-272v-160h317v-133h-487zM185 741l-58 107l191 96l192 -96l-59 -107l-133 61z" />
    <glyph glyph-name="Edieresis" unicode="&#xcb;" horiz-adv-x="613" 
d="M78 0v707h464v-133h-294v-157h272v-124h-272v-160h317v-133h-487zM192 737l-99 100l99 100l100 -100zM436 737l-100 100l100 100l99 -100z" />
    <glyph glyph-name="Igrave" unicode="&#xcc;" horiz-adv-x="326" 
d="M78 0v707h170v-707h-170zM252 744l-275 49l27 131l271 -67z" />
    <glyph glyph-name="Iacute" unicode="&#xcd;" horiz-adv-x="326" 
d="M78 0v707h170v-707h-170zM78 744l-23 113l271 67l27 -131z" />
    <glyph glyph-name="Icircumflex" unicode="&#xce;" horiz-adv-x="326" 
d="M78 0v707h170v-707h-170zM28 741l-58 107l191 96l192 -96l-59 -107l-133 61z" />
    <glyph glyph-name="Idieresis" unicode="&#xcf;" horiz-adv-x="326" 
d="M78 0v707h170v-707h-170zM39 737l-99 100l99 100l100 -100zM283 737l-100 100l100 100l99 -100z" />
    <glyph glyph-name="Eth" unicode="&#xd0;" horiz-adv-x="787" 
d="M744 356c0 -245 -152 -356 -407 -356h-259v299h-74v100h74v308h253c245 0 413 -105 413 -351zM574 346c0 152 -76 228 -246 228h-81v-175h131v-100h-131v-166h101c163 0 226 74 226 213z" />
    <glyph glyph-name="Ntilde" unicode="&#xd1;" horiz-adv-x="796" 
d="M78 0v707h197l278 -485l-5 79v406h170v-707h-203l-271 473l4 -94v-379h-170zM463 755c-51 0 -89 38 -128 38c-19 0 -40 -2 -70 -28l-63 74c24 29 77 82 144 82c63 0 89 -38 123 -38c32 0 51 7 87 26l55 -74c-23 -25 -73 -80 -148 -80z" />
    <glyph glyph-name="Ograve" unicode="&#xd2;" horiz-adv-x="843" 
d="M413 -12c-248 0 -370 140 -370 367c0 223 148 363 389 363c257 0 368 -154 368 -365c0 -225 -135 -365 -387 -365zM416 122c156 0 211 100 211 232s-61 230 -204 230c-150 0 -208 -98 -208 -228c0 -129 57 -234 201 -234zM525 744l-275 49l27 131l271 -67z" />
    <glyph glyph-name="Oacute" unicode="&#xd3;" horiz-adv-x="843" 
d="M413 -12c-248 0 -370 140 -370 367c0 223 148 363 389 363c257 0 368 -154 368 -365c0 -225 -135 -365 -387 -365zM416 122c156 0 211 100 211 232s-61 230 -204 230c-150 0 -208 -98 -208 -228c0 -129 57 -234 201 -234zM329 744l-23 113l271 67l27 -131z" />
    <glyph glyph-name="Ocircumflex" unicode="&#xd4;" horiz-adv-x="843" 
d="M413 -12c-248 0 -370 140 -370 367c0 223 148 363 389 363c257 0 368 -154 368 -365c0 -225 -135 -365 -387 -365zM416 122c156 0 211 100 211 232s-61 230 -204 230c-150 0 -208 -98 -208 -228c0 -129 57 -234 201 -234zM289 741l-58 107l191 96l192 -96l-59 -107
l-133 61z" />
    <glyph glyph-name="Otilde" unicode="&#xd5;" horiz-adv-x="843" 
d="M413 -12c-248 0 -370 140 -370 367c0 223 148 363 389 363c257 0 368 -154 368 -365c0 -225 -135 -365 -387 -365zM416 122c156 0 211 100 211 232s-61 230 -204 230c-150 0 -208 -98 -208 -228c0 -129 57 -234 201 -234zM485 755c-51 0 -89 38 -128 38
c-19 0 -40 -2 -70 -28l-63 74c24 29 77 82 144 82c63 0 89 -38 123 -38c32 0 51 7 87 26l55 -74c-23 -25 -73 -80 -148 -80z" />
    <glyph glyph-name="Odieresis" unicode="&#xd6;" horiz-adv-x="843" 
d="M413 -12c-248 0 -370 140 -370 367c0 223 148 363 389 363c257 0 368 -154 368 -365c0 -225 -135 -365 -387 -365zM416 122c156 0 211 100 211 232s-61 230 -204 230c-150 0 -208 -98 -208 -228c0 -129 57 -234 201 -234zM293 737l-99 100l99 100l100 -100zM537 737
l-100 100l100 100l99 -100z" />
    <glyph glyph-name="multiply" unicode="&#xd7;" horiz-adv-x="567" 
d="M439 60l-157 159l-152 -157l-90 90l156 154l-156 153l87 91l154 -159l155 157l90 -90l-163 -154l163 -153z" />
    <glyph glyph-name="Oslash" unicode="&#xd8;" horiz-adv-x="843" 
d="M96 -45l-70 70l86 89c-46 61 -69 143 -69 241c0 239 148 363 389 363c89 0 161 -17 217 -49l83 86l71 -69l-78 -82c51 -62 75 -148 75 -251c0 -235 -135 -365 -387 -365c-95 0 -171 20 -229 58zM416 122c156 0 211 100 211 232c0 47 -8 89 -24 125l-310 -320
c31 -23 71 -37 123 -37zM234 240l304 314c-30 19 -68 30 -115 30c-150 0 -208 -98 -208 -228c0 -42 6 -82 19 -116z" />
    <glyph glyph-name="Ugrave" unicode="&#xd9;" horiz-adv-x="799" 
d="M402 -13c-163 0 -329 72 -329 301v419h172v-413c0 -108 49 -168 157 -168c107 0 157 63 157 189v392h167v-395c0 -247 -166 -325 -324 -325zM507 744l-275 49l27 131l271 -67z" />
    <glyph glyph-name="Uacute" unicode="&#xda;" horiz-adv-x="799" 
d="M402 -13c-163 0 -329 72 -329 301v419h172v-413c0 -108 49 -168 157 -168c107 0 157 63 157 189v392h167v-395c0 -247 -166 -325 -324 -325zM318 744l-23 113l271 67l27 -131z" />
    <glyph glyph-name="Ucircumflex" unicode="&#xdb;" horiz-adv-x="799" 
d="M402 -13c-163 0 -329 72 -329 301v419h172v-413c0 -108 49 -168 157 -168c107 0 157 63 157 189v392h167v-395c0 -247 -166 -325 -324 -325zM271 741l-58 107l191 96l192 -96l-59 -107l-133 61z" />
    <glyph glyph-name="Udieresis" unicode="&#xdc;" horiz-adv-x="799" 
d="M402 -13c-163 0 -329 72 -329 301v419h172v-413c0 -108 49 -168 157 -168c107 0 157 63 157 189v392h167v-395c0 -247 -166 -325 -324 -325zM280 737l-99 100l99 100l100 -100zM524 737l-100 100l100 100l99 -100z" />
    <glyph glyph-name="Yacute" unicode="&#xdd;" horiz-adv-x="709" 
d="M261 0v227l-261 480h196l156 -337l166 337h191l-278 -474v-233h-170zM273 744l-23 113l271 67l27 -131z" />
    <glyph glyph-name="Thorn" unicode="&#xde;" horiz-adv-x="654" 
d="M78 0v708h171v-99h104c159 0 273 -93 273 -251c0 -139 -114 -256 -325 -256h-52v-102h-171zM249 476v-243h58c106 0 144 55 144 121c0 71 -29 122 -120 122h-82z" />
    <glyph glyph-name="germandbls" unicode="&#xdf;" horiz-adv-x="690" 
d="M78 -189v737c0 174 103 232 252 232c70 0 249 -29 249 -184c0 -102 -127 -144 -127 -202c0 -72 210 -59 210 -229c0 -137 -129 -178 -217 -178c-61 0 -143 6 -183 20l20 128c66 -10 92 -14 127 -14s89 4 89 34c0 59 -213 48 -213 239c0 104 117 142 117 200
c0 35 -51 51 -74 51c-62 0 -84 -36 -84 -98v-736h-166z" />
    <glyph glyph-name="agrave" unicode="&#xe0;" horiz-adv-x="627" 
d="M226 -9c-120 0 -188 56 -188 165c0 138 126 166 234 166h95v34c0 48 -31 62 -99 62c-54 0 -112 -12 -163 -24l-33 121c62 24 134 44 221 44c169 0 237 -48 237 -171v-243c0 -18 18 -22 49 -23l-6 -126c-13 -1 -26 -1 -39 -1c-66 0 -136 11 -151 58
c-40 -31 -97 -62 -157 -62zM261 120c32 0 70 9 106 19v86l-82 -2c-49 -1 -85 -17 -85 -57c0 -32 31 -46 61 -46zM372 602l-244 104l54 117l238 -121z" />
    <glyph glyph-name="aacute" unicode="&#xe1;" horiz-adv-x="627" 
d="M226 -9c-120 0 -188 56 -188 165c0 138 126 166 234 166h95v34c0 48 -31 62 -99 62c-54 0 -112 -12 -163 -24l-33 121c62 24 134 44 221 44c169 0 237 -48 237 -171v-243c0 -18 18 -22 49 -23l-6 -126c-13 -1 -26 -1 -39 -1c-66 0 -136 11 -151 58
c-40 -31 -97 -62 -157 -62zM261 120c32 0 70 9 106 19v86l-82 -2c-49 -1 -85 -17 -85 -57c0 -32 31 -46 61 -46zM224 602l-47 100l238 121l54 -117z" />
    <glyph glyph-name="acircumflex" unicode="&#xe2;" horiz-adv-x="627" 
d="M226 -9c-120 0 -188 56 -188 165c0 138 126 166 234 166h95v34c0 48 -31 62 -99 62c-54 0 -112 -12 -163 -24l-33 121c62 24 134 44 221 44c169 0 237 -48 237 -171v-243c0 -18 18 -22 49 -23l-6 -126c-13 -1 -26 -1 -39 -1c-66 0 -136 11 -151 58
c-40 -31 -97 -62 -157 -62zM261 120c32 0 70 9 106 19v86l-82 -2c-49 -1 -85 -17 -85 -57c0 -32 31 -46 61 -46zM426 606l-129 90l-128 -89l-73 92l202 130l196 -131z" />
    <glyph glyph-name="atilde" unicode="&#xe3;" horiz-adv-x="627" 
d="M226 -9c-120 0 -188 56 -188 165c0 138 126 166 234 166h95v34c0 48 -31 62 -99 62c-54 0 -112 -12 -163 -24l-33 121c62 24 134 44 221 44c169 0 237 -48 237 -171v-243c0 -18 18 -22 49 -23l-6 -126c-13 -1 -26 -1 -39 -1c-66 0 -136 11 -151 58
c-40 -31 -97 -62 -157 -62zM261 120c32 0 70 9 106 19v86l-82 -2c-49 -1 -85 -17 -85 -57c0 -32 31 -46 61 -46zM349 634c-51 0 -89 38 -128 38c-19 0 -40 -2 -70 -28l-63 74c24 29 77 82 144 82c63 0 89 -38 123 -38c32 0 51 7 87 26l55 -74c-23 -25 -73 -80 -148 -80z" />
    <glyph glyph-name="adieresis" unicode="&#xe4;" horiz-adv-x="627" 
d="M226 -9c-120 0 -188 56 -188 165c0 138 126 166 234 166h95v34c0 48 -31 62 -99 62c-54 0 -112 -12 -163 -24l-33 121c62 24 134 44 221 44c169 0 237 -48 237 -171v-243c0 -18 18 -22 49 -23l-6 -126c-13 -1 -26 -1 -39 -1c-66 0 -136 11 -151 58
c-40 -31 -97 -62 -157 -62zM261 120c32 0 70 9 106 19v86l-82 -2c-49 -1 -85 -17 -85 -57c0 -32 31 -46 61 -46zM180 622l-93 94l93 94l94 -94zM424 622l-94 94l94 94l93 -94z" />
    <glyph glyph-name="aring" unicode="&#xe5;" horiz-adv-x="627" 
d="M226 -9c-120 0 -188 56 -188 165c0 138 126 166 234 166h95v34c0 48 -31 62 -99 62c-54 0 -112 -12 -163 -24l-33 121c62 24 134 44 221 44c169 0 237 -48 237 -171v-243c0 -18 18 -22 49 -23l-6 -126c-13 -1 -26 -1 -39 -1c-66 0 -136 11 -151 58
c-40 -31 -97 -62 -157 -62zM261 120c32 0 70 9 106 19v86l-82 -2c-49 -1 -85 -17 -85 -57c0 -32 31 -46 61 -46zM305 586c-70 0 -150 27 -150 126c0 93 75 134 147 134c58 0 149 -28 149 -132c0 -90 -70 -128 -146 -128zM303 657c39 0 58 21 61 56c0 34 -26 56 -61 56
c-43 0 -61 -19 -61 -54c0 -36 22 -58 61 -58z" />
    <glyph glyph-name="ae" unicode="&#xe6;" horiz-adv-x="925" 
d="M663 -9c-108 0 -193 20 -244 83c-38 -34 -108 -82 -193 -82c-120 0 -188 53 -188 162c0 142 126 158 234 161c0 0 65 3 95 3v44c0 48 -31 56 -99 56c-54 0 -112 -12 -163 -24l-33 121c64 24 134 44 221 44c69 0 140 -3 187 -39c46 28 103 39 169 39
c172 0 238 -112 238 -277v-53l-354 -8c-1 -86 66 -100 153 -100c37 0 100 9 157 19l25 -127c-61 -18 -139 -22 -205 -22zM246 122c31 0 100 10 138 20c-7 22 -12 46 -15 74l-84 -2c-86 -2 -84 -27 -84 -51c0 -28 14 -41 45 -41zM538 329l178 7c2 66 -37 103 -79 103
c-51 0 -99 -31 -99 -110z" />
    <glyph glyph-name="ccedilla" unicode="&#xe7;" horiz-adv-x="537" 
d="M356 -11c-231 0 -318 85 -318 289c0 170 114 282 299 282c80 0 131 -15 174 -38l-43 -121c-44 17 -68 23 -124 23c-69 0 -135 -31 -135 -148c0 -105 25 -154 156 -154c46 0 71 6 116 14l23 -127c-59 -13 -87 -20 -148 -20zM248 -283l-57 100c25 15 76 35 76 70
c0 20 -7 42 -12 62h129c11 -25 22 -53 22 -81c0 -81 -95 -125 -158 -151z" />
    <glyph glyph-name="egrave" unicode="&#xe8;" horiz-adv-x="596" 
d="M334 -12c-180 0 -296 59 -296 277c0 223 117 294 282 294c172 0 238 -112 238 -277v-60h-354c-1 -86 67 -102 154 -102c37 0 99 12 156 22l25 -127c-61 -18 -139 -27 -205 -27zM209 329h178c2 66 -27 112 -81 112c-57 0 -94 -40 -97 -112zM374 602l-244 104l54 117
l238 -121z" />
    <glyph glyph-name="eacute" unicode="&#xe9;" horiz-adv-x="596" 
d="M334 -12c-180 0 -296 59 -296 277c0 223 117 294 282 294c172 0 238 -112 238 -277v-60h-354c-1 -86 67 -102 154 -102c37 0 99 12 156 22l25 -127c-61 -18 -139 -27 -205 -27zM209 329h178c2 66 -27 112 -81 112c-57 0 -94 -40 -97 -112zM228 602l-47 100l238 121
l54 -117z" />
    <glyph glyph-name="ecircumflex" unicode="&#xea;" horiz-adv-x="596" 
d="M334 -12c-180 0 -296 59 -296 277c0 223 117 294 282 294c172 0 238 -112 238 -277v-60h-354c-1 -86 67 -102 154 -102c37 0 99 12 156 22l25 -127c-61 -18 -139 -27 -205 -27zM209 329h178c2 66 -27 112 -81 112c-57 0 -94 -40 -97 -112zM428 606l-129 90l-128 -89
l-73 92l202 130l196 -131z" />
    <glyph glyph-name="edieresis" unicode="&#xeb;" horiz-adv-x="596" 
d="M334 -12c-180 0 -296 59 -296 277c0 223 117 294 282 294c172 0 238 -112 238 -277v-60h-354c-1 -86 67 -102 154 -102c37 0 99 12 156 22l25 -127c-61 -18 -139 -27 -205 -27zM209 329h178c2 66 -27 112 -81 112c-57 0 -94 -40 -97 -112zM181 622l-93 94l93 94l94 -94z
M425 622l-94 94l94 94l93 -94z" />
    <glyph glyph-name="igrave" unicode="&#xec;" horiz-adv-x="303" 
d="M68 0v546h167v-546h-167zM217 602l-244 104l54 117l238 -121z" />
    <glyph glyph-name="iacute" unicode="&#xed;" horiz-adv-x="303" 
d="M68 0v546h167v-546h-167zM76 602l-47 100l238 121l54 -117z" />
    <glyph glyph-name="icircumflex" unicode="&#xee;" horiz-adv-x="303" 
d="M68 0v546h167v-546h-167zM281 606l-129 90l-128 -89l-73 92l202 130l196 -131z" />
    <glyph glyph-name="idieresis" unicode="&#xef;" horiz-adv-x="303" 
d="M68 0v546h167v-546h-167zM34 622l-93 94l93 94l94 -94zM278 622l-94 94l94 94l93 -94z" />
    <glyph glyph-name="eth" unicode="&#xf0;" horiz-adv-x="643" 
d="M315 -12c-180 0 -277 99 -277 270c0 161 123 280 276 280c33 0 52 -3 79 -14c-19 27 -51 57 -78 78l-62 -55l-50 53l49 44c-20 11 -42 21 -65 31l84 105c29 -9 60 -22 91 -40l59 53l51 -53l-47 -42c100 -83 179 -197 179 -426c0 -184 -120 -284 -289 -284zM323 121
c90 0 112 49 112 142c0 88 -32 143 -124 143c-79 0 -105 -55 -105 -144c0 -94 28 -141 117 -141z" />
    <glyph glyph-name="ntilde" unicode="&#xf1;" horiz-adv-x="664" 
d="M68 0v546h167v-55c33 25 105 69 178 69c171 0 183 -94 183 -218v-342h-166v328c0 75 -17 88 -73 88c-50 0 -95 -16 -122 -29v-387h-167zM386 634c-51 0 -89 38 -128 38c-19 0 -40 -2 -70 -28l-63 74c24 29 77 82 144 82c63 0 89 -38 123 -38c32 0 51 7 87 26l55 -74
c-23 -25 -73 -80 -148 -80z" />
    <glyph glyph-name="ograve" unicode="&#xf2;" horiz-adv-x="643" 
d="M315 -12c-180 0 -277 109 -277 280c0 181 113 292 286 292c194 0 281 -109 281 -287c0 -186 -122 -285 -290 -285zM323 121c90 0 112 59 112 152c0 88 -22 155 -114 155c-90 0 -115 -67 -115 -156c0 -94 28 -151 117 -151zM402 602l-244 104l54 117l238 -121z" />
    <glyph glyph-name="oacute" unicode="&#xf3;" horiz-adv-x="643" 
d="M315 -12c-180 0 -277 109 -277 280c0 181 113 292 286 292c194 0 281 -109 281 -287c0 -186 -122 -285 -290 -285zM323 121c90 0 112 59 112 152c0 88 -22 155 -114 155c-90 0 -115 -67 -115 -156c0 -94 28 -151 117 -151zM232 602l-47 100l238 121l54 -117z" />
    <glyph glyph-name="ocircumflex" unicode="&#xf4;" horiz-adv-x="643" 
d="M315 -12c-180 0 -277 109 -277 280c0 181 113 292 286 292c194 0 281 -109 281 -287c0 -186 -122 -285 -290 -285zM323 121c90 0 112 59 112 152c0 88 -22 155 -114 155c-90 0 -115 -67 -115 -156c0 -94 28 -151 117 -151zM451 606l-129 90l-128 -89l-73 92l202 130
l196 -131z" />
    <glyph glyph-name="otilde" unicode="&#xf5;" horiz-adv-x="643" 
d="M315 -12c-180 0 -277 109 -277 280c0 181 113 292 286 292c194 0 281 -109 281 -287c0 -186 -122 -285 -290 -285zM323 121c90 0 112 59 112 152c0 88 -22 155 -114 155c-90 0 -115 -67 -115 -156c0 -94 28 -151 117 -151zM375 634c-51 0 -89 38 -128 38
c-19 0 -40 -2 -70 -28l-63 74c24 29 77 82 144 82c63 0 89 -38 123 -38c32 0 51 7 87 26l55 -74c-23 -25 -73 -80 -148 -80z" />
    <glyph glyph-name="odieresis" unicode="&#xf6;" horiz-adv-x="643" 
d="M315 -12c-180 0 -277 109 -277 280c0 181 113 292 286 292c194 0 281 -109 281 -287c0 -186 -122 -285 -290 -285zM323 121c90 0 112 59 112 152c0 88 -22 155 -114 155c-90 0 -115 -67 -115 -156c0 -94 28 -151 117 -151zM204 622l-93 94l93 94l94 -94zM448 622l-94 94
l94 94l93 -94z" />
    <glyph glyph-name="divide" unicode="&#xf7;" horiz-adv-x="600" 
d="M230 46v128h138v-128h-138zM39 242v126h524v-126h-524zM230 433v128h138v-128h-138z" />
    <glyph glyph-name="oslash" unicode="&#xf8;" horiz-adv-x="643" 
d="M76 -22l-50 49l62 62c-33 47 -50 107 -50 179c0 181 113 292 286 292c77 0 137 -17 181 -49l59 59l49 -49l-58 -59c34 -48 50 -112 50 -189c0 -186 -122 -285 -290 -285c-74 0 -133 18 -178 51zM323 121c90 0 112 59 112 152c0 22 -1 44 -5 63l-187 -189
c19 -17 44 -26 80 -26zM211 214l186 188c-17 17 -42 26 -76 26c-90 0 -115 -67 -115 -156c0 -21 1 -41 5 -58z" />
    <glyph glyph-name="ugrave" unicode="&#xf9;" horiz-adv-x="664" 
d="M251 -12c-171 0 -183 95 -183 219v339h166v-325c0 -75 17 -88 73 -88c50 0 95 14 122 27v386h167v-546h-167v56c-33 -25 -105 -68 -178 -68zM394 602l-244 104l54 117l238 -121z" />
    <glyph glyph-name="uacute" unicode="&#xfa;" horiz-adv-x="664" 
d="M251 -12c-171 0 -183 95 -183 219v339h166v-325c0 -75 17 -88 73 -88c50 0 95 14 122 27v386h167v-546h-167v56c-33 -25 -105 -68 -178 -68zM273 607l-47 100l238 121l54 -117z" />
    <glyph glyph-name="ucircumflex" unicode="&#xfb;" horiz-adv-x="664" 
d="M251 -12c-171 0 -183 95 -183 219v339h166v-325c0 -75 17 -88 73 -88c50 0 95 14 122 27v386h167v-546h-167v56c-33 -25 -105 -68 -178 -68zM462 606l-129 90l-128 -89l-73 92l202 130l196 -131z" />
    <glyph glyph-name="udieresis" unicode="&#xfc;" horiz-adv-x="664" 
d="M251 -12c-171 0 -183 95 -183 219v339h166v-325c0 -75 17 -88 73 -88c50 0 95 14 122 27v386h167v-546h-167v56c-33 -25 -105 -68 -178 -68zM215 622l-93 94l93 94l94 -94zM459 622l-94 94l94 94l93 -94z" />
    <glyph glyph-name="yacute" unicode="&#xfd;" horiz-adv-x="616" 
d="M182 -220l74 220h-60l-188 546h179l94 -324l23 -89l27 89l109 324h168l-267 -766h-159zM250 602l-47 100l238 121l54 -117z" />
    <glyph glyph-name="thorn" unicode="&#xfe;" horiz-adv-x="645" 
d="M68 -220v975h166v-248c22 19 82 53 132 53c150 0 241 -69 241 -262c0 -228 -147 -308 -306 -308c-25 0 -47 3 -67 4v-214h-166zM305 117c85 0 134 74 134 176c0 98 -39 127 -123 127c-28 0 -61 -8 -82 -15v-282c16 -2 44 -6 71 -6z" />
    <glyph glyph-name="ydieresis" unicode="&#xff;" horiz-adv-x="616" 
d="M182 -220l74 220h-60l-188 546h179l94 -324l23 -89l27 89l109 324h168l-267 -766h-159zM191 622l-93 94l93 94l94 -94zM435 622l-94 94l94 94l93 -94z" />
    <glyph glyph-name="Amacron" unicode="&#x100;" horiz-adv-x="751" 
d="M11 0l272 707h219l238 -707h-176l-67 207h-239l-77 -207h-170zM303 330h154l-71 272zM228 765v129h328v-129h-328z" />
    <glyph glyph-name="amacron" unicode="&#x101;" horiz-adv-x="627" 
d="M226 -9c-120 0 -188 56 -188 165c0 138 126 166 234 166h95v34c0 48 -31 62 -99 62c-54 0 -112 -12 -163 -24l-33 121c62 24 134 44 221 44c169 0 237 -48 237 -171v-243c0 -18 18 -22 49 -23l-6 -126c-13 -1 -26 -1 -39 -1c-66 0 -136 11 -151 58
c-40 -31 -97 -62 -157 -62zM261 120c32 0 70 9 106 19v86l-82 -2c-49 -1 -85 -17 -85 -57c0 -32 31 -46 61 -46zM146 647v129h328v-129h-328z" />
    <glyph glyph-name="Abreve" unicode="&#x102;" horiz-adv-x="751" 
d="M11 0l272 707h219l238 -707h-176l-67 207h-239l-77 -207h-170zM303 330h154l-71 272zM393 754c-109 0 -171 63 -201 111l86 74c36 -34 76 -62 119 -62c42 0 80 27 114 62l81 -73c-32 -47 -95 -112 -199 -112z" />
    <glyph glyph-name="abreve" unicode="&#x103;" horiz-adv-x="627" 
d="M226 -9c-120 0 -188 56 -188 165c0 138 126 166 234 166h95v34c0 48 -31 62 -99 62c-54 0 -112 -12 -163 -24l-33 121c62 24 134 44 221 44c169 0 237 -48 237 -171v-243c0 -18 18 -22 49 -23l-6 -126c-13 -1 -26 -1 -39 -1c-66 0 -136 11 -151 58
c-40 -31 -97 -62 -157 -62zM261 120c32 0 70 9 106 19v86l-82 -2c-49 -1 -85 -17 -85 -57c0 -32 31 -46 61 -46zM315 614c-109 0 -171 63 -201 111l86 74c36 -34 76 -62 119 -62c42 0 80 27 114 62l81 -73c-32 -47 -95 -112 -199 -112z" />
    <glyph glyph-name="Aogonek" unicode="&#x104;" horiz-adv-x="751" 
d="M767 -234c-34 -15 -63 -26 -124 -26c-118 0 -167 34 -167 112c0 43 33 90 88 148l-67 208h-239l-77 -208h-170l272 707h219l237 -707c-47 -30 -105 -74 -105 -114c0 -18 19 -22 33 -22c19 0 49 2 72 9zM457 331l-38 138l-33 133l-39 -133l-44 -138h154z" />
    <glyph glyph-name="aogonek" unicode="&#x105;" horiz-adv-x="627" 
d="M586 -234c-34 -15 -63 -26 -124 -26c-118 0 -152 51 -152 111c0 58 62 112 117 149c-18 9 -39 35 -44 53c-40 -31 -97 -61 -157 -61c-120 0 -188 53 -188 162c0 138 126 161 234 161h95v47c0 48 -31 56 -99 56c-54 0 -112 -12 -163 -24l-33 121c64 24 134 44 221 44
c115 0 237 -7 237 -165v-249c0 -18 18 -22 49 -23l-8 -127c-45 -30 -118 -71 -118 -109c0 -18 19 -22 33 -22c19 0 49 2 72 9zM367 139v79l-82 -2c-86 -2 -84 -29 -84 -53c0 -28 14 -41 45 -41c32 0 85 7 121 17z" />
    <glyph glyph-name="Cacute" unicode="&#x106;" horiz-adv-x="686" 
d="M435 -10c-259 0 -392 127 -392 359c0 246 131 368 388 368c105 0 167 -19 220 -43l-45 -123c-67 18 -95 25 -173 26c-128 2 -217 -70 -217 -218s94 -227 237 -227c69 0 110 6 164 20l36 -128c-68 -25 -127 -34 -218 -34zM296 744l-23 113l271 67l27 -131z" />
    <glyph glyph-name="cacute" unicode="&#x107;" horiz-adv-x="537" 
d="M356 -11c-231 0 -318 85 -318 289c0 170 114 282 299 282c80 0 131 -15 174 -38l-43 -121c-44 17 -68 23 -124 23c-69 0 -135 -31 -135 -148c0 -105 25 -154 156 -154c46 0 71 6 116 14l23 -127c-59 -13 -87 -20 -148 -20zM215 602l-47 100l238 121l54 -117z" />
    <glyph glyph-name="Ccircumflex" unicode="&#x108;" horiz-adv-x="686" 
d="M435 -10c-259 0 -392 127 -392 359c0 246 131 368 388 368c105 0 167 -19 220 -43l-45 -123c-67 18 -95 25 -173 26c-128 2 -217 -70 -217 -218s94 -227 237 -227c69 0 110 6 164 20l36 -128c-68 -25 -127 -34 -218 -34zM301 741l-58 107l191 96l192 -96l-59 -107
l-133 61z" />
    <glyph glyph-name="ccircumflex" unicode="&#x109;" horiz-adv-x="537" 
d="M356 -11c-231 0 -318 85 -318 289c0 170 114 282 299 282c80 0 131 -15 174 -38l-43 -121c-44 17 -68 23 -124 23c-69 0 -135 -31 -135 -148c0 -105 25 -154 156 -154c46 0 71 6 116 14l23 -127c-59 -13 -87 -20 -148 -20zM454 606l-129 90l-128 -89l-73 92l202 130
l196 -131z" />
    <glyph glyph-name="Cdotaccent" unicode="&#x10a;" horiz-adv-x="686" 
d="M435 -10c-259 0 -392 127 -392 359c0 246 131 368 388 368c105 0 167 -19 220 -43l-45 -123c-67 18 -95 25 -173 26c-128 2 -217 -70 -217 -218s94 -227 237 -227c69 0 110 6 164 20l36 -128c-68 -25 -127 -34 -218 -34zM516 849l-94 -94l-94 94l94 94z" />
    <glyph glyph-name="cdotaccent" unicode="&#x10b;" horiz-adv-x="537" 
d="M356 -11c-231 0 -318 85 -318 289c0 170 114 282 299 282c80 0 131 -15 174 -38l-43 -121c-44 17 -68 23 -124 23c-69 0 -135 -31 -135 -148c0 -105 25 -154 156 -154c46 0 71 6 116 14l23 -127c-59 -13 -87 -20 -148 -20zM330 604l-111 112l111 111l112 -111z" />
    <glyph glyph-name="Ccaron" unicode="&#x10c;" horiz-adv-x="686" 
d="M435 -10c-259 0 -392 127 -392 359c0 246 131 368 388 368c105 0 167 -19 220 -43l-45 -123c-67 18 -95 25 -173 26c-128 2 -217 -70 -217 -218s94 -227 237 -227c69 0 110 6 164 20l36 -128c-68 -25 -127 -34 -218 -34zM609 837l-192 -97l-191 97l58 106l133 -60l133 60
z" />
    <glyph glyph-name="ccaron" unicode="&#x10d;" horiz-adv-x="537" 
d="M356 -11c-231 0 -318 85 -318 289c0 170 114 282 299 282c80 0 131 -15 174 -38l-43 -121c-44 17 -68 23 -124 23c-69 0 -135 -31 -135 -148c0 -105 25 -154 156 -154c46 0 71 6 116 14l23 -127c-59 -13 -87 -20 -148 -20zM302 580l-196 131l68 92l129 -90l128 89l73 -92
z" />
    <glyph glyph-name="Dcaron" unicode="&#x10e;" horiz-adv-x="787" 
d="M78 0v707h253c245 0 413 -105 413 -351c0 -245 -152 -356 -407 -356h-259zM247 133h101c163 0 226 74 226 213c0 152 -76 228 -246 228h-81v-441zM545 837l-192 -97l-191 97l58 106l133 -60l133 60z" />
    <glyph glyph-name="dcaron" unicode="&#x10f;" horiz-adv-x="738" 
d="M283 -8c-110 0 -245 53 -245 290c0 187 131 278 297 278c30 0 55 -4 72 -6v200h167v-754h-167v39c-24 -19 -55 -47 -124 -47zM316 130c30 0 66 8 91 18v273c-17 3 -39 7 -69 7c-95 0 -134 -54 -134 -149c0 -119 53 -149 112 -149zM772 754l-45 -220h-116l21 220h140z" />
    <glyph glyph-name="Dcroat" unicode="&#x110;" horiz-adv-x="787" 
d="M744 356c0 -245 -152 -356 -407 -356h-259v299h-74v100h74v308h253c245 0 413 -105 413 -351zM574 346c0 152 -76 228 -246 228h-81v-175h131v-100h-131v-166h101c163 0 226 74 226 213z" />
    <glyph glyph-name="dcroat" unicode="&#x111;" horiz-adv-x="642" 
d="M574 0h-167v39c-24 -19 -55 -46 -124 -46c-110 0 -245 52 -245 289c0 187 131 288 297 288c30 0 55 -4 72 -6v47h-102v79h102v64h167v-64h59v-79h-59v-611zM407 148v283c-17 3 -39 7 -69 7c-95 0 -134 -64 -134 -159c0 -119 53 -148 112 -148c30 0 66 7 91 17z" />
    <glyph glyph-name="Emacron" unicode="&#x112;" horiz-adv-x="613" 
d="M78 0v707h464v-133h-294v-157h272v-124h-272v-160h317v-133h-487zM151 765v129h328v-129h-328z" />
    <glyph glyph-name="emacron" unicode="&#x113;" horiz-adv-x="596" 
d="M334 -12c-180 0 -296 59 -296 277c0 223 117 294 282 294c172 0 238 -112 238 -277v-60h-354c-1 -86 67 -102 154 -102c37 0 99 12 156 22l25 -127c-61 -18 -139 -27 -205 -27zM209 329h178c2 66 -27 112 -81 112c-57 0 -94 -40 -97 -112zM146 647v129h328v-129h-328z
" />
    <glyph glyph-name="Ebreve" unicode="&#x114;" horiz-adv-x="613" 
d="M78 0v707h464v-133h-294v-157h272v-124h-272v-160h317v-133h-487zM314 754c-109 0 -171 63 -201 111l86 74c36 -34 76 -62 119 -62c42 0 80 27 114 62l81 -73c-32 -47 -95 -112 -199 -112z" />
    <glyph glyph-name="ebreve" unicode="&#x115;" horiz-adv-x="596" 
d="M334 -12c-180 0 -296 59 -296 277c0 223 117 294 282 294c172 0 238 -112 238 -277v-60h-354c-1 -86 67 -102 154 -102c37 0 99 12 156 22l25 -127c-61 -18 -139 -27 -205 -27zM209 329h178c2 66 -27 112 -81 112c-57 0 -94 -40 -97 -112zM314 614
c-109 0 -171 63 -201 111l86 74c36 -34 76 -62 119 -62c42 0 80 27 114 62l81 -73c-32 -47 -95 -112 -199 -112z" />
    <glyph glyph-name="Edotaccent" unicode="&#x116;" horiz-adv-x="613" 
d="M78 0v707h464v-133h-294v-157h272v-124h-272v-160h317v-133h-487zM414 849l-94 -94l-94 94l94 94z" />
    <glyph glyph-name="edotaccent" unicode="&#x117;" horiz-adv-x="596" 
d="M334 -12c-180 0 -296 59 -296 277c0 223 117 294 282 294c172 0 238 -112 238 -277v-60h-354c-1 -86 67 -102 154 -102c37 0 99 12 156 22l25 -127c-61 -18 -139 -27 -205 -27zM209 329h178c2 66 -27 112 -81 112c-57 0 -94 -40 -97 -112zM311 604l-111 112l111 111
l112 -111z" />
    <glyph glyph-name="Eogonek" unicode="&#x118;" horiz-adv-x="613" 
d="M572 -234c-34 -15 -63 -26 -124 -26c-118 0 -153 43 -153 102c0 76 80 129 126 158h-343v707h464v-133h-294v-157h272v-124h-272v-160h317v-133c-48 -31 -126 -74 -126 -114c0 -18 19 -22 33 -22c19 0 49 2 72 9z" />
    <glyph glyph-name="eogonek" unicode="&#x119;" horiz-adv-x="596" 
d="M422 -260c-108 0 -153 38 -153 116c0 49 40 100 79 135c-14 -1 -28 -2 -41 -2c-161 0 -269 75 -269 276c0 223 117 294 282 294c172 0 238 -112 238 -277v-60h-354c-1 -86 67 -102 154 -102c37 0 99 10 156 20l24 -127c-53 -30 -117 -81 -117 -127c0 -18 19 -22 33 -22
c19 0 49 2 72 9l28 -107c-34 -15 -71 -26 -132 -26zM209 330h178c2 66 -27 112 -79 112c-54 0 -96 -40 -99 -112z" />
    <glyph glyph-name="Ecaron" unicode="&#x11a;" horiz-adv-x="613" 
d="M78 0v707h464v-133h-294v-157h272v-124h-272v-160h317v-133h-487zM503 837l-192 -97l-191 97l58 106l133 -60l133 60z" />
    <glyph glyph-name="ecaron" unicode="&#x11b;" horiz-adv-x="596" 
d="M334 -12c-180 0 -296 59 -296 277c0 223 117 294 282 294c172 0 238 -112 238 -277v-60h-354c-1 -86 67 -102 154 -102c37 0 99 12 156 22l25 -127c-61 -18 -139 -27 -205 -27zM209 329h178c2 66 -27 112 -81 112c-57 0 -94 -40 -97 -112zM305 580l-196 131l68 92
l129 -90l128 89l73 -92z" />
    <glyph glyph-name="Gcircumflex" unicode="&#x11c;" horiz-adv-x="734" 
d="M431 -10c-235 0 -388 114 -388 359c0 256 139 368 396 368c100 0 156 -20 212 -43l-45 -123c-67 17 -98 26 -170 26c-126 0 -220 -62 -220 -218s104 -227 233 -227c16 0 31 1 45 1v217h170v-319c-80 -31 -147 -41 -233 -41zM290 741l-58 107l191 96l192 -96l-59 -107
l-133 61z" />
    <glyph glyph-name="gcircumflex" unicode="&#x11d;" horiz-adv-x="642" 
d="M302 -221c-85 0 -163 16 -226 33l26 131c67 -14 138 -24 178 -24c80 0 128 10 128 89v11c-23 -16 -57 -28 -89 -28c-132 0 -281 30 -281 279c0 187 138 290 303 290c81 0 144 -10 233 -28v-537c0 -160 -152 -216 -272 -216zM328 118c28 0 52 1 79 9v286
c-18 5 -39 10 -67 10c-95 0 -136 -59 -136 -153c0 -118 50 -152 124 -152zM483 606l-129 90l-128 -89l-73 92l202 130l196 -131z" />
    <glyph glyph-name="Gbreve" unicode="&#x11e;" horiz-adv-x="734" 
d="M431 -10c-235 0 -388 114 -388 359c0 256 139 368 396 368c100 0 156 -20 212 -43l-45 -123c-67 17 -98 26 -170 26c-126 0 -220 -62 -220 -218s104 -227 233 -227c16 0 31 1 45 1v217h170v-319c-80 -31 -147 -41 -233 -41zM419 754c-109 0 -171 63 -201 111l86 74
c36 -34 76 -62 119 -62c42 0 80 27 114 62l81 -73c-32 -47 -95 -112 -199 -112z" />
    <glyph glyph-name="gbreve" unicode="&#x11f;" horiz-adv-x="642" 
d="M302 -221c-85 0 -163 16 -226 33l26 131c67 -14 138 -24 178 -24c80 0 128 10 128 89v11c-23 -16 -57 -28 -89 -28c-132 0 -281 30 -281 279c0 187 138 290 303 290c81 0 144 -10 233 -28v-537c0 -160 -152 -216 -272 -216zM328 118c28 0 52 1 79 9v286
c-18 5 -39 10 -67 10c-95 0 -136 -59 -136 -153c0 -118 50 -152 124 -152zM339 614c-109 0 -171 63 -201 111l86 74c36 -34 76 -62 119 -62c42 0 80 27 114 62l81 -73c-32 -47 -95 -112 -199 -112z" />
    <glyph glyph-name="Gdotaccent" unicode="&#x120;" horiz-adv-x="734" 
d="M431 -10c-235 0 -388 114 -388 359c0 256 139 368 396 368c100 0 156 -20 212 -43l-45 -123c-67 17 -98 26 -170 26c-126 0 -220 -62 -220 -218s104 -227 233 -227c16 0 31 1 45 1v217h170v-319c-80 -31 -147 -41 -233 -41zM535 849l-94 -94l-94 94l94 94z" />
    <glyph glyph-name="gdotaccent" unicode="&#x121;" horiz-adv-x="642" 
d="M302 -221c-85 0 -163 16 -226 33l26 131c67 -14 138 -24 178 -24c80 0 128 10 128 89v11c-23 -16 -57 -28 -89 -28c-132 0 -281 30 -281 279c0 187 138 290 303 290c81 0 144 -10 233 -28v-537c0 -160 -152 -216 -272 -216zM328 118c28 0 52 1 79 9v286
c-18 5 -39 10 -67 10c-95 0 -136 -59 -136 -153c0 -118 50 -152 124 -152zM360 604l-111 112l111 111l112 -111z" />
    <glyph glyph-name="Gcommaaccent" unicode="&#x122;" horiz-adv-x="734" 
d="M431 -10c-235 0 -388 114 -388 359c0 256 139 368 396 368c100 0 156 -20 212 -43l-45 -123c-67 17 -98 26 -170 26c-126 0 -220 -62 -220 -218s104 -227 233 -227c16 0 31 1 45 1v217h170v-319c-80 -31 -147 -41 -233 -41zM516 -58l-45 -220h-116l21 220h140z" />
    <glyph glyph-name="gcommaaccent" unicode="&#x123;" horiz-adv-x="642" 
d="M275 603l53 200h134l-31 -200h-156zM302 -221c-85 0 -163 16 -226 33l26 131c67 -14 138 -24 178 -24c80 0 128 10 128 89v11c-23 -16 -57 -28 -89 -28c-132 0 -281 30 -281 279c0 187 138 290 303 290c81 0 144 -10 233 -28v-537c0 -160 -152 -216 -272 -216zM328 118
c28 0 52 1 79 9v286c-18 5 -39 10 -67 10c-95 0 -136 -59 -136 -153c0 -118 50 -152 124 -152z" />
    <glyph glyph-name="Hcircumflex" unicode="&#x124;" horiz-adv-x="796" 
d="M78 0v707h170v-287h300v287h170v-707h-170v291h-300v-291h-170zM265 741l-58 107l191 96l192 -96l-59 -107l-133 61z" />
    <glyph glyph-name="hcircumflex" unicode="&#x125;" horiz-adv-x="664" 
d="M68 0v754h167v-263c33 25 105 71 178 71c171 0 183 -95 183 -219v-343h-166v329c0 75 -17 88 -73 88c-50 0 -95 -17 -122 -30v-387h-167zM18 765l-58 107l191 96l192 -96l-59 -107l-133 61z" />
    <glyph glyph-name="Hbar" unicode="&#x126;" horiz-adv-x="796" 
d="M78 0v517h-50v79h50v110h170v-110h300v110h170v-110h48v-79h-48v-517h-170v291h-300v-291h-170zM248 420h300v97h-300v-97z" />
    <glyph glyph-name="hbar" unicode="&#x127;" horiz-adv-x="664" 
d="M68 0v611h-60v79h60v64h167v-64h101v-79h-101v-120c33 25 105 71 178 71c171 0 183 -95 183 -219v-343h-166v329c0 75 -17 88 -73 88c-50 0 -95 -17 -122 -30v-387h-167z" />
    <glyph glyph-name="Itilde" unicode="&#x128;" horiz-adv-x="326" 
d="M78 0v707h170v-707h-170zM216 755c-51 0 -89 38 -128 38c-19 0 -40 -2 -70 -28l-63 74c24 29 77 82 144 82c63 0 89 -38 123 -38c32 0 51 7 87 26l55 -74c-23 -25 -73 -80 -148 -80z" />
    <glyph glyph-name="itilde" unicode="&#x129;" horiz-adv-x="303" 
d="M68 0v546h167v-546h-167zM205 634c-51 0 -89 38 -128 38c-19 0 -40 -2 -70 -28l-63 74c24 29 77 82 144 82c63 0 89 -38 123 -38c32 0 51 7 87 26l55 -74c-23 -25 -73 -80 -148 -80z" />
    <glyph glyph-name="Imacron" unicode="&#x12a;" horiz-adv-x="326" 
d="M78 0v707h170v-707h-170zM-3 765v129h328v-129h-328z" />
    <glyph glyph-name="imacron" unicode="&#x12b;" horiz-adv-x="303" 
d="M68 0v546h167v-546h-167zM-12 647v129h328v-129h-328z" />
    <glyph glyph-name="Ibreve" unicode="&#x12c;" horiz-adv-x="326" 
d="M78 0v707h170v-707h-170zM163 754c-109 0 -171 63 -201 111l86 74c36 -34 76 -62 119 -62c42 0 80 27 114 62l81 -73c-32 -47 -95 -112 -199 -112z" />
    <glyph glyph-name="ibreve" unicode="&#x12d;" horiz-adv-x="303" 
d="M68 0v546h167v-546h-167zM148 614c-109 0 -171 63 -201 111l86 74c36 -34 76 -62 119 -62c42 0 80 27 114 62l81 -73c-32 -47 -95 -112 -199 -112z" />
    <glyph glyph-name="Iogonek" unicode="&#x12e;" horiz-adv-x="326" 
d="M285 -234c-34 -15 -63 -26 -124 -26c-118 0 -154 46 -154 124c0 45 32 85 71 120v722h170v-706c-48 -31 -96 -74 -96 -114c0 -18 19 -22 33 -22c19 0 49 2 72 9z" />
    <glyph glyph-name="iogonek" unicode="&#x12f;" horiz-adv-x="303" 
d="M148 -260c-118 0 -157 46 -157 124c0 46 37 92 78 127v555h166v-546c-48 -31 -110 -74 -110 -114c0 -18 20 -27 42 -27c24 0 54 7 77 14l28 -107c-34 -15 -63 -26 -124 -26zM151 604l-111 112l111 111l112 -111z" />
    <glyph glyph-name="Idotaccent" unicode="&#x130;" horiz-adv-x="326" 
d="M78 0v707h170v-707h-170zM255 849l-94 -94l-94 94l94 94z" />
    <glyph glyph-name="dotlessi" unicode="&#x131;" horiz-adv-x="303" 
d="M68 0v546h167v-546h-167z" />
    <glyph glyph-name="IJ" unicode="&#x132;" horiz-adv-x="641" 
d="M78 0v707h170v-707h-170zM309 -198l-61 122c119 66 145 109 145 227v556h171v-554c0 -142 -21 -275 -255 -351z" />
    <glyph glyph-name="ij" unicode="&#x133;" horiz-adv-x="600" 
d="M68 0v546h167v-546h-167zM308 -220c-39 0 -95 11 -128 23l31 129s61 -11 92 -11c43 0 60 14 60 82v543h166v-544c0 -190 -105 -222 -221 -222zM150 604l-111 112l111 111l112 -111zM446 604l-111 112l111 111l112 -111z" />
    <glyph glyph-name="Jcircumflex" unicode="&#x134;" horiz-adv-x="326" 
d="M-6 -198l-61 122c119 66 145 109 145 227v556h171v-554c0 -142 -21 -275 -255 -351zM27 741l-58 107l191 96l192 -96l-59 -107l-133 61z" />
    <glyph glyph-name="jcircumflex" unicode="&#x135;" horiz-adv-x="303" 
d="M14 -220c-39 0 -95 11 -128 23l31 129s61 -11 92 -11c43 0 60 14 60 82v543h166v-544c0 -190 -105 -222 -221 -222zM280 606l-129 90l-128 -89l-73 92l202 130l196 -131z" />
    <glyph glyph-name="Kcommaaccent" unicode="&#x136;" horiz-adv-x="731" 
d="M78 0v707h170v-303l242 303h217l-286 -331l302 -376h-217l-258 355v-355h-170zM442 -58l-45 -220h-116l21 220h140z" />
    <glyph glyph-name="kcommaaccent" unicode="&#x137;" horiz-adv-x="596" 
d="M68 0v754h167v-412l151 203h179l-199 -251l78 -89c38 -43 70 -73 139 -91l-19 -126c-87 4 -162 14 -232 107l-97 127v-222h-167zM399 -58l-45 -220h-116l21 220h140z" />
    <glyph glyph-name="Lacute" unicode="&#x139;" horiz-adv-x="573" 
d="M78 0v707h170v-573h307v-134h-477zM93 744l-23 113l271 67l27 -131z" />
    <glyph glyph-name="lacute" unicode="&#x13a;" horiz-adv-x="303" 
d="M68 0v754h167v-754h-167zM82 797l-23 113l271 67l27 -131z" />
    <glyph glyph-name="Lcommaaccent" unicode="&#x13b;" horiz-adv-x="573" 
d="M78 0v707h170v-573h307v-134h-477zM375 -58l-45 -220h-116l21 220h140z" />
    <glyph glyph-name="lcommaaccent" unicode="&#x13c;" horiz-adv-x="303" 
d="M68 0v754h167v-754h-167zM222 -58l-45 -220h-116l21 220h140z" />
    <glyph glyph-name="Lcaron" unicode="&#x13d;" horiz-adv-x="573" 
d="M78 0v707h170v-573h307v-134h-477zM525 793l-45 -220h-116l21 220h140z" />
    <glyph glyph-name="lcaron" unicode="&#x13e;" horiz-adv-x="410" 
d="M68 0v754h167v-754h-167zM436 754l-45 -220h-116l21 220h140z" />
    <glyph glyph-name="Ldot" unicode="&#x13f;" horiz-adv-x="573" 
d="M78 0v707h170v-573h307v-134h-477zM446 273l-115 116l115 115l115 -115z" />
    <glyph glyph-name="ldot" unicode="&#x140;" horiz-adv-x="489" 
d="M68 0v754h167v-754h-167zM389 273l-115 116l115 115l115 -115z" />
    <glyph glyph-name="Lslash" unicode="&#x141;" horiz-adv-x="573" 
d="M555 0h-477v257l-70 -41v114l70 40v337h170v-239l108 62v-112l-108 -63v-221h307v-134z" />
    <glyph glyph-name="lslash" unicode="&#x142;" horiz-adv-x="303" 
d="M326 448l-91 -53v-395h-167v299l-90 -53l-1 114l91 52v342h167v-246l91 52v-112z" />
    <glyph glyph-name="Nacute" unicode="&#x143;" horiz-adv-x="796" 
d="M78 0v707h197l278 -485l-5 79v406h170v-707h-203l-271 473l4 -94v-379h-170zM289 744l-23 113l271 67l27 -131z" />
    <glyph glyph-name="nacute" unicode="&#x144;" horiz-adv-x="664" 
d="M68 0v546h167v-55c33 25 105 69 178 69c171 0 183 -94 183 -218v-342h-166v328c0 75 -17 88 -73 88c-50 0 -95 -16 -122 -29v-387h-167zM257 602l-47 100l238 121l54 -117z" />
    <glyph glyph-name="Ncommaaccent" unicode="&#x145;" horiz-adv-x="796" 
d="M78 0v707h197l278 -485l-5 79v406h170v-707h-203l-271 473l4 -94v-379h-170zM471 -58l-45 -220h-116l21 220h140z" />
    <glyph glyph-name="ncommaaccent" unicode="&#x146;" horiz-adv-x="664" 
d="M68 0v546h167v-55c33 25 105 69 178 69c171 0 183 -94 183 -218v-342h-166v328c0 75 -17 88 -73 88c-50 0 -95 -16 -122 -29v-387h-167zM405 -58l-45 -220h-116l21 220h140z" />
    <glyph glyph-name="Ncaron" unicode="&#x147;" horiz-adv-x="796" 
d="M78 0v707h197l278 -485l-5 79v406h170v-707h-203l-271 473l4 -94v-379h-170zM587 837l-192 -97l-191 97l58 106l133 -60l133 60z" />
    <glyph glyph-name="ncaron" unicode="&#x148;" horiz-adv-x="664" 
d="M68 0v546h167v-55c33 25 105 69 178 69c171 0 183 -94 183 -218v-342h-166v328c0 75 -17 88 -73 88c-50 0 -95 -16 -122 -29v-387h-167zM328 580l-196 131l68 92l129 -90l128 89l73 -92z" />
    <glyph glyph-name="napostrophe" unicode="&#x149;" horiz-adv-x="664" 
d="M68 0v546h167v-55c33 25 105 69 178 69c171 0 183 -94 183 -218v-342h-166v328c0 75 -17 88 -73 88c-50 0 -95 -16 -122 -29v-387h-167zM-128 485c31 57 32 115 32 134v136h151v-98c0 -63 -25 -126 -63 -172h-120z" />
    <glyph glyph-name="Eng" unicode="&#x14a;" horiz-adv-x="796" 
d="M496 -220c-39 0 -95 11 -128 23l31 129s61 -11 92 -11c37 0 60 13 60 59v20h-36l-271 473l4 -94v-379h-170v707h197l278 -485l-5 79v406h170l-1 -707c-1 -188 -106 -220 -221 -220z" />
    <glyph glyph-name="eng" unicode="&#x14b;" horiz-adv-x="664" 
d="M596 2c0 -190 -105 -222 -221 -222c-39 0 -95 11 -128 23l31 129s61 -11 92 -11c43 0 60 14 60 82v326c0 75 -17 88 -73 88c-50 0 -95 -17 -122 -30v-387h-167v546h167v-55c33 25 105 71 178 71c171 0 183 -95 183 -219v-341z" />
    <glyph glyph-name="Omacron" unicode="&#x14c;" horiz-adv-x="843" 
d="M413 -12c-248 0 -370 140 -370 367c0 223 148 363 389 363c257 0 368 -154 368 -365c0 -225 -135 -365 -387 -365zM416 122c156 0 211 100 211 232s-61 230 -204 230c-150 0 -208 -98 -208 -228c0 -129 57 -234 201 -234zM266 765v129h328v-129h-328z" />
    <glyph glyph-name="omacron" unicode="&#x14d;" horiz-adv-x="643" 
d="M315 -12c-180 0 -277 109 -277 280c0 181 113 292 286 292c194 0 281 -109 281 -287c0 -186 -122 -285 -290 -285zM323 121c90 0 112 59 112 152c0 88 -22 155 -114 155c-90 0 -115 -67 -115 -156c0 -94 28 -151 117 -151zM154 647v129h328v-129h-328z" />
    <glyph glyph-name="Obreve" unicode="&#x14e;" horiz-adv-x="843" 
d="M413 -12c-248 0 -370 140 -370 367c0 223 148 363 389 363c257 0 368 -154 368 -365c0 -225 -135 -365 -387 -365zM416 122c156 0 211 100 211 232s-61 230 -204 230c-150 0 -208 -98 -208 -228c0 -129 57 -234 201 -234zM426 754c-109 0 -171 63 -201 111l86 74
c36 -34 76 -62 119 -62c42 0 80 27 114 62l81 -73c-32 -47 -95 -112 -199 -112z" />
    <glyph glyph-name="obreve" unicode="&#x14f;" horiz-adv-x="643" 
d="M315 -12c-180 0 -277 109 -277 280c0 181 113 292 286 292c194 0 281 -109 281 -287c0 -186 -122 -285 -290 -285zM323 121c90 0 112 59 112 152c0 88 -22 155 -114 155c-90 0 -115 -67 -115 -156c0 -94 28 -151 117 -151zM323 614c-109 0 -171 63 -201 111l86 74
c36 -34 76 -62 119 -62c42 0 80 27 114 62l81 -73c-32 -47 -95 -112 -199 -112z" />
    <glyph glyph-name="Ohungarumlaut" unicode="&#x150;" horiz-adv-x="843" 
d="M413 -12c-248 0 -370 140 -370 367c0 223 148 363 389 363c257 0 368 -154 368 -365c0 -225 -135 -365 -387 -365zM416 122c156 0 211 100 211 232s-61 230 -204 230c-150 0 -208 -98 -208 -228c0 -129 57 -234 201 -234zM482 889l-234 -154l-67 96l223 167zM780 787
l-276 -49l-23 114l271 66z" />
    <glyph glyph-name="ohungarumlaut" unicode="&#x151;" horiz-adv-x="643" 
d="M315 -12c-180 0 -277 109 -277 280c0 181 113 292 286 292c194 0 281 -109 281 -287c0 -186 -122 -285 -290 -285zM323 121c90 0 112 59 112 152c0 88 -22 155 -114 155c-90 0 -115 -67 -115 -156c0 -94 28 -151 117 -151zM172 595l-72 80l190 181l83 -94zM395 594
l-46 97l236 117l53 -113z" />
    <glyph glyph-name="OE" unicode="&#x152;" horiz-adv-x="1119" 
d="M413 -12c-248 0 -370 140 -370 367c0 239 148 363 389 363c65 0 115 -9 152 -27v16h464v-133h-294v-157h272v-124h-272v-160h317v-133h-487v21c-41 -22 -97 -33 -171 -33zM416 122c81 0 135 27 168 72v318c-33 45 -86 72 -161 72c-150 0 -208 -98 -208 -228
c0 -129 57 -234 201 -234z" />
    <glyph glyph-name="oe" unicode="&#x153;" horiz-adv-x="993" 
d="M315 -12c-180 0 -277 109 -277 280c0 181 113 292 286 292c85 0 150 -21 195 -60c50 42 118 59 198 59c172 0 238 -112 238 -277v-60h-354c0 -74 48 -102 146 -102c37 0 108 9 163 22l26 -129c-61 -18 -139 -22 -205 -22c-93 0 -168 15 -220 59
c-51 -41 -118 -62 -196 -62zM323 121c90 0 112 59 112 152c0 88 -22 155 -114 155c-90 0 -115 -67 -115 -156c0 -94 28 -151 117 -151zM606 330h178c-1 68 -33 112 -83 112c-53 0 -92 -40 -95 -112z" />
    <glyph glyph-name="Racute" unicode="&#x154;" horiz-adv-x="752" 
d="M706 -13c-138 7 -213 79 -287 165l-80 93c-12 -1 -25 -1 -38 -1h-52v-244h-171v707h275c159 0 273 -73 273 -231c0 -79 -38 -148 -114 -191l72 -78c39 -42 83 -70 160 -90zM249 363h58c101 0 144 42 144 109c0 71 -29 101 -120 101h-82v-210zM230 744l-23 113l271 67
l27 -131z" />
    <glyph glyph-name="racute" unicode="&#x155;" horiz-adv-x="441" 
d="M68 0v546h167v-73c27 35 78 84 141 84c30 0 52 -2 75 -9l-22 -137c-32 6 -43 6 -73 6c-49 0 -99 -23 -121 -47v-370h-167zM178 602l-47 100l238 121l54 -117z" />
    <glyph glyph-name="Rcommaaccent" unicode="&#x156;" horiz-adv-x="752" 
d="M706 -13c-138 7 -213 79 -287 165l-80 93c-12 -1 -25 -1 -38 -1h-52v-244h-171v707h275c159 0 273 -73 273 -231c0 -79 -38 -148 -114 -191l72 -78c39 -42 83 -70 160 -90zM249 363h58c101 0 144 42 144 109c0 71 -29 101 -120 101h-82v-210zM476 -58l-45 -220h-116
l21 220h140z" />
    <glyph glyph-name="rcommaaccent" unicode="&#x157;" horiz-adv-x="441" 
d="M68 0v546h167v-73c27 35 78 84 141 84c30 0 52 -2 75 -9l-22 -137c-32 6 -43 6 -73 6c-49 0 -99 -23 -121 -47v-370h-167zM220 -58l-45 -220h-116l21 220h140z" />
    <glyph glyph-name="Rcaron" unicode="&#x158;" horiz-adv-x="752" 
d="M706 -13c-138 7 -213 79 -287 165l-80 93c-12 -1 -25 -1 -38 -1h-52v-244h-171v707h275c159 0 273 -73 273 -231c0 -79 -38 -148 -114 -191l72 -78c39 -42 83 -70 160 -90zM249 363h58c101 0 144 42 144 109c0 71 -29 101 -120 101h-82v-210zM512 837l-192 -97l-191 97
l58 106l133 -60l133 60z" />
    <glyph glyph-name="rcaron" unicode="&#x159;" horiz-adv-x="441" 
d="M68 0v546h167v-73c27 35 78 84 141 84c30 0 52 -2 75 -9l-22 -137c-32 6 -43 6 -73 6c-49 0 -99 -23 -121 -47v-370h-167zM226 580l-196 131l68 92l129 -90l128 89l73 -92z" />
    <glyph glyph-name="Sacute" unicode="&#x15a;" horiz-adv-x="597" 
d="M265 -11c-116 0 -184 21 -237 50l48 122c63 -22 109 -32 187 -32c85 0 124 26 124 69c0 115 -336 84 -336 324c0 136 129 195 254 195c112 0 166 -24 221 -48l-49 -118c-52 15 -95 29 -167 29c-71 0 -93 -27 -93 -57c0 -94 342 -94 342 -319c0 -155 -148 -215 -294 -215z
M196 744l-23 113l271 67l27 -131z" />
    <glyph glyph-name="sacute" unicode="&#x15b;" horiz-adv-x="512" 
d="M234 -12c-79 0 -143 7 -199 23l18 126c71 -10 128 -15 165 -15c84 0 94 22 94 38c0 59 -275 31 -275 227c0 118 111 173 230 173c67 0 127 -11 184 -31l-28 -121c-53 12 -95 20 -151 20c-57 0 -68 -21 -68 -33c0 -62 273 -45 273 -228c0 -144 -151 -179 -243 -179z
M167 602l-47 100l238 121l54 -117z" />
    <glyph glyph-name="Scircumflex" unicode="&#x15c;" horiz-adv-x="597" 
d="M265 -11c-116 0 -184 21 -237 50l48 122c63 -22 109 -32 187 -32c85 0 124 26 124 69c0 115 -336 84 -336 324c0 136 129 195 254 195c112 0 166 -24 221 -48l-49 -118c-52 15 -95 29 -167 29c-71 0 -93 -27 -93 -57c0 -94 342 -94 342 -319c0 -155 -148 -215 -294 -215z
M182 741l-58 107l191 96l192 -96l-59 -107l-133 61z" />
    <glyph glyph-name="scircumflex" unicode="&#x15d;" horiz-adv-x="512" 
d="M234 -12c-79 0 -143 7 -199 23l18 126c71 -10 128 -15 165 -15c84 0 94 22 94 38c0 59 -275 31 -275 227c0 118 111 173 230 173c67 0 127 -11 184 -31l-28 -121c-53 12 -95 20 -151 20c-57 0 -68 -21 -68 -33c0 -62 273 -45 273 -228c0 -144 -151 -179 -243 -179z
M386 606l-129 90l-128 -89l-73 92l202 130l196 -131z" />
    <glyph glyph-name="Scedilla" unicode="&#x15e;" horiz-adv-x="597" 
d="M265 -11c-116 0 -184 21 -237 50l48 122c63 -22 109 -32 187 -32c85 0 124 26 124 69c0 115 -336 84 -336 324c0 136 129 195 254 195c112 0 166 -24 221 -48l-49 -118c-52 15 -95 29 -167 29c-71 0 -93 -27 -93 -57c0 -94 342 -94 342 -319c0 -155 -148 -215 -294 -215z
M223 -283l-57 100c25 15 76 35 76 70c0 20 -7 42 -12 62h129c11 -25 22 -53 22 -81c0 -81 -95 -125 -158 -151z" />
    <glyph glyph-name="scedilla" unicode="&#x15f;" horiz-adv-x="512" 
d="M234 -12c-79 0 -143 7 -199 23l18 126c71 -10 128 -15 165 -15c84 0 94 22 94 38c0 59 -275 31 -275 227c0 118 111 173 230 173c67 0 127 -11 184 -31l-28 -121c-53 12 -95 20 -151 20c-57 0 -68 -21 -68 -33c0 -62 273 -45 273 -228c0 -144 -151 -179 -243 -179z
M211 -283l-57 100c25 15 76 35 76 70c0 20 -7 42 -12 62h129c11 -25 22 -53 22 -81c0 -81 -95 -125 -158 -151z" />
    <glyph glyph-name="Scaron" unicode="&#x160;" horiz-adv-x="597" 
d="M265 -11c-116 0 -184 21 -237 50l48 122c63 -22 109 -32 187 -32c85 0 124 26 124 69c0 115 -336 84 -336 324c0 136 129 195 254 195c112 0 166 -24 221 -48l-49 -118c-52 15 -95 29 -167 29c-71 0 -93 -27 -93 -57c0 -94 342 -94 342 -319c0 -155 -148 -215 -294 -215z
M483 837l-192 -97l-191 97l58 106l133 -60l133 60z" />
    <glyph glyph-name="scaron" unicode="&#x161;" horiz-adv-x="512" 
d="M234 -12c-79 0 -143 7 -199 23l18 126c71 -10 128 -15 165 -15c84 0 94 22 94 38c0 59 -275 31 -275 227c0 118 111 173 230 173c67 0 127 -11 184 -31l-28 -121c-53 12 -95 20 -151 20c-57 0 -68 -21 -68 -33c0 -62 273 -45 273 -228c0 -144 -151 -179 -243 -179z
M252 580l-196 131l68 92l129 -90l128 89l73 -92z" />
    <glyph glyph-name="Tcommaaccent" unicode="&#x162;" horiz-adv-x="630" 
d="M230 0v574h-222v133h614v-133h-222v-574h-170zM384 -58l-45 -220h-116l21 220h140z" />
    <glyph glyph-name="tcommaaccent" unicode="&#x163;" horiz-adv-x="466" 
d="M316 -11c-105 0 -228 -5 -228 181v253h-80v123h80v112h166v-112h169v-123h-169v-252c0 -40 15 -43 60 -43c37 0 118 11 118 11l16 -131c-39 -11 -92 -19 -132 -19zM359 -58l-45 -220h-116l21 220h140z" />
    <glyph glyph-name="Tcaron" unicode="&#x164;" horiz-adv-x="630" 
d="M230 0v574h-222v133h614v-133h-222v-574h-170zM506 837l-192 -97l-191 97l58 106l133 -60l133 60z" />
    <glyph glyph-name="tcaron" unicode="&#x165;" horiz-adv-x="512" 
d="M316 -11c-105 0 -228 -5 -228 181v253h-80v123h80v112h166v-112h169v-123h-169v-252c0 -40 15 -43 60 -43c37 0 118 11 118 11l16 -131c-39 -11 -92 -19 -132 -19zM491 803l-45 -220h-116l21 220h140z" />
    <glyph glyph-name="Tbar" unicode="&#x166;" horiz-adv-x="630" 
d="M230 0v318h-141v79h141v177h-222v133h614v-133h-222v-177h141v-79h-141v-318h-170z" />
    <glyph glyph-name="tbar" unicode="&#x167;" horiz-adv-x="466" 
d="M316 -11c-105 0 -228 -5 -228 181v99h-54v79h54v75h-80v123h80v112h166v-112h169v-123h-169v-75h116v-79h-116v-98c0 -40 15 -43 60 -43c37 0 118 11 118 11l16 -131c-39 -11 -92 -19 -132 -19z" />
    <glyph glyph-name="Utilde" unicode="&#x168;" horiz-adv-x="799" 
d="M402 -13c-163 0 -329 72 -329 301v419h172v-413c0 -108 49 -168 157 -168c107 0 157 63 157 189v392h167v-395c0 -247 -166 -325 -324 -325zM446 755c-51 0 -89 38 -128 38c-19 0 -40 -2 -70 -28l-63 74c24 29 77 82 144 82c63 0 89 -38 123 -38c32 0 51 7 87 26l55 -74
c-23 -25 -73 -80 -148 -80z" />
    <glyph glyph-name="utilde" unicode="&#x169;" horiz-adv-x="664" 
d="M251 -12c-171 0 -183 95 -183 219v339h166v-325c0 -75 17 -88 73 -88c50 0 95 14 122 27v386h167v-546h-167v56c-33 -25 -105 -68 -178 -68zM386 634c-51 0 -89 38 -128 38c-19 0 -40 -2 -70 -28l-63 74c24 29 77 82 144 82c63 0 89 -38 123 -38c32 0 51 7 87 26l55 -74
c-23 -25 -73 -80 -148 -80z" />
    <glyph glyph-name="Umacron" unicode="&#x16a;" horiz-adv-x="799" 
d="M402 -13c-163 0 -329 72 -329 301v419h172v-413c0 -108 49 -168 157 -168c107 0 157 63 157 189v392h167v-395c0 -247 -166 -325 -324 -325zM238 765v129h328v-129h-328z" />
    <glyph glyph-name="umacron" unicode="&#x16b;" horiz-adv-x="664" 
d="M251 -12c-171 0 -183 95 -183 219v339h166v-325c0 -75 17 -88 73 -88c50 0 95 14 122 27v386h167v-546h-167v56c-33 -25 -105 -68 -178 -68zM178 647v129h328v-129h-328z" />
    <glyph glyph-name="Ubreve" unicode="&#x16c;" horiz-adv-x="799" 
d="M402 -13c-163 0 -329 72 -329 301v419h172v-413c0 -108 49 -168 157 -168c107 0 157 63 157 189v392h167v-395c0 -247 -166 -325 -324 -325zM399 754c-109 0 -171 63 -201 111l86 74c36 -34 76 -62 119 -62c42 0 80 27 114 62l81 -73c-32 -47 -95 -112 -199 -112z" />
    <glyph glyph-name="ubreve" unicode="&#x16d;" horiz-adv-x="664" 
d="M251 -12c-171 0 -183 95 -183 219v339h166v-325c0 -75 17 -88 73 -88c50 0 95 14 122 27v386h167v-546h-167v56c-33 -25 -105 -68 -178 -68zM329 614c-109 0 -171 63 -201 111l86 74c36 -34 76 -62 119 -62c42 0 80 27 114 62l81 -73c-32 -47 -95 -112 -199 -112z" />
    <glyph glyph-name="Uring" unicode="&#x16e;" horiz-adv-x="799" 
d="M402 -13c-163 0 -329 72 -329 301v419h172v-413c0 -108 49 -168 157 -168c107 0 157 63 157 189v392h167v-395c0 -247 -166 -325 -324 -325zM403 701c-70 0 -150 27 -150 126c0 93 75 134 147 134c58 0 149 -28 149 -132c0 -90 -70 -128 -146 -128zM401 772
c39 0 58 21 61 56c0 34 -26 56 -61 56c-43 0 -61 -19 -61 -54c0 -36 22 -58 61 -58z" />
    <glyph glyph-name="uring" unicode="&#x16f;" horiz-adv-x="664" 
d="M251 -12c-171 0 -183 95 -183 219v339h166v-325c0 -75 17 -88 73 -88c50 0 95 14 122 27v386h167v-546h-167v56c-33 -25 -105 -68 -178 -68zM334 586c-70 0 -150 27 -150 126c0 93 75 134 147 134c58 0 149 -28 149 -132c0 -90 -70 -128 -146 -128zM332 657
c39 0 58 21 61 56c0 34 -26 56 -61 56c-43 0 -61 -19 -61 -54c0 -36 22 -58 61 -58z" />
    <glyph glyph-name="Uhungarumlaut" unicode="&#x170;" horiz-adv-x="799" 
d="M402 -13c-163 0 -329 72 -329 301v419h172v-413c0 -108 49 -168 157 -168c107 0 157 63 157 189v392h167v-395c0 -247 -166 -325 -324 -325zM439 889l-234 -154l-67 96l223 167zM737 787l-276 -49l-23 114l271 66z" />
    <glyph glyph-name="uhungarumlaut" unicode="&#x171;" horiz-adv-x="664" 
d="M251 -12c-171 0 -183 95 -183 219v339h166v-325c0 -75 17 -88 73 -88c50 0 95 14 122 27v386h167v-546h-167v56c-33 -25 -105 -68 -178 -68zM160 595l-72 80l190 181l83 -94zM383 594l-46 97l236 117l53 -113z" />
    <glyph glyph-name="Uogonek" unicode="&#x172;" horiz-adv-x="799" 
d="M433 -260c-108 0 -162 39 -162 117c0 48 47 110 94 137c-10 -1 -21 -2 -31 -2c-136 0 -261 92 -261 276v439h172v-433c0 -108 49 -145 157 -145c107 0 157 40 157 166v412h167v-415c0 -185 -93 -264 -206 -292c-58 -24 -108 -71 -108 -111c0 -18 23 -29 44 -29
c19 0 50 6 73 13l28 -107c-34 -15 -63 -26 -124 -26z" />
    <glyph glyph-name="uogonek" unicode="&#x173;" horiz-adv-x="664" 
d="M633 -234c-34 -15 -63 -26 -124 -26c-118 0 -162 34 -162 112c0 46 42 97 82 133v71c-33 -25 -105 -71 -178 -71c-171 0 -183 95 -183 219v342h166v-328c0 -75 17 -88 73 -88c50 0 95 17 122 30v386h167v-546c-48 -31 -110 -74 -110 -114c0 -18 17 -27 38 -27
c29 0 58 7 81 14z" />
    <glyph glyph-name="Wcircumflex" unicode="&#x174;" horiz-adv-x="1061" 
d="M166 0l-152 707h165l110 -599l164 427l-60 172h169l185 -593l138 593h162l-194 -707h-214l-122 362l-132 -362h-219zM385 741l-58 107l191 96l192 -96l-59 -107l-133 61z" />
    <glyph glyph-name="wcircumflex" unicode="&#x175;" horiz-adv-x="904" 
d="M148 0l-140 546h175l70 -410l100 410h197l85 -410l90 410h171l-162 -546h-205l-64 298l-18 91l-21 -91l-71 -298h-207zM582 606l-129 90l-128 -89l-73 92l202 130l196 -131z" />
    <glyph glyph-name="Ycircumflex" unicode="&#x176;" horiz-adv-x="709" 
d="M261 0v227l-261 480h196l156 -337l166 337h191l-278 -474v-233h-170zM221 741l-58 107l191 96l192 -96l-59 -107l-133 61z" />
    <glyph glyph-name="ycircumflex" unicode="&#x177;" horiz-adv-x="616" 
d="M182 -220l74 220h-60l-188 546h179l94 -324l23 -89l27 89l109 324h168l-267 -766h-159zM438 606l-129 90l-128 -89l-73 92l202 130l196 -131z" />
    <glyph glyph-name="Ydieresis" unicode="&#x178;" horiz-adv-x="709" 
d="M261 0v227l-261 480h196l156 -337l166 337h191l-278 -474v-233h-170zM227 737l-99 100l99 100l100 -100zM471 737l-100 100l100 100l99 -100z" />
    <glyph glyph-name="Zacute" unicode="&#x179;" horiz-adv-x="611" 
d="M28 0v114l325 452h-299v141h508v-108l-329 -458h350v-141h-555zM214 744l-23 113l271 67l27 -131z" />
    <glyph glyph-name="zacute" unicode="&#x17a;" horiz-adv-x="532" 
d="M38 0v109l256 303h-240v134h436v-106l-250 -308h254v-132h-456zM177 602l-47 100l238 121l54 -117z" />
    <glyph glyph-name="Zdotaccent" unicode="&#x17b;" horiz-adv-x="611" 
d="M28 0v114l325 452h-299v141h508v-108l-329 -458h350v-141h-555zM405 849l-94 -94l-94 94l94 94z" />
    <glyph glyph-name="zdotaccent" unicode="&#x17c;" horiz-adv-x="532" 
d="M38 0v109l256 303h-240v134h436v-106l-250 -308h254v-132h-456zM287 604l-111 112l111 111l112 -111z" />
    <glyph glyph-name="Zcaron" unicode="&#x17d;" horiz-adv-x="611" 
d="M28 0v114l325 452h-299v141h508v-108l-329 -458h350v-141h-555zM493 837l-192 -97l-191 97l58 106l133 -60l133 60z" />
    <glyph glyph-name="zcaron" unicode="&#x17e;" horiz-adv-x="532" 
d="M38 0v109l256 303h-240v134h436v-106l-250 -308h254v-132h-456zM262 580l-196 131l68 92l129 -90l128 89l73 -92z" />
    <glyph glyph-name="florin" unicode="&#x192;" horiz-adv-x="542" 
d="M57 -64l-5 137c66 5 144 0 144 77v70h-103v134h103v60c0 155 112 208 283 208l11 -142c-75 -6 -131 -7 -131 -69v-57h118v-134h-118v-72c0 -120 -56 -212 -302 -212z" />
    <glyph glyph-name="uni01D4" unicode="&#x1d4;" horiz-adv-x="664" 
d="M251 -12c-171 0 -183 95 -183 219v339h166v-325c0 -75 17 -88 73 -88c50 0 95 14 122 27v386h167v-546h-167v56c-33 -25 -105 -68 -178 -68zM332 580l-196 131l68 92l129 -90l128 89l73 -92z" />
    <glyph glyph-name="AEmacron" unicode="&#x1e2;" horiz-adv-x="996" 
d="M-12 0l332 707h605v-133h-294v-157h272v-124h-272v-160h317v-133h-487v244h-179l-102 -244h-192zM333 368h128v206h-42zM433 765v129h328v-129h-328z" />
    <glyph glyph-name="aemacron" unicode="&#x1e3;" horiz-adv-x="925" 
d="M663 -9c-108 0 -193 20 -244 83c-38 -34 -108 -82 -193 -82c-120 0 -188 53 -188 162c0 142 126 158 234 161c0 0 65 3 95 3v44c0 48 -31 56 -99 56c-54 0 -112 -12 -163 -24l-33 121c64 24 134 44 221 44c69 0 140 -3 187 -39c46 28 103 39 169 39
c172 0 238 -112 238 -277v-53l-354 -8c-1 -86 66 -100 153 -100c37 0 100 9 157 19l25 -127c-61 -18 -139 -22 -205 -22zM246 122c31 0 100 10 138 20c-7 22 -12 46 -15 74l-84 -2c-86 -2 -84 -27 -84 -51c0 -28 14 -41 45 -41zM538 329l178 7c2 66 -37 103 -79 103
c-51 0 -99 -31 -99 -110zM308 647v129h328v-129h-328z" />
    <glyph glyph-name="AEacute" unicode="&#x1fc;" horiz-adv-x="996" 
d="M-12 0l332 707h605v-133h-294v-157h272v-124h-272v-160h317v-133h-487v244h-179l-102 -244h-192zM333 368h128v206h-42zM483 744l-23 113l271 67l27 -131z" />
    <glyph glyph-name="aeacute" unicode="&#x1fd;" horiz-adv-x="925" 
d="M663 -9c-108 0 -193 20 -244 83c-38 -34 -108 -82 -193 -82c-120 0 -188 53 -188 162c0 142 126 158 234 161c0 0 65 3 95 3v44c0 48 -31 56 -99 56c-54 0 -112 -12 -163 -24l-33 121c64 24 134 44 221 44c69 0 140 -3 187 -39c46 28 103 39 169 39
c172 0 238 -112 238 -277v-53l-354 -8c-1 -86 66 -100 153 -100c37 0 100 9 157 19l25 -127c-61 -18 -139 -22 -205 -22zM246 122c31 0 100 10 138 20c-7 22 -12 46 -15 74l-84 -2c-86 -2 -84 -27 -84 -51c0 -28 14 -41 45 -41zM538 329l178 7c2 66 -37 103 -79 103
c-51 0 -99 -31 -99 -110zM383 602l-47 100l238 121l54 -117z" />
    <glyph glyph-name="Oslashacute" unicode="&#x1fe;" horiz-adv-x="843" 
d="M96 -45l-70 70l86 89c-46 61 -69 143 -69 241c0 239 148 363 389 363c89 0 161 -17 217 -49l83 86l71 -69l-78 -82c51 -62 75 -148 75 -251c0 -235 -135 -365 -387 -365c-95 0 -171 20 -229 58zM416 122c156 0 211 100 211 232c0 47 -8 89 -24 125l-310 -320
c31 -23 71 -37 123 -37zM234 240l304 314c-30 19 -68 30 -115 30c-150 0 -208 -98 -208 -228c0 -42 6 -82 19 -116zM338 744l-23 113l271 67l27 -131z" />
    <glyph glyph-name="oslashacute" unicode="&#x1ff;" horiz-adv-x="643" 
d="M76 -22l-50 49l62 62c-33 47 -50 107 -50 179c0 181 113 292 286 292c77 0 137 -17 181 -49l59 59l49 -49l-58 -59c34 -48 50 -112 50 -189c0 -186 -122 -285 -290 -285c-74 0 -133 18 -178 51zM323 121c90 0 112 59 112 152c0 22 -1 44 -5 63l-187 -189
c19 -17 44 -26 80 -26zM211 214l186 188c-17 17 -42 26 -76 26c-90 0 -115 -67 -115 -156c0 -21 1 -41 5 -58zM248 602l-47 100l238 121l54 -117z" />
    <glyph glyph-name="Scommaaccent" unicode="&#x218;" horiz-adv-x="597" 
d="M265 -11c-116 0 -184 21 -237 50l48 122c63 -22 109 -32 187 -32c85 0 124 26 124 69c0 115 -336 84 -336 324c0 136 129 195 254 195c112 0 166 -24 221 -48l-49 -118c-52 15 -95 29 -167 29c-71 0 -93 -27 -93 -57c0 -94 342 -94 342 -319c0 -155 -148 -215 -294 -215z
M360 -58l-45 -220h-116l21 220h140z" />
    <glyph glyph-name="scommaaccent" unicode="&#x219;" horiz-adv-x="512" 
d="M234 -12c-79 0 -143 7 -199 23l18 126c71 -10 128 -15 165 -15c84 0 94 22 94 38c0 59 -275 31 -275 227c0 118 111 173 230 173c67 0 127 -11 184 -31l-28 -121c-53 12 -95 20 -151 20c-57 0 -68 -21 -68 -33c0 -62 273 -45 273 -228c0 -144 -151 -179 -243 -179z
M344 -58l-45 -220h-116l21 220h140z" />
    <glyph glyph-name="uni021A" unicode="&#x21a;" horiz-adv-x="630" 
d="M230 0v574h-222v133h614v-133h-222v-574h-170zM384 -58l-45 -220h-116l21 220h140z" />
    <glyph glyph-name="uni021B" unicode="&#x21b;" horiz-adv-x="466" 
d="M316 -11c-105 0 -228 -5 -228 181v253h-80v123h80v112h166v-112h169v-123h-169v-252c0 -40 15 -43 60 -43c37 0 118 11 118 11l16 -131c-39 -11 -92 -19 -132 -19zM359 -58l-45 -220h-116l21 220h140z" />
    <glyph glyph-name="dotlessj" unicode="&#x237;" horiz-adv-x="303" 
d="M14 -220c-39 0 -95 11 -128 23l31 129s61 -11 92 -11c43 0 60 14 60 82v543h166v-544c0 -190 -105 -222 -221 -222z" />
    <glyph glyph-name="schwa" unicode="&#x259;" horiz-adv-x="596" 
d="M262 560c180 0 296 -59 296 -277c0 -223 -117 -294 -282 -294c-172 0 -238 112 -238 277v60h354c1 86 -67 102 -154 102c-37 0 -99 -12 -156 -22l-25 127c61 18 139 27 205 27zM387 219h-178c-2 -66 27 -112 81 -112c57 0 94 40 97 112z" />
    <glyph glyph-name="circumflex" unicode="&#x2c6;" horiz-adv-x="556" 
d="M408 606l-129 90l-128 -89l-73 92l202 130l196 -131z" />
    <glyph glyph-name="caron" unicode="&#x2c7;" horiz-adv-x="556" 
d="M274 580l-196 131l68 92l129 -90l128 89l73 -92z" />
    <glyph glyph-name="breve" unicode="&#x2d8;" horiz-adv-x="516" 
d="M276 614c-109 0 -171 63 -201 111l86 74c36 -34 76 -62 119 -62c42 0 80 27 114 62l81 -73c-32 -47 -95 -112 -199 -112z" />
    <glyph glyph-name="dotaccent" unicode="&#x2d9;" horiz-adv-x="293" 
d="M146 604l-111 112l111 111l112 -111z" />
    <glyph glyph-name="ring" unicode="&#x2da;" horiz-adv-x="552" 
d="M278 586c-70 0 -150 27 -150 126c0 93 75 134 147 134c58 0 149 -28 149 -132c0 -90 -70 -128 -146 -128zM276 657c39 0 58 21 61 56c0 34 -26 56 -61 56c-43 0 -61 -19 -61 -54c0 -36 22 -58 61 -58z" />
    <glyph glyph-name="ogonek" unicode="&#x2db;" horiz-adv-x="581" 
d="M409 -260c-118 0 -151 65 -151 143c0 95 134 175 205 213l60 -80c-54 -30 -123 -83 -123 -130c0 -18 19 -22 33 -22c19 0 49 2 72 9l28 -107c-34 -15 -63 -26 -124 -26z" />
    <glyph glyph-name="tilde" unicode="&#x2dc;" horiz-adv-x="556" 
d="M332 634c-51 0 -89 38 -128 38c-19 0 -40 -2 -70 -28l-63 74c24 29 77 82 144 82c63 0 89 -38 123 -38c32 0 51 7 87 26l55 -74c-23 -25 -73 -80 -148 -80z" />
    <glyph glyph-name="hungarumlaut" unicode="&#x2dd;" horiz-adv-x="652" 
d="M130 595l-72 80l190 181l83 -94zM353 594l-46 97l236 117l53 -113z" />
    <glyph glyph-name="uni0374" unicode="&#x374;" horiz-adv-x="147" 
d="M38 485c31 57 32 115 32 134v136h167v-98c0 -63 -25 -126 -63 -172h-136z" />
    <glyph glyph-name="uni0375" unicode="&#x375;" horiz-adv-x="147" 
d="M62 -122c31 57 32 115 32 134v136h167v-98c0 -63 -25 -126 -63 -172h-136z" />
    <glyph glyph-name="uni037E" unicode="&#x37e;" horiz-adv-x="300" 
d="M274 384h-185v162h185v-162zM273 55c0 -69 -27 -139 -69 -189h-150c34 62 35 126 35 147v150h184v-108z" />
    <glyph glyph-name="tonos" unicode="&#x384;" horiz-adv-x="500" 
d="M351 623l69 158h157l-98 -157z" />
    <glyph glyph-name="dieresistonos" unicode="&#x385;" horiz-adv-x="589" 
d="M104 623l-79 80l79 80l80 -80zM185 623l69 158h157l-98 -157zM485 623l-80 80l80 80l79 -80z" />
    <glyph glyph-name="Alphatonos" unicode="&#x386;" horiz-adv-x="751" 
d="M11 0l272 707h219l238 -707h-176l-67 207h-239l-77 -207h-170zM303 330h154l-71 272zM-21 549l69 158h157l-98 -157z" />
    <glyph glyph-name="anoteleia" unicode="&#x387;" horiz-adv-x="324" 
d="M167 286l-103 103l103 103l103 -103z" />
    <glyph glyph-name="Epsilontonos" unicode="&#x388;" horiz-adv-x="613" 
d="M-185 549l69 158h157l-98 -157zM78 0v707h464v-133h-294v-157h272v-124h-272v-160h317v-133h-487z" />
    <glyph glyph-name="Etatonos" unicode="&#x389;" horiz-adv-x="796" 
d="M-185 549l69 158h157l-98 -157zM78 0v707h170v-287h300v287h170v-707h-170v291h-300v-291h-170z" />
    <glyph glyph-name="Iotatonos" unicode="&#x38a;" horiz-adv-x="326" 
d="M-185 549l69 158h157l-98 -157zM78 0v707h170v-707h-170z" />
    <glyph glyph-name="Omicrontonos" unicode="&#x38c;" horiz-adv-x="843" 
d="M-135 549l69 158h157l-98 -157zM413 -12c-248 0 -370 140 -370 367c0 223 148 363 389 363c257 0 368 -154 368 -365c0 -225 -135 -365 -387 -365zM416 122c156 0 211 100 211 232s-61 230 -204 230c-150 0 -208 -98 -208 -228c0 -129 57 -234 201 -234z" />
    <glyph glyph-name="Upsilontonos" unicode="&#x38e;" horiz-adv-x="709" 
d="M-242 549l69 158h157l-98 -157zM261 0v227l-261 480h196l156 -337l166 337h191l-278 -474v-233h-170z" />
    <glyph glyph-name="Omegatonos" unicode="&#x38f;" horiz-adv-x="867" 
d="M-125 548l69 158h157l-98 -157zM63 0v141h107c-53 33 -115 112 -115 219c0 229 145 358 386 358c257 0 371 -144 371 -355c0 -99 -56 -187 -115 -222h107v-141h-293v133c66 50 128 122 128 229c0 127 -64 222 -207 222c-134 0 -205 -89 -205 -220
c0 -107 63 -181 129 -231v-133h-293z" />
    <glyph glyph-name="iotadieresistonos" unicode="&#x390;" horiz-adv-x="302" 
d="M68 0v546h166v-546h-166zM-30 623l-79 80l79 80l80 -80zM51 623l69 158h157l-98 -157zM351 623l-80 80l80 80l79 -80z" />
    <glyph glyph-name="Alpha" unicode="&#x391;" horiz-adv-x="751" 
d="M11 0l272 707h219l238 -707h-176l-67 207h-239l-77 -207h-170zM303 330h154l-71 272z" />
    <glyph glyph-name="Beta" unicode="&#x392;" horiz-adv-x="678" 
d="M78 0v707h248c173 0 263 -62 263 -195c0 -59 -35 -103 -71 -126v-2c48 -17 122 -69 122 -166c0 -129 -76 -218 -284 -218h-278zM249 133h86c90 0 135 24 135 81c0 64 -49 87 -147 87h-74v-168zM249 417h61c74 0 111 13 111 76c0 60 -40 84 -120 84h-52v-160z" />
    <glyph glyph-name="Gamma" unicode="&#x393;" horiz-adv-x="566" 
d="M78 0v707h480v-133h-310v-574h-170z" />
    <glyph glyph-name="Delta" unicode="&#x394;" horiz-adv-x="764" 
d="M231 141h306l-105 315l-38 145l-45 -144zM1 0l289 707h219l254 -707h-762z" />
    <glyph glyph-name="Epsilon" unicode="&#x395;" horiz-adv-x="613" 
d="M78 0v707h464v-133h-294v-157h272v-124h-272v-160h317v-133h-487z" />
    <glyph glyph-name="Zeta" unicode="&#x396;" horiz-adv-x="611" 
d="M28 0v114l325 452h-299v141h508v-108l-329 -458h350v-141h-555z" />
    <glyph glyph-name="Eta" unicode="&#x397;" horiz-adv-x="796" 
d="M78 0v707h170v-287h300v287h170v-707h-170v291h-300v-291h-170z" />
    <glyph glyph-name="Theta" unicode="&#x398;" horiz-adv-x="843" 
d="M285 287l-24 92c29 22 65 40 105 40c54 0 83 -15 110 -15c32 0 47 0 80 13l24 -91c-25 -19 -70 -37 -109 -37c-51 0 -85 16 -110 16c-22 0 -46 -3 -76 -18zM413 -12c-248 0 -370 140 -370 367c0 239 148 363 389 363c257 0 368 -144 368 -365c0 -235 -135 -365 -387 -365
zM416 122c156 0 211 100 211 232s-61 230 -204 230c-150 0 -208 -98 -208 -228c0 -129 57 -234 201 -234z" />
    <glyph glyph-name="Iota" unicode="&#x399;" horiz-adv-x="326" 
d="M78 0v707h170v-707h-170z" />
    <glyph glyph-name="Kappa" unicode="&#x39a;" horiz-adv-x="731" 
d="M78 0v707h170v-303l242 303h217l-286 -331l302 -376h-217l-258 355v-355h-170z" />
    <glyph glyph-name="Lambda" unicode="&#x39b;" horiz-adv-x="734" 
d="M16 0l258 707h219l225 -707h-175l-137 467l-29 119l-33 -117l-160 -469h-168z" />
    <glyph glyph-name="Mu" unicode="&#x39c;" horiz-adv-x="983" 
d="M78 0v707h207l197 -555l226 555h197v-707h-170v263l5 166l-168 -429h-190l-145 441l11 -178v-263h-170z" />
    <glyph glyph-name="Nu" unicode="&#x39d;" horiz-adv-x="796" 
d="M78 0v707h197l278 -485l-5 79v406h170v-707h-203l-271 473l4 -94v-379h-170z" />
    <glyph glyph-name="Xi" unicode="&#x39e;" horiz-adv-x="646" 
d="M52 0v141h542v-141h-542zM85 289v134h476v-134h-476zM63 566v141h520v-141h-520z" />
    <glyph glyph-name="Omicron" unicode="&#x39f;" horiz-adv-x="843" 
d="M413 -12c-248 0 -370 140 -370 367c0 223 148 363 389 363c257 0 368 -154 368 -365c0 -225 -135 -365 -387 -365zM416 122c156 0 211 100 211 232s-61 230 -204 230c-150 0 -208 -98 -208 -228c0 -129 57 -234 201 -234z" />
    <glyph glyph-name="Pi" unicode="&#x3a0;" horiz-adv-x="782" 
d="M78 0v707h626v-707h-170v573h-286v-573h-170z" />
    <glyph glyph-name="Rho" unicode="&#x3a1;" horiz-adv-x="644" 
d="M78 0v707h275c159 0 273 -93 273 -251c0 -139 -114 -256 -325 -256h-52v-200h-171zM249 574v-243h58c106 0 144 55 144 121c0 71 -29 122 -120 122h-82z" />
    <glyph glyph-name="Sigma" unicode="&#x3a3;" horiz-adv-x="605" 
d="M32 0v114l188 242l-182 213v138h533v-133h-345l175 -206l-177 -227h353v-141h-545z" />
    <glyph glyph-name="Tau" unicode="&#x3a4;" horiz-adv-x="630" 
d="M230 0v574h-222v133h614v-133h-222v-574h-170z" />
    <glyph glyph-name="Upsilon" unicode="&#x3a5;" horiz-adv-x="709" 
d="M261 0v227l-261 480h196l156 -337l166 337h191l-278 -474v-233h-170z" />
    <glyph glyph-name="Phi" unicode="&#x3a6;" horiz-adv-x="885" 
d="M359 0v85c-176 0 -316 93 -316 288s140 288 316 288v76h167v-76c176 0 316 -93 316 -288s-140 -288 -316 -288v-85h-167zM526 207c88 0 146 60 146 166c0 110 -58 166 -146 166v-332zM359 207v332c-88 0 -146 -56 -146 -166c0 -106 58 -166 146 -166z" />
    <glyph glyph-name="Chi" unicode="&#x3a7;" horiz-adv-x="695" 
d="M8 0l253 362l-225 345h195l128 -217l138 217h190l-238 -342l238 -365h-196l-141 238l-152 -238h-190z" />
    <glyph glyph-name="Psi" unicode="&#x3a8;" horiz-adv-x="799" 
d="M317 0v141c-141 13 -279 63 -279 278v288h172v-293c0 -87 43 -114 107 -130v423h170v-422c63 18 107 50 107 150v272h167v-264c0 -229 -137 -286 -274 -302v-141h-170z" />
    <glyph glyph-name="Omega" unicode="&#x3a9;" horiz-adv-x="867" 
d="M63 0v141h107c-53 33 -115 112 -115 219c0 229 145 358 386 358c257 0 371 -144 371 -355c0 -99 -56 -187 -115 -222h107v-141h-293v133c66 50 128 122 128 229c0 127 -64 222 -207 222c-134 0 -205 -89 -205 -220c0 -107 63 -181 129 -231v-133h-293z" />
    <glyph glyph-name="Iotadieresis" unicode="&#x3aa;" horiz-adv-x="326" 
d="M78 0v707h170v-707h-170zM42 737l-99 100l99 100l100 -100zM286 737l-100 100l100 100l99 -100z" />
    <glyph glyph-name="Upsilondieresis" unicode="&#x3ab;" horiz-adv-x="709" 
d="M261 0v227l-261 480h196l156 -337l166 337h191l-278 -474v-233h-170zM228 737l-99 100l99 100l100 -100zM472 737l-100 100l100 100l99 -100z" />
    <glyph glyph-name="alphatonos" unicode="&#x3ac;" horiz-adv-x="671" 
d="M260 -8c-69 0 -222 13 -222 250c0 196 131 318 297 318c103 0 161 -17 239 -41v-374c0 -18 18 -22 49 -23l-6 -126c-14 -1 -36 -1 -50 -1c-83 0 -148 21 -152 104c-19 -49 -76 -107 -155 -107zM288 131c60 0 111 53 119 132v150c-17 7 -39 15 -69 15
c-95 0 -134 -81 -134 -176c0 -119 55 -121 84 -121zM259 623l69 158h157l-98 -157z" />
    <glyph glyph-name="epsilontonos" unicode="&#x3ad;" 
d="M302 -12c-174 0 -262 58 -262 160c0 61 34 122 120 146c-59 16 -94 58 -94 119c0 75 83 147 252 147c105 0 177 -25 211 -42l-43 -120c-26 10 -108 31 -176 31c-56 0 -81 -15 -81 -42c0 -32 38 -35 47 -35h138v-121h-140c-24 0 -63 -13 -63 -56c0 -34 46 -51 111 -51
c44 0 122 13 168 35l49 -119c-43 -19 -134 -52 -237 -52zM220 623l69 158h157l-98 -157z" />
    <glyph glyph-name="etatonos" unicode="&#x3ae;" horiz-adv-x="681" 
d="M447 -220v549c0 75 -17 88 -73 88c-50 0 -95 -17 -122 -30v-387h-167v409c0 18 -16 22 -47 23l6 126c14 1 43 3 57 3c72 0 133 -15 147 -73c35 25 111 74 182 74c171 0 183 -95 183 -219v-563h-166zM299 623l69 158h157l-98 -157z" />
    <glyph glyph-name="iotatonos" unicode="&#x3af;" horiz-adv-x="302" 
d="M68 0v546h166v-546h-166zM73 623l69 158h157l-98 -157z" />
    <glyph glyph-name="upsilondieresistonos" unicode="&#x3b0;" horiz-adv-x="663" 
d="M335 -12c-170 0 -267 71 -267 227v331h166v-320c0 -82 42 -105 98 -105c62 0 97 27 97 116v309h166v-310c0 -172 -103 -248 -260 -248zM163 623l-79 80l79 80l80 -80zM244 623l69 158h157l-98 -157zM544 623l-80 80l80 80l79 -80z" />
    <glyph glyph-name="alpha" unicode="&#x3b1;" horiz-adv-x="671" 
d="M260 -8c-69 0 -222 13 -222 250c0 196 131 318 297 318c103 0 161 -17 239 -41v-374c0 -18 18 -22 49 -23l-6 -126c-14 -1 -36 -1 -50 -1c-83 0 -148 21 -152 104c-19 -49 -76 -107 -155 -107zM288 131c60 0 111 53 119 132v150c-17 7 -39 15 -69 15
c-95 0 -134 -81 -134 -176c0 -119 55 -121 84 -121z" />
    <glyph glyph-name="beta" unicode="&#x3b2;" horiz-adv-x="671" 
d="M68 -220v735c0 157 109 260 270 260c156 0 240 -85 240 -193c0 -61 -27 -125 -94 -157c94 -25 149 -88 149 -190c0 -169 -127 -248 -279 -248c-40 0 -88 8 -120 18v-225h-166zM351 122c69 0 112 30 112 108c0 79 -77 120 -141 123v110c54 5 96 46 96 98
c0 51 -36 80 -86 80c-61 0 -98 -43 -98 -121v-379c36 -11 87 -19 117 -19z" />
    <glyph glyph-name="gamma" unicode="&#x3b3;" horiz-adv-x="624" 
d="M221 -220v220l-213 546h181l95 -277l23 -86l27 83l105 280h177l-229 -546v-220h-166z" />
    <glyph glyph-name="delta" unicode="&#x3b4;" horiz-adv-x="637" 
d="M314 -12c-159 0 -276 95 -276 266c0 120 80 197 170 233c-60 32 -101 68 -101 131c0 105 115 157 227 157c91 0 165 -19 220 -36l-29 -122s-106 23 -182 23c-46 0 -76 -15 -76 -46c0 -51 74 -57 161 -97c85 -39 171 -122 171 -240c0 -188 -137 -269 -285 -269zM321 121
c83 0 111 54 111 140c0 94 -59 132 -118 159c-80 -25 -109 -101 -109 -157c0 -87 32 -142 116 -142z" />
    <glyph glyph-name="epsilon" unicode="&#x3b5;" 
d="M302 -12c-174 0 -262 58 -262 160c0 61 34 122 120 146c-59 16 -94 58 -94 119c0 75 83 147 252 147c105 0 177 -25 211 -42l-43 -120c-26 10 -108 31 -176 31c-56 0 -81 -15 -81 -42c0 -32 38 -35 47 -35h138v-121h-140c-24 0 -63 -13 -63 -56c0 -34 46 -51 111 -51
c44 0 122 13 168 35l49 -119c-43 -19 -134 -52 -237 -52z" />
    <glyph glyph-name="zeta" unicode="&#x3b6;" horiz-adv-x="498" 
d="M414 -208l-91 53c12 14 51 66 51 84c0 50 -88 53 -180 75c-94 22 -154 79 -154 198c0 173 106 314 261 417h-216v135h437v-121c-155 -93 -312 -244 -312 -410c0 -75 39 -90 80 -99c93 -21 223 -24 223 -155c0 -73 -66 -146 -99 -177z" />
    <glyph glyph-name="eta" unicode="&#x3b7;" horiz-adv-x="681" 
d="M447 -220v549c0 75 -17 88 -73 88c-50 0 -95 -17 -122 -30v-387h-167v409c0 18 -16 22 -47 23l6 126c14 1 43 3 57 3c72 0 133 -15 147 -73c35 25 111 74 182 74c171 0 183 -95 183 -219v-563h-166z" />
    <glyph glyph-name="theta" unicode="&#x3b8;" horiz-adv-x="642" 
d="M320 -12c-213 0 -266 165 -266 388c0 238 68 399 273 399c223 0 261 -175 261 -393c0 -227 -62 -394 -268 -394zM218 451h208c-2 114 -11 192 -103 192c-91 0 -102 -76 -105 -192zM324 123c90 0 101 79 102 209h-208c0 -134 12 -209 106 -209z" />
    <glyph glyph-name="iota" unicode="&#x3b9;" horiz-adv-x="302" 
d="M68 0v546h166v-546h-166z" />
    <glyph glyph-name="kappa" unicode="&#x3ba;" horiz-adv-x="596" 
d="M68 0v546h167v-213l151 213h183l-203 -255l78 -86c39 -43 70 -73 139 -91l-19 -126c-87 4 -161 15 -232 107l-97 125v-220h-167z" />
    <glyph glyph-name="lambda" unicode="&#x3bb;" horiz-adv-x="616" 
d="M589 -16c-133 4 -173 30 -201 131l-54 192l-25 89l-25 -89l-90 -307h-182l199 546h57l-6 20c-12 39 -30 74 -102 74c-41 0 -81 -11 -111 -21l-34 126c34 12 113 30 163 30c146 0 199 -59 237 -186l122 -422c13 -45 48 -54 67 -57z" />
    <glyph glyph-name="mugreek" unicode="&#x3bc;" horiz-adv-x="693" 
d="M68 -220v766h166v-343c0 -62 21 -73 73 -73c50 0 95 17 122 30v386h167v-401c0 -18 18 -22 49 -23l-6 -126c-14 -1 -35 -1 -49 -1c-73 0 -134 10 -151 69c-36 -29 -108 -79 -188 -79h-17v-205h-166z" />
    <glyph glyph-name="nu" unicode="&#x3bd;" horiz-adv-x="595" 
d="M197 0l-189 546h179l84 -296l27 -93l41 98l23 55c23 62 30 110 30 151c0 31 -5 59 -10 85h176c5 -24 9 -50 9 -79c0 -40 -6 -85 -29 -145l-143 -322h-198z" />
    <glyph glyph-name="xi" unicode="&#x3be;" horiz-adv-x="516" 
d="M411 -208l-91 53c12 14 51 67 51 85c0 31 -49 48 -88 56c-123 27 -246 72 -246 215c0 96 71 180 182 208c-73 24 -133 88 -133 159c0 123 105 207 287 207c42 0 102 -7 143 -17l-21 -133c-29 7 -89 15 -128 15c-79 0 -117 -27 -117 -88c0 -86 96 -91 205 -95v-121
c-128 -8 -249 -24 -249 -123c0 -57 54 -76 115 -93c89 -25 189 -33 189 -151c0 -73 -66 -146 -99 -177z" />
    <glyph glyph-name="omicron" unicode="&#x3bf;" horiz-adv-x="643" 
d="M315 -12c-180 0 -277 109 -277 280c0 181 113 292 286 292c194 0 281 -109 281 -287c0 -186 -122 -285 -290 -285zM323 121c90 0 112 59 112 152c0 88 -22 155 -114 155c-90 0 -115 -67 -115 -156c0 -94 28 -151 117 -151z" />
    <glyph glyph-name="pi" unicode="&#x3c0;" horiz-adv-x="648" 
d="M68 0v546h512v-546h-166v417h-179v-417h-167z" />
    <glyph glyph-name="rho" unicode="&#x3c1;" horiz-adv-x="626" 
d="M48 -220v488c0 191 100 292 273 292c194 0 267 -113 267 -291c0 -189 -120 -281 -288 -281c-18 0 -60 8 -86 17v-225h-166zM214 272v-138c25 -7 68 -13 94 -13c90 0 110 55 110 148c0 88 -15 159 -102 159c-85 0 -102 -67 -102 -156z" />
    <glyph glyph-name="sigma1" unicode="&#x3c2;" horiz-adv-x="537" 
d="M398 -208l-91 53c12 14 51 67 51 85c0 34 -58 50 -98 59c-109 24 -222 69 -222 289c0 170 114 282 299 282c80 0 131 -15 174 -38l-43 -121c-44 17 -68 23 -124 23c-69 0 -135 -32 -135 -149c0 -123 46 -138 99 -155c88 -29 189 -33 189 -151c0 -73 -66 -146 -99 -177z
" />
    <glyph glyph-name="sigma" unicode="&#x3c3;" horiz-adv-x="680" 
d="M315 -12c-180 0 -277 108 -277 275c0 170 114 293 288 293c112 0 168 -5 336 -10v-123l-98 4c28 -42 41 -98 41 -154c0 -186 -122 -285 -290 -285zM323 121c90 0 112 59 112 152c0 42 -12 119 -58 159l-37 1c-86 0 -134 -63 -134 -163c0 -94 28 -149 117 -149z" />
    <glyph glyph-name="tau" unicode="&#x3c4;" horiz-adv-x="522" 
d="M178 0v417h-170v129h506v-129h-170v-417h-166z" />
    <glyph glyph-name="upsilon" unicode="&#x3c5;" horiz-adv-x="663" 
d="M335 -12c-170 0 -267 71 -267 227v331h166v-320c0 -82 42 -105 98 -105c62 0 97 27 97 116v309h166v-310c0 -172 -103 -248 -260 -248z" />
    <glyph glyph-name="phi" unicode="&#x3c6;" horiz-adv-x="811" 
d="M321 -220v207c-195 16 -283 111 -283 280c0 175 98 274 283 294v97h166v-95c194 -15 286 -115 286 -290c0 -179 -100 -270 -286 -286v-206zM321 118v311c-96 -21 -115 -76 -115 -156c0 -82 22 -134 115 -155zM487 117c98 19 116 72 116 157c0 78 -16 135 -116 155v-312z
" />
    <glyph glyph-name="chi" unicode="&#x3c7;" horiz-adv-x="609" 
d="M576 -224c-155 14 -151 41 -201 138l-66 134l-95 -268h-200l218 406l-97 194c-23 45 -64 55 -94 57l32 129c144 -4 161 -41 209 -140l46 -96l62 216h203l-185 -371l110 -213c23 -43 49 -55 79 -57z" />
    <glyph glyph-name="psi" unicode="&#x3c8;" horiz-adv-x="842" 
d="M338 -220v215c-200 15 -270 90 -270 257v294h166v-288c0 -102 39 -124 104 -133v533h166v-533c69 12 104 39 104 151v270h166v-273c0 -182 -83 -262 -270 -278v-215h-166z" />
    <glyph glyph-name="omega" unicode="&#x3c9;" horiz-adv-x="851" 
d="M255 -12c-144 0 -217 109 -217 249c0 95 12 203 140 309h183c-91 -73 -155 -178 -155 -288c0 -45 0 -129 71 -129c40 0 65 38 65 104v127h166v-125c0 -70 25 -106 66 -106c71 0 70 84 70 129c0 110 -64 215 -155 288h189c115 -96 135 -209 135 -304
c0 -130 -79 -254 -231 -254c-65 0 -142 38 -159 110c-30 -77 -102 -110 -168 -110z" />
    <glyph glyph-name="iotadieresis" unicode="&#x3ca;" horiz-adv-x="302" 
d="M68 0v546h166v-546h-166zM27 622l-93 94l93 94l94 -94zM271 622l-94 94l94 94l93 -94z" />
    <glyph glyph-name="upsilondieresis" unicode="&#x3cb;" horiz-adv-x="663" 
d="M335 -12c-170 0 -267 71 -267 227v331h166v-320c0 -82 42 -105 98 -105c62 0 97 27 97 116v309h166v-310c0 -172 -103 -248 -260 -248zM209 622l-93 94l93 94l94 -94zM453 622l-94 94l94 94l93 -94z" />
    <glyph glyph-name="omicrontonos" unicode="&#x3cc;" horiz-adv-x="643" 
d="M315 -12c-180 0 -277 109 -277 280c0 181 113 292 286 292c194 0 281 -109 281 -287c0 -186 -122 -285 -290 -285zM323 121c90 0 112 59 112 152c0 88 -22 155 -114 155c-90 0 -115 -67 -115 -156c0 -94 28 -151 117 -151zM252 623l69 158h157l-98 -157z" />
    <glyph glyph-name="upsilontonos" unicode="&#x3cd;" horiz-adv-x="663" 
d="M335 -12c-170 0 -267 71 -267 227v331h166v-320c0 -82 42 -105 98 -105c62 0 97 27 97 116v309h166v-310c0 -172 -103 -248 -260 -248zM257 623l69 158h157l-98 -157z" />
    <glyph glyph-name="omegatonos" unicode="&#x3ce;" horiz-adv-x="851" 
d="M255 -12c-144 0 -217 109 -217 249c0 95 12 203 140 309h183c-91 -73 -155 -178 -155 -288c0 -45 0 -129 71 -129c40 0 65 38 65 104v127h166v-125c0 -70 25 -106 66 -106c71 0 70 84 70 129c0 110 -64 215 -155 288h189c115 -96 135 -209 135 -304
c0 -130 -79 -254 -231 -254c-65 0 -142 38 -159 110c-30 -77 -102 -110 -168 -110zM343 623l69 158h157l-98 -157z" />
    <glyph glyph-name="beta1" unicode="&#x3d0;" horiz-adv-x="658" 
d="M341 -13c-169 0 -286 75 -286 352v115c0 191 128 321 289 321c156 0 227 -77 227 -172c0 -86 -34 -119 -89 -159c94 -25 138 -107 138 -209c0 -169 -127 -248 -279 -248zM338 122c69 0 112 42 112 120c0 83 -40 128 -118 128c-31 0 -68 -7 -111 -22v-4
c0 -167 33 -222 117 -222zM221 443c36 11 67 22 92 33c61 27 92 56 92 85c0 51 -36 80 -86 80c-61 0 -98 -43 -98 -161v-37z" />
    <glyph glyph-name="uni03D8" unicode="&#x3d8;" horiz-adv-x="800" 
d="M327 -166v161c-157 39 -256 144 -256 361c0 266 153 371 330 371c188 0 328 -109 328 -364c0 -217 -112 -318 -255 -363v-166h-147zM401 129c111 0 168 94 168 228c0 136 -45 240 -170 240s-170 -104 -170 -235c0 -133 46 -233 172 -233z" />
    <glyph glyph-name="uni03D9" unicode="&#x3d9;" horiz-adv-x="603" 
d="M228 -221v256c-124 24 -190 118 -190 254c0 168 105 270 266 270c179 0 261 -101 261 -266c0 -138 -73 -224 -182 -253v-261h-155zM303 152c83 0 104 54 104 141c0 81 -21 144 -106 144c-83 0 -106 -63 -106 -145c0 -87 26 -140 108 -140z" />
    <glyph glyph-name="uni03DA" unicode="&#x3da;" horiz-adv-x="542" 
d="M555 654l-53 -125c-47 31 -94 46 -153 46c-99 0 -153 -55 -153 -161c0 -305 317 -136 317 -348c0 -160 -154 -229 -319 -240l-30 108c130 22 194 54 194 101c0 90 -320 -18 -320 369c0 207 132 309 295 309c81 0 164 -25 222 -59z" />
    <glyph glyph-name="uni03DB" unicode="&#x3db;" horiz-adv-x="540" 
d="M520 515l-53 -125c-45 22 -79 32 -138 32c-99 0 -133 -45 -133 -151c0 -91 35 -123 103 -131c100 -12 168 -47 168 -147c0 -108 -116 -192 -292 -194v128c107 1 137 30 137 48c0 16 -15 19 -47 22c-123 10 -227 64 -227 264c0 207 112 299 275 299c81 0 151 -19 207 -45z
" />
    <glyph glyph-name="uni03DC" unicode="&#x3dc;" horiz-adv-x="610" 
d="M572 574h-324v-175h302v-123h-302v-276h-170v707h494v-133z" />
    <glyph glyph-name="uni03DD" unicode="&#x3dd;" horiz-adv-x="444" 
d="M452 751l-32 -129s-45 8 -92 8c-41 0 -59 -23 -59 -66v-190h117v-122h-117v-472h-167v472h-80v122h80v200c0 169 107 198 221 198c40 0 89 -8 129 -21z" />
    <glyph glyph-name="uni03DE" unicode="&#x3de;" horiz-adv-x="632" 
d="M397 -107l-182 -41l157 384h-371l232 498l185 20l-174 -375h361z" />
    <glyph glyph-name="uni03DF" unicode="&#x3df;" horiz-adv-x="638" 
d="M415 -107l-182 -41l157 384h-371l232 498l185 20l-174 -375h361z" />
    <glyph glyph-name="uni03E0" unicode="&#x3e0;" horiz-adv-x="800" 
d="M545 -79l-78 98c94 71 135 148 144 215l-370 -241l-60 98l413 270c-6 13 -30 55 -38 67l-438 -290l-63 99l389 253c-28 9 -59 13 -86 13c-54 0 -129 -22 -197 -60l-55 100c83 59 164 90 282 90c208 0 357 -167 357 -360c0 -167 -119 -293 -200 -352z" />
    <glyph glyph-name="uni03E1" unicode="&#x3e1;" horiz-adv-x="800" 
d="M545 -79l-78 98c94 71 135 148 144 215l-370 -241l-60 98l413 270c-6 13 -30 55 -38 67l-438 -290l-63 99l389 253c-28 9 -59 13 -86 13c-54 0 -129 -22 -197 -60l-55 100c83 59 164 90 282 90c208 0 357 -167 357 -360c0 -167 -119 -293 -200 -352z" />
    <glyph glyph-name="uni0400" unicode="&#x400;" horiz-adv-x="613" 
d="M78 0v707h464v-133h-294v-157h272v-124h-272v-160h317v-133h-487zM413 744l-275 49l27 131l271 -67z" />
    <glyph glyph-name="afii10023" unicode="&#x401;" horiz-adv-x="613" 
d="M78 0v707h464v-133h-294v-157h272v-124h-272v-160h317v-133h-487zM187 737l-99 100l99 100l100 -100zM431 737l-100 100l100 100l99 -100z" />
    <glyph glyph-name="afii10051" unicode="&#x402;" horiz-adv-x="821" 
d="M516 -220l-81 110c19 16 175 121 175 312c0 80 -41 125 -115 125c-43 0 -85 -10 -125 -30v-297h-170v574h-192v133h614v-133h-252v-149c53 19 107 31 163 31c170 0 250 -92 250 -242c0 -181 -103 -322 -267 -434z" />
    <glyph glyph-name="afii10052" unicode="&#x403;" horiz-adv-x="610" 
d="M78 0v707h494v-133h-324v-574h-170zM237 744l-23 113l271 67l27 -131z" />
    <glyph glyph-name="afii10053" unicode="&#x404;" horiz-adv-x="686" 
d="M435 -10c-259 0 -392 127 -392 359c0 246 131 368 388 368c105 0 167 -19 220 -43l-45 -123c-67 18 -95 25 -173 26c-110 1 -191 -52 -212 -160h325v-123h-323c24 -106 109 -162 230 -162c69 0 110 6 164 20l36 -128c-68 -25 -127 -34 -218 -34z" />
    <glyph glyph-name="afii10054" unicode="&#x405;" horiz-adv-x="597" 
d="M265 -11c-116 0 -184 21 -237 50l48 122c63 -22 109 -32 187 -32c85 0 124 26 124 69c0 115 -336 84 -336 324c0 136 129 195 254 195c112 0 166 -24 221 -48l-49 -118c-52 15 -95 29 -167 29c-71 0 -93 -27 -93 -57c0 -94 342 -94 342 -319c0 -155 -148 -215 -294 -215z
" />
    <glyph glyph-name="afii10055" unicode="&#x406;" horiz-adv-x="326" 
d="M78 0v707h170v-707h-170z" />
    <glyph glyph-name="afii10056" unicode="&#x407;" horiz-adv-x="326" 
d="M78 0v707h170v-707h-170zM41 737l-99 100l99 100l100 -100zM285 737l-100 100l100 100l99 -100z" />
    <glyph glyph-name="afii10057" unicode="&#x408;" horiz-adv-x="326" 
d="M-6 -198l-61 122c119 66 145 109 145 227v556h171v-554c0 -142 -21 -275 -255 -351z" />
    <glyph glyph-name="afii10058" unicode="&#x409;" horiz-adv-x="1046" 
d="M56 -22l-70 146c51 21 122 51 148 103c32 64 48 236 55 480h462v-220h52c211 0 325 -92 325 -243s-114 -244 -325 -244h-223v585h-150c-15 -273 -31 -386 -76 -463c-44 -75 -123 -114 -198 -144zM709 356h-58v-223h58c106 0 144 46 144 111s-38 112 -144 112z" />
    <glyph glyph-name="afii10059" unicode="&#x40a;" horiz-adv-x="1088" 
d="M78 0v706h170v-266h279v267h171v-267h50c209 0 322 -83 322 -219c0 -137 -113 -221 -322 -221h-221v311h-279v-311h-170zM754 311h-56v-178h56c103 0 140 37 140 89c0 51 -37 89 -140 89z" />
    <glyph glyph-name="afii10060" unicode="&#x40b;" horiz-adv-x="841" 
d="M200 0v574h-192v133h614v-133h-252v-149c53 19 107 31 163 31c170 0 250 -65 250 -202v-254h-170v218c0 89 -44 109 -118 109c-43 0 -82 -13 -125 -36v-291h-170z" />
    <glyph glyph-name="afii10061" unicode="&#x40c;" horiz-adv-x="731" 
d="M78 0v707h170v-303l242 303h217l-286 -331l302 -376h-217l-258 355v-355h-170zM270 744l-23 113l271 67l27 -131z" />
    <glyph glyph-name="uni040D" unicode="&#x40d;" horiz-adv-x="796" 
d="M78 0v707h170v-374l-4 -94l65 101l239 367h170v-707h-170v374l4 94l-65 -101l-239 -367h-170zM494 744l-275 49l27 131l271 -67z" />
    <glyph glyph-name="afii10062" unicode="&#x40e;" horiz-adv-x="675" 
d="M202 -9l-45 134c76 24 109 34 133 80l12 23h-49l-253 479h190l170 -351l122 351h193l-225 -490c-87 -189 -146 -197 -248 -226zM345 740c-90 0 -179 43 -226 122l79 84c45 -46 94 -68 147 -68c54 0 103 22 148 68l79 -84c-47 -79 -136 -122 -227 -122z" />
    <glyph glyph-name="afii10145" unicode="&#x40f;" horiz-adv-x="781" 
d="M308 -153v153h-230v707h170v-578h285v578h170v-707h-225v-153h-170z" />
    <glyph glyph-name="afii10017" unicode="&#x410;" horiz-adv-x="751" 
d="M11 0l272 707h219l238 -707h-176l-67 207h-239l-77 -207h-170zM303 330h154l-71 272z" />
    <glyph glyph-name="afii10018" unicode="&#x411;" horiz-adv-x="674" 
d="M78 0v707h494v-133h-323v-117h56c215 0 331 -76 331 -228s-116 -229 -331 -229h-227zM310 326h-61v-193h61c112 0 151 40 151 96s-39 97 -151 97z" />
    <glyph glyph-name="afii10019" unicode="&#x412;" horiz-adv-x="678" 
d="M78 0v707h248c173 0 263 -62 263 -195c0 -59 -35 -103 -71 -126v-2c48 -17 122 -69 122 -166c0 -129 -76 -218 -284 -218h-278zM249 133h86c90 0 135 24 135 81c0 64 -49 87 -147 87h-74v-168zM249 417h61c74 0 111 13 111 76c0 60 -40 84 -120 84h-52v-160z" />
    <glyph glyph-name="afii10020" unicode="&#x413;" horiz-adv-x="610" 
d="M78 0v707h494v-133h-324v-574h-170z" />
    <glyph glyph-name="afii10021" unicode="&#x414;" horiz-adv-x="804" 
d="M14 -153v283h70c29 51 54 103 70 160c30 106 39 234 51 417h466v-577h103v-283h-160v153h-440v-153h-160zM268 129h233v456h-148c-14 -164 -25 -251 -41 -321c-11 -47 -25 -86 -44 -135z" />
    <glyph glyph-name="afii10022" unicode="&#x415;" horiz-adv-x="613" 
d="M78 0v707h464v-133h-294v-157h272v-124h-272v-160h317v-133h-487z" />
    <glyph glyph-name="afii10024" unicode="&#x416;" horiz-adv-x="1046" 
d="M438 0v335l-218 -335h-212l262 371l-241 336h207l202 -307v307h170v-308l202 308h207l-241 -336l262 -371h-212l-218 334v-334h-170z" />
    <glyph glyph-name="afii10025" unicode="&#x417;" horiz-adv-x="591" 
d="M276 -8c-105 0 -194 26 -256 62l55 125c38 -19 113 -51 185 -51c71 0 123 25 123 85c0 62 -56 84 -130 84h-96v122h97c65 0 103 33 103 80c0 49 -33 76 -101 76c-55 0 -105 -17 -151 -35l-55 115c48 25 127 56 223 56c171 0 255 -81 255 -179c0 -90 -50 -139 -96 -165v-2
c50 -14 125 -64 125 -168c0 -95 -65 -205 -281 -205z" />
    <glyph glyph-name="afii10026" unicode="&#x418;" horiz-adv-x="796" 
d="M78 0v707h170v-374l-4 -94l65 101l239 367h170v-707h-170v374l4 94l-65 -101l-239 -367h-170z" />
    <glyph glyph-name="afii10027" unicode="&#x419;" horiz-adv-x="796" 
d="M403 740c-90 0 -179 43 -226 122l79 84c45 -46 94 -68 147 -68c54 0 103 22 148 68l79 -84c-47 -79 -136 -122 -227 -122zM78 0v707h170v-374l-4 -94l65 101l239 367h170v-707h-170v374l4 94l-65 -101l-239 -367h-170z" />
    <glyph glyph-name="afii10028" unicode="&#x41a;" horiz-adv-x="731" 
d="M78 0v707h170v-303l242 303h217l-286 -331l302 -376h-217l-258 355v-355h-170z" />
    <glyph glyph-name="afii10029" unicode="&#x41b;" horiz-adv-x="728" 
d="M56 -22l-70 146c51 21 122 51 148 103c32 64 48 236 55 480h461v-707h-170v585h-150c-23 -273 -31 -386 -76 -463c-44 -75 -123 -114 -198 -144z" />
    <glyph glyph-name="afii10030" unicode="&#x41c;" horiz-adv-x="983" 
d="M78 0v707h207l197 -555l226 555h197v-707h-170v263l5 156l-168 -419h-190l-145 431l11 -168v-263h-170z" />
    <glyph glyph-name="afii10031" unicode="&#x41d;" horiz-adv-x="796" 
d="M78 0v707h170v-287h300v287h170v-707h-170v291h-300v-291h-170z" />
    <glyph glyph-name="afii10032" unicode="&#x41e;" horiz-adv-x="843" 
d="M413 -12c-248 0 -370 140 -370 367c0 239 148 363 389 363c257 0 368 -144 368 -365c0 -235 -135 -365 -387 -365zM416 122c156 0 211 100 211 232s-61 230 -204 230c-150 0 -208 -98 -208 -228c0 -129 57 -234 201 -234z" />
    <glyph glyph-name="afii10033" unicode="&#x41f;" horiz-adv-x="786" 
d="M78 0v707h630v-707h-170v578h-290v-578h-170z" />
    <glyph glyph-name="afii10034" unicode="&#x420;" horiz-adv-x="644" 
d="M78 0v707h275c159 0 273 -93 273 -251c0 -139 -114 -256 -325 -256h-52v-200h-171zM249 574v-243h58c106 0 144 55 144 121c0 71 -29 122 -120 122h-82z" />
    <glyph glyph-name="afii10035" unicode="&#x421;" horiz-adv-x="686" 
d="M435 -10c-259 0 -392 127 -392 359c0 246 131 368 388 368c105 0 167 -19 220 -43l-45 -123c-67 18 -95 25 -173 26c-128 2 -217 -70 -217 -218s94 -227 237 -227c69 0 110 6 164 20l36 -128c-68 -25 -127 -34 -218 -34z" />
    <glyph glyph-name="afii10036" unicode="&#x422;" horiz-adv-x="630" 
d="M230 0v574h-222v133h614v-133h-222v-574h-170z" />
    <glyph glyph-name="afii10037" unicode="&#x423;" horiz-adv-x="675" 
d="M202 -9l-45 134c76 24 109 34 133 80l12 23h-49l-253 479h190l170 -351l122 351h193l-225 -490c-87 -189 -146 -197 -248 -226z" />
    <glyph glyph-name="afii10038" unicode="&#x424;" horiz-adv-x="885" 
d="M359 0v85c-176 0 -316 93 -316 288s140 288 316 288v76h167v-76c176 0 316 -93 316 -288s-140 -288 -316 -288v-85h-167zM526 207c88 0 146 60 146 166c0 110 -58 166 -146 166v-332zM359 207v332c-88 0 -146 -56 -146 -166c0 -106 58 -166 146 -166z" />
    <glyph glyph-name="afii10039" unicode="&#x425;" horiz-adv-x="695" 
d="M8 0l253 362l-225 345h195l128 -217l138 217h190l-238 -342l238 -365h-196l-141 238l-152 -238h-190z" />
    <glyph glyph-name="afii10040" unicode="&#x426;" horiz-adv-x="836" 
d="M646 -153v153h-568v707h170v-578h285v578h170v-577h103v-283h-160z" />
    <glyph glyph-name="afii10041" unicode="&#x427;" horiz-adv-x="719" 
d="M471 0v282c-53 -19 -107 -31 -163 -31c-170 0 -250 65 -250 202v254h170v-218c0 -89 44 -109 118 -109c43 0 82 13 125 36v291h170v-707h-170z" />
    <glyph glyph-name="afii10042" unicode="&#x428;" horiz-adv-x="1040" 
d="M78 0v707h170v-578h187v578h170v-578h187v578h170v-707h-884z" />
    <glyph glyph-name="afii10043" unicode="&#x429;" horiz-adv-x="1095" 
d="M905 -153v153h-827v707h170v-578h187v578h170v-578h187v578h170v-577h103v-283h-160z" />
    <glyph glyph-name="afii10044" unicode="&#x42a;" horiz-adv-x="769" 
d="M203 0v578h-203v129h375v-220h52c211 0 325 -92 325 -243s-114 -244 -325 -244h-224zM433 356h-58v-223h58c106 0 144 46 144 111s-38 112 -144 112z" />
    <glyph glyph-name="afii10045" unicode="&#x42b;" horiz-adv-x="939" 
d="M76 0v707h172v-220h52c211 0 325 -92 325 -243s-114 -244 -325 -244h-224zM691 0v707h170v-707h-170zM306 356h-58v-223h58c106 0 144 46 144 111s-38 112 -144 112z" />
    <glyph glyph-name="afii10046" unicode="&#x42c;" horiz-adv-x="644" 
d="M76 0v707h172v-220h52c211 0 325 -87 325 -238s-114 -249 -325 -249h-224zM306 356h-58v-223h58c106 0 144 51 144 116s-38 107 -144 107z" />
    <glyph glyph-name="afii10047" unicode="&#x42d;" horiz-adv-x="686" 
d="M251 -10c-91 0 -150 9 -218 34l36 128c54 -14 95 -20 164 -20c121 0 206 56 230 162h-323v123h325c-21 108 -102 159 -212 158c-78 -1 -106 -6 -173 -24l-45 123c53 24 115 41 220 41c257 0 388 -120 388 -366c0 -232 -133 -359 -392 -359z" />
    <glyph glyph-name="afii10048" unicode="&#x42e;" horiz-adv-x="1143" 
d="M713 -12c-224 0 -345 114 -367 303h-98v-291h-170v707h170v-287h99c25 196 167 298 385 298c257 0 368 -144 368 -365c0 -235 -135 -365 -387 -365zM716 122c156 0 211 100 211 232s-61 230 -204 230c-150 0 -208 -98 -208 -228c0 -129 57 -234 201 -234z" />
    <glyph glyph-name="afii10049" unicode="&#x42f;" horiz-adv-x="704" 
d="M48 -13l-28 130c61 17 105 38 144 114l28 54c-76 35 -114 102 -114 181c0 158 114 241 273 241h275v-707h-171v244h-52c-13 0 -26 0 -38 1l-50 -93c-56 -104 -129 -158 -267 -165zM397 363h58v210h-72c-91 0 -130 -38 -130 -103c0 -67 43 -107 144 -107z" />
    <glyph glyph-name="afii10065" unicode="&#x430;" horiz-adv-x="627" 
d="M226 -9c-120 0 -188 56 -188 165c0 138 126 166 234 166h95v34c0 48 -31 62 -99 62c-54 0 -112 -12 -163 -24l-33 121c62 24 134 44 221 44c169 0 237 -48 237 -171v-243c0 -18 18 -22 49 -23l-6 -126c-13 -1 -26 -1 -39 -1c-66 0 -136 11 -151 58
c-40 -31 -97 -62 -157 -62zM261 120c32 0 70 9 106 19v86l-82 -2c-49 -1 -85 -17 -85 -57c0 -32 31 -46 61 -46z" />
    <glyph glyph-name="afii10066" unicode="&#x431;" horiz-adv-x="632" 
d="M301 -11c-157 0 -263 94 -263 304c0 124 23 297 101 359c61 49 226 93 396 120l25 -147c-152 -21 -279 -40 -315 -64c-29 -19 -43 -59 -47 -104c45 25 101 40 179 40c140 0 217 -69 217 -224c0 -197 -124 -284 -293 -284zM313 120c88 0 114 75 114 144
c0 65 -30 107 -107 107c-42 0 -92 -13 -125 -30c-1 -13 0 -43 0 -56c0 -115 43 -165 118 -165z" />
    <glyph glyph-name="afii10067" unicode="&#x432;" horiz-adv-x="591" 
d="M68 0v546h271c116 0 189 -50 189 -150c0 -58 -36 -93 -68 -107c38 -7 95 -44 95 -124c0 -106 -93 -165 -216 -165h-271zM235 114h68c50 0 82 18 82 56c0 44 -37 55 -88 56h-62v-112zM235 327h42c53 0 92 12 92 52c0 37 -30 53 -78 53h-56v-105z" />
    <glyph glyph-name="afii10068" unicode="&#x433;" horiz-adv-x="503" 
d="M68 0v546h408v-123h-241v-423h-167z" />
    <glyph glyph-name="afii10069" unicode="&#x434;" horiz-adv-x="686" 
d="M10 -147v269h65c34 61 51 99 62 169c9 56 14 132 22 255h414v-424h93v-269h-153v147h-350v-147h-153zM242 122h164v302h-105c-6 -79 -11 -133 -18 -174c-10 -59 -22 -90 -41 -128z" />
    <glyph glyph-name="afii10070" unicode="&#x435;" horiz-adv-x="596" 
d="M334 -12c-180 0 -296 59 -296 277c0 223 117 294 282 294c172 0 238 -112 238 -277v-60h-354c-1 -86 67 -102 154 -102c37 0 99 12 156 22l25 -127c-61 -18 -139 -27 -205 -27zM209 329h178c2 66 -27 112 -81 112c-57 0 -94 -40 -97 -112z" />
    <glyph glyph-name="afii10072" unicode="&#x436;" horiz-adv-x="849" 
d="M52 -12l-29 126c49 18 85 44 122 90l66 82l-180 260h179l131 -208v208h167v-205l131 205h179l-180 -260l66 -82c37 -46 73 -72 122 -90l-29 -126c-87 4 -133 13 -202 107l-87 118v-213h-167v210l-87 -115c-70 -93 -115 -103 -202 -107z" />
    <glyph glyph-name="afii10073" unicode="&#x437;" horiz-adv-x="499" 
d="M230 -11c-75 0 -158 20 -214 48l43 124c25 -12 93 -43 155 -43c37 0 71 16 71 50c0 35 -34 48 -74 48h-86v122h80c49 0 67 25 67 48c0 25 -24 43 -65 43c-55 0 -96 -16 -138 -31l-38 116c53 26 124 46 206 46c133 0 201 -70 201 -145c0 -67 -34 -105 -78 -127
c46 -13 103 -52 103 -137c0 -76 -67 -162 -233 -162z" />
    <glyph glyph-name="afii10074" unicode="&#x438;" horiz-adv-x="685" 
d="M68 0v546h167v-238l-3 -86l57 86l161 238h167v-546h-167v235l3 87l-57 -87l-161 -235h-167z" />
    <glyph glyph-name="afii10075" unicode="&#x439;" horiz-adv-x="685" 
d="M342 597c-82 0 -162 44 -205 123l72 85c41 -46 85 -68 133 -68c49 0 93 22 134 68l72 -85c-43 -79 -123 -123 -206 -123zM68 0v546h167v-238l-3 -86l57 86l161 238h167v-546h-167v235l3 87l-57 -87l-161 -235h-167z" />
    <glyph glyph-name="afii10076" unicode="&#x43a;" horiz-adv-x="596" 
d="M68 0v546h167v-213l151 213h183l-203 -255l78 -86c39 -43 70 -73 139 -91l-19 -126c-87 4 -161 15 -232 107l-97 125v-220h-167z" />
    <glyph glyph-name="afii10077" unicode="&#x43b;" horiz-adv-x="630" 
d="M37 -16l-42 133c37 12 89 36 111 73c20 34 40 168 46 356h410v-546h-167v424h-105c-16 -177 -39 -286 -74 -339c-34 -51 -97 -84 -179 -101z" />
    <glyph glyph-name="afii10078" unicode="&#x43c;" horiz-adv-x="804" 
d="M68 0v546h204l126 -399l140 399h198v-546h-156v163l5 150l-103 -313h-173l-94 316l8 -153v-163h-155z" />
    <glyph glyph-name="afii10079" unicode="&#x43d;" horiz-adv-x="665" 
d="M68 0v546h167v-211h195v211h167v-546h-167v212h-195v-212h-167z" />
    <glyph glyph-name="afii10080" unicode="&#x43e;" horiz-adv-x="643" 
d="M315 -12c-180 0 -277 109 -277 280c0 181 113 292 286 292c194 0 281 -109 281 -287c0 -186 -122 -285 -290 -285zM323 121c90 0 112 59 112 152c0 88 -22 155 -114 155c-90 0 -115 -67 -115 -156c0 -94 28 -151 117 -151z" />
    <glyph glyph-name="afii10081" unicode="&#x43f;" horiz-adv-x="655" 
d="M68 0v546h519v-546h-167v424h-185v-424h-167z" />
    <glyph glyph-name="afii10082" unicode="&#x440;" horiz-adv-x="645" 
d="M68 -220v766h166v-39c22 19 82 53 132 53c150 0 241 -69 241 -262c0 -228 -147 -308 -306 -308c-25 0 -47 3 -67 4v-214h-166zM305 117c85 0 134 74 134 176c0 98 -39 127 -123 127c-28 0 -61 -8 -82 -15v-282c16 -2 44 -6 71 -6z" />
    <glyph glyph-name="afii10083" unicode="&#x441;" horiz-adv-x="537" 
d="M356 -11c-231 0 -318 85 -318 289c0 170 114 282 299 282c80 0 131 -15 174 -38l-43 -121c-44 17 -68 23 -124 23c-69 0 -135 -31 -135 -148c0 -105 25 -154 156 -154c46 0 71 6 116 14l23 -127c-59 -13 -87 -20 -148 -20z" />
    <glyph glyph-name="afii10084" unicode="&#x442;" horiz-adv-x="522" 
d="M178 0v423h-171v123h508v-123h-171v-423h-166z" />
    <glyph glyph-name="afii10085" unicode="&#x443;" horiz-adv-x="616" 
d="M182 -220l74 220h-60l-188 546h179l94 -324l23 -89l27 89l109 324h168l-267 -766h-159z" />
    <glyph glyph-name="afii10086" unicode="&#x444;" horiz-adv-x="811" 
d="M324 -220v208c-187 0 -286 109 -286 280c0 180 114 291 286 292v194h163v-194c194 0 286 -109 286 -287c0 -183 -123 -281 -286 -285v-208h-163zM487 121c89 0 116 59 116 152c0 87 -27 153 -116 155v-307zM324 117v311h-1c-90 0 -117 -67 -117 -156
c0 -94 30 -155 118 -155z" />
    <glyph glyph-name="afii10087" unicode="&#x445;" horiz-adv-x="610" 
d="M8 0l202 279l-187 267h192l89 -166l92 166h189l-187 -267l204 -279h-199l-99 178l-100 -178h-196z" />
    <glyph glyph-name="afii10088" unicode="&#x446;" horiz-adv-x="693" 
d="M520 -147v147h-452v546h167v-424h178v424h167v-424h93v-269h-153z" />
    <glyph glyph-name="afii10089" unicode="&#x447;" horiz-adv-x="624" 
d="M389 0v209c-35 -16 -90 -28 -141 -28c-141 0 -200 55 -200 202v163h166v-152c0 -70 30 -88 76 -88c40 0 72 10 99 24v216h167v-546h-167z" />
    <glyph glyph-name="afii10090" unicode="&#x448;" horiz-adv-x="899" 
d="M68 0v546h167v-424h131v424h167v-424h131v424h167v-546h-763z" />
    <glyph glyph-name="afii10091" unicode="&#x449;" horiz-adv-x="944" 
d="M771 -147v147h-703v546h167v-424h131v424h167v-424h131v424h167v-424h93v-269h-153z" />
    <glyph glyph-name="afii10092" unicode="&#x44a;" horiz-adv-x="684" 
d="M170 0v424h-170v122h337v-153h57c157 0 264 -70 264 -199c0 -109 -93 -194 -216 -194h-272zM384 271h-47v-148h63c54 0 88 25 88 73c0 56 -44 75 -104 75z" />
    <glyph glyph-name="afii10093" unicode="&#x44b;" horiz-adv-x="830" 
d="M68 0v546h167v-153h57c157 0 254 -70 254 -199c0 -109 -83 -194 -206 -194h-272zM595 0v546h167v-546h-167zM282 271h-47v-148h63c54 0 78 25 78 73c0 56 -34 75 -94 75z" />
    <glyph glyph-name="afii10094" unicode="&#x44c;" horiz-adv-x="582" 
d="M68 0v546h167v-153h57c157 0 264 -70 264 -199c0 -109 -93 -194 -216 -194h-272zM282 271h-47v-148h63c54 0 88 25 88 73c0 56 -44 75 -104 75z" />
    <glyph glyph-name="afii10095" unicode="&#x44d;" horiz-adv-x="535" 
d="M216 -9c-77 0 -138 16 -190 41l43 124c35 -14 90 -35 148 -35c70 0 103 32 111 95h-193v122h192c-13 67 -59 89 -114 89c-52 0 -87 -11 -131 -26l-48 117c43 23 98 42 178 42c185 0 285 -90 285 -280c0 -184 -101 -289 -281 -289z" />
    <glyph glyph-name="afii10096" unicode="&#x44e;" horiz-adv-x="936" 
d="M608 -12c-160 0 -254 85 -273 224h-99v-212h-167v546h167v-211h100c25 141 130 225 281 225c194 0 281 -109 281 -287c0 -186 -122 -285 -290 -285zM616 121c90 0 112 59 112 152c0 88 -22 155 -114 155c-90 0 -115 -67 -115 -156c0 -94 28 -151 117 -151z" />
    <glyph glyph-name="afii10097" unicode="&#x44f;" horiz-adv-x="611" 
d="M53 -12l-17 127c49 10 76 11 110 54c6 7 12 16 18 26c-50 26 -89 82 -89 156c0 129 103 195 231 195h237v-546h-167v157h-51l-47 -63c-68 -92 -137 -104 -225 -106zM333 279h43v145h-52c-46 0 -79 -29 -79 -73c0 -46 44 -72 88 -72z" />
    <glyph glyph-name="uni0450" unicode="&#x450;" horiz-adv-x="596" 
d="M334 -12c-180 0 -296 59 -296 277c0 223 117 294 282 294c172 0 238 -112 238 -277v-60h-354c-1 -86 67 -102 154 -102c37 0 99 12 156 22l25 -127c-61 -18 -139 -27 -205 -27zM209 329h178c2 66 -27 112 -81 112c-57 0 -94 -40 -97 -112zM356 602l-244 104l54 117
l238 -121z" />
    <glyph glyph-name="afii10071" unicode="&#x451;" horiz-adv-x="596" 
d="M334 -12c-180 0 -296 59 -296 277c0 223 117 294 282 294c172 0 238 -112 238 -277v-60h-354c-1 -86 67 -102 154 -102c37 0 99 12 156 22l25 -127c-61 -18 -139 -27 -205 -27zM209 329h178c2 66 -27 112 -81 112c-57 0 -94 -40 -97 -112zM179 622l-93 94l93 94l94 -94z
M423 622l-94 94l94 94l93 -94z" />
    <glyph glyph-name="afii10099" unicode="&#x452;" horiz-adv-x="706" 
d="M459 -220l-112 102c72 78 145 194 145 346c0 83 -37 125 -103 125c-47 0 -78 -15 -105 -28v-325h-167v552h-99v114h99v88h167v-88h178v-114h-178v-123c33 25 105 71 178 71c153 0 200 -134 200 -258c0 -174 -68 -332 -203 -462z" />
    <glyph glyph-name="afii10100" unicode="&#x453;" horiz-adv-x="503" 
d="M68 0v546h408v-123h-241v-423h-167zM163 602l-47 100l238 121l54 -117z" />
    <glyph glyph-name="afii10101" unicode="&#x454;" horiz-adv-x="537" 
d="M357 -9c-231 0 -319 83 -319 287c0 170 114 282 299 282c80 0 131 -15 174 -38l-43 -121c-44 17 -68 23 -124 23c-55 0 -108 -20 -127 -86h187v-122h-191c12 -63 50 -92 153 -92c46 0 70 6 115 12l23 -127c-59 -13 -86 -18 -147 -18z" />
    <glyph glyph-name="afii10102" unicode="&#x455;" horiz-adv-x="512" 
d="M234 -12c-79 0 -143 7 -199 23l18 126c71 -10 128 -15 165 -15c84 0 94 22 94 38c0 59 -275 31 -275 227c0 118 111 173 230 173c67 0 127 -11 184 -31l-28 -121c-53 12 -95 20 -151 20c-57 0 -68 -21 -68 -33c0 -62 273 -45 273 -228c0 -144 -151 -179 -243 -179z" />
    <glyph glyph-name="afii10103" unicode="&#x456;" horiz-adv-x="303" 
d="M69 0v546h166v-546h-166zM154 604l-111 112l111 111l112 -111z" />
    <glyph glyph-name="afii10104" unicode="&#x457;" horiz-adv-x="303" 
d="M69 0v546h166v-546h-166zM31 622l-93 94l93 94l94 -94zM275 622l-94 94l94 94l93 -94z" />
    <glyph glyph-name="afii10105" unicode="&#x458;" horiz-adv-x="303" 
d="M14 -220c-39 0 -95 11 -128 23l31 129s61 -11 92 -11c43 0 60 14 60 82v543h166v-544c0 -190 -105 -222 -221 -222zM148 604l-111 112l111 111l112 -111z" />
    <glyph glyph-name="afii10106" unicode="&#x459;" horiz-adv-x="910" 
d="M37 -17l-42 133c37 12 91 37 113 74c20 34 40 168 46 356h409v-153h57c157 0 264 -70 264 -199c0 -109 -93 -194 -216 -194h-273v424h-105c-19 -177 -39 -286 -74 -339c-34 -51 -97 -85 -179 -102zM610 271h-47v-148h63c54 0 88 25 88 73c0 56 -44 75 -104 75z" />
    <glyph glyph-name="afii10107" unicode="&#x45a;" horiz-adv-x="920" 
d="M68 0v546h168v-191h185v191h167v-191h54c150 0 252 -62 252 -180c0 -99 -89 -175 -206 -175h-267v232h-185v-232h-168zM628 232h-40v-109h53c46 0 75 19 75 54c0 41 -37 55 -88 55z" />
    <glyph glyph-name="afii10108" unicode="&#x45b;" horiz-adv-x="713" 
d="M117 0v552h-99v114h99v88h167v-88h178v-114h-178v-123c33 25 105 71 178 71c171 0 183 -95 183 -219v-281h-166v267c0 75 -17 88 -73 88c-50 0 -95 -17 -122 -30v-325h-167z" />
    <glyph glyph-name="afii10109" unicode="&#x45c;" horiz-adv-x="596" 
d="M68 0v546h167v-213l151 213h183l-203 -255l78 -86c39 -43 70 -73 139 -91l-19 -126c-87 4 -161 15 -232 107l-97 125v-220h-167zM223 602l-47 100l238 121l54 -117z" />
    <glyph glyph-name="uni045D" unicode="&#x45d;" horiz-adv-x="685" 
d="M68 0v546h167v-238l-3 -86l57 86l161 238h167v-546h-167v235l3 87l-57 -87l-161 -235h-167zM420 602l-244 104l54 117l238 -121z" />
    <glyph glyph-name="afii10110" unicode="&#x45e;" horiz-adv-x="616" 
d="M182 -220l74 220h-60l-188 546h179l94 -324l23 -89l27 89l109 324h168l-267 -766h-159zM304 602c-78 0 -154 42 -195 117l69 81c39 -44 80 -65 126 -65c47 0 88 21 127 65l69 -81c-41 -75 -117 -117 -196 -117z" />
    <glyph glyph-name="afii10193" unicode="&#x45f;" horiz-adv-x="657" 
d="M251 -147v147h-183v546h167v-424h187v424h167v-546h-183v-147h-155z" />
    <glyph glyph-name="afii10146" unicode="&#x462;" horiz-adv-x="697" 
d="M128 0v498h-163v129h163v79l172 1v-80h196v-128h-196v-72h61c211 0 316 -62 316 -213s-114 -214 -325 -214h-224zM358 296h-58v-163h58c106 0 144 16 144 81s-38 82 -144 82z" />
    <glyph glyph-name="afii10194" unicode="&#x463;" horiz-adv-x="601" 
d="M96 0v424h-146v122h146v160h167v-160h171v-122h-171v-61h57c157 0 264 -55 264 -184c0 -109 -93 -179 -216 -179h-272zM310 241h-47v-118h63c54 0 88 17 88 58c0 44 -44 60 -104 60z" />
    <glyph glyph-name="afii10147" unicode="&#x472;" horiz-adv-x="843" 
d="M413 -12c-248 0 -370 140 -370 367c0 223 148 363 389 363c257 0 368 -154 368 -365c0 -225 -135 -365 -387 -365zM416 122c136 0 195 76 208 183h-406c14 -105 73 -183 198 -183zM218 403h406c-14 106 -77 181 -201 181c-132 0 -192 -75 -205 -181z" />
    <glyph glyph-name="afii10195" unicode="&#x473;" horiz-adv-x="643" 
d="M315 -12c-180 0 -277 109 -277 280c0 181 113 292 286 292c194 0 281 -109 281 -287c0 -186 -122 -285 -290 -285zM323 121c73 0 101 39 109 104h-224c9 -66 42 -104 115 -104zM209 323h223c-9 62 -38 105 -111 105c-72 0 -102 -43 -112 -105z" />
    <glyph glyph-name="afii10148" unicode="&#x474;" horiz-adv-x="753" 
d="M244 0l-241 707h179l175 -580l147 413c34 100 81 160 149 200l120 -96c-51 -34 -90 -74 -126 -170l-184 -474h-219z" />
    <glyph glyph-name="afii10196" unicode="&#x475;" horiz-adv-x="623" 
d="M205 0l-197 546h179l92 -296l28 -109l31 109l43 126c34 100 81 160 149 200l120 -96c-51 -34 -90 -74 -125 -164l-122 -316h-198z" />
    <glyph glyph-name="afii10050" unicode="&#x490;" horiz-adv-x="610" 
d="M78 0v707h334v161h160l-1 -294h-323v-574h-170z" />
    <glyph glyph-name="afii10098" unicode="&#x491;" horiz-adv-x="503" 
d="M68 0v546h255v114h152l1 -237h-242v-423h-166z" />
    <glyph glyph-name="afii10798" unicode="&#x4d8;" horiz-adv-x="795" 
d="M385 -12c-242 0 -345 133 -350 350v74h540c-16 102 -86 172 -207 172c-85 0 -145 -12 -228 -57l-66 110c104 66 203 81 318 81c237 -1 360 -154 360 -365c0 -225 -125 -365 -367 -365zM388 122c132 0 172 72 187 174h-364c16 -100 56 -174 177 -174z" />
    <glyph glyph-name="afii10846" unicode="&#x4d9;" horiz-adv-x="596" 
d="M262 560c180 0 296 -59 296 -277c0 -223 -117 -294 -282 -294c-172 0 -238 112 -238 277v60h354c1 86 -67 102 -154 102c-37 0 -99 -12 -156 -22l-25 127c61 18 139 27 205 27zM387 219h-178c-2 -66 27 -112 81 -112c57 0 94 40 97 112z" />
    <glyph glyph-name="uni1E47" unicode="&#x1e47;" horiz-adv-x="664" 
d="M68 0v546h167v-55c33 25 105 69 178 69c171 0 183 -94 183 -218v-342h-166v328c0 75 -17 88 -73 88c-50 0 -95 -16 -122 -29v-387h-167zM331 -285l-111 112l111 111l112 -111z" />
    <glyph glyph-name="uni1E63" unicode="&#x1e63;" horiz-adv-x="512" 
d="M234 -12c-79 0 -143 7 -199 23l18 126c71 -10 128 -15 165 -15c84 0 94 22 94 38c0 59 -275 31 -275 227c0 118 111 173 230 173c67 0 127 -11 184 -31l-28 -121c-53 12 -95 20 -151 20c-57 0 -68 -21 -68 -33c0 -62 273 -45 273 -228c0 -144 -151 -179 -243 -179z
M230 -285l-111 112l111 111l112 -111z" />
    <glyph glyph-name="Wgrave" unicode="&#x1e80;" horiz-adv-x="1061" 
d="M166 0l-152 707h165l110 -599l164 427l-60 172h169l185 -593l138 593h162l-194 -707h-214l-122 362l-132 -362h-219zM604 744l-275 49l27 131l271 -67z" />
    <glyph glyph-name="wgrave" unicode="&#x1e81;" horiz-adv-x="904" 
d="M148 0l-140 546h175l70 -410l100 410h197l85 -410l90 410h171l-162 -546h-205l-64 298l-18 91l-21 -91l-71 -298h-207zM540 602l-244 104l54 117l238 -121z" />
    <glyph glyph-name="Wacute" unicode="&#x1e82;" horiz-adv-x="1061" 
d="M166 0l-152 707h165l110 -599l164 427l-60 172h169l185 -593l138 593h162l-194 -707h-214l-122 362l-132 -362h-219zM402 744l-23 113l271 67l27 -131z" />
    <glyph glyph-name="wacute" unicode="&#x1e83;" horiz-adv-x="904" 
d="M148 0l-140 546h175l70 -410l100 410h197l85 -410l90 410h171l-162 -546h-205l-64 298l-18 91l-21 -91l-71 -298h-207zM376 602l-47 100l238 121l54 -117z" />
    <glyph glyph-name="Wdieresis" unicode="&#x1e84;" horiz-adv-x="1061" 
d="M166 0l-152 707h165l110 -599l164 427l-60 172h169l185 -593l138 593h162l-194 -707h-214l-122 362l-132 -362h-219zM393 737l-99 100l99 100l100 -100zM637 737l-100 100l100 100l99 -100z" />
    <glyph glyph-name="wdieresis" unicode="&#x1e85;" horiz-adv-x="904" 
d="M148 0l-140 546h175l70 -410l100 410h197l85 -410l90 410h171l-162 -546h-205l-64 298l-18 91l-21 -91l-71 -298h-207zM324 622l-93 94l93 94l94 -94zM568 622l-94 94l94 94l93 -94z" />
    <glyph glyph-name="uni1EBD" unicode="&#x1ebd;" horiz-adv-x="596" 
d="M334 -12c-180 0 -296 59 -296 277c0 223 117 294 282 294c172 0 238 -112 238 -277v-60h-354c-1 -86 67 -102 154 -102c37 0 99 12 156 22l25 -127c-61 -18 -139 -27 -205 -27zM209 329h178c2 66 -27 112 -81 112c-57 0 -94 -40 -97 -112zM367 634c-51 0 -89 38 -128 38
c-19 0 -40 -2 -70 -28l-63 74c24 29 77 82 144 82c63 0 89 -38 123 -38c32 0 51 7 87 26l55 -74c-23 -25 -73 -80 -148 -80z" />
    <glyph glyph-name="Ygrave" unicode="&#x1ef2;" horiz-adv-x="709" 
d="M261 0v227l-261 480h196l156 -337l166 337h191l-278 -474v-233h-170zM450 744l-275 49l27 131l271 -67z" />
    <glyph glyph-name="ygrave" unicode="&#x1ef3;" horiz-adv-x="616" 
d="M182 -220l74 220h-60l-188 546h179l94 -324l23 -89l27 89l109 324h168l-267 -766h-159zM378 602l-244 104l54 117l238 -121z" />
    <glyph glyph-name="uni1F00" unicode="&#x1f00;" horiz-adv-x="671" 
d="M260 -8c-69 0 -222 13 -222 250c0 196 131 318 297 318c103 0 161 -17 239 -41v-374c0 -18 18 -22 49 -23l-6 -126c-14 -1 -36 -1 -50 -1c-83 0 -148 21 -152 104c-19 -49 -76 -107 -155 -107zM288 131c60 0 111 53 119 132v150c-17 7 -39 15 -69 15
c-95 0 -134 -81 -134 -176c0 -119 55 -121 84 -121zM288 619c0 0 44 39 44 82c0 32 -8 57 -29 82h129c23 -28 32 -55 32 -79c0 -34 -21 -63 -47 -85h-129z" />
    <glyph glyph-name="uni1F01" unicode="&#x1f01;" horiz-adv-x="671" 
d="M260 -8c-69 0 -222 13 -222 250c0 196 131 318 297 318c103 0 161 -17 239 -41v-374c0 -18 18 -22 49 -23l-6 -126c-14 -1 -36 -1 -50 -1c-83 0 -148 21 -152 104c-19 -49 -76 -107 -155 -107zM288 131c60 0 111 53 119 132v150c-17 7 -39 15 -69 15
c-95 0 -134 -81 -134 -176c0 -119 55 -121 84 -121zM344 619c-26 22 -47 51 -47 85c0 24 9 51 32 79h129c-21 -25 -29 -50 -29 -82c0 -43 44 -82 44 -82h-129z" />
    <glyph glyph-name="uni1F02" unicode="&#x1f02;" horiz-adv-x="671" 
d="M260 -8c-69 0 -222 13 -222 250c0 196 131 318 297 318c103 0 161 -17 239 -41v-374c0 -18 18 -22 49 -23l-6 -126c-14 -1 -36 -1 -50 -1c-83 0 -148 21 -152 104c-19 -49 -76 -107 -155 -107zM288 131c60 0 111 53 119 132v150c-17 7 -39 15 -69 15
c-95 0 -134 -81 -134 -176c0 -119 55 -121 84 -121zM183 619c0 0 44 39 44 82c0 32 -8 57 -29 82h129c23 -28 32 -55 32 -79c0 -34 -21 -63 -47 -85h-129zM467 619l-98 162h157l69 -162h-128z" />
    <glyph glyph-name="uni1F03" unicode="&#x1f03;" horiz-adv-x="671" 
d="M260 -8c-69 0 -222 13 -222 250c0 196 131 318 297 318c103 0 161 -17 239 -41v-374c0 -18 18 -22 49 -23l-6 -126c-14 -1 -36 -1 -50 -1c-83 0 -148 21 -152 104c-19 -49 -76 -107 -155 -107zM288 131c60 0 111 53 119 132v150c-17 7 -39 15 -69 15
c-95 0 -134 -81 -134 -176c0 -119 55 -121 84 -121zM222 619c-26 22 -47 51 -47 85c0 24 9 51 32 79h129c-21 -25 -29 -50 -29 -82c0 -43 44 -82 44 -82h-129zM449 619l-98 162h157l69 -162h-128z" />
    <glyph glyph-name="uni1F04" unicode="&#x1f04;" horiz-adv-x="671" 
d="M260 -8c-69 0 -222 13 -222 250c0 196 131 318 297 318c103 0 161 -17 239 -41v-374c0 -18 18 -22 49 -23l-6 -126c-14 -1 -36 -1 -50 -1c-83 0 -148 21 -152 104c-19 -49 -76 -107 -155 -107zM288 131c60 0 111 53 119 132v150c-17 7 -39 15 -69 15
c-95 0 -134 -81 -134 -176c0 -119 55 -121 84 -121zM206 619c0 0 44 39 44 82c0 32 -8 57 -29 82h129c23 -28 32 -55 32 -79c0 -34 -21 -63 -47 -85h-129zM382 619l69 162h157l-98 -162h-128z" />
    <glyph glyph-name="uni1F05" unicode="&#x1f05;" horiz-adv-x="671" 
d="M260 -8c-69 0 -222 13 -222 250c0 196 131 318 297 318c103 0 161 -17 239 -41v-374c0 -18 18 -22 49 -23l-6 -126c-14 -1 -36 -1 -50 -1c-83 0 -148 21 -152 104c-19 -49 -76 -107 -155 -107zM288 131c60 0 111 53 119 132v150c-17 7 -39 15 -69 15
c-95 0 -134 -81 -134 -176c0 -119 55 -121 84 -121zM246 619c-26 22 -47 51 -47 85c0 24 9 51 32 79h129c-21 -25 -29 -50 -29 -82c0 -43 44 -82 44 -82h-129zM395 619l69 162h157l-98 -162h-128z" />
    <glyph glyph-name="uni1F06" unicode="&#x1f06;" horiz-adv-x="671" 
d="M260 -8c-69 0 -222 13 -222 250c0 196 131 318 297 318c103 0 161 -17 239 -41v-374c0 -18 18 -22 49 -23l-6 -126c-14 -1 -36 -1 -50 -1c-83 0 -148 21 -152 104c-19 -49 -76 -107 -155 -107zM288 131c60 0 111 53 119 132v150c-17 7 -39 15 -69 15
c-95 0 -134 -81 -134 -176c0 -119 55 -121 84 -121zM422 823c-51 0 -105 36 -130 36c-29 0 -47 -8 -76 -29l-63 85c24 28 76 81 154 81c54 0 83 -38 110 -38c32 0 54 7 90 26l55 -84c-19 -27 -65 -77 -140 -77zM283 619c0 0 44 39 44 82c0 32 -8 57 -29 82h129
c23 -28 32 -55 32 -79c0 -34 -21 -63 -47 -85h-129z" />
    <glyph glyph-name="uni1F07" unicode="&#x1f07;" horiz-adv-x="671" 
d="M260 -8c-69 0 -222 13 -222 250c0 196 131 318 297 318c103 0 161 -17 239 -41v-374c0 -18 18 -22 49 -23l-6 -126c-14 -1 -36 -1 -50 -1c-83 0 -148 21 -152 104c-19 -49 -76 -107 -155 -107zM288 131c60 0 111 53 119 132v150c-17 7 -39 15 -69 15
c-95 0 -134 -81 -134 -176c0 -119 55 -121 84 -121zM411 823c-51 0 -105 36 -130 36c-29 0 -47 -8 -76 -29l-63 85c24 28 76 81 154 81c54 0 83 -38 110 -38c32 0 54 7 90 26l55 -84c-19 -27 -65 -77 -140 -77zM319 619c-26 22 -47 51 -47 85c0 24 9 51 32 79h129
c-21 -25 -29 -50 -29 -82c0 -43 44 -82 44 -82h-129z" />
    <glyph glyph-name="uni1F08" unicode="&#x1f08;" horiz-adv-x="751" 
d="M9 545c0 0 44 39 44 82c0 32 -8 57 -29 82h129c23 -28 32 -55 32 -79c0 -34 -21 -63 -47 -85h-129zM11 0l272 707h219l238 -707h-176l-67 207h-239l-77 -207h-170zM303 330h154l-71 272z" />
    <glyph glyph-name="uni1F09" unicode="&#x1f09;" horiz-adv-x="751" 
d="M19 545c-26 22 -47 51 -47 85c0 24 9 51 32 79h129c-21 -25 -29 -50 -29 -82c0 -43 44 -82 44 -82h-129zM11 0l272 707h219l238 -707h-176l-67 207h-239l-77 -207h-170zM303 330h154l-71 272z" />
    <glyph glyph-name="uni1F0A" unicode="&#x1f0a;" horiz-adv-x="751" 
d="M-223 545c0 0 44 39 44 82c0 32 -8 57 -29 82h129c23 -28 32 -55 32 -79c0 -34 -21 -63 -47 -85h-129zM61 545l-98 162h157l69 -162h-128zM11 0l272 707h219l238 -707h-176l-67 207h-239l-77 -207h-170zM303 330h154l-71 272z" />
    <glyph glyph-name="uni1F0B" unicode="&#x1f0b;" horiz-adv-x="751" 
d="M-187 545c-26 22 -47 51 -47 85c0 24 9 51 32 79h129c-21 -25 -29 -50 -29 -82c0 -43 44 -82 44 -82h-129zM40 545l-98 162h157l69 -162h-128zM11 0l272 707h219l238 -707h-176l-67 207h-239l-77 -207h-170zM303 330h154l-71 272z" />
    <glyph glyph-name="uni1F0C" unicode="&#x1f0c;" horiz-adv-x="751" 
d="M-167 545c0 0 44 39 44 82c0 32 -8 57 -29 82h129c23 -28 32 -55 32 -79c0 -34 -21 -63 -47 -85h-129zM9 545l69 162h157l-98 -162h-128zM11 0l272 707h219l238 -707h-176l-67 207h-239l-77 -207h-170zM303 330h154l-71 272z" />
    <glyph glyph-name="uni1F0D" unicode="&#x1f0d;" horiz-adv-x="751" 
d="M-179 545c-26 22 -47 51 -47 85c0 24 9 51 32 79h129c-21 -25 -29 -50 -29 -82c0 -43 44 -82 44 -82h-129zM-30 545l69 162h157l-98 -162h-128zM11 0l272 707h219l238 -707h-176l-67 207h-239l-77 -207h-170zM303 330h154l-71 272z" />
    <glyph glyph-name="uni1F0E" unicode="&#x1f0e;" horiz-adv-x="751" 
d="M64 563c-51 0 -105 36 -130 36c-29 0 -47 -8 -76 -29l-63 85c24 28 76 81 154 81c54 0 83 -38 110 -38c32 0 54 7 90 26l55 -84c-19 -27 -65 -77 -140 -77zM-75 359c0 0 44 39 44 82c0 32 -8 57 -29 82h129c23 -28 32 -55 32 -79c0 -34 -21 -63 -47 -85h-129zM11 0
l272 707h219l238 -707h-176l-67 207h-239l-77 -207h-170zM303 330h154l-71 272z" />
    <glyph glyph-name="uni1F0F" unicode="&#x1f0f;" horiz-adv-x="751" 
d="M48 599c-51 0 -105 36 -130 36c-29 0 -47 -8 -76 -29l-63 85c24 28 76 81 154 81c54 0 83 -38 110 -38c32 0 54 7 90 26l55 -84c-19 -27 -65 -77 -140 -77zM-44 395c-26 22 -47 51 -47 85c0 24 9 51 32 79h129c-21 -25 -29 -50 -29 -82c0 -43 44 -82 44 -82h-129zM11 0
l272 707h219l238 -707h-176l-67 207h-239l-77 -207h-170zM303 330h154l-71 272z" />
    <glyph glyph-name="uni1F10" unicode="&#x1f10;" 
d="M302 -12c-174 0 -262 58 -262 160c0 61 34 122 120 146c-59 16 -94 58 -94 119c0 75 83 147 252 147c105 0 177 -25 211 -42l-43 -120c-26 10 -108 31 -176 31c-56 0 -81 -15 -81 -42c0 -32 38 -35 47 -35h138v-121h-140c-24 0 -63 -13 -63 -56c0 -34 46 -51 111 -51
c44 0 122 13 168 35l49 -119c-43 -19 -134 -52 -237 -52zM225 619c0 0 44 39 44 82c0 32 -8 57 -29 82h129c23 -28 32 -55 32 -79c0 -34 -21 -63 -47 -85h-129z" />
    <glyph glyph-name="uni1F11" unicode="&#x1f11;" 
d="M302 -12c-174 0 -262 58 -262 160c0 61 34 122 120 146c-59 16 -94 58 -94 119c0 75 83 147 252 147c105 0 177 -25 211 -42l-43 -120c-26 10 -108 31 -176 31c-56 0 -81 -15 -81 -42c0 -32 38 -35 47 -35h138v-121h-140c-24 0 -63 -13 -63 -56c0 -34 46 -51 111 -51
c44 0 122 13 168 35l49 -119c-43 -19 -134 -52 -237 -52zM284 619c-26 22 -47 51 -47 85c0 24 9 51 32 79h129c-21 -25 -29 -50 -29 -82c0 -43 44 -82 44 -82h-129z" />
    <glyph glyph-name="uni1F12" unicode="&#x1f12;" 
d="M302 -12c-174 0 -262 58 -262 160c0 61 34 122 120 146c-59 16 -94 58 -94 119c0 75 83 147 252 147c105 0 177 -25 211 -42l-43 -120c-26 10 -108 31 -176 31c-56 0 -81 -15 -81 -42c0 -32 38 -35 47 -35h138v-121h-140c-24 0 -63 -13 -63 -56c0 -34 46 -51 111 -51
c44 0 122 13 168 35l49 -119c-43 -19 -134 -52 -237 -52zM118 619c0 0 44 39 44 82c0 32 -8 57 -29 82h129c23 -28 32 -55 32 -79c0 -34 -21 -63 -47 -85h-129zM402 619l-98 162h157l69 -162h-128z" />
    <glyph glyph-name="uni1F13" unicode="&#x1f13;" 
d="M302 -12c-174 0 -262 58 -262 160c0 61 34 122 120 146c-59 16 -94 58 -94 119c0 75 83 147 252 147c105 0 177 -25 211 -42l-43 -120c-26 10 -108 31 -176 31c-56 0 -81 -15 -81 -42c0 -32 38 -35 47 -35h138v-121h-140c-24 0 -63 -13 -63 -56c0 -34 46 -51 111 -51
c44 0 122 13 168 35l49 -119c-43 -19 -134 -52 -237 -52zM158 619c-26 22 -47 51 -47 85c0 24 9 51 32 79h129c-21 -25 -29 -50 -29 -82c0 -43 44 -82 44 -82h-129zM385 619l-98 162h157l69 -162h-128z" />
    <glyph glyph-name="uni1F14" unicode="&#x1f14;" 
d="M302 -12c-174 0 -262 58 -262 160c0 61 34 122 120 146c-59 16 -94 58 -94 119c0 75 83 147 252 147c105 0 177 -25 211 -42l-43 -120c-26 10 -108 31 -176 31c-56 0 -81 -15 -81 -42c0 -32 38 -35 47 -35h138v-121h-140c-24 0 -63 -13 -63 -56c0 -34 46 -51 111 -51
c44 0 122 13 168 35l49 -119c-43 -19 -134 -52 -237 -52zM146 619c0 0 44 39 44 82c0 32 -8 57 -29 82h129c23 -28 32 -55 32 -79c0 -34 -21 -63 -47 -85h-129zM322 619l69 162h157l-98 -162h-128z" />
    <glyph glyph-name="uni1F15" unicode="&#x1f15;" 
d="M302 -12c-174 0 -262 58 -262 160c0 61 34 122 120 146c-59 16 -94 58 -94 119c0 75 83 147 252 147c105 0 177 -25 211 -42l-43 -120c-26 10 -108 31 -176 31c-56 0 -81 -15 -81 -42c0 -32 38 -35 47 -35h138v-121h-140c-24 0 -63 -13 -63 -56c0 -34 46 -51 111 -51
c44 0 122 13 168 35l49 -119c-43 -19 -134 -52 -237 -52zM176 619c-26 22 -47 51 -47 85c0 24 9 51 32 79h129c-21 -25 -29 -50 -29 -82c0 -43 44 -82 44 -82h-129zM325 619l69 162h157l-98 -162h-128z" />
    <glyph glyph-name="uni1F18" unicode="&#x1f18;" horiz-adv-x="613" 
d="M-147 545c0 0 44 39 44 82c0 32 -8 57 -29 82h129c23 -28 32 -55 32 -79c0 -34 -21 -63 -47 -85h-129zM78 0v707h464v-133h-294v-157h272v-124h-272v-160h317v-133h-487z" />
    <glyph glyph-name="uni1F19" unicode="&#x1f19;" horiz-adv-x="613" 
d="M-101 545c-26 22 -47 51 -47 85c0 24 9 51 32 79h129c-21 -25 -29 -50 -29 -82c0 -43 44 -82 44 -82h-129zM78 0v707h464v-133h-294v-157h272v-124h-272v-160h317v-133h-487z" />
    <glyph glyph-name="uni1F1A" unicode="&#x1f1a;" horiz-adv-x="613" 
d="M-368 545c0 0 44 39 44 82c0 32 -8 57 -29 82h129c23 -28 32 -55 32 -79c0 -34 -21 -63 -47 -85h-129zM-84 545l-98 162h157l69 -162h-128zM78 0v707h464v-133h-294v-157h272v-124h-272v-160h317v-133h-487z" />
    <glyph glyph-name="uni1F1B" unicode="&#x1f1b;" horiz-adv-x="613" 
d="M-318 545c-26 22 -47 51 -47 85c0 24 9 51 32 79h129c-21 -25 -29 -50 -29 -82c0 -43 44 -82 44 -82h-129zM-91 545l-98 162h157l69 -162h-128zM78 0v707h464v-133h-294v-157h272v-124h-272v-160h317v-133h-487z" />
    <glyph glyph-name="uni1F1C" unicode="&#x1f1c;" horiz-adv-x="613" 
d="M-357 545c0 0 44 39 44 82c0 32 -8 57 -29 82h129c23 -28 32 -55 32 -79c0 -34 -21 -63 -47 -85h-129zM-181 545l69 162h157l-98 -162h-128zM78 0v707h464v-133h-294v-157h272v-124h-272v-160h317v-133h-487z" />
    <glyph glyph-name="uni1F1D" unicode="&#x1f1d;" horiz-adv-x="613" 
d="M-337 545c-26 22 -47 51 -47 85c0 24 9 51 32 79h129c-21 -25 -29 -50 -29 -82c0 -43 44 -82 44 -82h-129zM-188 545l69 162h157l-98 -162h-128zM78 0v707h464v-133h-294v-157h272v-124h-272v-160h317v-133h-487z" />
    <glyph glyph-name="uni1F20" unicode="&#x1f20;" horiz-adv-x="681" 
d="M447 -220v549c0 75 -17 88 -73 88c-50 0 -95 -17 -122 -30v-387h-167v409c0 18 -16 22 -47 23l6 126c14 1 43 3 57 3c72 0 133 -15 147 -73c35 25 111 74 182 74c171 0 183 -95 183 -219v-563h-166zM281 619c0 0 44 39 44 82c0 32 -8 57 -29 82h129c23 -28 32 -55 32 -79
c0 -34 -21 -63 -47 -85h-129z" />
    <glyph glyph-name="uni1F21" unicode="&#x1f21;" horiz-adv-x="681" 
d="M447 -220v549c0 75 -17 88 -73 88c-50 0 -95 -17 -122 -30v-387h-167v409c0 18 -16 22 -47 23l6 126c14 1 43 3 57 3c72 0 133 -15 147 -73c35 25 111 74 182 74c171 0 183 -95 183 -219v-563h-166zM320 616c-26 22 -47 51 -47 85c0 24 9 51 32 79h129
c-21 -25 -29 -50 -29 -82c0 -43 44 -82 44 -82h-129z" />
    <glyph glyph-name="uni1F22" unicode="&#x1f22;" horiz-adv-x="681" 
d="M447 -220v549c0 75 -17 88 -73 88c-50 0 -95 -17 -122 -30v-387h-167v409c0 18 -16 22 -47 23l6 126c14 1 43 3 57 3c72 0 133 -15 147 -73c35 25 111 74 182 74c171 0 183 -95 183 -219v-563h-166zM138 619c0 0 44 39 44 82c0 32 -8 57 -29 82h129c23 -28 32 -55 32 -79
c0 -34 -21 -63 -47 -85h-129zM422 619l-98 162h157l69 -162h-128z" />
    <glyph glyph-name="uni1F23" unicode="&#x1f23;" horiz-adv-x="681" 
d="M447 -220v549c0 75 -17 88 -73 88c-50 0 -95 -17 -122 -30v-387h-167v409c0 18 -16 22 -47 23l6 126c14 1 43 3 57 3c72 0 133 -15 147 -73c35 25 111 74 182 74c171 0 183 -95 183 -219v-563h-166zM186 619c-26 22 -47 51 -47 85c0 24 9 51 32 79h129
c-21 -25 -29 -50 -29 -82c0 -43 44 -82 44 -82h-129zM413 619l-98 162h157l69 -162h-128z" />
    <glyph glyph-name="uni1F24" unicode="&#x1f24;" horiz-adv-x="681" 
d="M447 -220v549c0 75 -17 88 -73 88c-50 0 -95 -17 -122 -30v-387h-167v409c0 18 -16 22 -47 23l6 126c14 1 43 3 57 3c72 0 133 -15 147 -73c35 25 111 74 182 74c171 0 183 -95 183 -219v-563h-166zM183 619c0 0 44 39 44 82c0 32 -8 57 -29 82h129c23 -28 32 -55 32 -79
c0 -34 -21 -63 -47 -85h-129zM359 619l69 162h157l-98 -162h-128z" />
    <glyph glyph-name="uni1F25" unicode="&#x1f25;" horiz-adv-x="681" 
d="M447 -220v549c0 75 -17 88 -73 88c-50 0 -95 -17 -122 -30v-387h-167v409c0 18 -16 22 -47 23l6 126c14 1 43 3 57 3c72 0 133 -15 147 -73c35 25 111 74 182 74c171 0 183 -95 183 -219v-563h-166zM204 619c-26 22 -47 51 -47 85c0 24 9 51 32 79h129
c-21 -25 -29 -50 -29 -82c0 -43 44 -82 44 -82h-129zM353 619l69 162h157l-98 -162h-128z" />
    <glyph glyph-name="uni1F26" unicode="&#x1f26;" horiz-adv-x="681" 
d="M447 -220v549c0 75 -17 88 -73 88c-50 0 -95 -17 -122 -30v-387h-167v409c0 18 -16 22 -47 23l6 126c14 1 43 3 57 3c72 0 133 -15 147 -73c35 25 111 74 182 74c171 0 183 -95 183 -219v-563h-166zM384 823c-51 0 -105 36 -130 36c-29 0 -47 -8 -76 -29l-63 85
c24 28 76 81 154 81c54 0 83 -38 110 -38c32 0 54 7 90 26l55 -84c-19 -27 -65 -77 -140 -77zM245 619c0 0 44 39 44 82c0 32 -8 57 -29 82h129c23 -28 32 -55 32 -79c0 -34 -21 -63 -47 -85h-129z" />
    <glyph glyph-name="uni1F27" unicode="&#x1f27;" horiz-adv-x="681" 
d="M447 -220v549c0 75 -17 88 -73 88c-50 0 -95 -17 -122 -30v-387h-167v409c0 18 -16 22 -47 23l6 126c14 1 43 3 57 3c72 0 133 -15 147 -73c35 25 111 74 182 74c171 0 183 -95 183 -219v-563h-166zM396 823c-51 0 -105 36 -130 36c-29 0 -47 -8 -76 -29l-63 85
c24 28 76 81 154 81c54 0 83 -38 110 -38c32 0 54 7 90 26l55 -84c-19 -27 -65 -77 -140 -77zM304 619c-26 22 -47 51 -47 85c0 24 9 51 32 79h129c-21 -25 -29 -50 -29 -82c0 -43 44 -82 44 -82h-129z" />
    <glyph glyph-name="uni1F28" unicode="&#x1f28;" horiz-adv-x="796" 
d="M-158 545c0 0 44 39 44 82c0 32 -8 57 -29 82h129c23 -28 32 -55 32 -79c0 -34 -21 -63 -47 -85h-129zM78 0v707h170v-287h300v287h170v-707h-170v291h-300v-291h-170z" />
    <glyph glyph-name="uni1F29" unicode="&#x1f29;" horiz-adv-x="796" 
d="M-106 545c-26 22 -47 51 -47 85c0 24 9 51 32 79h129c-21 -25 -29 -50 -29 -82c0 -43 44 -82 44 -82h-129zM78 0v707h170v-287h300v287h170v-707h-170v291h-300v-291h-170z" />
    <glyph glyph-name="uni1F2A" unicode="&#x1f2a;" horiz-adv-x="796" 
d="M-380 545c0 0 44 39 44 82c0 32 -8 57 -29 82h129c23 -28 32 -55 32 -79c0 -34 -21 -63 -47 -85h-129zM-96 545l-98 162h157l69 -162h-128zM78 0v707h170v-287h300v287h170v-707h-170v291h-300v-291h-170z" />
    <glyph glyph-name="uni1F2B" unicode="&#x1f2b;" horiz-adv-x="796" 
d="M-317 545c-26 22 -47 51 -47 85c0 24 9 51 32 79h129c-21 -25 -29 -50 -29 -82c0 -43 44 -82 44 -82h-129zM-90 545l-98 162h157l69 -162h-128zM78 0v707h170v-287h300v287h170v-707h-170v291h-300v-291h-170z" />
    <glyph glyph-name="uni1F2C" unicode="&#x1f2c;" horiz-adv-x="796" 
d="M-375 545c0 0 44 39 44 82c0 32 -8 57 -29 82h129c23 -28 32 -55 32 -79c0 -34 -21 -63 -47 -85h-129zM-199 545l69 162h157l-98 -162h-128zM78 0v707h170v-287h300v287h170v-707h-170v291h-300v-291h-170z" />
    <glyph glyph-name="uni1F2D" unicode="&#x1f2d;" horiz-adv-x="796" 
d="M-346 545c-26 22 -47 51 -47 85c0 24 9 51 32 79h129c-21 -25 -29 -50 -29 -82c0 -43 44 -82 44 -82h-129zM-197 545l69 162h157l-98 -162h-128zM78 0v707h170v-287h300v287h170v-707h-170v291h-300v-291h-170z" />
    <glyph glyph-name="uni1F2E" unicode="&#x1f2e;" horiz-adv-x="796" 
d="M-108 559c-51 0 -105 36 -130 36c-29 0 -47 -8 -76 -29l-63 85c24 28 76 81 154 81c54 0 83 -38 110 -38c32 0 54 7 90 26l55 -84c-19 -27 -65 -77 -140 -77zM-247 355c0 0 44 39 44 82c0 32 -8 57 -29 82h129c23 -28 32 -55 32 -79c0 -34 -21 -63 -47 -85h-129zM78 0
v707h170v-287h300v287h170v-707h-170v291h-300v-291h-170z" />
    <glyph glyph-name="uni1F2F" unicode="&#x1f2f;" horiz-adv-x="796" 
d="M-132 560c-51 0 -105 36 -130 36c-29 0 -47 -8 -76 -29l-63 85c24 28 76 81 154 81c54 0 83 -38 110 -38c32 0 54 7 90 26l55 -84c-19 -27 -65 -77 -140 -77zM-224 356c-26 22 -47 51 -47 85c0 24 9 51 32 79h129c-21 -25 -29 -50 -29 -82c0 -43 44 -82 44 -82h-129z
M78 0v707h170v-287h300v287h170v-707h-170v291h-300v-291h-170z" />
    <glyph glyph-name="uni1F30" unicode="&#x1f30;" horiz-adv-x="302" 
d="M68 0v546h166v-546h-166zM69 619c0 0 44 39 44 82c0 32 -8 57 -29 82h129c23 -28 32 -55 32 -79c0 -34 -21 -63 -47 -85h-129z" />
    <glyph glyph-name="uni1F31" unicode="&#x1f31;" horiz-adv-x="302" 
d="M68 0v546h166v-546h-166zM107 619c-26 22 -47 51 -47 85c0 24 9 51 32 79h129c-21 -25 -29 -50 -29 -82c0 -43 44 -82 44 -82h-129z" />
    <glyph glyph-name="uni1F32" unicode="&#x1f32;" horiz-adv-x="302" 
d="M68 0v546h166v-546h-166zM-62 619c0 0 44 39 44 82c0 32 -8 57 -29 82h129c23 -28 32 -55 32 -79c0 -34 -21 -63 -47 -85h-129zM222 619l-98 162h157l69 -162h-128z" />
    <glyph glyph-name="uni1F33" unicode="&#x1f33;" horiz-adv-x="302" 
d="M68 0v546h166v-546h-166zM-8 619c-26 22 -47 51 -47 85c0 24 9 51 32 79h129c-21 -25 -29 -50 -29 -82c0 -43 44 -82 44 -82h-129zM219 619l-98 162h157l69 -162h-128z" />
    <glyph glyph-name="uni1F34" unicode="&#x1f34;" horiz-adv-x="302" 
d="M68 0v546h166v-546h-166zM-9 619c0 0 44 39 44 82c0 32 -8 57 -29 82h129c23 -28 32 -55 32 -79c0 -34 -21 -63 -47 -85h-129zM167 619l69 162h157l-98 -162h-128z" />
    <glyph glyph-name="uni1F35" unicode="&#x1f35;" horiz-adv-x="302" 
d="M68 0v546h166v-546h-166zM23 619c-26 22 -47 51 -47 85c0 24 9 51 32 79h129c-21 -25 -29 -50 -29 -82c0 -43 44 -82 44 -82h-129zM172 619l69 162h157l-98 -162h-128z" />
    <glyph glyph-name="uni1F36" unicode="&#x1f36;" horiz-adv-x="302" 
d="M68 0v546h166v-546h-166zM216 823c-51 0 -105 36 -130 36c-29 0 -47 -8 -76 -29l-63 85c24 28 76 81 154 81c54 0 83 -38 110 -38c32 0 54 7 90 26l55 -84c-19 -27 -65 -77 -140 -77zM77 619c0 0 44 39 44 82c0 32 -8 57 -29 82h129c23 -28 32 -55 32 -79
c0 -34 -21 -63 -47 -85h-129z" />
    <glyph glyph-name="uni1F37" unicode="&#x1f37;" horiz-adv-x="302" 
d="M68 0v546h166v-546h-166zM196 823c-51 0 -105 36 -130 36c-29 0 -47 -8 -76 -29l-63 85c24 28 76 81 154 81c54 0 83 -38 110 -38c32 0 54 7 90 26l55 -84c-19 -27 -65 -77 -140 -77zM104 619c-26 22 -47 51 -47 85c0 24 9 51 32 79h129c-21 -25 -29 -50 -29 -82
c0 -43 44 -82 44 -82h-129z" />
    <glyph glyph-name="uni1F38" unicode="&#x1f38;" horiz-adv-x="326" 
d="M-137 545c0 0 44 39 44 82c0 32 -8 57 -29 82h129c23 -28 32 -55 32 -79c0 -34 -21 -63 -47 -85h-129zM78 0v707h170v-707h-170z" />
    <glyph glyph-name="uni1F39" unicode="&#x1f39;" horiz-adv-x="326" 
d="M-91 545c-26 22 -47 51 -47 85c0 24 9 51 32 79h129c-21 -25 -29 -50 -29 -82c0 -43 44 -82 44 -82h-129zM78 0v707h170v-707h-170z" />
    <glyph glyph-name="uni1F3A" unicode="&#x1f3a;" horiz-adv-x="326" 
d="M-377 545c0 0 44 39 44 82c0 32 -8 57 -29 82h129c23 -28 32 -55 32 -79c0 -34 -21 -63 -47 -85h-129zM-93 545l-98 162h157l69 -162h-128zM78 0v707h170v-707h-170z" />
    <glyph glyph-name="uni1F3B" unicode="&#x1f3b;" horiz-adv-x="326" 
d="M-316 545c-26 22 -47 51 -47 85c0 24 9 51 32 79h129c-21 -25 -29 -50 -29 -82c0 -43 44 -82 44 -82h-129zM-89 545l-98 162h157l69 -162h-128zM78 0v707h170v-707h-170z" />
    <glyph glyph-name="uni1F3C" unicode="&#x1f3c;" horiz-adv-x="326" 
d="M-367 545c0 0 44 39 44 82c0 32 -8 57 -29 82h129c23 -28 32 -55 32 -79c0 -34 -21 -63 -47 -85h-129zM-191 545l69 162h157l-98 -162h-128zM78 0v707h170v-707h-170z" />
    <glyph glyph-name="uni1F3D" unicode="&#x1f3d;" horiz-adv-x="326" 
d="M-335 544c-26 22 -47 51 -47 85c0 24 9 51 32 79h129c-21 -25 -29 -50 -29 -82c0 -43 44 -82 44 -82h-129zM-186 544l69 162h157l-98 -162h-128zM78 0v707h170v-707h-170z" />
    <glyph glyph-name="uni1F3E" unicode="&#x1f3e;" horiz-adv-x="326" 
d="M-130 559c-51 0 -105 36 -130 36c-29 0 -47 -8 -76 -29l-63 85c24 28 76 81 154 81c54 0 83 -38 110 -38c32 0 54 7 90 26l55 -84c-19 -27 -65 -77 -140 -77zM-269 355c0 0 44 39 44 82c0 32 -8 57 -29 82h129c23 -28 32 -55 32 -79c0 -34 -21 -63 -47 -85h-129zM78 0
v707h170v-707h-170z" />
    <glyph glyph-name="uni1F3F" unicode="&#x1f3f;" horiz-adv-x="326" 
d="M-110 560c-51 0 -105 36 -130 36c-29 0 -47 -8 -76 -29l-63 85c24 28 76 81 154 81c54 0 83 -38 110 -38c32 0 54 7 90 26l55 -84c-19 -27 -65 -77 -140 -77zM-202 356c-26 22 -47 51 -47 85c0 24 9 51 32 79h129c-21 -25 -29 -50 -29 -82c0 -43 44 -82 44 -82h-129z
M78 0v707h170v-707h-170z" />
    <glyph glyph-name="uni1F40" unicode="&#x1f40;" horiz-adv-x="643" 
d="M239 619c0 0 44 39 44 82c0 32 -8 57 -29 82h129c23 -28 32 -55 32 -79c0 -34 -21 -63 -47 -85h-129zM315 -12c-180 0 -277 109 -277 280c0 181 113 292 286 292c194 0 281 -109 281 -287c0 -186 -122 -285 -290 -285zM323 121c90 0 112 59 112 152
c0 88 -22 155 -114 155c-90 0 -115 -67 -115 -156c0 -94 28 -151 117 -151z" />
    <glyph glyph-name="uni1F41" unicode="&#x1f41;" horiz-adv-x="643" 
d="M287 619c-26 22 -47 51 -47 85c0 24 9 51 32 79h129c-21 -25 -29 -50 -29 -82c0 -43 44 -82 44 -82h-129zM315 -12c-180 0 -277 109 -277 280c0 181 113 292 286 292c194 0 281 -109 281 -287c0 -186 -122 -285 -290 -285zM323 121c90 0 112 59 112 152
c0 88 -22 155 -114 155c-90 0 -115 -67 -115 -156c0 -94 28 -151 117 -151z" />
    <glyph glyph-name="uni1F42" unicode="&#x1f42;" horiz-adv-x="643" 
d="M117 619c0 0 44 39 44 82c0 32 -8 57 -29 82h129c23 -28 32 -55 32 -79c0 -34 -21 -63 -47 -85h-129zM401 619l-98 162h157l69 -162h-128zM315 -12c-180 0 -277 109 -277 280c0 181 113 292 286 292c194 0 281 -109 281 -287c0 -186 -122 -285 -290 -285zM323 121
c90 0 112 59 112 152c0 88 -22 155 -114 155c-90 0 -115 -67 -115 -156c0 -94 28 -151 117 -151z" />
    <glyph glyph-name="uni1F43" unicode="&#x1f43;" horiz-adv-x="643" 
d="M179 619c-26 22 -47 51 -47 85c0 24 9 51 32 79h129c-21 -25 -29 -50 -29 -82c0 -43 44 -82 44 -82h-129zM406 619l-98 162h157l69 -162h-128zM315 -12c-180 0 -277 109 -277 280c0 181 113 292 286 292c194 0 281 -109 281 -287c0 -186 -122 -285 -290 -285zM323 121
c90 0 112 59 112 152c0 88 -22 155 -114 155c-90 0 -115 -67 -115 -156c0 -94 28 -151 117 -151z" />
    <glyph glyph-name="uni1F44" unicode="&#x1f44;" horiz-adv-x="643" 
d="M166 619c0 0 44 39 44 82c0 32 -8 57 -29 82h129c23 -28 32 -55 32 -79c0 -34 -21 -63 -47 -85h-129zM342 619l69 162h157l-98 -162h-128zM315 -12c-180 0 -277 109 -277 280c0 181 113 292 286 292c194 0 281 -109 281 -287c0 -186 -122 -285 -290 -285zM323 121
c90 0 112 59 112 152c0 88 -22 155 -114 155c-90 0 -115 -67 -115 -156c0 -94 28 -151 117 -151z" />
    <glyph glyph-name="uni1F45" unicode="&#x1f45;" horiz-adv-x="643" 
d="M201 619c-26 22 -47 51 -47 85c0 24 9 51 32 79h129c-21 -25 -29 -50 -29 -82c0 -43 44 -82 44 -82h-129zM350 619l69 162h157l-98 -162h-128zM315 -12c-180 0 -277 109 -277 280c0 181 113 292 286 292c194 0 281 -109 281 -287c0 -186 -122 -285 -290 -285zM323 121
c90 0 112 59 112 152c0 88 -22 155 -114 155c-90 0 -115 -67 -115 -156c0 -94 28 -151 117 -151z" />
    <glyph glyph-name="uni1F48" unicode="&#x1f48;" horiz-adv-x="843" 
d="M-132 545c0 0 44 39 44 82c0 32 -8 57 -29 82h129c23 -28 32 -55 32 -79c0 -34 -21 -63 -47 -85h-129zM413 -12c-248 0 -370 140 -370 367c0 223 148 363 389 363c257 0 368 -154 368 -365c0 -225 -135 -365 -387 -365zM416 122c156 0 211 100 211 232s-61 230 -204 230
c-150 0 -208 -98 -208 -228c0 -129 57 -234 201 -234z" />
    <glyph glyph-name="uni1F49" unicode="&#x1f49;" horiz-adv-x="843" 
d="M-82 545c-26 22 -47 51 -47 85c0 24 9 51 32 79h129c-21 -25 -29 -50 -29 -82c0 -43 44 -82 44 -82h-129zM413 -12c-248 0 -370 140 -370 367c0 223 148 363 389 363c257 0 368 -154 368 -365c0 -225 -135 -365 -387 -365zM416 122c156 0 211 100 211 232
s-61 230 -204 230c-150 0 -208 -98 -208 -228c0 -129 57 -234 201 -234z" />
    <glyph glyph-name="uni1F4A" unicode="&#x1f4a;" horiz-adv-x="843" 
d="M-375 545c0 0 44 39 44 82c0 32 -8 57 -29 82h129c23 -28 32 -55 32 -79c0 -34 -21 -63 -47 -85h-129zM-91 545l-98 162h157l69 -162h-128zM413 -12c-248 0 -370 140 -370 367c0 223 148 363 389 363c257 0 368 -154 368 -365c0 -225 -135 -365 -387 -365zM416 122
c156 0 211 100 211 232s-61 230 -204 230c-150 0 -208 -98 -208 -228c0 -129 57 -234 201 -234z" />
    <glyph glyph-name="uni1F4B" unicode="&#x1f4b;" horiz-adv-x="843" 
d="M-325 545c-26 22 -47 51 -47 85c0 24 9 51 32 79h129c-21 -25 -29 -50 -29 -82c0 -43 44 -82 44 -82h-129zM-98 545l-98 162h157l69 -162h-128zM413 -12c-248 0 -370 140 -370 367c0 223 148 363 389 363c257 0 368 -154 368 -365c0 -225 -135 -365 -387 -365zM416 122
c156 0 211 100 211 232s-61 230 -204 230c-150 0 -208 -98 -208 -228c0 -129 57 -234 201 -234z" />
    <glyph glyph-name="uni1F4C" unicode="&#x1f4c;" horiz-adv-x="843" 
d="M-293 545c0 0 44 39 44 82c0 32 -8 57 -29 82h129c23 -28 32 -55 32 -79c0 -34 -21 -63 -47 -85h-129zM-117 545l69 162h157l-98 -162h-128zM413 -12c-248 0 -370 140 -370 367c0 223 148 363 389 363c257 0 368 -154 368 -365c0 -225 -135 -365 -387 -365zM416 122
c156 0 211 100 211 232s-61 230 -204 230c-150 0 -208 -98 -208 -228c0 -129 57 -234 201 -234z" />
    <glyph glyph-name="uni1F4D" unicode="&#x1f4d;" horiz-adv-x="843" 
d="M-315 545c-26 22 -47 51 -47 85c0 24 9 51 32 79h129c-21 -25 -29 -50 -29 -82c0 -43 44 -82 44 -82h-129zM-166 545l69 162h157l-98 -162h-128zM413 -12c-248 0 -370 140 -370 367c0 223 148 363 389 363c257 0 368 -154 368 -365c0 -225 -135 -365 -387 -365zM416 122
c156 0 211 100 211 232s-61 230 -204 230c-150 0 -208 -98 -208 -228c0 -129 57 -234 201 -234z" />
    <glyph glyph-name="uni1F50" unicode="&#x1f50;" horiz-adv-x="663" 
d="M335 -12c-170 0 -267 71 -267 227v331h166v-320c0 -82 42 -105 98 -105c62 0 97 27 97 116v309h166v-310c0 -172 -103 -248 -260 -248zM245 619c0 0 44 39 44 82c0 32 -8 57 -29 82h129c23 -28 32 -55 32 -79c0 -34 -21 -63 -47 -85h-129z" />
    <glyph glyph-name="uni1F51" unicode="&#x1f51;" horiz-adv-x="663" 
d="M335 -12c-170 0 -267 71 -267 227v331h166v-320c0 -82 42 -105 98 -105c62 0 97 27 97 116v309h166v-310c0 -172 -103 -248 -260 -248zM274 619c-26 22 -47 51 -47 85c0 24 9 51 32 79h129c-21 -25 -29 -50 -29 -82c0 -43 44 -82 44 -82h-129z" />
    <glyph glyph-name="uni1F52" unicode="&#x1f52;" horiz-adv-x="663" 
d="M335 -12c-170 0 -267 71 -267 227v331h166v-320c0 -82 42 -105 98 -105c62 0 97 27 97 116v309h166v-310c0 -172 -103 -248 -260 -248zM123 619c0 0 44 39 44 82c0 32 -8 57 -29 82h129c23 -28 32 -55 32 -79c0 -34 -21 -63 -47 -85h-129zM407 619l-98 162h157l69 -162
h-128z" />
    <glyph glyph-name="uni1F53" unicode="&#x1f53;" horiz-adv-x="663" 
d="M335 -12c-170 0 -267 71 -267 227v331h166v-320c0 -82 42 -105 98 -105c62 0 97 27 97 116v309h166v-310c0 -172 -103 -248 -260 -248zM178 619c-26 22 -47 51 -47 85c0 24 9 51 32 79h129c-21 -25 -29 -50 -29 -82c0 -43 44 -82 44 -82h-129zM405 619l-98 162h157
l69 -162h-128z" />
    <glyph glyph-name="uni1F54" unicode="&#x1f54;" horiz-adv-x="663" 
d="M335 -12c-170 0 -267 71 -267 227v331h166v-320c0 -82 42 -105 98 -105c62 0 97 27 97 116v309h166v-310c0 -172 -103 -248 -260 -248zM151 619c0 0 44 39 44 82c0 32 -8 57 -29 82h129c23 -28 32 -55 32 -79c0 -34 -21 -63 -47 -85h-129zM327 619l69 162h157l-98 -162
h-128z" />
    <glyph glyph-name="uni1F55" unicode="&#x1f55;" horiz-adv-x="663" 
d="M335 -12c-170 0 -267 71 -267 227v331h166v-320c0 -82 42 -105 98 -105c62 0 97 27 97 116v309h166v-310c0 -172 -103 -248 -260 -248zM186 619c-26 22 -47 51 -47 85c0 24 9 51 32 79h129c-21 -25 -29 -50 -29 -82c0 -43 44 -82 44 -82h-129zM335 619l69 162h157
l-98 -162h-128z" />
    <glyph glyph-name="uni1F56" unicode="&#x1f56;" horiz-adv-x="663" 
d="M335 -12c-170 0 -267 71 -267 227v331h166v-320c0 -82 42 -105 98 -105c62 0 97 27 97 116v309h166v-310c0 -172 -103 -248 -260 -248zM380 823c-51 0 -105 36 -130 36c-29 0 -47 -8 -76 -29l-63 85c24 28 76 81 154 81c54 0 83 -38 110 -38c32 0 54 7 90 26l55 -84
c-19 -27 -65 -77 -140 -77zM241 619c0 0 44 39 44 82c0 32 -8 57 -29 82h129c23 -28 32 -55 32 -79c0 -34 -21 -63 -47 -85h-129z" />
    <glyph glyph-name="uni1F57" unicode="&#x1f57;" horiz-adv-x="663" 
d="M335 -12c-170 0 -267 71 -267 227v331h166v-320c0 -82 42 -105 98 -105c62 0 97 27 97 116v309h166v-310c0 -172 -103 -248 -260 -248zM376 823c-51 0 -105 36 -130 36c-29 0 -47 -8 -76 -29l-63 85c24 28 76 81 154 81c54 0 83 -38 110 -38c32 0 54 7 90 26l55 -84
c-19 -27 -65 -77 -140 -77zM284 619c-26 22 -47 51 -47 85c0 24 9 51 32 79h129c-21 -25 -29 -50 -29 -82c0 -43 44 -82 44 -82h-129z" />
    <glyph glyph-name="uni1F59" unicode="&#x1f59;" horiz-adv-x="709" 
d="M-170 545c-26 22 -47 51 -47 85c0 24 9 51 32 79h129c-21 -25 -29 -50 -29 -82c0 -43 44 -82 44 -82h-129zM261 0v227l-261 480h196l156 -337l166 337h191l-278 -474v-233h-170z" />
    <glyph glyph-name="uni1F5B" unicode="&#x1f5b;" horiz-adv-x="709" 
d="M-369 545c-26 22 -47 51 -47 85c0 24 9 51 32 79h129c-21 -25 -29 -50 -29 -82c0 -43 44 -82 44 -82h-129zM-142 545l-98 162h157l69 -162h-128zM261 0v227l-261 480h196l156 -337l166 337h191l-278 -474v-233h-170z" />
    <glyph glyph-name="uni1F5D" unicode="&#x1f5d;" horiz-adv-x="709" 
d="M-419 545c-26 22 -47 51 -47 85c0 24 9 51 32 79h129c-21 -25 -29 -50 -29 -82c0 -43 44 -82 44 -82h-129zM-270 545l69 162h157l-98 -162h-128zM261 0v227l-261 480h196l156 -337l166 337h191l-278 -474v-233h-170z" />
    <glyph glyph-name="uni1F5F" unicode="&#x1f5f;" horiz-adv-x="709" 
d="M-160 569c-51 0 -105 36 -130 36c-29 0 -47 -8 -76 -29l-63 85c24 28 76 81 154 81c54 0 83 -38 110 -38c32 0 54 7 90 26l55 -84c-19 -27 -65 -77 -140 -77zM-252 365c-26 22 -47 51 -47 85c0 24 9 51 32 79h129c-21 -25 -29 -50 -29 -82c0 -43 44 -82 44 -82h-129z
M261 0v227l-261 480h196l156 -337l166 337h191l-278 -474v-233h-170z" />
    <glyph glyph-name="uni1F60" unicode="&#x1f60;" horiz-adv-x="851" 
d="M255 -12c-144 0 -217 109 -217 249c0 95 12 203 140 309h183c-91 -73 -155 -178 -155 -288c0 -45 0 -129 71 -129c40 0 65 38 65 104v127h166v-125c0 -70 25 -106 66 -106c71 0 70 84 70 129c0 110 -64 215 -155 288h189c115 -96 135 -209 135 -304
c0 -130 -79 -254 -231 -254c-65 0 -142 38 -159 110c-30 -77 -102 -110 -168 -110zM358 619c0 0 44 39 44 82c0 32 -8 57 -29 82h129c23 -28 32 -55 32 -79c0 -34 -21 -63 -47 -85h-129z" />
    <glyph glyph-name="uni1F61" unicode="&#x1f61;" horiz-adv-x="851" 
d="M255 -12c-144 0 -217 109 -217 249c0 95 12 203 140 309h183c-91 -73 -155 -178 -155 -288c0 -45 0 -129 71 -129c40 0 65 38 65 104v127h166v-125c0 -70 25 -106 66 -106c71 0 70 84 70 129c0 110 -64 215 -155 288h189c115 -96 135 -209 135 -304
c0 -130 -79 -254 -231 -254c-65 0 -142 38 -159 110c-30 -77 -102 -110 -168 -110zM374 619c-26 22 -47 51 -47 85c0 24 9 51 32 79h129c-21 -25 -29 -50 -29 -82c0 -43 44 -82 44 -82h-129z" />
    <glyph glyph-name="uni1F62" unicode="&#x1f62;" horiz-adv-x="851" 
d="M255 -12c-144 0 -217 109 -217 249c0 95 12 203 140 309h183c-91 -73 -155 -178 -155 -288c0 -45 0 -129 71 -129c40 0 65 38 65 104v127h166v-125c0 -70 25 -106 66 -106c71 0 70 84 70 129c0 110 -64 215 -155 288h189c115 -96 135 -209 135 -304
c0 -130 -79 -254 -231 -254c-65 0 -142 38 -159 110c-30 -77 -102 -110 -168 -110zM227 619c0 0 44 39 44 82c0 32 -8 57 -29 82h129c23 -28 32 -55 32 -79c0 -34 -21 -63 -47 -85h-129zM511 619l-98 162h157l69 -162h-128z" />
    <glyph glyph-name="uni1F63" unicode="&#x1f63;" horiz-adv-x="851" 
d="M255 -12c-144 0 -217 109 -217 249c0 95 12 203 140 309h183c-91 -73 -155 -178 -155 -288c0 -45 0 -129 71 -129c40 0 65 38 65 104v127h166v-125c0 -70 25 -106 66 -106c71 0 70 84 70 129c0 110 -64 215 -155 288h189c115 -96 135 -209 135 -304
c0 -130 -79 -254 -231 -254c-65 0 -142 38 -159 110c-30 -77 -102 -110 -168 -110zM274 619c-26 22 -47 51 -47 85c0 24 9 51 32 79h129c-21 -25 -29 -50 -29 -82c0 -43 44 -82 44 -82h-129zM501 619l-98 162h157l69 -162h-128z" />
    <glyph glyph-name="uni1F64" unicode="&#x1f64;" horiz-adv-x="851" 
d="M255 -12c-144 0 -217 109 -217 249c0 95 12 203 140 309h183c-91 -73 -155 -178 -155 -288c0 -45 0 -129 71 -129c40 0 65 38 65 104v127h166v-125c0 -70 25 -106 66 -106c71 0 70 84 70 129c0 110 -64 215 -155 288h189c115 -96 135 -209 135 -304
c0 -130 -79 -254 -231 -254c-65 0 -142 38 -159 110c-30 -77 -102 -110 -168 -110zM271 619c0 0 44 39 44 82c0 32 -8 57 -29 82h129c23 -28 32 -55 32 -79c0 -34 -21 -63 -47 -85h-129zM447 619l69 162h157l-98 -162h-128z" />
    <glyph glyph-name="uni1F65" unicode="&#x1f65;" horiz-adv-x="851" 
d="M255 -12c-144 0 -217 109 -217 249c0 95 12 203 140 309h183c-91 -73 -155 -178 -155 -288c0 -45 0 -129 71 -129c40 0 65 38 65 104v127h166v-125c0 -70 25 -106 66 -106c71 0 70 84 70 129c0 110 -64 215 -155 288h189c115 -96 135 -209 135 -304
c0 -130 -79 -254 -231 -254c-65 0 -142 38 -159 110c-30 -77 -102 -110 -168 -110zM296 619c-26 22 -47 51 -47 85c0 24 9 51 32 79h129c-21 -25 -29 -50 -29 -82c0 -43 44 -82 44 -82h-129zM445 619l69 162h157l-98 -162h-128z" />
    <glyph glyph-name="uni1F66" unicode="&#x1f66;" horiz-adv-x="851" 
d="M255 -12c-144 0 -217 109 -217 249c0 95 12 203 140 309h183c-91 -73 -155 -178 -155 -288c0 -45 0 -129 71 -129c40 0 65 38 65 104v127h166v-125c0 -70 25 -106 66 -106c71 0 70 84 70 129c0 110 -64 215 -155 288h189c115 -96 135 -209 135 -304
c0 -130 -79 -254 -231 -254c-65 0 -142 38 -159 110c-30 -77 -102 -110 -168 -110zM487 823c-51 0 -105 36 -130 36c-29 0 -47 -8 -76 -29l-63 85c24 28 76 81 154 81c54 0 83 -38 110 -38c32 0 54 7 90 26l55 -84c-19 -27 -65 -77 -140 -77zM348 619c0 0 44 39 44 82
c0 32 -8 57 -29 82h129c23 -28 32 -55 32 -79c0 -34 -21 -63 -47 -85h-129z" />
    <glyph glyph-name="uni1F67" unicode="&#x1f67;" horiz-adv-x="851" 
d="M255 -12c-144 0 -217 109 -217 249c0 95 12 203 140 309h183c-91 -73 -155 -178 -155 -288c0 -45 0 -129 71 -129c40 0 65 38 65 104v127h166v-125c0 -70 25 -106 66 -106c71 0 70 84 70 129c0 110 -64 215 -155 288h189c115 -96 135 -209 135 -304
c0 -130 -79 -254 -231 -254c-65 0 -142 38 -159 110c-30 -77 -102 -110 -168 -110zM456 823c-51 0 -105 36 -130 36c-29 0 -47 -8 -76 -29l-63 85c24 28 76 81 154 81c54 0 83 -38 110 -38c32 0 54 7 90 26l55 -84c-19 -27 -65 -77 -140 -77zM364 619c-26 22 -47 51 -47 85
c0 24 9 51 32 79h129c-21 -25 -29 -50 -29 -82c0 -43 44 -82 44 -82h-129z" />
    <glyph glyph-name="uni1F68" unicode="&#x1f68;" horiz-adv-x="867" 
d="M63 0v141h107c-53 33 -115 112 -115 219c0 229 145 358 386 358c257 0 371 -144 371 -355c0 -99 -56 -187 -115 -222h107v-141h-293v133c66 50 128 122 128 229c0 127 -64 222 -207 222c-134 0 -205 -89 -205 -220c0 -107 63 -181 129 -231v-133h-293zM-103 545
c0 0 44 39 44 82c0 32 -8 57 -29 82h129c23 -28 32 -55 32 -79c0 -34 -21 -63 -47 -85h-129z" />
    <glyph glyph-name="uni1F69" unicode="&#x1f69;" horiz-adv-x="867" 
d="M63 0v141h107c-53 33 -115 112 -115 219c0 229 145 358 386 358c257 0 371 -144 371 -355c0 -99 -56 -187 -115 -222h107v-141h-293v133c66 50 128 122 128 229c0 127 -64 222 -207 222c-134 0 -205 -89 -205 -220c0 -107 63 -181 129 -231v-133h-293zM-97 545
c-26 22 -47 51 -47 85c0 24 9 51 32 79h129c-21 -25 -29 -50 -29 -82c0 -43 44 -82 44 -82h-129z" />
    <glyph glyph-name="uni1F6A" unicode="&#x1f6a;" horiz-adv-x="867" 
d="M63 0v141h107c-53 33 -115 112 -115 219c0 229 145 358 386 358c257 0 371 -144 371 -355c0 -99 -56 -187 -115 -222h107v-141h-293v133c66 50 128 122 128 229c0 127 -64 222 -207 222c-134 0 -205 -89 -205 -220c0 -107 63 -181 129 -231v-133h-293zM-374 545
c0 0 44 39 44 82c0 32 -8 57 -29 82h129c23 -28 32 -55 32 -79c0 -34 -21 -63 -47 -85h-129zM-90 545l-98 162h157l69 -162h-128z" />
    <glyph glyph-name="uni1F6B" unicode="&#x1f6b;" horiz-adv-x="867" 
d="M63 0v141h107c-53 33 -115 112 -115 219c0 229 145 358 386 358c257 0 371 -144 371 -355c0 -99 -56 -187 -115 -222h107v-141h-293v133c66 50 128 122 128 229c0 127 -64 222 -207 222c-134 0 -205 -89 -205 -220c0 -107 63 -181 129 -231v-133h-293zM-323 545
c-26 22 -47 51 -47 85c0 24 9 51 32 79h129c-21 -25 -29 -50 -29 -82c0 -43 44 -82 44 -82h-129zM-96 545l-98 162h157l69 -162h-128z" />
    <glyph glyph-name="uni1F6C" unicode="&#x1f6c;" horiz-adv-x="867" 
d="M63 0v141h107c-53 33 -115 112 -115 219c0 229 145 358 386 358c257 0 371 -144 371 -355c0 -99 -56 -187 -115 -222h107v-141h-293v133c66 50 128 122 128 229c0 127 -64 222 -207 222c-134 0 -205 -89 -205 -220c0 -107 63 -181 129 -231v-133h-293zM-280 545
c0 0 44 39 44 82c0 32 -8 57 -29 82h129c23 -28 32 -55 32 -79c0 -34 -21 -63 -47 -85h-129zM-104 545l69 162h157l-98 -162h-128z" />
    <glyph glyph-name="uni1F6D" unicode="&#x1f6d;" horiz-adv-x="867" 
d="M63 0v141h107c-53 33 -115 112 -115 219c0 229 145 358 386 358c257 0 371 -144 371 -355c0 -99 -56 -187 -115 -222h107v-141h-293v133c66 50 128 122 128 229c0 127 -64 222 -207 222c-134 0 -205 -89 -205 -220c0 -107 63 -181 129 -231v-133h-293zM-263 545
c-26 22 -47 51 -47 85c0 24 9 51 32 79h129c-21 -25 -29 -50 -29 -82c0 -43 44 -82 44 -82h-129zM-114 545l69 162h157l-98 -162h-128z" />
    <glyph glyph-name="uni1F6E" unicode="&#x1f6e;" horiz-adv-x="867" 
d="M63 0v141h107c-53 33 -115 112 -115 219c0 229 145 358 386 358c257 0 371 -144 371 -355c0 -99 -56 -187 -115 -222h107v-141h-293v133c66 50 128 122 128 229c0 127 -64 222 -207 222c-134 0 -205 -89 -205 -220c0 -107 63 -181 129 -231v-133h-293zM-56 561
c-51 0 -105 36 -130 36c-29 0 -47 -8 -76 -29l-63 85c24 28 76 81 154 81c54 0 83 -38 110 -38c32 0 54 7 90 26l55 -84c-19 -27 -65 -77 -140 -77zM-195 357c0 0 44 39 44 82c0 32 -8 57 -29 82h129c23 -28 32 -55 32 -79c0 -34 -21 -63 -47 -85h-129z" />
    <glyph glyph-name="uni1F6F" unicode="&#x1f6f;" horiz-adv-x="867" 
d="M63 0v141h107c-53 33 -115 112 -115 219c0 229 145 358 386 358c257 0 371 -144 371 -355c0 -99 -56 -187 -115 -222h107v-141h-293v133c66 50 128 122 128 229c0 127 -64 222 -207 222c-134 0 -205 -89 -205 -220c0 -107 63 -181 129 -231v-133h-293zM-74 569
c-51 0 -105 36 -130 36c-29 0 -47 -8 -76 -29l-63 85c24 28 76 81 154 81c54 0 83 -38 110 -38c32 0 54 7 90 26l55 -84c-19 -27 -65 -77 -140 -77zM-166 365c-26 22 -47 51 -47 85c0 24 9 51 32 79h129c-21 -25 -29 -50 -29 -82c0 -43 44 -82 44 -82h-129z" />
    <glyph glyph-name="uni1F70" unicode="&#x1f70;" horiz-adv-x="671" 
d="M260 -8c-69 0 -222 13 -222 250c0 196 131 318 297 318c103 0 161 -17 239 -41v-374c0 -18 18 -22 49 -23l-6 -126c-14 -1 -36 -1 -50 -1c-83 0 -148 21 -152 104c-19 -49 -76 -107 -155 -107zM288 131c60 0 111 53 119 132v150c-17 7 -39 15 -69 15
c-95 0 -134 -81 -134 -176c0 -119 55 -121 84 -121zM339 619l-98 157h157l69 -157h-128z" />
    <glyph glyph-name="uni1F71" unicode="&#x1f71;" horiz-adv-x="671" 
d="M260 -8c-69 0 -222 13 -222 250c0 196 131 318 297 318c103 0 161 -17 239 -41v-374c0 -18 18 -22 49 -23l-6 -126c-14 -1 -36 -1 -50 -1c-83 0 -148 21 -152 104c-19 -49 -76 -107 -155 -107zM288 131c60 0 111 53 119 132v150c-17 7 -39 15 -69 15
c-95 0 -134 -81 -134 -176c0 -119 55 -121 84 -121zM313 623l69 158h157l-98 -157z" />
    <glyph glyph-name="uni1F72" unicode="&#x1f72;" 
d="M302 -12c-174 0 -262 58 -262 160c0 61 34 122 120 146c-59 16 -94 58 -94 119c0 75 83 147 252 147c105 0 177 -25 211 -42l-43 -120c-26 10 -108 31 -176 31c-56 0 -81 -15 -81 -42c0 -32 38 -35 47 -35h138v-121h-140c-24 0 -63 -13 -63 -56c0 -34 46 -51 111 -51
c44 0 122 13 168 35l49 -119c-43 -19 -134 -52 -237 -52zM270 619l-98 157h157l69 -157h-128z" />
    <glyph glyph-name="uni1F73" unicode="&#x1f73;" 
d="M302 -12c-174 0 -262 58 -262 160c0 61 34 122 120 146c-59 16 -94 58 -94 119c0 75 83 147 252 147c105 0 177 -25 211 -42l-43 -120c-26 10 -108 31 -176 31c-56 0 -81 -15 -81 -42c0 -32 38 -35 47 -35h138v-121h-140c-24 0 -63 -13 -63 -56c0 -34 46 -51 111 -51
c44 0 122 13 168 35l49 -119c-43 -19 -134 -52 -237 -52zM238 623l69 158h157l-98 -157z" />
    <glyph glyph-name="uni1F74" unicode="&#x1f74;" horiz-adv-x="681" 
d="M447 -220v549c0 75 -17 88 -73 88c-50 0 -95 -17 -122 -30v-387h-167v409c0 18 -16 22 -47 23l6 126c14 1 43 3 57 3c72 0 133 -15 147 -73c35 25 111 74 182 74c171 0 183 -95 183 -219v-563h-166zM309 619l-98 157h157l69 -157h-128z" />
    <glyph glyph-name="uni1F75" unicode="&#x1f75;" horiz-adv-x="681" 
d="M447 -220v549c0 75 -17 88 -73 88c-50 0 -95 -17 -122 -30v-387h-167v409c0 18 -16 22 -47 23l6 126c14 1 43 3 57 3c72 0 133 -15 147 -73c35 25 111 74 182 74c171 0 183 -95 183 -219v-563h-166zM283 623l69 158h157l-98 -157z" />
    <glyph glyph-name="uni1F76" unicode="&#x1f76;" horiz-adv-x="302" 
d="M68 0v546h166v-546h-166zM90 619l-98 157h157l69 -157h-128z" />
    <glyph glyph-name="uni1F77" unicode="&#x1f77;" horiz-adv-x="302" 
d="M68 0v546h166v-546h-166zM75 623l69 158h157l-98 -157z" />
    <glyph glyph-name="uni1F78" unicode="&#x1f78;" horiz-adv-x="643" 
d="M259 619l-98 157h157l69 -157h-128zM315 -12c-180 0 -277 109 -277 280c0 181 113 292 286 292c194 0 281 -109 281 -287c0 -186 -122 -285 -290 -285zM323 121c90 0 112 59 112 152c0 88 -22 155 -114 155c-90 0 -115 -67 -115 -156c0 -94 28 -151 117 -151z" />
    <glyph glyph-name="uni1F79" unicode="&#x1f79;" horiz-adv-x="643" 
d="M261 613l69 158h157l-98 -157zM315 -12c-180 0 -277 109 -277 280c0 181 113 292 286 292c194 0 281 -109 281 -287c0 -186 -122 -285 -290 -285zM323 121c90 0 112 59 112 152c0 88 -22 155 -114 155c-90 0 -115 -67 -115 -156c0 -94 28 -151 117 -151z" />
    <glyph glyph-name="uni1F7A" unicode="&#x1f7a;" horiz-adv-x="663" 
d="M335 -12c-170 0 -267 71 -267 227v331h166v-320c0 -82 42 -105 98 -105c62 0 97 27 97 116v309h166v-310c0 -172 -103 -248 -260 -248zM271 619l-98 157h157l69 -157h-128z" />
    <glyph glyph-name="uni1F7B" unicode="&#x1f7b;" horiz-adv-x="663" 
d="M335 -12c-170 0 -267 71 -267 227v331h166v-320c0 -82 42 -105 98 -105c62 0 97 27 97 116v309h166v-310c0 -172 -103 -248 -260 -248zM251 619l69 158h157l-98 -157z" />
    <glyph glyph-name="uni1F7C" unicode="&#x1f7c;" horiz-adv-x="851" 
d="M255 -12c-144 0 -217 109 -217 249c0 95 12 203 140 309h183c-91 -73 -155 -178 -155 -288c0 -45 0 -129 71 -129c40 0 65 38 65 104v127h166v-125c0 -70 25 -106 66 -106c71 0 70 84 70 129c0 110 -64 215 -155 288h189c115 -96 135 -209 135 -304
c0 -130 -79 -254 -231 -254c-65 0 -142 38 -159 110c-30 -77 -102 -110 -168 -110zM359 619l-98 157h157l69 -157h-128z" />
    <glyph glyph-name="uni1F7D" unicode="&#x1f7d;" horiz-adv-x="851" 
d="M255 -12c-144 0 -217 109 -217 249c0 95 12 203 140 309h183c-91 -73 -155 -178 -155 -288c0 -45 0 -129 71 -129c40 0 65 38 65 104v127h166v-125c0 -70 25 -106 66 -106c71 0 70 84 70 129c0 110 -64 215 -155 288h189c115 -96 135 -209 135 -304
c0 -130 -79 -254 -231 -254c-65 0 -142 38 -159 110c-30 -77 -102 -110 -168 -110zM371 623l69 158h157l-98 -157z" />
    <glyph glyph-name="uni1F80" unicode="&#x1f80;" horiz-adv-x="671" 
d="M260 -8c-69 0 -222 13 -222 250c0 196 131 318 297 318c103 0 161 -17 239 -41v-374c0 -18 18 -22 49 -23l-6 -126c-14 -1 -36 -1 -50 -1c-83 0 -148 21 -152 104c-19 -49 -76 -107 -155 -107zM288 131c60 0 111 53 119 132v150c-17 7 -39 15 -69 15
c-95 0 -134 -81 -134 -176c0 -119 55 -121 84 -121zM288 619c0 0 44 39 44 82c0 32 -8 57 -29 82h129c23 -28 32 -55 32 -79c0 -34 -21 -63 -47 -85h-129zM485 -289c-144 -13 -196 -2 -196 163v70h115v-68c0 -57 12 -75 80 -75z" />
    <glyph glyph-name="uni1F81" unicode="&#x1f81;" horiz-adv-x="671" 
d="M260 -8c-69 0 -222 13 -222 250c0 196 131 318 297 318c103 0 161 -17 239 -41v-374c0 -18 18 -22 49 -23l-6 -126c-14 -1 -36 -1 -50 -1c-83 0 -148 21 -152 104c-19 -49 -76 -107 -155 -107zM288 131c60 0 111 53 119 132v150c-17 7 -39 15 -69 15
c-95 0 -134 -81 -134 -176c0 -119 55 -121 84 -121zM475 -289c-144 -13 -196 -2 -196 163v70h115v-68c0 -57 12 -75 80 -75zM324 619c-26 22 -47 51 -47 85c0 24 9 51 32 79h129c-21 -25 -29 -50 -29 -82c0 -43 44 -82 44 -82h-129z" />
    <glyph glyph-name="uni1F82" unicode="&#x1f82;" horiz-adv-x="671" 
d="M260 -8c-69 0 -222 13 -222 250c0 196 131 318 297 318c103 0 161 -17 239 -41v-374c0 -18 18 -22 49 -23l-6 -126c-14 -1 -36 -1 -50 -1c-83 0 -148 21 -152 104c-19 -49 -76 -107 -155 -107zM288 131c60 0 111 53 119 132v150c-17 7 -39 15 -69 15
c-95 0 -134 -81 -134 -176c0 -119 55 -121 84 -121zM167 619c0 0 44 39 44 82c0 32 -8 57 -29 82h129c23 -28 32 -55 32 -79c0 -34 -21 -63 -47 -85h-129zM451 619l-98 162h157l69 -162h-128zM475 -289c-144 -13 -196 -2 -196 163v70h115v-68c0 -57 12 -75 80 -75z" />
    <glyph glyph-name="uni1F83" unicode="&#x1f83;" horiz-adv-x="671" 
d="M260 -8c-69 0 -222 13 -222 250c0 196 131 318 297 318c103 0 161 -17 239 -41v-374c0 -18 18 -22 49 -23l-6 -126c-14 -1 -36 -1 -50 -1c-83 0 -148 21 -152 104c-19 -49 -76 -107 -155 -107zM288 131c60 0 111 53 119 132v150c-17 7 -39 15 -69 15
c-95 0 -134 -81 -134 -176c0 -119 55 -121 84 -121zM214 619c-26 22 -47 51 -47 85c0 24 9 51 32 79h129c-21 -25 -29 -50 -29 -82c0 -43 44 -82 44 -82h-129zM441 619l-98 162h157l69 -162h-128zM485 -289c-144 -13 -196 -2 -196 163v70h115v-68c0 -57 12 -75 80 -75z" />
    <glyph glyph-name="uni1F84" unicode="&#x1f84;" horiz-adv-x="671" 
d="M260 -8c-69 0 -222 13 -222 250c0 196 131 318 297 318c103 0 161 -17 239 -41v-374c0 -18 18 -22 49 -23l-6 -126c-14 -1 -36 -1 -50 -1c-83 0 -148 21 -152 104c-19 -49 -76 -107 -155 -107zM288 131c60 0 111 53 119 132v150c-17 7 -39 15 -69 15
c-95 0 -134 -81 -134 -176c0 -119 55 -121 84 -121zM191 619c0 0 44 39 44 82c0 32 -8 57 -29 82h129c23 -28 32 -55 32 -79c0 -34 -21 -63 -47 -85h-129zM367 619l69 162h157l-98 -162h-128zM479 -289c-144 -13 -196 -2 -196 163v70h115v-68c0 -57 12 -75 80 -75z" />
    <glyph glyph-name="uni1F85" unicode="&#x1f85;" horiz-adv-x="671" 
d="M260 -8c-69 0 -222 13 -222 250c0 196 131 318 297 318c103 0 161 -17 239 -41v-374c0 -18 18 -22 49 -23l-6 -126c-14 -1 -36 -1 -50 -1c-83 0 -148 21 -152 104c-19 -49 -76 -107 -155 -107zM288 131c60 0 111 53 119 132v150c-17 7 -39 15 -69 15
c-95 0 -134 -81 -134 -176c0 -119 55 -121 84 -121zM236 619c-26 22 -47 51 -47 85c0 24 9 51 32 79h129c-21 -25 -29 -50 -29 -82c0 -43 44 -82 44 -82h-129zM385 619l69 162h157l-98 -162h-128zM495 -289c-144 -13 -196 -2 -196 163v70h115v-68c0 -57 12 -75 80 -75z" />
    <glyph glyph-name="uni1F86" unicode="&#x1f86;" horiz-adv-x="671" 
d="M260 -8c-69 0 -222 13 -222 250c0 196 131 318 297 318c103 0 161 -17 239 -41v-374c0 -18 18 -22 49 -23l-6 -126c-14 -1 -36 -1 -50 -1c-83 0 -148 21 -152 104c-19 -49 -76 -107 -155 -107zM288 131c60 0 111 53 119 132v150c-17 7 -39 15 -69 15
c-95 0 -134 -81 -134 -176c0 -119 55 -121 84 -121zM406 823c-51 0 -105 36 -130 36c-29 0 -47 -8 -76 -29l-63 85c24 28 76 81 154 81c54 0 83 -38 110 -38c32 0 54 7 90 26l55 -84c-19 -27 -65 -77 -140 -77zM267 619c0 0 44 39 44 82c0 32 -8 57 -29 82h129
c23 -28 32 -55 32 -79c0 -34 -21 -63 -47 -85h-129zM485 -289c-144 -13 -196 -2 -196 163v70h115v-68c0 -57 12 -75 80 -75z" />
    <glyph glyph-name="uni1F87" unicode="&#x1f87;" horiz-adv-x="671" 
d="M260 -8c-69 0 -222 13 -222 250c0 196 131 318 297 318c103 0 161 -17 239 -41v-374c0 -18 18 -22 49 -23l-6 -126c-14 -1 -36 -1 -50 -1c-83 0 -148 21 -152 104c-19 -49 -76 -107 -155 -107zM288 131c60 0 111 53 119 132v150c-17 7 -39 15 -69 15
c-95 0 -134 -81 -134 -176c0 -119 55 -121 84 -121zM401 823c-51 0 -105 36 -130 36c-29 0 -47 -8 -76 -29l-63 85c24 28 76 81 154 81c54 0 83 -38 110 -38c32 0 54 7 90 26l55 -84c-19 -27 -65 -77 -140 -77zM309 619c-26 22 -47 51 -47 85c0 24 9 51 32 79h129
c-21 -25 -29 -50 -29 -82c0 -43 44 -82 44 -82h-129zM495 -289c-144 -13 -196 -2 -196 163v70h115v-68c0 -57 12 -75 80 -75z" />
    <glyph glyph-name="uni1F88" unicode="&#x1f88;" horiz-adv-x="751" 
d="M-11 545c0 0 44 39 44 82c0 32 -8 57 -29 82h129c23 -28 32 -55 32 -79c0 -34 -21 -63 -47 -85h-129zM515 -289c-144 -13 -196 -2 -196 163v70h115v-68c0 -57 12 -75 80 -75zM11 0l272 707h219l238 -707h-176l-67 207h-239l-77 -207h-170zM303 330h154l-71 272z" />
    <glyph glyph-name="uni1F89" unicode="&#x1f89;" horiz-adv-x="751" 
d="M515 -289c-144 -13 -196 -2 -196 163v70h115v-68c0 -57 12 -75 80 -75zM36 545c-26 22 -47 51 -47 85c0 24 9 51 32 79h129c-21 -25 -29 -50 -29 -82c0 -43 44 -82 44 -82h-129zM11 0l272 707h219l238 -707h-176l-67 207h-239l-77 -207h-170zM303 330h154l-71 272z" />
    <glyph glyph-name="uni1F8A" unicode="&#x1f8a;" horiz-adv-x="751" 
d="M-248 545c0 0 44 39 44 82c0 32 -8 57 -29 82h129c23 -28 32 -55 32 -79c0 -34 -21 -63 -47 -85h-129zM36 545l-98 162h157l69 -162h-128zM515 -289c-144 -13 -196 -2 -196 163v70h115v-68c0 -57 12 -75 80 -75zM11 0l272 707h219l238 -707h-176l-67 207h-239l-77 -207
h-170zM303 330h154l-71 272z" />
    <glyph glyph-name="uni1F8B" unicode="&#x1f8b;" horiz-adv-x="751" 
d="M-177 545c-26 22 -47 51 -47 85c0 24 9 51 32 79h129c-21 -25 -29 -50 -29 -82c0 -43 44 -82 44 -82h-129zM50 545l-98 162h157l69 -162h-128zM515 -289c-144 -13 -196 -2 -196 163v70h115v-68c0 -57 12 -75 80 -75zM11 0l272 707h219l238 -707h-176l-67 207h-239
l-77 -207h-170zM303 330h154l-71 272z" />
    <glyph glyph-name="uni1F8C" unicode="&#x1f8c;" horiz-adv-x="751" 
d="M-172 545c0 0 44 39 44 82c0 32 -8 57 -29 82h129c23 -28 32 -55 32 -79c0 -34 -21 -63 -47 -85h-129zM4 545l69 162h157l-98 -162h-128zM515 -289c-144 -13 -196 -2 -196 163v70h115v-68c0 -57 12 -75 80 -75zM11 0l272 707h219l238 -707h-176l-67 207h-239l-77 -207
h-170zM303 330h154l-71 272z" />
    <glyph glyph-name="uni1F8D" unicode="&#x1f8d;" horiz-adv-x="751" 
d="M-174 545c-26 22 -47 51 -47 85c0 24 9 51 32 79h129c-21 -25 -29 -50 -29 -82c0 -43 44 -82 44 -82h-129zM-25 545l69 162h157l-98 -162h-128zM515 -289c-144 -13 -196 -2 -196 163v70h115v-68c0 -57 12 -75 80 -75zM11 0l272 707h219l238 -707h-176l-67 207h-239
l-77 -207h-170zM303 330h154l-71 272z" />
    <glyph glyph-name="uni1F8E" unicode="&#x1f8e;" horiz-adv-x="751" 
d="M66 580c-51 0 -105 36 -130 36c-29 0 -47 -8 -76 -29l-63 85c24 28 76 81 154 81c54 0 83 -38 110 -38c32 0 54 7 90 26l55 -84c-19 -27 -65 -77 -140 -77zM-73 376c0 0 44 39 44 82c0 32 -8 57 -29 82h129c23 -28 32 -55 32 -79c0 -34 -21 -63 -47 -85h-129zM515 -289
c-144 -13 -196 -2 -196 163v70h115v-68c0 -57 12 -75 80 -75zM11 0l272 707h219l238 -707h-176l-67 207h-239l-77 -207h-170zM303 330h154l-71 272z" />
    <glyph glyph-name="uni1F8F" unicode="&#x1f8f;" horiz-adv-x="751" 
d="M63 580c-51 0 -105 36 -130 36c-29 0 -47 -8 -76 -29l-63 85c24 28 76 81 154 81c54 0 83 -38 110 -38c32 0 54 7 90 26l55 -84c-19 -27 -65 -77 -140 -77zM-29 376c-26 22 -47 51 -47 85c0 24 9 51 32 79h129c-21 -25 -29 -50 -29 -82c0 -43 44 -82 44 -82h-129z
M515 -289c-144 -13 -196 -2 -196 163v70h115v-68c0 -57 12 -75 80 -75zM11 0l272 707h219l238 -707h-176l-67 207h-239l-77 -207h-170zM303 330h154l-71 272z" />
    <glyph glyph-name="uni1F90" unicode="&#x1f90;" horiz-adv-x="681" 
d="M447 -220v549c0 75 -17 88 -73 88c-50 0 -95 -17 -122 -30v-387h-167v409c0 18 -16 22 -47 23l6 126c14 1 43 3 57 3c72 0 133 -15 147 -73c35 25 111 74 182 74c171 0 183 -95 183 -219v-563h-166zM285 619c0 0 44 39 44 82c0 32 -8 57 -29 82h129c23 -28 32 -55 32 -79
c0 -34 -21 -63 -47 -85h-129zM279 -289c-144 -13 -196 -2 -196 163v70h115v-68c0 -57 12 -75 80 -75z" />
    <glyph glyph-name="uni1F91" unicode="&#x1f91;" horiz-adv-x="681" 
d="M447 -220v549c0 75 -17 88 -73 88c-50 0 -95 -17 -122 -30v-387h-167v409c0 18 -16 22 -47 23l6 126c14 1 43 3 57 3c72 0 133 -15 147 -73c35 25 111 74 182 74c171 0 183 -95 183 -219v-563h-166zM281 -289c-144 -13 -196 -2 -196 163v70h115v-68c0 -57 12 -75 80 -75z
M327 619c-26 22 -47 51 -47 85c0 24 9 51 32 79h129c-21 -25 -29 -50 -29 -82c0 -43 44 -82 44 -82h-129z" />
    <glyph glyph-name="uni1F92" unicode="&#x1f92;" horiz-adv-x="681" 
d="M447 -220v549c0 75 -17 88 -73 88c-50 0 -95 -17 -122 -30v-387h-167v409c0 18 -16 22 -47 23l6 126c14 1 43 3 57 3c72 0 133 -15 147 -73c35 25 111 74 182 74c171 0 183 -95 183 -219v-563h-166zM156 619c0 0 44 39 44 82c0 32 -8 57 -29 82h129c23 -28 32 -55 32 -79
c0 -34 -21 -63 -47 -85h-129zM440 619l-98 162h157l69 -162h-128zM281 -289c-144 -13 -196 -2 -196 163v70h115v-68c0 -57 12 -75 80 -75z" />
    <glyph glyph-name="uni1F93" unicode="&#x1f93;" horiz-adv-x="681" 
d="M447 -220v549c0 75 -17 88 -73 88c-50 0 -95 -17 -122 -30v-387h-167v409c0 18 -16 22 -47 23l6 126c14 1 43 3 57 3c72 0 133 -15 147 -73c35 25 111 74 182 74c171 0 183 -95 183 -219v-563h-166zM214 619c-26 22 -47 51 -47 85c0 24 9 51 32 79h129
c-21 -25 -29 -50 -29 -82c0 -43 44 -82 44 -82h-129zM441 619l-98 162h157l69 -162h-128zM281 -289c-144 -13 -196 -2 -196 163v70h115v-68c0 -57 12 -75 80 -75z" />
    <glyph glyph-name="uni1F94" unicode="&#x1f94;" horiz-adv-x="681" 
d="M447 -220v549c0 75 -17 88 -73 88c-50 0 -95 -17 -122 -30v-387h-167v409c0 18 -16 22 -47 23l6 126c14 1 43 3 57 3c72 0 133 -15 147 -73c35 25 111 74 182 74c171 0 183 -95 183 -219v-563h-166zM178 619c0 0 44 39 44 82c0 32 -8 57 -29 82h129c23 -28 32 -55 32 -79
c0 -34 -21 -63 -47 -85h-129zM354 619l69 162h157l-98 -162h-128zM281 -289c-144 -13 -196 -2 -196 163v70h115v-68c0 -57 12 -75 80 -75z" />
    <glyph glyph-name="uni1F95" unicode="&#x1f95;" horiz-adv-x="681" 
d="M447 -220v549c0 75 -17 88 -73 88c-50 0 -95 -17 -122 -30v-387h-167v409c0 18 -16 22 -47 23l6 126c14 1 43 3 57 3c72 0 133 -15 147 -73c35 25 111 74 182 74c171 0 183 -95 183 -219v-563h-166zM200 619c-26 22 -47 51 -47 85c0 24 9 51 32 79h129
c-21 -25 -29 -50 -29 -82c0 -43 44 -82 44 -82h-129zM349 619l69 162h157l-98 -162h-128zM281 -289c-144 -13 -196 -2 -196 163v70h115v-68c0 -57 12 -75 80 -75z" />
    <glyph glyph-name="uni1F96" unicode="&#x1f96;" horiz-adv-x="681" 
d="M447 -220v549c0 75 -17 88 -73 88c-50 0 -95 -17 -122 -30v-387h-167v409c0 18 -16 22 -47 23l6 126c14 1 43 3 57 3c72 0 133 -15 147 -73c35 25 111 74 182 74c171 0 183 -95 183 -219v-563h-166zM436 823c-51 0 -105 36 -130 36c-29 0 -47 -8 -76 -29l-63 85
c24 28 76 81 154 81c54 0 83 -38 110 -38c32 0 54 7 90 26l55 -84c-19 -27 -65 -77 -140 -77zM297 619c0 0 44 39 44 82c0 32 -8 57 -29 82h129c23 -28 32 -55 32 -79c0 -34 -21 -63 -47 -85h-129zM280 -289c-144 -13 -196 -2 -196 163v70h115v-68c0 -57 12 -75 80 -75z" />
    <glyph glyph-name="uni1F97" unicode="&#x1f97;" horiz-adv-x="681" 
d="M447 -220v549c0 75 -17 88 -73 88c-50 0 -95 -17 -122 -30v-387h-167v409c0 18 -16 22 -47 23l6 126c14 1 43 3 57 3c72 0 133 -15 147 -73c35 25 111 74 182 74c171 0 183 -95 183 -219v-563h-166zM403 823c-51 0 -105 36 -130 36c-29 0 -47 -8 -76 -29l-63 85
c24 28 76 81 154 81c54 0 83 -38 110 -38c32 0 54 7 90 26l55 -84c-19 -27 -65 -77 -140 -77zM311 619c-26 22 -47 51 -47 85c0 24 9 51 32 79h129c-21 -25 -29 -50 -29 -82c0 -43 44 -82 44 -82h-129zM281 -289c-144 -13 -196 -2 -196 163v70h115v-68c0 -57 12 -75 80 -75z
" />
    <glyph glyph-name="uni1F98" unicode="&#x1f98;" horiz-adv-x="796" 
d="M-167 545c0 0 44 39 44 82c0 32 -8 57 -29 82h129c23 -28 32 -55 32 -79c0 -34 -21 -63 -47 -85h-129zM555 -289c-144 -13 -196 -2 -196 163v70h115v-68c0 -57 12 -75 80 -75zM78 0v707h170v-287h300v287h170v-707h-170v291h-300v-291h-170z" />
    <glyph glyph-name="uni1F99" unicode="&#x1f99;" horiz-adv-x="796" 
d="M555 -289c-144 -13 -196 -2 -196 163v70h115v-68c0 -57 12 -75 80 -75zM-115 545c-26 22 -47 51 -47 85c0 24 9 51 32 79h129c-21 -25 -29 -50 -29 -82c0 -43 44 -82 44 -82h-129zM78 0v707h170v-287h300v287h170v-707h-170v291h-300v-291h-170z" />
    <glyph glyph-name="uni1F9A" unicode="&#x1f9a;" horiz-adv-x="796" 
d="M-368 545c0 0 44 39 44 82c0 32 -8 57 -29 82h129c23 -28 32 -55 32 -79c0 -34 -21 -63 -47 -85h-129zM-84 545l-98 162h157l69 -162h-128zM555 -289c-144 -13 -196 -2 -196 163v70h115v-68c0 -57 12 -75 80 -75zM78 0v707h170v-287h300v287h170v-707h-170v291h-300v-291
h-170z" />
    <glyph glyph-name="uni1F9B" unicode="&#x1f9b;" horiz-adv-x="796" 
d="M-328 545c-26 22 -47 51 -47 85c0 24 9 51 32 79h129c-21 -25 -29 -50 -29 -82c0 -43 44 -82 44 -82h-129zM-101 545l-98 162h157l69 -162h-128zM555 -289c-144 -13 -196 -2 -196 163v70h115v-68c0 -57 12 -75 80 -75zM78 0v707h170v-287h300v287h170v-707h-170v291h-300
v-291h-170z" />
    <glyph glyph-name="uni1F9C" unicode="&#x1f9c;" horiz-adv-x="796" 
d="M-376 545c0 0 44 39 44 82c0 32 -8 57 -29 82h129c23 -28 32 -55 32 -79c0 -34 -21 -63 -47 -85h-129zM-200 545l69 162h157l-98 -162h-128zM555 -289c-144 -13 -196 -2 -196 163v70h115v-68c0 -57 12 -75 80 -75zM78 0v707h170v-287h300v287h170v-707h-170v291h-300
v-291h-170z" />
    <glyph glyph-name="uni1F9D" unicode="&#x1f9d;" horiz-adv-x="796" 
d="M-354 545c-26 22 -47 51 -47 85c0 24 9 51 32 79h129c-21 -25 -29 -50 -29 -82c0 -43 44 -82 44 -82h-129zM-205 545l69 162h157l-98 -162h-128zM555 -289c-144 -13 -196 -2 -196 163v70h115v-68c0 -57 12 -75 80 -75zM78 0v707h170v-287h300v287h170v-707h-170v291h-300
v-291h-170z" />
    <glyph glyph-name="uni1F9E" unicode="&#x1f9e;" horiz-adv-x="796" 
d="M-90 569c-51 0 -105 36 -130 36c-29 0 -47 -8 -76 -29l-63 85c24 28 76 81 154 81c54 0 83 -38 110 -38c32 0 54 7 90 26l55 -84c-19 -27 -65 -77 -140 -77zM-229 365c0 0 44 39 44 82c0 32 -8 57 -29 82h129c23 -28 32 -55 32 -79c0 -34 -21 -63 -47 -85h-129zM555 -289
c-144 -13 -196 -2 -196 163v70h115v-68c0 -57 12 -75 80 -75zM78 0v707h170v-287h300v287h170v-707h-170v291h-300v-291h-170z" />
    <glyph glyph-name="uni1F9F" unicode="&#x1f9f;" horiz-adv-x="796" 
d="M-119 556c-51 0 -105 36 -130 36c-29 0 -47 -8 -76 -29l-63 85c24 28 76 81 154 81c54 0 83 -38 110 -38c32 0 54 7 90 26l55 -84c-19 -27 -65 -77 -140 -77zM-211 352c-26 22 -47 51 -47 85c0 24 9 51 32 79h129c-21 -25 -29 -50 -29 -82c0 -43 44 -82 44 -82h-129z
M555 -289c-144 -13 -196 -2 -196 163v70h115v-68c0 -57 12 -75 80 -75zM78 0v707h170v-287h300v287h170v-707h-170v291h-300v-291h-170z" />
    <glyph glyph-name="uni1FA0" unicode="&#x1fa0;" horiz-adv-x="851" 
d="M255 -12c-144 0 -217 109 -217 249c0 95 12 203 140 309h183c-91 -73 -155 -178 -155 -288c0 -45 0 -129 71 -129c40 0 65 38 65 104v127h166v-125c0 -70 25 -106 66 -106c71 0 70 84 70 129c0 110 -64 215 -155 288h189c115 -96 135 -209 135 -304
c0 -130 -79 -254 -231 -254c-65 0 -142 38 -159 110c-30 -77 -102 -110 -168 -110zM338 619c0 0 44 39 44 82c0 32 -8 57 -29 82h129c23 -28 32 -55 32 -79c0 -34 -21 -63 -47 -85h-129zM565 -289c-144 -13 -196 -2 -196 163v70h115v-68c0 -57 12 -75 80 -75z" />
    <glyph glyph-name="uni1FA1" unicode="&#x1fa1;" horiz-adv-x="851" 
d="M255 -12c-144 0 -217 109 -217 249c0 95 12 203 140 309h183c-91 -73 -155 -178 -155 -288c0 -45 0 -129 71 -129c40 0 65 38 65 104v127h166v-125c0 -70 25 -106 66 -106c71 0 70 84 70 129c0 110 -64 215 -155 288h189c115 -96 135 -209 135 -304
c0 -130 -79 -254 -231 -254c-65 0 -142 38 -159 110c-30 -77 -102 -110 -168 -110zM565 -289c-144 -13 -196 -2 -196 163v70h115v-68c0 -57 12 -75 80 -75zM384 619c-26 22 -47 51 -47 85c0 24 9 51 32 79h129c-21 -25 -29 -50 -29 -82c0 -43 44 -82 44 -82h-129z" />
    <glyph glyph-name="uni1FA2" unicode="&#x1fa2;" horiz-adv-x="851" 
d="M255 -12c-144 0 -217 109 -217 249c0 95 12 203 140 309h183c-91 -73 -155 -178 -155 -288c0 -45 0 -129 71 -129c40 0 65 38 65 104v127h166v-125c0 -70 25 -106 66 -106c71 0 70 84 70 129c0 110 -64 215 -155 288h189c115 -96 135 -209 135 -304
c0 -130 -79 -254 -231 -254c-65 0 -142 38 -159 110c-30 -77 -102 -110 -168 -110zM235 619c0 0 44 39 44 82c0 32 -8 57 -29 82h129c23 -28 32 -55 32 -79c0 -34 -21 -63 -47 -85h-129zM519 619l-98 162h157l69 -162h-128zM565 -289c-144 -13 -196 -2 -196 163v70h115v-68
c0 -57 12 -75 80 -75z" />
    <glyph glyph-name="uni1FA3" unicode="&#x1fa3;" horiz-adv-x="851" 
d="M255 -12c-144 0 -217 109 -217 249c0 95 12 203 140 309h183c-91 -73 -155 -178 -155 -288c0 -45 0 -129 71 -129c40 0 65 38 65 104v127h166v-125c0 -70 25 -106 66 -106c71 0 70 84 70 129c0 110 -64 215 -155 288h189c115 -96 135 -209 135 -304
c0 -130 -79 -254 -231 -254c-65 0 -142 38 -159 110c-30 -77 -102 -110 -168 -110zM274 619c-26 22 -47 51 -47 85c0 24 9 51 32 79h129c-21 -25 -29 -50 -29 -82c0 -43 44 -82 44 -82h-129zM501 619l-98 162h157l69 -162h-128zM565 -289c-144 -13 -196 -2 -196 163v70h115
v-68c0 -57 12 -75 80 -75z" />
    <glyph glyph-name="uni1FA4" unicode="&#x1fa4;" horiz-adv-x="851" 
d="M255 -12c-144 0 -217 109 -217 249c0 95 12 203 140 309h183c-91 -73 -155 -178 -155 -288c0 -45 0 -129 71 -129c40 0 65 38 65 104v127h166v-125c0 -70 25 -106 66 -106c71 0 70 84 70 129c0 110 -64 215 -155 288h189c115 -96 135 -209 135 -304
c0 -130 -79 -254 -231 -254c-65 0 -142 38 -159 110c-30 -77 -102 -110 -168 -110zM281 619c0 0 44 39 44 82c0 32 -8 57 -29 82h129c23 -28 32 -55 32 -79c0 -34 -21 -63 -47 -85h-129zM457 619l69 162h157l-98 -162h-128zM565 -289c-144 -13 -196 -2 -196 163v70h115v-68
c0 -57 12 -75 80 -75z" />
    <glyph glyph-name="uni1FA5" unicode="&#x1fa5;" horiz-adv-x="851" 
d="M255 -12c-144 0 -217 109 -217 249c0 95 12 203 140 309h183c-91 -73 -155 -178 -155 -288c0 -45 0 -129 71 -129c40 0 65 38 65 104v127h166v-125c0 -70 25 -106 66 -106c71 0 70 84 70 129c0 110 -64 215 -155 288h189c115 -96 135 -209 135 -304
c0 -130 -79 -254 -231 -254c-65 0 -142 38 -159 110c-30 -77 -102 -110 -168 -110zM300 618c-26 22 -47 51 -47 85c0 24 9 51 32 79h129c-21 -25 -29 -50 -29 -82c0 -43 44 -82 44 -82h-129zM449 618l69 162h157l-98 -162h-128zM565 -289c-144 -13 -196 -2 -196 163v70h115
v-68c0 -57 12 -75 80 -75z" />
    <glyph glyph-name="uni1FA6" unicode="&#x1fa6;" horiz-adv-x="851" 
d="M255 -12c-144 0 -217 109 -217 249c0 95 12 203 140 309h183c-91 -73 -155 -178 -155 -288c0 -45 0 -129 71 -129c40 0 65 38 65 104v127h166v-125c0 -70 25 -106 66 -106c71 0 70 84 70 129c0 110 -64 215 -155 288h189c115 -96 135 -209 135 -304
c0 -130 -79 -254 -231 -254c-65 0 -142 38 -159 110c-30 -77 -102 -110 -168 -110zM483 823c-51 0 -105 36 -130 36c-29 0 -47 -8 -76 -29l-63 85c24 28 76 81 154 81c54 0 83 -38 110 -38c32 0 54 7 90 26l55 -84c-19 -27 -65 -77 -140 -77zM344 619c0 0 44 39 44 82
c0 32 -8 57 -29 82h129c23 -28 32 -55 32 -79c0 -34 -21 -63 -47 -85h-129zM565 -289c-144 -13 -196 -2 -196 163v70h115v-68c0 -57 12 -75 80 -75z" />
    <glyph glyph-name="uni1FA7" unicode="&#x1fa7;" horiz-adv-x="851" 
d="M255 -12c-144 0 -217 109 -217 249c0 95 12 203 140 309h183c-91 -73 -155 -178 -155 -288c0 -45 0 -129 71 -129c40 0 65 38 65 104v127h166v-125c0 -70 25 -106 66 -106c71 0 70 84 70 129c0 110 -64 215 -155 288h189c115 -96 135 -209 135 -304
c0 -130 -79 -254 -231 -254c-65 0 -142 38 -159 110c-30 -77 -102 -110 -168 -110zM466 823c-51 0 -105 36 -130 36c-29 0 -47 -8 -76 -29l-63 85c24 28 76 81 154 81c54 0 83 -38 110 -38c32 0 54 7 90 26l55 -84c-19 -27 -65 -77 -140 -77zM374 619c-26 22 -47 51 -47 85
c0 24 9 51 32 79h129c-21 -25 -29 -50 -29 -82c0 -43 44 -82 44 -82h-129zM565 -289c-144 -13 -196 -2 -196 163v70h115v-68c0 -57 12 -75 80 -75z" />
    </font>
</defs>
</svg>
