<?xml version="1.0" standalone="no"?>
<!DOCTYPE svg PUBLIC "-//W3C//DTD SVG 1.1//EN" "http://www.w3.org/Graphics/SVG/1.1/DTD/svg11.dtd" >
<svg>
<metadata>
Created by FontForge 20090914 at Mon Oct 31 10:40:23 2016
 By www-data
The digitally encoded machine readable software for producing the Typefaces licensed to you is copyrighted (c) 2006 Typotheque V.O.F. All rights reserved.
</metadata>
<defs>
<font id="FedraSerifAPro-Bold" horiz-adv-x="600" >
  <font-face 
    font-family="Fedra Serif A Pro Bold"
    font-weight="700"
    font-stretch="normal"
    units-per-em="1000"
    panose-1="2 0 5 5 8 0 0 2 0 4"
    ascent="780"
    descent="-220"
    x-height="546"
    cap-height="707"
    bbox="-528 -1231 2317 1013"
    underline-thickness="50"
    underline-position="-50"
    stemh="123"
    stemv="171"
    unicode-range="U+0020-U+FE69"
  />
<missing-glyph horiz-adv-x="712" 
d="M305 375v27h27v-27h-27zM380 525v27h27v-27h-27zM305 525v27h27v-27h-27zM230 525v27h27v-27h-27zM80 0v27h27v-27h-27zM155 0v27h27v-27h-27zM230 0v27h27v-27h-27zM305 0v27h27v-27h-27zM380 0v27h27v-27h-27zM80 75v27h27v-27h-27zM80 150v27h27v-27h-27zM80 225v27
h27v-27h-27zM80 300v27h27v-27h-27zM80 375v27h27v-27h-27zM80 450v27h27v-27h-27zM80 525v27h27v-27h-27zM80 600v27h27v-27h-27zM80 675v27h27v-27h-27zM155 675v27h27v-27h-27zM230 675v27h27v-27h-27zM305 675v27h27v-27h-27zM380 675v27h27v-27h-27zM455 675v27h27v-27
h-27zM530 675v27h27v-27h-27zM530 0v27h27v-27h-27zM455 0v27h27v-27h-27zM605 0v27h27v-27h-27zM605 675v27h27v-27h-27zM305 300v27h27v-27h-27zM305 150v27h27v-27h-27zM380 375v27h27v-27h-27zM455 375v27h27v-27h-27zM455 450v27h27v-27h-27zM455 525v27h27v-27h-27z
M605 600v27h27v-27h-27zM605 525v27h27v-27h-27zM605 375v27h27v-27h-27zM605 300v27h27v-27h-27zM605 150v27h27v-27h-27zM605 75v27h27v-27h-27zM605 225v27h27v-27h-27zM605 450v27h27v-27h-27z" />
    <glyph glyph-name="f_f" unicode="ff" horiz-adv-x="821" 
d="M26 0c-3 20 -7 41 -4 61l48 13c24 7 27 36 28 60l2 150v182h-80v62l80 18v15c0 112 150 210 277 210c77 0 151 -17 186 -50c48 41 111 67 169 67c107 0 181 -18 181 -80c0 -57 -43 -83 -75 -98c-32 46 -68 91 -90 91c-49 0 -90 -34 -90 -87v-68h119v-80h-119v-182l4 -154
c0 -30 19 -43 45 -48c0 0 93 -17 100 -19c0 0 0 -42 -9 -63h-382c-4 24 -4 40 -4 61l48 13c22 6 27 36 28 60l2 150v182h-222v-182l4 -154c0 -30 14 -44 46 -53l51 -14s0 -42 -9 -63h-334zM268 546h222v35c0 10 1 20 3 30c-35 38 -79 72 -135 70c-49 -2 -90 -34 -90 -87v-48
z" />
    <glyph glyph-name="fi" unicode="fi" horiz-adv-x="779" 
d="M26 0c-5 24 -5 43 -4 61c11 4 48 13 48 13c24 7 27 36 28 60l2 150v182h-80v62l80 18v15c0 112 161 224 272 224c128 0 215 -24 215 -86c0 -57 -43 -83 -75 -98c-32 46 -102 97 -124 97c-77 0 -120 -51 -120 -104v-48h179c62 10 132 16 176 16c33 0 52 -8 52 -48v-240
l2 -147c0 -31 5 -42 16 -45l66 -19c0 -26 -1 -43 -6 -63h-317c-3 13 -5 35 -5 63l50 17c18 6 23 15 24 39l3 155v192h-240v-182l4 -154c0 -30 9 -43 35 -48c0 0 66 -17 73 -19c0 0 0 -42 -9 -63h-345z" />
    <glyph glyph-name="fl" unicode="fl" horiz-adv-x="771" 
d="M755 63c0 -35 -1 -43 -6 -63h-327c-6 24 -5 43 -4 59l59 16c19 5 24 14 24 39l3 160v362c-38 29 -87 53 -129 52c-76 -2 -107 -35 -107 -88v-54h119v-80h-119v-182l4 -154c0 -30 21 -49 47 -54c0 0 43 -11 50 -13c0 0 0 -42 -9 -63h-334c-3 28 -5 42 -4 61
c11 4 48 13 48 13c24 7 27 36 28 60l2 150v182h-80v62l80 18v15c0 112 150 210 277 210c42 0 84 -6 118 -16c45 6 94 9 124 9c33 0 53 -8 53 -48v-442l1 -147c1 -20 2 -41 16 -45z" />
    <glyph glyph-name="f_f_i" unicode="ffi" horiz-adv-x="1154" 
d="M26 0c-5 25 -5 41 -4 61c11 4 48 13 48 13c24 7 27 36 28 60l2 150v182h-80v62l80 18v15c0 112 150 210 277 210c86 0 169 -22 197 -63c56 46 128 77 187 77c128 0 215 -24 215 -86c0 -57 -43 -83 -75 -98c-32 46 -102 97 -124 97c-77 0 -120 -51 -120 -104v-48h165
c62 10 132 16 176 16c33 0 52 -8 52 -48v-240l2 -147c0 -31 5 -42 16 -45l66 -19c0 -26 -1 -43 -6 -63h-317c-3 13 -5 35 -5 63l50 17c18 6 23 15 24 39l3 155v192h-226v-182l4 -154c0 -30 9 -43 35 -48l64 -19s0 -42 -9 -63h-329c-5 22 -6 40 -4 61c11 4 41 13 41 13
c24 7 27 36 28 60l2 150v182h-221v-182l4 -154c0 -30 20 -48 46 -53l51 -14s0 -42 -9 -63h-334zM268 546h221v15c0 15 3 30 8 45c-36 40 -81 77 -139 75c-49 -2 -90 -34 -90 -87v-48z" />
    <glyph glyph-name="f_f_l" unicode="ffl" horiz-adv-x="1164" 
d="M26 0c-5 25 -5 41 -4 61c11 4 48 13 48 13c24 7 27 36 28 60l2 150v182h-80v62l80 18v15c0 112 150 210 277 210c84 0 164 -20 195 -59c54 42 127 69 194 69c52 0 103 -8 141 -23c39 4 79 6 105 6c33 0 53 -8 53 -48v-442l1 -147c1 -20 2 -41 16 -45l66 -19
c0 -35 -1 -43 -6 -63h-327c-6 24 -4 31 -4 59l59 16c19 5 24 14 24 39l3 160v369c-38 30 -89 56 -133 55c-76 -2 -107 -35 -107 -88v-64h119v-80h-119v-182l4 -154c0 -30 19 -48 45 -53l52 -14s0 -42 -9 -63h-334c-1 16 -5 39 -4 61c11 4 48 13 48 13c24 7 27 36 28 60
l2 150v182h-221v-182l4 -154c0 -30 20 -48 46 -53l51 -14s0 -42 -9 -63h-334zM268 546h221v25c0 13 2 26 6 38c-36 39 -80 74 -137 72c-49 -2 -90 -34 -90 -87v-48z" />
    <glyph glyph-name="f_h" unicode="fh" horiz-adv-x="1158" 
d="M26 0c-6 26 -4 45 -4 61c11 4 41 10 41 10c24 7 35 26 35 63l2 150v182h-80v62l80 18v15c0 112 150 210 277 210c41 0 82 -5 117 -15c50 7 100 10 134 10c29 0 39 -12 39 -35v-238c38 29 94 67 180 67c185 0 187 -76 187 -179v-107l3 -165c1 -18 3 -29 14 -32l57 -16
c0 -37 -2 -45 -8 -61h-285c-4 21 -6 35 -4 61l35 16c17 8 19 21 19 36l2 161v53c0 60 -1 117 -73 117c-43 0 -93 -6 -123 -17v-153l2 -147c0 -20 11 -43 29 -49l43 -15c0 -35 -1 -43 -6 -63h-296c-4 23 -5 43 -4 59l36 12c19 6 26 18 26 43l3 160v362c-38 29 -87 53 -129 52
c-76 -2 -107 -35 -107 -88v-54h115v-80h-115v-182l4 -154c0 -30 19 -47 45 -52l52 -15s0 -42 -9 -63h-334z" />
    <glyph glyph-name="f_b" unicode="fb" horiz-adv-x="1073" 
d="M1043 294c0 -174 -132 -301 -310 -301c-126 0 -178 13 -234 29l6 262v351c-38 29 -87 54 -130 53c-76 -2 -107 -35 -107 -88v-54h119v-80h-119v-182l4 -154c0 -30 19 -43 45 -48c0 0 45 -17 52 -19c0 0 0 -42 -9 -63h-334c-8 44 -4 24 -4 61c11 4 48 13 48 13
c24 7 27 36 28 60l2 150v182h-80v62l80 18v15c0 112 150 210 277 210c45 0 90 -6 126 -18c38 7 75 11 111 11c46 0 57 -11 57 -59v-422l4 -179c14 -2 32 -5 61 -5c86 0 129 84 129 188c0 103 -30 168 -110 168c-13 0 -30 -1 -44 -3l-14 82c14 6 59 22 92 22
c165 0 254 -53 254 -262z" />
    <glyph glyph-name="f_j" unicode="fj" horiz-adv-x="756" 
d="M435 -225c-38 0 -78 7 -108 23l48 133c34 -18 51 -24 84 -24c31 0 56 18 56 83v476h-247v-182l4 -154c0 -30 20 -40 45 -48c0 0 53 -17 60 -19c0 0 0 -42 -9 -63h-342c-4 26 -4 42 -4 61c11 4 48 13 48 13c24 7 27 36 28 60l2 150v182h-80v62l80 18v15
c0 156 201 226 312 226c107 0 227 -18 227 -80c0 -35 -22 -88 -54 -103c-44 36 -115 97 -137 97c-128 0 -180 -30 -180 -108v-47h189c61 10 130 16 173 16c33 0 52 -8 52 -48v-240l-1 -200c-1 -148 -154 -299 -246 -299z" />
    <glyph glyph-name="f_k" unicode="fk" horiz-adv-x="1059" 
d="M1036 -21c-141 11 -209 56 -276 151l-87 124l1 -127c1 -20 5 -35 16 -45l25 -23c0 -35 -1 -39 -6 -59h-276c-4 19 -4 39 -4 59l49 16c20 5 24 14 24 39l3 160v361c-38 29 -87 54 -130 53c-76 -2 -107 -35 -107 -88v-54h119v-80h-119v-182l4 -154c1 -30 20 -48 46 -53
l51 -14s0 -42 -9 -63h-334c-3 16 -5 38 -4 61c11 4 48 13 48 13c24 7 27 36 28 60l2 150v182h-80v62l80 18v15c0 112 150 210 277 210c43 0 84 -5 119 -16c46 6 92 9 124 9c33 0 53 -8 53 -48v-412l145 124c10 8 14 13 14 26c0 11 -7 20 -16 24l-33 17c0 18 0 34 5 51h231
v-54l-209 -166l98 -121c57 -69 100 -122 150 -141z" />
    <glyph glyph-name="f_idieresis" unicode="f&#xef;" horiz-adv-x="806" 
d="M26 0c-4 24 -5 43 -4 61c11 4 48 13 48 13c24 7 27 36 28 60l2 150v182h-80v62l80 18v22c0 122 167 222 278 222c45 0 64 -2 105 -9c14 -6 84 -69 84 -84c0 -12 -70 -84 -84 -84c-13 0 -50 36 -70 62c-9 12 -27 23 -37 23c-49 0 -108 -44 -108 -97v-55h206
c62 10 132 16 176 16c33 0 52 -8 52 -48v-240l2 -147c0 -31 5 -42 16 -45l66 -19c0 -26 -1 -43 -6 -63h-317c-3 13 -5 35 -5 63l50 17c18 6 23 15 24 39l3 155v192h-267v-182l4 -154c0 -30 19 -43 45 -48l70 -19s0 -42 -9 -63h-352zM743 613c-18 0 -84 70 -84 84
c0 18 68 84 84 84c15 0 84 -69 84 -84c0 -12 -70 -84 -84 -84z" />
    <glyph glyph-name="f_f_j" unicode="ffj" horiz-adv-x="1109" 
d="M788 -225c-38 0 -78 7 -108 23l48 133c34 -18 51 -24 84 -24c31 0 56 18 56 83v476h-211v-182l4 -154c0 -30 9 -43 35 -48c0 0 66 -17 73 -19c0 0 0 -42 -9 -63h-338c-4 18 -5 39 -4 61c11 4 41 13 41 13c24 7 27 36 28 60l2 150v182h-221v-182l4 -154
c0 -30 20 -48 46 -53l51 -14s0 -42 -9 -63h-334c-5 25 -5 41 -4 61c11 4 48 13 48 13c24 7 27 36 28 60l2 150v182h-80v62l80 18v15c0 112 150 210 277 210c86 0 169 -22 197 -63c56 46 128 77 187 77c128 0 215 -24 215 -86c0 -57 -43 -83 -75 -98c-32 46 -102 97 -124 97
c-77 0 -120 -51 -120 -104v-48h153c61 10 130 16 173 16c33 0 52 -8 52 -48v-240l-1 -200c-1 -148 -154 -299 -246 -299zM268 546h221v15c0 15 3 30 8 45c-36 40 -81 77 -139 75c-49 -2 -90 -34 -90 -87v-48z" />
    <glyph glyph-name="f_f_b" unicode="ffb" horiz-adv-x="1456" 
d="M1116 -7c-126 0 -178 13 -234 29l6 262v358c-38 31 -80 57 -124 56c-76 -2 -107 -35 -107 -88v-64h113v-80h-113v-182l4 -154c0 -30 19 -43 45 -48l70 -19s0 -42 -9 -63h-352c-5 21 -5 51 -4 61c11 4 48 13 48 13c24 7 27 36 28 60l2 150v182h-221v-182l4 -154
c0 -30 18 -38 45 -48l51 -18c-3 -22 -4 -43 -13 -64h-329c-4 21 -7 52 -4 61c11 4 48 13 48 13c24 7 27 36 28 60l2 150v182h-80v62l80 18v15c0 112 150 210 277 210c84 0 164 -20 195 -59c54 42 127 69 194 69c54 0 97 -9 136 -25c32 5 64 8 95 8c46 0 57 -11 57 -59v-422
l4 -179c14 -2 32 -5 61 -5c86 0 129 84 129 188c0 103 -30 168 -110 168c-13 0 -30 -1 -44 -3l-14 82c14 6 59 22 92 22c165 0 254 -53 254 -262c0 -174 -132 -301 -310 -301zM268 546h221v25c0 13 2 26 6 38c-36 39 -80 74 -137 72c-49 -2 -90 -34 -90 -87v-48z" />
    <glyph glyph-name="f_f_h" unicode="ffh" horiz-adv-x="1523" 
d="M26 0c-5 25 -5 41 -4 61c11 4 48 13 48 13c24 7 27 36 28 60l2 150v182h-80v62l80 18v15c0 112 150 210 277 210c84 0 164 -20 195 -59c54 42 127 69 194 69c51 0 102 -8 140 -23c44 5 87 8 117 8c29 0 39 -12 39 -35v-238c38 29 94 67 180 67c185 0 187 -76 187 -179
v-107l3 -165c1 -18 3 -29 14 -32l57 -16c-2 -21 -4 -44 -8 -61h-285c-4 21 -6 35 -4 61l35 16c17 8 19 21 19 36l2 161v53c0 60 -1 117 -73 117c-43 0 -93 -6 -123 -17v-153l2 -147c0 -20 3 -38 16 -45l36 -19c0 -25 -1 -43 -6 -63h-287c-6 20 -5 40 -4 59l49 16
c19 6 24 14 24 39l3 160v368c-39 30 -91 57 -135 56c-76 -2 -107 -35 -107 -88v-64h121v-80h-121v-182l4 -154c0 -30 23 -52 49 -57c0 0 41 -8 48 -10c0 0 0 -42 -9 -63h-334c-4 28 -4 41 -4 61c11 4 48 13 48 13c24 7 27 36 28 60l2 150v182h-221v-182l4 -154
c0 -30 20 -48 46 -53l51 -14s0 -42 -9 -63h-334zM268 546h221v25c0 13 2 26 6 38c-36 39 -80 74 -137 72c-49 -2 -90 -34 -90 -87v-48z" />
    <glyph glyph-name="f_f_k" unicode="ffk" horiz-adv-x="1442" 
d="M1419 -21c-141 11 -210 56 -276 151l-87 125v-1l1 -127c1 -20 5 -35 16 -45l25 -23c-1 -19 -3 -39 -6 -59h-276c-5 17 -5 46 -4 59l49 16c20 5 24 14 24 39l3 160v368c-38 31 -80 57 -124 56c-76 -2 -107 -35 -107 -88v-64h119v-80h-119v-182l4 -154c0 -30 20 -49 46 -54
c0 0 44 -11 51 -13c0 0 0 -42 -9 -63h-334c-3 22 -5 38 -4 61c11 4 48 13 48 13c24 7 27 36 28 60l2 150v182h-221v-182l4 -154c0 -30 20 -48 46 -53l51 -14s0 -42 -9 -63h-334c-5 25 -5 41 -4 61c11 4 48 13 48 13c24 7 27 36 28 60l2 150v182h-80v62l80 18v15
c0 112 150 210 277 210c84 0 164 -20 195 -59c54 42 127 69 194 69c53 0 94 -8 132 -24c40 5 78 7 105 7c33 0 53 -8 53 -48v-411l145 123c10 8 14 13 14 26c0 11 -7 20 -16 24l-33 17c0 18 0 34 5 51h231v-54l-209 -166l98 -121c57 -69 100 -122 150 -141zM268 546h221v25
c0 13 2 26 6 38c-36 39 -80 74 -137 72c-49 -2 -90 -34 -90 -87v-48z" />
    <glyph glyph-name="aogonek_j" unicode="&#x105;j" horiz-adv-x="980" 
d="M526 -258c-125 0 -193 48 -193 129c0 48 27 89 78 124c-41 8 -69 31 -73 84c-34 -37 -96 -88 -164 -88c-91 0 -149 39 -149 126c0 127 110 165 220 180c31 4 62 7 90 10v63c0 40 -8 55 -98 55c-34 0 -81 -5 -149 -21l-29 120c74 27 141 34 205 34c89 1 237 -9 237 -162
v-122l7 -173h68l6 -46c-64 -48 -133 -84 -133 -152c0 -59 45 -77 89 -77c98 0 178 58 178 176v464h-83v75c66 14 149 21 198 21c33 0 52 -8 52 -48v-240l-1 -200c-1 -199 -186 -332 -356 -332zM243 114c30 0 65 6 92 16v101c-16 -2 -35 -3 -54 -6c-54 -8 -90 -24 -90 -66
c0 -28 19 -45 52 -45zM798 633c-21 0 -96 78 -96 97c0 23 76 97 96 97c18 0 98 -77 98 -97c0 -15 -76 -97 -98 -97z" />
    <glyph glyph-name=".notdef" horiz-adv-x="712" 
d="M305 375v27h27v-27h-27zM380 525v27h27v-27h-27zM305 525v27h27v-27h-27zM230 525v27h27v-27h-27zM80 0v27h27v-27h-27zM155 0v27h27v-27h-27zM230 0v27h27v-27h-27zM305 0v27h27v-27h-27zM380 0v27h27v-27h-27zM80 75v27h27v-27h-27zM80 150v27h27v-27h-27zM80 225v27
h27v-27h-27zM80 300v27h27v-27h-27zM80 375v27h27v-27h-27zM80 450v27h27v-27h-27zM80 525v27h27v-27h-27zM80 600v27h27v-27h-27zM80 675v27h27v-27h-27zM155 675v27h27v-27h-27zM230 675v27h27v-27h-27zM305 675v27h27v-27h-27zM380 675v27h27v-27h-27zM455 675v27h27v-27
h-27zM530 675v27h27v-27h-27zM530 0v27h27v-27h-27zM455 0v27h27v-27h-27zM605 0v27h27v-27h-27zM605 675v27h27v-27h-27zM305 300v27h27v-27h-27zM305 150v27h27v-27h-27zM380 375v27h27v-27h-27zM455 375v27h27v-27h-27zM455 450v27h27v-27h-27zM455 525v27h27v-27h-27z
M605 600v27h27v-27h-27zM605 525v27h27v-27h-27zM605 375v27h27v-27h-27zM605 300v27h27v-27h-27zM605 150v27h27v-27h-27zM605 75v27h27v-27h-27zM605 225v27h27v-27h-27zM605 450v27h27v-27h-27z" />
    <glyph glyph-name="space" unicode=" " horiz-adv-x="280" 
 />
    <glyph glyph-name="exclam" unicode="!" horiz-adv-x="277" 
d="M233 694l-37 -483h-115l-37 483l94 48zM230 35c0 -21 -76 -95 -96 -95s-94 73 -94 95c0 23 75 94 94 94c21 0 96 -72 96 -94z" />
    <glyph glyph-name="quotedbl" unicode="&#x22;" horiz-adv-x="578" 
d="M340 495v260h158l-37 -260h-121zM80 495v260h157l-36 -260h-121z" />
    <glyph glyph-name="numbersign" unicode="#" horiz-adv-x="614" 
d="M568 128h-108l-9 -166h-95l8 166h-134l-8 -166h-95l8 166h-90v95h95l7 118h-102v94h106l9 154h95l-8 -154h133l9 154h95l-8 -154h92v-94h-97l-6 -118h103v-95zM375 341h-133l-6 -118h133z" />
    <glyph glyph-name="dollar" unicode="$" horiz-adv-x="566" 
d="M506 185c0 -106 -96 -178 -200 -196v-156h-59v152c-106 2 -186 38 -186 100c0 32 10 54 39 83c36 -29 121 -93 167 -93c69 0 97 17 97 61c0 57 -290 31 -290 250c0 82 83 157 173 178v140h59v-134c98 -2 181 -34 181 -89c0 -47 -13 -57 -48 -81c-38 24 -106 72 -153 72
c-61 0 -82 -15 -82 -42s44 -37 99 -52c88 -24 203 -60 203 -193z" />
    <glyph glyph-name="percent" unicode="%" horiz-adv-x="695" 
d="M213 368c-68 0 -132 31 -132 118c0 80 65 125 134 125c68 0 135 -30 135 -120c0 -81 -66 -123 -137 -123zM214 432c34 0 47 29 47 60c0 33 -13 55 -47 55c-35 0 -44 -31 -44 -62c0 -32 11 -53 44 -53zM488 -19c-68 0 -132 31 -132 118c0 80 65 125 134 125
c68 0 135 -30 135 -120c0 -81 -66 -123 -137 -123zM489 45c34 0 47 29 47 60c0 32 -13 55 -47 55c-35 0 -44 -32 -44 -62c0 -33 11 -53 44 -53zM120 54l-50 68l501 405l50 -66z" />
    <glyph glyph-name="ampersand" unicode="&#x26;" horiz-adv-x="784" 
d="M794 46c-34 -42 -82 -60 -135 -60c-78 0 -162 36 -228 77c-47 -46 -126 -72 -191 -72c-100 0 -208 49 -208 164c0 77 70 149 138 177c-32 43 -46 103 -46 164c0 117 117 220 220 220c119 0 194 -51 194 -141c0 -105 -112 -174 -198 -200c38 -55 97 -123 166 -176
c6 14 9 27 9 40c0 44 -21 76 -53 101c0 14 1 30 6 45h200v-29c-22 -72 -89 -146 -130 -180c67 -46 139 -78 205 -78c11 0 22 1 33 3zM397 564c0 45 -25 75 -70 75c-43 0 -71 -37 -71 -80c0 -40 26 -110 59 -148c49 36 82 87 82 153zM372 108c-57 41 -123 117 -167 172
c-20 -17 -28 -42 -28 -68c0 -90 71 -114 137 -114c27 0 46 5 58 10z" />
    <glyph glyph-name="quotesingle" unicode="'" horiz-adv-x="318" 
d="M80 495v260h158l-37 -260h-121z" />
    <glyph glyph-name="parenleft" unicode="(" horiz-adv-x="353" 
d="M263 -221c-35 31 -214 247 -214 547c0 302 180 497 218 523l57 -57c-37 -30 -185 -213 -185 -465c0 -254 150 -456 184 -489z" />
    <glyph glyph-name="parenright" unicode=")" horiz-adv-x="353" 
d="M84 -221l-60 59c34 33 184 235 184 489c0 252 -148 435 -185 465l57 57c38 -26 218 -221 218 -523c0 -300 -179 -516 -214 -547z" />
    <glyph glyph-name="asterisk" unicode="*" horiz-adv-x="427" 
d="M384 527l-7 -34l-28 -27l-82 31l-20 -89l-34 -10l-35 10l-11 91l-91 -33l-24 24l-9 36l71 56l-71 61l7 36l27 24l92 -35l10 94l34 10l35 -10l22 -90l80 31l28 -23l6 -36l-76 -58z" />
    <glyph glyph-name="plus" unicode="+" 
d="M540 248l-185 2l2 -219h-114l2 219l-185 -2v100l185 -2l-2 219h114l-2 -219l185 2v-100z" />
    <glyph glyph-name="comma" unicode="," horiz-adv-x="411" 
d="M319 22c0 -72 -101 -187 -180 -241l-47 43c27 29 70 86 83 120c-31 26 -73 75 -73 90c0 28 86 106 108 106c24 0 109 -77 109 -118z" />
    <glyph glyph-name="hyphen" unicode="-" horiz-adv-x="381" 
d="M331 254h-281v78l281 13v-91z" />
    <glyph glyph-name="hyphen" unicode="&#xad;" horiz-adv-x="381" 
d="M331 254h-281v78l281 13v-91z" />
    <glyph glyph-name="period" unicode="." horiz-adv-x="371" 
d="M291 35c0 -23 -84 -106 -106 -106s-105 82 -105 106c0 25 83 105 105 105s106 -81 106 -105z" />
    <glyph glyph-name="slash" unicode="/" horiz-adv-x="379" 
d="M358 769l-235 -831h-102l236 831h101z" />
    <glyph glyph-name="zero" unicode="0" horiz-adv-x="673" 
d="M643 278c0 -178 -159 -288 -328 -288c-168 0 -285 77 -285 268c0 179 156 300 325 300c170 0 288 -89 288 -280zM454 267c0 110 -38 189 -122 189c-77 0 -117 -63 -117 -173c0 -103 44 -188 128 -188c82 0 111 66 111 172z" />
    <glyph glyph-name="one" unicode="1" horiz-adv-x="488" 
d="M468 73c0 -36 -1 -52 -7 -73h-425c-5 17 -7 54 -6 70l91 30c16 5 35 25 37 56l6 127v161h-132v87l303 47v-296l2 -151c0 -17 18 -35 43 -40z" />
    <glyph glyph-name="two" unicode="2" horiz-adv-x="527" 
d="M487 0h-455l-24 81c34 21 281 185 281 281c0 40 -26 65 -93 65c-64 0 -125 -15 -150 -23l-29 97c32 16 127 63 226 63c173 0 234 -57 234 -174c0 -90 -109 -178 -234 -248l244 22v-164z" />
    <glyph glyph-name="three" unicode="3" horiz-adv-x="510" 
d="M477 67c0 -152 -157 -234 -293 -234c-71 0 -122 11 -187 34l31 111c53 -20 103 -28 160 -28c63 0 107 28 107 95c0 91 -72 108 -150 119l-12 70c63 16 131 56 131 130c0 58 -42 76 -93 76c-43 0 -90 -12 -131 -26l-30 93c61 36 152 54 222 54c108 0 210 -41 210 -165
c0 -62 -73 -128 -127 -150c83 -13 162 -93 162 -179z" />
    <glyph glyph-name="four" unicode="4" horiz-adv-x="585" 
d="M550 24h-92l5 -185h-178l4 185h-242l-52 86l197 436h86l-155 -372h167v372h167v-372h93v-150z" />
    <glyph glyph-name="five" unicode="5" horiz-adv-x="554" 
d="M516 75c0 -119 -139 -247 -297 -247c-84 0 -133 8 -204 32l29 110c63 -18 116 -30 179 -30c72 0 105 23 105 80c0 112 -176 123 -269 134l41 392h394l-10 -155l-292 28l-8 -100c153 -15 332 -50 332 -244z" />
    <glyph glyph-name="six" unicode="6" horiz-adv-x="605" 
d="M575 257c0 -138 -126 -265 -264 -265c-209 0 -281 104 -281 307c0 226 167 425 400 425c32 0 78 -6 101 -13l-30 -112c-21 6 -73 15 -102 15c-170 0 -189 -169 -189 -302c0 -68 12 -220 108 -220c71 0 87 74 87 131c0 56 -34 139 -101 139c-10 0 -24 0 -38 -3l-14 89
c30 11 62 18 110 18c139 0 213 -67 213 -209z" />
    <glyph glyph-name="seven" unicode="7" horiz-adv-x="511" 
d="M511 488l-378 -701l-122 59l324 560l-324 -17l-1 157h473z" />
    <glyph glyph-name="eight" unicode="8" 
d="M570 215c0 -133 -128 -224 -278 -224c-143 0 -262 63 -262 194c0 71 48 123 108 162c-51 40 -89 91 -89 164c0 88 101 207 244 207c141 0 255 -63 255 -176c0 -71 -49 -123 -114 -158c74 -42 136 -93 136 -169zM402 529c0 35 -35 101 -108 101c-57 0 -94 -33 -94 -81
c0 -53 85 -90 173 -133c23 30 29 62 29 113zM405 160c0 57 -100 90 -194 141c-20 -31 -30 -67 -30 -107c0 -49 48 -112 120 -112c71 0 104 27 104 78z" />
    <glyph glyph-name="nine" unicode="9" horiz-adv-x="605" 
d="M575 254c0 -227 -167 -425 -400 -425c-32 0 -78 5 -101 12l30 112c21 -6 73 -14 102 -14c170 0 189 168 189 302c0 67 -12 220 -108 220c-71 0 -87 -74 -87 -131c0 -56 34 -140 101 -140c10 0 24 1 38 3l14 -89c-30 -11 -62 -17 -110 -17c-139 0 -213 66 -213 208
c0 138 126 265 264 265c209 0 281 -104 281 -306z" />
    <glyph glyph-name="colon" unicode=":" horiz-adv-x="411" 
d="M291 485c0 -23 -84 -106 -106 -106s-105 82 -105 106c0 25 83 105 105 105s106 -81 106 -105zM291 35c0 -23 -84 -106 -106 -106s-105 82 -105 106c0 25 83 105 105 105s106 -81 106 -105z" />
    <glyph glyph-name="semicolon" unicode=";" horiz-adv-x="411" 
d="M283 484c0 -23 -84 -106 -106 -106s-105 82 -105 106c0 25 83 105 105 105s106 -81 106 -105zM299 22c0 -72 -101 -187 -180 -241l-47 43c27 29 70 86 83 120c-31 26 -73 75 -73 90c0 28 86 106 108 106c24 0 109 -77 109 -118z" />
    <glyph glyph-name="less" unicode="&#x3c;" 
d="M235 300l305 -168l-51 -94l-429 236v52l429 236l51 -94z" />
    <glyph glyph-name="equal" unicode="=" 
d="M540 352h-480v100h480v-100zM540 152h-480v100h480v-100z" />
    <glyph glyph-name="greater" unicode="&#x3e;" 
d="M60 132l305 168l-305 168l51 94l429 -236v-52l-429 -236z" />
    <glyph glyph-name="question" unicode="?" horiz-adv-x="462" 
d="M441 524c0 -191 -209 -208 -209 -285c0 -14 0 -11 6 -30l-95 -23s-42 87 -42 111c0 117 207 176 207 252c0 16 -19 65 -85 65c-52 0 -92 -24 -141 -38c-18 26 -24 45 -24 62c0 66 76 82 140 82c133 0 243 -106 243 -196zM290 35c0 -21 -76 -95 -96 -95s-94 73 -94 95
c0 23 75 94 94 94c21 0 96 -72 96 -94z" />
    <glyph glyph-name="at" unicode="@" horiz-adv-x="776" 
d="M357 -137c-199 0 -317 99 -317 333c0 324 203 461 418 461c161 0 278 -77 278 -290c0 -208 -101 -294 -224 -294c-45 0 -91 28 -82 85c-24 -45 -65 -77 -110 -77c-58 0 -122 49 -122 143c0 126 112 225 228 225c60 0 116 -18 138 -26l-27 -232c-4 -30 -2 -45 12 -45
c41 0 108 43 108 219c0 178 -94 230 -202 230c-171 0 -333 -92 -333 -388c0 -212 89 -278 243 -278c51 0 110 9 148 18l15 -58c-53 -22 -104 -26 -171 -26zM364 178c34 0 47 16 68 27l20 166l-22 3c-79 11 -117 -55 -117 -133c0 -42 22 -63 51 -63z" />
    <glyph glyph-name="A" unicode="A" horiz-adv-x="777" 
d="M746 59c0 -24 -1 -39 -7 -59h-316c-8 21 -9 37 -9 65l53 19c23 8 33 23 33 43c0 13 -3 23 -8 37l-34 104h-223l-36 -95c-5 -15 -7 -27 -7 -38c0 -34 21 -44 37 -49l72 -21c0 -19 0 -45 -6 -65h-273c-5 17 -5 38 -5 60c23 22 35 32 48 61l246 569l157 33l233 -604
c10 -24 28 -42 45 -60zM431 351l-49 149l-24 86h-6l-28 -83l-57 -152h164z" />
    <glyph glyph-name="B" unicode="B" horiz-adv-x="730" 
d="M693 227c0 -130 -96 -227 -299 -227h-364c-7 22 -7 38 -7 63l36 11c24 7 50 21 50 52l2 156v305c0 36 -34 48 -58 55l-29 8c0 30 1 40 5 57h335c169 0 278 -50 278 -182c0 -92 -80 -122 -124 -137c-2 -1 1 -3 0 -4c50 -6 175 -40 175 -157zM459 514
c0 56 -17 101 -117 101h-60v-207h69c95 0 108 55 108 106zM510 204c0 65 -34 114 -173 114h-55v-38l3 -189h91c98 0 134 47 134 113z" />
    <glyph glyph-name="C" unicode="C" horiz-adv-x="707" 
d="M677 38c-80 -32 -138 -45 -237 -45c-253 0 -405 111 -405 356c0 206 178 370 401 370c109 0 154 -11 237 -47v-172c-17 -2 -36 -4 -65 -1c-30 77 -89 117 -176 117c-125 0 -219 -65 -219 -257c0 -150 98 -237 242 -237c68 0 125 10 190 24z" />
    <glyph glyph-name="D" unicode="D" horiz-adv-x="809" 
d="M774 366c0 -245 -175 -366 -427 -366h-315c-4 19 -7 39 -7 64l45 13c22 6 37 12 38 40l4 166v266c0 47 -25 69 -51 81l-35 17c0 19 -1 41 4 60h311c242 0 433 -70 433 -341zM594 343c0 160 -87 272 -256 272h-54v-334l6 -190h68c161 0 236 105 236 252z" />
    <glyph glyph-name="E" unicode="E" horiz-adv-x="672" 
d="M642 175l-28 -175h-587c-5 24 -6 46 -5 65l42 10c23 5 45 15 45 34l3 174v278c0 44 -15 50 -31 57l-55 25v31c0 13 0 23 4 33h576v-167c-16 -4 -53 -6 -70 -6c-14 66 -44 78 -84 78l-169 4v-215l271 5v-102l-271 5v-28l4 -191l129 5c70 3 126 17 155 96z" />
    <glyph glyph-name="F" unicode="F" horiz-adv-x="626" 
d="M606 542c-26 -6 -43 -7 -70 -7c-12 63 -49 77 -88 77l-165 4v-237l271 5v-102l-271 5v-8l3 -144c1 -24 3 -41 22 -45l111 -22c0 -24 0 -42 -8 -68h-384c-4 18 -5 43 -5 63l53 15c18 5 33 25 33 49l4 156v284c0 25 -7 42 -32 53l-52 20c0 17 0 48 3 67h575v-165z" />
    <glyph glyph-name="G" unicode="G" horiz-adv-x="755" 
d="M440 -7c-253 0 -405 111 -405 356c0 206 178 370 401 370c109 0 142 -11 237 -47v-174c-17 -2 -35 -2 -64 1c-30 77 -90 120 -177 120c-125 0 -219 -78 -219 -270c0 -175 125 -238 276 -243h17v191h171v-259c-81 -32 -138 -45 -237 -45z" />
    <glyph glyph-name="H" unicode="H" horiz-adv-x="882" 
d="M850 56c0 -29 -2 -41 -7 -56h-341c-3 14 -5 29 -5 56l64 25c17 7 28 20 28 42l2 159v27h-310v-28l3 -166c0 -30 10 -37 45 -45l56 -13c0 -24 -3 -44 -7 -57h-341c-3 16 -5 35 -5 57l45 18c28 11 33 14 33 50l1 157v313c0 29 -10 35 -34 44l-39 15c0 22 -1 33 5 53h313
c5 -18 5 -32 5 -52l-47 -16c-21 -7 -33 -23 -33 -57v-182h310v194c0 34 -13 40 -34 46l-46 14c-3 22 -3 35 1 53h318c4 -20 3 -38 3 -52l-43 -17c-17 -7 -29 -17 -29 -44v-313l3 -150c0 -33 6 -47 23 -53z" />
    <glyph glyph-name="I" unicode="I" horiz-adv-x="394" 
d="M369 68c0 -24 0 -42 -7 -68h-334c-3 12 -4 21 -4 31c0 9 1 19 1 30l36 10c20 7 47 24 48 56l3 154v291c0 33 -32 50 -51 58l-36 16c0 11 -1 20 -1 29s1 19 4 32h338c2 -26 1 -49 -3 -68l-44 -11c-29 -8 -36 -35 -36 -54v-293l2 -169c1 -19 5 -24 23 -30z" />
    <glyph glyph-name="J" unicode="J" horiz-adv-x="398" 
d="M368 643l-47 -12c-31 -8 -38 -15 -38 -44v-489c0 -148 -149 -227 -260 -274l-50 91c117 72 138 91 138 231v411c0 27 -16 63 -48 74l-44 15c0 23 1 50 4 61h342c3 -15 4 -51 3 -64z" />
    <glyph glyph-name="K" unicode="K" horiz-adv-x="768" 
d="M751 -12c-44 0 -179 8 -255 94l-213 239v-40l2 -169c1 -19 4 -26 23 -30l61 -14c0 -24 0 -42 -7 -68h-334c-4 22 -3 39 -3 61l36 10c20 7 47 24 48 56l3 154v291c0 33 -32 50 -51 58l-36 16c0 22 -1 38 4 61h337c2 -26 1 -49 -3 -68l-44 -11c-29 -7 -36 -35 -36 -54v-208
l198 189c10 9 15 21 15 32c0 19 -8 36 -20 42l-28 15c0 23 -1 38 5 63h283v-49l-308 -268l145 -148c61 -63 124 -125 195 -174z" />
    <glyph glyph-name="L" unicode="L" horiz-adv-x="643" 
d="M632 220l-40 -220h-565c-3 18 -3 39 -3 61l36 10c20 7 47 24 48 56l3 154v291c0 33 -32 50 -51 58l-36 16c0 22 0 41 4 61h337c0 -26 0 -49 -4 -68l-43 -11c-29 -8 -36 -35 -36 -54v-293l3 -191l146 12c57 4 107 87 125 133z" />
    <glyph glyph-name="M" unicode="M" horiz-adv-x="1094" 
d="M1084 56c0 -9 -1 -45 -4 -56h-342c-2 15 -4 41 -4 54l25 9c41 15 50 76 45 114l-40 257l-15 105h-5l-159 -521l-147 -41l-166 566h-6l-13 -100l-51 -324c-3 -18 0 -29 11 -32l84 -30c0 -9 0 -46 -4 -57h-279c-3 15 -5 41 -4 54l36 18c28 14 47 47 53 78l86 429
c5 23 -8 39 -27 45l-65 20c0 9 1 52 4 63h310l99 -347l31 -121h9l36 124l108 344h295c3 -15 5 -49 4 -62l-49 -11c-24 -5 -45 -28 -36 -72l93 -449c5 -22 15 -29 32 -35z" />
    <glyph glyph-name="N" unicode="N" horiz-adv-x="856" 
d="M831 656l-49 -27c-22 -12 -41 -40 -41 -69v-550l-131 -40l-384 520h-7l4 -80v-137l3 -151c0 -24 2 -32 24 -38l85 -24c0 -9 -1 -49 -5 -60h-301c-3 15 -5 46 -4 59l48 13c31 8 47 57 48 89l2 112v299c0 22 -13 42 -29 51l-61 31c0 9 -1 42 2 53h232l373 -492h7l-6 105
v239c0 25 -17 54 -37 64l-63 31c0 9 0 42 4 53h282c2 -15 4 -38 4 -51z" />
    <glyph glyph-name="O" unicode="O" horiz-adv-x="838" 
d="M803 383c0 -214 -152 -395 -402 -395c-244 0 -366 119 -366 331c0 222 166 399 405 399c253 0 363 -131 363 -335zM613 354c0 141 -51 259 -192 259c-149 0 -196 -118 -196 -257c0 -138 46 -261 189 -261c155 0 199 117 199 259z" />
    <glyph glyph-name="P" unicode="P" horiz-adv-x="729" 
d="M711 501c0 -144 -116 -251 -290 -251h-80v78l35 1c110 3 146 64 146 148c0 79 -44 137 -155 140l-84 2v-346l4 -151c0 -20 3 -32 21 -35l102 -21c0 -9 0 -55 -4 -66h-380c-2 15 -4 49 -3 62l48 11c23 5 38 35 39 62l3 138v306c0 16 -8 33 -24 40l-65 26c-1 8 0 49 5 62
h432c141 0 250 -58 250 -206z" />
    <glyph glyph-name="Q" unicode="Q" horiz-adv-x="838" 
d="M733 -200c-41 0 -81 16 -125 49l-176 140l-31 -1c-244 0 -366 119 -366 331c0 222 166 399 405 399c253 0 363 -131 363 -335c0 -165 -90 -309 -244 -368l97 -53c33 -22 67 -34 105 -34c13 0 63 4 112 16l18 -87c-49 -41 -112 -57 -158 -57zM414 95
c155 0 199 117 199 259c0 141 -51 259 -192 259c-149 0 -196 -118 -196 -257c0 -138 46 -261 189 -261z" />
    <glyph glyph-name="R" unicode="R" horiz-adv-x="790" 
d="M802 55l-5 -79c-17 -2 -34 -3 -51 -3c-71 0 -140 17 -208 74c-59 49 -111 139 -153 234l-21 -1h-79l3 -158c0 -20 4 -30 21 -35l62 -21c0 -9 0 -55 -4 -66h-340c-2 15 -4 49 -3 62l48 11c23 5 38 35 39 62l3 138v306c0 16 -8 33 -24 40l-65 26c-1 8 0 49 5 62h392
c141 0 270 -55 270 -203c0 -70 -42 -144 -123 -187c22 -46 53 -106 93 -158c39 -51 85 -93 140 -104zM502 487c0 87 -55 132 -174 132h-44v-257l73 1c106 1 145 37 145 124z" />
    <glyph glyph-name="S" unicode="S" horiz-adv-x="638" 
d="M603 217c0 -163 -170 -228 -309 -228c-81 0 -189 17 -259 60l19 181h72c8 -98 90 -150 183 -150c39 0 117 15 117 67c0 40 -59 66 -130 98c-103 46 -230 103 -230 234c0 129 140 235 263 235c83 0 173 -18 241 -51v-155h-65c-20 80 -97 111 -173 111
c-54 0 -107 -17 -107 -80c0 -43 75 -71 158 -107c104 -45 220 -101 220 -215z" />
    <glyph glyph-name="T" unicode="T" horiz-adv-x="712" 
d="M708 707v-198c-13 -3 -58 -6 -65 -3c-12 62 -39 99 -94 103l-108 7v-343l5 -152c0 -23 2 -32 21 -36l85 -18c0 -9 -1 -56 -4 -67h-382c-3 15 -5 54 -4 67l64 19c23 7 40 42 41 69l3 118v343l-117 -7c-49 -3 -72 -45 -83 -103c-8 -3 -53 -1 -66 3v198h704z" />
    <glyph glyph-name="U" unicode="U" horiz-adv-x="838" 
d="M818 644l-50 -16c-13 -5 -27 -10 -27 -40v-317c0 -226 -190 -280 -315 -280c-137 0 -324 16 -324 253v329c0 22 -12 45 -29 52l-53 21c0 9 1 50 4 61h347c3 -15 3 -53 2 -66l-67 -12c-20 -4 -26 -13 -26 -32v-326c0 -156 107 -180 186 -180c73 0 150 34 150 204v270
c0 24 -10 55 -56 68l-43 13c0 9 -2 50 1 61h296c3 -15 5 -50 4 -63z" />
    <glyph glyph-name="V" unicode="V" horiz-adv-x="781" 
d="M776 647l-25 -16c-16 -11 -29 -25 -38 -45l-263 -576l-127 -37l-246 615c-10 23 -15 32 -34 46l-20 14c0 23 1 39 6 59h326c7 -22 9 -43 9 -65c-13 -5 -53 -15 -53 -15c-24 -7 -34 -25 -34 -46c0 -12 3 -25 8 -38l138 -352l155 343c6 14 9 26 9 36c0 30 -22 44 -38 51
l-52 21c0 19 -2 41 6 65h268c6 -20 5 -37 5 -60z" />
    <glyph glyph-name="W" unicode="W" horiz-adv-x="1091" 
d="M1114 647l-18 -12c-17 -12 -28 -27 -38 -49l-239 -578l-125 -35l-148 404l-173 -368l-124 -36l-181 615c-4 14 -15 29 -32 40l-30 20c0 24 -1 39 5 59h322c1 -12 2 -23 2 -34s-1 -21 -1 -31l-45 -15c-24 -8 -32 -24 -32 -45c0 -12 3 -25 7 -39l94 -351l143 308l-20 57
l-11 32c-8 22 -18 40 -30 59c0 24 -1 40 2 59h284c5 -11 6 -18 6 -28c0 -9 -1 -20 -1 -37c-13 -5 -28 -15 -28 -15c-23 -13 -32 -28 -32 -49c0 -10 2 -22 6 -35l120 -351l133 342c6 15 8 28 8 39c0 31 -18 50 -34 56l-35 13c0 19 -2 41 6 65h234c6 -20 5 -37 5 -60z" />
    <glyph glyph-name="X" unicode="X" horiz-adv-x="739" 
d="M729 54c0 -9 -1 -43 -5 -54h-319c-2 15 -4 41 -3 54l34 23c19 12 18 30 3 52l-92 131l-107 -124c-17 -19 -17 -46 -1 -55l52 -27c0 -9 -1 -43 -5 -54h-272c-3 15 -5 41 -4 54l23 18c32 24 55 48 81 78l170 194l-179 223c-28 35 -53 62 -75 85c-3 16 -3 40 -2 55h297
c2 -15 4 -42 3 -55l-34 -18c-12 -7 -17 -25 0 -48l91 -125l104 119c15 17 13 43 -1 51l-38 22c0 9 -1 43 3 54h255c2 -15 -1 -41 -2 -54c-42 -20 -58 -44 -86 -77l-170 -196l191 -235c45 -56 45 -49 88 -91z" />
    <glyph glyph-name="Y" unicode="Y" horiz-adv-x="723" 
d="M718 647c-26 -17 -44 -35 -63 -61l-210 -306l3 -168c0 -19 4 -26 23 -30l60 -14c0 -24 1 -42 -7 -68h-333c-6 24 -4 39 -4 61l36 10c21 7 48 24 48 56l3 141l-215 320c-20 28 -36 45 -54 60c-2 17 -3 39 2 59h320c4 -16 4 -39 4 -65l-38 -15c-24 -10 -37 -29 -37 -50
c0 -11 3 -23 11 -34l131 -194l122 185c9 13 12 25 12 35c0 28 -26 45 -41 52l-42 21c-2 20 -2 39 3 65h261c6 -20 5 -37 5 -60z" />
    <glyph glyph-name="Z" unicode="Z" horiz-adv-x="650" 
d="M640 219l-27 -219h-558l-28 82l361 527l-210 -5c-22 -3 -38 -45 -51 -109c-18 -2 -29 -4 -40 -4c-12 0 -23 2 -41 5v211h558l20 -60l-375 -549l214 13c52 6 80 66 101 124z" />
    <glyph glyph-name="bracketleft" unicode="[" horiz-adv-x="347" 
d="M273 -220h-194v1044h194v-89h-94v-866h94v-89z" />
    <glyph glyph-name="backslash" unicode="\" horiz-adv-x="387" 
d="M260 -62l-235 831h101l236 -831h-102z" />
    <glyph glyph-name="bracketright" unicode="]" horiz-adv-x="347" 
d="M268 -220h-194v89h94v866h-94v89h194v-1044z" />
    <glyph glyph-name="asciicircum" unicode="^" horiz-adv-x="542" 
d="M497 294h-105l-115 312l-127 -312h-101l172 413h113z" />
    <glyph glyph-name="underscore" unicode="_" horiz-adv-x="500" 
d="M500 -164h-500v86h500v-86z" />
    <glyph glyph-name="grave" unicode="`" horiz-adv-x="568" 
d="M135 765l75 94c77 -74 141 -129 236 -192l-37 -58c-99 38 -177 88 -274 156z" />
    <glyph glyph-name="a" unicode="a" horiz-adv-x="602" 
d="M582 55c-41 -38 -92 -64 -133 -64c-76 0 -105 18 -111 88c-34 -37 -96 -88 -164 -88c-91 0 -149 39 -149 126c0 127 110 165 220 180c31 4 62 7 90 10v63c0 40 -16 55 -98 55c-34 0 -81 -5 -149 -21l-29 120c74 27 141 38 205 38c89 1 237 -3 237 -156v-132l7 -173h68z
M335 130v101c-16 -2 -35 -3 -54 -6c-54 -8 -90 -24 -90 -66c0 -28 19 -45 52 -45c30 0 65 6 92 16z" />
    <glyph glyph-name="b" unicode="b" horiz-adv-x="664" 
d="M634 294c0 -174 -132 -303 -310 -303c-126 0 -178 13 -234 29l6 264v384h-86v69c67 14 133 27 195 27c46 0 57 -11 57 -59v-422l4 -181c14 -2 32 -5 61 -5c86 0 129 86 129 190c0 103 -30 168 -110 168c-13 0 -30 -1 -44 -3l-14 82c14 6 59 22 92 22
c165 0 254 -53 254 -262z" />
    <glyph glyph-name="c" unicode="c" horiz-adv-x="543" 
d="M527 462c0 -53 -18 -81 -65 -101c-37 43 -101 104 -135 104c-74 0 -126 -41 -126 -190c0 -93 63 -159 152 -159c40 0 80 6 136 16l27 -86c-77 -42 -132 -60 -210 -60c-198 0 -276 86 -276 292c0 134 108 283 296 283c101 0 201 -32 201 -99z" />
    <glyph glyph-name="d" unicode="d" horiz-adv-x="669" 
d="M649 44c-54 -29 -95 -52 -182 -52c-52 0 -72 44 -72 82c-31 -34 -75 -81 -143 -81c-111 0 -222 41 -222 260c0 183 130 297 297 297c30 0 52 0 71 -1v119h-87v76c66 12 145 20 194 20c45 0 60 -10 60 -59v-422l3 -182h68zM398 284v175c-19 4 -43 8 -74 8
c-86 0 -119 -76 -119 -192c0 -96 36 -154 108 -154c30 0 55 5 81 12z" />
    <glyph glyph-name="e" unicode="e" horiz-adv-x="588" 
d="M562 251h-358c5 -100 68 -132 155 -132c36 0 91 2 165 18l28 -88c-70 -38 -154 -62 -218 -62c-187 0 -304 53 -304 273c0 143 109 301 286 301c181 0 246 -120 246 -261v-49zM388 324c0 84 -22 149 -90 149c-66 0 -99 -78 -99 -149h189z" />
    <glyph glyph-name="f" unicode="f" horiz-adv-x="431" 
d="M523 688c0 -57 -43 -83 -75 -98c-32 46 -68 91 -90 91c-49 0 -90 -34 -90 -87v-48h119v-80h-119v-182l4 -154c0 -30 19 -43 45 -48l100 -19c0 -17 -3 -40 -9 -63h-382c-5 23 -4 42 -4 61c11 4 48 13 48 13c24 7 27 36 28 60l2 150v182h-80v62l80 18v15
c0 112 131 207 242 207c107 0 181 -18 181 -80z" />
    <glyph glyph-name="g" unicode="g" horiz-adv-x="613" 
d="M608 441h-100c6 -17 9 -36 9 -58c0 -120 -101 -186 -242 -186c-39 0 -78 4 -113 14v-80h182c182 0 231 -36 231 -143c0 -136 -157 -211 -330 -211c-110 0 -225 23 -225 121c0 51 45 96 84 110c-28 0 -62 17 -62 68c0 38 31 100 70 156c-45 25 -75 66 -75 129
c0 114 85 198 235 198c68 0 135 -13 181 -46l155 39v-111zM349 378c0 57 -24 98 -78 98c-63 0 -79 -51 -79 -108c0 -51 18 -93 79 -93c56 0 78 42 78 103zM414 -48c0 27 -13 48 -60 48h-188c-10 -11 -21 -26 -21 -48c0 -41 46 -79 162 -79c77 0 107 33 107 79z" />
    <glyph glyph-name="h" unicode="h" horiz-adv-x="722" 
d="M702 61c0 -37 -2 -45 -8 -61h-285c-4 21 -6 35 -4 61l35 16c17 8 19 21 19 36l2 161v52c0 60 -1 117 -73 117c-43 0 -93 -6 -123 -17v-152l2 -147c0 -20 3 -38 16 -45l36 -19c0 -35 -1 -43 -6 -63h-287c-6 24 -4 31 -4 59l49 16c19 6 24 14 24 39l3 160v397h-78v74
c66 14 153 21 202 21c29 0 39 -12 39 -35v-239c38 29 94 67 180 67c185 0 187 -76 187 -179v-106l3 -165c1 -18 3 -29 14 -32z" />
    <glyph glyph-name="i" unicode="i" horiz-adv-x="377" 
d="M24 0c-3 13 -4 35 -4 63l59 17c19 5 24 15 24 39l3 155v189h-86v75c66 14 152 21 201 21c33 0 53 -8 53 -48v-237l1 -147c1 -31 6 -42 16 -45l66 -19c0 -26 -1 -43 -6 -63h-327zM185 633c-21 0 -96 78 -96 97c0 23 76 97 96 97c18 0 98 -77 98 -97c0 -15 -76 -97 -98 -97
z" />
    <glyph glyph-name="j" unicode="j" horiz-adv-x="371" 
d="M27 -225c-38 0 -78 7 -108 23l48 133c34 -18 51 -24 84 -24c31 0 56 18 56 83v473h-83v75c66 14 149 21 198 21c33 0 52 -8 52 -48v-237l-1 -200c-1 -148 -154 -299 -246 -299zM189 633c-21 0 -96 78 -96 97c0 23 76 97 96 97c18 0 98 -77 98 -97c0 -15 -76 -97 -98 -97z
" />
    <glyph glyph-name="k" unicode="k" horiz-adv-x="660" 
d="M659 64l-22 -85c-141 11 -208 57 -276 151l-87 121l1 -124c1 -20 5 -35 16 -45l25 -23c0 -35 -1 -39 -6 -59h-286c-6 24 -4 31 -4 59l59 16c20 5 24 14 24 39l3 160v394h-83v75c66 14 149 21 198 21c33 0 53 -8 53 -48v-415l145 127c10 8 14 13 14 26c0 11 -7 20 -16 24
l-33 17c0 18 0 34 5 51h231v-54l-209 -166l98 -121c57 -69 100 -122 150 -141z" />
    <glyph glyph-name="l" unicode="l" horiz-adv-x="382" 
d="M366 63c0 -35 -1 -43 -6 -63h-327c-6 24 -4 31 -4 59l59 16c19 5 24 14 24 39l3 160v394h-83v75c52 13 149 21 198 21c33 0 53 -8 53 -48v-442l1 -147c1 -20 2 -41 16 -45z" />
    <glyph glyph-name="m" unicode="m" horiz-adv-x="1083" 
d="M1063 61c0 -37 -2 -45 -8 -61h-285c-4 21 -6 35 -4 61l35 16c17 8 19 21 19 36l3 161v52c0 60 -2 117 -73 117c-43 0 -95 -6 -124 -16l1 -47v-106l2 -165c1 -18 3 -29 14 -32l57 -16c0 -37 -2 -45 -8 -61h-285c-4 21 -6 35 -4 61l35 16c17 8 19 21 19 36l3 161v52
c0 60 -2 117 -73 117c-44 0 -94 -7 -123 -18v-151l1 -147c1 -20 2 -40 16 -45l52 -19c0 -35 -1 -43 -6 -63h-303c-6 24 -4 31 -4 59l49 16c19 6 24 14 24 39l3 160v190h-75v74c66 14 150 21 199 21c29 0 39 -12 39 -35v-33c38 29 94 68 180 68c112 0 157 -28 175 -72
c39 29 100 72 188 72c185 0 188 -76 188 -179v-106l2 -165c1 -18 3 -29 14 -32z" />
    <glyph glyph-name="n" unicode="n" horiz-adv-x="722" 
d="M702 61c0 -37 -2 -45 -8 -61h-285c-4 21 -6 35 -4 61l35 16c17 8 19 21 19 36l2 161v51c0 60 -1 117 -73 117c-43 0 -93 -6 -123 -17v-151l2 -147c0 -20 2 -39 16 -45l46 -19c0 -35 -1 -43 -6 -63h-297c-2 15 -3 39 -3 59l48 16c19 6 24 14 24 39l3 160v190h-78v74
c66 14 153 21 202 21c29 0 39 -12 39 -35v-33c38 29 94 67 180 67c185 0 187 -76 187 -179v-105l3 -165c1 -18 3 -29 14 -32z" />
    <glyph glyph-name="o" unicode="o" horiz-adv-x="633" 
d="M603 280c0 -144 -124 -293 -293 -293c-175 0 -280 91 -280 278c0 144 126 296 289 296c189 0 284 -97 284 -281zM425 270c0 89 -20 192 -117 192c-96 0 -102 -111 -102 -183c0 -94 25 -191 120 -191c79 0 99 83 99 182z" />
    <glyph glyph-name="p" unicode="p" horiz-adv-x="674" 
d="M644 280c0 -229 -154 -288 -309 -288c-22 0 -39 0 -53 1l2 -90c0 -33 16 -34 41 -40l70 -16c0 -25 3 -34 -6 -67h-364c-8 28 -5 44 -5 63l38 12c35 10 45 38 45 60l4 353v195h-84v72c45 11 127 24 202 24c28 0 44 -16 44 -44v-17c37 38 88 59 133 59
c140 0 242 -48 242 -277zM467 262c0 118 -37 191 -108 191c-31 0 -64 -7 -84 -13v-174l4 -187c14 -3 30 -7 61 -7c87 0 127 87 127 190z" />
    <glyph glyph-name="q" unicode="q" horiz-adv-x="662" 
d="M642 -155c0 -25 0 -41 -5 -65h-336c-4 23 -3 44 -3 63l51 12c36 8 39 38 40 60l4 158c-33 -34 -76 -79 -141 -79c-117 0 -222 50 -222 269c0 183 130 296 297 296c93 0 166 -10 238 -34v-338l6 -297c3 -22 14 -28 35 -35zM398 274v184c-19 5 -43 10 -74 10
c-91 0 -119 -84 -119 -208c0 -100 38 -144 108 -144c30 0 57 8 81 17z" />
    <glyph glyph-name="r" unicode="r" horiz-adv-x="526" 
d="M522 526l-54 -138c-39 23 -76 29 -103 29c-43 0 -75 -9 -92 -18v-124l3 -150c1 -18 4 -22 13 -24l130 -30c0 -28 -1 -54 -8 -71h-386c-8 43 -5 46 -5 62l43 12c29 9 40 10 41 45l2 156v189h-83v74c57 11 134 21 196 21c22 0 50 -7 50 -40v-38c27 35 75 76 137 76
c51 0 86 -12 116 -31z" />
    <glyph glyph-name="s" unicode="s" horiz-adv-x="528" 
d="M493 175c0 -142 -143 -188 -247 -188c-86 0 -146 17 -216 48l10 143h59c14 -75 75 -100 145 -100c55 0 78 14 78 45c0 36 -54 52 -114 78c-72 31 -151 74 -151 178c0 122 108 179 223 179c57 0 123 -10 204 -45l-19 -143l-58 6c-13 45 -32 91 -136 91
c-48 0 -63 -23 -63 -46c0 -30 55 -48 117 -74c79 -33 168 -77 168 -172z" />
    <glyph glyph-name="t" unicode="t" horiz-adv-x="494" 
d="M453 140l20 -74c-49 -40 -118 -77 -230 -77c-101 0 -147 45 -146 179l3 278h-80v63l211 149h39v-112h183v-100h-183v-168l4 -107c1 -29 22 -46 69 -46c30 0 67 5 110 15z" />
    <glyph glyph-name="u" unicode="u" horiz-adv-x="722" 
d="M691 101l11 -69c-46 -23 -92 -39 -155 -39c-60 0 -89 25 -91 82c-55 -50 -118 -85 -181 -85c-173 0 -173 83 -173 177v297h-82v67c65 14 121 28 171 28c48 0 78 -22 78 -67v-301c0 -55 13 -80 51 -80c39 0 93 12 128 24l4 138v191h-71v67c54 17 109 28 159 28
c46 0 79 -21 79 -67v-220l6 -171h66z" />
    <glyph glyph-name="v" unicode="v" horiz-adv-x="589" 
d="M229 -31l-163 450c-11 30 -18 37 -41 55c0 27 -1 37 6 72h258v-80h-61l98 -298l106 247c7 15 -2 37 -11 43c-12 10 -32 12 -40 14c-1 6 -2 19 -2 33s1 29 5 41h198l-1 -65c-18 -20 -34 -49 -52 -89l-176 -386z" />
    <glyph glyph-name="w" unicode="w" horiz-adv-x="869" 
d="M543 -25l-123 321l-112 -293l-131 -28l-124 444c-9 31 -17 37 -38 55c0 27 -1 37 6 72h255v-80h-61l63 -303l117 364l113 28l130 -392l68 252c4 16 -3 39 -23 47l-28 10c-1 6 -2 19 -2 33s1 29 5 41h194l-1 -65c-13 -15 -33 -43 -48 -89l-137 -392z" />
    <glyph glyph-name="x" unicode="x" horiz-adv-x="584" 
d="M574 71c0 -22 -1 -48 -9 -71h-249c-5 20 -7 46 -7 62l9 4c9 4 15 12 15 25c0 7 -4 15 -10 23l-65 81l-71 -102c-2 -3 -3 -5 -3 -7c0 -3 3 -6 8 -7l52 -15c0 -20 -3 -47 -10 -64h-217c-5 23 -7 43 -7 63c0 0 31 18 48 36l148 157l-120 147c-31 37 -43 52 -74 71
c-1 10 -2 22 -2 35c0 12 1 25 4 37h266v-80h-48l98 -120l65 79c6 7 9 14 9 22s-4 16 -12 22l-17 12c0 19 1 43 6 65h189c0 -24 0 -37 -4 -58c0 0 -29 -24 -46 -42l-147 -154l163 -183c16 -18 21 -23 38 -38z" />
    <glyph glyph-name="y" unicode="y" horiz-adv-x="589" 
d="M584 546c0 -25 -5 -65 -5 -65c-23 -16 -39 -49 -56 -89l-224 -516c-28 -65 -89 -96 -139 -114l-93 139c36 10 74 24 100 37c30 15 46 28 55 40l-149 441c-10 30 -33 38 -68 55c0 27 -1 37 6 72h285v-80h-61l93 -323l98 272c6 16 -2 37 -11 43c-12 10 -32 12 -40 14
c-1 6 -2 19 -2 33s1 29 5 41h206z" />
    <glyph glyph-name="z" unicode="z" horiz-adv-x="554" 
d="M540 181l-37 -181h-460l-29 72l330 352h-206c-29 0 -49 -39 -69 -68c-23 8 -34 12 -45 21l45 169h426v-101l-301 -321h191c41 0 89 46 103 73c34 -6 52 -16 52 -16z" />
    <glyph glyph-name="braceleft" unicode="{" horiz-adv-x="413" 
d="M351 -220h-33c-105 0 -225 33 -209 177l20 214c4 35 -22 80 -89 80v94c65 0 95 76 91 114l-19 191c-14 146 99 172 207 172h34l-1 -81h-36c-75 0 -119 -32 -112 -93l19 -177c8 -74 -24 -148 -68 -169c44 -22 74 -66 66 -140l-20 -207c-7 -56 40 -87 114 -87h35z" />
    <glyph glyph-name="bar" unicode="|" horiz-adv-x="307" 
d="M207 -220h-107v974h107v-974z" />
    <glyph glyph-name="braceright" unicode="}" horiz-adv-x="412" 
d="M373 251c-67 0 -93 -45 -89 -80l20 -214c16 -144 -104 -177 -209 -177h-33l1 88h35c74 0 121 31 114 87l-20 207c-8 74 22 118 66 140c-44 21 -76 95 -68 169l19 177c7 61 -37 93 -112 93h-36l-1 81h34c108 0 221 -26 207 -172l-19 -191c-4 -38 26 -114 91 -114v-94z" />
    <glyph glyph-name="asciitilde" unicode="~" horiz-adv-x="537" 
d="M505 373c-25 -46 -80 -103 -131 -103c-101 0 -142 53 -218 53c-43 0 -70 -13 -90 -26l-41 37c18 35 82 105 137 105c101 0 126 -54 212 -54c33 0 59 6 88 29z" />
    <glyph glyph-name="uni00A0" unicode="&#xa0;" horiz-adv-x="280" 
 />
    <glyph glyph-name="exclamdown" unicode="&#xa1;" horiz-adv-x="277" 
d="M237 511c0 -23 -75 -95 -94 -95c-21 0 -96 73 -96 95c0 20 76 95 96 95s94 -74 94 -95zM233 -149l-94 -48l-95 48l37 484h115z" />
    <glyph glyph-name="cent" unicode="&#xa2;" horiz-adv-x="543" 
d="M527 462c0 -61 -18 -81 -65 -102c-37 44 -101 105 -135 105c-74 0 -126 -41 -126 -190c0 -93 63 -155 152 -155c40 0 80 2 136 12l27 -86c-60 -33 -106 -49 -161 -54v-159h-61v157c-189 3 -264 86 -264 287c0 127 96 265 264 280v147h61v-146c90 -5 172 -36 172 -96z" />
    <glyph glyph-name="sterling" unicode="&#xa3;" horiz-adv-x="582" 
d="M552 78c-12 -37 -56 -78 -111 -78h-423c-3 17 -3 36 -3 60l29 9c44 15 51 34 54 72l15 142h-76v70h84l5 51c11 111 140 207 251 207c100 0 155 -18 155 -80c0 -35 -30 -67 -62 -82c-23 24 -59 75 -82 75c-49 0 -89 -34 -94 -87l-8 -84h145v-70h-152l-17 -170l193 12
c17 1 27 5 37 15z" />
    <glyph glyph-name="currency" unicode="&#xa4;" horiz-adv-x="516" 
d="M89 122l-61 59l58 58c-27 30 -44 69 -44 113c0 45 16 83 43 113l-57 57l60 60l68 -68c30 13 65 21 102 21s72 -8 103 -21l67 68l61 -60l-58 -58c26 -29 42 -68 42 -112s-16 -82 -43 -112l59 -58l-61 -60l-68 68c-31 -13 -65 -20 -102 -20s-71 7 -101 20zM258 289
c49 0 63 31 63 63s-16 64 -63 64s-64 -31 -64 -64c0 -31 18 -63 64 -63z" />
    <glyph glyph-name="yen" unicode="&#xa5;" horiz-adv-x="662" 
d="M645 529l-27 -68c-30 -4 -42 -9 -46 -14c-26 -31 -53 -66 -78 -99h116v-63h-161c-17 -23 -32 -44 -44 -63v-22h205v-63h-205v-11l11 -126h-192l11 128v9h-189v63h189v14c-12 21 -27 46 -44 71h-145v63h102c-20 28 -41 55 -61 81c-13 17 -26 24 -64 34l-6 68
c61 17 138 28 183 28c33 -37 115 -182 155 -262c45 73 115 199 164 264c35 -2 70 -10 126 -32z" />
    <glyph glyph-name="brokenbar" unicode="&#xa6;" horiz-adv-x="307" 
d="M200 392h-113v362h113v-362zM200 -220h-113v361h113v-361z" />
    <glyph glyph-name="section" unicode="&#xa7;" horiz-adv-x="588" 
d="M538 544c0 -32 -22 -63 -34 -75c-28 21 -57 50 -76 50c-25 0 -53 -9 -53 -48c0 -45 98 -250 98 -312c0 -113 -121 -247 -308 -247c-54 0 -115 22 -115 71c0 30 14 52 34 64c4 -3 64 -48 77 -48c31 0 34 50 34 72c0 51 -90 217 -90 297c0 126 138 244 320 244
c47 0 113 -7 113 -68zM363 127c0 51 -104 257 -104 329c0 14 0 37 7 51l-3 3c-33 -22 -53 -54 -53 -96c0 -52 109 -267 109 -328c0 -24 0 -47 -19 -87l3 -3c41 34 60 81 60 131z" />
    <glyph glyph-name="dieresis" unicode="&#xa8;" horiz-adv-x="494" 
d="M130 636c-17 0 -79 63 -79 79c0 18 63 80 79 80c17 0 81 -64 81 -80c0 -13 -61 -79 -81 -79zM365 636c-17 0 -79 63 -79 79c0 18 63 80 79 80s81 -64 81 -80c0 -13 -61 -79 -81 -79z" />
    <glyph glyph-name="copyright" unicode="&#xa9;" horiz-adv-x="753" 
d="M685 269c0 -190 -136 -297 -306 -297c-136 0 -311 73 -311 297c0 192 138 302 309 302c148 0 308 -83 308 -302zM617 269c0 168 -117 241 -238 241c-131 0 -241 -68 -241 -236c0 -208 165 -242 247 -242c133 0 232 83 232 237zM504 122c-37 -13 -63 -19 -103 -19
c-128 0 -185 48 -185 172c0 104 76 177 177 177c54 0 72 -8 109 -24v-81c-9 -1 -28 -1 -43 0c-14 32 -36 52 -68 52c-47 0 -65 -33 -65 -119c0 -58 24 -103 80 -103c34 0 50 1 83 8z" />
    <glyph glyph-name="ordfeminine" unicode="&#xaa;" horiz-adv-x="418" 
d="M398 417c-25 -23 -56 -38 -80 -38c-46 0 -73 10 -77 53c-20 -23 -57 -53 -98 -53c-55 0 -90 23 -90 75c0 77 66 99 132 108c19 3 37 5 54 7v28c0 24 -4 32 -58 32c-21 0 -49 -3 -90 -12l-17 82c44 16 84 20 123 20c53 1 152 -5 152 -97v-73l4 -104h41zM380 271h-322v67
h322v-67zM240 462v61c-11 -1 -24 -2 -38 -4c-25 -5 -49 -13 -49 -37c0 -15 11 -29 31 -29c24 0 39 3 56 9z" />
    <glyph glyph-name="guillemotleft" unicode="&#xab;" horiz-adv-x="513" 
d="M466 472c-23 -72 -51 -145 -89 -201c31 -60 62 -135 81 -204c0 0 -48 -10 -80 -18c-23 66 -69 145 -120 223c61 84 104 151 131 217c0 0 41 -8 77 -17zM261 486c-23 -72 -56 -158 -94 -215c31 -61 67 -146 86 -216c0 0 -48 -9 -81 -17c-22 66 -73 156 -124 234
c61 84 109 165 136 231c0 0 41 -8 77 -17z" />
    <glyph glyph-name="logicalnot" unicode="&#xac;" 
d="M540 153h-114v149h-366v100h480v-249z" />
    <glyph glyph-name="registered" unicode="&#xae;" horiz-adv-x="654" 
d="M574 531c0 -147 -109 -229 -245 -229c-109 0 -249 57 -249 229c0 149 110 233 248 233c118 0 246 -63 246 -233zM516 531c0 128 -92 184 -187 184c-103 0 -189 -52 -189 -180c0 -158 129 -184 194 -184c104 0 182 63 182 180zM459 449l-8 -45c-45 2 -66 6 -90 26
c-20 16 -27 38 -44 71h-11l2 -91h-83l2 104v154l105 1c59 0 103 -28 103 -85c0 -29 -14 -54 -41 -70c5 -9 22 -35 30 -43s15 -13 35 -22zM356 584c0 25 -6 41 -37 41h-14v-86h11c34 0 40 21 40 45z" />
    <glyph glyph-name="macron" unicode="&#xaf;" horiz-adv-x="540" 
d="M420 685h-307v89h307v-89z" />
    <glyph glyph-name="macron" unicode="&#x2c9;" horiz-adv-x="540" 
d="M420 685h-307v89h307v-89z" />
    <glyph glyph-name="degree" unicode="&#xb0;" horiz-adv-x="470" 
d="M430 575c0 -99 -93 -174 -198 -174c-111 0 -192 38 -192 142c0 99 95 173 196 173c102 0 194 -41 194 -141zM310 559c0 51 -36 77 -83 77c-43 0 -68 -33 -68 -77c0 -58 35 -79 83 -79c45 0 68 28 68 79z" />
    <glyph glyph-name="plusminus" unicode="&#xb1;" 
d="M540 0h-480v100h480v-100zM355 432l177 2v-100l-177 2l2 -183h-114l2 183l-177 -2v100l177 -2l-2 183h114z" />
    <glyph glyph-name="twosuperior" unicode="&#xb2;" horiz-adv-x="306" 
d="M292 415h-282v75c76 52 157 123 157 162c0 19 -18 33 -41 33c-29 0 -52 -9 -72 -22l-38 80c35 27 69 43 134 43c91 0 139 -57 139 -120c0 -60 -57 -116 -136 -156h139v-95z" />
    <glyph glyph-name="threesuperior" unicode="&#xb3;" horiz-adv-x="305" 
d="M291 529c0 -89 -71 -119 -160 -119c-58 0 -89 8 -119 16l18 88c35 -8 59 -10 90 -10c40 0 50 19 50 38c0 29 -23 39 -82 39v51c60 6 65 20 65 44c-2 13 -13 24 -30 24c-31 0 -51 -4 -77 -16l-25 76c33 17 75 29 113 29c87 0 139 -30 139 -103c0 -28 -15 -58 -42 -71
c35 -14 60 -39 60 -86z" />
    <glyph glyph-name="acute" unicode="&#xb4;" horiz-adv-x="568" 
d="M390 859l75 -94c-97 -68 -175 -118 -274 -156l-37 58c95 63 159 118 236 192z" />
    <glyph glyph-name="mu" unicode="&#xb5;" horiz-adv-x="700" 
d="M70 -220l10 470v296h167v-355c0 -55 13 -80 51 -80c35 0 81 9 116 20l1 143v272h167v-272l5 -131c1 -40 22 -52 49 -52c10 0 22 2 34 4l8 -47c-41 -38 -114 -57 -155 -57c-70 0 -96 23 -105 69c-43 -38 -90 -68 -140 -68c-23 0 -42 0 -56 1c29 -34 30 -50 32 -90l5 -123
h-189z" />
    <glyph glyph-name="paragraph" unicode="&#xb6;" horiz-adv-x="724" 
d="M281 270h-10c-138 0 -222 69 -222 222c0 148 82 215 222 215h10v-437zM624 15c0 -168 -231 -241 -335 -241c-41 0 -125 6 -125 82c0 39 31 70 47 80c14 -11 66 -77 79 -77c49 0 53 53 53 111v30v707h108v-710c0 -56 -7 -95 -37 -129l1 -4c61 14 100 80 100 145v698h109
v-692z" />
    <glyph glyph-name="periodcentered" unicode="&#xb7;" horiz-adv-x="311" 
d="M156 252c-23 0 -106 84 -106 106s82 105 106 105c25 0 105 -83 105 -105s-81 -106 -105 -106z" />
    <glyph glyph-name="cedilla" unicode="&#xb8;" horiz-adv-x="453" 
d="M363 -168c0 -64 -69 -130 -142 -130c-33 0 -68 11 -105 36l43 77c26 -18 64 -29 91 -29c23 0 41 6 41 20c0 35 -65 48 -142 62l62 146h77l-42 -76c78 -19 117 -45 117 -106z" />
    <glyph glyph-name="onesuperior" unicode="&#xb9;" horiz-adv-x="240" 
d="M204 415h-121v271h-73v93l194 5v-369z" />
    <glyph glyph-name="ordmasculine" unicode="&#xba;" horiz-adv-x="418" 
d="M391 549c0 -87 -75 -174 -176 -174c-106 0 -169 52 -169 165c0 87 75 177 174 177c114 0 171 -57 171 -168zM380 271h-322v67h322v-67zM279 543c0 54 -7 116 -65 116c-59 0 -57 -67 -57 -110c0 -57 10 -115 67 -115c48 0 55 49 55 109z" />
    <glyph glyph-name="guillemotright" unicode="&#xbb;" horiz-adv-x="513" 
d="M465 272c-51 -78 -102 -168 -124 -234c-33 8 -81 17 -81 17c19 69 55 155 86 216c-38 57 -71 143 -94 215c36 9 77 17 77 17c27 -66 75 -147 136 -231zM255 272c-51 -78 -97 -157 -119 -223c-33 8 -81 18 -81 18c19 68 50 144 81 204c-38 56 -65 129 -89 201
c36 9 78 17 78 17c26 -66 69 -133 130 -217z" />
    <glyph glyph-name="onequarter" unicode="&#xbc;" horiz-adv-x="797" 
d="M655 587l-544 -545l-57 62l543 543zM234 415h-121v271h-73v93l194 5v-369zM757 79h-50v-79h-108v79h-157v86l101 204h164v-206h50v-84zM599 163v143l-78 -143h78z" />
    <glyph glyph-name="onehalf" unicode="&#xbd;" horiz-adv-x="782" 
d="M234 415h-121v271h-73v93l194 5v-369zM645 587l-544 -545l-57 62l543 543zM742 0h-282v75c76 52 157 123 157 162c0 19 -18 33 -41 33c-29 0 -52 -9 -72 -22l-38 80c35 27 69 45 134 45c91 0 139 -59 139 -122c0 -60 -57 -116 -136 -156h139v-95z" />
    <glyph glyph-name="threequarters" unicode="&#xbe;" horiz-adv-x="795" 
d="M663 587l-544 -545l-57 62l543 543zM319 529c0 -89 -71 -119 -160 -119c-58 0 -89 8 -119 16l18 88c35 -8 59 -10 90 -10c40 0 50 19 50 38c0 29 -23 39 -82 39v51c60 6 65 20 65 44c-2 13 -13 24 -30 24c-31 0 -51 -4 -77 -16l-25 76c33 17 75 29 113 29
c87 0 139 -30 139 -103c0 -28 -15 -58 -42 -71c35 -14 60 -39 60 -86zM755 79h-50v-79h-108v79h-157v86l101 204h164v-206h50v-84zM597 163v143l-78 -143h78z" />
    <glyph glyph-name="questiondown" unicode="&#xbf;" horiz-adv-x="411" 
d="M363 510c0 -23 -75 -95 -94 -95c-20 0 -96 73 -96 95c0 20 76 95 96 95s94 -74 94 -95zM405 -93c0 -66 -76 -82 -140 -82c-133 0 -243 106 -243 196c0 191 209 208 209 285c0 13 0 11 -6 30l95 22s42 -86 42 -110c0 -117 -206 -176 -206 -253c0 -15 19 -65 84 -65
c52 0 92 24 141 39c18 -27 24 -46 24 -62z" />
    <glyph glyph-name="Agrave" unicode="&#xc0;" horiz-adv-x="777" 
d="M746 59c0 -24 -1 -39 -7 -59h-316c-8 21 -9 37 -9 65l53 19c23 8 33 23 33 43c0 13 -3 23 -8 37l-34 104h-223l-36 -95c-5 -15 -7 -27 -7 -38c0 -34 21 -44 37 -49l72 -21c0 -19 0 -45 -6 -65h-273c-5 17 -5 38 -5 60c23 22 35 32 48 61l246 569l157 33l233 -604
c10 -24 28 -42 45 -60zM431 351l-49 149l-24 86h-6l-28 -83l-57 -152h164zM481 743c-99 19 -230 51 -312 81l47 110c82 -44 196 -85 285 -116z" />
    <glyph glyph-name="Aacute" unicode="&#xc1;" horiz-adv-x="777" 
d="M746 59c0 -24 -1 -39 -7 -59h-316c-8 21 -9 37 -9 65l53 19c23 8 33 23 33 43c0 13 -3 23 -8 37l-34 104h-223l-36 -95c-5 -15 -7 -27 -7 -38c0 -34 21 -44 37 -49l72 -21c0 -19 0 -45 -6 -65h-273c-5 17 -5 38 -5 60c23 22 35 32 48 61l246 569l157 33l233 -604
c10 -24 28 -42 45 -60zM431 351l-49 149l-24 86h-6l-28 -83l-57 -152h164zM297 743l-20 75c89 31 203 72 285 116l47 -110c-82 -30 -213 -62 -312 -81z" />
    <glyph glyph-name="Acircumflex" unicode="&#xc2;" horiz-adv-x="777" 
d="M746 59c0 -24 -1 -39 -7 -59h-316c-8 21 -9 37 -9 65l53 19c23 8 33 23 33 43c0 13 -3 23 -8 37l-34 104h-223l-36 -95c-5 -15 -7 -27 -7 -38c0 -34 21 -44 37 -49l72 -21c0 -19 0 -45 -6 -65h-273c-5 17 -5 38 -5 60c23 22 35 32 48 61l246 569l157 33l233 -604
c10 -24 28 -42 45 -60zM431 351l-49 149l-24 86h-6l-28 -83l-57 -152h164zM228 729l-31 60c78 47 136 85 204 144c55 -44 127 -95 188 -134l-41 -70c-54 21 -121 53 -161 78c-42 -24 -100 -54 -159 -78z" />
    <glyph glyph-name="Atilde" unicode="&#xc3;" horiz-adv-x="777" 
d="M746 59c0 -24 -1 -39 -7 -59h-316c-8 21 -9 37 -9 65l53 19c23 8 33 23 33 43c0 13 -3 23 -8 37l-34 104h-223l-36 -95c-5 -15 -7 -27 -7 -38c0 -34 21 -44 37 -49l72 -21c0 -19 0 -45 -6 -65h-273c-5 17 -5 38 -5 60c23 22 35 32 48 61l246 569l157 33l233 -604
c10 -24 28 -42 45 -60zM431 351l-49 149l-24 86h-6l-28 -83l-57 -152h164zM482 751c-42 0 -155 37 -189 37c-24 0 -45 -9 -65 -23l-29 37c37 45 72 91 128 91c52 0 152 -34 180 -34c38 0 53 8 64 20l31 -33c-28 -49 -57 -95 -120 -95z" />
    <glyph glyph-name="Adieresis" unicode="&#xc4;" horiz-adv-x="777" 
d="M746 59c0 -24 -1 -39 -7 -59h-316c-8 21 -9 37 -9 65l53 19c23 8 33 23 33 43c0 13 -3 23 -8 37l-34 104h-223l-36 -95c-5 -15 -7 -27 -7 -38c0 -34 21 -44 37 -49l72 -21c0 -19 0 -45 -6 -65h-273c-5 17 -5 38 -5 60c23 22 35 32 48 61l246 569l157 33l233 -604
c10 -24 28 -42 45 -60zM431 351l-49 149l-24 86h-6l-28 -83l-57 -152h164zM271 766c-17 0 -79 63 -79 79c0 18 63 80 79 80c17 0 81 -64 81 -80c0 -13 -61 -79 -81 -79zM506 766c-17 0 -79 63 -79 79c0 18 63 80 79 80s81 -64 81 -80c0 -13 -61 -79 -81 -79z" />
    <glyph glyph-name="Aring" unicode="&#xc5;" horiz-adv-x="777" 
d="M22 0c-5 17 -5 38 -5 60c23 22 35 32 48 61l242 559c-29 16 -52 45 -52 95c0 82 66 119 134 119c57 0 135 -24 135 -120c0 -38 -18 -66 -43 -85l220 -570c10 -24 28 -42 45 -60c0 -24 -1 -39 -7 -59h-316c-8 21 -9 37 -9 65l53 19c23 8 33 23 33 43c0 13 -3 23 -8 37
l-34 104h-223l-36 -95c-5 -15 -7 -27 -7 -38c0 -34 21 -44 37 -49l72 -21c0 -19 0 -45 -6 -65h-273zM390 710c41 0 53 25 53 66c0 40 -17 67 -54 67c-41 0 -53 -24 -53 -65c0 -40 16 -68 54 -68zM267 351h164l-49 149l-24 86h-6l-28 -83z" />
    <glyph glyph-name="AE" unicode="&#xc6;" horiz-adv-x="1061" 
d="M1031 175l-27 -175h-597c-5 24 -6 46 -5 65c5 1 42 10 42 10c22 5 44 15 45 34l3 174v16h-202l-72 -126c-8 -14 -11 -26 -11 -36c0 -29 25 -46 41 -51l72 -21c0 -19 1 -41 -7 -65h-298c-6 19 -4 37 -4 60l17 12c18 13 32 28 45 49l354 586h559v-167c-22 -6 -45 -8 -71 -6
c-13 66 -43 78 -83 78l-170 4v-225l292 5v-102l-292 5v-18l5 -191l139 5c70 3 126 17 155 96zM493 652l-150 -261h149v225z" />
    <glyph glyph-name="Ccedilla" unicode="&#xc7;" horiz-adv-x="707" 
d="M539 -168c0 -64 -69 -130 -142 -130c-33 0 -68 11 -105 36l43 77c26 -18 64 -29 91 -29c23 0 41 6 41 20c0 35 -65 48 -142 62l54 128c-216 16 -344 128 -344 353c0 206 178 370 401 370c109 0 154 -11 237 -47v-172c-17 -2 -36 -4 -65 -1c-30 77 -89 117 -176 117
c-125 0 -219 -65 -219 -257c0 -150 98 -237 242 -237c68 0 125 10 190 24l32 -108c-77 -31 -133 -44 -225 -45l-30 -55c78 -19 117 -45 117 -106z" />
    <glyph glyph-name="Egrave" unicode="&#xc8;" horiz-adv-x="672" 
d="M642 175l-28 -175h-587c-5 24 -6 46 -5 65l42 10c23 5 45 15 45 34l3 174v278c0 44 -15 50 -31 57l-55 25v31c0 13 0 23 4 33h576v-167c-16 -4 -53 -6 -70 -6c-14 66 -44 78 -84 78l-169 4v-215l271 5v-102l-271 5v-28l4 -191l129 5c70 3 126 17 155 96zM425 743
c-99 19 -230 51 -312 81l47 110c82 -44 196 -85 285 -116z" />
    <glyph glyph-name="Eacute" unicode="&#xc9;" horiz-adv-x="672" 
d="M642 175l-28 -175h-587c-5 24 -6 46 -5 65l42 10c23 5 45 15 45 34l3 174v278c0 44 -15 50 -31 57l-55 25v31c0 13 0 23 4 33h576v-167c-16 -4 -53 -6 -70 -6c-14 66 -44 78 -84 78l-169 4v-215l271 5v-102l-271 5v-28l4 -191l129 5c70 3 126 17 155 96zM216 743l-20 75
c89 31 203 72 285 116l47 -110c-82 -30 -213 -62 -312 -81z" />
    <glyph glyph-name="Ecircumflex" unicode="&#xca;" horiz-adv-x="672" 
d="M642 175l-28 -175h-587c-5 24 -6 46 -5 65l42 10c23 5 45 15 45 34l3 174v278c0 44 -15 50 -31 57l-55 25v31c0 13 0 23 4 33h576v-167c-16 -4 -53 -6 -70 -6c-14 66 -44 78 -84 78l-169 4v-215l271 5v-102l-271 5v-28l4 -191l129 5c70 3 126 17 155 96zM171 729l-31 60
c78 47 136 85 204 144c55 -44 127 -95 188 -134l-41 -70c-54 21 -121 53 -161 78c-42 -24 -100 -54 -159 -78z" />
    <glyph glyph-name="Edieresis" unicode="&#xcb;" horiz-adv-x="672" 
d="M642 175l-28 -175h-587c-5 24 -6 46 -5 65l42 10c23 5 45 15 45 34l3 174v278c0 44 -15 50 -31 57l-55 25v31c0 13 0 23 4 33h576v-167c-16 -4 -53 -6 -70 -6c-14 66 -44 78 -84 78l-169 4v-215l271 5v-102l-271 5v-28l4 -191l129 5c70 3 126 17 155 96zM219 766
c-17 0 -79 63 -79 79c0 18 63 80 79 80c17 0 81 -64 81 -80c0 -13 -61 -79 -81 -79zM454 766c-17 0 -79 63 -79 79c0 18 63 80 79 80s81 -64 81 -80c0 -13 -61 -79 -81 -79z" />
    <glyph glyph-name="Igrave" unicode="&#xcc;" horiz-adv-x="394" 
d="M369 68c0 -24 0 -42 -7 -68h-334c-3 12 -4 21 -4 31c0 9 1 19 1 30l36 10c20 7 47 24 48 56l3 154v291c0 33 -32 50 -51 58l-36 16c0 11 -1 20 -1 29s1 19 4 32h338c2 -26 1 -49 -3 -68l-44 -11c-29 -8 -36 -35 -36 -54v-293l2 -169c1 -19 5 -24 23 -30zM315 743
c-99 19 -230 51 -312 81l47 110c82 -44 196 -85 285 -116z" />
    <glyph glyph-name="Iacute" unicode="&#xcd;" horiz-adv-x="394" 
d="M369 68c0 -24 0 -42 -7 -68h-334c-3 12 -4 21 -4 31c0 9 1 19 1 30l36 10c20 7 47 24 48 56l3 154v291c0 33 -32 50 -51 58l-36 16c0 11 -1 20 -1 29s1 19 4 32h338c2 -26 1 -49 -3 -68l-44 -11c-29 -8 -36 -35 -36 -54v-293l2 -169c1 -19 5 -24 23 -30zM66 743l-20 75
c89 31 203 72 285 116l47 -110c-82 -30 -213 -62 -312 -81z" />
    <glyph glyph-name="Icircumflex" unicode="&#xce;" horiz-adv-x="394" 
d="M369 68c0 -24 0 -42 -7 -68h-334c-3 12 -4 21 -4 31c0 9 1 19 1 30l36 10c20 7 47 24 48 56l3 154v291c0 33 -32 50 -51 58l-36 16c0 11 -1 20 -1 29s1 19 4 32h338c2 -26 1 -49 -3 -68l-44 -11c-29 -8 -36 -35 -36 -54v-293l2 -169c1 -19 5 -24 23 -30zM36 729l-31 60
c78 47 136 85 204 144c55 -44 127 -95 188 -134l-41 -70c-54 21 -121 53 -161 78c-42 -24 -100 -54 -159 -78z" />
    <glyph glyph-name="Idieresis" unicode="&#xcf;" horiz-adv-x="394" 
d="M369 68c0 -24 0 -42 -7 -68h-334c-3 12 -4 21 -4 31c0 9 1 19 1 30l36 10c20 7 47 24 48 56l3 154v291c0 33 -32 50 -51 58l-36 16c0 11 -1 20 -1 29s1 19 4 32h338c2 -26 1 -49 -3 -68l-44 -11c-29 -8 -36 -35 -36 -54v-293l2 -169c1 -19 5 -24 23 -30zM82 766
c-17 0 -79 63 -79 79c0 18 63 80 79 80c17 0 81 -64 81 -80c0 -13 -61 -79 -81 -79zM313 766c-17 0 -79 63 -79 79c0 18 63 80 79 80s81 -64 81 -80c0 -13 -61 -79 -81 -79z" />
    <glyph glyph-name="Eth" unicode="&#xd0;" horiz-adv-x="809" 
d="M32 0c-4 19 -7 39 -7 64l45 13c22 6 37 12 38 40l4 166v28h-77v89h77v149c0 47 -25 69 -51 81l-35 17c0 19 -1 41 4 60h311c242 0 433 -70 433 -341c0 -245 -175 -366 -427 -366h-315zM290 91h68c161 0 236 105 236 252c0 160 -87 272 -256 272h-54v-215h146v-89h-146
v-30z" />
    <glyph glyph-name="Ntilde" unicode="&#xd1;" horiz-adv-x="856" 
d="M831 656l-49 -27c-22 -12 -41 -40 -41 -69v-550l-131 -40l-384 520h-7l4 -80v-137l3 -151c0 -24 2 -32 24 -38l85 -24c0 -9 -1 -49 -5 -60h-301c-3 15 -5 46 -4 59l48 13c31 8 47 57 48 89l2 112v299c0 22 -13 42 -29 51l-61 31c0 9 -1 42 2 53h232l373 -492h7l-6 105
v239c0 25 -17 54 -37 64l-63 31c0 9 0 42 4 53h282c2 -15 4 -38 4 -51zM537 751c-42 0 -155 37 -189 37c-24 0 -45 -9 -65 -23l-29 37c37 45 72 91 128 91c52 0 152 -34 180 -34c38 0 53 8 64 20l31 -33c-28 -49 -57 -95 -120 -95z" />
    <glyph glyph-name="Ograve" unicode="&#xd2;" horiz-adv-x="838" 
d="M803 383c0 -214 -152 -395 -402 -395c-244 0 -366 119 -366 331c0 222 166 399 405 399c253 0 363 -131 363 -335zM613 354c0 141 -51 259 -192 259c-149 0 -196 -118 -196 -257c0 -138 46 -261 189 -261c155 0 199 117 199 259zM552 743c-99 19 -230 51 -312 81l47 110
c82 -44 196 -85 285 -116z" />
    <glyph glyph-name="Oacute" unicode="&#xd3;" horiz-adv-x="838" 
d="M803 383c0 -214 -152 -395 -402 -395c-244 0 -366 119 -366 331c0 222 166 399 405 399c253 0 363 -131 363 -335zM613 354c0 141 -51 259 -192 259c-149 0 -196 -118 -196 -257c0 -138 46 -261 189 -261c155 0 199 117 199 259zM348 743l-20 75c89 31 203 72 285 116
l47 -110c-82 -30 -213 -62 -312 -81z" />
    <glyph glyph-name="Ocircumflex" unicode="&#xd4;" horiz-adv-x="838" 
d="M803 383c0 -214 -152 -395 -402 -395c-244 0 -366 119 -366 331c0 222 166 399 405 399c253 0 363 -131 363 -335zM613 354c0 141 -51 259 -192 259c-149 0 -196 -118 -196 -257c0 -138 46 -261 189 -261c155 0 199 117 199 259zM273 729l-31 60c78 47 136 85 204 144
c55 -44 127 -95 188 -134l-41 -70c-54 21 -121 53 -161 78c-42 -24 -100 -54 -159 -78z" />
    <glyph glyph-name="Otilde" unicode="&#xd5;" horiz-adv-x="838" 
d="M803 383c0 -214 -152 -395 -402 -395c-244 0 -366 119 -366 331c0 222 166 399 405 399c253 0 363 -131 363 -335zM613 354c0 141 -51 259 -192 259c-149 0 -196 -118 -196 -257c0 -138 46 -261 189 -261c155 0 199 117 199 259zM528 751c-42 0 -155 37 -189 37
c-24 0 -45 -9 -65 -23l-29 37c37 45 72 91 128 91c52 0 152 -34 180 -34c38 0 53 8 64 20l31 -33c-28 -49 -57 -95 -120 -95z" />
    <glyph glyph-name="Odieresis" unicode="&#xd6;" horiz-adv-x="838" 
d="M803 383c0 -214 -152 -395 -402 -395c-244 0 -366 119 -366 331c0 222 166 399 405 399c253 0 363 -131 363 -335zM613 354c0 141 -51 259 -192 259c-149 0 -196 -118 -196 -257c0 -138 46 -261 189 -261c155 0 199 117 199 259zM302 766c-17 0 -79 63 -79 79
c0 18 63 80 79 80c17 0 81 -64 81 -80c0 -13 -61 -79 -81 -79zM537 766c-17 0 -79 63 -79 79c0 18 63 80 79 80s81 -64 81 -80c0 -13 -61 -79 -81 -79z" />
    <glyph glyph-name="multiply" unicode="&#xd7;" 
d="M145 7l-85 65l174 228l-174 228l84 64l156 -205l156 205l84 -64l-174 -228l174 -228l-85 -65l-155 206z" />
    <glyph glyph-name="Oslash" unicode="&#xd8;" horiz-adv-x="838" 
d="M786 692l-63 -72c54 -57 80 -139 80 -237c0 -214 -152 -395 -402 -395c-97 0 -175 19 -234 55l-88 -82l-52 52l83 78c-50 56 -75 133 -75 228c0 222 166 399 405 399c95 0 169 -18 226 -52l68 77zM559 551c-30 38 -75 62 -138 62c-149 0 -196 -118 -196 -257
c0 -48 5 -93 18 -133zM613 354c0 46 -5 89 -18 127l-315 -327c30 -37 73 -59 134 -59c155 0 199 117 199 259z" />
    <glyph glyph-name="Ugrave" unicode="&#xd9;" horiz-adv-x="838" 
d="M818 644l-50 -16c-13 -5 -27 -10 -27 -40v-317c0 -226 -190 -280 -315 -280c-137 0 -324 16 -324 253v329c0 22 -12 45 -29 52l-53 21c0 9 1 50 4 61h347c3 -15 3 -53 2 -66l-67 -12c-20 -4 -26 -13 -26 -32v-326c0 -156 107 -180 186 -180c73 0 150 34 150 204v270
c0 24 -10 55 -56 68l-43 13c0 9 -2 50 1 61h296c3 -15 5 -50 4 -63zM557 743c-99 19 -230 51 -312 81l47 110c82 -44 196 -85 285 -116z" />
    <glyph glyph-name="Uacute" unicode="&#xda;" horiz-adv-x="838" 
d="M818 644l-50 -16c-13 -5 -27 -10 -27 -40v-317c0 -226 -190 -280 -315 -280c-137 0 -324 16 -324 253v329c0 22 -12 45 -29 52l-53 21c0 9 1 50 4 61h347c3 -15 3 -53 2 -66l-67 -12c-20 -4 -26 -13 -26 -32v-326c0 -156 107 -180 186 -180c73 0 150 34 150 204v270
c0 24 -10 55 -56 68l-43 13c0 9 -2 50 1 61h296c3 -15 5 -50 4 -63zM348 743l-20 75c89 31 203 72 285 116l47 -110c-82 -30 -213 -62 -312 -81z" />
    <glyph glyph-name="Ucircumflex" unicode="&#xdb;" horiz-adv-x="838" 
d="M818 644l-50 -16c-13 -5 -27 -10 -27 -40v-317c0 -226 -190 -280 -315 -280c-137 0 -324 16 -324 253v329c0 22 -12 45 -29 52l-53 21c0 9 1 50 4 61h347c3 -15 3 -53 2 -66l-67 -12c-20 -4 -26 -13 -26 -32v-326c0 -156 107 -180 186 -180c73 0 150 34 150 204v270
c0 24 -10 55 -56 68l-43 13c0 9 -2 50 1 61h296c3 -15 5 -50 4 -63zM288 729l-31 60c78 47 136 85 204 144c55 -44 127 -95 188 -134l-41 -70c-54 21 -121 53 -161 78c-42 -24 -100 -54 -159 -78z" />
    <glyph glyph-name="Udieresis" unicode="&#xdc;" horiz-adv-x="838" 
d="M818 644l-50 -16c-13 -5 -27 -10 -27 -40v-317c0 -226 -190 -280 -315 -280c-137 0 -324 16 -324 253v329c0 22 -12 45 -29 52l-53 21c0 9 1 50 4 61h347c3 -15 3 -53 2 -66l-67 -12c-20 -4 -26 -13 -26 -32v-326c0 -156 107 -180 186 -180c73 0 150 34 150 204v270
c0 24 -10 55 -56 68l-43 13c0 9 -2 50 1 61h296c3 -15 5 -50 4 -63zM315 766c-17 0 -79 63 -79 79c0 18 63 80 79 80c17 0 81 -64 81 -80c0 -13 -61 -79 -81 -79zM550 766c-17 0 -79 63 -79 79c0 18 63 80 79 80s81 -64 81 -80c0 -13 -61 -79 -81 -79z" />
    <glyph glyph-name="Yacute" unicode="&#xdd;" horiz-adv-x="723" 
d="M718 647c-26 -17 -44 -35 -63 -61l-210 -306l3 -168c0 -19 4 -26 23 -30l60 -14c0 -24 1 -42 -7 -68h-333c-6 24 -4 39 -4 61l36 10c21 7 48 24 48 56l3 141l-215 320c-20 28 -36 45 -54 60c-2 17 -3 39 2 59h320c4 -16 4 -39 4 -65l-38 -15c-24 -10 -37 -29 -37 -50
c0 -11 3 -23 11 -34l131 -194l122 185c9 13 12 25 12 35c0 28 -26 45 -41 52l-42 21c-2 20 -2 39 3 65h261c6 -20 5 -37 5 -60zM310 743l-20 75c89 31 203 72 285 116l47 -110c-82 -30 -213 -62 -312 -81z" />
    <glyph glyph-name="Thorn" unicode="&#xde;" horiz-adv-x="729" 
d="M711 380c0 -144 -116 -251 -290 -251h-80v78l35 1c110 3 146 64 146 148c0 79 -44 137 -155 140l-84 2v-225l4 -151c0 -20 3 -32 21 -35l102 -21c0 -9 0 -55 -4 -66h-380c-2 15 -4 49 -3 62l48 11c23 5 38 35 39 62l2 138v299c0 33 -32 50 -51 58l-36 16
c0 11 -1 20 -1 29s1 19 4 32h338c2 -26 1 -49 -3 -68l-44 -11c-21 -5 -30 -21 -34 -37l-1 -5h177c141 0 250 -58 250 -206z" />
    <glyph glyph-name="germandbls" unicode="&#xdf;" horiz-adv-x="813" 
d="M765 165c0 -142 -112 -178 -217 -178c-86 0 -118 17 -188 48l10 143l53 -1c14 -74 53 -106 123 -106c38 0 58 22 58 52c0 79 -215 107 -215 266c0 85 104 132 104 201c0 61 -49 89 -112 89c-51 0 -100 -34 -100 -87v-308l7 -283l-248 -1s-5 24 -5 61c11 4 48 13 48 13
c25 7 28 36 28 60l2 150v182h-80v62l80 18v23c0 112 141 199 262 199c107 0 267 -18 267 -166c0 -124 -110 -119 -110 -181c0 -68 233 -95 233 -256z" />
    <glyph glyph-name="agrave" unicode="&#xe0;" horiz-adv-x="602" 
d="M582 55c-41 -38 -92 -64 -133 -64c-76 0 -105 18 -111 88c-34 -37 -96 -88 -164 -88c-91 0 -149 39 -149 126c0 127 110 165 220 180c31 4 62 7 90 10v63c0 40 -16 55 -98 55c-34 0 -81 -5 -149 -21l-29 120c74 27 141 38 205 38c89 1 237 -3 237 -156v-132l7 -173h68z
M335 130v101c-16 -2 -35 -3 -54 -6c-54 -8 -90 -24 -90 -66c0 -28 19 -45 52 -45c30 0 65 6 92 16zM112 765l75 94c77 -74 141 -129 236 -192l-37 -58c-99 38 -177 88 -274 156z" />
    <glyph glyph-name="aacute" unicode="&#xe1;" horiz-adv-x="602" 
d="M582 55c-41 -38 -92 -64 -133 -64c-76 0 -105 18 -111 88c-34 -37 -96 -88 -164 -88c-91 0 -149 39 -149 126c0 127 110 165 220 180c31 4 62 7 90 10v63c0 40 -16 55 -98 55c-34 0 -81 -5 -149 -21l-29 120c74 27 141 38 205 38c89 1 237 -3 237 -156v-132l7 -173h68z
M335 130v101c-16 -2 -35 -3 -54 -6c-54 -8 -90 -24 -90 -66c0 -28 19 -45 52 -45c30 0 65 6 92 16zM407 859l75 -94c-97 -68 -175 -118 -274 -156l-37 58c95 63 159 118 236 192z" />
    <glyph glyph-name="acircumflex" unicode="&#xe2;" horiz-adv-x="602" 
d="M582 55c-41 -38 -92 -64 -133 -64c-76 0 -105 18 -111 88c-34 -37 -96 -88 -164 -88c-91 0 -149 39 -149 126c0 127 110 165 220 180c31 4 62 7 90 10v63c0 40 -16 55 -98 55c-34 0 -81 -5 -149 -21l-29 120c74 27 141 38 205 38c89 1 237 -3 237 -156v-132l7 -173h68z
M335 130v101c-16 -2 -35 -3 -54 -6c-54 -8 -90 -24 -90 -66c0 -28 19 -45 52 -45c30 0 65 6 92 16zM130 608l-43 52c82 61 148 127 206 192c49 -55 134 -144 190 -184l-53 -60c-53 31 -113 77 -151 109c-33 -28 -91 -71 -149 -109z" />
    <glyph glyph-name="atilde" unicode="&#xe3;" horiz-adv-x="602" 
d="M582 55c-41 -38 -92 -64 -133 -64c-76 0 -105 18 -111 88c-34 -37 -96 -88 -164 -88c-91 0 -149 39 -149 126c0 127 110 165 220 180c31 4 62 7 90 10v63c0 40 -16 55 -98 55c-34 0 -81 -5 -149 -21l-29 120c74 27 141 38 205 38c89 1 237 -3 237 -156v-132l7 -173h68z
M335 130v101c-16 -2 -35 -3 -54 -6c-54 -8 -90 -24 -90 -66c0 -28 19 -45 52 -45c30 0 65 6 92 16zM477 741c-33 -47 -57 -95 -120 -95c-42 0 -155 37 -189 37c-24 0 -45 -9 -65 -23l-29 37c37 45 72 91 128 91c52 0 152 -34 180 -34c44 0 64 20 64 20z" />
    <glyph glyph-name="adieresis" unicode="&#xe4;" horiz-adv-x="602" 
d="M582 55c-41 -38 -92 -64 -133 -64c-76 0 -105 18 -111 88c-34 -37 -96 -88 -164 -88c-91 0 -149 39 -149 126c0 127 110 165 220 180c31 4 62 7 90 10v63c0 40 -16 55 -98 55c-34 0 -81 -5 -149 -21l-29 120c74 27 141 38 205 38c89 1 237 -3 237 -156v-132l7 -173h68z
M335 130v101c-16 -2 -35 -3 -54 -6c-54 -8 -90 -24 -90 -66c0 -28 19 -45 52 -45c30 0 65 6 92 16zM164 636c-17 0 -79 63 -79 79c0 18 63 80 79 80c17 0 81 -64 81 -80c0 -13 -61 -79 -81 -79zM399 636c-17 0 -79 63 -79 79c0 18 63 80 79 80s81 -64 81 -80
c0 -13 -61 -79 -81 -79z" />
    <glyph glyph-name="aring" unicode="&#xe5;" horiz-adv-x="602" 
d="M582 55c-41 -38 -92 -64 -133 -64c-76 0 -105 18 -111 88c-34 -37 -96 -88 -164 -88c-91 0 -149 39 -149 126c0 127 110 165 220 180c31 4 62 7 90 10v63c0 40 -16 55 -98 55c-34 0 -81 -5 -149 -21l-29 120c74 27 141 38 205 38c89 1 237 -3 237 -156v-132l7 -173h68z
M335 130v101c-16 -2 -35 -3 -54 -6c-54 -8 -90 -24 -90 -66c0 -28 19 -45 52 -45c30 0 65 6 92 16zM420 741c0 -76 -79 -124 -136 -124c-66 0 -133 25 -133 105c0 78 68 129 136 129c57 0 133 -14 133 -110zM339 733c0 40 -17 67 -54 67c-41 0 -53 -24 -53 -65
c0 -40 16 -68 54 -68c41 0 53 25 53 66z" />
    <glyph glyph-name="ae" unicode="&#xe6;" horiz-adv-x="886" 
d="M860 256l-358 -16c5 -100 69 -118 155 -118c36 0 92 -1 165 15l28 -88c-70 -38 -154 -57 -218 -57c-115 0 -201 17 -250 82c-43 -37 -113 -82 -195 -82c-91 0 -162 28 -162 125c0 130 114 166 227 179c28 3 57 5 83 6v68c0 40 -8 57 -98 57c-34 0 -77 -3 -149 -23
l-29 120c74 29 141 38 205 38c61 0 148 -7 191 -61c43 38 93 59 159 59c181 0 246 -126 246 -267v-37zM687 330c1 70 -18 138 -81 138c-80 0 -109 -69 -109 -153zM349 138c-10 32 -14 64 -15 97c-25 -3 -49 -4 -74 -9c-66 -14 -79 -40 -79 -70c0 -22 19 -46 49 -46
c34 0 62 2 119 28z" />
    <glyph glyph-name="ccedilla" unicode="&#xe7;" horiz-adv-x="543" 
d="M426 -168c0 -64 -69 -130 -142 -130c-33 0 -68 11 -105 36l43 77c26 -18 64 -29 91 -29c23 0 41 6 41 20c0 35 -65 48 -142 62l51 120c-167 12 -233 99 -233 290c0 134 108 283 296 283c101 0 201 -32 201 -99c0 -53 -18 -81 -65 -101c-37 43 -101 104 -135 104
c-74 0 -126 -41 -126 -190c0 -93 63 -159 152 -159c40 0 80 6 136 16l27 -86c-67 -37 -117 -54 -180 -59l-27 -49c78 -19 117 -45 117 -106z" />
    <glyph glyph-name="egrave" unicode="&#xe8;" horiz-adv-x="588" 
d="M562 251h-358c5 -100 68 -132 155 -132c36 0 91 2 165 18l28 -88c-70 -38 -154 -62 -218 -62c-187 0 -304 53 -304 273c0 143 109 301 286 301c181 0 246 -120 246 -261v-49zM388 324c0 84 -22 149 -90 149c-66 0 -99 -78 -99 -149h189zM125 765l75 94
c77 -74 141 -129 236 -192l-37 -58c-99 38 -177 88 -274 156z" />
    <glyph glyph-name="eacute" unicode="&#xe9;" horiz-adv-x="588" 
d="M562 251h-358c5 -100 68 -132 155 -132c36 0 91 2 165 18l28 -88c-70 -38 -154 -62 -218 -62c-187 0 -304 53 -304 273c0 143 109 301 286 301c181 0 246 -120 246 -261v-49zM388 324c0 84 -22 149 -90 149c-66 0 -99 -78 -99 -149h189zM420 859l75 -94
c-97 -68 -175 -118 -274 -156l-37 58c95 63 159 118 236 192z" />
    <glyph glyph-name="ecircumflex" unicode="&#xea;" horiz-adv-x="588" 
d="M562 251h-358c5 -100 68 -132 155 -132c36 0 91 2 165 18l28 -88c-70 -38 -154 -62 -218 -62c-187 0 -304 53 -304 273c0 143 109 301 286 301c181 0 246 -120 246 -261v-49zM388 324c0 84 -22 149 -90 149c-66 0 -99 -78 -99 -149h189zM163 608l-43 52
c82 61 148 127 206 192c49 -55 134 -144 190 -184l-53 -60c-53 31 -113 77 -151 109c-33 -28 -91 -71 -149 -109z" />
    <glyph glyph-name="edieresis" unicode="&#xeb;" horiz-adv-x="588" 
d="M562 251h-358c5 -100 68 -132 155 -132c36 0 91 2 165 18l28 -88c-70 -38 -154 -62 -218 -62c-187 0 -304 53 -304 273c0 143 109 301 286 301c181 0 246 -120 246 -261v-49zM388 324c0 84 -22 149 -90 149c-66 0 -99 -78 -99 -149h189zM197 636c-17 0 -79 63 -79 79
c0 18 63 80 79 80c17 0 81 -64 81 -80c0 -13 -61 -79 -81 -79zM432 636c-17 0 -79 63 -79 79c0 18 63 80 79 80s81 -64 81 -80c0 -13 -61 -79 -81 -79z" />
    <glyph glyph-name="igrave" unicode="&#xec;" horiz-adv-x="377" 
d="M357 63c0 -26 -1 -43 -6 -63h-327c-3 13 -4 35 -4 63l59 17c19 5 24 15 24 39l3 155v192h-86v75c66 14 152 21 201 21c33 0 53 -8 53 -48v-240l1 -147c1 -31 6 -42 16 -45zM-10 765l75 94c77 -74 141 -129 236 -192l-37 -58c-99 38 -177 88 -274 156z" />
    <glyph glyph-name="iacute" unicode="&#xed;" horiz-adv-x="377" 
d="M357 63c0 -26 -1 -43 -6 -63h-327c-3 13 -4 35 -4 63l59 17c19 5 24 15 24 39l3 155v192h-86v75c66 14 152 21 201 21c33 0 53 -8 53 -48v-240l1 -147c1 -31 6 -42 16 -45zM294 859l75 -94c-97 -68 -175 -118 -274 -156l-37 58c95 63 159 118 236 192z" />
    <glyph glyph-name="icircumflex" unicode="&#xee;" horiz-adv-x="377" 
d="M357 63c0 -26 -1 -43 -6 -63h-327c-3 13 -4 35 -4 63l59 17c19 5 24 15 24 39l3 155v192h-86v75c66 14 152 21 201 21c33 0 53 -8 53 -48v-240l1 -147c1 -31 6 -42 16 -45zM27 608l-43 52c82 61 148 127 206 192c49 -55 134 -144 190 -184l-53 -60
c-53 31 -113 77 -151 109c-33 -28 -91 -71 -149 -109z" />
    <glyph glyph-name="idieresis" unicode="&#xef;" horiz-adv-x="377" 
d="M357 63c0 -26 -1 -43 -6 -63h-327c-3 13 -4 35 -4 63l59 17c19 5 24 15 24 39l3 155v192h-86v75c66 14 152 21 201 21c33 0 53 -8 53 -48v-240l1 -147c1 -31 6 -42 16 -45zM64 636c-17 0 -79 63 -79 79c0 18 63 80 79 80c17 0 81 -64 81 -80c0 -13 -61 -79 -81 -79z
M293 636c-17 0 -79 63 -79 79c0 18 63 80 79 80s81 -64 81 -80c0 -13 -61 -79 -81 -79z" />
    <glyph glyph-name="eth" unicode="&#xf0;" horiz-adv-x="633" 
d="M310 -8c-175 0 -280 86 -280 273c0 144 125 294 289 294c29 0 63 -6 96 -19c-13 34 -31 66 -53 94l-112 -43l-19 63l86 33c-17 17 -35 33 -53 48l77 79c39 -23 74 -49 103 -78l122 47l21 -62l-96 -37c79 -104 112 -238 112 -404c0 -144 -124 -288 -293 -288zM326 89
c79 0 99 82 99 181c0 89 -20 192 -117 192c-96 0 -102 -111 -102 -183c0 -94 25 -190 120 -190z" />
    <glyph glyph-name="ntilde" unicode="&#xf1;" horiz-adv-x="722" 
d="M702 61c0 -37 -2 -45 -8 -61h-285c-4 21 -6 35 -4 61l35 16c17 8 19 21 19 36l2 161v51c0 60 -1 117 -73 117c-43 0 -93 -6 -123 -17v-151l2 -147c0 -20 2 -39 16 -45l46 -19c0 -35 -1 -43 -6 -63h-297c-2 15 -3 39 -3 59l48 16c19 6 24 14 24 39l3 160v190h-78v74
c66 14 153 21 202 21c29 0 39 -12 39 -35v-33c38 29 94 67 180 67c185 0 187 -76 187 -179v-105l3 -165c1 -18 3 -29 14 -32zM570 741c-33 -47 -57 -95 -120 -95c-42 0 -155 37 -189 37c-24 0 -45 -9 -65 -23l-29 37c37 45 72 91 128 91c52 0 152 -34 180 -34
c44 0 64 20 64 20z" />
    <glyph glyph-name="ograve" unicode="&#xf2;" horiz-adv-x="633" 
d="M603 280c0 -144 -124 -293 -293 -293c-175 0 -280 91 -280 278c0 144 126 296 289 296c189 0 284 -97 284 -281zM425 270c0 89 -20 192 -117 192c-96 0 -102 -111 -102 -183c0 -94 25 -191 120 -191c79 0 99 83 99 182zM137 765l75 94c77 -74 141 -129 236 -192l-37 -58
c-99 38 -177 88 -274 156z" />
    <glyph glyph-name="oacute" unicode="&#xf3;" horiz-adv-x="633" 
d="M603 280c0 -144 -124 -293 -293 -293c-175 0 -280 91 -280 278c0 144 126 296 289 296c189 0 284 -97 284 -281zM425 270c0 89 -20 192 -117 192c-96 0 -102 -111 -102 -183c0 -94 25 -191 120 -191c79 0 99 83 99 182zM422 859l75 -94c-97 -68 -175 -118 -274 -156
l-37 58c95 63 159 118 236 192z" />
    <glyph glyph-name="ocircumflex" unicode="&#xf4;" horiz-adv-x="633" 
d="M603 280c0 -144 -124 -293 -293 -293c-175 0 -280 91 -280 278c0 144 126 296 289 296c189 0 284 -97 284 -281zM425 270c0 89 -20 192 -117 192c-96 0 -102 -111 -102 -183c0 -94 25 -191 120 -191c79 0 99 83 99 182zM165 608l-43 52c82 61 148 127 206 192
c49 -55 134 -144 190 -184l-53 -60c-53 31 -113 77 -151 109c-33 -28 -91 -71 -149 -109z" />
    <glyph glyph-name="otilde" unicode="&#xf5;" horiz-adv-x="633" 
d="M603 280c0 -144 -124 -293 -293 -293c-175 0 -280 91 -280 278c0 144 126 296 289 296c189 0 284 -97 284 -281zM425 270c0 89 -20 192 -117 192c-96 0 -102 -111 -102 -183c0 -94 25 -191 120 -191c79 0 99 83 99 182zM518 741c-33 -47 -57 -95 -120 -95
c-42 0 -155 37 -189 37c-24 0 -45 -9 -65 -23l-29 37c37 45 72 91 128 91c52 0 152 -34 180 -34c44 0 64 20 64 20z" />
    <glyph glyph-name="odieresis" unicode="&#xf6;" horiz-adv-x="633" 
d="M603 280c0 -144 -124 -293 -293 -293c-175 0 -280 91 -280 278c0 144 126 296 289 296c189 0 284 -97 284 -281zM425 270c0 89 -20 192 -117 192c-96 0 -102 -111 -102 -183c0 -94 25 -191 120 -191c79 0 99 83 99 182zM199 636c-17 0 -79 63 -79 79c0 18 63 80 79 80
c17 0 81 -64 81 -80c0 -13 -61 -79 -81 -79zM434 636c-17 0 -79 63 -79 79c0 18 63 80 79 80s81 -64 81 -80c0 -13 -61 -79 -81 -79z" />
    <glyph glyph-name="divide" unicode="&#xf7;" 
d="M300 -9c-21 0 -95 74 -95 96c0 23 75 94 95 94s95 -73 95 -94s-75 -96 -95 -96zM300 426c-21 0 -95 74 -95 96c0 23 75 94 95 94s95 -73 95 -94s-75 -96 -95 -96zM60 253v100h480v-100h-480z" />
    <glyph glyph-name="oslash" unicode="&#xf8;" horiz-adv-x="633" 
d="M585 547c-15 -19 -31 -40 -50 -62c45 -47 68 -115 68 -205c0 -144 -124 -288 -293 -288c-67 0 -123 12 -167 38l-69 -72l-50 44l66 71c-39 45 -60 108 -60 192c0 144 125 294 289 294c67 0 122 -12 166 -36l53 66zM394 415c-18 28 -45 47 -86 47
c-96 0 -102 -111 -102 -183c0 -24 2 -48 6 -71zM425 270c0 25 -2 50 -6 75l-181 -209c18 -29 46 -47 88 -47c79 0 99 82 99 181z" />
    <glyph glyph-name="ugrave" unicode="&#xf9;" horiz-adv-x="722" 
d="M691 101l11 -69c-46 -23 -92 -39 -155 -39c-60 0 -89 25 -91 82c-55 -50 -118 -85 -181 -85c-173 0 -173 83 -173 177v297h-82v67c65 14 121 28 171 28c48 0 78 -22 78 -67v-301c0 -55 13 -80 51 -80c39 0 93 12 128 24l4 138v191h-71v67c54 17 109 28 159 28
c46 0 79 -21 79 -67v-220l6 -171h66zM152 765l75 94c77 -74 141 -129 236 -192l-37 -58c-99 38 -177 88 -274 156z" />
    <glyph glyph-name="uacute" unicode="&#xfa;" horiz-adv-x="722" 
d="M691 101l11 -69c-46 -23 -92 -39 -155 -39c-60 0 -89 25 -91 82c-55 -50 -118 -85 -181 -85c-173 0 -173 83 -173 177v297h-82v67c65 14 121 28 171 28c48 0 78 -22 78 -67v-301c0 -55 13 -80 51 -80c39 0 93 12 128 24l4 138v191h-71v67c54 17 109 28 159 28
c46 0 79 -21 79 -67v-220l6 -171h66zM497 859l75 -94c-97 -68 -175 -118 -274 -156l-37 58c95 63 159 118 236 192z" />
    <glyph glyph-name="ucircumflex" unicode="&#xfb;" horiz-adv-x="722" 
d="M691 101l11 -69c-46 -23 -92 -39 -155 -39c-60 0 -89 25 -91 82c-55 -50 -118 -85 -181 -85c-173 0 -173 83 -173 177v297h-82v67c65 14 121 28 171 28c48 0 78 -22 78 -67v-301c0 -55 13 -80 51 -80c39 0 93 12 128 24l4 138v191h-71v67c54 17 109 28 159 28
c46 0 79 -21 79 -67v-220l6 -171h66zM200 608l-43 52c82 61 148 127 206 192c49 -55 134 -144 190 -184l-53 -60c-53 31 -113 77 -151 109c-33 -28 -91 -71 -149 -109z" />
    <glyph glyph-name="udieresis" unicode="&#xfc;" horiz-adv-x="722" 
d="M691 101l11 -69c-46 -23 -92 -39 -155 -39c-60 0 -89 25 -91 82c-55 -50 -118 -85 -181 -85c-173 0 -173 83 -173 177v297h-82v67c65 14 121 28 171 28c48 0 78 -22 78 -67v-301c0 -55 13 -80 51 -80c39 0 93 12 128 24l4 138v191h-71v67c54 17 109 28 159 28
c46 0 79 -21 79 -67v-220l6 -171h66zM232 636c-17 0 -79 63 -79 79c0 18 63 80 79 80c17 0 81 -64 81 -80c0 -13 -61 -79 -81 -79zM467 636c-17 0 -79 63 -79 79c0 18 63 80 79 80s81 -64 81 -80c0 -13 -61 -79 -81 -79z" />
    <glyph glyph-name="yacute" unicode="&#xfd;" horiz-adv-x="589" 
d="M584 546c0 -25 -5 -65 -5 -65c-23 -16 -39 -49 -56 -89l-224 -516c-28 -65 -89 -96 -139 -114l-93 139c36 10 74 24 100 37c30 15 46 28 55 40l-149 441c-10 30 -33 38 -68 55c0 27 -1 37 6 72h285v-80h-61l93 -323l98 272c6 16 -2 37 -11 43c-12 10 -32 12 -40 14
c-1 6 -2 19 -2 33s1 29 5 41h206zM440 859l75 -94c-97 -68 -175 -118 -274 -156l-37 58c95 63 159 118 236 192z" />
    <glyph glyph-name="thorn" unicode="&#xfe;" horiz-adv-x="674" 
d="M644 280c0 -229 -154 -288 -309 -288c-22 0 -39 0 -53 1l2 -90c0 -33 16 -34 41 -40l70 -16c0 -25 3 -34 -6 -67h-364c-8 28 -5 44 -5 63l38 12c35 10 45 38 45 60l4 353v401h-84v72c45 11 127 24 202 24c28 0 44 -16 44 -44v-220c37 38 88 59 133 59
c140 0 242 -51 242 -280zM467 262c0 118 -37 194 -108 194c-31 0 -67 -4 -84 -8v-182l4 -192c13 -1 30 -2 61 -2c87 0 127 87 127 190z" />
    <glyph glyph-name="ydieresis" unicode="&#xff;" horiz-adv-x="589" 
d="M584 546c0 -25 -5 -65 -5 -65c-23 -16 -39 -49 -56 -89l-224 -516c-28 -65 -89 -96 -139 -114l-93 139c36 10 74 24 100 37c30 15 46 28 55 40l-149 441c-10 30 -33 38 -68 55c0 27 -1 37 6 72h285v-80h-61l93 -323l98 272c6 16 -2 37 -11 43c-12 10 -32 12 -40 14
c-1 6 -2 19 -2 33s1 29 5 41h206zM204 636c-17 0 -79 63 -79 79c0 18 63 80 79 80c17 0 81 -64 81 -80c0 -13 -61 -79 -81 -79zM439 636c-17 0 -79 63 -79 79c0 18 63 80 79 80s81 -64 81 -80c0 -13 -61 -79 -81 -79z" />
    <glyph glyph-name="Amacron" unicode="&#x100;" horiz-adv-x="777" 
d="M746 59c0 -24 -1 -39 -7 -59h-316c-8 21 -9 37 -9 65l53 19c23 8 33 23 33 43c0 13 -3 23 -8 37l-34 104h-223l-36 -95c-5 -15 -7 -27 -7 -38c0 -34 21 -44 37 -49l72 -21c0 -19 0 -45 -6 -65h-273c-5 17 -5 38 -5 60c23 22 35 32 48 61l246 569l157 33l233 -604
c10 -24 28 -42 45 -60zM431 351l-49 149l-24 86h-6l-28 -83l-57 -152h164zM545 771h-298v99h298v-99z" />
    <glyph glyph-name="amacron" unicode="&#x101;" horiz-adv-x="602" 
d="M582 55c-41 -38 -92 -64 -133 -64c-76 0 -105 18 -111 88c-34 -37 -96 -88 -164 -88c-91 0 -149 39 -149 126c0 127 110 165 220 180c31 4 62 7 90 10v63c0 40 -16 55 -98 55c-34 0 -81 -5 -149 -21l-29 120c74 27 141 38 205 38c89 1 237 -3 237 -156v-132l7 -173h68z
M335 130v101c-16 -2 -35 -3 -54 -6c-54 -8 -90 -24 -90 -66c0 -28 19 -45 52 -45c30 0 65 6 92 16zM441 685h-307v89h307v-89z" />
    <glyph glyph-name="Abreve" unicode="&#x102;" horiz-adv-x="777" 
d="M746 59c0 -24 -1 -39 -7 -59h-316c-8 21 -9 37 -9 65l53 19c23 8 33 23 33 43c0 13 -3 23 -8 37l-34 104h-223l-36 -95c-5 -15 -7 -27 -7 -38c0 -34 21 -44 37 -49l72 -21c0 -19 0 -45 -6 -65h-273c-5 17 -5 38 -5 60c23 22 35 32 48 61l246 569l157 33l233 -604
c10 -24 28 -42 45 -60zM431 351l-49 149l-24 86h-6l-28 -83l-57 -152h164zM392 746c-76 0 -143 42 -174 94l54 51c35 -32 80 -55 133 -55c45 0 91 24 118 51l31 -25c-22 -48 -74 -116 -162 -116z" />
    <glyph glyph-name="abreve" unicode="&#x103;" horiz-adv-x="602" 
d="M582 55c-41 -38 -92 -64 -133 -64c-76 0 -105 18 -111 88c-34 -37 -96 -88 -164 -88c-91 0 -149 39 -149 126c0 127 110 165 220 180c31 4 62 7 90 10v63c0 40 -16 55 -98 55c-34 0 -81 -5 -149 -21l-29 120c74 27 141 38 205 38c89 1 237 -3 237 -156v-132l7 -173h68z
M335 130v101c-16 -2 -35 -3 -54 -6c-54 -8 -90 -24 -90 -66c0 -28 19 -45 52 -45c30 0 65 6 92 16zM421 800l31 -25c-22 -48 -74 -125 -171 -125c-76 0 -139 45 -170 97l59 57c35 -32 80 -55 133 -55c45 0 91 24 118 51z" />
    <glyph glyph-name="Aogonek" unicode="&#x104;" horiz-adv-x="777" 
d="M572 -177l19 -63c-26 -18 -66 -29 -123 -29c-87 0 -140 48 -140 114c0 97 41 159 132 207c22 11 40 35 40 55c0 13 -3 43 -8 57l-34 104h-223l-36 -95c-5 -15 -7 -27 -7 -38c0 -34 21 -44 37 -49l72 -21c0 -19 0 -45 -6 -65h-273c-5 17 -5 38 -5 60c23 22 35 32 48 61
l246 569l157 33l233 -604c10 -24 28 -42 45 -60c0 -24 -1 -39 -7 -59h-110c-116 0 -183 -20 -183 -128c1 -45 27 -66 60 -66c29 0 50 8 66 17zM431 351l-49 149l-24 86h-6l-28 -83l-57 -152h164z" />
    <glyph glyph-name="aogonek" unicode="&#x105;" horiz-adv-x="602" 
d="M449 -269c-87 0 -140 48 -140 114c0 58 37 110 92 150c-41 8 -59 31 -63 84c-34 -37 -96 -88 -164 -88c-91 0 -149 39 -149 126c0 127 110 165 220 180c31 4 62 7 90 10v63c0 40 -8 55 -98 55c-34 0 -81 -5 -149 -21l-29 120c74 27 141 34 205 34c89 1 237 -9 237 -162
v-122l7 -173h68l6 -46c-64 -48 -161 -91 -155 -183c1 -45 27 -66 60 -66c29 0 50 8 66 17l19 -63c-26 -18 -66 -29 -123 -29zM243 114c30 0 65 6 92 16v101c-16 -2 -35 -3 -54 -6c-54 -8 -90 -24 -90 -66c0 -28 19 -45 52 -45z" />
    <glyph glyph-name="Cacute" unicode="&#x106;" horiz-adv-x="707" 
d="M677 38c-80 -32 -138 -45 -237 -45c-253 0 -405 111 -405 356c0 206 178 370 401 370c109 0 154 -11 237 -47v-172c-17 -2 -36 -4 -65 -1c-30 77 -89 117 -176 117c-125 0 -219 -65 -219 -257c0 -150 98 -237 242 -237c68 0 125 10 190 24zM312 743l-20 75
c89 31 203 72 285 116l47 -110c-82 -30 -213 -62 -312 -81z" />
    <glyph glyph-name="cacute" unicode="&#x107;" horiz-adv-x="543" 
d="M527 462c0 -53 -18 -81 -65 -101c-37 43 -101 104 -135 104c-74 0 -126 -41 -126 -190c0 -93 63 -159 152 -159c40 0 80 6 136 16l27 -86c-77 -42 -132 -60 -210 -60c-198 0 -276 86 -276 292c0 134 108 283 296 283c101 0 201 -32 201 -99zM417 859l75 -94
c-97 -68 -175 -118 -274 -156l-37 58c95 63 159 118 236 192z" />
    <glyph glyph-name="Ccircumflex" unicode="&#x108;" horiz-adv-x="707" 
d="M677 38c-80 -32 -138 -45 -237 -45c-253 0 -405 111 -405 356c0 206 178 370 401 370c109 0 154 -11 237 -47v-172c-17 -2 -36 -4 -65 -1c-30 77 -89 117 -176 117c-125 0 -219 -65 -219 -257c0 -150 98 -237 242 -237c68 0 125 10 190 24zM276 729l-31 60
c78 47 136 85 204 144c55 -44 127 -95 188 -134l-41 -70c-54 21 -121 53 -161 78c-42 -24 -100 -54 -159 -78z" />
    <glyph glyph-name="ccircumflex" unicode="&#x109;" horiz-adv-x="543" 
d="M527 462c0 -53 -18 -81 -65 -101c-37 43 -101 104 -135 104c-74 0 -126 -41 -126 -190c0 -93 63 -159 152 -159c40 0 80 6 136 16l27 -86c-77 -42 -132 -60 -210 -60c-198 0 -276 86 -276 292c0 134 108 283 296 283c101 0 201 -32 201 -99zM153 608l-43 52
c82 61 148 127 206 192c49 -55 134 -144 190 -184l-53 -60c-53 31 -113 77 -151 109c-33 -28 -91 -71 -149 -109z" />
    <glyph glyph-name="Cdotaccent" unicode="&#x10a;" horiz-adv-x="707" 
d="M677 38c-80 -32 -138 -45 -237 -45c-253 0 -405 111 -405 356c0 206 178 370 401 370c109 0 154 -11 237 -47v-172c-17 -2 -36 -4 -65 -1c-30 77 -89 117 -176 117c-125 0 -219 -65 -219 -257c0 -150 98 -237 242 -237c68 0 125 10 190 24zM525 840
c0 -15 -76 -97 -98 -97c-21 0 -96 78 -96 97c0 23 76 97 96 97c18 0 98 -77 98 -97z" />
    <glyph glyph-name="cdotaccent" unicode="&#x10b;" horiz-adv-x="543" 
d="M527 462c0 -53 -18 -81 -65 -101c-37 43 -101 104 -135 104c-74 0 -126 -41 -126 -190c0 -93 63 -159 152 -159c40 0 80 6 136 16l27 -86c-77 -42 -132 -60 -210 -60c-198 0 -276 86 -276 292c0 134 108 283 296 283c101 0 201 -32 201 -99zM420 730
c0 -15 -76 -97 -98 -97c-21 0 -96 78 -96 97c0 23 76 97 96 97c18 0 98 -77 98 -97z" />
    <glyph glyph-name="Ccaron" unicode="&#x10c;" horiz-adv-x="707" 
d="M677 38c-80 -32 -138 -45 -237 -45c-253 0 -405 111 -405 356c0 206 178 370 401 370c109 0 154 -11 237 -47v-172c-17 -2 -36 -4 -65 -1c-30 77 -89 117 -176 117c-125 0 -219 -65 -219 -257c0 -150 98 -237 242 -237c68 0 125 10 190 24zM598 933l31 -60
c-78 -47 -136 -85 -204 -144c-55 44 -127 95 -188 134l41 70c54 -21 121 -53 161 -78c42 24 100 54 159 78z" />
    <glyph glyph-name="ccaron" unicode="&#x10d;" horiz-adv-x="543" 
d="M527 462c0 -53 -18 -81 -65 -101c-37 43 -101 104 -135 104c-74 0 -126 -41 -126 -190c0 -93 63 -159 152 -159c40 0 80 6 136 16l27 -86c-77 -42 -132 -60 -210 -60c-198 0 -276 86 -276 292c0 134 108 283 296 283c101 0 201 -32 201 -99zM517 786
c-82 -61 -148 -127 -206 -192c-49 55 -134 144 -190 184l53 60c53 -31 113 -77 151 -109c33 28 91 71 149 109z" />
    <glyph glyph-name="Dcaron" unicode="&#x10e;" horiz-adv-x="809" 
d="M774 366c0 -245 -175 -366 -427 -366h-315c-4 19 -7 39 -7 64l45 13c22 6 37 12 38 40l4 166v266c0 47 -25 69 -51 81l-35 17c0 19 -1 41 4 60h311c242 0 433 -70 433 -341zM594 343c0 160 -87 272 -256 272h-54v-334l6 -190h68c161 0 236 105 236 252zM522 933l31 -60
c-78 -47 -136 -85 -204 -144c-55 44 -127 95 -188 134l41 70c54 -21 121 -53 161 -78c42 24 100 54 159 78z" />
    <glyph glyph-name="dcaron" unicode="&#x10f;" horiz-adv-x="748" 
d="M649 44c-54 -29 -95 -52 -182 -52c-52 0 -72 44 -72 82c-31 -34 -75 -81 -143 -81c-111 0 -222 41 -222 260c0 183 130 297 297 297c30 0 52 0 71 -1v119h-87v76c66 12 145 20 194 20c45 0 60 -10 60 -59v-422l3 -182h68zM398 284v175c-19 4 -43 8 -74 8
c-86 0 -119 -76 -119 -192c0 -96 36 -154 108 -154c30 0 55 5 81 12zM642 856l126 -5c-4 -88 -37 -175 -73 -241l-77 10c18 83 24 147 24 236z" />
    <glyph glyph-name="Dcroat" unicode="&#x110;" horiz-adv-x="809" 
d="M32 0c-4 19 -7 39 -7 64l45 13c22 6 37 12 38 40l4 166v28h-77v89h77v149c0 47 -25 69 -51 81l-35 17c0 19 -1 41 4 60h311c242 0 433 -70 433 -341c0 -245 -175 -366 -427 -366h-315zM290 91h68c161 0 236 105 236 252c0 160 -87 272 -256 272h-54v-215h146v-89h-146
v-30z" />
    <glyph glyph-name="dcroat" unicode="&#x111;" horiz-adv-x="669" 
d="M650 608h-85v-325l3 -182h68l13 -57c-54 -29 -95 -52 -182 -52c-52 0 -72 44 -72 82c-31 -34 -75 -81 -143 -81c-111 0 -222 41 -222 260c0 183 130 297 297 297c30 0 52 0 71 -1v59h-170v89h170v67h167v-67h85v-89zM398 284v175c-19 4 -43 8 -74 8
c-91 0 -119 -83 -119 -207c0 -84 52 -139 108 -139c30 0 55 5 81 12z" />
    <glyph glyph-name="Emacron" unicode="&#x112;" horiz-adv-x="672" 
d="M642 175l-28 -175h-587c-5 24 -6 46 -5 65l42 10c23 5 45 15 45 34l3 174v278c0 44 -15 50 -31 57l-55 25v31c0 13 0 23 4 33h576v-167c-16 -4 -53 -6 -70 -6c-14 66 -44 78 -84 78l-169 4v-215l271 5v-102l-271 5v-28l4 -191l129 5c70 3 126 17 155 96zM485 771h-298v99
h298v-99z" />
    <glyph glyph-name="emacron" unicode="&#x113;" horiz-adv-x="588" 
d="M562 251h-358c5 -100 68 -132 155 -132c36 0 91 2 165 18l28 -88c-70 -38 -154 -62 -218 -62c-187 0 -304 53 -304 273c0 143 109 301 286 301c181 0 246 -120 246 -261v-49zM388 324c0 84 -22 149 -90 149c-66 0 -99 -78 -99 -149h189zM464 685h-307v89h307v-89z" />
    <glyph glyph-name="Ebreve" unicode="&#x114;" horiz-adv-x="672" 
d="M642 175l-28 -175h-587c-5 24 -6 46 -5 65l42 10c23 5 45 15 45 34l3 174v278c0 44 -15 50 -31 57l-55 25v31c0 13 0 23 4 33h576v-167c-16 -4 -53 -6 -70 -6c-14 66 -44 78 -84 78l-169 4v-215l271 5v-102l-271 5v-28l4 -191l129 5c70 3 126 17 155 96zM340 746
c-76 0 -143 42 -174 94l54 51c35 -32 80 -55 133 -55c45 0 91 24 118 51l31 -25c-22 -48 -74 -116 -162 -116z" />
    <glyph glyph-name="ebreve" unicode="&#x115;" horiz-adv-x="588" 
d="M562 251h-358c5 -100 68 -132 155 -132c36 0 91 2 165 18l28 -88c-70 -38 -154 -62 -218 -62c-187 0 -304 53 -304 273c0 143 109 301 286 301c181 0 246 -120 246 -261v-49zM388 324c0 84 -22 149 -90 149c-66 0 -99 -78 -99 -149h189zM444 800l31 -25
c-22 -48 -74 -125 -171 -125c-76 0 -139 45 -170 97l59 57c35 -32 80 -55 133 -55c45 0 91 24 118 51z" />
    <glyph glyph-name="Edotaccent" unicode="&#x116;" horiz-adv-x="672" 
d="M642 175l-28 -175h-587c-5 24 -6 46 -5 65l42 10c23 5 45 15 45 34l3 174v278c0 44 -15 50 -31 57l-55 25v31c0 13 0 23 4 33h576v-167c-16 -4 -53 -6 -70 -6c-14 66 -44 78 -84 78l-169 4v-215l271 5v-102l-271 5v-28l4 -191l129 5c70 3 126 17 155 96zM433 840
c0 -15 -76 -97 -98 -97c-21 0 -96 78 -96 97c0 23 76 97 96 97c18 0 98 -77 98 -97z" />
    <glyph glyph-name="edotaccent" unicode="&#x117;" horiz-adv-x="588" 
d="M562 251h-358c5 -100 68 -132 155 -132c36 0 91 2 165 18l28 -88c-70 -38 -154 -62 -218 -62c-187 0 -304 53 -304 273c0 143 109 301 286 301c181 0 246 -120 246 -261v-49zM388 324c0 84 -22 149 -90 149c-66 0 -99 -78 -99 -149h189zM406 730c0 -15 -76 -97 -98 -97
c-21 0 -96 78 -96 97c0 23 76 97 96 97c18 0 98 -77 98 -97z" />
    <glyph glyph-name="Eogonek" unicode="&#x118;" horiz-adv-x="672" 
d="M595 -177l19 -63c-26 -18 -66 -29 -123 -29c-87 0 -138 37 -138 103c0 74 65 125 167 166h-493c-5 24 -6 46 -5 65l42 10c23 5 45 15 45 34l3 174v278c0 44 -15 50 -31 57l-55 25v31c0 13 0 23 4 33h576v-167c-16 -4 -53 -6 -70 -6c-14 66 -44 78 -84 78l-169 4v-215
l271 5v-102l-271 5v-28l4 -191l129 5c70 3 126 17 155 96l71 -16l-28 -175c-66 -32 -145 -78 -145 -142c0 -34 27 -52 60 -52c29 0 50 8 66 17z" />
    <glyph glyph-name="eogonek" unicode="&#x119;" horiz-adv-x="588" 
d="M509 -177l19 -63c-26 -18 -66 -29 -123 -29c-87 0 -140 48 -140 114c0 57 35 105 88 145c-6 -1 -13 -1 -19 -1c-187 0 -304 49 -304 269c0 143 106 303 283 303c181 0 249 -120 249 -261v-49h-358c5 -100 68 -132 155 -132c36 0 91 2 165 18l28 -88
c-91 -45 -169 -80 -169 -177c0 -45 27 -66 60 -66c29 0 50 8 66 17zM388 324c1 84 -25 149 -83 149c-80 0 -103 -86 -106 -149h189z" />
    <glyph glyph-name="Ecaron" unicode="&#x11a;" horiz-adv-x="672" 
d="M642 175l-28 -175h-587c-5 24 -6 46 -5 65l42 10c23 5 45 15 45 34l3 174v278c0 44 -15 50 -31 57l-55 25v31c0 13 0 23 4 33h576v-167c-16 -4 -53 -6 -70 -6c-14 66 -44 78 -84 78l-169 4v-215l271 5v-102l-271 5v-28l4 -191l129 5c70 3 126 17 155 96zM505 933l31 -60
c-78 -47 -136 -85 -204 -144c-55 44 -127 95 -188 134l41 70c54 -21 121 -53 161 -78c42 24 100 54 159 78z" />
    <glyph glyph-name="ecaron" unicode="&#x11b;" horiz-adv-x="588" 
d="M562 251h-358c5 -100 68 -132 155 -132c36 0 91 2 165 18l28 -88c-70 -38 -154 -62 -218 -62c-187 0 -304 53 -304 273c0 143 109 301 286 301c181 0 246 -120 246 -261v-49zM388 324c0 84 -22 149 -90 149c-66 0 -99 -78 -99 -149h189zM513 786
c-82 -61 -148 -127 -206 -192c-49 55 -134 144 -190 184l53 60c53 -31 113 -77 151 -109c33 28 91 71 149 109z" />
    <glyph glyph-name="Gcircumflex" unicode="&#x11c;" horiz-adv-x="755" 
d="M440 -7c-253 0 -405 111 -405 356c0 206 178 370 401 370c109 0 142 -11 237 -47v-174c-17 -2 -35 -2 -64 1c-30 77 -90 120 -177 120c-125 0 -219 -78 -219 -270c0 -175 125 -238 276 -243h17v191h171v-259c-81 -32 -138 -45 -237 -45zM277 729l-31 60
c78 47 136 85 204 144c55 -44 127 -95 188 -134l-41 -70c-54 21 -121 53 -161 78c-42 -24 -100 -54 -159 -78z" />
    <glyph glyph-name="gcircumflex" unicode="&#x11d;" horiz-adv-x="613" 
d="M608 441h-100c6 -17 9 -36 9 -58c0 -120 -101 -186 -242 -186c-39 0 -78 4 -113 14v-80h182c182 0 231 -36 231 -143c0 -136 -157 -211 -330 -211c-110 0 -225 23 -225 121c0 51 45 96 84 110c-28 0 -62 17 -62 68c0 38 31 100 70 156c-45 25 -75 66 -75 129
c0 114 85 198 235 198c68 0 135 -13 181 -46l155 39v-111zM349 378c0 57 -24 98 -78 98c-63 0 -79 -51 -79 -108c0 -51 18 -93 79 -93c56 0 78 42 78 103zM414 -48c0 27 -13 48 -60 48h-188c-10 -11 -21 -26 -21 -48c0 -41 46 -79 162 -79c77 0 107 33 107 79zM145 608
l-43 52c82 61 148 127 206 192c49 -55 134 -144 190 -184l-53 -60c-53 31 -113 77 -151 109c-33 -28 -91 -71 -149 -109z" />
    <glyph glyph-name="Gbreve" unicode="&#x11e;" horiz-adv-x="755" 
d="M440 -7c-253 0 -405 111 -405 356c0 206 178 370 401 370c109 0 142 -11 237 -47v-174c-17 -2 -35 -2 -64 1c-30 77 -90 120 -177 120c-125 0 -219 -78 -219 -270c0 -175 125 -238 276 -243h17v191h171v-259c-81 -32 -138 -45 -237 -45zM432 746c-76 0 -143 42 -174 94
l54 51c35 -32 80 -55 133 -55c45 0 91 24 118 51l31 -25c-22 -48 -74 -116 -162 -116z" />
    <glyph glyph-name="gbreve" unicode="&#x11f;" horiz-adv-x="613" 
d="M608 441h-100c6 -17 9 -36 9 -58c0 -120 -101 -186 -242 -186c-39 0 -78 4 -113 14v-80h182c182 0 231 -36 231 -143c0 -136 -157 -211 -330 -211c-110 0 -225 23 -225 121c0 51 45 96 84 110c-28 0 -62 17 -62 68c0 38 31 100 70 156c-45 25 -75 66 -75 129
c0 114 85 198 235 198c68 0 135 -13 181 -46l155 39v-111zM349 378c0 57 -24 98 -78 98c-63 0 -79 -51 -79 -108c0 -51 18 -93 79 -93c56 0 78 42 78 103zM414 -48c0 27 -13 48 -60 48h-188c-10 -11 -21 -26 -21 -48c0 -41 46 -79 162 -79c77 0 107 33 107 79zM412 800
l31 -25c-22 -48 -74 -125 -171 -125c-76 0 -139 45 -170 97l59 57c35 -32 80 -55 133 -55c45 0 91 24 118 51z" />
    <glyph glyph-name="Gdotaccent" unicode="&#x120;" horiz-adv-x="755" 
d="M440 -7c-253 0 -405 111 -405 356c0 206 178 370 401 370c109 0 142 -11 237 -47v-174c-17 -2 -35 -2 -64 1c-30 77 -90 120 -177 120c-125 0 -219 -78 -219 -270c0 -175 125 -238 276 -243h17v191h171v-259c-81 -32 -138 -45 -237 -45zM543 840c0 -15 -76 -97 -98 -97
c-21 0 -96 78 -96 97c0 23 76 97 96 97c18 0 98 -77 98 -97z" />
    <glyph glyph-name="gdotaccent" unicode="&#x121;" horiz-adv-x="613" 
d="M608 441h-100c6 -17 9 -36 9 -58c0 -120 -101 -186 -242 -186c-39 0 -78 4 -113 14v-80h182c182 0 231 -36 231 -143c0 -136 -157 -211 -330 -211c-110 0 -225 23 -225 121c0 51 45 96 84 110c-28 0 -62 17 -62 68c0 38 31 100 70 156c-45 25 -75 66 -75 129
c0 114 85 198 235 198c68 0 135 -13 181 -46l155 39v-111zM349 378c0 57 -24 98 -78 98c-63 0 -79 -51 -79 -108c0 -51 18 -93 79 -93c56 0 78 42 78 103zM414 -48c0 27 -13 48 -60 48h-188c-10 -11 -21 -26 -21 -48c0 -41 46 -79 162 -79c77 0 107 33 107 79zM366 730
c0 -15 -76 -97 -98 -97c-21 0 -96 78 -96 97c0 23 76 97 96 97c18 0 98 -77 98 -97z" />
    <glyph glyph-name="Gcommaaccent" unicode="&#x122;" horiz-adv-x="755" 
d="M440 -7c-253 0 -405 111 -405 356c0 206 178 370 401 370c109 0 142 -11 237 -47v-174c-17 -2 -35 -2 -64 1c-30 77 -90 120 -177 120c-125 0 -219 -78 -219 -270c0 -175 125 -238 276 -243h17v191h171v-259c-81 -32 -138 -45 -237 -45zM385 -60l126 -5
c-4 -88 -37 -175 -73 -241l-77 10c18 83 24 147 24 236z" />
    <glyph glyph-name="gcommaaccent" unicode="&#x123;" horiz-adv-x="613" 
d="M608 441h-100c6 -17 9 -36 9 -58c0 -120 -101 -186 -242 -186c-39 0 -78 4 -113 14v-80h182c182 0 231 -36 231 -143c0 -136 -157 -211 -330 -211c-110 0 -225 23 -225 121c0 51 45 96 84 110c-28 0 -62 17 -62 68c0 38 31 100 70 156c-45 25 -75 66 -75 129
c0 114 85 198 235 198c68 0 135 -13 181 -46l155 39v-111zM349 378c0 57 -24 98 -78 98c-63 0 -79 -51 -79 -108c0 -51 18 -93 79 -93c56 0 78 42 78 103zM414 -48c0 27 -13 48 -60 48h-188c-10 -11 -21 -26 -21 -48c0 -41 46 -79 162 -79c77 0 107 33 107 79zM333 619
l-126 5c4 88 37 175 73 241l77 -10c-18 -83 -24 -147 -24 -236z" />
    <glyph glyph-name="Hcircumflex" unicode="&#x124;" horiz-adv-x="882" 
d="M850 56c0 -29 -2 -41 -7 -56h-341c-3 14 -5 29 -5 56l64 25c17 7 28 20 28 42l2 159v27h-310v-28l3 -166c0 -30 10 -37 45 -45l56 -13c0 -24 -3 -44 -7 -57h-341c-3 16 -5 35 -5 57l45 18c28 11 33 14 33 50l1 157v313c0 29 -10 35 -34 44l-39 15c0 22 -1 33 5 53h313
c5 -18 5 -32 5 -52l-47 -16c-21 -7 -33 -23 -33 -57v-182h310v194c0 34 -13 40 -34 46l-46 14c-3 22 -3 35 1 53h318c4 -20 3 -38 3 -52l-43 -17c-17 -7 -29 -17 -29 -44v-313l3 -150c0 -33 6 -47 23 -53zM281 729l-31 60c78 47 136 85 204 144c55 -44 127 -95 188 -134
l-41 -70c-54 21 -121 53 -161 78c-42 -24 -100 -54 -159 -78z" />
    <glyph glyph-name="hcircumflex" unicode="&#x125;" horiz-adv-x="722" 
d="M702 61c0 -37 -2 -45 -8 -61h-285c-4 21 -6 35 -4 61l35 16c17 8 19 21 19 36l2 161v52c0 60 -1 117 -73 117c-43 0 -93 -6 -123 -17v-152l2 -147c0 -20 3 -38 16 -45l36 -19c0 -35 -1 -43 -6 -63h-287c-6 24 -4 31 -4 59l49 16c19 6 24 14 24 39l3 160v397h-78v74
c66 14 153 21 202 21c29 0 39 -12 39 -35v-239c38 29 94 67 180 67c185 0 187 -76 187 -179v-106l3 -165c1 -18 3 -29 14 -32zM12 779l-31 60c78 47 136 85 204 144c55 -44 127 -95 188 -134l-41 -70c-54 21 -121 53 -161 78c-42 -24 -100 -54 -159 -78z" />
    <glyph glyph-name="Hbar" unicode="&#x126;" horiz-adv-x="882" 
d="M37 0c-3 16 -5 35 -5 57l45 18c28 11 33 14 33 50l1 157v197h-77v79h77v37c0 29 -10 35 -34 44l-39 15c0 22 -1 33 5 53h313c5 -18 5 -32 5 -52l-47 -16c-21 -7 -33 -23 -33 -57v-24h310v36c0 34 -13 40 -34 46l-46 14c-3 22 -3 35 1 53h318c4 -20 3 -38 3 -52l-43 -17
c-17 -7 -29 -17 -29 -44v-36h75v-79h-75v-198l3 -150c0 -33 6 -47 23 -53l63 -22c0 -29 -2 -41 -7 -56h-341c-3 14 -5 29 -5 56l64 25c17 7 28 20 28 42l2 159v27h-310v-28l3 -166c0 -30 10 -37 45 -45l56 -13c0 -24 -3 -44 -7 -57h-341zM281 400h310v79h-310v-79z" />
    <glyph glyph-name="hbar" unicode="&#x127;" horiz-adv-x="722" 
d="M702 61c0 -37 -2 -45 -8 -61h-285c-4 21 -6 35 -4 61l35 16c17 8 19 21 19 36l2 161v53c0 60 -1 117 -73 117c-43 0 -93 -6 -123 -17v-153l2 -147c0 -20 3 -38 16 -45l36 -19c0 -35 -1 -43 -6 -63h-287c-6 24 -4 31 -4 59l49 16c19 6 24 14 24 39l3 160v334h-81v89h81v67
l163 -1v-66h178v-89h-178v-115c38 29 94 67 180 67c185 0 187 -76 187 -179v-107l3 -165c1 -18 3 -29 14 -32z" />
    <glyph glyph-name="Itilde" unicode="&#x128;" horiz-adv-x="394" 
d="M369 68c0 -24 0 -42 -7 -68h-334c-3 12 -4 21 -4 31c0 9 1 19 1 30l36 10c20 7 47 24 48 56l3 154v291c0 33 -32 50 -51 58l-36 16c0 11 -1 20 -1 29s1 19 4 32h338c2 -26 1 -49 -3 -68l-44 -11c-29 -8 -36 -35 -36 -54v-293l2 -169c1 -19 5 -24 23 -30zM276 751
c-42 0 -155 37 -189 37c-24 0 -45 -9 -65 -23l-29 37c37 45 72 91 128 91c52 0 152 -34 180 -34c38 0 53 8 64 20l31 -33c-28 -49 -57 -95 -120 -95z" />
    <glyph glyph-name="itilde" unicode="&#x129;" horiz-adv-x="377" 
d="M357 63c0 -26 -1 -43 -6 -63h-327c-3 13 -4 35 -4 63l59 17c19 5 24 15 24 39l3 155v192h-86v75c66 14 152 21 201 21c33 0 53 -8 53 -48v-240l1 -147c1 -31 6 -42 16 -45zM387 741c-33 -47 -57 -95 -120 -95c-42 0 -155 37 -189 37c-24 0 -45 -9 -65 -23l-29 37
c37 45 72 91 128 91c52 0 152 -34 180 -34c44 0 64 20 64 20z" />
    <glyph glyph-name="Imacron" unicode="&#x12a;" horiz-adv-x="394" 
d="M369 68c0 -24 0 -42 -7 -68h-334c-3 12 -4 21 -4 31c0 9 1 19 1 30l36 10c20 7 47 24 48 56l3 154v291c0 33 -32 50 -51 58l-36 16c0 11 -1 20 -1 29s1 19 4 32h338c2 -26 1 -49 -3 -68l-44 -11c-29 -8 -36 -35 -36 -54v-293l2 -169c1 -19 5 -24 23 -30zM346 771h-298v99
h298v-99z" />
    <glyph glyph-name="imacron" unicode="&#x12b;" horiz-adv-x="377" 
d="M357 63c0 -26 -1 -43 -6 -63h-327c-3 13 -4 35 -4 63l59 17c19 5 24 15 24 39l3 155v192h-86v75c66 14 152 21 201 21c33 0 53 -8 53 -48v-240l1 -147c1 -31 6 -42 16 -45zM328 685h-307v89h307v-89z" />
    <glyph glyph-name="Ibreve" unicode="&#x12c;" horiz-adv-x="394" 
d="M369 68c0 -24 0 -42 -7 -68h-334c-3 12 -4 21 -4 31c0 9 1 19 1 30l36 10c20 7 47 24 48 56l3 154v291c0 33 -32 50 -51 58l-36 16c0 11 -1 20 -1 29s1 19 4 32h338c2 -26 1 -49 -3 -68l-44 -11c-29 -8 -36 -35 -36 -54v-293l2 -169c1 -19 5 -24 23 -30zM201 746
c-76 0 -143 42 -174 94l54 51c35 -32 80 -55 133 -55c45 0 91 24 118 51l31 -25c-22 -48 -74 -116 -162 -116z" />
    <glyph glyph-name="ibreve" unicode="&#x12d;" horiz-adv-x="377" 
d="M357 63c0 -26 -1 -43 -6 -63h-327c-3 13 -4 35 -4 63l59 17c19 5 24 15 24 39l3 155v192h-86v75c66 14 152 21 201 21c33 0 53 -8 53 -48v-240l1 -147c1 -31 6 -42 16 -45zM318 800l31 -25c-22 -48 -74 -125 -171 -125c-76 0 -139 45 -170 97l59 57
c35 -32 80 -55 133 -55c45 0 91 24 118 51z" />
    <glyph glyph-name="Iogonek" unicode="&#x12e;" horiz-adv-x="394" 
d="M185 -177l19 -63c-26 -18 -66 -29 -123 -29c-87 0 -140 48 -140 114c0 94 46 145 118 201c17 13 49 49 50 81l3 154v291c0 33 -32 50 -51 58l-36 16c0 11 -1 20 -1 29s1 19 4 32h338c2 -26 1 -49 -3 -68l-44 -11c-29 -8 -36 -35 -36 -54v-293l2 -169c1 -19 5 -24 23 -30
l61 -14c0 -24 0 -42 -7 -68h-122c-99 0 -181 -36 -181 -128c1 -45 27 -66 60 -66c29 0 50 8 66 17z" />
    <glyph glyph-name="iogonek" unicode="&#x12f;" horiz-adv-x="377" 
d="M180 -177l19 -63c-26 -18 -66 -29 -123 -29c-87 0 -140 48 -140 114c0 84 44 146 121 185c28 14 45 39 46 89l3 155v192h-86v75c66 14 152 21 201 21c33 0 53 -8 53 -48v-240l1 -147c1 -31 6 -42 16 -45l66 -19c0 -26 -1 -43 -6 -63h-147c-103 0 -150 -59 -150 -128
c0 -45 27 -66 60 -66c29 0 50 8 66 17zM283 730c0 -15 -76 -97 -98 -97c-21 0 -96 78 -96 97c0 23 76 97 96 97c18 0 98 -77 98 -97z" />
    <glyph glyph-name="Idotaccent" unicode="&#x130;" horiz-adv-x="394" 
d="M369 68c0 -24 0 -42 -7 -68h-334c-3 12 -4 21 -4 31c0 9 1 19 1 30l36 10c20 7 47 24 48 56l3 154v291c0 33 -32 50 -51 58l-36 16c0 11 -1 20 -1 29s1 19 4 32h338c2 -26 1 -49 -3 -68l-44 -11c-29 -8 -36 -35 -36 -54v-293l2 -169c1 -19 5 -24 23 -30zM294 840
c0 -15 -76 -97 -98 -97c-21 0 -96 78 -96 97c0 23 76 97 96 97c18 0 98 -77 98 -97z" />
    <glyph glyph-name="dotlessi" unicode="&#x131;" horiz-adv-x="377" 
d="M357 63c0 -26 -1 -43 -6 -63h-327c-3 13 -4 35 -4 63l59 17c19 5 24 15 24 39l3 155v192h-86v75c66 14 152 21 201 21c33 0 53 -8 53 -48v-240l1 -147c1 -31 6 -42 16 -45z" />
    <glyph glyph-name="IJ" unicode="&#x132;" horiz-adv-x="792" 
d="M369 68c0 -24 0 -42 -7 -68h-334c-3 12 -4 21 -4 31c0 9 1 19 1 30l36 10c20 7 47 24 48 56l3 154v291c0 33 -32 50 -51 58l-36 16c0 11 -1 20 -1 29s1 19 4 32h338c2 -26 1 -49 -3 -68l-44 -11c-29 -8 -36 -35 -36 -54v-293l2 -169c1 -19 5 -24 23 -30zM762 643l-47 -12
c-31 -8 -38 -15 -38 -44v-489c0 -148 -149 -227 -260 -274l-50 91c117 72 138 91 138 231v411c0 27 -16 63 -48 74l-44 15c0 23 1 50 4 61h342c3 -15 4 -51 3 -64z" />
    <glyph glyph-name="ij" unicode="&#x133;" horiz-adv-x="760" 
d="M24 0c-3 13 -4 35 -4 63l59 17c19 5 24 15 24 39l3 155v189h-86v75c66 14 152 21 201 21c33 0 53 -8 53 -48v-237l1 -147c1 -31 6 -42 16 -45l66 -19c0 -26 -1 -43 -6 -63h-327zM185 633c-21 0 -96 78 -96 97c0 23 76 97 96 97c18 0 98 -77 98 -97c0 -15 -76 -97 -98 -97
zM419 -225c-38 0 -78 7 -108 23l48 133c34 -18 51 -24 84 -24c31 0 56 18 56 83v473h-83v75c66 14 149 21 198 21c33 0 52 -8 52 -48v-237l-1 -200c-1 -148 -154 -299 -246 -299zM581 633c-21 0 -96 78 -96 97c0 23 76 97 96 97c18 0 98 -77 98 -97c0 -15 -76 -97 -98 -97z
" />
    <glyph glyph-name="Jcircumflex" unicode="&#x134;" horiz-adv-x="398" 
d="M368 643l-47 -12c-31 -8 -38 -15 -38 -44v-489c0 -148 -149 -227 -260 -274l-50 91c117 72 138 91 138 231v411c0 27 -16 63 -48 74l-44 15c0 23 1 50 4 61h342c3 -15 4 -51 3 -64zM34 729l-31 60c78 47 136 85 204 144c55 -44 127 -95 188 -134l-41 -70
c-54 21 -121 53 -161 78c-42 -24 -100 -54 -159 -78z" />
    <glyph glyph-name="jcircumflex" unicode="&#x135;" horiz-adv-x="371" 
d="M19 608l-43 52c82 61 148 127 206 192c49 -55 134 -144 190 -184l-53 -60c-53 31 -113 77 -151 109c-33 -28 -91 -71 -149 -109zM37 -225c-38 0 -78 7 -108 23l48 133c34 -18 51 -24 84 -24c31 0 56 18 56 83v476h-83v75c66 14 149 21 198 21c33 0 52 -8 52 -48v-240
l-1 -200c-1 -148 -154 -299 -246 -299z" />
    <glyph glyph-name="Kcommaaccent" unicode="&#x136;" horiz-adv-x="768" 
d="M751 -12c-44 0 -179 8 -255 94l-213 239v-40l2 -169c1 -19 4 -26 23 -30l61 -14c0 -24 0 -42 -7 -68h-334c-4 22 -3 39 -3 61l36 10c20 7 47 24 48 56l3 154v291c0 33 -32 50 -51 58l-36 16c0 22 -1 38 4 61h337c2 -26 1 -49 -3 -68l-44 -11c-29 -7 -36 -35 -36 -54v-208
l198 189c10 9 15 21 15 32c0 19 -8 36 -20 42l-28 15c0 23 -1 38 5 63h283v-49l-308 -268l145 -148c61 -63 124 -125 195 -174zM357 -60l126 -5c-4 -88 -37 -175 -73 -241l-77 10c18 83 24 147 24 236z" />
    <glyph glyph-name="kcommaaccent" unicode="&#x137;" horiz-adv-x="660" 
d="M659 64l-22 -85c-141 11 -208 57 -276 151l-87 121l1 -124c1 -20 5 -35 16 -45l25 -23c0 -35 -1 -39 -6 -59h-286c-6 24 -4 31 -4 59l59 16c20 5 24 14 24 39l3 160v394h-83v75c66 14 149 21 198 21c33 0 53 -8 53 -48v-415l145 127c10 8 14 13 14 26c0 11 -7 20 -16 24
l-33 17c0 18 0 34 5 51h231v-54l-209 -166l98 -121c57 -69 100 -122 150 -141zM306 -60l126 -5c-4 -88 -37 -175 -73 -241l-77 10c18 83 24 147 24 236z" />
    <glyph glyph-name="Lacute" unicode="&#x139;" horiz-adv-x="643" 
d="M632 220l-40 -220h-565c-3 18 -3 39 -3 61l36 10c20 7 47 24 48 56l3 154v291c0 33 -32 50 -51 58l-36 16c0 22 0 41 4 61h337c0 -26 0 -49 -4 -68l-43 -11c-29 -8 -36 -35 -36 -54v-293l3 -191l146 12c57 4 107 87 125 133zM112 743l-20 75c89 31 203 72 285 116
l47 -110c-82 -30 -213 -62 -312 -81z" />
    <glyph glyph-name="lacute" unicode="&#x13a;" horiz-adv-x="382" 
d="M366 63c0 -35 -1 -43 -6 -63h-327c-6 24 -4 31 -4 59l59 16c19 5 24 14 24 39l3 160v394h-83v75c52 13 149 21 198 21c33 0 53 -8 53 -48v-442l1 -147c1 -20 2 -41 16 -45zM80 786l-20 75c89 31 203 72 285 116l47 -110c-82 -30 -213 -62 -312 -81z" />
    <glyph glyph-name="Lcommaaccent" unicode="&#x13b;" horiz-adv-x="643" 
d="M632 220l-40 -220h-565c-3 18 -3 39 -3 61l36 10c20 7 47 24 48 56l3 154v291c0 33 -32 50 -51 58l-36 16c0 22 0 41 4 61h337c0 -26 0 -49 -4 -68l-43 -11c-29 -8 -36 -35 -36 -54v-293l3 -191l146 12c57 4 107 87 125 133zM264 -60l126 -5c-4 -88 -37 -175 -73 -241
l-77 10c18 83 24 147 24 236z" />
    <glyph glyph-name="lcommaaccent" unicode="&#x13c;" horiz-adv-x="382" 
d="M366 63c0 -35 -1 -43 -6 -63h-327c-6 24 -4 31 -4 59l59 16c19 5 24 14 24 39l3 160v394h-83v75c52 13 149 21 198 21c33 0 53 -8 53 -48v-442l1 -147c1 -20 2 -41 16 -45zM142 -60l126 -5c-4 -88 -37 -175 -73 -241l-77 10c18 83 24 147 24 236z" />
    <glyph glyph-name="Lcaron" unicode="&#x13d;" horiz-adv-x="643" 
d="M632 220l-40 -220h-565c-3 18 -3 39 -3 61l36 10c20 7 47 24 48 56l3 154v291c0 33 -32 50 -51 58l-36 16c0 22 0 41 4 61h337c0 -26 0 -49 -4 -68l-43 -11c-29 -8 -36 -35 -36 -54v-293l3 -191l146 12c57 4 107 87 125 133zM459 845l126 -5c-4 -88 -37 -175 -73 -241
l-77 10c18 83 24 147 24 236z" />
    <glyph glyph-name="lcaron" unicode="&#x13e;" horiz-adv-x="468" 
d="M366 63c0 -35 -1 -43 -6 -63h-327c-6 24 -4 31 -4 59l59 16c19 5 24 14 24 39l3 160v394h-83v75c52 13 149 21 198 21c33 0 53 -8 53 -48v-442l1 -147c1 -20 2 -41 16 -45zM363 842l126 -5c-4 -88 -37 -175 -73 -241l-77 10c18 83 24 147 24 236z" />
    <glyph glyph-name="Ldot" unicode="&#x13f;" horiz-adv-x="643" 
d="M632 220l-40 -220h-565c-3 18 -3 39 -3 61l36 10c20 7 47 24 48 56l3 154v291c0 33 -32 50 -51 58l-36 16c0 22 0 41 4 61h337c0 -26 0 -49 -4 -68l-43 -11c-29 -8 -36 -35 -36 -54v-293l3 -191l146 12c57 4 107 87 125 133zM521 320c-21 0 -96 76 -96 96s74 95 96 95
c23 0 95 -75 95 -95s-73 -96 -95 -96z" />
    <glyph glyph-name="ldot" unicode="&#x140;" horiz-adv-x="554" 
d="M366 63c0 -35 -1 -43 -6 -63h-327c-6 24 -4 31 -4 59l59 16c19 5 24 14 24 39l3 160v394h-83v75c52 13 149 21 198 21c33 0 53 -8 53 -48v-442l1 -147c1 -20 2 -41 16 -45zM463 252c-23 0 -106 84 -106 106s82 105 106 105c25 0 105 -83 105 -105s-81 -106 -105 -106z
" />
    <glyph glyph-name="Lslash" unicode="&#x141;" horiz-adv-x="643" 
d="M633 220l-40 -220h-565c-3 18 -3 39 -3 61l36 10c20 7 47 24 48 56l3 154v13l-85 -44l1 72l84 46v204c0 33 -32 50 -51 58l-36 16c0 22 0 41 4 61h337c0 -26 0 -49 -4 -68l-43 -11c-29 -8 -36 -35 -36 -54v-111l157 88v-88l-157 -81v-101l3 -191l146 12
c57 4 107 87 125 133z" />
    <glyph glyph-name="lslash" unicode="&#x142;" horiz-adv-x="382" 
d="M375 432l-92 -49v-109l1 -147c1 -20 2 -41 16 -45l66 -19c0 -35 -1 -43 -6 -63h-327c-6 24 -4 31 -4 59l59 16c19 5 24 14 24 39l3 160v20l-90 -48v72l90 52v298h-83v75c52 13 149 21 198 21c33 0 53 -8 53 -48v-249l92 53v-88z" />
    <glyph glyph-name="Nacute" unicode="&#x143;" horiz-adv-x="856" 
d="M831 656l-49 -27c-22 -12 -41 -40 -41 -69v-550l-131 -40l-384 520h-7l4 -80v-137l3 -151c0 -24 2 -32 24 -38l85 -24c0 -9 -1 -49 -5 -60h-301c-3 15 -5 46 -4 59l48 13c31 8 47 57 48 89l2 112v299c0 22 -13 42 -29 51l-61 31c0 9 -1 42 2 53h232l373 -492h7l-6 105
v239c0 25 -17 54 -37 64l-63 31c0 9 0 42 4 53h282c2 -15 4 -38 4 -51zM327 743l-20 75c89 31 203 72 285 116l47 -110c-82 -30 -213 -62 -312 -81z" />
    <glyph glyph-name="nacute" unicode="&#x144;" horiz-adv-x="722" 
d="M702 61c0 -37 -2 -45 -8 -61h-285c-4 21 -6 35 -4 61l35 16c17 8 19 21 19 36l2 161v51c0 60 -1 117 -73 117c-43 0 -93 -6 -123 -17v-151l2 -147c0 -20 2 -39 16 -45l46 -19c0 -35 -1 -43 -6 -63h-297c-2 15 -3 39 -3 59l48 16c19 6 24 14 24 39l3 160v190h-78v74
c66 14 153 21 202 21c29 0 39 -12 39 -35v-33c38 29 94 67 180 67c185 0 187 -76 187 -179v-105l3 -165c1 -18 3 -29 14 -32zM487 859l75 -94c-97 -68 -175 -118 -274 -156l-37 58c95 63 159 118 236 192z" />
    <glyph glyph-name="Ncommaaccent" unicode="&#x145;" horiz-adv-x="856" 
d="M831 656l-49 -27c-22 -12 -41 -40 -41 -69v-550l-131 -40l-384 520h-7l4 -80v-137l3 -151c0 -24 2 -32 24 -38l85 -24c0 -9 -1 -49 -5 -60h-301c-3 15 -5 46 -4 59l48 13c31 8 47 57 48 89l2 112v299c0 22 -13 42 -29 51l-61 31c0 9 -1 42 2 53h232l373 -492h7l-6 105
v239c0 25 -17 54 -37 64l-63 31c0 9 0 42 4 53h282c2 -15 4 -38 4 -51zM392 -60l126 -5c-4 -88 -37 -175 -73 -241l-77 10c18 83 24 147 24 236z" />
    <glyph glyph-name="ncommaaccent" unicode="&#x146;" horiz-adv-x="722" 
d="M702 61c0 -37 -2 -45 -8 -61h-285c-4 21 -6 35 -4 61l35 16c17 8 19 21 19 36l2 161v51c0 60 -1 117 -73 117c-43 0 -93 -6 -123 -17v-151l2 -147c0 -20 2 -39 16 -45l46 -19c0 -35 -1 -43 -6 -63h-297c-2 15 -3 39 -3 59l48 16c19 6 24 14 24 39l3 160v190h-78v74
c66 14 153 21 202 21c29 0 39 -12 39 -35v-33c38 29 94 67 180 67c185 0 187 -76 187 -179v-105l3 -165c1 -18 3 -29 14 -32zM312 -60l126 -5c-4 -88 -37 -175 -73 -241l-77 10c18 83 24 147 24 236z" />
    <glyph glyph-name="Ncaron" unicode="&#x147;" horiz-adv-x="856" 
d="M831 656l-49 -27c-22 -12 -41 -40 -41 -69v-550l-131 -40l-384 520h-7l4 -80v-137l3 -151c0 -24 2 -32 24 -38l85 -24c0 -9 -1 -49 -5 -60h-301c-3 15 -5 46 -4 59l48 13c31 8 47 57 48 89l2 112v299c0 22 -13 42 -29 51l-61 31c0 9 -1 42 2 53h232l373 -492h7l-6 105
v239c0 25 -17 54 -37 64l-63 31c0 9 0 42 4 53h282c2 -15 4 -38 4 -51zM597 933l31 -60c-78 -47 -136 -85 -204 -144c-55 44 -127 95 -188 134l41 70c54 -21 121 -53 161 -78c42 24 100 54 159 78z" />
    <glyph glyph-name="ncaron" unicode="&#x148;" horiz-adv-x="722" 
d="M702 61c0 -37 -2 -45 -8 -61h-285c-4 21 -6 35 -4 61l35 16c17 8 19 21 19 36l2 161v51c0 60 -1 117 -73 117c-43 0 -93 -6 -123 -17v-151l2 -147c0 -20 2 -39 16 -45l46 -19c0 -35 -1 -43 -6 -63h-297c-2 15 -3 39 -3 59l48 16c19 6 24 14 24 39l3 160v190h-78v74
c66 14 153 21 202 21c29 0 39 -12 39 -35v-33c38 29 94 67 180 67c185 0 187 -76 187 -179v-105l3 -165c1 -18 3 -29 14 -32zM560 786c-82 -61 -148 -127 -206 -192c-49 55 -134 144 -190 184l53 60c53 -31 113 -77 151 -109c33 28 91 71 149 109z" />
    <glyph glyph-name="napostrophe" unicode="&#x149;" horiz-adv-x="881" 
d="M861 61c0 -37 -2 -45 -8 -61h-285c-4 21 -6 35 -4 61l35 16c17 8 19 21 19 36l2 161v51c0 60 -1 117 -73 117c-43 0 -93 -6 -123 -17v-151l2 -147c0 -20 2 -39 16 -45l46 -19c0 -35 -1 -43 -6 -63h-297c-2 15 -3 39 -3 59l48 16c19 6 24 14 24 39l3 160v190h-78v74
c66 14 153 21 202 21c29 0 39 -12 39 -35v-33c38 29 94 67 180 67c185 0 187 -76 187 -179v-105l3 -165c1 -18 3 -29 14 -32zM163 617c0 -86 -86 -178 -170 -228l-44 41c26 27 65 75 74 111c-29 24 -67 72 -67 86c0 31 75 103 102 103c36 0 105 -75 105 -113z" />
    <glyph glyph-name="Eng" unicode="&#x14a;" horiz-adv-x="856" 
d="M831 656l-49 -27c-22 -12 -41 -40 -41 -69v-288l5 -263c3 -136 -84 -221 -186 -221c-28 0 -47 3 -60 8l9 85s34 -8 63 -8c71 0 70 25 70 107l-32 -10l-384 520h-7l4 -80v-137l3 -151c0 -24 2 -32 24 -38l85 -24c0 -9 -1 -49 -5 -60h-301c-3 15 -5 46 -4 59l48 13
c31 8 47 57 48 89l2 112v299c0 22 -13 42 -29 51l-61 31c0 9 -1 42 2 53h232l373 -492h7l-6 105v239c0 25 -17 54 -37 64l-63 31c0 9 0 42 4 53h282c2 -15 4 -38 4 -51z" />
    <glyph glyph-name="eng" unicode="&#x14b;" horiz-adv-x="722" 
d="M445 -218c-31 0 -90 2 -140 18l17 98c19 -3 45 -5 71 -5c44 0 68 8 68 83v351c0 60 -1 117 -73 117c-43 0 -93 -6 -123 -17v-153l2 -147c0 -20 2 -39 16 -45l46 -19c0 -35 -1 -43 -6 -63h-297c-2 15 -3 39 -3 59l48 16c19 6 24 14 24 39l3 160v192h-78v74
c66 14 153 21 202 21c29 0 39 -12 39 -35v-33c38 29 94 67 180 67c185 0 187 -76 187 -179v-107l5 -235c1 -98 -54 -257 -188 -257z" />
    <glyph glyph-name="Omacron" unicode="&#x14c;" horiz-adv-x="838" 
d="M803 383c0 -214 -152 -395 -402 -395c-244 0 -366 119 -366 331c0 222 166 399 405 399c253 0 363 -131 363 -335zM613 354c0 141 -51 259 -192 259c-149 0 -196 -118 -196 -257c0 -138 46 -261 189 -261c155 0 199 117 199 259zM578 771h-298v99h298v-99z" />
    <glyph glyph-name="omacron" unicode="&#x14d;" horiz-adv-x="633" 
d="M603 280c0 -144 -124 -293 -293 -293c-175 0 -280 91 -280 278c0 144 126 296 289 296c189 0 284 -97 284 -281zM425 270c0 89 -20 192 -117 192c-96 0 -102 -111 -102 -183c0 -94 25 -191 120 -191c79 0 99 83 99 182zM466 685h-307v89h307v-89z" />
    <glyph glyph-name="Obreve" unicode="&#x14e;" horiz-adv-x="838" 
d="M803 383c0 -214 -152 -395 -402 -395c-244 0 -366 119 -366 331c0 222 166 399 405 399c253 0 363 -131 363 -335zM613 354c0 141 -51 259 -192 259c-149 0 -196 -118 -196 -257c0 -138 46 -261 189 -261c155 0 199 117 199 259zM423 746c-76 0 -143 42 -174 94l54 51
c35 -32 80 -55 133 -55c45 0 91 24 118 51l31 -25c-22 -48 -74 -116 -162 -116z" />
    <glyph glyph-name="obreve" unicode="&#x14f;" horiz-adv-x="633" 
d="M603 280c0 -144 -124 -293 -293 -293c-175 0 -280 91 -280 278c0 144 126 296 289 296c189 0 284 -97 284 -281zM425 270c0 89 -20 192 -117 192c-96 0 -102 -111 -102 -183c0 -94 25 -191 120 -191c79 0 99 83 99 182zM456 800l31 -25c-22 -48 -74 -125 -171 -125
c-76 0 -139 45 -170 97l59 57c35 -32 80 -55 133 -55c45 0 91 24 118 51z" />
    <glyph glyph-name="Ohungarumlaut" unicode="&#x150;" horiz-adv-x="838" 
d="M803 383c0 -214 -152 -395 -402 -395c-244 0 -366 119 -366 331c0 222 166 399 405 399c253 0 363 -131 363 -335zM613 354c0 141 -51 259 -192 259c-149 0 -196 -118 -196 -257c0 -138 46 -261 189 -261c155 0 199 117 199 259zM273 738l-59 51c57 76 108 142 152 224
l100 -65c-51 -71 -120 -141 -193 -210zM453 736l-20 75c89 31 203 72 285 116l47 -110c-82 -30 -213 -62 -312 -81z" />
    <glyph glyph-name="ohungarumlaut" unicode="&#x151;" horiz-adv-x="633" 
d="M603 280c0 -144 -124 -293 -293 -293c-175 0 -280 91 -280 278c0 144 126 296 289 296c189 0 284 -97 284 -281zM425 270c0 89 -20 192 -117 192c-96 0 -102 -111 -102 -183c0 -94 25 -191 120 -191c79 0 99 83 99 182zM171 602l-45 50c78 73 123 121 187 204l85 -78
c-82 -83 -137 -121 -227 -176zM408 602l-36 53c95 63 145 104 217 177l74 -93c-83 -63 -156 -99 -255 -137z" />
    <glyph glyph-name="OE" unicode="&#x152;" horiz-adv-x="1101" 
d="M1071 175l-27 -175h-520c-35 -8 -72 -12 -113 -12c-244 0 -376 149 -376 361c0 222 156 369 395 369c40 0 76 -4 109 -11h486v-167c-22 -6 -45 -8 -70 -6c-14 66 -44 78 -84 78l-169 4v-215l291 5v-102l-291 5v-28l4 -191l139 5c70 3 126 17 155 96zM531 283v278
c0 8 -1 14 -1 19c-28 21 -64 33 -109 33c-149 0 -196 -118 -196 -257c0 -138 46 -261 189 -261c48 0 86 11 114 31z" />
    <glyph glyph-name="oe" unicode="&#x153;" horiz-adv-x="984" 
d="M958 244h-358c5 -100 68 -122 155 -122c36 0 91 -1 165 15l28 -88c-70 -38 -154 -57 -218 -57c-106 0 -186 15 -236 67c-48 -41 -111 -67 -184 -67c-175 0 -280 91 -280 278c0 144 126 289 289 289c96 0 165 -26 210 -75c45 44 107 72 183 72c181 0 246 -122 246 -263
v-49zM784 317c1 84 -30 151 -80 151c-80 0 -109 -67 -109 -151h189zM425 280c0 89 -20 182 -117 182c-96 0 -102 -121 -102 -193c0 -94 25 -180 120 -180c79 0 99 92 99 191z" />
    <glyph glyph-name="Racute" unicode="&#x154;" horiz-adv-x="790" 
d="M802 55l-5 -79c-17 -2 -34 -3 -51 -3c-71 0 -140 17 -208 74c-59 49 -111 139 -153 234l-21 -1h-79l3 -158c0 -20 4 -30 21 -35l62 -21c0 -9 0 -55 -4 -66h-340c-2 15 -4 49 -3 62l48 11c23 5 38 35 39 62l3 138v306c0 16 -8 33 -24 40l-65 26c-1 8 0 49 5 62h392
c141 0 270 -55 270 -203c0 -70 -42 -144 -123 -187c22 -46 53 -106 93 -158c39 -51 85 -93 140 -104zM502 487c0 87 -55 132 -174 132h-44v-257l73 1c106 1 145 37 145 124zM260 743l-20 75c89 31 203 72 285 116l47 -110c-82 -30 -213 -62 -312 -81z" />
    <glyph glyph-name="racute" unicode="&#x155;" horiz-adv-x="526" 
d="M522 526l-54 -138c-39 23 -76 29 -103 29c-43 0 -75 -9 -92 -18v-124l3 -150c1 -18 4 -22 13 -24l130 -30c0 -28 -1 -54 -8 -71h-386c-8 43 -5 46 -5 62l43 12c29 9 40 10 41 45l2 156v189h-83v74c57 11 134 21 196 21c22 0 50 -7 50 -40v-38c27 35 75 76 137 76
c51 0 86 -12 116 -31zM389 859l75 -94c-97 -68 -175 -118 -274 -156l-37 58c95 63 159 118 236 192z" />
    <glyph glyph-name="Rcommaaccent" unicode="&#x156;" horiz-adv-x="790" 
d="M802 55l-5 -79c-17 -2 -34 -3 -51 -3c-71 0 -140 17 -208 74c-59 49 -111 139 -153 234l-21 -1h-79l3 -158c0 -20 4 -30 21 -35l62 -21c0 -9 0 -55 -4 -66h-340c-2 15 -4 49 -3 62l48 11c23 5 38 35 39 62l3 138v306c0 16 -8 33 -24 40l-65 26c-1 8 0 49 5 62h392
c141 0 270 -55 270 -203c0 -70 -42 -144 -123 -187c22 -46 53 -106 93 -158c39 -51 85 -93 140 -104zM502 487c0 87 -55 132 -174 132h-44v-257l73 1c106 1 145 37 145 124zM373 -60l126 -5c-4 -88 -37 -175 -73 -241l-77 10c18 83 24 147 24 236z" />
    <glyph glyph-name="rcommaaccent" unicode="&#x157;" horiz-adv-x="526" 
d="M522 526l-54 -138c-39 23 -76 29 -103 29c-43 0 -75 -9 -92 -18v-124l3 -150c1 -18 4 -22 13 -24l130 -30c0 -28 -1 -54 -8 -71h-386c-8 43 -5 46 -5 62l43 12c29 9 40 10 41 45l2 156v189h-83v74c57 11 134 21 196 21c22 0 50 -7 50 -40v-38c27 35 75 76 137 76
c51 0 86 -12 116 -31zM134 -60l126 -5c-4 -88 -37 -175 -73 -241l-77 10c18 83 24 147 24 236z" />
    <glyph glyph-name="Rcaron" unicode="&#x158;" horiz-adv-x="790" 
d="M802 55l-5 -79c-17 -2 -34 -3 -51 -3c-71 0 -140 17 -208 74c-59 49 -111 139 -153 234l-21 -1h-79l3 -158c0 -20 4 -30 21 -35l62 -21c0 -9 0 -55 -4 -66h-340c-2 15 -4 49 -3 62l48 11c23 5 38 35 39 62l3 138v306c0 16 -8 33 -24 40l-65 26c-1 8 0 49 5 62h392
c141 0 270 -55 270 -203c0 -70 -42 -144 -123 -187c22 -46 53 -106 93 -158c39 -51 85 -93 140 -104zM502 487c0 87 -55 132 -174 132h-44v-257l73 1c106 1 145 37 145 124zM530 933l31 -60c-78 -47 -136 -85 -204 -144c-55 44 -127 95 -188 134l41 70
c54 -21 121 -53 161 -78c42 24 100 54 159 78z" />
    <glyph glyph-name="rcaron" unicode="&#x159;" horiz-adv-x="526" 
d="M522 526l-54 -138c-39 23 -76 29 -103 29c-43 0 -75 -9 -92 -18v-124l3 -150c1 -18 4 -22 13 -24l130 -30c0 -28 -1 -54 -8 -71h-386c-8 43 -5 46 -5 62l43 12c29 9 40 10 41 45l2 156v189h-83v74c57 11 134 21 196 21c22 0 50 -7 50 -40v-38c27 35 75 76 137 76
c51 0 86 -12 116 -31zM502 786c-82 -61 -148 -127 -206 -192c-49 55 -134 144 -190 184l53 60c53 -31 113 -77 151 -109c33 28 91 71 149 109z" />
    <glyph glyph-name="Sacute" unicode="&#x15a;" horiz-adv-x="638" 
d="M603 217c0 -163 -170 -228 -309 -228c-81 0 -189 17 -259 60l19 181h72c8 -98 90 -150 183 -150c39 0 117 15 117 67c0 40 -59 66 -130 98c-103 46 -230 103 -230 234c0 129 140 235 263 235c83 0 173 -18 241 -51v-155h-65c-20 80 -97 111 -173 111
c-54 0 -107 -17 -107 -80c0 -43 75 -71 158 -107c104 -45 220 -101 220 -215zM248 743l-20 75c89 31 203 72 285 116l47 -110c-82 -30 -213 -62 -312 -81z" />
    <glyph glyph-name="sacute" unicode="&#x15b;" horiz-adv-x="528" 
d="M493 175c0 -142 -143 -188 -247 -188c-86 0 -146 17 -216 48l10 143h59c14 -75 75 -100 145 -100c55 0 78 14 78 45c0 36 -54 52 -114 78c-72 31 -151 74 -151 178c0 122 108 179 223 179c57 0 123 -10 204 -45l-19 -143l-58 6c-13 45 -32 91 -136 91
c-48 0 -63 -23 -63 -46c0 -30 55 -48 117 -74c79 -33 168 -77 168 -172zM390 859l75 -94c-97 -68 -175 -118 -274 -156l-37 58c95 63 159 118 236 192z" />
    <glyph glyph-name="Scircumflex" unicode="&#x15c;" horiz-adv-x="638" 
d="M603 217c0 -163 -170 -228 -309 -228c-81 0 -189 17 -259 60l19 181h72c8 -98 90 -150 183 -150c39 0 117 15 117 67c0 40 -59 66 -130 98c-103 46 -230 103 -230 234c0 129 140 235 263 235c83 0 173 -18 241 -51v-155h-65c-20 80 -97 111 -173 111
c-54 0 -107 -17 -107 -80c0 -43 75 -71 158 -107c104 -45 220 -101 220 -215zM178 729l-31 60c78 47 136 85 204 144c55 -44 127 -95 188 -134l-41 -70c-54 21 -121 53 -161 78c-42 -24 -100 -54 -159 -78z" />
    <glyph glyph-name="scircumflex" unicode="&#x15d;" horiz-adv-x="528" 
d="M493 175c0 -142 -143 -188 -247 -188c-86 0 -146 17 -216 48l10 143h59c14 -75 75 -100 145 -100c55 0 78 14 78 45c0 36 -54 52 -114 78c-72 31 -151 74 -151 178c0 122 108 179 223 179c57 0 123 -10 204 -45l-19 -143l-58 6c-13 45 -32 91 -136 91
c-48 0 -63 -23 -63 -46c0 -30 55 -48 117 -74c79 -33 168 -77 168 -172zM124 608l-43 52c82 61 148 127 206 192c49 -55 134 -144 190 -184l-53 -60c-53 31 -113 77 -151 109c-33 -28 -91 -71 -149 -109z" />
    <glyph glyph-name="Scedilla" unicode="&#x15e;" horiz-adv-x="638" 
d="M444 -168c0 -64 -69 -130 -142 -130c-33 0 -68 11 -105 36l43 77c26 -18 64 -29 91 -29c23 0 41 6 41 20c0 35 -65 48 -142 62l51 121c-79 2 -180 19 -246 60l19 181h72c8 -98 90 -150 183 -150c39 0 117 15 117 67c0 40 -59 66 -130 98c-103 46 -230 103 -230 234
c0 129 140 235 263 235c83 0 173 -18 241 -51v-155h-65c-20 80 -97 111 -173 111c-54 0 -107 -17 -107 -80c0 -43 75 -71 158 -107c104 -45 220 -101 220 -215c0 -139 -123 -207 -246 -223l-30 -56c78 -19 117 -45 117 -106z" />
    <glyph glyph-name="scedilla" unicode="&#x15f;" horiz-adv-x="528" 
d="M381 -168c0 -64 -69 -130 -142 -130c-33 0 -68 11 -105 36l43 77c26 -18 64 -29 91 -29c23 0 41 6 41 20c0 35 -65 48 -142 62l51 120c-72 3 -126 19 -188 47l10 143h59c14 -75 75 -100 145 -100c55 0 78 14 78 45c0 36 -54 52 -114 78c-72 31 -151 74 -151 178
c0 122 108 179 223 179c57 0 123 -10 204 -45l-19 -143l-58 6c-13 45 -32 91 -136 91c-48 0 -63 -23 -63 -46c0 -30 55 -48 117 -74c79 -33 168 -77 168 -172c0 -122 -105 -173 -200 -185l-29 -52c78 -19 117 -45 117 -106z" />
    <glyph glyph-name="Scaron" unicode="&#x160;" horiz-adv-x="638" 
d="M603 217c0 -163 -170 -228 -309 -228c-81 0 -189 17 -259 60l19 181h72c8 -98 90 -150 183 -150c39 0 117 15 117 67c0 40 -59 66 -130 98c-103 46 -230 103 -230 234c0 129 140 235 263 235c83 0 173 -18 241 -51v-155h-65c-20 80 -97 111 -173 111
c-54 0 -107 -17 -107 -80c0 -43 75 -71 158 -107c104 -45 220 -101 220 -215zM508 933l31 -60c-78 -47 -136 -85 -204 -144c-55 44 -127 95 -188 134l41 70c54 -21 121 -53 161 -78c42 24 100 54 159 78z" />
    <glyph glyph-name="scaron" unicode="&#x161;" horiz-adv-x="528" 
d="M493 175c0 -142 -143 -188 -247 -188c-86 0 -146 17 -216 48l10 143h59c14 -75 75 -100 145 -100c55 0 78 14 78 45c0 36 -54 52 -114 78c-72 31 -151 74 -151 178c0 122 108 179 223 179c57 0 123 -10 204 -45l-19 -143l-58 6c-13 45 -32 91 -136 91
c-48 0 -63 -23 -63 -46c0 -30 55 -48 117 -74c79 -33 168 -77 168 -172zM480 786c-82 -61 -148 -127 -206 -192c-49 55 -134 144 -190 184l53 60c53 -31 113 -77 151 -109c33 28 91 71 149 109z" />
    <glyph glyph-name="Tcommaaccent" unicode="&#x162;" horiz-adv-x="712" 
d="M708 707v-198c-13 -3 -58 -6 -65 -3c-12 62 -39 99 -94 103l-108 7v-343l5 -152c0 -23 2 -32 21 -36l85 -18c0 -9 -1 -56 -4 -67h-382c-3 15 -5 54 -4 67l64 19c23 7 40 42 41 69l3 118v343l-117 -7c-49 -3 -72 -45 -83 -103c-8 -3 -53 -1 -66 3v198h704zM296 -60l126 -5
c-4 -88 -37 -175 -73 -241l-77 10c18 83 24 147 24 236z" />
    <glyph glyph-name="tcommaaccent" unicode="&#x163;" horiz-adv-x="494" 
d="M453 140l20 -74c-49 -40 -118 -77 -230 -77c-101 0 -147 45 -146 179l3 278h-80v63l211 149h39v-112h183v-100h-183v-168l4 -107c1 -29 22 -46 69 -46c30 0 67 5 110 15zM211 -60l126 -5c-4 -88 -37 -175 -73 -241l-77 10c18 83 24 147 24 236z" />
    <glyph glyph-name="tcommaaccent" unicode="&#x21b;" horiz-adv-x="494" 
d="M453 140l20 -74c-49 -40 -118 -77 -230 -77c-101 0 -147 45 -146 179l3 278h-80v63l211 149h39v-112h183v-100h-183v-168l4 -107c1 -29 22 -46 69 -46c30 0 67 5 110 15zM211 -60l126 -5c-4 -88 -37 -175 -73 -241l-77 10c18 83 24 147 24 236z" />
    <glyph glyph-name="Tcaron" unicode="&#x164;" horiz-adv-x="712" 
d="M708 707v-198c-13 -3 -58 -6 -65 -3c-12 62 -39 99 -94 103l-108 7v-343l5 -152c0 -23 2 -32 21 -36l85 -18c0 -9 -1 -56 -4 -67h-382c-3 15 -5 54 -4 67l64 19c23 7 40 42 41 69l3 118v343l-117 -7c-49 -3 -72 -45 -83 -103c-8 -3 -53 -1 -66 3v198h704zM525 933l31 -60
c-78 -47 -136 -85 -204 -144c-55 44 -127 95 -188 134l41 70c54 -21 121 -53 161 -78c42 24 100 54 159 78z" />
    <glyph glyph-name="tcaron" unicode="&#x165;" horiz-adv-x="494" 
d="M453 140l20 -74c-49 -40 -118 -77 -230 -77c-101 0 -147 45 -146 179l3 278h-80v63l211 149h39v-112h183v-100h-183v-168l4 -107c1 -29 22 -46 69 -46c30 0 67 5 110 15zM364 876l126 -5c-4 -88 -37 -175 -73 -241l-77 10c18 83 24 147 24 236z" />
    <glyph glyph-name="Tbar" unicode="&#x166;" horiz-adv-x="712" 
d="M708 707v-198c-13 -3 -58 -6 -65 -3c-12 62 -39 99 -94 103l-108 7v-216h169v-89h-169v-38l5 -152c0 -23 2 -32 21 -36l85 -18c0 -9 -1 -56 -4 -67h-382c-3 15 -5 54 -4 67l64 19c23 7 40 42 41 69l3 118v38h-169v89h169v216l-117 -7c-49 -3 -72 -45 -83 -103
c-8 -3 -53 -1 -66 3v198h704z" />
    <glyph glyph-name="tbar" unicode="&#x167;" horiz-adv-x="494" 
d="M243 -11c-101 0 -147 45 -146 179l1 88h-66v89h67l1 101h-80v63l211 149h39v-112h183v-100h-183v-101h124v-89h-123l3 -85c1 -29 22 -46 69 -46c30 0 67 5 110 15l20 -74c-49 -40 -118 -77 -230 -77z" />
    <glyph glyph-name="Utilde" unicode="&#x168;" horiz-adv-x="838" 
d="M818 644l-50 -16c-13 -5 -27 -10 -27 -40v-317c0 -226 -190 -280 -315 -280c-137 0 -324 16 -324 253v329c0 22 -12 45 -29 52l-53 21c0 9 1 50 4 61h347c3 -15 3 -53 2 -66l-67 -12c-20 -4 -26 -13 -26 -32v-326c0 -156 107 -180 186 -180c73 0 150 34 150 204v270
c0 24 -10 55 -56 68l-43 13c0 9 -2 50 1 61h296c3 -15 5 -50 4 -63zM528 751c-42 0 -155 37 -189 37c-24 0 -45 -9 -65 -23l-29 37c37 45 72 91 128 91c52 0 152 -34 180 -34c38 0 53 8 64 20l31 -33c-28 -49 -57 -95 -120 -95z" />
    <glyph glyph-name="utilde" unicode="&#x169;" horiz-adv-x="722" 
d="M691 101l11 -69c-46 -23 -92 -39 -155 -39c-60 0 -89 25 -91 82c-55 -50 -118 -85 -181 -85c-173 0 -173 83 -173 177v297h-82v67c65 14 121 28 171 28c48 0 78 -22 78 -67v-301c0 -55 13 -80 51 -80c39 0 93 12 128 24l4 138v191h-71v67c54 17 109 28 159 28
c46 0 79 -21 79 -67v-220l6 -171h66zM560 741c-33 -47 -57 -95 -120 -95c-42 0 -155 37 -189 37c-24 0 -45 -9 -65 -23l-29 37c37 45 72 91 128 91c52 0 152 -34 180 -34c44 0 64 20 64 20z" />
    <glyph glyph-name="Umacron" unicode="&#x16a;" horiz-adv-x="838" 
d="M818 644l-50 -16c-13 -5 -27 -10 -27 -40v-317c0 -226 -190 -280 -315 -280c-137 0 -324 16 -324 253v329c0 22 -12 45 -29 52l-53 21c0 9 1 50 4 61h347c3 -15 3 -53 2 -66l-67 -12c-20 -4 -26 -13 -26 -32v-326c0 -156 107 -180 186 -180c73 0 150 34 150 204v270
c0 24 -10 55 -56 68l-43 13c0 9 -2 50 1 61h296c3 -15 5 -50 4 -63zM594 771h-298v99h298v-99z" />
    <glyph glyph-name="umacron" unicode="&#x16b;" horiz-adv-x="722" 
d="M691 101l11 -69c-46 -23 -92 -39 -155 -39c-60 0 -89 25 -91 82c-55 -50 -118 -85 -181 -85c-173 0 -173 83 -173 177v297h-82v67c65 14 121 28 171 28c48 0 78 -22 78 -67v-301c0 -55 13 -80 51 -80c39 0 93 12 128 24l4 138v191h-71v67c54 17 109 28 159 28
c46 0 79 -21 79 -67v-220l6 -171h66zM511 685h-307v89h307v-89z" />
    <glyph glyph-name="Ubreve" unicode="&#x16c;" horiz-adv-x="838" 
d="M818 644l-50 -16c-13 -5 -27 -10 -27 -40v-317c0 -226 -190 -280 -315 -280c-137 0 -324 16 -324 253v329c0 22 -12 45 -29 52l-53 21c0 9 1 50 4 61h347c3 -15 3 -53 2 -66l-67 -12c-20 -4 -26 -13 -26 -32v-326c0 -156 107 -180 186 -180c73 0 150 34 150 204v270
c0 24 -10 55 -56 68l-43 13c0 9 -2 50 1 61h296c3 -15 5 -50 4 -63zM443 746c-76 0 -143 42 -174 94l54 51c35 -32 80 -55 133 -55c45 0 91 24 118 51l31 -25c-22 -48 -74 -116 -162 -116z" />
    <glyph glyph-name="ubreve" unicode="&#x16d;" horiz-adv-x="722" 
d="M691 101l11 -69c-46 -23 -92 -39 -155 -39c-60 0 -89 25 -91 82c-55 -50 -118 -85 -181 -85c-173 0 -173 83 -173 177v297h-82v67c65 14 121 28 171 28c48 0 78 -22 78 -67v-301c0 -55 13 -80 51 -80c39 0 93 12 128 24l4 138v191h-71v67c54 17 109 28 159 28
c46 0 79 -21 79 -67v-220l6 -171h66zM484 800l31 -25c-22 -48 -74 -125 -171 -125c-76 0 -139 45 -170 97l59 57c35 -32 80 -55 133 -55c45 0 91 24 118 51z" />
    <glyph glyph-name="Uring" unicode="&#x16e;" horiz-adv-x="838" 
d="M426 -9c-137 0 -324 16 -324 253v329c0 22 -12 45 -29 52l-53 21c0 9 1 50 4 61l305 -1c3 -15 5 -49 4 -62l-27 -6c-20 -4 -26 -22 -26 -41v-326c0 -156 107 -180 186 -180c73 0 150 34 150 204v329c-32 -6 -53 -10 -92 -10c-49 0 -162 17 -162 144c0 84 98 159 185 159
s185 -31 185 -130l-1 -12l-112 -16s2 15 2 30c0 40 -35 64 -72 64c-43 0 -76 -32 -76 -74c0 -52 27 -91 86 -91c48 0 96 8 182 35v-452c0 -226 -190 -280 -315 -280z" />
    <glyph glyph-name="uring" unicode="&#x16f;" horiz-adv-x="722" 
d="M691 101l11 -69c-46 -23 -92 -39 -155 -39c-60 0 -89 25 -91 82c-55 -50 -118 -85 -181 -85c-173 0 -173 83 -173 177v297h-82v67c65 14 121 28 171 28c48 0 78 -22 78 -67v-301c0 -55 13 -80 51 -80c39 0 93 12 128 24l4 138v191h-71v67c54 17 109 28 159 28
c46 0 79 -21 79 -67v-220l6 -171h66zM426 684l27 -30c-27 -33 -70 -52 -112 -52c-67 0 -132 24 -132 112c0 78 84 138 156 138c61 0 116 -36 130 -113l-79 -36c-5 49 -20 92 -68 92c-40 0 -66 -23 -66 -61c0 -49 34 -69 74 -69c31 0 50 6 70 19z" />
    <glyph glyph-name="Uhungarumlaut" unicode="&#x170;" horiz-adv-x="838" 
d="M818 644l-50 -16c-13 -5 -27 -10 -27 -40v-317c0 -226 -190 -280 -315 -280c-137 0 -324 16 -324 253v329c0 22 -12 45 -29 52l-53 21c0 9 1 50 4 61h347c3 -15 3 -53 2 -66l-67 -12c-20 -4 -26 -13 -26 -32v-326c0 -156 107 -180 186 -180c73 0 150 34 150 204v270
c0 24 -10 55 -56 68l-43 13c0 9 -2 50 1 61h296c3 -15 5 -50 4 -63zM311 738l-59 51c57 76 108 142 152 224l100 -65c-51 -71 -120 -141 -193 -210zM491 736l-20 75c89 31 203 72 285 116l47 -110c-82 -30 -213 -62 -312 -81z" />
    <glyph glyph-name="uhungarumlaut" unicode="&#x171;" horiz-adv-x="722" 
d="M691 101l11 -69c-46 -23 -92 -39 -155 -39c-60 0 -89 25 -91 82c-55 -50 -118 -85 -181 -85c-173 0 -173 83 -173 177v297h-82v67c65 14 121 28 171 28c48 0 78 -22 78 -67v-301c0 -55 13 -80 51 -80c39 0 93 12 128 24l4 138v191h-71v67c54 17 109 28 159 28
c46 0 79 -21 79 -67v-220l6 -171h66zM443 602l-36 53c95 63 145 104 217 177l74 -93c-83 -63 -156 -99 -255 -137zM206 602l-45 50c78 73 123 121 187 204l85 -78c-82 -83 -137 -121 -227 -176z" />
    <glyph glyph-name="Uogonek" unicode="&#x172;" horiz-adv-x="838" 
d="M479 -269c-87 0 -140 48 -140 114c0 57 35 107 87 146c-137 0 -324 16 -324 253v329c0 22 -12 45 -29 52l-53 21c0 9 1 50 4 61h347c3 -15 3 -53 2 -66l-67 -12c-20 -4 -26 -13 -26 -32v-326c0 -156 107 -180 186 -180c73 0 150 34 150 204v270c0 24 -10 55 -56 68
l-43 13c0 9 -2 50 1 61h296c3 -15 5 -50 4 -63l-50 -16c-13 -5 -27 -10 -27 -40v-317c0 -164 -100 -237 -202 -265c-50 -32 -82 -80 -82 -134c1 -45 27 -66 60 -66c29 0 50 8 66 17l19 -63c-26 -18 -66 -29 -123 -29z" />
    <glyph glyph-name="uogonek" unicode="&#x173;" horiz-adv-x="722" 
d="M691 -177l19 -63c-26 -18 -66 -29 -123 -29c-87 0 -140 48 -140 114c0 58 36 109 89 148c-53 3 -78 28 -80 82c-47 -44 -109 -85 -172 -85c-173 0 -182 83 -182 177v299h-82v67c65 14 121 28 171 28c48 0 78 -22 78 -67v-303c0 -55 13 -80 51 -80c39 0 93 12 128 24
l4 138v193h-71v67c66 14 109 28 159 28c46 0 79 -21 79 -67v-222l6 -171h66l11 -69c-71 -24 -140 -86 -137 -160c1 -45 27 -66 60 -66c29 0 50 8 66 17z" />
    <glyph glyph-name="Wcircumflex" unicode="&#x174;" horiz-adv-x="1091" 
d="M1114 647l-18 -12c-17 -12 -28 -27 -38 -49l-239 -578l-125 -35l-148 404l-173 -368l-124 -36l-181 615c-4 14 -15 29 -32 40l-30 20c0 24 -1 39 5 59h322c1 -12 2 -23 2 -34s-1 -21 -1 -31l-45 -15c-24 -8 -32 -24 -32 -45c0 -12 3 -25 7 -39l94 -351l143 308l-20 57
l-11 32c-8 22 -18 40 -30 59c0 24 -1 40 2 59h284c5 -11 6 -18 6 -28c0 -9 -1 -20 -1 -37c-13 -5 -28 -15 -28 -15c-23 -13 -32 -28 -32 -49c0 -10 2 -22 6 -35l120 -351l133 342c6 15 8 28 8 39c0 31 -18 50 -34 56l-35 13c0 19 -2 41 6 65h234c6 -20 5 -37 5 -60zM404 729
l-31 60c78 47 136 85 204 144c55 -44 127 -95 188 -134l-41 -70c-54 21 -121 53 -161 78c-42 -24 -100 -54 -159 -78z" />
    <glyph glyph-name="wcircumflex" unicode="&#x175;" horiz-adv-x="869" 
d="M543 -25l-123 321l-112 -293l-131 -28l-124 444c-9 31 -17 37 -38 55c0 27 -1 37 6 72h255v-80h-61l63 -303l117 364l113 28l130 -392l68 252c4 16 -3 39 -23 47l-28 10c-1 6 -2 19 -2 33s1 29 5 41h194l-1 -65c-13 -15 -33 -43 -48 -89l-137 -392zM273 608l-43 52
c82 61 148 127 206 192c49 -55 134 -144 190 -184l-53 -60c-53 31 -113 77 -151 109c-33 -28 -91 -71 -149 -109z" />
    <glyph glyph-name="Ycircumflex" unicode="&#x176;" horiz-adv-x="723" 
d="M718 647c-26 -17 -44 -35 -63 -61l-210 -306l3 -168c0 -19 4 -26 23 -30l60 -14c0 -24 1 -42 -7 -68h-333c-6 24 -4 39 -4 61l36 10c21 7 48 24 48 56l3 141l-215 320c-20 28 -36 45 -54 60c-2 17 -3 39 2 59h320c4 -16 4 -39 4 -65l-38 -15c-24 -10 -37 -29 -37 -50
c0 -11 3 -23 11 -34l131 -194l122 185c9 13 12 25 12 35c0 28 -26 45 -41 52l-42 21c-2 20 -2 39 3 65h261c6 -20 5 -37 5 -60zM230 729l-31 60c78 47 136 85 204 144c55 -44 127 -95 188 -134l-41 -70c-54 21 -121 53 -161 78c-42 -24 -100 -54 -159 -78z" />
    <glyph glyph-name="ycircumflex" unicode="&#x177;" horiz-adv-x="589" 
d="M584 546c0 -25 -5 -65 -5 -65c-23 -16 -39 -49 -56 -89l-224 -516c-28 -65 -89 -96 -139 -114l-93 139c36 10 74 24 100 37c30 15 46 28 55 40l-149 441c-10 30 -33 38 -68 55c0 27 -1 37 6 72h285v-80h-61l93 -323l98 272c6 16 -2 37 -11 43c-12 10 -32 12 -40 14
c-1 6 -2 19 -2 33s1 29 5 41h206zM163 608l-43 52c82 61 148 127 206 192c49 -55 134 -144 190 -184l-53 -60c-53 31 -113 77 -151 109c-33 -28 -91 -71 -149 -109z" />
    <glyph glyph-name="Ydieresis" unicode="&#x178;" horiz-adv-x="723" 
d="M718 647c-26 -17 -44 -35 -63 -61l-210 -306l3 -168c0 -19 4 -26 23 -30l60 -14c0 -24 1 -42 -7 -68h-333c-6 24 -4 39 -4 61l36 10c21 7 48 24 48 56l3 141l-215 320c-20 28 -36 45 -54 60c-2 17 -3 39 2 59h320c4 -16 4 -39 4 -65l-38 -15c-24 -10 -37 -29 -37 -50
c0 -11 3 -23 11 -34l131 -194l122 185c9 13 12 25 12 35c0 28 -26 45 -41 52l-42 21c-2 20 -2 39 3 65h261c6 -20 5 -37 5 -60zM274 766c-17 0 -79 63 -79 79c0 18 63 80 79 80c17 0 81 -64 81 -80c0 -13 -61 -79 -81 -79zM509 766c-17 0 -79 63 -79 79c0 18 63 80 79 80
s81 -64 81 -80c0 -13 -61 -79 -81 -79z" />
    <glyph glyph-name="Zacute" unicode="&#x179;" horiz-adv-x="650" 
d="M640 219l-27 -219h-558l-28 82l361 527l-210 -5c-22 -3 -38 -45 -51 -109c-18 -2 -29 -4 -40 -4c-12 0 -23 2 -41 5v211h558l20 -60l-375 -549l214 13c52 6 80 66 101 124zM254 743l-20 75c89 31 203 72 285 116l47 -110c-82 -30 -213 -62 -312 -81z" />
    <glyph glyph-name="zacute" unicode="&#x17a;" horiz-adv-x="554" 
d="M540 181l-37 -181h-460l-29 72l330 352h-206c-29 0 -49 -39 -69 -68c-23 8 -34 12 -45 21l45 169h426v-101l-301 -321h191c41 0 89 46 103 73c34 -6 52 -16 52 -16zM403 859l75 -94c-97 -68 -175 -118 -274 -156l-37 58c95 63 159 118 236 192z" />
    <glyph glyph-name="Zdotaccent" unicode="&#x17b;" horiz-adv-x="650" 
d="M640 219l-27 -219h-558l-28 82l361 527l-210 -5c-22 -3 -38 -45 -51 -109c-18 -2 -29 -4 -40 -4c-12 0 -23 2 -41 5v211h558l20 -60l-375 -549l214 13c52 6 80 66 101 124zM442 840c0 -15 -76 -97 -98 -97c-21 0 -96 78 -96 97c0 23 76 97 96 97c18 0 98 -77 98 -97z" />
    <glyph glyph-name="zdotaccent" unicode="&#x17c;" horiz-adv-x="554" 
d="M540 181l-37 -181h-460l-29 72l330 352h-206c-29 0 -49 -39 -69 -68c-23 8 -34 12 -45 21l45 169h426v-101l-301 -321h191c41 0 89 46 103 73c34 -6 52 -16 52 -16zM372 730c0 -15 -76 -97 -98 -97c-21 0 -96 78 -96 97c0 23 76 97 96 97c18 0 98 -77 98 -97z" />
    <glyph glyph-name="Zcaron" unicode="&#x17d;" horiz-adv-x="650" 
d="M640 219l-27 -219h-558l-28 82l361 527l-210 -5c-22 -3 -38 -45 -51 -109c-18 -2 -29 -4 -40 -4c-12 0 -23 2 -41 5v211h558l20 -60l-375 -549l214 13c52 6 80 66 101 124zM514 933l31 -60c-78 -47 -136 -85 -204 -144c-55 44 -127 95 -188 134l41 70
c54 -21 121 -53 161 -78c42 24 100 54 159 78z" />
    <glyph glyph-name="zcaron" unicode="&#x17e;" horiz-adv-x="554" 
d="M540 181l-37 -181h-460l-29 72l330 352h-206c-29 0 -49 -39 -69 -68c-23 8 -34 12 -45 21l45 169h426v-101l-301 -321h191c41 0 89 46 103 73c34 -6 52 -16 52 -16zM476 786c-82 -61 -148 -127 -206 -192c-49 55 -134 144 -190 184l53 60c53 -31 113 -77 151 -109
c33 28 91 71 149 109z" />
    <glyph glyph-name="longs" unicode="&#x17f;" horiz-adv-x="431" 
d="M523 688c0 -57 -43 -83 -75 -98c-32 46 -68 91 -90 91c-49 0 -90 -34 -90 -87v-310l4 -154c0 -30 19 -43 45 -48c0 0 93 -17 100 -19c0 0 0 -42 -9 -63h-382c-8 44 -4 24 -4 61c11 4 48 13 48 13c24 7 27 36 28 60l2 150v182h-80v62l80 18v15c0 112 131 207 242 207
c107 0 181 -18 181 -80z" />
    <glyph glyph-name="uni018F" unicode="&#x18f;" horiz-adv-x="838" 
d="M401 -12c-244 0 -366 119 -366 331v71h576c-10 121 -76 202 -204 202c-135 0 -214 -35 -278 -60l-54 85c85 53 205 101 337 101c263 0 391 -98 391 -335c0 -214 -152 -395 -402 -395zM414 95c134 0 185 88 196 204h-382c12 -113 63 -204 186 -204z" />
    <glyph glyph-name="florin" unicode="&#x192;" horiz-adv-x="690" 
d="M645 521c0 -29 -26 -57 -57 -75l-82 74c-48 -4 -102 -31 -105 -135l-2 -66h120v-80h-123l-3 -85c-4 -111 -119 -247 -242 -247c-73 0 -115 28 -115 80c0 22 8 35 17 50h150c10 18 20 28 22 81l4 121h-97v80h100l1 17c8 139 154 271 277 271c104 0 135 -33 135 -86z" />
    <glyph glyph-name="uni01D3" unicode="&#x1d3;" horiz-adv-x="838" 
d="M818 644l-50 -16c-13 -5 -27 -10 -27 -40v-317c0 -226 -190 -280 -315 -280c-137 0 -324 16 -324 253v329c0 22 -12 45 -29 52l-53 21c0 9 1 50 4 61h347c3 -15 3 -53 2 -66l-67 -12c-20 -4 -26 -13 -26 -32v-326c0 -156 107 -180 186 -180c73 0 150 34 150 204v270
c0 24 -10 55 -56 68l-43 13c0 9 -2 50 1 61h296c3 -15 5 -50 4 -63zM620 933l31 -60c-78 -47 -136 -85 -204 -144c-55 44 -127 95 -188 134l41 70c54 -21 121 -53 161 -78c42 24 100 54 159 78z" />
    <glyph glyph-name="uni01D4" unicode="&#x1d4;" horiz-adv-x="722" 
d="M691 101l11 -69c-46 -23 -92 -39 -155 -39c-60 0 -89 25 -91 82c-55 -50 -118 -85 -181 -85c-173 0 -173 83 -173 177v297h-82v67c65 14 121 28 171 28c48 0 78 -22 78 -67v-301c0 -55 13 -80 51 -80c39 0 93 12 128 24l4 138v191h-71v67c54 17 109 28 159 28
c46 0 79 -21 79 -67v-220l6 -171h66zM541 786c-82 -61 -148 -127 -206 -192c-49 55 -134 144 -190 184l53 60c53 -31 113 -77 151 -109c33 28 91 71 149 109z" />
    <glyph glyph-name="AEmacron" unicode="&#x1e2;" horiz-adv-x="1061" 
d="M1031 175l-27 -175h-597c-5 24 -6 46 -5 65c5 1 42 10 42 10c22 5 44 15 45 34l3 174v16h-202l-72 -126c-8 -14 -11 -26 -11 -36c0 -29 25 -46 41 -51l72 -21c0 -19 1 -41 -7 -65h-298c-6 19 -4 37 -4 60l17 12c18 13 32 28 45 49l354 586h559v-167c-22 -6 -45 -8 -71 -6
c-13 66 -43 78 -83 78l-170 4v-225l292 5v-102l-292 5v-18l5 -191l139 5c70 3 126 17 155 96zM493 652l-150 -261h149v225zM847 771h-298v99h298v-99z" />
    <glyph glyph-name="aemacron" unicode="&#x1e3;" horiz-adv-x="886" 
d="M860 256l-358 -16c5 -100 69 -118 155 -118c36 0 92 -1 165 15l28 -88c-70 -38 -154 -57 -218 -57c-115 0 -201 17 -250 82c-43 -37 -113 -82 -195 -82c-91 0 -162 28 -162 125c0 130 114 166 227 179c28 3 57 5 83 6v68c0 40 -8 57 -98 57c-34 0 -77 -3 -149 -23
l-29 120c74 29 141 38 205 38c61 0 148 -7 191 -61c43 38 93 59 159 59c181 0 246 -126 246 -267v-37zM687 330c1 70 -18 138 -81 138c-80 0 -109 -69 -109 -153zM349 138c-10 32 -14 64 -15 97c-25 -3 -49 -4 -74 -9c-66 -14 -79 -40 -79 -70c0 -22 19 -46 49 -46
c34 0 62 2 119 28zM532 843h-307v109h307v-109z" />
    <glyph glyph-name="AEacute" unicode="&#x1fc;" horiz-adv-x="1061" 
d="M1031 175l-27 -175h-597c-5 24 -6 46 -5 65c5 1 42 10 42 10c22 5 44 15 45 34l3 174v16h-202l-72 -126c-8 -14 -11 -26 -11 -36c0 -29 25 -46 41 -51l72 -21c0 -19 1 -41 -7 -65h-298c-6 19 -4 37 -4 60l17 12c18 13 32 28 45 49l354 586h559v-167c-22 -6 -45 -8 -71 -6
c-13 66 -43 78 -83 78l-170 4v-225l292 5v-102l-292 5v-18l5 -191l139 5c70 3 126 17 155 96zM493 652l-150 -261h149v225zM581 743l-20 75c89 31 203 72 285 116l47 -110c-82 -30 -213 -62 -312 -81z" />
    <glyph glyph-name="aeacute" unicode="&#x1fd;" horiz-adv-x="886" 
d="M860 256l-358 -16c5 -100 69 -118 155 -118c36 0 92 -1 165 15l28 -88c-70 -38 -154 -57 -218 -57c-115 0 -201 17 -250 82c-43 -37 -113 -82 -195 -82c-91 0 -162 28 -162 125c0 130 114 166 227 179c28 3 57 5 83 6v68c0 40 -8 57 -98 57c-34 0 -77 -3 -149 -23
l-29 120c74 29 141 38 205 38c61 0 148 -7 191 -61c43 38 93 59 159 59c181 0 246 -126 246 -267v-37zM687 330c1 70 -18 138 -81 138c-80 0 -109 -69 -109 -153zM349 138c-10 32 -14 64 -15 97c-25 -3 -49 -4 -74 -9c-66 -14 -79 -40 -79 -70c0 -22 19 -46 49 -46
c34 0 62 2 119 28zM554 859l75 -94c-97 -68 -175 -118 -274 -156l-37 58c95 63 159 118 236 192z" />
    <glyph glyph-name="Oslashacute" unicode="&#x1fe;" horiz-adv-x="838" 
d="M786 692l-63 -72c54 -57 80 -139 80 -237c0 -214 -152 -395 -402 -395c-97 0 -175 19 -234 55l-88 -82l-52 52l83 78c-50 56 -75 133 -75 228c0 222 166 399 405 399c95 0 169 -18 226 -52l68 77zM559 551c-30 38 -75 62 -138 62c-149 0 -196 -118 -196 -257
c0 -48 5 -93 18 -133zM613 354c0 46 -5 89 -18 127l-315 -327c30 -37 73 -59 134 -59c155 0 199 117 199 259zM318 743l-20 75c89 31 203 72 285 116l47 -110c-82 -30 -213 -62 -312 -81z" />
    <glyph glyph-name="oslashacute" unicode="&#x1ff;" horiz-adv-x="633" 
d="M585 547c-15 -19 -31 -40 -50 -62c45 -47 68 -115 68 -205c0 -144 -124 -288 -293 -288c-67 0 -123 12 -167 38l-69 -72l-50 44l66 71c-39 45 -60 108 -60 192c0 144 125 294 289 294c67 0 122 -12 166 -36l53 66zM394 415c-18 28 -45 47 -86 47
c-96 0 -102 -111 -102 -183c0 -24 2 -48 6 -71zM425 270c0 25 -2 50 -6 75l-181 -209c18 -29 46 -47 88 -47c79 0 99 82 99 181zM422 859l75 -94c-97 -68 -175 -118 -274 -156l-37 58c95 63 159 118 236 192z" />
    <glyph glyph-name="Scommaaccent" unicode="&#x218;" horiz-adv-x="638" 
d="M603 217c0 -163 -170 -228 -309 -228c-81 0 -189 17 -259 60l19 181h72c8 -98 90 -150 183 -150c39 0 117 15 117 67c0 40 -59 66 -130 98c-103 46 -230 103 -230 234c0 129 140 235 263 235c83 0 173 -18 241 -51v-155h-65c-20 80 -97 111 -173 111
c-54 0 -107 -17 -107 -80c0 -43 75 -71 158 -107c104 -45 220 -101 220 -215zM249 -60l126 -5c-4 -88 -37 -175 -73 -241l-77 10c18 83 24 147 24 236z" />
    <glyph glyph-name="scommaaccent" unicode="&#x219;" horiz-adv-x="528" 
d="M493 175c0 -142 -143 -188 -247 -188c-86 0 -146 17 -216 48l10 143h59c14 -75 75 -100 145 -100c55 0 78 14 78 45c0 36 -54 52 -114 78c-72 31 -151 74 -151 178c0 122 108 179 223 179c57 0 123 -10 204 -45l-19 -143l-58 6c-13 45 -32 91 -136 91
c-48 0 -63 -23 -63 -46c0 -30 55 -48 117 -74c79 -33 168 -77 168 -172zM205 -60l126 -5c-4 -88 -37 -175 -73 -241l-77 10c18 83 24 147 24 236z" />
    <glyph glyph-name="uni021A" unicode="&#x21a;" horiz-adv-x="712" 
d="M708 707v-198c-13 -3 -58 -6 -65 -3c-12 62 -39 99 -94 103l-108 7v-343l5 -152c0 -23 2 -32 21 -36l85 -18c0 -9 -1 -56 -4 -67h-382c-3 15 -5 54 -4 67l64 19c23 7 40 42 41 69l3 118v343l-117 -7c-49 -3 -72 -45 -83 -103c-8 -3 -53 -1 -66 3v198h704zM296 -60l126 -5
c-4 -88 -37 -175 -73 -241l-77 10c18 83 24 147 24 236z" />
    <glyph glyph-name="Ymacron" unicode="&#x232;" horiz-adv-x="723" 
d="M718 647c-26 -17 -44 -35 -63 -61l-210 -306l3 -168c0 -19 4 -26 23 -30l60 -14c0 -24 1 -42 -7 -68h-333c-6 24 -4 39 -4 61l36 10c21 7 48 24 48 56l3 141l-215 320c-20 28 -36 45 -54 60c-2 17 -3 39 2 59h320c4 -16 4 -39 4 -65l-38 -15c-24 -10 -37 -29 -37 -50
c0 -11 3 -23 11 -34l131 -194l122 185c9 13 12 25 12 35c0 28 -26 45 -41 52l-42 21c-2 20 -2 39 3 65h261c6 -20 5 -37 5 -60zM540 771h-298v99h298v-99z" />
    <glyph glyph-name="ymacron" unicode="&#x233;" horiz-adv-x="589" 
d="M584 546c0 -25 -5 -65 -5 -65c-23 -16 -39 -49 -56 -89l-224 -516c-28 -65 -89 -96 -139 -114l-93 139c36 10 74 24 100 37c30 15 46 28 55 40l-149 441c-10 30 -33 38 -68 55c0 27 -1 37 6 72h285v-80h-61l93 -323l98 272c6 16 -2 37 -11 43c-12 10 -32 12 -40 14
c-1 6 -2 19 -2 33s1 29 5 41h206zM474 685h-307v89h307v-89z" />
    <glyph glyph-name="schwa" unicode="&#x259;" horiz-adv-x="588" 
d="M26 295h358c-5 100 -68 132 -155 132c-36 0 -91 -2 -165 -18l-28 88c70 38 154 62 218 62c187 0 304 -53 304 -273c0 -143 -109 -301 -286 -301c-181 0 -246 120 -246 261v49zM200 222c0 -84 22 -149 90 -149c66 0 99 78 99 149h-189z" />
    <glyph glyph-name="h.superior" unicode="&#x2b0;" horiz-adv-x="490" 
d="M477 457c0 -27 -1 -31 -6 -42h-195c-3 15 -5 24 -3 42l23 11c11 5 12 13 12 23l2 111v32c0 39 0 79 -47 79c-28 0 -60 -2 -80 -9v-104l1 -97c0 -13 2 -26 10 -31l22 -13c0 -26 -1 -29 -5 -44h-195c-5 17 -4 22 -4 41l34 11c14 3 16 8 16 24l2 111v266h-52v52
c48 10 108 15 142 15c19 0 26 -8 26 -24v-161c26 20 63 45 120 45c128 0 128 -51 128 -121v-74l2 -109c0 -13 3 -21 9 -23z" />
    <glyph glyph-name="j.superior" unicode="&#x2b2;" horiz-adv-x="253" 
d="M199 901c0 -23 -47 -74 -74 -74c-26 0 -73 50 -73 74c0 26 48 73 73 73s74 -47 74 -73zM192 415c1 -64 -3 -148 -128 -148c-21 0 -64 2 -101 13l13 69c15 -2 32 -4 49 -4c28 0 45 4 45 54v332h-56v52c48 10 104 14 138 14c23 0 36 -5 36 -33v-163z" />
    <glyph glyph-name="r.superior" unicode="&#x2b3;" horiz-adv-x="361" 
d="M359 772l-39 -97c-29 17 -55 22 -73 22c-27 0 -47 -6 -58 -12v-83l2 -100c0 -12 2 -15 9 -16l89 -21c0 -20 -1 -37 -6 -50h-268c-6 31 -4 32 -4 43l29 8c21 6 28 5 29 28l1 108v128h-55v52c40 7 93 14 136 14c14 0 34 -5 34 -28v-25c19 24 50 51 93 51c35 0 60 -8 81 -22
z" />
    <glyph glyph-name="w.superior" unicode="&#x2b7;" horiz-adv-x="586" 
d="M574 786v-49c-10 -11 -25 -31 -36 -64l-76 -258l-103 -18l-87 241l-52 -218l-108 -23l-80 303c-6 23 -14 28 -27 40c3 23 9 46 9 46h180v-61h-51l49 -202l76 253l82 17l87 -282l37 171c4 12 3 29 -11 37c-10 7 -25 14 -25 14l5 53h131z" />
    <glyph glyph-name="y.superior" unicode="&#x2b8;" horiz-adv-x="400" 
d="M107 253l-65 100c24 7 45 10 63 18c23 10 38 18 43 27l-98 300c-8 21 -23 24 -46 37c0 19 -2 26 3 51h198v-57h-40l59 -215l62 173c5 11 -1 23 -5 27c-5 11 -20 17 -27 19c-1 10 -3 36 3 53h139l-2 -46c-15 -12 -27 -36 -38 -62l-152 -350c-20 -44 -63 -63 -97 -75z" />
    <glyph glyph-name="circumflex" unicode="&#x2c6;" horiz-adv-x="540" 
d="M109 608l-43 52c82 61 148 127 206 192c49 -55 134 -144 190 -184l-53 -60c-53 31 -113 77 -151 109c-33 -28 -91 -71 -149 -109z" />
    <glyph glyph-name="caron" unicode="&#x2c7;" horiz-adv-x="540" 
d="M469 786c-82 -61 -148 -127 -206 -192c-49 55 -134 144 -190 184l53 60c53 -31 113 -77 151 -109c33 28 91 71 149 109z" />
    <glyph glyph-name="breve" unicode="&#x2d8;" horiz-adv-x="500" 
d="M390 800l31 -25c-22 -48 -74 -125 -171 -125c-76 0 -139 45 -170 97l59 57c35 -32 80 -55 133 -55c45 0 91 24 118 51z" />
    <glyph glyph-name="dotaccent" unicode="&#x2d9;" horiz-adv-x="377" 
d="M283 730c0 -15 -76 -97 -98 -97c-21 0 -96 78 -96 97c0 23 76 97 96 97c18 0 98 -77 98 -97z" />
    <glyph glyph-name="ring" unicode="&#x2da;" horiz-adv-x="444" 
d="M354 741c0 -76 -79 -124 -136 -124c-66 0 -133 25 -133 105c0 78 68 129 136 129c57 0 133 -14 133 -110zM273 733c0 40 -17 67 -54 67c-41 0 -53 -24 -53 -65c0 -40 16 -68 54 -68c41 0 53 25 53 66z" />
    <glyph glyph-name="ogonek" unicode="&#x2db;" horiz-adv-x="565" 
d="M416 -177l19 -63c-26 -18 -66 -29 -123 -29c-87 0 -140 48 -140 114c0 97 104 177 219 212l36 -25c-80 -28 -137 -88 -137 -160c1 -45 27 -66 60 -66c29 0 50 8 66 17z" />
    <glyph glyph-name="tilde" unicode="&#x2dc;" horiz-adv-x="540" 
d="M469 741c-33 -47 -57 -95 -120 -95c-42 0 -155 37 -189 37c-24 0 -45 -9 -65 -23l-29 37c37 45 72 91 128 91c52 0 152 -34 180 -34c44 0 64 20 64 20z" />
    <glyph glyph-name="hungarumlaut" unicode="&#x2dd;" horiz-adv-x="568" 
d="M109 602l-45 50c78 73 123 121 187 204l85 -78c-82 -83 -137 -121 -227 -176zM346 602l-36 53c95 63 145 104 217 177l74 -93c-83 -63 -156 -99 -255 -137z" />
    <glyph glyph-name="x.superior" unicode="&#x2e3;" horiz-adv-x="396" 
d="M389 465c0 -17 0 -33 -6 -49h-170c-6 17 -6 32 -6 44l7 2c6 2 16 17 3 32l-44 53l-45 -68c-2 -3 -2 -7 3 -8l35 -11c0 -15 -2 -33 -6 -44h-147c-6 16 -6 29 -6 44c0 0 21 12 31 23l99 106l-80 96c-22 26 -29 36 -50 49c-1 16 -2 35 1 52h183v-56h-30l65 -78l42 51
c8 9 8 21 -2 29l-10 8c0 9 -4 23 2 46h130c0 -18 0 -26 -2 -41l-30 -26l-100 -104l112 -125c10 -11 13 -14 21 -25z" />
    <glyph glyph-name="uni0374" unicode="&#x374;" horiz-adv-x="327" 
d="M272 617c0 -86 -86 -178 -170 -228l-44 41c26 27 65 75 74 111c-29 24 -67 72 -67 86c0 31 75 103 102 103c36 0 105 -75 105 -113z" />
    <glyph glyph-name="uni0375" unicode="&#x375;" horiz-adv-x="327" 
d="M272 24c0 -87 -86 -179 -170 -228l-44 40c26 28 65 76 74 111c-29 24 -67 72 -67 87c0 30 75 102 102 102c36 0 105 -74 105 -112z" />
    <glyph glyph-name="uni037E" unicode="&#x37e;" horiz-adv-x="411" 
d="M283 484c0 -23 -84 -106 -106 -106s-105 82 -105 106c0 25 83 105 105 105s106 -81 106 -105zM299 22c0 -72 -101 -187 -180 -241l-47 43c27 29 70 86 83 120c-31 26 -73 75 -73 90c0 28 86 106 108 106c24 0 109 -77 109 -118z" />
    <glyph glyph-name="tonos" unicode="&#x384;" horiz-adv-x="500" 
d="M365 883l125 -74c-48 -79 -112 -147 -176 -208l-58 44c39 68 83 157 109 238z" />
    <glyph glyph-name="dieresistonos" unicode="&#x385;" horiz-adv-x="651" 
d="M137 603c-17 0 -83 70 -83 84c0 18 68 84 83 84c16 0 85 -69 85 -84c0 -12 -70 -84 -85 -84zM517 603c-17 0 -83 70 -83 84c0 18 68 84 83 84c16 0 85 -69 85 -84c0 -12 -70 -84 -85 -84zM297 601l-58 44c39 68 78 158 109 238l125 -74c-48 -79 -112 -147 -176 -208z" />
    <glyph glyph-name="Alphatonos" unicode="&#x386;" horiz-adv-x="777" 
d="M746 59c0 -24 -1 -39 -7 -59h-316c-8 21 -9 37 -9 65l53 19c23 8 33 23 33 43c0 13 -3 23 -8 37l-34 104h-223l-36 -95c-5 -15 -7 -27 -7 -38c0 -34 21 -44 37 -49l72 -21c0 -19 0 -45 -6 -65h-273c-5 17 -5 38 -5 60c23 22 35 32 48 61l246 569l157 33l233 -604
c10 -24 28 -42 45 -60zM431 351l-49 149l-24 86h-6l-28 -83l-57 -152h164zM33 454l-73 54c43 64 87 151 118 231l125 -74c-48 -79 -106 -150 -170 -211z" />
    <glyph glyph-name="anoteleia" unicode="&#x387;" horiz-adv-x="311" 
d="M261 358c0 -23 -84 -106 -106 -106s-105 82 -105 106c0 25 83 105 105 105s106 -81 106 -105z" />
    <glyph glyph-name="Epsilontonos" unicode="&#x388;" horiz-adv-x="672" 
d="M642 175l-28 -175h-587c-5 24 -6 46 -5 65l42 10c23 5 45 15 45 34l3 174v278c0 44 -15 50 -31 57l-55 25v31c0 13 0 23 4 33h576v-167c-16 -4 -53 -6 -70 -6c-14 66 -44 78 -84 78l-169 4v-215l271 5v-102l-271 5v-28l4 -191l129 5c70 3 126 17 155 96zM-173 454l-73 54
c43 64 87 151 118 231l125 -74c-48 -79 -106 -150 -170 -211z" />
    <glyph glyph-name="Etatonos" unicode="&#x389;" horiz-adv-x="882" 
d="M850 56c0 -29 -2 -41 -7 -56h-341c-3 14 -5 29 -5 56l64 25c17 7 28 20 28 42l2 159v27h-310v-28l3 -166c0 -30 10 -37 45 -45l56 -13c0 -24 -3 -44 -7 -57h-341c-3 16 -5 35 -5 57l45 18c28 11 33 14 33 50l1 157v313c0 29 -10 35 -34 44l-39 15c0 22 -1 33 5 53h313
c5 -18 5 -32 5 -52l-47 -16c-21 -7 -33 -23 -33 -57v-182h310v194c0 34 -13 40 -34 46l-46 14c-3 22 -3 35 1 53h318c4 -20 3 -38 3 -52l-43 -17c-17 -7 -29 -17 -29 -44v-313l3 -150c0 -33 6 -47 23 -53zM-153 454l-73 54c43 64 87 151 118 231l125 -74
c-48 -79 -106 -150 -170 -211z" />
    <glyph glyph-name="Iotatonos" unicode="&#x38a;" horiz-adv-x="394" 
d="M369 68c0 -24 0 -42 -7 -68h-334c-3 12 -4 21 -4 31c0 9 1 19 1 30l36 10c20 7 47 24 48 56l3 154v291c0 33 -32 50 -51 58l-36 16c0 11 -1 20 -1 29s1 19 4 32h338c2 -26 1 -49 -3 -68l-44 -11c-29 -8 -36 -35 -36 -54v-293l2 -169c1 -19 5 -24 23 -30zM-167 454l-73 54
c43 64 87 151 118 231l125 -74c-48 -79 -106 -150 -170 -211z" />
    <glyph glyph-name="Omicrontonos" unicode="&#x38c;" horiz-adv-x="838" 
d="M803 383c0 -214 -152 -395 -402 -395c-244 0 -366 119 -366 331c0 222 166 399 405 399c253 0 363 -131 363 -335zM613 354c0 141 -51 259 -192 259c-149 0 -196 -118 -196 -257c0 -138 46 -261 189 -261c155 0 199 117 199 259zM-101 454l-73 54c43 64 87 151 118 231
l125 -74c-48 -79 -106 -150 -170 -211z" />
    <glyph glyph-name="Upsilontonos" unicode="&#x38e;" horiz-adv-x="723" 
d="M184 0c-3 15 -5 47 -4 60l54 15c24 6 40 29 40 57v81c0 149 -130 383 -241 383c-8 0 -18 0 -28 -2l-7 90c34 19 70 31 108 31c147 0 232 -105 264 -389c62 290 201 388 300 388c19 0 41 -2 53 -8l-8 -127c-6 2 -14 2 -20 2c-122 0 -249 -243 -249 -372v-74
c0 -22 13 -48 32 -53l61 -22c0 -9 -2 -49 -5 -60h-350zM-188 454l-73 54c43 64 87 151 118 231l125 -74c-48 -79 -106 -150 -170 -211z" />
    <glyph glyph-name="Omegatonos" unicode="&#x38f;" horiz-adv-x="828" 
d="M42 0v139l157 -53l3 9c-114 48 -163 145 -163 251c0 181 151 372 387 372c253 0 363 -131 363 -335c0 -157 -117 -246 -226 -297l3 -7l220 60v-139h-295v115c58 49 108 153 108 239c0 141 -51 259 -192 259c-149 0 -196 -117 -196 -257c0 -103 47 -183 126 -240v-116
h-295zM-94 454l-73 54c43 64 87 151 118 231l125 -74c-48 -79 -106 -150 -170 -211z" />
    <glyph glyph-name="iotadieresistonos" unicode="&#x390;" horiz-adv-x="344" 
d="M-3 603c-17 0 -83 70 -83 84c0 18 68 84 83 84c16 0 85 -69 85 -84c0 -12 -70 -84 -85 -84zM377 603c-17 0 -83 70 -83 84c0 18 68 84 83 84c16 0 85 -69 85 -84c0 -12 -70 -84 -85 -84zM157 601l-58 44c39 68 78 158 109 238l125 -74c-48 -79 -112 -147 -176 -208z
M184 -9c-95 0 -110 44 -109 129l1 154v48l-6 224h177l-4 -224v-48l5 -131c1 -40 22 -52 49 -52c10 0 22 2 34 4l8 -47c-41 -38 -114 -57 -155 -57z" />
    <glyph glyph-name="Alpha" unicode="&#x391;" horiz-adv-x="777" 
d="M746 59c0 -24 -1 -39 -7 -59h-316c-8 21 -9 37 -9 65l53 19c23 8 33 23 33 43c0 13 -3 23 -8 37l-34 104h-223l-36 -95c-5 -15 -7 -27 -7 -38c0 -34 21 -44 37 -49l72 -21c0 -19 0 -45 -6 -65h-273c-5 17 -5 38 -5 60c23 22 35 32 48 61l246 569l157 33l233 -604
c10 -24 28 -42 45 -60zM431 351l-49 149l-24 86h-6l-28 -83l-57 -152h164z" />
    <glyph glyph-name="Beta" unicode="&#x392;" horiz-adv-x="730" 
d="M693 227c0 -130 -96 -227 -299 -227h-364c-7 22 -7 38 -7 63l36 11c24 7 50 21 50 52l2 156v305c0 36 -34 48 -58 55l-29 8c0 30 1 40 5 57h335c169 0 278 -50 278 -182c0 -92 -80 -122 -124 -137c-2 -1 1 -3 0 -4c50 -6 175 -40 175 -157zM459 514
c0 56 -17 101 -117 101h-60v-207h69c95 0 108 55 108 106zM510 204c0 65 -34 114 -173 114h-55v-38l3 -189h91c98 0 134 47 134 113z" />
    <glyph glyph-name="Gamma" unicode="&#x393;" horiz-adv-x="618" 
d="M27 0c-4 18 -5 43 -5 63l53 15c18 5 32 24 33 49l4 156v284c0 25 -6 43 -32 53l-52 20c0 17 -1 49 3 67h561v-188c-26 -6 -39 -7 -66 -7c-11 64 -23 100 -92 101l-151 3v-333l3 -148c0 -24 4 -41 22 -45l111 -22c0 -23 0 -42 -8 -68h-384z" />
    <glyph glyph-name="uni0394" unicode="&#x394;" horiz-adv-x="777" 
d="M731 76l-40 -76h-636l-25 69l282 621l156 33zM523 109l-138 391l-27 91h-6l-31 -88l-162 -405z" />
    <glyph glyph-name="Epsilon" unicode="&#x395;" horiz-adv-x="672" 
d="M642 175l-28 -175h-587c-5 24 -6 46 -5 65l42 10c23 5 45 15 45 34l3 174v278c0 44 -15 50 -31 57l-55 25v31c0 13 0 23 4 33h576v-167c-16 -4 -53 -6 -70 -6c-14 66 -44 78 -84 78l-169 4v-215l271 5v-102l-271 5v-28l4 -191l129 5c70 3 126 17 155 96z" />
    <glyph glyph-name="Zeta" unicode="&#x396;" horiz-adv-x="650" 
d="M640 219l-27 -219h-558l-28 82l361 527l-210 -5c-22 -3 -38 -45 -51 -109c-18 -2 -29 -4 -40 -4c-12 0 -23 2 -41 5v211h558l20 -60l-375 -549l214 13c52 6 80 66 101 124z" />
    <glyph glyph-name="Eta" unicode="&#x397;" horiz-adv-x="882" 
d="M850 56c0 -29 -2 -41 -7 -56h-341c-3 14 -5 29 -5 56l64 25c17 7 28 20 28 42l2 159v27h-310v-28l3 -166c0 -30 10 -37 45 -45l56 -13c0 -24 -3 -44 -7 -57h-341c-3 16 -5 35 -5 57l45 18c28 11 33 14 33 50l1 157v313c0 29 -10 35 -34 44l-39 15c0 22 -1 33 5 53h313
c5 -18 5 -32 5 -52l-47 -16c-21 -7 -33 -23 -33 -57v-182h310v194c0 34 -13 40 -34 46l-46 14c-3 22 -3 35 1 53h318c4 -20 3 -38 3 -52l-43 -17c-17 -7 -29 -17 -29 -44v-313l3 -150c0 -33 6 -47 23 -53z" />
    <glyph glyph-name="Theta" unicode="&#x398;" horiz-adv-x="838" 
d="M550 304l-262 5v92l262 5v-102zM803 383c0 -214 -152 -395 -402 -395c-244 0 -366 119 -366 331c0 222 166 399 405 399c253 0 363 -131 363 -335zM613 354c0 141 -51 259 -192 259c-149 0 -196 -118 -196 -257c0 -138 46 -261 189 -261c155 0 199 117 199 259z" />
    <glyph glyph-name="Iota" unicode="&#x399;" horiz-adv-x="394" 
d="M369 68c0 -24 0 -42 -7 -68h-334c-3 12 -4 21 -4 31c0 9 1 19 1 30l36 10c20 7 47 24 48 56l3 154v291c0 33 -32 50 -51 58l-36 16c0 11 -1 20 -1 29s1 19 4 32h338c2 -26 1 -49 -3 -68l-44 -11c-29 -8 -36 -35 -36 -54v-293l2 -169c1 -19 5 -24 23 -30z" />
    <glyph glyph-name="Kappa" unicode="&#x39a;" horiz-adv-x="768" 
d="M751 -12c-44 0 -179 8 -255 94l-213 239v-40l2 -169c1 -19 4 -26 23 -30l61 -14c0 -24 0 -42 -7 -68h-334c-4 22 -3 39 -3 61l36 10c20 7 47 24 48 56l3 154v291c0 33 -32 50 -51 58l-36 16c0 22 -1 38 4 61h337c2 -26 1 -49 -3 -68l-44 -11c-29 -7 -36 -35 -36 -54v-208
l198 189c10 9 15 21 15 32c0 19 -8 36 -20 42l-28 15c0 23 -1 38 5 63h283v-49l-308 -268l145 -148c61 -63 124 -125 195 -174z" />
    <glyph glyph-name="Lambda" unicode="&#x39b;" horiz-adv-x="761" 
d="M730 59c0 -23 -2 -39 -7 -59h-316c-8 21 -9 37 -9 65l53 19c23 8 33 22 33 43c0 12 -4 23 -8 37l-106 338l-22 74h-5l-24 -73l-120 -330c-5 -14 -7 -28 -7 -38c0 -34 21 -44 37 -49l72 -21c0 -19 0 -45 -6 -65h-273c-4 17 -5 39 -5 60c23 23 35 31 48 61l239 569l156 33
l225 -604c9 -25 28 -41 45 -60z" />
    <glyph glyph-name="Mu" unicode="&#x39c;" horiz-adv-x="1094" 
d="M1084 56c0 -9 -1 -45 -4 -56h-342c-2 15 -4 41 -4 54l25 9c41 15 50 76 45 114l-40 257l-15 105h-5l-159 -521l-147 -41l-166 566h-6l-13 -100l-51 -324c-3 -18 0 -29 11 -32l84 -30c0 -9 0 -46 -4 -57h-279c-3 15 -5 41 -4 54l36 18c28 14 47 47 53 78l86 429
c5 23 -8 39 -27 45l-65 20c0 9 1 52 4 63h310l99 -347l31 -121h9l36 124l108 344h295c3 -15 5 -49 4 -62l-49 -11c-24 -5 -45 -28 -36 -72l93 -449c5 -22 15 -29 32 -35z" />
    <glyph glyph-name="Nu" unicode="&#x39d;" horiz-adv-x="856" 
d="M831 656l-49 -27c-22 -12 -41 -40 -41 -69v-550l-131 -40l-384 520h-7l4 -80v-137l3 -151c0 -24 2 -32 24 -38l85 -24c0 -9 -1 -49 -5 -60h-301c-3 15 -5 46 -4 59l48 13c31 8 47 57 48 89l2 112v299c0 22 -13 42 -29 51l-61 31c0 9 -1 42 2 53h232l373 -492h7l-6 105
v239c0 25 -17 54 -37 64l-63 31c0 9 0 42 4 53h282c2 -15 4 -38 4 -51z" />
    <glyph glyph-name="Xi" unicode="&#x39e;" horiz-adv-x="699" 
d="M121 508c-17 0 -54 2 -70 6v193h596v-193c-16 -4 -53 -6 -70 -6c-13 67 -44 84 -84 83l-288 -4c-40 -1 -71 -12 -84 -79zM55 0l-20 198l71 16c25 -79 69 -98 139 -96l199 6c70 2 125 17 148 96l72 -16l-17 -204h-592zM564 295l-430 5v120l430 5v-130z" />
    <glyph glyph-name="Omicron" unicode="&#x39f;" horiz-adv-x="838" 
d="M803 383c0 -214 -152 -395 -402 -395c-244 0 -366 119 -366 331c0 222 166 399 405 399c253 0 363 -131 363 -335zM613 354c0 141 -51 259 -192 259c-149 0 -196 -118 -196 -257c0 -138 46 -261 189 -261c155 0 199 117 199 259z" />
    <glyph glyph-name="Pi" unicode="&#x3a0;" horiz-adv-x="868" 
d="M37 0c-4 16 -5 35 -5 57l45 18c28 11 33 14 33 50l1 157v313c0 29 -11 35 -34 44c0 0 -19 10 -39 15c0 22 -1 33 5 53h773c4 -20 3 -38 3 -52l-43 -17c-17 -7 -29 -17 -29 -44v-313l3 -150c1 -33 6 -47 23 -53l63 -22c0 -29 0 -38 -7 -56h-341c-4 14 -5 29 -5 56l64 25
c17 7 28 20 28 42l2 159v327h-296v-328l3 -166c1 -30 10 -37 45 -45l56 -13c0 -24 -3 -44 -7 -57h-341z" />
    <glyph glyph-name="Rho" unicode="&#x3a1;" horiz-adv-x="729" 
d="M711 501c0 -144 -116 -251 -290 -251h-80v78l35 1c110 3 146 64 146 148c0 79 -44 137 -155 140l-84 2v-346l4 -151c0 -20 3 -32 21 -35l102 -21c0 -9 0 -55 -4 -66h-380c-2 15 -4 49 -3 62l48 11c23 5 38 35 39 62l3 138v306c0 16 -8 33 -24 40l-65 26c-1 8 0 49 5 62
h432c141 0 250 -58 250 -206z" />
    <glyph glyph-name="Sigma" unicode="&#x3a3;" horiz-adv-x="637" 
d="M623 219l-27 -219h-546l-28 80l209 285l-200 262l27 80h541v-167c-16 -4 -53 -6 -70 -6c-13 67 -44 78 -84 79l-193 3l153 -212l-197 -267l238 7c53 2 79 33 101 91z" />
    <glyph glyph-name="Tau" unicode="&#x3a4;" horiz-adv-x="712" 
d="M708 707v-198c-13 -3 -58 -6 -65 -3c-12 62 -39 99 -94 103l-108 7v-343l5 -152c0 -23 2 -32 21 -36l85 -18c0 -9 -1 -56 -4 -67h-382c-3 15 -5 54 -4 67l64 19c23 7 40 42 41 69l3 118v343l-117 -7c-49 -3 -72 -45 -83 -103c-8 -3 -53 -1 -66 3v198h704z" />
    <glyph glyph-name="Upsilon" unicode="&#x3a5;" horiz-adv-x="723" 
d="M184 0c-3 15 -5 47 -4 60l54 15c24 6 40 29 40 57v81c0 149 -130 383 -241 383c-8 0 -18 0 -28 -2l-7 90c34 19 70 31 108 31c147 0 232 -105 264 -389c62 290 201 388 300 388c19 0 41 -2 53 -8l-8 -127c-6 2 -14 2 -20 2c-122 0 -249 -243 -249 -372v-74
c0 -22 13 -48 32 -53l61 -22c0 -9 -2 -49 -5 -60h-350z" />
    <glyph glyph-name="Phi" unicode="&#x3a6;" horiz-adv-x="846" 
d="M821 379c0 -127 -105 -223 -310 -252v-15c0 -19 4 -26 23 -30l61 -14c0 -23 1 -42 -7 -68h-334c-3 12 -4 23 -4 32s1 18 1 29l36 10c21 6 48 21 48 52c-137 4 -310 34 -310 214c0 155 166 234 313 256c-1 4 -2 7 -4 10c-10 13 -32 20 -47 27l-36 16c0 11 -1 20 -1 29
s1 19 4 32h338c2 -26 1 -49 -3 -68l-44 -11c-20 -5 -30 -11 -34 -22c-1 -2 -2 -5 -2 -8c152 -9 312 -51 312 -219zM636 360c0 93 -61 125 -127 135l1 -195v-75c89 10 126 57 126 135zM337 300l1 194c-65 -12 -128 -46 -128 -133c0 -82 43 -127 127 -136v75z" />
    <glyph glyph-name="Chi" unicode="&#x3a7;" horiz-adv-x="739" 
d="M729 54c0 -9 -1 -43 -5 -54h-319c-2 15 -4 41 -3 54l34 23c19 12 18 30 3 52l-92 131l-107 -124c-17 -19 -17 -46 -1 -55l52 -27c0 -9 -1 -43 -5 -54h-272c-3 15 -5 41 -4 54l23 18c32 24 55 48 81 78l170 194l-179 223c-28 35 -53 62 -75 85c-3 16 -3 40 -2 55h297
c2 -15 4 -42 3 -55l-34 -18c-12 -7 -17 -25 0 -48l91 -125l104 119c15 17 13 43 -1 51l-38 22c0 9 -1 43 3 54h255c2 -15 -1 -41 -2 -54c-42 -20 -58 -44 -86 -77l-170 -196l191 -235c45 -56 45 -49 88 -91z" />
    <glyph glyph-name="Psi" unicode="&#x3a8;" horiz-adv-x="893" 
d="M883 644l-50 -16c-13 -4 -27 -10 -27 -40v-117c0 -178 -127 -258 -246 -275l1 -84c0 -19 4 -26 23 -30l61 -14c0 -23 1 -42 -7 -68h-334c-3 12 -4 23 -4 32s1 18 1 29l36 10c21 6 47 24 48 56l1 64c-133 3 -294 33 -294 253v129c0 22 -12 45 -29 52l-53 21c0 9 0 50 4 61
h256v-236c0 -113 57 -157 118 -172v273c0 38 -10 51 -26 58l-36 16c0 11 -1 20 -1 29s1 19 4 32h288c2 -26 1 -49 -3 -68l-40 -10c-15 -4 -15 -20 -15 -47v-289c65 9 122 48 122 202v212h198c2 -15 5 -50 4 -63z" />
    <glyph glyph-name="uni03A9" unicode="&#x3a9;" horiz-adv-x="828" 
d="M42 0v139l157 -53l3 9c-114 48 -163 145 -163 251c0 181 151 372 387 372c253 0 363 -131 363 -335c0 -157 -117 -246 -226 -297l3 -7l220 60v-139h-295v115c58 49 108 153 108 239c0 141 -51 259 -192 259c-149 0 -196 -117 -196 -257c0 -103 47 -183 126 -240v-116
h-295z" />
    <glyph glyph-name="Iotadieresis" unicode="&#x3aa;" horiz-adv-x="394" 
d="M80 766c-17 0 -79 63 -79 79c0 18 63 80 79 80c17 0 81 -64 81 -80c0 -13 -61 -79 -81 -79zM311 766c-17 0 -79 63 -79 79c0 18 63 80 79 80s81 -64 81 -80c0 -13 -61 -79 -81 -79zM369 68c0 -24 0 -42 -7 -68h-334c-3 12 -4 21 -4 31c0 9 1 19 1 30l36 10
c20 7 47 24 48 56l3 154v291c0 33 -32 50 -51 58l-36 16c0 11 -1 20 -1 29s1 19 4 32h338c2 -26 1 -49 -3 -68l-44 -11c-29 -8 -36 -35 -36 -54v-293l2 -169c1 -19 5 -24 23 -30z" />
    <glyph glyph-name="Upsilondieresis" unicode="&#x3ab;" horiz-adv-x="723" 
d="M184 0c-3 15 -5 47 -4 60l54 15c24 6 40 29 40 57v81c0 149 -130 383 -241 383c-8 0 -18 0 -28 -2l-7 90c34 19 70 31 108 31c147 0 232 -105 264 -389c62 290 201 388 300 388c19 0 41 -2 53 -8l-8 -127c-6 2 -14 2 -20 2c-122 0 -249 -243 -249 -372v-74
c0 -22 13 -48 32 -53l61 -22c0 -9 -2 -49 -5 -60h-350zM259 766c-17 0 -79 63 -79 79c0 18 63 80 79 80c17 0 81 -64 81 -80c0 -13 -61 -79 -81 -79zM490 766c-17 0 -79 63 -79 79c0 18 63 80 79 80s81 -64 81 -80c0 -13 -61 -79 -81 -79z" />
    <glyph glyph-name="alphatonos" unicode="&#x3ac;" horiz-adv-x="679" 
d="M387 883l125 -74c-48 -79 -112 -147 -176 -208l-58 44c39 68 83 157 109 238zM543 -8c-66 0 -81 35 -94 92l-3 25c-77 -90 -133 -115 -196 -115c-139 0 -220 78 -220 269c0 170 122 297 262 297c114 0 167 -68 196 -183c17 65 29 128 36 169h152
c-28 -93 -87 -230 -149 -327l17 -61c13 -50 30 -61 60 -61c17 0 52 8 52 8l10 -53c-16 -15 -70 -60 -123 -60zM315 110c48 0 86 44 117 106l-3 22c-26 203 -67 231 -136 231c-51 0 -92 -55 -92 -156c0 -131 29 -203 114 -203z" />
    <glyph glyph-name="epsilontonos" unicode="&#x3ad;" horiz-adv-x="561" 
d="M334 883l125 -74c-48 -79 -112 -147 -176 -208l-58 44c39 68 83 157 109 238zM284 -13c-109 0 -252 24 -252 163c0 64 39 120 97 145c-46 17 -76 60 -76 109c0 118 159 159 252 159c64 0 218 -5 218 -97c0 -30 -26 -66 -50 -82c-38 54 -94 97 -157 97s-99 -26 -99 -81
c0 -33 18 -54 49 -63c20 5 91 10 112 10c2 -9 5 -23 5 -39c0 -17 -3 -36 -13 -57c-15 0 -91 1 -106 2c-37 -18 -49 -42 -49 -82c0 -56 57 -75 108 -75c65 0 126 22 174 56l48 -79c-77 -61 -149 -86 -261 -86z" />
    <glyph glyph-name="etatonos" unicode="&#x3ae;" horiz-adv-x="656" 
d="M411 -220l4 274v272c0 67 -1 117 -60 117c-43 0 -61 -6 -90 -17v-152l3 -274h-175l5 274v140c0 38 -16 46 -36 46c-7 0 -26 -1 -32 -3l-12 64c45 23 124 40 163 40c60 0 80 -17 80 -62v-2c39 34 99 64 158 64c164 0 163 -83 163 -181v-326l6 -274h-177zM365 883l125 -74
c-48 -79 -112 -147 -176 -208l-58 44c39 68 83 157 109 238z" />
    <glyph glyph-name="iotatonos" unicode="&#x3af;" horiz-adv-x="344" 
d="M184 -9c-95 0 -110 44 -109 129l1 154v48l-6 224h177l-4 -224v-48l5 -131c1 -40 22 -52 49 -52c10 0 22 2 34 4l8 -47c-41 -38 -114 -57 -155 -57zM187 883l125 -74c-48 -79 -112 -147 -176 -208l-58 44c39 68 83 157 109 238z" />
    <glyph glyph-name="upsilondieresistonos" unicode="&#x3b0;" horiz-adv-x="671" 
d="M137 603c-17 0 -83 70 -83 84c0 18 68 84 83 84c16 0 85 -69 85 -84c0 -12 -70 -84 -85 -84zM517 603c-17 0 -83 70 -83 84c0 18 68 84 83 84c16 0 85 -69 85 -84c0 -12 -70 -84 -85 -84zM297 601l-58 44c39 68 78 158 109 238l125 -74c-48 -79 -112 -147 -176 -208z
M341 -13c-129 0 -239 52 -239 198v229c0 38 -16 46 -36 46c-7 0 -26 -1 -32 -3l-12 64c45 23 124 40 163 40c60 0 84 -16 84 -61v-296c0 -60 13 -117 84 -117c104 0 121 121 121 202c0 91 -7 143 -86 201c26 44 65 71 116 71c106 0 137 -111 137 -219
c0 -171 -115 -355 -300 -355z" />
    <glyph glyph-name="alpha" unicode="&#x3b1;" horiz-adv-x="679" 
d="M543 -8c-66 0 -81 35 -94 92l-3 25c-77 -90 -133 -115 -196 -115c-139 0 -220 78 -220 269c0 170 122 297 262 297c114 0 167 -68 196 -183c17 65 29 128 36 169h152c-28 -93 -87 -230 -149 -327l17 -61c13 -50 30 -61 60 -61c17 0 52 8 52 8l10 -53
c-16 -15 -70 -60 -123 -60zM315 110c48 0 86 44 117 106l-3 22c-26 203 -67 231 -136 231c-51 0 -92 -55 -92 -156c0 -131 29 -203 114 -203z" />
    <glyph glyph-name="beta" unicode="&#x3b2;" horiz-adv-x="670" 
d="M640 230c0 -144 -129 -246 -269 -246c-38 0 -91 4 -129 10l7 -214h-179l4 495v230c0 171 132 263 275 263c126 0 235 -39 235 -168c0 -75 -61 -142 -126 -165c98 -21 182 -97 182 -205zM462 208c0 107 -73 141 -158 151l-18 82c78 20 149 49 149 140c0 65 -35 99 -100 99
c-64 0 -93 -50 -93 -128v-457c23 -4 47 -9 71 -9c82 0 149 30 149 122z" />
    <glyph glyph-name="gamma" unicode="&#x3b3;" horiz-adv-x="573" 
d="M273 -231c-28 0 -55 4 -80 11c0 0 -1 31 3 74c2 21 5 45 10 70c-24 189 -74 359 -114 457c-23 57 -49 79 -78 79c-5 0 -11 -1 -17 -3l-19 60c31 26 71 45 112 45c50 0 101 -28 137 -105c35 -76 67 -183 90 -301c52 95 107 216 107 300c0 30 -7 55 -24 73
c15 19 45 32 75 32c39 0 77 -21 77 -77c0 -126 -119 -313 -211 -477c11 -78 17 -156 20 -227c-33 -8 -61 -11 -88 -11z" />
    <glyph glyph-name="delta" unicode="&#x3b4;" horiz-adv-x="633" 
d="M603 276c0 -164 -146 -284 -304 -284c-153 0 -269 92 -269 251c0 117 68 210 180 245c-53 29 -103 65 -103 131c0 107 144 149 231 149c61 0 220 -11 220 -99c0 -44 -31 -72 -63 -87c-28 56 -118 100 -188 100c-32 0 -62 -11 -62 -34c0 -88 358 -140 358 -372zM425 253
c0 106 -48 146 -136 192c-66 -40 -83 -91 -83 -174c0 -79 22 -182 120 -182c86 0 99 98 99 164z" />
    <glyph glyph-name="epsilon" unicode="&#x3b5;" horiz-adv-x="561" 
d="M284 -13c-109 0 -252 24 -252 163c0 64 39 120 97 145c-46 17 -76 60 -76 109c0 118 159 159 252 159c64 0 218 -5 218 -97c0 -30 -26 -66 -50 -82c-38 54 -94 97 -157 97s-99 -26 -99 -81c0 -33 18 -54 49 -63c20 5 91 10 112 10c2 -9 5 -23 5 -39c0 -17 -3 -36 -13 -57
c-15 0 -91 1 -106 2c-37 -18 -49 -42 -49 -82c0 -56 57 -75 108 -75c65 0 126 22 174 56l48 -79c-77 -61 -149 -86 -261 -86z" />
    <glyph glyph-name="zeta" unicode="&#x3b6;" horiz-adv-x="547" 
d="M421 -236l-40 36c28 32 41 58 41 81c0 34 -31 59 -90 77c-107 34 -278 69 -278 254c0 190 169 320 300 389c-54 -7 -110 -9 -163 -9c-69 0 -116 29 -116 90c0 39 31 88 68 102c27 -51 81 -77 152 -77h232c6 -13 9 -42 9 -59c0 -13 -2 -27 -6 -37
c-114 -72 -304 -167 -304 -354c0 -99 77 -137 155 -164c98 -34 152 -76 152 -137c0 -50 -36 -112 -112 -192z" />
    <glyph glyph-name="eta" unicode="&#x3b7;" horiz-adv-x="656" 
d="M411 -220l4 274v272c0 67 -1 117 -60 117c-43 0 -61 -6 -90 -17v-152l3 -274h-175l5 274v140c0 38 -16 46 -36 46c-7 0 -26 -1 -32 -3l-12 64c45 23 124 40 163 40c60 0 80 -17 80 -62v-2c39 34 99 64 158 64c164 0 163 -83 163 -181v-326l6 -274h-177z" />
    <glyph glyph-name="theta" unicode="&#x3b8;" horiz-adv-x="619" 
d="M300 -10c-222 0 -262 210 -262 377c0 160 90 398 277 398c219 0 266 -189 266 -374c0 -172 -77 -401 -281 -401zM321 87c76 0 82 179 82 246l-189 5c3 -100 19 -251 107 -251zM214 420l189 5c-3 98 -19 243 -105 243c-83 0 -84 -188 -84 -248z" />
    <glyph glyph-name="iota" unicode="&#x3b9;" horiz-adv-x="344" 
d="M184 -9c-95 0 -110 44 -109 129l1 154v48l-6 224h177l-4 -224v-48l5 -131c1 -40 22 -52 49 -52c10 0 22 2 34 4l8 -47c-41 -38 -114 -57 -155 -57z" />
    <glyph glyph-name="kappa" unicode="&#x3ba;" horiz-adv-x="651" 
d="M629 -21c-141 11 -221 47 -276 151l-59 112l-28 -30l2 -212h-175l5 274v140c0 38 -16 46 -36 46c-7 0 -26 -1 -32 -3l-12 64c45 23 124 40 163 40c60 0 85 -16 85 -61v-171l118 139c47 56 89 93 164 93c48 0 87 -22 87 -65c0 -24 -11 -47 -25 -63c-20 9 -53 11 -70 11
c-35 0 -70 -6 -114 -55l-20 -22l95 -162c45 -77 101 -122 150 -141z" />
    <glyph glyph-name="lambda" unicode="&#x3bb;" horiz-adv-x="560" 
d="M454 -14c-55 0 -78 38 -94 93l-97 336l-87 -415h-171l211 546l-13 35c-19 51 -67 83 -128 85l50 124c116 0 173 -46 222 -197l149 -462c11 -35 31 -41 50 -41c13 0 24 1 37 3l9 -64c-28 -22 -71 -43 -138 -43z" />
    <glyph glyph-name="uni03BC" unicode="&#x3bc;" horiz-adv-x="700" 
d="M70 -220l10 470v296h167v-355c0 -55 13 -80 51 -80c35 0 81 9 116 20l1 143v272h167v-272l5 -131c1 -40 22 -52 49 -52c10 0 22 2 34 4l8 -47c-41 -38 -114 -57 -155 -57c-70 0 -96 23 -105 69c-43 -38 -90 -68 -140 -68c-23 0 -42 0 -56 1c29 -34 30 -50 32 -90l5 -123
h-189z" />
    <glyph glyph-name="nu" unicode="&#x3bd;" horiz-adv-x="589" 
d="M229 -31l-164 450c-13 35 -24 42 -43 42c-7 0 -13 -2 -19 -4l-21 60c42 28 89 44 143 44c60 0 83 -33 98 -81l105 -326c69 116 91 216 91 273c0 36 -11 65 -40 88c22 33 55 47 94 47c54 0 89 -31 89 -84c0 -89 -80 -272 -209 -472z" />
    <glyph glyph-name="xi" unicode="&#x3be;" horiz-adv-x="518" 
d="M532 686c0 -58 -43 -78 -75 -93c-34 58 -85 88 -129 88c-46 0 -83 -33 -83 -99c0 -52 8 -102 64 -118c19 5 85 9 104 9c2 -11 4 -23 4 -36c0 -21 -4 -44 -13 -70c-22 0 -90 8 -111 13c-56 -24 -79 -69 -79 -127c0 -198 283 -123 283 -260c0 -83 -92 -172 -179 -222
l-42 38c55 50 82 88 82 130c0 61 -324 -5 -324 292c0 91 64 152 141 191c-64 26 -103 89 -103 159c0 122 154 187 267 187c52 0 193 0 193 -82z" />
    <glyph glyph-name="omicron" unicode="&#x3bf;" horiz-adv-x="633" 
d="M310 -13c-175 0 -280 91 -280 278c0 144 126 296 289 296c189 0 284 -97 284 -281c0 -144 -124 -293 -293 -293zM326 88c79 0 99 83 99 182c0 89 -20 192 -117 192c-96 0 -102 -111 -102 -183c0 -94 25 -191 120 -191z" />
    <glyph glyph-name="pi" unicode="&#x3c0;" horiz-adv-x="705" 
d="M547 -9c-95 0 -113 44 -112 129l4 154v152l-183 -8v-144l7 -274h-153l9 274v136c-42 -2 -77 -5 -99 -7l-6 12l54 131h613l-11 -113c-22 -1 -55 -1 -94 -2v-157l5 -131c1 -40 22 -52 49 -52c10 0 22 2 34 4l8 -47c-41 -38 -84 -57 -125 -57z" />
    <glyph glyph-name="rho" unicode="&#x3c1;" horiz-adv-x="612" 
d="M582 280c0 -150 -94 -287 -254 -287c-25 0 -55 8 -78 17l14 86c12 -1 24 -3 37 -3c104 0 106 98 106 177c0 75 -4 186 -106 186c-80 0 -89 -73 -89 -136l14 -540h-186l5 485c2 150 109 294 268 294c188 0 269 -95 269 -279z" />
    <glyph glyph-name="sigma1" unicode="&#x3c2;" horiz-adv-x="543" 
d="M527 465c0 -45 -25 -79 -65 -103c-38 63 -96 104 -135 104c-89 0 -123 -66 -123 -190c0 -208 286 -169 286 -292c0 -72 -85 -158 -163 -212l-47 43c44 44 58 76 58 116c0 55 -308 44 -308 348c0 169 149 281 296 281c90 0 201 -19 201 -95z" />
    <glyph glyph-name="sigma" unicode="&#x3c3;" horiz-adv-x="651" 
d="M310 -8c-189 0 -273 106 -273 259c0 152 136 301 336 300c156 -1 273 -5 273 -5l-16 -155l-105 12c30 -42 46 -80 46 -127c0 -139 -92 -284 -261 -284zM316 79c89 0 117 87 117 204c0 50 -7 90 -20 136c-29 4 -46 3 -71 3c-114 -1 -149 -77 -149 -170
c0 -92 39 -173 123 -173z" />
    <glyph glyph-name="tau" unicode="&#x3c4;" horiz-adv-x="579" 
d="M335 -11c-97 0 -164 45 -164 146c0 75 22 189 46 278c-78 -5 -151 -10 -197 -15l-6 12l54 136h470l-9 -119c-49 -1 -125 -4 -205 -8c-2 -77 -4 -171 -4 -231c0 -59 33 -85 80 -85c39 0 63 6 106 19l20 -39c-45 -71 -120 -94 -191 -94z" />
    <glyph glyph-name="upsilon" unicode="&#x3c5;" horiz-adv-x="671" 
d="M341 -13c-129 0 -239 52 -239 198v229c0 38 -16 46 -36 46c-7 0 -26 -1 -32 -3l-12 64c45 23 124 40 163 40c60 0 84 -16 84 -61v-296c0 -60 13 -117 84 -117c104 0 121 121 121 202c0 91 -7 143 -86 201c26 44 65 71 116 71c106 0 137 -111 137 -219
c0 -171 -115 -355 -300 -355z" />
    <glyph glyph-name="phi" unicode="&#x3c6;" horiz-adv-x="852" 
d="M334 -220l4 215c-197 16 -308 97 -308 270c0 127 129 259 319 288l3 154h137l3 -150c219 -14 330 -108 330 -277c0 -137 -122 -256 -319 -282l4 -218h-173zM501 96c79 13 149 64 149 174c0 117 -74 162 -156 181zM340 101l7 353c-91 -16 -147 -71 -147 -175
c0 -115 64 -155 140 -178z" />
    <glyph glyph-name="chi" unicode="&#x3c7;" horiz-adv-x="560" 
d="M14 -220l196 380l-122 260c-16 34 -26 41 -45 41c-7 0 -15 -2 -21 -4l-21 60c42 28 89 44 143 44c60 0 79 -31 99 -80l63 -157l71 222h161l-183 -315l147 -339c5 -12 16 -19 35 -19c13 0 23 1 35 3l9 -68c-34 -22 -77 -40 -144 -40c-55 0 -86 31 -109 91l-76 199
l-78 -278h-160z" />
    <glyph glyph-name="psi" unicode="&#x3c8;" horiz-adv-x="841" 
d="M349 -220l4 211c-158 6 -259 85 -259 224v199c0 38 -16 46 -36 46c-7 0 -26 -1 -32 -3l-12 64c45 23 111 40 150 40c60 0 89 -16 89 -61v-266c0 -89 52 -118 102 -129l12 602h137l12 -612c93 23 143 125 143 197c0 75 -11 148 -85 202c16 43 46 67 97 67
c106 0 142 -112 142 -220c0 -155 -134 -316 -295 -344l4 -217h-173z" />
    <glyph glyph-name="omega" unicode="&#x3c9;" horiz-adv-x="883" 
d="M853 248c0 -159 -89 -257 -247 -257c-75 0 -139 47 -164 86c-25 -39 -90 -86 -165 -86c-158 0 -247 98 -247 257c0 172 109 291 233 311c3 1 7 1 10 1c27 0 42 -15 44 -49c-84 -46 -109 -144 -109 -274c0 -75 29 -147 92 -147c65 0 75 79 79 89c-24 51 -24 151 -24 176
c22 13 58 21 93 21c31 0 61 -6 81 -21c0 -25 -1 -125 -25 -176c4 -10 15 -89 80 -89c63 0 92 72 92 147c0 113 -29 225 -109 274c3 34 17 49 51 49c3 0 8 0 11 -1c124 -20 224 -139 224 -311z" />
    <glyph glyph-name="iotadieresis" unicode="&#x3ca;" horiz-adv-x="344" 
d="M184 -9c-95 0 -110 44 -109 129l1 154v48l-6 224h177l-4 -224v-48l5 -131c1 -40 22 -52 49 -52c10 0 22 2 34 4l8 -47c-41 -38 -114 -57 -155 -57zM50 636c-17 0 -79 63 -79 79c0 18 63 80 79 80c17 0 81 -64 81 -80c0 -13 -61 -79 -81 -79zM279 636c-17 0 -79 63 -79 79
c0 18 63 80 79 80s81 -64 81 -80c0 -13 -61 -79 -81 -79z" />
    <glyph glyph-name="upsilondieresis" unicode="&#x3cb;" horiz-adv-x="671" 
d="M341 -13c-129 0 -239 52 -239 198v229c0 38 -16 46 -36 46c-7 0 -26 -1 -32 -3l-12 64c45 23 124 40 163 40c60 0 84 -16 84 -61v-296c0 -60 13 -117 84 -117c104 0 121 121 121 202c0 91 -7 143 -86 201c26 44 65 71 116 71c106 0 137 -111 137 -219
c0 -171 -115 -355 -300 -355zM212 636c-17 0 -79 63 -79 79c0 18 63 80 79 80c17 0 81 -64 81 -80c0 -13 -61 -79 -81 -79zM441 636c-17 0 -79 63 -79 79c0 18 63 80 79 80s81 -64 81 -80c0 -13 -61 -79 -81 -79z" />
    <glyph glyph-name="omicrontonos" unicode="&#x3cc;" horiz-adv-x="633" 
d="M310 -13c-175 0 -280 91 -280 278c0 144 126 296 289 296c189 0 284 -97 284 -281c0 -144 -124 -293 -293 -293zM326 88c79 0 99 83 99 182c0 89 -20 192 -117 192c-96 0 -102 -111 -102 -183c0 -94 25 -191 120 -191zM365 883l125 -74c-48 -79 -112 -147 -176 -208
l-58 44c39 68 83 157 109 238z" />
    <glyph glyph-name="upsilontonos" unicode="&#x3cd;" horiz-adv-x="671" 
d="M341 -13c-129 0 -239 52 -239 198v229c0 38 -16 46 -36 46c-7 0 -26 -1 -32 -3l-12 64c45 23 124 40 163 40c60 0 84 -16 84 -61v-296c0 -60 13 -117 84 -117c104 0 121 121 121 202c0 91 -7 143 -86 201c26 44 65 71 116 71c106 0 137 -111 137 -219
c0 -171 -115 -355 -300 -355zM374 883l125 -74c-48 -79 -112 -147 -176 -208l-58 44c39 68 83 157 109 238z" />
    <glyph glyph-name="omegatonos" unicode="&#x3ce;" horiz-adv-x="883" 
d="M853 248c0 -159 -89 -257 -247 -257c-75 0 -139 47 -164 86c-25 -39 -90 -86 -165 -86c-158 0 -247 98 -247 257c0 172 109 291 233 311c3 1 7 1 10 1c27 0 42 -15 44 -49c-84 -46 -109 -144 -109 -274c0 -75 29 -147 92 -147c65 0 75 79 79 89c-24 51 -24 151 -24 176
c22 13 58 21 93 21c31 0 61 -6 81 -21c0 -25 -1 -125 -25 -176c4 -10 15 -89 80 -89c63 0 92 72 92 147c0 113 -29 225 -109 274c3 34 17 49 51 49c3 0 8 0 11 -1c124 -20 224 -139 224 -311zM494 883l125 -74c-48 -79 -112 -147 -176 -208l-58 44c39 68 83 157 109 238z
" />
    <glyph glyph-name="beta.alt" unicode="&#x3d0;" horiz-adv-x="647" 
d="M568 636c0 -76 -64 -135 -118 -166c91 -9 162 -59 162 -198c0 -136 -126 -279 -323 -279c-120 0 -234 76 -234 349v73c0 211 150 354 329 354c111 0 184 -56 184 -133zM223 513v-197c0 -157 29 -216 99 -216c68 0 108 80 108 155c0 64 -30 124 -97 124
c-12 0 -23 -3 -37 -4l-26 68c76 27 136 77 136 162c0 46 -42 73 -92 73c-62 0 -91 -47 -91 -165z" />
    <glyph glyph-name="theta.alt" unicode="&#x3d1;" horiz-adv-x="611" 
d="M292 -10c-129 0 -207 76 -216 184c-4 47 -21 54 -37 54c-8 0 -18 -1 -31 -2l-2 65c35 11 125 25 169 25c28 0 42 -21 47 -57c12 -88 28 -172 87 -172c58 0 87 83 87 298v10c-37 -19 -89 -36 -146 -36c-121 0 -181 64 -181 182c0 122 118 226 221 226
c174 0 281 -88 283 -380c-5 -257 -129 -397 -281 -397zM309 461h30c22 0 38 0 54 4c-8 117 -38 203 -103 203c-44 0 -76 -51 -76 -117c0 -69 29 -90 95 -90z" />
    <glyph glyph-name="phi.alt" unicode="&#x3d5;" horiz-adv-x="822" 
d="M314 -220l4 215c-197 16 -288 97 -288 270c0 104 42 206 140 280h137c-78 -76 -107 -152 -107 -266c0 -104 49 -157 120 -178l5 232c3 142 84 229 222 226c176 -4 245 -110 245 -249c0 -168 -112 -286 -309 -312l4 -218h-173zM481 96c91 23 139 95 139 204
c0 113 -42 151 -80 151c-40 0 -66 -23 -65 -106z" />
    <glyph glyph-name="uni03D7" unicode="&#x3d7;" horiz-adv-x="857" 
d="M458 -238c-241 0 -428 120 -428 417c0 136 69 272 159 367h79c-71 -95 -93 -201 -93 -318c0 -193 81 -359 295 -359c139 0 250 54 308 117c-107 16 -172 55 -219 144l-59 112l-28 -30l2 -212h-175l5 274v91l-7 180h180l-5 -183v-33l118 139c47 56 89 93 164 93
c48 0 87 -22 87 -65c0 -24 -11 -47 -25 -63c-20 9 -53 11 -70 11c-35 0 -70 -6 -114 -55l-20 -22l95 -162c45 -77 81 -110 130 -129l-3 -83c-59 -125 -206 -231 -376 -231z" />
    <glyph glyph-name="uni03D8" unicode="&#x3d8;" horiz-adv-x="838" 
d="M333 -220l14 210c-208 16 -312 133 -312 329c0 222 166 399 405 399c253 0 363 -131 363 -335c0 -188 -117 -350 -315 -387l15 -216h-170zM414 95c155 0 199 117 199 259c0 141 -51 259 -192 259c-149 0 -196 -118 -196 -257c0 -138 46 -261 189 -261z" />
    <glyph glyph-name="uni03D9" unicode="&#x3d9;" horiz-adv-x="633" 
d="M242 -220l14 210c-142 17 -226 108 -226 275c0 144 126 296 289 296c189 0 284 -97 284 -281c0 -118 -83 -239 -206 -279l15 -221h-170zM326 88c79 0 99 83 99 182c0 89 -20 192 -117 192c-96 0 -102 -111 -102 -183c0 -94 25 -191 120 -191z" />
    <glyph glyph-name="uni03DA" unicode="&#x3da;" horiz-adv-x="557" 
d="M567 532c0 -61 -60 -99 -116 -99h-145c-104 0 -126 -71 -126 -157c0 -88 59 -156 147 -156h90c47 0 71 -18 72 -71c1 -83 -145 -226 -207 -268l-47 43c28 30 88 92 111 168h-60c-22 0 -42 1 -61 3c-167 20 -215 124 -215 261c0 121 96 290 286 290h64c75 0 115 16 139 88
c37 -14 68 -63 68 -102z" />
    <glyph glyph-name="uni03DB" unicode="&#x3db;" horiz-adv-x="557" 
d="M567 532c0 -61 -60 -99 -116 -99h-145c-104 0 -126 -71 -126 -157c0 -88 59 -156 147 -156h90c47 0 71 -18 72 -71c1 -83 -145 -226 -207 -268l-47 43c28 30 88 92 111 168h-60c-22 0 -42 1 -61 3c-167 20 -215 124 -215 261c0 121 96 290 286 290h64c75 0 115 16 139 88
c37 -14 68 -63 68 -102z" />
    <glyph glyph-name="uni03DC" unicode="&#x3dc;" horiz-adv-x="594" 
d="M576 605l-323 11v-237l271 5v-102l-271 5v-8l4 -279h-178l3 283l1 424h493v-102z" />
    <glyph glyph-name="uni03DD" unicode="&#x3dd;" horiz-adv-x="519" 
d="M501 444l-248 11v-237l196 5v-102l-196 5v-66l4 -279h-178l3 283l1 482h418v-102z" />
    <glyph glyph-name="uni03DE" unicode="&#x3de;" horiz-adv-x="531" 
d="M296 -44c-18 0 -87 69 -87 88c0 4 2 9 139 314l-274 -71l-47 84l145 290l-9 -3c-17 0 -70 69 -69 83c2 18 75 84 90 84c16 0 78 -69 78 -84c0 -4 -2 -13 -6 -25c-24 -71 -105 -254 -105 -254l294 53l41 -74l-168 -321c27 -20 66 -61 66 -76c0 -19 -70 -88 -88 -88z" />
    <glyph glyph-name="uni03DF" unicode="&#x3df;" horiz-adv-x="455" 
d="M455 499l-275 -568l-160 33l266 464l-218 -18l-39 64l110 187c-3 0 -10 -1 -16 3c-24 18 -63 66 -62 77c2 18 75 84 90 84c16 0 78 -69 78 -84c0 -6 -4 -21 -11 -39c-22 -61 -71 -167 -71 -167l267 19z" />
    <glyph glyph-name="uni03E0" unicode="&#x3e0;" horiz-adv-x="740" 
d="M705 -68c0 -31 -1 -62 -4 -93h-144v26c0 118 -9 228 -37 322l-260 -207l-43 58l277 221c-16 38 -37 74 -61 105l-289 -231l-44 58l284 226c-80 72 -193 113 -348 113h-36v67c36 4 62 7 98 7c400 0 607 -291 607 -672z" />
    <glyph glyph-name="uni03E1" unicode="&#x3e1;" horiz-adv-x="576" 
d="M358 -307l-71 25c47 156 58 227 59 369l-229 -81l-22 69l248 87c-4 41 -12 81 -25 120l-261 -93l-23 69l256 89c-52 99 -140 180 -270 228l22 63c344 -37 491 -266 488 -466c-2 -156 -78 -347 -172 -479z" />
    <glyph glyph-name="uni03F0" unicode="&#x3f0;" horiz-adv-x="740" 
d="M141 -18c-65 7 -115 133 -109 156l115 36c11 59 21 121 21 190c0 58 -7 94 -61 94c-22 0 -53 -3 -83 -15l-19 67c36 27 89 51 145 51c108 0 153 -56 153 -134c0 -59 -15 -114 -35 -164l322 300c26 1 110 -74 113 -129l-106 -41c-13 -66 -24 -134 -24 -210
c0 -58 7 -94 61 -94c22 0 53 3 83 15l19 -67c-36 -27 -89 -51 -145 -51c-108 0 -153 56 -153 134c0 67 20 128 43 185z" />
    <glyph glyph-name="uni0400" unicode="&#x400;" horiz-adv-x="672" 
d="M642 175l-28 -175h-587c-5 24 -6 46 -5 65l42 10c23 5 45 15 45 34l3 174v278c0 44 -15 50 -31 57l-55 25v31c0 13 0 23 4 33h576v-167c-16 -4 -53 -6 -70 -6c-14 66 -44 78 -84 78l-169 4v-215l271 5v-102l-271 5v-28l4 -191l129 5c70 3 126 17 155 96zM415 743
c-99 19 -230 51 -312 81l47 110c82 -44 196 -85 285 -116z" />
    <glyph glyph-name="afii10023" unicode="&#x401;" horiz-adv-x="672" 
d="M234 766c-17 0 -79 63 -79 79c0 18 63 80 79 80c17 0 81 -64 81 -80c0 -13 -61 -79 -81 -79zM469 766c-17 0 -79 63 -79 79c0 18 63 80 79 80s81 -64 81 -80c0 -13 -61 -79 -81 -79zM642 175l-28 -175h-587c-5 24 -6 46 -5 65l42 10c23 5 45 15 45 34l3 174v278
c0 44 -15 50 -31 57l-55 25v31c0 13 0 23 4 33h576v-167c-16 -4 -53 -6 -70 -6c-14 66 -44 78 -84 78l-169 4v-215l271 5v-102l-271 5v-28l4 -191l129 5c70 3 126 17 155 96z" />
    <glyph glyph-name="afii10051" unicode="&#x402;" horiz-adv-x="874" 
d="M698 707v-198c-13 -3 -58 -6 -65 -3c-12 62 -39 99 -94 103l-118 7v-218c66 23 132 44 199 43c134 -1 230 -66 230 -205c0 -175 -108 -346 -246 -456l-69 72c86 104 135 222 135 352c0 99 -59 138 -119 138c-37 0 -74 -7 -130 -35v-34l5 -162c0 -23 2 -32 21 -36l75 -18
c0 -9 -1 -46 -4 -57h-372c-3 15 -5 44 -4 57l61 21c38 13 43 50 44 77l3 118v343l-97 -7c-49 -3 -72 -45 -83 -103c-8 -3 -53 -1 -66 3v198h694z" />
    <glyph glyph-name="afii10052" unicode="&#x403;" horiz-adv-x="626" 
d="M215 743l-20 75c89 31 203 72 285 116l47 -110c-82 -30 -213 -62 -312 -81zM27 0c-4 18 -5 43 -5 63l53 15c18 5 33 25 33 49l4 156v284c0 25 -7 42 -32 53l-52 20c0 17 0 48 3 67h575v-195c-26 -6 -43 -7 -70 -7c-12 63 -59 107 -98 107l-155 4v-337l3 -144
c1 -24 3 -41 22 -45l111 -22c0 -24 0 -42 -8 -68h-384z" />
    <glyph glyph-name="afii10053" unicode="&#x404;" horiz-adv-x="707" 
d="M677 38c-80 -32 -138 -45 -237 -45c-253 0 -405 111 -405 356c0 206 178 370 401 370c109 0 142 -11 237 -47v-174c-17 -2 -36 -2 -65 1c-30 77 -89 117 -176 117c-114 0 -201 -54 -217 -207l299 5v-102l-298 5c17 -124 109 -195 239 -195c68 0 125 10 190 24z" />
    <glyph glyph-name="afii10054" unicode="&#x405;" horiz-adv-x="638" 
d="M603 217c0 -163 -170 -228 -309 -228c-81 0 -189 17 -259 60l19 181h72c8 -98 90 -150 183 -150c39 0 117 15 117 67c0 40 -59 66 -130 98c-103 46 -230 103 -230 234c0 129 140 235 263 235c83 0 173 -18 241 -51v-155h-65c-20 80 -97 111 -173 111
c-54 0 -107 -17 -107 -80c0 -43 75 -71 158 -107c104 -45 220 -101 220 -215z" />
    <glyph glyph-name="afii10055" unicode="&#x406;" horiz-adv-x="394" 
d="M369 68c0 -24 0 -42 -7 -68h-334c-3 12 -4 21 -4 31c0 9 1 19 1 30l36 10c20 7 47 24 48 56l3 154v291c0 33 -32 50 -51 58l-36 16c0 11 -1 20 -1 29s1 19 4 32h338c2 -26 1 -49 -3 -68l-44 -11c-29 -8 -36 -35 -36 -54v-293l2 -169c1 -19 5 -24 23 -30z" />
    <glyph glyph-name="afii10056" unicode="&#x407;" horiz-adv-x="394" 
d="M81 766c-17 0 -79 63 -79 79c0 18 63 80 79 80c17 0 81 -64 81 -80c0 -13 -61 -79 -81 -79zM316 766c-17 0 -79 63 -79 79c0 18 63 80 79 80s81 -64 81 -80c0 -13 -61 -79 -81 -79zM369 68c0 -24 0 -42 -7 -68h-334c-3 12 -4 21 -4 31c0 9 1 19 1 30l36 10
c20 7 47 24 48 56l3 154v291c0 33 -32 50 -51 58l-36 16c0 11 -1 20 -1 29s1 19 4 32h338c2 -26 1 -49 -3 -68l-44 -11c-29 -8 -36 -35 -36 -54v-293l2 -169c1 -19 5 -24 23 -30z" />
    <glyph glyph-name="afii10057" unicode="&#x408;" horiz-adv-x="398" 
d="M368 643l-47 -12c-31 -8 -38 -15 -38 -44v-489c0 -148 -149 -227 -260 -274l-50 91c117 72 138 91 138 231v411c0 27 -16 63 -48 74l-44 15c0 23 1 50 4 61h342c3 -15 4 -51 3 -64z" />
    <glyph glyph-name="afii10058" unicode="&#x409;" horiz-adv-x="1024" 
d="M136 217c34 58 47 236 59 362c3 25 -3 52 -29 59l-44 17c0 9 1 41 4 52h594c2 -26 1 -49 -3 -68l-44 -11c-29 -8 -36 -35 -36 -54v-156h59c160 0 316 -38 316 -208s-156 -212 -316 -211l-311 1c-7 22 -7 38 -7 63l36 11c24 7 50 21 50 52l2 156v334h-168l-12 -137
c-30 -237 -21 -436 -232 -501l-68 170c58 15 129 33 150 69zM829 209c0 65 -38 119 -147 119h-45l3 -237h42c110 0 147 52 147 118z" />
    <glyph glyph-name="afii10059" unicode="&#x40a;" horiz-adv-x="1138" 
d="M810 -1l-209 1h-102c-7 22 -7 38 -7 63l36 11c24 7 50 21 50 52l2 156v37h-299v-38l3 -166c0 -30 10 -37 45 -45l56 -13c0 -24 -3 -44 -7 -57h-341c-3 16 -5 35 -5 57l45 18c28 11 33 14 33 50l1 157v313c0 29 -11 35 -34 44c0 0 -19 10 -39 15c0 22 -1 33 5 53h313
c5 -18 5 -32 5 -52l-47 -16c-21 -7 -33 -23 -33 -57v-172h299v177c0 36 -34 48 -58 55l-29 8c0 30 1 40 5 57h336c2 -26 1 -49 -3 -68l-44 -11c-29 -8 -36 -35 -36 -54v-165h59c160 0 316 -34 316 -204s-156 -207 -316 -206zM754 91h42c110 0 147 47 147 113
c0 65 -38 115 -147 115h-45v-29z" />
    <glyph glyph-name="afii10060" unicode="&#x40b;" horiz-adv-x="938" 
d="M4 707h694v-198c-13 -3 -58 -6 -65 -3c-12 62 -39 99 -94 103l-118 7v-218c66 23 122 44 189 43c134 -2 230 -44 230 -183v-146c0 -29 11 -35 34 -44c0 0 19 -10 39 -15c0 -22 1 -33 -5 -53h-313c-5 18 -5 32 -5 52l47 16c21 7 33 23 33 57v111c0 89 -59 106 -109 106
c-37 0 -84 -7 -140 -35v-34l5 -162c0 -23 2 -32 21 -36l75 -18c0 -9 -1 -46 -4 -57h-372c-3 15 -5 44 -4 57l61 21c38 13 43 50 44 77l3 118v343l-97 -7c-49 -3 -72 -45 -83 -103c-8 -3 -53 -1 -66 3v198z" />
    <glyph glyph-name="afii10061" unicode="&#x40c;" horiz-adv-x="768" 
d="M751 -12c-44 0 -179 8 -255 94l-213 239v-40l2 -169c1 -19 4 -26 23 -30l61 -14c0 -24 0 -42 -7 -68h-334c-4 22 -3 39 -3 61l36 10c20 7 47 24 48 56l3 154v291c0 33 -32 50 -51 58l-36 16c0 22 -1 38 4 61h337c2 -26 1 -49 -3 -68l-44 -11c-29 -7 -36 -35 -36 -54v-208
l198 189c10 9 15 21 15 32c0 19 -8 36 -20 42l-28 15c0 23 -1 38 5 63h283v-49l-308 -268l145 -148c61 -63 124 -125 195 -174zM302 743l-20 75c89 31 203 72 285 116l47 -110c-82 -30 -213 -62 -312 -81z" />
    <glyph glyph-name="uni040D" unicode="&#x40d;" horiz-adv-x="892" 
d="M860 56c0 -29 0 -38 -7 -56h-341c-3 14 -5 29 -5 56l64 25c17 7 28 20 28 42l2 159v170l-320 -300c0 -50 7 -72 48 -82l56 -13c0 -24 -3 -44 -7 -57h-341c-3 16 -5 35 -5 57l45 18c28 11 33 14 33 50l1 157v313c0 29 -11 35 -34 44c0 0 -19 10 -39 15c0 22 -1 33 5 53
h313c5 -18 5 -32 5 -52l-47 -16c-21 -7 -33 -23 -33 -57v-309l320 300v21c0 34 -13 40 -34 46l-46 14c-3 22 -3 35 1 53h318c4 -20 3 -38 3 -52l-43 -17c-17 -7 -29 -17 -29 -44v-313l3 -150c0 -33 6 -47 23 -53zM594 743c-99 19 -230 51 -312 81l47 110
c82 -44 196 -85 285 -116z" />
    <glyph glyph-name="afii10062" unicode="&#x40e;" horiz-adv-x="706" 
d="M246 -27l-93 139c35 12 67 23 94 35c31 14 59 40 68 52l-222 355c-28 43 -45 77 -88 96v21c0 16 1 31 2 36h305c3 -15 4 -53 4 -67l-51 -19c-10 -4 -16 -14 -16 -24c0 -13 5 -21 11 -32l133 -233l104 242c3 7 4 15 4 22c0 15 -6 28 -17 34l-36 18v19c0 17 1 35 3 40h257
c2 -13 3 -46 3 -59c-32 -13 -72 -24 -88 -60l-238 -501c-28 -65 -89 -96 -139 -114zM595 876c-40 -40 -161 -119 -266 -119c-79 0 -137 46 -137 112c0 44 46 78 90 86c29 -60 36 -106 91 -106s142 52 175 78z" />
    <glyph glyph-name="afii10145" unicode="&#x40f;" horiz-adv-x="882" 
d="M350 0h-313c-3 16 -5 35 -5 57l45 18c28 11 33 14 33 50l1 157v313c0 29 -11 35 -34 44c0 0 -19 10 -39 15c0 22 -1 33 5 53h313c5 -18 5 -32 5 -52l-47 -16c-21 -7 -33 -23 -33 -57v-301l4 -190h283l3 191v312c0 34 -13 40 -34 46l-46 14c-3 22 -3 35 1 53h318
c4 -20 3 -38 3 -52l-43 -17c-17 -7 -29 -17 -29 -44v-313l3 -150c0 -33 6 -47 23 -53l63 -22c0 -29 0 -38 -7 -56h-320l4 -183h-161z" />
    <glyph glyph-name="afii10017" unicode="&#x410;" horiz-adv-x="777" 
d="M746 59c0 -24 -1 -39 -7 -59h-316c-8 21 -9 37 -9 65l53 19c23 8 33 23 33 43c0 13 -3 23 -8 37l-34 104h-223l-36 -95c-5 -15 -7 -27 -7 -38c0 -34 21 -44 37 -49l72 -21c0 -19 0 -45 -6 -65h-273c-5 17 -5 38 -5 60c23 22 35 32 48 61l246 569l157 33l233 -604
c10 -24 28 -42 45 -60zM431 351l-49 149l-24 86h-6l-28 -83l-57 -152h164z" />
    <glyph glyph-name="afii10018" unicode="&#x411;" horiz-adv-x="706" 
d="M120 282v305c0 36 -34 48 -58 55l-29 8c0 30 1 40 5 57h575v-177c-26 -6 -43 -5 -70 -5c-12 63 -53 83 -92 84l-160 6v-197h59c160 0 326 -28 326 -208s-166 -212 -326 -211l-311 1c-7 22 -7 38 -7 63l36 11c24 7 50 21 50 52zM291 328l3 -237h42c130 0 157 52 157 118
c0 65 -28 119 -157 119h-45z" />
    <glyph glyph-name="afii10019" unicode="&#x412;" horiz-adv-x="730" 
d="M693 227c0 -130 -96 -227 -299 -227h-364c-7 22 -7 38 -7 63l36 11c24 7 50 21 50 52l2 156v305c0 36 -34 48 -58 55l-29 8c0 30 1 40 5 57h335c169 0 278 -50 278 -182c0 -92 -80 -122 -124 -137c-2 -1 1 -3 0 -4c50 -6 175 -40 175 -157zM459 514
c0 56 -17 101 -117 101h-60v-207h69c95 0 108 55 108 106zM510 204c0 65 -34 114 -173 114h-55v-38l3 -189h91c98 0 134 47 134 113z" />
    <glyph glyph-name="afii10020" unicode="&#x413;" horiz-adv-x="626" 
d="M27 0c-4 18 -5 43 -5 63l53 15c18 5 33 25 33 49l4 156v284c0 25 -7 42 -32 53l-52 20c0 17 0 48 3 67h575v-195c-26 -6 -43 -7 -70 -7c-12 63 -59 107 -98 107l-155 4v-337l3 -144c1 -24 3 -41 22 -45l111 -22c0 -24 0 -42 -8 -68h-384z" />
    <glyph glyph-name="afii10021" unicode="&#x414;" horiz-adv-x="781" 
d="M2 -177v269h68c34 47 57 97 74 150c30 94 39 199 51 327c3 25 -4 50 -29 59l-49 17c0 9 1 51 4 62h594c4 -20 3 -48 3 -62l-49 -17c-17 -7 -33 -17 -33 -44v-303l5 -189h107v-270c-11 -2 -65 -6 -73 -2c-12 45 -22 174 -142 180h-316c-120 -6 -132 -131 -144 -176
c-7 -2 -25 -2 -41 -2c-13 0 -25 0 -30 1zM193 91h270l3 191v334h-168l-12 -137c-20 -155 -24 -246 -93 -388z" />
    <glyph glyph-name="afii10022" unicode="&#x415;" horiz-adv-x="672" 
d="M642 175l-28 -175h-587c-5 24 -6 46 -5 65l42 10c23 5 45 15 45 34l3 174v278c0 44 -15 50 -31 57l-55 25v31c0 13 0 23 4 33h576v-167c-16 -4 -53 -6 -70 -6c-14 66 -44 78 -84 78l-169 4v-215l271 5v-102l-271 5v-28l4 -191l129 5c70 3 126 17 155 96z" />
    <glyph glyph-name="afii10024" unicode="&#x416;" horiz-adv-x="1084" 
d="M1067 -12c-44 0 -156 7 -231 94l-209 240v-41l2 -169c0 -19 14 -34 33 -38l41 -13c0 -24 0 -35 -7 -61h-314c-4 22 -3 39 -3 61l36 10c20 6 38 24 39 56l3 154v42l-209 -241c-75 -87 -187 -94 -231 -94l-17 80c78 60 115 104 173 169l142 157l-281 264v49h269
c6 -25 5 -35 5 -58l-24 -15c-11 -7 -20 -23 -20 -42c0 -11 6 -27 15 -37l178 -189v236c0 33 -23 32 -42 40l-36 11c0 22 -1 31 4 54h311c2 -26 1 -36 -3 -55l-38 -16c-27 -12 -26 -43 -26 -62v-209l178 190c9 10 15 26 15 37c0 19 -9 35 -20 42l-24 15c0 23 -1 33 5 58h269
v-49l-281 -263l142 -158c58 -65 95 -109 173 -169z" />
    <glyph glyph-name="afii10025" unicode="&#x417;" horiz-adv-x="632" 
d="M302 -11c-90 0 -182 23 -249 59l48 109c55 -32 126 -62 196 -62c76 0 117 50 117 110c0 50 -35 102 -143 102c-22 0 -58 -2 -95 -3v106c41 -3 63 -4 94 -4c85 0 116 58 116 109c0 59 -50 94 -110 94c-66 0 -113 -31 -133 -111h-69v165c68 33 152 51 235 51
c54 0 260 -18 260 -189c0 -92 -68 -127 -112 -142v-4c50 -12 140 -56 140 -172c0 -133 -138 -218 -295 -218z" />
    <glyph glyph-name="afii10026" unicode="&#x418;" horiz-adv-x="892" 
d="M860 56c0 -29 0 -38 -7 -56h-341c-3 14 -5 29 -5 56l64 25c17 7 28 20 28 42l2 159v170l-320 -300c0 -50 7 -72 48 -82l56 -13c0 -24 -3 -44 -7 -57h-341c-3 16 -5 35 -5 57l45 18c28 11 33 14 33 50l1 157v313c0 29 -11 35 -34 44c0 0 -19 10 -39 15c0 22 -1 33 5 53
h313c5 -18 5 -32 5 -52l-47 -16c-21 -7 -33 -23 -33 -57v-309l320 300v21c0 34 -13 40 -34 46l-46 14c-3 22 -3 35 1 53h318c4 -20 3 -38 3 -52l-43 -17c-17 -7 -29 -17 -29 -44v-313l3 -150c0 -33 6 -47 23 -53z" />
    <glyph glyph-name="afii10027" unicode="&#x419;" horiz-adv-x="892" 
d="M666 876c-40 -40 -161 -119 -266 -119c-79 0 -137 46 -137 112c0 44 46 78 90 86c29 -60 36 -106 91 -106s142 52 175 78zM860 56c0 -29 0 -38 -7 -56h-341c-3 14 -5 29 -5 56l64 25c17 7 28 20 28 42l2 159v170l-320 -300c0 -50 7 -72 48 -82l56 -13
c0 -24 -3 -44 -7 -57h-341c-3 16 -5 35 -5 57l45 18c28 11 33 14 33 50l1 157v313c0 29 -11 35 -34 44c0 0 -19 10 -39 15c0 22 -1 33 5 53h313c5 -18 5 -32 5 -52l-47 -16c-21 -7 -33 -23 -33 -57v-309l320 300v21c0 34 -13 40 -34 46l-46 14c-3 22 -3 35 1 53h318
c4 -20 3 -38 3 -52l-43 -17c-17 -7 -29 -17 -29 -44v-313l3 -150c0 -33 6 -47 23 -53z" />
    <glyph glyph-name="afii10028" unicode="&#x41a;" horiz-adv-x="768" 
d="M751 -12c-44 0 -179 8 -255 94l-213 239v-40l2 -169c1 -19 4 -26 23 -30l61 -14c0 -24 0 -42 -7 -68h-334c-4 22 -3 39 -3 61l36 10c20 7 47 24 48 56l3 154v291c0 33 -32 50 -51 58l-36 16c0 22 -1 38 4 61h337c2 -26 1 -49 -3 -68l-44 -11c-29 -7 -36 -35 -36 -54v-208
l198 189c10 9 15 21 15 32c0 19 -8 36 -20 42l-28 15c0 23 -1 38 5 63h283v-49l-308 -268l145 -148c61 -63 124 -125 195 -174z" />
    <glyph glyph-name="afii10029" unicode="&#x41b;" horiz-adv-x="757" 
d="M136 217c34 58 47 236 59 362c3 25 -3 52 -29 59l-44 17c0 9 1 41 4 52h579c4 -20 3 -38 3 -52l-43 -17c-17 -7 -29 -17 -29 -44v-313l3 -150c0 -33 6 -47 23 -53l63 -22c0 -29 0 -38 -7 -56h-341c-3 14 -5 29 -5 56l64 25c17 7 28 20 28 42l2 159v334h-168l-12 -137
c-30 -237 -21 -436 -232 -501l-68 170c58 15 129 33 150 69z" />
    <glyph glyph-name="afii10030" unicode="&#x41c;" horiz-adv-x="1094" 
d="M1084 56c0 -9 -1 -45 -4 -56h-342c-2 15 -4 41 -4 54l25 9c41 15 50 76 45 114l-40 257l-15 105h-5l-159 -521l-147 -41l-166 566h-6l-13 -100l-51 -324c-3 -18 0 -29 11 -32l84 -30c0 -9 0 -46 -4 -57h-279c-3 15 -5 41 -4 54l36 18c28 14 47 47 53 78l86 429
c5 23 -8 39 -27 45l-65 20c0 9 1 52 4 63h310l99 -347l31 -121h9l36 124l108 344h295c3 -15 5 -49 4 -62l-49 -11c-24 -5 -45 -28 -36 -72l93 -449c5 -22 15 -29 32 -35z" />
    <glyph glyph-name="afii10031" unicode="&#x41d;" horiz-adv-x="882" 
d="M850 56c0 -29 -2 -41 -7 -56h-341c-3 14 -5 29 -5 56l64 25c17 7 28 20 28 42l2 159v27h-310v-28l3 -166c0 -30 10 -37 45 -45l56 -13c0 -24 -3 -44 -7 -57h-341c-3 16 -5 35 -5 57l45 18c28 11 33 14 33 50l1 157v313c0 29 -10 35 -34 44l-39 15c0 22 -1 33 5 53h313
c5 -18 5 -32 5 -52l-47 -16c-21 -7 -33 -23 -33 -57v-182h310v194c0 34 -13 40 -34 46l-46 14c-3 22 -3 35 1 53h318c4 -20 3 -38 3 -52l-43 -17c-17 -7 -29 -17 -29 -44v-313l3 -150c0 -33 6 -47 23 -53z" />
    <glyph glyph-name="afii10032" unicode="&#x41e;" horiz-adv-x="838" 
d="M803 383c0 -214 -152 -395 -402 -395c-244 0 -366 119 -366 331c0 222 166 399 405 399c253 0 363 -131 363 -335zM613 354c0 141 -51 259 -192 259c-149 0 -196 -118 -196 -257c0 -138 46 -261 189 -261c155 0 199 117 199 259z" />
    <glyph glyph-name="afii10033" unicode="&#x41f;" horiz-adv-x="877" 
d="M845 56c0 -29 0 -38 -7 -56h-341c-3 14 -5 29 -5 56l64 25c17 7 28 20 28 42l2 159v334h-305v-335l3 -166c0 -30 10 -37 45 -45l56 -13c0 -24 -3 -44 -7 -57h-341c-3 16 -5 35 -5 57l45 18c28 11 33 14 33 50l1 157v313c0 29 -11 35 -34 44c0 0 -19 10 -39 15
c0 22 -1 33 5 53h782c4 -20 3 -38 3 -52l-43 -17c-17 -7 -29 -17 -29 -44v-313l3 -150c0 -33 6 -47 23 -53z" />
    <glyph glyph-name="afii10034" unicode="&#x420;" horiz-adv-x="729" 
d="M711 501c0 -144 -116 -251 -290 -251h-80v78l35 1c110 3 146 64 146 148c0 79 -44 137 -155 140l-84 2v-346l4 -151c0 -20 3 -32 21 -35l102 -21c0 -9 0 -55 -4 -66h-380c-2 15 -4 49 -3 62l48 11c23 5 38 35 39 62l3 138v306c0 16 -8 33 -24 40l-65 26c-1 8 0 49 5 62
h432c141 0 250 -58 250 -206z" />
    <glyph glyph-name="afii10035" unicode="&#x421;" horiz-adv-x="707" 
d="M677 38c-80 -32 -138 -45 -237 -45c-253 0 -405 111 -405 356c0 206 178 370 401 370c109 0 154 -11 237 -47v-172c-17 -2 -36 -4 -65 -1c-30 77 -89 117 -176 117c-125 0 -219 -65 -219 -257c0 -150 98 -237 242 -237c68 0 125 10 190 24z" />
    <glyph glyph-name="afii10036" unicode="&#x422;" horiz-adv-x="712" 
d="M708 707v-198c-13 -3 -58 -6 -65 -3c-12 62 -39 99 -94 103l-108 7v-343l5 -152c0 -23 2 -32 21 -36l85 -18c0 -9 -1 -56 -4 -67h-382c-3 15 -5 54 -4 67l64 19c23 7 40 42 41 69l3 118v343l-117 -7c-49 -3 -72 -45 -83 -103c-8 -3 -53 -1 -66 3v198h704z" />
    <glyph glyph-name="afii10037" unicode="&#x423;" horiz-adv-x="706" 
d="M246 -27l-93 139c35 12 67 23 94 35c31 14 59 40 68 52l-222 355c-28 43 -45 77 -88 96v21c0 16 1 31 2 36h305c3 -15 4 -53 4 -67l-51 -19c-10 -4 -16 -14 -16 -24c0 -13 5 -21 11 -32l133 -233l104 242c3 7 4 15 4 22c0 15 -6 28 -17 34l-36 18v19c0 17 1 35 3 40h257
c2 -13 3 -46 3 -59c-32 -13 -72 -24 -88 -60l-238 -501c-28 -65 -89 -96 -139 -114z" />
    <glyph glyph-name="afii10038" unicode="&#x424;" horiz-adv-x="857" 
d="M261 737h335c3 -15 2 -45 1 -58l-41 -9c-36 -8 -40 -33 -40 -55c194 0 321 -79 321 -227c0 -165 -126 -268 -321 -268c0 -6 0 -12 1 -18c2 -15 9 -27 24 -30l61 -14c0 -9 -3 -47 -7 -58h-333c-6 15 -5 38 -4 51l48 14c35 17 38 27 38 54c-191 0 -324 78 -324 230
c0 165 136 265 324 266c0 29 -8 40 -50 56l-35 15c-2 9 -1 40 2 51zM659 378c0 84 -36 159 -143 159l1 -338c111 0 142 101 142 179zM198 360c0 -79 41 -161 145 -161l2 338c-109 0 -147 -103 -147 -177z" />
    <glyph glyph-name="afii10039" unicode="&#x425;" horiz-adv-x="739" 
d="M729 54c0 -9 -1 -43 -5 -54h-319c-2 15 -4 41 -3 54l34 23c19 12 18 30 3 52l-92 131l-107 -124c-17 -19 -17 -46 -1 -55l52 -27c0 -9 -1 -43 -5 -54h-272c-3 15 -5 41 -4 54l23 18c32 24 55 48 81 78l170 194l-179 223c-28 35 -53 62 -75 85c-3 16 -3 40 -2 55h297
c2 -15 4 -42 3 -55l-34 -18c-12 -7 -17 -25 0 -48l91 -125l104 119c15 17 13 43 -1 51l-38 22c0 9 -1 43 3 54h255c2 -15 -1 -41 -2 -54c-42 -20 -58 -44 -86 -77l-170 -196l191 -235c45 -56 45 -49 88 -91z" />
    <glyph glyph-name="afii10040" unicode="&#x426;" horiz-adv-x="886" 
d="M638 0h-601c-3 16 -5 35 -5 57l45 18c28 11 33 14 33 50l1 157v313c0 29 -11 35 -34 44c0 0 -19 10 -39 15c0 22 -1 33 5 53h313c5 -18 5 -32 5 -52l-47 -16c-21 -7 -33 -23 -33 -57v-301l4 -190h283l3 191v312c0 34 -13 40 -34 46l-46 14c-3 22 -3 35 1 53h318
c4 -20 3 -38 3 -52l-43 -17c-17 -7 -29 -17 -29 -44v-313l5 -189h107v-270c-11 -2 -63 -11 -71 -7c-12 45 -24 179 -144 185z" />
    <glyph glyph-name="afii10041" unicode="&#x427;" horiz-adv-x="809" 
d="M429 0c-3 14 -5 29 -5 56l64 25c17 7 28 20 28 42l2 159v37c-67 -23 -123 -44 -190 -43c-134 2 -230 44 -230 183v136c0 29 -11 35 -34 44c0 0 -19 10 -39 15c0 22 -1 33 5 53h313c5 -18 5 -32 5 -52l-47 -16c-21 -7 -33 -23 -33 -57v-101c0 -89 59 -106 109 -106
c37 0 84 7 141 35v184c0 34 -13 40 -34 46l-46 14c-3 22 -3 35 1 53h318c4 -20 3 -38 3 -52l-43 -17c-17 -7 -29 -17 -29 -44v-313l3 -150c0 -33 6 -47 23 -53l63 -22c0 -29 0 -38 -7 -56h-341z" />
    <glyph glyph-name="afii10042" unicode="&#x428;" horiz-adv-x="1146" 
d="M37 0c-3 16 -5 35 -5 57l45 18c28 11 33 14 33 50l1 157v313c0 29 -11 35 -34 44c0 0 -19 10 -39 15c0 22 -1 33 5 53h303c5 -18 5 -32 5 -52l-47 -16c-21 -7 -23 -23 -23 -57v-301l4 -190h196l2 191v313c0 29 -1 35 -24 44c0 0 -19 10 -39 15c0 22 -1 33 5 53h293
c5 -18 5 -32 5 -52l-47 -16c-21 -7 -23 -23 -23 -57v-301l4 -190h195l3 191v312c0 34 -3 40 -24 46l-46 14c-3 22 -3 35 1 53h308c4 -20 3 -38 3 -52l-43 -17c-17 -7 -29 -17 -29 -44v-313l3 -150c0 -33 6 -47 23 -53l63 -22c0 -29 0 -38 -7 -56h-1070z" />
    <glyph glyph-name="afii10043" unicode="&#x429;" horiz-adv-x="1170" 
d="M43 707h303c5 -18 5 -32 5 -52l-47 -16c-21 -7 -23 -23 -23 -57v-301l4 -190h196l2 191v313c0 29 -1 35 -24 44c0 0 -19 10 -39 15c0 22 -1 33 5 53h293c5 -18 5 -32 5 -52l-47 -16c-21 -7 -23 -23 -23 -57v-301l4 -190h195l3 191v312c0 34 -3 40 -24 46l-46 14
c-3 22 -3 35 1 53h308c4 -20 3 -38 3 -52l-43 -17c-17 -7 -29 -17 -29 -44v-313l5 -189h107v-270c-11 -2 -63 -11 -71 -7c-12 45 -24 179 -144 185h-885c-3 16 -5 35 -5 57l45 18c28 11 33 14 33 50l1 157v313c0 29 -11 35 -34 44c0 0 -19 10 -39 15c0 22 -1 33 5 53z" />
    <glyph glyph-name="afii10044" unicode="&#x42a;" horiz-adv-x="792" 
d="M464 -1l-311 1c-7 22 -7 38 -7 63l36 11c24 7 50 21 50 52l2 156v334l-65 -4c-39 -2 -76 -44 -88 -107c-27 0 -44 1 -70 7v195h477c2 -26 1 -49 -3 -68l-44 -11c-29 -8 -36 -35 -36 -54v-156h59c160 0 316 -38 316 -208s-156 -212 -316 -211zM408 91h42
c110 0 147 52 147 118c0 65 -38 119 -147 119h-45z" />
    <glyph glyph-name="afii10045" unicode="&#x42b;" horiz-adv-x="1042" 
d="M350 -1l-311 1c-7 22 -7 38 -7 63l36 11c24 7 50 21 50 52l2 156v305c0 36 -34 48 -58 55l-29 8c0 30 1 40 5 57h336c2 -26 1 -49 -3 -68l-44 -11c-29 -8 -36 -35 -36 -54v-156h59c160 0 316 -38 316 -208c0 -180 -156 -212 -316 -211zM291 290l3 -199h42
c110 0 147 52 147 118c0 65 -38 119 -147 119h-45v-38zM1010 68c0 -24 0 -42 -7 -68h-334c-3 12 -4 21 -4 31c0 9 1 19 1 30l36 10c20 7 47 24 48 56l3 154v291c0 33 -32 50 -51 58l-36 16c0 11 -1 20 -1 29s1 19 4 32h338c2 -26 1 -49 -3 -68l-44 -11
c-29 -8 -36 -35 -36 -54v-293l2 -169c1 -19 5 -24 23 -30z" />
    <glyph glyph-name="afii10046" unicode="&#x42c;" horiz-adv-x="678" 
d="M350 -1l-311 1c-7 22 -7 38 -7 63l36 11c24 7 50 21 50 52l2 156v305c0 36 -34 48 -58 55l-29 8c0 30 1 40 5 57h336c2 -26 1 -49 -3 -68l-44 -11c-29 -8 -36 -35 -36 -54v-156h59c160 0 316 -38 316 -208s-156 -212 -316 -211zM294 91h42c110 0 147 52 147 118
c0 65 -38 119 -147 119h-45v-38z" />
    <glyph glyph-name="afii10047" unicode="&#x42d;" horiz-adv-x="731" 
d="M305 -11c-71 0 -174 14 -260 65l59 115c56 -38 129 -74 200 -74c114 0 195 69 210 217l-290 -5v102l291 -5c-13 157 -103 212 -217 212c-87 0 -146 -40 -176 -117c-29 -3 -48 -3 -65 -1v174c95 36 163 47 257 47c223 0 381 -86 381 -330c6 -237 -162 -400 -390 -400z" />
    <glyph glyph-name="afii10048" unicode="&#x42e;" horiz-adv-x="1197" 
d="M776 -12c-230 0 -342 115 -345 321h-150v-28l3 -166c0 -30 10 -37 45 -45l56 -13c0 -24 -3 -44 -7 -57h-341c-3 16 -5 35 -5 57l45 18c28 11 33 14 33 50l1 157v313c0 29 -11 35 -34 44c0 0 -19 10 -39 15c0 22 -1 33 5 53h313c5 -18 5 -32 5 -52l-47 -16
c-21 -7 -33 -23 -33 -57v-182h157c32 182 174 318 375 318c243 0 349 -131 349 -335c0 -214 -146 -395 -386 -395zM979 354c0 141 -48 259 -184 259c-143 0 -188 -118 -188 -257c0 -138 44 -261 181 -261c149 0 191 117 191 259z" />
    <glyph glyph-name="afii10049" unicode="&#x42f;" horiz-adv-x="772" 
d="M32 -12l-17 80c37 14 91 55 120 89c43 51 71 96 93 142c-81 23 -143 88 -143 178c0 148 129 228 270 228l382 2c2 -26 1 -49 -3 -68l-44 -11c-29 -8 -36 -35 -36 -54v-293l3 -164c1 -19 4 -24 22 -30l61 -21c0 -24 0 -40 -3 -66h-341c-3 24 -3 39 -3 61l46 11
c24 7 40 30 41 62l3 134h-70l-21 1c-42 -95 -88 -168 -145 -219c-64 -57 -166 -61 -215 -62zM420 351l63 -1v267h-34c-112 0 -175 -51 -175 -142c0 -87 70 -123 146 -124z" />
    </font>
</defs>
</svg>
