<svg id="Layer_1" xmlns="http://www.w3.org/2000/svg" viewBox="0 0 197 221.2"><style>.st0{fill:#E0DBC2;}</style><path class="st0" d="M41.4 221.2h-.6c-3.7-.2-7.1-2.3-10.1-6.2-2.5-3.2-4.3-7.1-5.2-11.3-2.2-10.1-3.7-23.7 1.9-31.3 2.3-3.2 5.7-5 9.8-5.4h.4c.5 0 5 .2 8.7 4.4 4 4.5 5.6 11.7 4.6 21.3-.1 1.8-.9 10.2-4.9 13.6-1.4 1.2-3.1 1.7-4.8 1.6H41c-.4-.1-9-1.5-8.7-14.4l.1-3.1 11.8-1.3c.3-7.4-1.4-11.1-3-12.9-1.5-1.8-3.2-2.1-3.7-2.2-2 .2-3.4 1-4.5 2.5-3.1 4.2-3.3 13.8-.7 25.7.7 3.2 2 6.1 3.9 8.5 1.7 2.1 3.3 3.3 4.8 3.5l1.5-.1c1.5-.4 3-1.6 4.1-2.7 3.5-3.5 5.6-8.6 5.8-14C53.9 153.4 5.5 50.2 5 49.2l-.2-.4c-5.9-18-6.3-30.9-1.3-38.3 3.5-5.2 8.3-5.7 8.9-5.7h.1l142-4.8h.3c.3 0 7.5 1.2 11.8 7.5 3.1 4.6 3.8 10.5 2.1 17.7-.4 1.8-2.9 11.1-9.3 13.2l-.5.2-5.9.1c9.2 21.5 45 106.7 43.8 134.1.3 4.3 2 33.2-11.6 38.6l-.5.2-141.2 9.5c-.7.1-1.4.1-2.1.1zm-30-174.8c3.1 6.6 49.5 106.1 48 151.2-.2 5.8-2 11.2-5.3 15.7l129-8.7c6.7-3.5 7.5-22.7 6.8-31.6v-.4c1.5-28.7-44.8-134.9-45.3-135.9l-2.1-4.8 15.2-.3c1.8-1 3.7-5.2 4.3-8 1.2-5.1.9-9.2-1.1-12.1-2.3-3.2-5.9-4.2-6.9-4.5L12.8 11.8c-.2 0-2.1.4-3.7 2.8-2 3.2-4.3 11.5 2.3 31.8zm28.1 150.3c.4 2.4 1.4 3.6 2.2 4.1.6-.7 1.2-2.5 1.7-4.6l-3.9.5z"/><path class="st0" d="M52.478 166.512l.34 6.992-15.082.733-.34-6.992zM19.3 46.3c-.8 0-3.7-.2-6.3-2.7-2.7-2.6-4-6.7-3.9-12.1v-3.1L24 26.5l.9 6.9-8.7 1.1c.5 3.5 2 4.6 2.9 4.7L147.5 32l.4 7-128.5 7.3h-.1z"/><path class="st0" d="M20.9 45.8l-3.4-6.1s-.1 0-.1.1c.1 0 5.2-3.8 3.5-19.6-.2-1.1-2.1-8.6-8.1-8.1l-.6-7c10.1-.9 14.6 8.7 15.6 13.9v.3c2.3 20.8-5.9 26-6.9 26.5zM54.666 200.072l.615 6.972-13.446 1.187-.615-6.972z"/></svg>