<svg id="Layer_1" xmlns="http://www.w3.org/2000/svg" viewBox="830.4 46.1 356 787.8"><style>.st0{fill:#E0DBC2;}</style><path class="st0" d="M1135 390.9c33.3-29.3 51.3-64.8 51.3-102.3 0-45.1-26.1-87.4-73.5-119.3l-.1.1L929.3 46.1 904.2 63c-47.4 31.9-73.5 74.2-73.5 119.3 0 37.3 17.9 72.8 51 102-33.3 29.2-51.3 64.8-51.3 102.3s18.1 73.2 51.6 102.5c-33.5 29.3-51.6 65-51.6 102.5 0 45.1 26.1 87.4 73.5 119.3l.1-.1 183.4 123.3 25.1-16.8c47.4-31.9 73.5-74.2 73.5-119.3 0-37.5-18.1-73.2-51.6-102.5 33.5-29.3 51.6-64.9 51.6-102.5 0-37.5-17.9-73-51-102.1zm-203.7-71.4l139.4 93.7c53.9 41.4 58.6 101.9 14.2 146.6L949.8 469h-.1c-31.3-22.5-48.4-51.7-48.4-82.6 0-24.1 10.5-47.2 30-66.9zm.5-204.4L1067 206c31.3 22.5 48.4 51.7 48.4 82.6 0 24.2-10.5 47.3-30 67L946 261.8c-28.7-22-44.4-50-44.4-79.6 0-24.2 10.6-47.4 30.2-67.1zM1085 764.8L949.8 674h-.1c-31.3-22.5-48.4-51.6-48.4-82.6 0-24.3 10.5-47.4 30.1-67.1l135.2 90.9h.1c31.3 22.5 48.4 51.7 48.4 82.6 0 24.2-10.5 47.4-30.1 67z"/></svg>