<svg id="Layer_1" xmlns="http://www.w3.org/2000/svg" viewBox="0 0 272.5 170.1"><style>.st0{fill:#E0DBC2;}</style><path class="st0" d="M133.4 170.1c-6.8 0-12-.7-13.3-1.3-1.6-.7-2.5-2.3-2.4-4 .1-1.6 1.2-3 2.7-3.6 4.5-1.8 15.4-8.2 17.1-13.6-6-4.5-11.1-9.7-15.3-15.4-5.4-7.6-8.9-15.8-10.3-24.5-1.9-11.4-.3-22.6 4.8-33.2 3-6.4 7.3-12.3 12.6-17.7 8.5-8.5 18.9-14.9 31.2-19.2 8-2.8 16.6-4.5 25.3-5 14.6-.9 28.6 1.4 41.6 6.6 9.8 3.9 18.5 9.5 25.7 16.4 9.2 8.8 15.3 19.3 18.1 31.1.6 2.8 1 5.6 1.2 8.4.7 14.3-3.5 27.5-12.6 39.2-7.9 10.2-18.3 17.9-31.9 23.6-5.3 2.2-10.9 3.9-16.8 5-7 1.3-13.2 1.9-19.1 1.9-8.8 0-17.1-1.1-25.3-3.2-8.7 6.8-22.8 8.5-33.3 8.5zm-9.9-1.5c-.3.1-.5.2-.5.2.2-.1.4-.1.5-.2zm22.2-21.7c-.4 6.1-5.5 11.4-10.8 15.2 9.4-.2 21.8-1.8 28.2-7.8l1.7-1.6 2.2.6c8.3 2.4 16.7 3.5 25.8 3.5 5.2 0 10.7-.6 16.9-1.7 5.3-1 10.4-2.5 15.2-4.5 12.3-5.2 21.7-12.1 28.7-21.2 8-10.2 11.5-21.3 10.9-33.8-.1-2.3-.4-4.7-1-7-2.5-10.4-7.6-19.3-15.9-27.2-6.5-6.2-14.3-11.1-23.2-14.7-11.9-4.8-24.7-6.8-38.1-6-8 .5-15.8 2-23.2 4.6-11.2 3.9-20.5 9.6-28.2 17.3-4.7 4.7-8.4 9.9-11 15.4-4.3 9.1-5.7 18.7-4.1 28.5 1.2 7.4 4.2 14.5 8.9 21.1 4 5.5 9 10.5 15 14.7 1.6 1.1 2.3 2.8 2 4.6zM87.3 88.5c-6.5 0-15.1-1.1-20.8-5.1-5 1.3-10.2 1.9-15.6 1.9-3.6 0-7.4-.4-11.6-1.2-3.7-.7-7.3-1.8-10.6-3.2-8.6-3.7-15.2-8.6-20.2-15.1-5.8-7.5-8.5-16-8-25.3.1-1.8.3-3.7.8-5.5C3 27.3 6.9 20.6 12.7 14.9c4.6-4.5 10.1-8 16.3-10.5C37.2 1.1 46-.3 55.2.2c5.5.3 10.9 1.4 16 3.2C79 6.1 85.6 10.2 91 15.7c3.4 3.4 6.1 7.3 8 11.4 3.2 6.9 4.3 14.1 3.1 21.5-.9 5.6-3.1 10.9-6.6 15.8-2.4 3.4-5.3 6.5-8.7 9.2 1.5 2.2 6.1 5.2 9.2 6.6 1.5.6 2.5 2 2.6 3.6.1 1.7-.8 3.2-2.4 3.9-.9.3-4.4.8-8.9.8zm-18.8-14l1.7 1.6c2.6 2.4 7.3 3.6 11.8 4.1-2-2.1-3.6-4.6-3.8-7.5-.2-1.6.4-3.2 1.8-4.2 3.5-2.5 6.5-5.5 8.8-8.8 2.8-3.9 4.5-8 5.2-12.5.9-5.8.2-11.3-2.4-16.8-1.6-3.3-3.7-6.4-6.5-9.2-4.6-4.6-10-8-16.7-10.3-4.4-1.5-9-2.5-13.8-2.7-8-.5-15.6.7-22.7 3.6-5.3 2.1-9.9 5.1-13.7 8.8-4.8 4.7-7.9 10-9.3 16.1-.3 1.3-.5 2.7-.6 4.1-.4 7.4 1.7 14 6.4 20 4.2 5.4 9.7 9.5 17 12.7 2.8 1.2 5.8 2.1 9 2.7 3.7.7 7 1.1 10.1 1.1 5.4 0 10.4-.7 15.4-2.1l2.3-.7z"/></svg>