<svg id="Layer_1" xmlns="http://www.w3.org/2000/svg" viewBox="0 0 112.4 232.6"><style>.st0{fill:#E0DBC2;}</style><path class="st0" d="M69.6 232.6H42.5V205c-14.9-1.1-29.9-5.9-39.4-12.6L0 190.2l9.9-27.8 5.3 3.5c10.3 6.9 23.5 10.8 36.3 10.8 16.3 0 27.3-8.7 27.3-21.6 0-11.7-8-19.7-27.5-27.6C26.5 117.8 3.4 104.8 3.4 76c0-23.7 15.9-42.1 40.9-47.8V0h26.8v26.6c12.4 1 23.2 4.3 32.8 9.9l3.6 2.1-10.2 27.3-5.1-2.9c-4.5-2.6-15-8.6-31.7-8.6-17.5 0-23.7 9.5-23.7 18.3 0 10.6 6.8 16.5 30.5 26.3 31.6 12.9 45.1 29.1 45.1 54.2 0 24.6-17 44.3-42.8 50.2v29.2zm-17.1-10h7.1v-27.4l4.2-.7c23.5-3.9 38.7-20 38.7-41.2 0-20.7-11.3-33.7-38.9-45-24.5-10-36.9-18.3-36.9-35.5 0-14.1 10.4-28.3 33.7-28.3 13.8 0 23.9 3.4 31.5 7.1l3.2-8.5c-8.5-4.2-18.1-6.4-29.2-6.8l-4.8-.2V10h-6.8v26.6l-4.2.7C27.5 41 13.4 55.9 13.4 76.1c0 18.7 11.7 30.5 41.6 42.3 16.7 6.8 33.8 16.5 33.8 36.9 0 18.6-15.3 31.6-37.3 31.6-12.5 0-25.5-3.3-36.4-9.2l-3.1 8.7c9.1 5.2 22.8 8.8 35.5 9l4.9.1v27.1z"/></svg>