<svg id="Layer_1" xmlns="http://www.w3.org/2000/svg" viewBox="0 0 367.3 216.1"><style>.st0{fill:#1B356D;} .st1{fill:#E6C951;}</style><path class="st0" d="M53.6 181.3H31.1c-.2-.9-.3-1.9-.3-3.7L35 176c1.1-.5 1.9-1.3 1.9-2.8l.1-10.5v-1.8H16.5v1.8l.2 11c0 2 .7 2.4 3 3l3.7.9c0 1.6-.2 2.9-.5 3.8H.3c-.2-1.1-.3-2.4-.3-3.8l3-1.2c1.8-.7 2.2-.9 2.2-3.3l.1-10.4V142c0-1.9-.7-2.3-2.2-2.9l-2.6-1c0-1.5-.1-2.2.3-3.5h20.7c.3 1.2.3 2.1.3 3.4l-3.1 1.1c-1.4.5-2.2 1.5-2.2 3.8v12H37v-12.8c0-2.2-.9-2.6-2.2-3l-3-.9c-.2-1.5-.2-2.3.1-3.5h21c.3 1.3.2 2.5.2 3.4l-2.8 1.1c-1.1.5-1.9 1.1-1.9 2.9v20.7l.2 9.9c0 2.2.4 3.1 1.5 3.5l4.2 1.5c-.2 1.9-.4 2.7-.7 3.6zM98.4 181.3H59.6c-.3-1.6-.4-3-.3-4.3l2.8-.7c1.5-.3 3-1 3-2.2l.2-11.5v-18.4c0-2.9-1-3.3-2-3.8l-3.6-1.7v-2c0-.9 0-1.5.3-2.2h38.1v11c-1.1.3-3.5.4-4.6.4-.9-4.4-2.9-5.2-5.6-5.2l-11.2-.3v14.2l17.9-.3v6.7l-17.9-.3v1.8l.3 12.6 8.5-.3c4.6-.2 8.3-1.1 10.2-6.3l4.7 1.1-2 11.7zM156.1 182.9c-1.1.1-2.2.2-3.4.2-4.7 0-9.3-1.1-13.7-4.9-3.9-3.2-7.3-9.2-10.1-15.5l-1.4.1h-5.2l.2 10.4c0 1.3.3 2 1.4 2.3l4.1 1.4c0 .6 0 3.6-.3 4.4h-22.5c-.1-1-.3-3.2-.2-4.1l3.2-.7c1.5-.3 2.5-2.3 2.6-4.1l.2-9.1v-20.2c0-1.1-.5-2.2-1.6-2.6l-4.3-1.7c-.1-.5 0-3.2.3-4.1h25.9c9.3 0 17.8 3.6 17.8 13.4 0 4.6-2.8 9.5-8.1 12.4 1.5 3 3.5 7 6.1 10.4 2.6 3.4 5.6 6.1 9.3 6.9l-.3 5.1zm-31-42.5h-2.9v17l4.8-.1c7-.1 9.6-2.4 9.6-8.2s-3.6-8.7-11.5-8.7zM182.2 181.3h-22.1c-.2-.8-.3-1.4-.3-2 0-.6.1-1.3.1-2l2.4-.7c1.3-.5 3.1-1.6 3.2-3.7l.2-10.2v-19.2c0-2.2-2.1-3.3-3.4-3.8l-2.4-1.1c0-.7-.1-1.3-.1-1.9s.1-1.3.3-2.1h22.3c.1 1.7.1 3.2-.2 4.5l-2.9.7c-1.9.5-2.4 2.3-2.4 3.6v19.4l.1 11.2c.1 1.3.3 1.6 1.5 2l4 .9c.1 1.5.1 2.7-.3 4.4zM232.7 147.7c-.9.2-3.8.4-4.3.2-.8-4.1-2.6-6.5-6.2-6.8l-7.1-.5v22.7l.3 10c0 1.5.1 2.1 1.4 2.4l5.6 1.2c0 .6-.1 3.7-.3 4.4h-25.2c-.2-1-.3-3.6-.3-4.4l4.2-1.3c1.5-.5 2.6-2.8 2.7-4.6l.2-7.8v-22.7l-7.7.5c-3.2.2-4.8 3-5.5 6.8-.5.2-3.5.1-4.4-.2v-13.1h46.5v13.2zM277.5 181.3h-20.9c-.5-1.4-.6-2.4-.6-4.3l3.5-1.3c1.5-.5 2.2-1.5 2.2-2.8 0-.9-.2-1.5-.5-2.4l-2.2-6.9h-14.7l-2.4 6.3c-.3 1-.5 1.8-.5 2.5 0 2.2 1.4 2.9 2.4 3.2l4.8 1.4c0 1.3 0 3-.4 4.3h-18c-.3-1.1-.3-2.5-.3-4 1.5-1.5 2.3-2.1 3.2-4l16.3-37.6 10.4-2.2 15.4 39.9c.7 1.6 1.9 2.8 3 4-.2 1.6-.3 2.6-.7 3.9zm-23.6-33l-1.6-5.7h-.3l-1.8 5.5-3.8 10h10.8l-3.3-9.8zM278.3 158.3c0-13.6 11.8-24.5 26.5-24.5 7.2 0 9.4.7 15.7 3.1v11.5c-1.1.1-2.3.1-4.2-.1-2-5.1-5.9-7.9-11.7-7.9-8.3 0-14.5 5.2-14.5 17.8 0 11.6 8.3 15.7 18.2 16.1h1.1v-12.6h11.3v17.1c-5.4 2.1-9.1 3-15.7 3-16.6 0-26.7-7.3-26.7-23.5zM365.2 181.3h-38.8c-.3-1.6-.4-3-.3-4.3l2.8-.7c1.5-.3 3-1 3-2.2l.2-11.5v-18.4c0-2.9-1-3.3-2-3.8l-3.6-1.7v-2c0-.9 0-1.5.3-2.2h38.1v11c-1.1.3-3.5.4-4.6.4-.9-4.4-2.9-5.2-5.6-5.2l-11.2-.3v14.2l17.9-.3v6.7l-17.9-.3v1.8l.3 12.6 8.5-.3c4.6-.2 8.3-1.1 10.2-6.3l4.7 1.1-2 11.7zM1.5 193.5h7.2c4.4 0 7.2 2.4 7.2 6.9 0 4-2.7 7.2-8.8 7.2h-1v-2.2h1.1c3.5 0 5.9-1.4 5.9-4.9 0-3.4-1.7-5-5.1-5H4v20.1H1.5v-22.1zM32.9 212.7l-4.1-5.9c-.5.1-1.4.2-2.1.2h-3v8.8h-2.6v-22.2h7.2c4.2 0 7.2 2 7.2 6.5 0 2.6-1.2 5-4.2 6.1l3.5 4.9c1.5 2.1 3.2 2.7 4.4 3l-.6 2c-1.2-.2-3.8-.8-5.7-3.4zm-6-8c3.5 0 5.9-1 5.9-4.5 0-3.4-1.8-4.6-5.1-4.6h-4v9.1h3.2zM43.8 193.5h12.4v2.1h-9.8v7.9h9.2v2.1h-9.2v7.9H57v2.1H43.8v-22.1zM63 193.5h7.2c4.4 0 7.2 2.4 7.2 6.9 0 4-2.7 7.2-8.8 7.2h-.9v-2.2h1.1c3.5 0 5.9-1.4 5.9-4.9 0-3.4-1.7-5-5.1-5h-4v20.1H63v-22.1zM86.7 193.5h3.5l8 22.2h-2.8l-2.9-8.3h-8.8l-3.3 8.3h-2.6l8.9-22.2zm5.1 11.8l-3.5-10-3.8 10h7.3zM114.2 212.7l-4.1-5.9c-.5.1-1.4.2-2.1.2h-3v8.8h-2.6v-22.2h7.2c4.2 0 7.2 2 7.2 6.5 0 2.6-1.2 5-4.2 6.1l3.5 4.9c1.5 2.1 3.2 2.7 4.4 3l-.6 2c-1.3-.2-3.8-.8-5.7-3.4zm-6-8c3.5 0 5.9-1 5.9-4.5 0-3.4-1.8-4.6-5.1-4.6h-4v9.1h3.2zM131.9 193.5h3.5l8 22.2h-2.8l-2.9-8.3h-8.8l-3.3 8.3H123l8.9-22.2zm5.1 11.8l-3.5-10-3.8 10h7.3zM151.4 195.7h-7.6v-2.2h17.7v2.2H154v20h-2.6v-20zM163 204.6c0-6.9 4.6-11.4 11.4-11.4 7.2 0 10.8 5 10.8 11.4 0 6.8-4.2 11.4-11.4 11.4-6.8.1-10.8-4.7-10.8-11.4zm19.7 0c0-5.3-3-9.3-8.5-9.3-5.7 0-8.6 4-8.6 9.2 0 5.1 2.8 9.4 8.4 9.4 5.9 0 8.7-4 8.7-9.3zM202.2 212.7l-4.1-5.9c-.5.1-1.4.2-2.1.2h-3v8.8h-2.6v-22.2h7.2c4.2 0 7.2 2 7.2 6.5 0 2.6-1.2 5-4.2 6.1l3.5 4.9c1.5 2.1 3.2 2.7 4.4 3l-.6 2c-1.2-.2-3.8-.8-5.7-3.4zm-6-8c3.5 0 5.9-1 5.9-4.5 0-3.4-1.8-4.6-5.1-4.6h-4v9.1h3.2zM216.4 207.3l-7.2-13.8h2.9l5.7 11.5 6.1-11.5h2.8l-7.7 13.8v8.4h-2.6v-8.4zM238.2 214.7l.9-2.1c1.6.7 3.1 1.2 5.2 1.2 2.5 0 5.3-.8 5.3-3.7 0-5.6-10.9-4.3-10.9-11.5 0-3.6 3-5.4 6.6-5.4 2.5 0 4.1.5 5.4 1.1l-.7 1.9c-1.3-.5-2.6-.8-4.6-.8-2.4 0-4.2.9-4.2 3.1 0 5 10.9 4.3 10.9 11.4 0 4.2-3.5 6.1-7.8 6.1-3.1.1-4.8-.6-6.1-1.3zM256.1 204.7c0-7 4.1-11.5 11.4-11.5 4 0 5.9.9 6.4 1.1l-.7 2.1c-.9-.3-2.5-.9-5.6-.9-4.6 0-8.7 2.5-8.7 9 0 6.6 4.3 9.4 9.3 9.4 2.1 0 4-.4 5.2-.8l.6 2.1c-.8.3-2.7 1-6.4 1-7.3-.1-11.5-4.8-11.5-11.5zM279.2 193.5h2.6v10H294v-10h2.6v22.2H294v-10.1h-12.2v10.1h-2.6v-22.2zM301.7 204.6c0-6.9 4.6-11.4 11.4-11.4 7.2 0 10.8 5 10.8 11.4 0 6.8-4.2 11.4-11.4 11.4-6.8.1-10.8-4.7-10.8-11.4zm19.6 0c0-5.3-3-9.3-8.5-9.3-5.7 0-8.6 4-8.6 9.2 0 5.1 2.8 9.4 8.4 9.4 6 0 8.7-4 8.7-9.3zM327.7 204.6c0-6.9 4.6-11.4 11.4-11.4 7.2 0 10.8 5 10.8 11.4 0 6.8-4.2 11.4-11.4 11.4-6.9.1-10.8-4.7-10.8-11.4zm19.6 0c0-5.3-3-9.3-8.5-9.3-5.7 0-8.6 4-8.6 9.2 0 5.1 2.8 9.4 8.4 9.4 5.9 0 8.7-4 8.7-9.3zM355.1 193.5h2.6v19.9h9.6v2.2h-12.2v-22.1zM125.8 0h115.5v114.8H125.8z"/><g><path class="st1" d="M215.3 63.9V50.7h-63.6v13.2h63.6zM191.9 28.2c1.8.6 3.1 1.2 3.1 4.5v13.9h20.3V31.8c.4-2.9 1.9-3.2 6-5.1 0-1.4.1-3.3-.3-5.3-2.2 0-33.1.1-33.1.1-.4 1.8-.4 3.1-.1 5.4l4.1 1.3zM172.3 82.1V67.9h-20.6v1c-.3 18 1.1 15.1-7.4 18.7 0 3 .2 4.2.6 5.7H181c.4-1.3.6-3.3.6-5.8-7.2-1.7-9.2-1.7-9.3-5.4zM215.3 69v-1H195v13.3c-.1 2-1.3 3.3-2.7 3.9l-5.7 2.5c0 2.7.2 4.2.4 5.7h35.1c.4-1.5.6-2.8.6-5.7-8.5-3.6-7.1-.7-7.4-18.7zM151.7 31.8v14.8h20.6V33.9c0-2.8.7-4.8 2.9-5.6l4.2-1.6c0-2 0-3.4-.4-5.3 0 0-26.3-.1-33.1-.1-.3 2-.3 3.9-.3 5.3 4.1 2 5.7 2.3 6.1 5.2z"/></g></svg>