<svg id="Layer_1" xmlns="http://www.w3.org/2000/svg" viewBox="0 0 115.5 114.8"><style>.st0{fill:#1B356D;} .st1{fill:#E6C951;}</style><path class="st0" d="M0 0h115.5v114.8H0z"/><path class="st1" d="M89.6 63.9V50.7H25.9v13.2h63.7zM66.2 28.2c1.8.6 3.1 1.2 3.1 4.5v13.9h20.3V31.8c.4-2.9 1.9-3.2 6-5.1 0-1.4.1-3.3-.3-5.3-2.2 0-33.1.1-33.1.1-.4 1.8-.4 3.1-.1 5.4l4.1 1.3zM46.6 82.1V67.9H25.9v1c-.3 18 1.1 15.1-7.4 18.7 0 3 .2 4.2.6 5.7h36.1c.4-1.3.6-3.3.6-5.8-7.2-1.7-9.1-1.7-9.2-5.4zM89.6 69v-1H69.3v13.3c-.1 2-1.3 3.3-2.7 3.9l-5.7 2.5c0 2.7.2 4.2.4 5.7h35.1c.4-1.5.6-2.8.6-5.7-8.5-3.6-7.1-.7-7.4-18.7zM25.9 31.8v14.8h20.6V33.9c0-2.8.7-4.8 2.9-5.6l4.2-1.6c0-2 0-3.4-.4-5.3 0 0-26.3-.1-33.1-.1-.3 2-.3 3.9-.3 5.3 4.2 2 5.8 2.3 6.1 5.2z"/></svg>